<?xml version="1.0" encoding="UTF-8" standalone="no"?>
<!-- Generator: Adobe Illustrator 24.2.1, SVG Export Plug-In . SVG Version: 6.00 Build 0)  -->

<svg
   version="1.1"
   id="水瓶座"
   x="0px"
   y="0px"
   viewBox="0 0 512 512"
   xml:space="preserve"
   sodipodi:docname="水瓶座.svg"
   width="512"
   height="512"
   inkscape:version="1.3 (0e150ed6c4, 2023-07-21)"
   inkscape:export-filename="..\output\水瓶座\水瓶座 线条.png"
   inkscape:export-xdpi="96"
   inkscape:export-ydpi="96"
   xmlns:inkscape="http://www.inkscape.org/namespaces/inkscape"
   xmlns:sodipodi="http://sodipodi.sourceforge.net/DTD/sodipodi-0.dtd"
   xmlns="http://www.w3.org/2000/svg"
   xmlns:svg="http://www.w3.org/2000/svg"><defs
   id="defs545" /><sodipodi:namedview
   id="namedview545"
   pagecolor="#ffffff"
   bordercolor="#666666"
   borderopacity="1.0"
   inkscape:showpageshadow="2"
   inkscape:pageopacity="0.0"
   inkscape:pagecheckerboard="0"
   inkscape:deskcolor="#d1d1d1"
   inkscape:zoom="1.6813198"
   inkscape:cx="123.11757"
   inkscape:cy="196.57177"
   inkscape:window-width="1920"
   inkscape:window-height="1017"
   inkscape:window-x="1912"
   inkscape:window-y="-8"
   inkscape:window-maximized="1"
   inkscape:current-layer="水瓶座" />&#10;<style
   type="text/css"
   id="style1">&#10;	.st0{fill:url(#SVGID_1_);}&#10;	.st1{fill:#FFFFFF;}&#10;	.st2{fill:none;stroke:url(#Layer1_0_1_STROKES_1_);stroke-linecap:round;stroke-linejoin:round;}&#10;	.st3{fill:#4BE9F4;}&#10;	.st4{fill:none;stroke:url(#Layer1_1_1_STROKES_1_);stroke-linecap:round;stroke-linejoin:round;}&#10;	.st5{fill:none;stroke:url(#Layer1_1_2_STROKES_1_);stroke-linecap:round;stroke-linejoin:round;}&#10;	.st6{fill:url(#SVGID_2_);}&#10;	.st7{fill:none;stroke:url(#Layer1_2_1_STROKES_1_);stroke-linecap:round;stroke-linejoin:round;}&#10;	.st8{fill:none;stroke:url(#Layer1_2_2_STROKES_1_);stroke-linecap:round;stroke-linejoin:round;}&#10;	.st9{fill:url(#SVGID_3_);}&#10;	.st10{fill:none;stroke:#FFFFFF;stroke-width:0.5;stroke-linecap:round;stroke-linejoin:round;}&#10;	.st11{fill:url(#SVGID_4_);}&#10;	.st12{fill:url(#SVGID_5_);}&#10;	.st13{fill:url(#SVGID_6_);}&#10;	.st14{fill:url(#SVGID_7_);}&#10;	.st15{fill:url(#SVGID_8_);}&#10;	.st16{fill:url(#SVGID_9_);}&#10;	.st17{fill:url(#SVGID_10_);}&#10;	.st18{fill:url(#SVGID_11_);}&#10;	.st19{fill:url(#SVGID_12_);}&#10;	.st20{fill:none;stroke:url(#Layer1_4_1_STROKES_1_);stroke-linecap:round;stroke-linejoin:round;}&#10;	.st21{fill:none;stroke:url(#Layer1_4_2_STROKES_1_);stroke-linecap:round;stroke-linejoin:round;}&#10;	.st22{fill:none;stroke:url(#Layer1_4_3_STROKES_1_);stroke-linecap:round;stroke-linejoin:round;}&#10;	.st23{fill:url(#SVGID_13_);}&#10;	.st24{fill:none;stroke:url(#Layer1_5_1_STROKES_1_);stroke-linecap:round;stroke-linejoin:round;}&#10;	.st25{fill:url(#SVGID_14_);}&#10;	.st26{fill:none;stroke:#FFFFFF;stroke-linecap:round;stroke-linejoin:round;}&#10;	.st27{fill:url(#SVGID_15_);}&#10;	.st28{fill:url(#SVGID_16_);}&#10;	.st29{fill:url(#SVGID_17_);}&#10;	.st30{fill:url(#SVGID_18_);}&#10;	.st31{fill:url(#SVGID_19_);}&#10;	.st32{fill:url(#SVGID_20_);}&#10;	.st33{fill:url(#SVGID_21_);}&#10;	.st34{fill:url(#SVGID_22_);}&#10;	.st35{fill:url(#SVGID_23_);}&#10;	.st36{fill:url(#SVGID_24_);}&#10;	.st37{fill:url(#SVGID_25_);}&#10;	.st38{fill:url(#SVGID_26_);}&#10;	.st39{fill:url(#SVGID_27_);}&#10;	.st40{fill:url(#SVGID_28_);}&#10;	.st41{fill:url(#SVGID_29_);}&#10;	.st42{fill:url(#SVGID_30_);}&#10;	.st43{fill:url(#SVGID_31_);}&#10;	.st44{fill:url(#SVGID_32_);}&#10;	.st45{fill:url(#SVGID_33_);}&#10;	.st46{fill:url(#SVGID_34_);}&#10;	.st47{fill:url(#SVGID_35_);}&#10;	.st48{fill:url(#SVGID_36_);}&#10;	.st49{fill:url(#SVGID_37_);}&#10;	.st50{fill:url(#SVGID_38_);}&#10;	.st51{fill:url(#SVGID_39_);}&#10;	.st52{fill:url(#SVGID_40_);}&#10;	.st53{fill:url(#SVGID_41_);}&#10;	.st54{fill:url(#SVGID_42_);}&#10;	.st55{fill:url(#SVGID_43_);}&#10;	.st56{fill:url(#SVGID_44_);}&#10;	.st57{fill:url(#SVGID_45_);}&#10;	.st58{fill:url(#SVGID_46_);}&#10;	.st59{fill:url(#SVGID_47_);}&#10;	.st60{fill:url(#SVGID_48_);}&#10;	.st61{fill:url(#SVGID_49_);}&#10;	.st62{fill:url(#SVGID_50_);}&#10;	.st63{fill:url(#SVGID_51_);}&#10;	.st64{fill:url(#SVGID_52_);}&#10;	.st65{fill:url(#SVGID_53_);}&#10;	.st66{fill:url(#SVGID_54_);}&#10;	.st67{fill:url(#SVGID_55_);}&#10;	.st68{fill:url(#SVGID_56_);}&#10;	.st69{fill:url(#SVGID_57_);}&#10;	.st70{fill:url(#SVGID_58_);}&#10;	.st71{fill:url(#SVGID_59_);}&#10;	.st72{fill:url(#SVGID_60_);}&#10;	.st73{fill:url(#SVGID_61_);}&#10;	.st74{fill:url(#SVGID_62_);}&#10;	.st75{fill:url(#SVGID_63_);}&#10;	.st76{fill:url(#SVGID_64_);}&#10;	.st77{fill:url(#SVGID_65_);}&#10;	.st78{fill:url(#SVGID_66_);}&#10;	.st79{fill:url(#SVGID_67_);}&#10;	.st80{fill:url(#SVGID_68_);}&#10;	.st81{fill:url(#SVGID_69_);}&#10;	.st82{fill:url(#SVGID_70_);}&#10;	.st83{fill:url(#SVGID_71_);}&#10;	.st84{fill:url(#SVGID_72_);}&#10;	.st85{fill:url(#SVGID_73_);}&#10;	.st86{fill:url(#SVGID_74_);}&#10;	.st87{fill:url(#SVGID_75_);}&#10;	.st88{fill:url(#SVGID_76_);}&#10;	.st89{fill:url(#SVGID_77_);}&#10;	.st90{fill:url(#SVGID_78_);}&#10;	.st91{fill:url(#SVGID_79_);}&#10;	.st92{fill:url(#SVGID_80_);}&#10;	.st93{fill:url(#SVGID_81_);}&#10;	.st94{fill:url(#SVGID_82_);}&#10;	.st95{fill:url(#SVGID_83_);}&#10;	.st96{fill:url(#SVGID_84_);}&#10;	.st97{fill:url(#SVGID_85_);}&#10;	.st98{fill:url(#SVGID_86_);}&#10;	.st99{fill:url(#SVGID_87_);}&#10;	.st100{fill:url(#SVGID_88_);}&#10;	.st101{fill:url(#SVGID_89_);}&#10;	.st102{fill:url(#SVGID_90_);}&#10;	.st103{fill:url(#SVGID_91_);}&#10;	.st104{fill:url(#SVGID_92_);}&#10;	.st105{fill:url(#SVGID_93_);}&#10;	.st106{fill:url(#SVGID_94_);}&#10;	.st107{fill:url(#SVGID_95_);}&#10;	.st108{fill:url(#SVGID_96_);}&#10;	.st109{fill:url(#SVGID_97_);}&#10;	.st110{fill:url(#SVGID_98_);}&#10;	.st111{fill:url(#SVGID_99_);}&#10;	.st112{fill:url(#SVGID_100_);}&#10;	.st113{fill:url(#SVGID_101_);}&#10;	.st114{fill:url(#SVGID_102_);}&#10;	.st115{fill:url(#SVGID_103_);}&#10;	.st116{fill:url(#SVGID_104_);}&#10;	.st117{fill:url(#SVGID_105_);}&#10;	.st118{fill:url(#SVGID_106_);}&#10;	.st119{fill:url(#SVGID_107_);}&#10;	.st120{fill:url(#SVGID_108_);}&#10;	.st121{fill:url(#SVGID_109_);}&#10;	.st122{fill:url(#SVGID_110_);}&#10;	.st123{fill:url(#SVGID_111_);}&#10;	.st124{fill:url(#SVGID_112_);}&#10;	.st125{fill:url(#SVGID_113_);}&#10;	.st126{fill:url(#SVGID_114_);}&#10;	.st127{fill:url(#SVGID_115_);}&#10;	.st128{fill:url(#SVGID_116_);}&#10;	.st129{fill:url(#SVGID_117_);}&#10;	.st130{fill:url(#SVGID_118_);}&#10;	.st131{fill:url(#SVGID_119_);}&#10;	.st132{fill:url(#SVGID_120_);}&#10;	.st133{fill:url(#SVGID_121_);}&#10;	.st134{fill:url(#SVGID_122_);}&#10;	.st135{fill:url(#SVGID_123_);}&#10;	.st136{fill:url(#SVGID_124_);}&#10;	.st137{fill:url(#SVGID_125_);}&#10;	.st138{fill:url(#SVGID_126_);}&#10;	.st139{fill:url(#SVGID_127_);}&#10;	.st140{fill:url(#SVGID_128_);}&#10;	.st141{fill:url(#SVGID_129_);}&#10;	.st142{fill:url(#SVGID_130_);}&#10;	.st143{fill:url(#SVGID_131_);}&#10;	.st144{fill:url(#SVGID_132_);}&#10;	.st145{fill:url(#SVGID_133_);}&#10;	.st146{fill:url(#SVGID_134_);}&#10;	.st147{fill:url(#SVGID_135_);}&#10;	.st148{fill:url(#SVGID_136_);}&#10;	.st149{fill:url(#SVGID_137_);}&#10;	.st150{fill:url(#SVGID_138_);}&#10;	.st151{fill:url(#SVGID_139_);}&#10;	.st152{fill:url(#SVGID_140_);}&#10;	.st153{fill:url(#SVGID_141_);}&#10;	.st154{fill:url(#SVGID_142_);}&#10;	.st155{fill:url(#SVGID_143_);}&#10;	.st156{fill:url(#SVGID_144_);}&#10;	.st157{fill:url(#SVGID_145_);}&#10;	.st158{fill:url(#SVGID_146_);}&#10;	.st159{fill:url(#SVGID_147_);}&#10;	.st160{fill:url(#SVGID_148_);}&#10;	.st161{fill:url(#SVGID_149_);}&#10;	.st162{fill:url(#SVGID_150_);}&#10;	.st163{fill:url(#SVGID_151_);}&#10;	.st164{fill:url(#SVGID_152_);}&#10;	.st165{fill:url(#SVGID_153_);}&#10;	.st166{fill:url(#SVGID_154_);}&#10;	.st167{fill:url(#SVGID_155_);}&#10;	.st168{fill:url(#SVGID_156_);}&#10;	.st169{fill:url(#SVGID_157_);}&#10;	.st170{fill:url(#SVGID_158_);}&#10;	.st171{fill:none;stroke:url(#Layer1_9_1_STROKES_1_);stroke-linecap:round;stroke-linejoin:round;}&#10;	.st172{fill:none;stroke:url(#Layer1_10_1_STROKES_1_);stroke-linecap:round;stroke-linejoin:round;}&#10;</style>&#10;&#10;<g
   id="juese_1_"
   transform="matrix(1.4005334,0,0,1.4005334,-662.98152,-760.71566)"
   style="stroke:#000000;stroke-opacity:1">&#10;	<g
   transform="translate(-4.35,6.1)"
   id="g11"
   style="display:inline;stroke:#000000;stroke-opacity:1">&#10;		<g
   id="g9"
   style="display:none;stroke:#000000;stroke-opacity:1">&#10;			<g
   id="Layer1_0_FILL_2_"
   style="stroke:#000000;stroke-opacity:1">&#10;				&#10;					<radialGradient
   id="SVGID_1_"
   cx="165.4467"
   cy="1311.5063"
   r="17.6168"
   gradientTransform="matrix(0.9884,0.1518,0.6719,-4.3467,-480.8272,6284.6792)"
   gradientUnits="userSpaceOnUse">&#10;					<stop
   offset="0"
   style="stop-color:#090D11"
   id="stop1" />&#10;					<stop
   offset="0.1294"
   style="stop-color:#0E151D"
   id="stop2" />&#10;					<stop
   offset="0.3216"
   style="stop-color:#325276"
   id="stop3" />&#10;					<stop
   offset="0.4"
   style="stop-color:#3780C8"
   id="stop4" />&#10;					<stop
   offset="0.5255"
   style="stop-color:#4BE4F1"
   id="stop5" />&#10;					<stop
   offset="0.651"
   style="stop-color:#4EF3F7"
   id="stop6" />&#10;					<stop
   offset="0.9608"
   style="stop-color:#205CE0"
   id="stop7" />&#10;					<stop
   offset="1"
   style="stop-color:#205CE0"
   id="stop8" />&#10;				</radialGradient>&#10;				<path
   class="st0"
   d="m 551.9,651.6 c 0.3,0 0.6,0 0.9,0.1 0.2,-0.5 0.4,-1 0.6,-1.3 -0.2,0 -0.4,0 -0.5,0 -1.9,0 -3.4,0.5 -4.5,1.4 -0.6,0.5 -1.1,1.2 -1.3,1.9 0.3,-0.4 0.8,-0.7 1.3,-1 1.1,-0.8 2.3,-1.1 3.5,-1.1 m 10.4,3.7 c 0.2,0.3 0.4,0.5 0.6,0.8 2,1.3 3.4,2.7 4.3,4.2 1.1,1.7 1.7,3.8 1.7,6.1 0,0.8 -0.1,1.5 -0.3,2.2 0.6,-1.6 1,-2.9 1,-3.9 0,-3.7 -1.3,-6.6 -3.9,-8.8 -2.3,-1.5 -4.2,-2.8 -5.5,-3.9 0.5,1 1.2,2.1 2.1,3.3 m -3.2,-6.4 c 0,-0.1 -0.1,-0.2 -0.1,-0.3 -0.3,0.2 -0.6,0.3 -0.9,0.3 -0.8,0 -1.6,-0.2 -2.2,-0.5 -0.1,0.6 -0.2,1.5 -0.3,2.5 0,0.4 0,0.8 0,1.2 0,2.4 0.7,6.3 2.1,11.8 1.4,5.5 2.1,8.9 2.1,10.4 0,1.8 -0.3,3.3 -1,4.5 -1.1,1.9 -2.9,2.8 -5.4,2.8 -0.6,0 -1.4,-0.4 -2.3,-1.1 -0.9,-0.7 -1.7,-1.5 -2.4,-2.5 0.4,1.3 1.3,2.4 2.5,3.2 1.4,0.9 2.8,1.4 4.2,1.4 2.8,0 5.2,-2 7.3,-6 1.9,-3.6 2.8,-7.5 2.8,-11.5 0,-3.2 -0.9,-6.1 -2.6,-8.8 -0.2,-0.3 -0.4,-0.6 -0.6,-0.8 -0.9,-1.2 -1.6,-2.3 -2.1,-3.3 -0.6,-1.3 -1,-2.4 -1.1,-3.3 m -3.2,-0.5 c -0.1,-0.1 -0.2,-0.1 -0.3,-0.2 -0.1,-0.1 -0.2,-0.1 -0.3,-0.2 -0.9,0.6 -1.5,1.4 -2,2.4 -0.2,0.4 -0.4,0.8 -0.6,1.3 -0.1,0.4 -0.2,0.8 -0.3,1.3 -0.4,2.3 -0.7,3.6 -0.8,4 -0.4,1 -1.1,1.8 -2.1,2.3 0.7,-0.2 1.4,-0.5 2,-1 0.9,-0.7 1.5,-1.5 1.9,-2.4 0.2,-1.4 0.5,-2.5 1,-3.3 0.1,-0.2 0.1,-0.3 0.2,-0.4 0.2,-0.3 0.4,-0.6 0.7,-0.9 0.1,-0.1 0.2,-0.3 0.4,-0.4 0,-1 0.1,-1.9 0.2,-2.5 M 570,587.5 c -0.1,-0.1 -0.3,-0.2 -0.5,-0.3 -4.3,1.5 -7.6,4.4 -10,8.6 -2.1,3.7 -3.2,7.9 -3.4,12.6 -0.2,4.2 -1.3,8.6 -3.3,13.4 -1.9,4.6 -2.9,8.7 -3,12.4 -0.1,2.6 0.6,5.2 2.1,7.8 0.7,1.4 1.6,2.6 2.6,3.6 0.8,0.8 1.6,1.4 2.5,2 0.1,0 0.3,0 0.5,0 v 0 c -0.7,-0.8 -1.3,-1.7 -1.9,-2.6 -0.2,-0.3 -0.3,-0.6 -0.5,-0.8 -1.7,-3.1 -2.5,-6.5 -2.5,-10.1 0,-3.3 0.8,-7.2 2.4,-11.9 1.7,-5.1 2.7,-10.5 3,-16.3 -0.3,5.7 -1.3,11.1 -3,16.3 -1.6,4.7 -2.4,8.7 -2.4,11.9 0,3.6 0.8,7 2.5,10.1 0.2,0.3 0.3,0.5 0.5,0.8 0.6,0.9 1.2,1.8 1.9,2.6 -0.6,-1.2 -0.9,-2.8 -0.9,-4.7 0,-2.9 0.7,-6.3 2.2,-10.3 2.5,-6.6 4.3,-12.3 5.6,-17 -1.3,4.8 -3.1,10.5 -5.6,17 -1.5,3.9 -2.2,7.3 -2.2,10.3 0,1.9 0.3,3.5 0.9,4.7 v 0 c 0.1,0 0.1,0 0.2,0 0,0 0.1,0 0.1,0 -0.1,-1.2 -0.1,-2.3 0.1,-3.5 0.4,-2.9 0.9,-5.7 1.7,-8.4 0.8,-2.9 1.7,-5.7 2.7,-8.5 -1,2.8 -1.9,5.6 -2.7,8.5 -0.8,2.7 -1.3,5.5 -1.7,8.4 -0.2,1.2 -0.2,2.4 -0.1,3.5 0.4,0.1 0.8,0.1 1.2,0.2 h 0.2 c 0.1,0 0.2,0 0.3,0 0,0 0.1,0 0.1,0 0.1,0 0.3,0 0.4,0 0.1,0 0.2,0 0.4,0 l 0.5,-0.1 c 2.2,-0.3 4,-1.3 5.5,-3 1.7,-2 2.5,-4.3 2.5,-7 0,-1.8 -0.2,-3.4 -0.5,-4.8 -0.3,-1.4 -0.8,-2.7 -1.4,-3.8 0.6,1.1 1.1,2.3 1.4,3.8 0.1,-1 0.1,-2.1 0.1,-3.2 0,0 0,-0.1 0,-0.2 0.5,-3 1.1,-5.9 2,-8.8 1.8,-5.9 2.2,-11.9 1.2,-18 -0.3,-1.9 -0.2,-4.7 0.3,-8.4 0.3,-2.1 0.1,-3.8 -0.4,-5 -1.5,2 -2.5,4.6 -3.1,7.9 -0.4,2 -0.6,5.7 -0.6,11.1 0,4.4 -0.1,7.3 -0.3,8.5 -0.3,3 -1,5.6 -2.2,7.7 1.1,-2.1 1.9,-4.7 2.2,-7.7 0.1,-1.3 0.2,-4.1 0.3,-8.5 0,-5.5 0.2,-9.2 0.6,-11.1 0.6,-3.2 1.6,-5.9 3.1,-7.9 -0.5,-0.9 -1,-1.4 -1.6,-1.8 -1.7,1 -3.3,2.2 -5,3.7 -4.4,4 -6.5,8.2 -6.3,12.7 -0.2,-4.5 1.9,-8.7 6.3,-12.7 1.6,-1.6 3.3,-2.8 5,-3.7 m -2.4,49.7 c -0.1,2.5 -0.8,4.7 -2,6.4 -1.2,1.8 -2.8,2.8 -4.8,3.2 1.5,-0.9 2.9,-2.4 4.2,-4.5 1.2,-2 2.1,-4.1 2.7,-6.5 0,0.2 0,0.5 0,0.8 -0.1,0.2 -0.1,0.4 -0.1,0.6 z"
   id="path8"
   style="fill:url(#SVGID_1_);stroke:#000000;stroke-opacity:1" />&#10;				<path
   class="st1"
   d="m 559.6,648.1 c 0.1,-0.1 0.1,-0.2 0.2,-0.3 -0.1,0 -0.3,0 -0.4,0 0,0 -0.1,0 -0.1,0 -0.1,0 -0.1,0 -0.3,0 h -0.2 c -0.4,0 -0.8,0 -1.2,-0.1 -0.1,0 -0.1,0 -0.2,0 v 0 c -0.2,0 -0.3,0 -0.5,0 v 0 c -0.9,-0.5 -1.7,-1.2 -2.5,-2 0,0.1 0,0.3 0,0.5 0,0.8 0.3,1.4 1,1.9 0.1,0.1 0.1,0.1 0.3,0.2 0.1,0.1 0.2,0.1 0.3,0.2 0.6,0.3 1.4,0.5 2.2,0.5 0.3,0 0.6,-0.1 0.9,-0.3 0.2,-0.2 0.3,-0.4 0.5,-0.6 z"
   id="path9"
   style="stroke:#000000;stroke-opacity:1" />&#10;			</g>&#10;		</g>&#10;		<g
   id="g10"
   style="stroke:#000000;stroke-opacity:1">&#10;			&#10;				<radialGradient
   id="Layer1_0_1_STROKES_1_"
   cx="131.0609"
   cy="1205.6324"
   r="32.200001"
   gradientTransform="matrix(1,0,0,-1.5221,426.9,2480.6909)"
   gradientUnits="userSpaceOnUse">&#10;				<stop
   offset="0"
   style="stop-color:#FFFFFF"
   id="stop9" />&#10;				<stop
   offset="1"
   style="stop-color:#9BF0F3"
   id="stop10" />&#10;			</radialGradient>&#10;			<path
   id="Layer1_0_1_STROKES_2_"
   class="st2"
   d="m 554.5,645.7 c -1,-1 -1.9,-2.2 -2.6,-3.6 -1.4,-2.6 -2.1,-5.2 -2.1,-7.8 0.1,-3.7 1.1,-7.8 3,-12.4 2,-4.8 3.1,-9.2 3.3,-13.4 0.2,-4.8 1.3,-9 3.4,-12.6 2.4,-4.2 5.7,-7.1 10,-8.6 0.2,0.1 0.3,0.2 0.5,0.3 0.6,0.4 1.1,1 1.5,1.8 0.5,1.2 0.7,2.9 0.4,5 -0.5,3.7 -0.6,6.5 -0.3,8.4 1,6.2 0.6,12.2 -1.2,18 -0.9,2.9 -1.5,5.8 -2,8.8 0,0.1 0,0.1 0,0.2 0,1.1 0,2.2 -0.1,3.2 0.3,1.4 0.5,3 0.5,4.8 0,2.7 -0.8,5.1 -2.5,7 -1.5,1.7 -3.3,2.8 -5.5,3 l -0.5,0.1 c -0.1,0 -0.3,0 -0.4,0 -0.1,0.1 -0.1,0.2 -0.2,0.3 -0.2,0.2 -0.4,0.4 -0.6,0.5 0,0.1 0,0.2 0.1,0.3 0.1,0.9 0.5,2 1,3.1 1.4,1.1 3.2,2.4 5.5,3.9 2.6,2.2 3.9,5.1 3.9,8.8 0,1 -0.3,2.3 -1,3.9 0.2,-0.6 0.3,-1.4 0.3,-2.2 0,-2.4 -0.6,-4.5 -1.7,-6.1 -0.9,-1.4 -2.4,-2.8 -4.3,-4.2 1.8,2.7 2.6,5.7 2.6,8.8 0,4 -0.9,7.9 -2.8,11.5 -2.1,4 -4.5,6 -7.3,6 -1.4,0 -2.8,-0.5 -4.2,-1.4 -1.3,-0.8 -2.1,-1.9 -2.5,-3.2 0.7,1 1.5,1.8 2.4,2.5 0.9,0.7 1.7,1.1 2.3,1.1 2.5,0 4.3,-0.9 5.4,-2.8 0.7,-1.2 1,-2.7 1,-4.5 0,-1.5 -0.7,-5 -2.1,-10.4 -1.4,-5.5 -2.1,-9.4 -2.1,-11.8 0,-0.4 0,-0.8 0,-1.2 -0.2,0.1 -0.3,0.3 -0.4,0.4 -0.3,0.3 -0.5,0.6 -0.7,0.9 -0.1,0.1 -0.1,0.2 -0.2,0.4 -0.4,0.8 -0.7,1.9 -1,3.3 -0.4,0.9 -1,1.7 -1.9,2.4 -0.7,0.5 -1.3,0.9 -2,1 1,-0.5 1.7,-1.3 2.1,-2.3 0.2,-0.4 0.4,-1.7 0.8,-4 0.1,-0.4 0.2,-0.8 0.3,-1.3 -0.3,-0.1 -0.6,-0.1 -0.9,-0.1 -1.2,0 -2.3,0.3 -3.5,1 -0.5,0.3 -1,0.6 -1.3,1 0.2,-0.7 0.7,-1.3 1.3,-1.9 1.1,-1 2.6,-1.4 4.5,-1.4 0.1,0 0.3,0 0.5,0 0.5,-0.9 1.1,-1.7 2,-2.4 -0.6,-0.5 -1,-1.1 -1,-1.9 0.2,0 0.2,-0.1 0.3,-0.2 0.8,0.8 1.6,1.4 2.5,2 0.1,0 0.3,0 0.5,0 v 0 c -0.7,-0.8 -1.3,-1.7 -1.9,-2.6 -0.2,-0.3 -0.3,-0.6 -0.5,-0.8 -1.7,-3.1 -2.5,-6.5 -2.5,-10.1 0,-3.3 0.8,-7.2 2.4,-11.9 1.7,-5.1 2.7,-10.5 3,-16.3 m 0.7,-2.2 c -0.2,-4.5 1.9,-8.7 6.3,-12.7 1.6,-1.5 3.3,-2.7 5,-3.7 m 1.4,1.8 c -1.5,2 -2.5,4.6 -3.1,7.9 -0.4,2 -0.6,5.7 -0.6,11.1 0,4.4 -0.1,7.3 -0.3,8.5 -0.3,3 -1,5.6 -2.2,7.7 m 1.6,4.7 c 0.6,1.1 1.1,2.3 1.4,3.8 m -0.6,4.3 c -0.1,2.5 -0.8,4.7 -2,6.4 -1.2,1.8 -2.8,2.8 -4.8,3.2 1.5,-0.9 2.9,-2.4 4.2,-4.5 1.2,-2 2.1,-4.1 2.7,-6.5 0,0.2 0,0.5 0,0.8 -0.1,0.2 -0.1,0.4 -0.1,0.6 z m -5.4,-10 c -1,2.8 -1.9,5.6 -2.7,8.5 -0.8,2.7 -1.3,5.5 -1.7,8.4 -0.2,1.2 -0.2,2.4 -0.1,3.5 0.4,0.1 0.8,0.1 1.2,0.2 h 0.2 c 0.1,0 0.2,0 0.3,0 0,0 0.1,0 0.1,0 0.1,0 0.3,0 0.4,0 m 4.4,-32.2 c -1.3,4.8 -3.1,10.5 -5.6,17 -1.5,3.9 -2.2,7.3 -2.2,10.3 0,1.9 0.3,3.5 0.9,4.7 m 1.5,0.2 c -0.4,0 -0.8,0 -1.2,-0.1 -0.1,0 -0.1,0 -0.2,0 v 0 c -0.2,0 -0.3,0 -0.5,0 v 0 m 0.4,-0.1 c 0.1,0 0.1,0 0.2,0 0,0 0.1,0 0.1,0 v 0.1 m -0.2,0 c -0.1,0 -0.1,-0.1 0,0 -0.1,-0.1 0,0 0,0 m -2.1,0.3 c 0.1,0.1 0.1,0.1 0.3,0.2 0.1,0.1 0.2,0.1 0.3,0.2 0.6,0.3 1.4,0.5 2.2,0.5 0.3,0 0.6,-0.1 0.9,-0.3 m -3.2,-0.2 c -0.1,0.6 -0.2,1.5 -0.3,2.5 m 4.6,1.1 c 0.5,1 1.2,2.1 2.1,3.3 0.2,0.3 0.4,0.5 0.6,0.8 m -10.1,-4.4 c 0.2,-0.5 0.4,-1 0.6,-1.3"
   style="stroke:#000000;stroke-opacity:1" />&#10;		</g>&#10;	</g>&#10;	<g
   transform="translate(-4.35,6.1)"
   id="g18"
   style="stroke:#000000;stroke-opacity:1">&#10;		<g
   id="g12"
   style="display:none;stroke:#000000;stroke-opacity:1"
   inkscape:label="g12">&#10;			<g
   id="Layer1_1_FILL_2_"
   style="stroke:#000000;stroke-opacity:1">&#10;				<path
   class="st3"
   d="m 609.3,569.6 c 0.6,0.2 1.2,0.4 1.7,0.8 1.6,1.1 2.7,2.6 3,4.5 0.3,1.3 0.4,2.6 0.2,3.9 -0.1,0.2 -0.1,0.5 -0.2,0.8 0.5,-0.8 0.8,-1.7 0.9,-2.7 0.1,-1 0.1,-2.3 0,-3.8 -0.2,-1.5 -0.9,-3.3 -2.1,-5.3 -1.2,-1.8 -2.5,-3 -4,-3.6 v 0.1 c 0.6,1 0.9,2.1 0.9,3.3 -0.1,0.5 -0.2,1.2 -0.4,2 z"
   id="path11"
   style="stroke:#000000;stroke-opacity:1" />&#10;			</g>&#10;		</g>&#10;		&#10;		<g
   id="g17"
   style="display:inline;stroke:#000000;stroke-opacity:1">&#10;			&#10;				<radialGradient
   id="Layer1_1_2_STROKES_1_"
   cx="131.0609"
   cy="1181.5244"
   r="25.6"
   gradientTransform="matrix(1,0,0,-1.3164,463.45,2144.731)"
   gradientUnits="userSpaceOnUse">&#10;				<stop
   offset="0"
   style="stop-color:#FFFFFF"
   id="stop16" />&#10;				<stop
   offset="1"
   style="stop-color:#9BF0F3"
   id="stop17" />&#10;			</radialGradient>&#10;			<path
   id="Layer1_1_2_STROKES_2_"
   class="st5"
   d="m 608.7,564.3 c 1.5,0.6 2.9,1.8 4,3.6 1.2,2 1.9,3.8 2.1,5.3 0.2,1.5 0.2,2.8 0,3.8 -0.1,1 -0.4,1.9 -0.9,2.7 0,-0.3 0.1,-0.6 0.2,-0.8 0.2,-1.2 0.1,-2.5 -0.2,-3.9 -0.4,-1.9 -1.4,-3.5 -3,-4.5 -0.5,-0.4 -1.1,-0.6 -1.7,-0.8"
   style="stroke:#000000;stroke-opacity:1" />&#10;		</g>&#10;	</g>&#10;	<g
   transform="translate(-4.35,6.1)"
   id="g34"
   style="stroke:#000000;stroke-opacity:1">&#10;		<g
   id="g25"
   style="display:none;stroke:#000000;stroke-opacity:1">&#10;			<g
   id="Layer1_2_FILL_2_"
   style="stroke:#000000;stroke-opacity:1">&#10;				&#10;					<radialGradient
   id="SVGID_2_"
   cx="131.0609"
   cy="1125.0852"
   r="91.150002"
   gradientTransform="matrix(1,0,0,-1,478.4,1709.15)"
   gradientUnits="userSpaceOnUse">&#10;					<stop
   offset="0"
   style="stop-color:#090D11"
   id="stop18" />&#10;					<stop
   offset="0.1294"
   style="stop-color:#0E151D"
   id="stop19" />&#10;					<stop
   offset="0.3216"
   style="stop-color:#325276"
   id="stop20" />&#10;					<stop
   offset="0.4"
   style="stop-color:#3780C8"
   id="stop21" />&#10;					<stop
   offset="0.5255"
   style="stop-color:#4BE4F1"
   id="stop22" />&#10;					<stop
   offset="0.651"
   style="stop-color:#4EF3F7"
   id="stop23" />&#10;					<stop
   offset="0.9608"
   style="stop-color:#205CE0"
   id="stop24" />&#10;					<stop
   offset="1"
   style="stop-color:#205CE0"
   id="stop25" />&#10;				</radialGradient>&#10;				<path
   class="st6"
   d="m 597.8,587.2 c -0.8,0.8 -1.7,1.4 -2.6,2 -0.2,0.6 -0.3,1.3 -0.3,2.2 0,1.8 0.7,3.4 2.2,4.8 0.2,0.2 0.3,0.3 0.5,0.5 0.3,-0.5 0.7,-1.1 1,-1.8 0,-0.5 0,-1 0,-1.5 0,-2.1 -0.3,-4.2 -0.8,-6.2 m 7.5,-5.5 c 0.9,-1.9 1.5,-4.1 1.5,-6.5 -0.9,1.3 -1.8,2.3 -2.8,3 -0.6,1.6 -1.5,3.3 -2.8,5.1 -1.1,1.6 -2.2,2.9 -3.3,4 0,0 -0.1,0 -0.1,0 0.5,2 0.8,4.1 0.8,6.1 0,0.5 0,1 0,1.5 0,1 0,1.9 0,2.5 0,0.8 0,1.3 0,1.4 0.3,1.8 0.7,3.2 1.2,4 0.8,1.5 2.1,2.3 3.9,2.3 h 0.6 c -1.4,-0.8 -2.3,-2.4 -2.8,-4.8 0,-0.2 -0.1,-0.5 -0.1,-1 -0.1,-0.6 -0.1,-1.3 -0.1,-2.2 -0.2,-2.3 -0.3,-5.7 -0.4,-10.1 0.1,4.4 0.2,7.8 0.4,10.1 0,0.9 0.1,1.6 0.1,2.2 0.9,-0.5 1.6,-1.9 2,-4 0.3,-1.5 0.5,-2.9 0.5,-4 0,-1.2 -0.1,-2.3 -0.2,-3.2 -0.2,-1.1 -0.3,-2.2 -0.4,-3.2 -0.5,0.6 -1,1.1 -1.6,1.7 0.6,-0.6 1.1,-1.1 1.6,-1.7 0.8,-1.1 1.5,-2.2 2,-3.2 m -4,-18.9 c -0.1,0.1 -0.3,0.1 -0.4,0.2 -0.5,0.2 -1,0.4 -1.4,0.7 -0.2,0.2 -0.4,0.4 -0.6,0.5 0.2,-0.2 0.4,-0.4 0.6,-0.5 -0.3,-0.2 -0.6,-0.3 -1,-0.5 -0.4,-0.2 -0.8,-0.3 -1.3,-0.4 -2.3,-0.7 -4.9,-1 -7.9,-0.7 -5,0.5 -9.6,2.9 -13.7,7.2 -4.2,4.3 -6.3,10 -6.3,17 0,0.3 0,0.6 0,0.9 0,0.1 0,0.2 0,0.3 0.5,0.2 1,0.3 1.5,0.3 0.5,0 1,0 1.5,-0.2 0.9,-0.2 1.7,-0.6 2.5,-1.3 0.4,-0.4 0.7,-0.8 1.1,-1.2 0.8,-1 1.8,-3.1 3.3,-6.1 2.9,-6.6 6.4,-10.7 10.5,-12.3 -4.1,1.6 -7.6,5.7 -10.5,12.3 -1.4,3.1 -2.5,5.1 -3.3,6.1 -0.4,0.4 -0.7,0.8 -1.1,1.2 2.1,-1.1 3.2,-1.7 3.4,-1.8 1.4,-0.4 3.1,-0.6 5,-0.8 2,-0.5 4.8,-2.3 8.4,-5.3 -3.6,3 -6.4,4.7 -8.4,5.3 -1.9,0.1 -3.6,0.4 -5,0.8 -0.2,0.1 -1.4,0.7 -3.4,1.8 -0.8,0.6 -1.6,1 -2.5,1.3 -0.5,0.1 -1,0.2 -1.5,0.2 -0.5,0 -1,-0.1 -1.5,-0.3 0,0.7 0.1,1.5 0.3,2.2 0.1,0.3 0.1,0.6 0.3,0.9 0.7,1.5 1.5,2.8 2.5,3.8 1.4,1.4 3.3,2.3 5.5,2.6 0.2,0 0.4,0 0.6,0 1.9,0.3 3.7,0 5.3,-1 -1.6,1 -3.3,1.4 -5.3,1 -0.2,0 -0.5,0 -0.6,0 -2.2,-0.4 -4,-1.3 -5.5,-2.6 -1,-1 -1.8,-2.3 -2.5,-3.8 0.2,2.5 1,4.5 2.6,6 0.7,0.7 1.6,1.3 2.6,1.8 0.7,0.3 1.3,0.5 2,0.8 2.3,0.6 4.6,0.6 7,-0.1 1.9,-0.6 3.5,-1.7 4.8,-3.1 -1.3,1.4 -3,2.5 -4.8,3.1 -2.4,0.7 -4.7,0.7 -7,0.1 -0.7,-0.2 -1.3,-0.5 -2,-0.8 -1,-0.5 -1.9,-1 -2.6,-1.8 0.2,2 1,4 2.2,5.8 0.8,1.1 1.5,2.1 2.3,2.9 3.5,3.6 7.5,4 11.9,1.3 1.3,-0.9 2.7,-2 4.1,-3.5 -1.4,1.4 -2.8,2.6 -4.1,3.5 -4.4,2.7 -8.3,2.3 -11.9,-1.3 0.4,1.8 1.2,3.2 2.5,4.3 1.5,1.3 3.6,2 6.2,2 0.7,0 1.4,-0.1 2.2,-0.4 1.7,-0.6 3.4,-1.9 5.1,-3.8 2.6,-2.8 3.6,-5.5 3,-8.1 -0.7,1.2 -1.4,2.1 -1.9,2.6 0.5,-0.6 1.2,-1.4 1.9,-2.6 0.5,-0.8 1,-1.7 1.6,-2.8 -0.2,-0.1 -0.3,-0.3 -0.5,-0.5 -1.5,-1.3 -2.2,-2.9 -2.2,-4.8 0,-0.8 0.1,-1.5 0.3,-2.2 -1.2,0.7 -2.4,1.1 -3.6,1.4 1.2,-0.3 2.4,-0.7 3.6,-1.4 0.9,-0.6 1.8,-1.2 2.6,-2 0,0 0.1,0 0.1,0 1.1,-1.1 2.2,-2.4 3.3,-4 1.3,-1.8 2.2,-3.5 2.8,-5.1 0.6,-1.7 0.8,-3.2 0.7,-4.5 0.2,1.3 -0.1,2.8 -0.7,4.5 1,-0.6 2,-1.6 2.8,-3 0.2,-0.3 0.4,-0.7 0.6,-1.1 -0.2,0.4 -0.4,0.8 -0.6,1.1 -0.1,2.4 -0.6,4.6 -1.5,6.5 -0.5,1.1 -1.1,2.1 -1.9,3.1 0.1,1 0.3,2 0.4,3.2 0.1,0.9 0.2,2 0.2,3.2 0,1.2 -0.2,2.5 -0.5,4 -0.4,2.1 -1.1,3.5 -2,4 0,0.4 0.1,0.7 0.1,1 0.5,2.4 1.4,4 2.8,4.8 h -0.6 c -1.8,0 -3.1,-0.8 -3.9,-2.3 -0.5,-0.9 -0.9,-2.2 -1.2,-4 0,-0.1 0,-0.6 0,-1.4 0,-0.6 0,-1.5 0,-2.5 -0.4,0.6 -0.7,1.2 -1,1.8 -0.6,1.1 -1.1,2 -1.6,2.8 0.6,2.6 -0.4,5.3 -3,8.1 -1.7,1.9 -3.5,3.2 -5.1,3.8 -0.7,3.1 -1.3,5.5 -1.8,7.2 2.3,0.6 7.2,2 14.7,4.2 1.3,-5.9 2.5,-10 3.6,-12.4 1.6,-3.5 3,-5.8 4.4,-7 1.4,-1.1 3.2,-1.8 5.5,-2 2.3,-0.2 3.4,-1 3.3,-2.3 -0.1,-1.2 -0.2,-2.6 -0.2,-4.4 0.3,-1.2 0.5,-1.8 0.5,-1.9 0,-0.4 0,-0.7 -0.2,-0.9 -0.1,0.2 -0.2,0.3 -0.3,0.5 -0.1,0.1 -0.3,0.2 -0.4,0.4 0.1,-0.1 0.3,-0.3 0.4,-0.4 0.1,-0.2 0.2,-0.3 0.3,-0.5 0.1,-0.3 0.2,-0.7 0.1,-1 l -0.3,-1.3 V 589 c 0,-0.1 0,-0.2 0,-0.2 1.1,-1.4 1.7,-2.4 1.9,-3.1 0.2,-0.7 -0.4,-1.3 -1.9,-1.9 -1.5,-0.6 -2.8,-1.1 -3.7,-1.7 -0.5,-0.4 -0.9,-0.8 -1.2,-1.4 -0.2,-0.4 -0.3,-0.8 -0.3,-1.3 0,-0.2 0,-0.3 0,-0.5 -0.1,-1.1 -0.5,-2.5 -1,-4 -0.5,-1.6 -1.4,-3.1 -2.6,-4.4 -0.2,0.6 -0.5,1.2 -0.8,1.9 0.3,-0.7 0.6,-1.3 0.8,-1.9 0.1,-0.4 0.2,-0.7 0.3,-1 0.2,-0.8 0.4,-1.5 0.4,-2 0,-1.2 -0.3,-2.3 -0.9,-3.3 v -0.1 c -0.9,-1.4 -2.2,-2 -4,-2 -0.8,0 -1.6,0.1 -2.3,0.3 -0.2,0.2 -0.6,0.3 -1,0.4 z"
   id="path25"
   style="fill:url(#SVGID_2_);stroke:#000000;stroke-opacity:1" />&#10;			</g>&#10;		</g>&#10;		<g
   id="g29"
   style="display:inline;stroke:#000000;stroke-opacity:1">&#10;			&#10;				<radialGradient
   id="Layer1_2_1_STROKES_1_"
   cx="131.0609"
   cy="1164.5531"
   r="44.112499"
   gradientTransform="matrix(1,0,0,-1.202,427.65,2001.6544)"
   gradientUnits="userSpaceOnUse">&#10;				<stop
   offset="0"
   style="stop-color:#FFFFFF"
   id="stop26" />&#10;				<stop
   offset="0.4275"
   style="stop-color:#9BF0F3"
   id="stop27" />&#10;				<stop
   offset="0.6902"
   style="stop-color:#398CCD"
   id="stop28" />&#10;				<stop
   offset="1"
   style="stop-color:#294360"
   id="stop29" />&#10;			</radialGradient>&#10;			<path
   id="Layer1_2_1_STROKES_2_"
   class="st7"
   d="m 600.9,563 c 0.1,-0.1 0.3,-0.1 0.4,-0.2 0.4,-0.1 0.8,-0.3 1.2,-0.4 0,-0.3 0.1,-0.5 0.1,-0.8 0.2,-2.9 -1.6,-4.5 -5.2,-5 3,0.5 4.3,2.1 3.9,4.8 -0.1,0.6 -0.2,1.1 -0.4,1.6 -0.5,0.2 -1,0.4 -1.4,0.7 -0.2,0.2 -0.4,0.4 -0.6,0.5 m 3.6,-1.7 c 0.7,-0.2 1.5,-0.3 2.3,-0.3 1.7,0 3,0.7 4,2 m -0.1,0.1 c 0.6,1 0.9,2.1 0.9,3.3 0,0.5 -0.1,1.2 -0.4,2 -0.1,0.3 -0.2,0.6 -0.3,1 m -21,40.6 c -0.7,0.2 -1.5,0.4 -2.2,0.4 -2.6,0 -4.7,-0.7 -6.2,-2 -1.2,-1.1 -2,-2.5 -2.5,-4.3 -0.8,-0.8 -1.6,-1.8 -2.3,-2.9 -1.2,-1.9 -2,-3.8 -2.2,-5.8 -1.6,-1.5 -2.4,-3.5 -2.6,-6 l -0.3,-0.9 c -0.2,-0.7 -0.3,-1.4 -0.3,-2.2 v -0.3 -0.9 c 0,-7 2.1,-12.7 6.3,-17 4.1,-4.3 8.7,-6.7 13.7,-7.2 3,-0.3 5.6,-0.1 7.9,0.7 0.3,-0.7 0.4,-1.4 0.4,-2.2 0,-2.9 -1.6,-4.4 -4.8,-4.5 3.8,0 5.9,1.5 6.1,4.5 0.1,0.9 -0.1,1.8 -0.4,2.5 l -0.1,0.1 c 0.3,0.1 0.6,0.3 1,0.5 m -2.1,-0.9 c 0.4,0.1 0.9,0.3 1.3,0.4 m 8.8,10.9 c -0.2,0.4 -0.4,0.8 -0.6,1.1 -0.1,2.4 -0.6,4.6 -1.5,6.5 -0.5,1.1 -1.1,2.1 -1.9,3.1 0.1,1 0.3,2 0.4,3.2 0.1,0.9 0.2,2 0.2,3.2 0,1.2 -0.2,2.5 -0.5,4 -0.4,2.1 -1.1,3.5 -2,4 0,0.4 0.1,0.7 0.1,1 0.5,2.4 1.4,4 2.8,4.8 h -0.6 c -1.8,0 -3.1,-0.8 -3.9,-2.3 -0.5,-0.9 -0.9,-2.2 -1.2,-4 v -1.4 -2.5 c -0.4,0.6 -0.7,1.2 -1,1.8 -0.6,1.1 -1.1,2 -1.6,2.8 0.6,2.6 -0.4,5.3 -3,8.1 -1.7,1.9 -3.5,3.2 -5.1,3.8 m 18.8,-36.1 c -0.9,1.3 -1.8,2.3 -2.8,3 -0.6,1.6 -1.5,3.3 -2.8,5.1 -1.1,1.6 -2.2,2.9 -3.3,4 h -0.1 c 0.5,2 0.8,4.1 0.8,6.1 v 1.5 m 6,-21.3 c 0.2,1.3 -0.1,2.8 -0.7,4.5 m -0.5,6.7 c -0.5,0.6 -1,1.1 -1.6,1.7 m -4,0.7 c -0.8,0.8 -1.7,1.4 -2.6,2 -0.2,0.6 -0.3,1.3 -0.3,2.2 0,1.8 0.7,3.4 2.2,4.8 l 0.5,0.5 m -2.4,-7.5 c -1.2,0.7 -2.4,1.1 -3.6,1.4 m 9.9,8.6 c -0.1,-0.6 -0.1,-1.3 -0.1,-2.2 -0.2,-2.3 -0.3,-5.7 -0.4,-10.1 m -8,16.2 c -1.4,1.4 -2.8,2.6 -4.1,3.5 -4.4,2.7 -8.3,2.3 -11.9,-1.3 m 19,-5.9 c -0.7,1.2 -1.4,2.1 -1.9,2.6 M 609,570.6 c -0.2,0.6 -0.5,1.2 -0.8,1.9 m -38.8,15 c 0.5,0.2 1,0.3 1.5,0.3 0.5,0 1,0 1.5,-0.2 0.9,-0.2 1.7,-0.6 2.5,-1.3 0.4,-0.4 0.7,-0.8 1.1,-1.2 0.8,-1 1.8,-3.1 3.3,-6.1 2.9,-6.6 6.4,-10.7 10.5,-12.3 m -19.9,23.9 c 0.7,1.5 1.5,2.8 2.5,3.8 1.4,1.4 3.3,2.3 5.5,2.6 h 0.6 c 1.9,0.3 3.7,0 5.3,-1 m -8.9,-9.6 c 2.1,-1.1 3.2,-1.7 3.4,-1.8 1.4,-0.4 3.1,-0.6 5,-0.8 2,-0.5 4.8,-2.3 8.4,-5.3 m -19.2,18.1 c 0.7,0.7 1.6,1.3 2.6,1.8 0.7,0.3 1.3,0.5 2,0.8 2.3,0.6 4.6,0.6 7,-0.1 1.9,-0.6 3.5,-1.7 4.8,-3.1"
   style="stroke:#000000;stroke-opacity:1"
   sodipodi:nodetypes="ccccccccccsccscccsccccccscscscsccccccccccccsccccscccccccccccccscccccccscccccccccccccccsccccccscccccccccccc" />&#10;		</g>&#10;		<g
   id="g33"
   style="display:inline;stroke:#000000;stroke-opacity:1">&#10;			&#10;				<radialGradient
   id="Layer1_2_2_STROKES_1_"
   cx="131.0609"
   cy="1181.5155"
   r="63.262501"
   gradientTransform="matrix(1,0,0,-1.3163,501.7,2165.5918)"
   gradientUnits="userSpaceOnUse">&#10;				<stop
   offset="0"
   style="stop-color:#FFFFFF"
   id="stop30" />&#10;				<stop
   offset="0.4275"
   style="stop-color:#9BF0F3"
   id="stop31" />&#10;				<stop
   offset="0.6902"
   style="stop-color:#398CCD"
   id="stop32" />&#10;				<stop
   offset="1"
   style="stop-color:#294360"
   id="stop33" />&#10;			</radialGradient>&#10;			<path
   id="Layer1_2_2_STROKES_2_"
   class="st8"
   d="m 609,570.6 c 1.2,1.3 2.1,2.8 2.6,4.4 0.5,1.5 0.8,2.9 1,4 v 0.5 c 0,0.4 0.1,0.9 0.3,1.3 0.2,0.6 0.6,1 1.2,1.4 0.9,0.6 2.1,1.1 3.7,1.7 1.5,0.6 2.1,1.2 1.9,1.9 -0.2,0.7 -0.9,1.7 -1.9,3.1 v 0.2 0.4 l 0.3,1.3 c 0.1,0.4 0,0.7 -0.1,1 0.1,0.2 0.2,0.5 0.2,0.9 0,0.1 -0.2,0.8 -0.5,1.9 0,1.7 0,3.2 0.2,4.4 0.1,1.3 -1,2.1 -3.3,2.3 -2.3,0.2 -4.1,0.9 -5.5,2 -1.4,1.1 -2.8,3.5 -4.4,7 -1.1,2.4 -1.09884,2.85898 -1.5355,4.17956 M 617.8,591.7 c -0.1,0.2 -0.2,0.3 -0.3,0.5 -0.1,0.1 -0.3,0.2 -0.4,0.4"
   style="stroke:#000000;stroke-opacity:1"
   sodipodi:nodetypes="cccscscscccccsccssccccc" />&#10;		</g>&#10;	</g>&#10;	&#10;	<g
   transform="translate(-4.35,6.1)"
   id="g95"
   style="stroke:#000000;stroke-opacity:1">&#10;		<g
   id="g88"
   style="display:none;stroke:#000000;stroke-opacity:1">&#10;			<g
   id="Layer1_4_FILL_2_"
   style="stroke:#000000;stroke-opacity:1">&#10;				&#10;					<radialGradient
   id="SVGID_4_"
   cx="131.0609"
   cy="513.77283"
   r="138.55"
   gradientTransform="matrix(1,0,0,-0.2775,468.7,886.9456)"
   gradientUnits="userSpaceOnUse">&#10;					<stop
   offset="0"
   style="stop-color:#30466D"
   id="stop39" />&#10;					<stop
   offset="0.2549"
   style="stop-color:#325276"
   id="stop40" />&#10;					<stop
   offset="0.4"
   style="stop-color:#3780C8"
   id="stop41" />&#10;					<stop
   offset="0.7137"
   style="stop-color:#4BE4F1"
   id="stop42" />&#10;					<stop
   offset="0.7882"
   style="stop-color:#45D0EF"
   id="stop43" />&#10;					<stop
   offset="1"
   style="stop-color:#205CE0"
   id="stop44" />&#10;				</radialGradient>&#10;				<path
   class="st11"
   d="m 577.5,747.4 c 0.8,-0.3 1.9,-0.5 3.3,-0.7 l -7.3,0.1 c 0,0 0,0 0,0 -1.4,0.8 -2.5,2.3 -3.2,4.8 -0.6,2 -1,4.2 -1,6.6 0,1.7 0.1,3 0.3,4 0.1,0.7 0.3,1.2 0.5,1.6 0.5,0.8 1.6,1.3 3.3,1.5 -0.2,-0.2 -0.3,-0.5 -0.4,-0.9 -0.1,-0.3 -0.3,-0.7 -0.3,-1.1 -0.3,-1.3 -0.5,-2.7 -0.5,-4.3 -0.1,-6.5 1.7,-10.4 5.3,-11.6 m 6.6,-0.9 c -1.2,0 -2.3,0.1 -3.3,0.3 -1.4,0.1 -2.5,0.4 -3.3,0.7 -3.6,1.2 -5.4,5.1 -5.4,11.7 0,1.5 0.2,3 0.5,4.3 0.1,0.4 0.2,0.8 0.3,1.1 0.1,0.3 0.2,0.6 0.4,0.9 1,0.2 1.6,0.3 1.9,0.3 0.3,0 0.7,0 1.2,0.1 0.5,0.1 1.8,0.3 4,0.5 -0.6,-0.5 -1.1,-1.1 -1.4,-1.7 -0.6,-1.1 -0.8,-2.9 -0.8,-5.4 0,-3.3 0.5,-6 1.5,-8 0.9,-2.2 2.4,-3.7 4.4,-4.8 M 552.7,763 c 3.2,-0.3 6.6,-0.3 10.5,-0.3 1.8,-0.1 3.9,-0.2 6.5,-0.5 -0.2,-1 -0.3,-2.3 -0.3,-4 0,-2.4 0.3,-4.6 1,-6.6 0.7,-2.4 1.8,-4 3.2,-4.8 -0.6,0 -1.1,0 -1.6,0 -4.3,-0.2 -6.6,-0.2 -6.8,-0.2 -1.3,0.2 -3,-0.4 -4.9,-1.8 -2,-1.5 -3.7,-2.3 -5,-2.3 -2.6,0 -4.7,1 -6.3,3 -1,1.2 -2.3,3.3 -4,6.4 -1.1,1.7 -3.1,3.4 -5.9,4.9 -1.9,1 -3.4,2 -4.4,2.8 -0.5,0.2 -1.3,0.5 -2.2,0.9 -1.6,0.8 -2.4,1.5 -2.4,2.3 0,0.4 0.3,0.7 0.8,0.8 h 0.1 c 0,0 0.4,0 1.2,0 0.3,0 0.9,-0.1 1.8,-0.3 0.9,-0.2 1.7,-0.3 2.2,-0.3 -0.5,0 -1.3,0.1 -2.2,0.3 -0.9,0.2 -1.5,0.3 -1.8,0.3 -0.8,0 -1.2,0 -1.2,0 h -0.1 c -0.4,0.4 -0.5,0.8 -0.5,1.1 0,0.5 0.3,0.8 0.8,0.9 h 1 c 0.3,0 3.4,-0.4 9.1,-1.2 5.9,-0.8 9.8,-1.3 11.4,-1.4 m 50.5,3.8 c 0.4,0 0.8,-0.1 1.2,-0.1 0.1,0 0.3,0 0.4,0 -0.2,-0.8 -0.3,-1.7 -0.3,-2.6 0,-4.6 0.6,-8.7 1.7,-12.3 0.9,-3 2.2,-5.3 3.7,-6.9 0,0 -0.2,0 -0.5,0 -0.4,0 -0.7,0 -1,0 -0.3,0 -0.5,0.1 -0.6,0.1 -0.1,0 -0.2,0 -0.3,0 -1.3,1.5 -2.4,3.8 -3.3,6.9 -1,3.4 -1.5,6.6 -1.5,9.7 -0.1,2.2 0.1,3.9 0.5,5.2 m -18.4,-0.3 c 0.3,0 0.7,0 1.1,0.1 -0.1,-0.3 -0.2,-0.6 -0.3,-1 -0.4,-1.4 -0.6,-3.1 -0.6,-5 0,-6.8 1.5,-11.5 4.5,-14.3 -1.4,0 -3.1,0.1 -5.1,0.1 -0.1,0 -0.1,0 -0.2,0 -0.1,0 -0.1,0 -0.2,0 -2,1.1 -3.5,2.6 -4.4,4.6 -1,2 -1.5,4.7 -1.5,8 0,2.5 0.3,4.3 0.8,5.4 0.3,0.6 0.8,1.2 1.4,1.7 1.5,0.3 2.9,0.3 4.5,0.4 m 6.7,-20.2 c -0.5,0 -1.2,0 -1.9,0 -3,2.7 -4.5,7.5 -4.5,14.3 0,1.9 0.2,3.6 0.6,5 0.1,0.3 0.2,0.6 0.3,1 0.6,0 1.4,0 2.4,0 -0.2,-0.3 -0.4,-0.5 -0.5,-0.9 -0.5,-1 -0.7,-2.5 -0.7,-4.4 0,-3 0.4,-5.9 1.1,-8.7 0.8,-2.8 1.8,-5 3.2,-6.3 m 4.6,7.8 c 1,-3.2 2.4,-6 4.3,-8.4 -1.8,0.1 -3.4,0.3 -4.8,0.4 -0.7,0 -1.3,0.1 -1.9,0.1 -0.2,0 -0.9,0 -2.3,0.1 -1.3,1.3 -2.4,3.5 -3.2,6.4 -0.8,2.8 -1.1,5.7 -1.1,8.7 0,1.9 0.2,3.4 0.7,4.4 0.1,0.3 0.3,0.6 0.5,0.9 0.2,0 0.5,0 0.8,0 0.3,0 0.5,0 0.8,0 h 2.4 c 0.7,0.2 1.8,0.3 3.4,0.4 -0.2,-0.4 -0.4,-0.8 -0.5,-0.9 -0.2,-0.6 -0.3,-1.7 -0.3,-3.2 0,-3.2 0.4,-6.1 1.2,-8.9 m 4.3,-8.4 c -1.9,2.4 -3.3,5.2 -4.3,8.4 -0.8,2.8 -1.2,5.7 -1.2,8.8 0,1.5 0.1,2.6 0.3,3.2 0.1,0.2 0.2,0.5 0.5,0.9 0.6,0 1.4,0 2.2,0 1.4,0 3.2,-0.1 5.3,-0.2 -0.4,-1.3 -0.6,-3.1 -0.6,-5.2 0,-3 0.5,-6.3 1.5,-9.7 0.9,-3.1 2,-5.4 3.3,-6.9 -0.9,0.1 -1.8,0.1 -2.5,0.3 -1.6,0.2 -3.1,0.3 -4.5,0.4 m 44.4,-6.3 c -2,-0.4 -4.2,-0.6 -6.7,-0.6 -2.7,0 -4.8,0.1 -6.4,0.3 -1.9,0.3 -3.8,0.8 -5.6,1.7 -1.9,0.8 -3.4,1.7 -4.4,2.5 -0.1,0.1 -0.2,0.1 -0.3,0.3 -0.2,0.2 -0.5,0.4 -0.7,0.7 1.5,-0.1 2.9,-0.1 4.3,-0.1 2,0 4.5,0.2 7.3,0.6 1.6,0.2 4.1,0.5 7.5,1 -3.4,-0.5 -5.8,-0.8 -7.5,-1 -2.8,-0.4 -5.2,-0.6 -7.3,-0.6 -1.4,0 -2.8,0 -4.3,0.1 -3.2,0.1 -6.7,0.3 -10.5,0.6 -0.1,0 -0.2,0 -0.3,0 -1.5,1.6 -2.8,3.9 -3.7,6.9 -1.1,3.6 -1.7,7.7 -1.7,12.3 0,0.9 0.1,1.8 0.3,2.6 2.4,-0.2 4.1,-0.3 5,-0.3 2.7,0 6.9,0.1 12.5,0.3 5.6,0.2 9.8,0.3 12.6,0.3 4.7,0 8.9,-0.9 12.7,-2.7 0.3,-0.2 0.6,-0.3 0.9,-0.5 0.3,-0.1 0.5,-0.3 0.8,-0.4 4.2,-2.5 6.6,-6 7.1,-10.5 0.1,-0.7 0.2,-1.3 0.2,-2 0,-4.3 -2.1,-7.5 -6.4,-9.6 -1.7,-0.9 -3.5,-1.5 -5.4,-1.9 z"
   id="path44"
   style="fill:url(#SVGID_4_);stroke:#000000;stroke-opacity:1" />&#10;				&#10;					<radialGradient
   id="SVGID_5_"
   cx="131.0609"
   cy="1125.0852"
   r="88.25"
   gradientTransform="matrix(1,0,0,-1,457.15,1841.9)"
   gradientUnits="userSpaceOnUse">&#10;					<stop
   offset="0"
   style="stop-color:#30466D"
   id="stop45" />&#10;					<stop
   offset="0.2549"
   style="stop-color:#325276"
   id="stop46" />&#10;					<stop
   offset="0.4"
   style="stop-color:#3780C8"
   id="stop47" />&#10;					<stop
   offset="0.7137"
   style="stop-color:#4BE4F1"
   id="stop48" />&#10;					<stop
   offset="0.7882"
   style="stop-color:#45D0EF"
   id="stop49" />&#10;					<stop
   offset="1"
   style="stop-color:#205CE0"
   id="stop50" />&#10;				</radialGradient>&#10;				<path
   class="st12"
   d="m 612.1,710.9 c 0,0 -0.1,-0.1 -0.1,-0.1 -0.3,0.2 -0.7,0.4 -1,0.6 -1.1,0.5 -2,0.8 -2.8,0.8 -0.7,0 -1.3,-0.1 -1.7,-0.3 1,0.7 2,1.9 3.1,3.4 v 0.1 c 0.4,0 0.8,-0.1 1.2,-0.3 0.3,-0.1 0.5,-0.3 0.8,-0.5 0.7,-0.5 1,-1.1 1,-1.9 0,-0.1 0,-0.2 0,-0.3 0,-0.3 -0.1,-0.6 -0.3,-1 0,-0.2 -0.1,-0.4 -0.2,-0.5 m -8.8,1.7 c -0.4,-0.4 -0.8,-0.8 -1.3,-1.2 -1.6,-1.4 -3,-2 -4.2,-2 -0.4,0 -0.9,0.1 -1.6,0.3 0.5,0.4 0.9,0.9 1.4,1.5 0.8,0.9 1.5,1.6 2.2,2.1 1.1,0.8 2.2,1.3 3.2,1.3 0.5,0 1.1,-0.2 1.7,-0.6 -0.5,-0.5 -0.9,-0.9 -1.4,-1.4 m 0.7,-1.7 -2,0.5 c 0.4,0.4 0.8,0.8 1.3,1.2 0.5,0.5 1,0.9 1.4,1.3 1.4,1.3 2.5,1.9 3.3,1.9 0.3,0 0.6,-0.1 1,-0.3 0.2,-0.1 0.3,-0.2 0.5,-0.3 0,0 0.1,-0.1 0.1,-0.1 -1,-1.5 -2.1,-2.7 -3.1,-3.4 -0.8,-0.5 -1.7,-0.8 -2.5,-0.8 m -12.5,-2.6 c 0.4,1.4 0.8,2.5 1.3,3.4 0.1,0.1 0.2,0.3 0.3,0.4 1,1.4 2.3,2.1 4,2.1 0.6,0 1.3,-0.1 2,-0.4 0.3,-0.2 0.6,-0.3 0.8,-0.5 -0.7,-0.6 -1.4,-1.3 -2.2,-2.1 -0.5,-0.6 -0.9,-1 -1.4,-1.5 -1.4,-1.3 -2.5,-2 -3.5,-2 -0.3,0 -0.7,0.1 -1.3,0.4 -0.1,0 -0.1,0.1 0,0.2 m -9.1,0.9 c -0.5,-0.3 -1.1,-1.1 -1.9,-2.3 0.5,3.8 1.9,7.5 4.3,11.2 2.3,3.6 5.6,7.3 9.9,11.1 5.4,4.8 9.3,7.8 11.7,9 3,1.5 8.1,3.3 15.3,5.2 1,-0.9 2.5,-1.7 4.4,-2.5 1.8,-0.8 3.7,-1.4 5.6,-1.7 1.6,-0.2 3.7,-0.3 6.4,-0.3 2.4,0 4.6,0.2 6.7,0.6 2,0.4 3.7,1 5.3,1.8 4.3,2.1 6.4,5.3 6.4,9.6 0,0.7 0,1.4 -0.2,2 -0.5,4.5 -2.9,8 -7.1,10.5 4.1,-0.5 7.5,-1.8 10.1,-4.1 1.8,-1.6 3.3,-3.8 4.6,-6.5 1.2,-2.6 2.2,-5.8 2.8,-9.4 -0.6,3.6 -1.6,6.8 -2.8,9.4 -1.2,2.7 -2.7,4.8 -4.6,6.5 -2.6,2.3 -6,3.6 -10.1,4.1 -0.2,0.1 -0.5,0.3 -0.8,0.4 -0.3,0.2 -0.6,0.3 -0.9,0.5 2.9,0.1 5.7,-0.3 8.4,-1.1 2.2,-0.7 4.4,-1.7 6.4,-3 -2,1.3 -4.2,2.4 -6.4,3 1.2,0.1 2.8,0.2 4.6,0.4 2.8,0.3 4.8,0.4 6.1,0.4 1.6,0 3,-0.1 4.2,-0.4 2,-0.4 3,-1.2 3,-2.2 0,-0.2 -0.5,-1.1 -1.4,-2.7 -1,-1.6 -1.4,-3.4 -1.4,-5.5 0,-0.1 0,-0.2 0,-0.3 0,-1.2 0,-2.2 0,-3 -0.4,1 -0.9,2 -1.5,3 -0.6,0.9 -1.2,1.9 -2,2.8 0.8,-0.9 1.4,-1.8 2,-2.8 0.6,-1 1.1,-2 1.5,-3 1.7,-4.5 1.3,-9.3 -1.3,-14.4 -0.9,-1.8 -2,-3.4 -3.3,-4.8 -0.5,-0.6 -1.1,-1.1 -1.7,-1.7 -0.3,-0.3 -0.6,-0.6 -1,-0.8 -1.2,-0.9 -2.7,-1.6 -4.3,-2.3 -4.3,-1.6 -9.9,-2.3 -16.8,-2 -8.3,-0.4 -15.5,-2.3 -21.5,-5.7 -1.9,-1 -4.2,-2.5 -7,-4.5 -0.6,-0.4 -1.2,-0.8 -1.7,-1.3 0,0.1 0,0.2 0,0.3 0,0.8 -0.3,1.4 -1,1.9 -0.2,0.2 -0.5,0.3 -0.8,0.5 -0.4,0.1 -0.8,0.2 -1.2,0.3 -0.1,0 -0.1,0 -0.2,0 -0.2,0.1 -0.3,0.2 -0.5,0.3 4.8,3.7 10.7,6.7 17.7,8.9 0.9,0.2 1.8,0.4 2.7,0.5 5.4,1 10.5,1.5 15.4,1.6 0.6,0 1.2,0 1.8,0 l 5.2,-0.4 -5.2,0.4 c -0.6,0 -1.2,0 -1.8,0 -4.9,-0.1 -10,-0.6 -15.4,-1.6 -0.9,-0.2 -1.8,-0.4 -2.7,-0.5 -4.9,-1 -8.6,-1.6 -11.2,-2 -6.8,-1 -12,-2.5 -15.5,-4.3 -3,-1.5 -5.5,-3.5 -7.5,-6 -0.6,0.1 -1.3,0.2 -2,0.2 -1.1,0 -1.9,-0.2 -2.5,-0.7 -0.4,-0.3 -0.9,-0.9 -1.5,-1.9 -0.5,0 -0.9,0.1 -1.3,0.1 -1,-0.2 -1.9,-0.4 -2.5,-0.8 m 67.7,25.4 c 3.7,2.4 6.1,4.3 7.2,5.8 1.3,1.8 2,4.3 2.2,7.5 -0.2,-3.2 -0.9,-5.8 -2.2,-7.5 -1.1,-1.5 -3.5,-3.4 -7.2,-5.8 -1.2,-0.8 -3,-1.3 -5.3,-1.6 -0.9,-0.1 -1.9,-0.1 -3,-0.1 -4.9,-0.1 -8.1,-0.3 -9.6,-0.7 -8.9,-1.6 -15.2,-2.8 -18.9,-3.5 -6.1,-1.3 -12.2,-4 -18.1,-7.8 5.9,3.9 12,6.5 18.1,7.8 3.7,0.8 10,2 18.9,3.5 1.5,0.3 4.7,0.5 9.6,0.7 1.1,0 2.1,0.1 3,0.1 2.3,0.3 4.1,0.8 5.3,1.6 m -73.6,-34.8 c -0.4,-0.4 -1,-0.6 -1.8,-0.7 -0.1,0 -0.3,0 -0.4,0 -0.4,0 -0.6,0 -0.7,0 0.1,0 0.3,0 0.7,0 0.1,0 0.3,0 0.4,0 -0.1,-0.1 -0.3,-0.3 -0.5,-0.4 -0.9,-0.7 -1.5,-1 -1.9,-1 -0.7,0 -1.3,0.2 -1.7,0.6 -0.4,0.4 -0.6,0.9 -0.7,1.5 0,0.1 0,0.2 0,0.3 0,0.5 0,0.9 0.2,1.3 0.1,0.6 0.4,1.2 0.8,1.7 0.1,0.2 0.3,0.4 0.5,0.6 0.1,0.1 0.2,0.2 0.3,0.3 0.4,0.3 0.8,0.4 1.2,0.5 0.1,0 0.2,0 0.3,0 0.3,0 0.7,-0.1 1,-0.3 0.1,0 0.2,-0.1 0.3,-0.1 0,-0.1 0,-0.2 0,-0.3 l 0.1,-1 -0.1,1 c 0,0.1 0,0.2 0,0.3 0,0.6 0.3,1.1 0.8,1.5 0.1,0.1 0.2,0.2 0.3,0.3 0.6,0.5 1.3,0.7 1.9,0.7 0.7,0 1.2,0 1.5,0 0.3,-0.1 0.7,-0.2 1.1,-0.3 -0.2,-0.2 -0.3,-0.5 -0.5,-0.8 0.2,0.3 0.3,0.5 0.5,0.8 0.1,0.2 0.3,0.5 0.4,0.7 0.8,1.2 1.4,2 1.9,2.3 0.6,0.4 1.5,0.6 2.9,0.6 0.3,0 0.7,0 1.3,-0.1 0.6,0.9 1.1,1.6 1.5,1.9 0.6,0.5 1.4,0.7 2.5,0.7 0.7,0 1.4,-0.1 2,-0.2 0.2,0 0.4,-0.1 0.5,-0.1 -0.1,-0.1 -0.2,-0.3 -0.3,-0.4 -0.5,-0.8 -0.9,-2 -1.3,-3.4 0,-0.1 -0.1,-0.1 -0.2,-0.1 -1.8,-2.1 -3.4,-3.1 -4.9,-3.1 l -1.7,0.2 -1,0.1 1,-0.1 c -0.3,-0.7 -0.7,-1.2 -1.1,-1.6 -0.6,-0.5 -1.3,-0.7 -2.3,-0.7 -0.7,0 -1.3,0.1 -1.9,0.2 -0.4,0.1 -0.7,0.2 -1,0.3 0.3,-0.1 0.6,-0.2 1,-0.3 -0.3,-0.8 -0.5,-1.4 -0.7,-1.7 -0.4,-0.5 -1,-0.8 -1.8,-0.8 -0.1,0 -0.2,0 -0.3,0 -0.2,0 -0.4,0 -0.6,0.1 -0.2,0 -0.4,0.1 -0.7,0.2 0.3,-0.1 0.5,-0.2 0.7,-0.2 0.2,-0.1 0.4,-0.1 0.6,-0.1 0.1,0 0.2,0 0.3,0 -0.1,-0.4 -0.2,-0.7 -0.4,-0.9 z"
   id="path50"
   style="fill:url(#SVGID_5_);stroke:#000000;stroke-opacity:1" />&#10;				&#10;					<radialGradient
   id="SVGID_6_"
   cx="131.0609"
   cy="1125.0852"
   r="71.550003"
   gradientTransform="matrix(1,0,0,-1,525.2,1817.45)"
   gradientUnits="userSpaceOnUse">&#10;					<stop
   offset="0"
   style="stop-color:#30466D"
   id="stop51" />&#10;					<stop
   offset="0.2549"
   style="stop-color:#325276"
   id="stop52" />&#10;					<stop
   offset="0.4"
   style="stop-color:#3780C8"
   id="stop53" />&#10;					<stop
   offset="0.7137"
   style="stop-color:#4BE4F1"
   id="stop54" />&#10;					<stop
   offset="0.7882"
   style="stop-color:#45D0EF"
   id="stop55" />&#10;					<stop
   offset="1"
   style="stop-color:#205CE0"
   id="stop56" />&#10;				</radialGradient>&#10;				<path
   class="st13"
   d="m 613.6,706.6 c -0.1,0.2 -0.1,0.5 -0.2,0.7 -0.4,1.6 -0.8,2.8 -1.3,3.6 0.1,0.1 0.1,0.3 0.3,0.5 0.1,0.4 0.2,0.7 0.3,1 0.5,0.4 1.1,0.8 1.7,1.3 2.7,2 5.1,3.5 7,4.5 6,3.3 13.2,5.2 21.5,5.7 6.9,-0.3 12.5,0.4 16.8,2 1.7,0.6 3.1,1.4 4.3,2.3 -1.1,-0.8 -2.3,-1.6 -3.6,-2.3 -0.4,-0.2 -0.9,-0.4 -1.3,-0.6 -7.1,-3 -14.4,-5.6 -21.9,-7.6 -4.6,-1.3 -8.9,-3.3 -13,-6 -3.5,-2.2 -6.9,-3.9 -10.6,-5.1 z"
   id="path56"
   style="fill:url(#SVGID_6_);stroke:#000000;stroke-opacity:1" />&#10;				&#10;					<radialGradient
   id="SVGID_7_"
   cx="131.0609"
   cy="1125.0852"
   r="71.550003"
   gradientTransform="matrix(1,0,0,-1,457.15,1841.9)"
   gradientUnits="userSpaceOnUse">&#10;					<stop
   offset="0"
   style="stop-color:#30466D"
   id="stop57" />&#10;					<stop
   offset="0.2549"
   style="stop-color:#325276"
   id="stop58" />&#10;					<stop
   offset="0.4"
   style="stop-color:#3780C8"
   id="stop59" />&#10;					<stop
   offset="0.5255"
   style="stop-color:#4BE4F1"
   id="stop60" />&#10;					<stop
   offset="0.651"
   style="stop-color:#4EF3F7"
   id="stop61" />&#10;					<stop
   offset="0.9608"
   style="stop-color:#205CE0"
   id="stop62" />&#10;					<stop
   offset="1"
   style="stop-color:#205CE0"
   id="stop63" />&#10;				</radialGradient>&#10;				<path
   class="st14"
   d="m 593,712 c -0.2,0 -0.3,0.1 -0.5,0.1 2,2.5 4.5,4.5 7.5,6 3.6,1.8 8.8,3.2 15.5,4.3 2.6,0.4 6.3,1.1 11.2,2 -6.9,-2.2 -12.8,-5.2 -17.7,-8.9 -0.4,0.2 -0.7,0.3 -1,0.3 -0.8,0 -2,-0.6 -3.3,-1.9 -0.6,0.4 -1.2,0.6 -1.7,0.6 -1,0 -2,-0.4 -3.2,-1.3 -0.2,0.1 -0.5,0.3 -0.8,0.5 -0.7,0.3 -1.3,0.4 -2,0.4 -1.7,0 -3,-0.7 -4,-2.1 m -21.2,-8 c -0.2,0 -0.3,0.1 -0.5,0.1 -0.5,1.5 -1,3.2 -1.5,5 -0.9,3.7 -1.3,6.7 -1.3,9 0,6.3 2.1,12.5 6.3,18.4 2.7,3.8 5.9,7.1 9.7,9.9 2,-0.1 3.7,-0.1 5.1,-0.1 0.7,0 1.4,0 1.9,0 1.3,-0.1 2.1,-0.1 2.3,-0.1 0.6,0 1.2,-0.1 1.9,-0.1 -15.4,-8 -23.1,-19.7 -23.1,-35 0,-2.3 0,-3.7 0.1,-4.3 0.1,-0.7 0.2,-1.5 0.3,-2.3 -0.5,-0.1 -0.9,-0.2 -1.2,-0.5 m 2.8,0.2 c -0.1,0 -0.2,0.1 -0.3,0.1 -0.4,0.2 -0.8,0.3 -1,0.3 -0.1,0 -0.2,0 -0.3,0 -0.2,0.8 -0.3,1.6 -0.3,2.3 -0.1,0.6 -0.1,2 -0.1,4.3 0,15.3 7.7,27 23.1,35 1.4,-0.1 3,-0.3 4.8,-0.4 1.4,-0.1 2.9,-0.2 4.5,-0.3 -9.1,-4.5 -16,-9.9 -20.8,-16.3 -4.8,-6.3 -7.7,-14.1 -8.8,-23.5 -0.6,-0.5 -0.8,-1 -0.8,-1.5 m 1,1.7 c -0.1,-0.1 -0.2,-0.2 -0.3,-0.3 1.1,9.4 4,17.2 8.8,23.5 4.8,6.3 11.8,11.8 20.8,16.3 0.8,-0.1 1.7,-0.2 2.5,-0.3 0.1,0 0.2,0 0.3,0 0.1,0 0.3,-0.1 0.6,-0.1 0.3,-0.1 0.6,-0.1 1,0 0.3,0 0.5,0 0.5,0 0.1,0 0.2,0 0.3,0 3.9,-0.3 7.4,-0.5 10.5,-0.6 0.2,-0.3 0.5,-0.5 0.7,-0.7 0.1,-0.1 0.2,-0.2 0.3,-0.3 -7.2,-1.9 -12.3,-3.7 -15.3,-5.2 -2.4,-1.2 -6.3,-4.2 -11.7,-9 -4.3,-3.8 -7.6,-7.5 -9.9,-11.1 -2.4,-3.7 -3.8,-7.4 -4.3,-11.2 -0.1,-0.2 -0.3,-0.4 -0.4,-0.7 -0.4,0.1 -0.8,0.2 -1.1,0.3 -0.3,0 -0.8,0 -1.5,0 -0.5,0.1 -1.2,-0.1 -1.8,-0.6 z"
   id="path63"
   style="fill:url(#SVGID_7_);stroke:#000000;stroke-opacity:1" />&#10;				&#10;					<radialGradient
   id="SVGID_8_"
   cx="131.0609"
   cy="1125.0852"
   r="72.375"
   gradientTransform="matrix(1,0,0,-1,469.45,1759.7)"
   gradientUnits="userSpaceOnUse">&#10;					<stop
   offset="0"
   style="stop-color:#30466D"
   id="stop64" />&#10;					<stop
   offset="0.2549"
   style="stop-color:#325276"
   id="stop65" />&#10;					<stop
   offset="0.4"
   style="stop-color:#3780C8"
   id="stop66" />&#10;					<stop
   offset="0.5255"
   style="stop-color:#4BE4F1"
   id="stop67" />&#10;					<stop
   offset="0.651"
   style="stop-color:#4EF3F7"
   id="stop68" />&#10;					<stop
   offset="0.9608"
   style="stop-color:#205CE0"
   id="stop69" />&#10;					<stop
   offset="1"
   style="stop-color:#205CE0"
   id="stop70" />&#10;				</radialGradient>&#10;				<path
   class="st15"
   d="m 620.3,672 c 0.6,-0.4 1.2,-0.8 1.8,-1.1 -0.9,0.2 -2,0.5 -3.3,0.9 -0.9,0.2 -2,0.5 -3.1,0.8 -0.4,0.1 -0.8,0.2 -1.3,0.3 -0.4,0.1 -0.7,0.2 -1,0.3 0,1 0.3,1.5 0.9,1.5 0.4,0 0.9,-0.1 1.5,-0.3 0,0 0.1,0 0.1,0 0.6,-0.2 1.3,-0.5 2.2,-0.9 -0.8,0.4 -1.5,0.7 -2.2,0.9 0.5,0.1 1,0.1 1.7,0.2 0.6,0.1 1.3,0.2 2,0.3 2.6,0.3 4.1,0.5 4.4,0.5 0.6,0 1,-0.1 1.3,-0.2 0.2,-0.2 0.3,-0.5 0.3,-1 0,-0.1 -0.3,-1.2 -1,-3.4 -0.1,-0.2 -0.1,-0.3 -0.1,-0.5 -0.2,0.1 -0.5,0.2 -0.7,0.3 -0.3,0.1 -0.8,0.3 -1.4,0.5 -0.9,0.1 -1.5,0.5 -2.1,0.9 -0.2,0.1 -0.3,0.2 -0.5,0.3 0.1,-0.1 0.3,-0.2 0.5,-0.3 m -41.5,-33.5 c 0.5,6 -0.1,13.5 -1.9,22.7 -1,4.8 -1.7,8.6 -2.2,11.4 -0.1,0.2 -0.1,0.4 -0.1,0.6 -0.1,0.8 0.2,1.4 0.8,1.7 0.4,0.1 0.9,0.1 1.5,0.3 1.3,0.2 2.9,0.3 4.8,0.5 0.2,0 0.3,0 0.5,0 0.3,-1.8 0.7,-4.1 1.2,-6.7 0.2,-1.2 0.3,-2.4 0.5,-3.8 1.1,-7.3 1.6,-12.2 1.6,-14.8 0,-1 -0.3,-3.5 -0.8,-7.6 -0.3,-2.4 -0.6,-4.6 -0.9,-6.5 0.3,1.9 0.6,4 0.9,6.5 0.5,4.1 0.8,6.6 0.8,7.6 0,2.6 -0.5,7.5 -1.6,14.8 -0.2,1.3 -0.4,2.6 -0.5,3.8 -0.4,2.6 -0.8,4.9 -1.2,6.7 1.8,0.1 3.9,0.2 6.2,0.3 h 5.4 c -0.1,-1.7 -0.2,-2.9 -0.3,-3.5 0,-0.4 0,-2.1 0,-5 0,-1.6 0,-3.5 0,-5.7 v -5.4 c 0.1,-3.5 0.2,-6.2 0.2,-8 0,-1.2 0,-2 0,-2.5 0,0.5 0,1.4 0,2.5 0,1.9 -0.1,4.5 -0.2,8 v 5.4 c 0,2.2 0,4.1 0,5.7 0,3 0,4.6 0,5 0,0.6 0.1,1.8 0.3,3.5 h 5.7 c 0.6,0 1.3,-0.1 2.2,-0.3 -0.4,-3.2 -0.8,-6.3 -1.1,-9.4 -0.6,-5.9 -0.8,-11.5 -0.8,-16.8 0,-1.3 0,-2.4 0,-3.3 0,-1.6 0,-2.7 0.2,-3.3 -0.1,0.6 -0.2,1.7 -0.2,3.3 0,0.9 0,2 0,3.3 0,5.3 0.3,10.9 0.8,16.8 0.3,3 0.7,6.2 1.1,9.4 2.6,-0.4 6.5,-1.3 11.6,-2.5 0.3,-0.1 0.7,-0.2 1,-0.3 0.4,-0.1 0.9,-0.2 1.3,-0.3 -0.1,-2.8 -0.2,-5.3 -0.4,-7.5 -0.1,-1.4 -0.3,-2.7 -0.4,-3.8 -0.6,-5.1 -2,-12.7 -4,-22.5 2.1,9.9 3.5,17.4 4,22.5 0.1,1.2 0.3,2.5 0.4,3.8 0.2,2.2 0.3,4.7 0.4,7.5 1.1,-0.3 2.2,-0.5 3.1,-0.8 1.4,-0.4 2.5,-0.7 3.3,-0.9 0.6,-0.2 1.1,-0.4 1.4,-0.5 0.2,-0.1 0.5,-0.2 0.7,-0.3 0.6,-0.3 1.1,-0.5 1.5,-0.7 0.4,-0.2 0.7,-0.4 1,-0.6 0.3,-0.3 0.3,-0.8 0.3,-1.4 -0.1,-0.6 -0.6,-2.3 -1.5,-5 -0.9,-2.8 -1.4,-4.8 -1.7,-6.2 -0.2,-1.4 -0.8,-7.3 -1.6,-17.8 -1.5,-4.7 -5.4,-10.5 -11.7,-17.3 -6.3,-6.8 -12.3,-10 -18,-9.8 -5.8,0.3 -9.6,3.4 -11.6,9.3 -1.9,6 -2.6,11.9 -2,17.9 z"
   id="path70"
   style="fill:url(#SVGID_8_);stroke:#000000;stroke-opacity:1" />&#10;				&#10;					<radialGradient
   id="SVGID_9_"
   cx="131.0609"
   cy="1125.0852"
   r="105.15"
   gradientTransform="matrix(1,0,0,-1,407.15,1817.45)"
   gradientUnits="userSpaceOnUse">&#10;					<stop
   offset="0"
   style="stop-color:#30466D"
   id="stop71" />&#10;					<stop
   offset="0.2549"
   style="stop-color:#325276"
   id="stop72" />&#10;					<stop
   offset="0.4"
   style="stop-color:#3780C8"
   id="stop73" />&#10;					<stop
   offset="0.7137"
   style="stop-color:#4BE4F1"
   id="stop74" />&#10;					<stop
   offset="0.7882"
   style="stop-color:#45D0EF"
   id="stop75" />&#10;					<stop
   offset="1"
   style="stop-color:#205CE0"
   id="stop76" />&#10;				</radialGradient>&#10;				<path
   class="st16"
   d="m 569.2,703.5 c -0.1,-0.1 -0.2,-0.2 -0.3,-0.3 -1.7,2.4 -3.3,5.6 -4.7,9.5 -2,5.5 -3,10.6 -3,15.3 0,5.2 1.7,9.9 5,14 1.6,2 3.4,3.6 5.6,4.9 0.5,0 1,0 1.6,0 0,0 0,0 0,0 l 7.3,-0.1 c 1,-0.1 2.1,-0.2 3.3,-0.3 0.1,0 0.1,0 0.2,0 0.1,0 0.1,0 0.2,0 -3.8,-2.8 -7,-6.1 -9.7,-9.9 -4.2,-5.9 -6.3,-12.1 -6.3,-18.4 0,-2.3 0.4,-5.3 1.3,-9 0.4,-1.8 0.9,-3.5 1.5,-5 -0.1,0 -0.2,0 -0.3,0 -0.7,-0.1 -1.3,-0.3 -1.7,-0.7 z"
   id="path76"
   style="fill:url(#SVGID_9_);stroke:#000000;stroke-opacity:1" />&#10;				&#10;					<radialGradient
   id="SVGID_10_"
   cx="131.0609"
   cy="1125.0852"
   r="81.724998"
   gradientTransform="matrix(1,0,0,-1,466.45,1809.9)"
   gradientUnits="userSpaceOnUse">&#10;					<stop
   offset="0"
   style="stop-color:#FFFFFF"
   id="stop77" />&#10;					<stop
   offset="0.4471"
   style="stop-color:#F1FEFF"
   id="stop78" />&#10;					<stop
   offset="1"
   style="stop-color:#4CEDF4"
   id="stop79" />&#10;				</radialGradient>&#10;				<path
   class="st17"
   d="m 558.4,707.7 c -0.2,0.2 -0.3,0.3 -0.5,0.5 -1.1,1.5 -3.3,3.5 -6.4,6.2 -2.3,2.4 -3.5,4.9 -3.7,7.6 0.2,0.1 0.5,0.2 0.8,0.4 1.5,0.7 2.9,1 4.1,1 0,0 0.1,0 0.2,0 0,-2.7 0.8,-4.9 2.3,-6.7 1.4,-1.8 3.8,-4.7 7.1,-8.6 1.8,-2.7 3.3,-5 4.6,-6.8 0.8,-1.1 1.6,-2 2.4,-2.7 0.9,-0.8 1.8,-1.3 2.7,-1.8 -1,0.1 -1.8,0.3 -2.5,0.5 -1.2,0.5 -2.6,1.5 -4.4,3.1 -0.1,0.1 -0.3,0.2 -0.4,0.3 -1.1,1 -2.8,2.8 -4.9,5.4 -0.5,0.7 -1,1.2 -1.4,1.6 m -0.7,-5 c 0,0 0.4,-0.4 1,-1 -0.6,0.6 -1,1 -1,1 -0.3,0.3 -0.4,0.6 -0.4,0.9 0,0.3 0.2,0.5 0.5,0.5 0.4,0 0.8,-0.1 1.3,-0.3 1.1,-1.7 2.2,-3 3.3,-3.8 1.1,-0.9 2.5,-1.6 4.2,-2.1 0.8,-0.6 1.8,-1 2.8,-1.3 0.8,-0.2 1.9,-0.4 3.3,-0.6 0,-0.2 0.1,-0.3 0.1,-0.5 -1,0.2 -2.2,0.3 -3.7,0.3 -0.7,0 -1.3,0 -2,0 -0.8,0 -1.5,0 -2.2,0.1 -0.9,0.1 -1.7,0.2 -2.5,0.4 -2.4,0.6 -4.1,1.5 -5.1,2.8 -0.2,0.3 -0.8,1.4 -1.8,3.5 0.2,-0.2 0.5,-0.3 0.8,-0.5 1.9,-1.3 4,-2.6 6.5,-3.8 -2.5,1.3 -4.7,2.5 -6.5,3.8 -0.3,0.2 -0.5,0.4 -0.8,0.5 -2.7,2 -4,3.7 -4,5.1 0,0.5 0.2,0.9 0.7,1.2 0.4,0.3 0.9,0.4 1.5,0.4 1.5,0 3.1,-0.6 4.6,-1.8 0.5,-0.4 0.9,-0.8 1.4,-1.3 2.1,-2.6 3.8,-4.4 4.9,-5.4 0.1,-0.1 0.3,-0.3 0.4,-0.3 1.8,-1.6 3.3,-2.6 4.4,-3.1 0.7,-0.3 1.5,-0.4 2.5,-0.5 0.2,-0.1 0.3,-0.1 0.5,-0.1 0,-0.1 0,-0.2 0,-0.3 0,-0.1 0.1,-0.3 0.1,-0.4 -1.4,0.2 -2.5,0.4 -3.3,0.6 -1,0.2 -2,0.7 -2.8,1.3 -0.4,0.3 -0.8,0.6 -1.1,1 -2.7,2.6 -4.8,4.3 -6.3,4.9 -0.5,0.2 -0.9,0.3 -1.3,0.3 -0.3,0 -0.5,-0.2 -0.5,-0.5 0.1,-0.4 0.2,-0.7 0.5,-1 m 15.9,-8.9 c 0.3,-0.4 0.6,-0.6 0.9,-0.6 0.1,-0.4 0.2,-0.6 0.3,-0.7 0.3,-0.3 0.8,-0.5 1.4,-0.4 l 1.1,0.5 c 0.2,-0.4 0.4,-0.8 0.6,-1.2 -0.1,-0.1 -0.3,-0.1 -0.4,-0.2 -1,-0.5 -1.8,-0.8 -2.4,-0.8 -0.7,0 -1.3,0.3 -2,1 -0.4,0.4 -0.9,1 -1.7,1.9 -0.7,0.7 -1.6,1.3 -2.7,1.8 -0.6,0.3 -1.2,0.5 -1.8,0.8 0.6,0 1.3,0 2,0 1.5,0 2.7,0 3.7,-0.3 0.4,-0.6 0.7,-1.2 1,-1.8 z"
   id="path79"
   style="fill:url(#SVGID_10_);stroke:#000000;stroke-opacity:1" />&#10;				&#10;					<radialGradient
   id="SVGID_11_"
   cx="131.0609"
   cy="1063.9094"
   r="56.125"
   gradientTransform="matrix(1,0,0,-0.7933,445.15,1555.1338)"
   gradientUnits="userSpaceOnUse">&#10;					<stop
   offset="0"
   style="stop-color:#30466D"
   id="stop80" />&#10;					<stop
   offset="0.2549"
   style="stop-color:#325276"
   id="stop81" />&#10;					<stop
   offset="0.4"
   style="stop-color:#3780C8"
   id="stop82" />&#10;					<stop
   offset="0.7137"
   style="stop-color:#4BE4F1"
   id="stop83" />&#10;					<stop
   offset="0.7882"
   style="stop-color:#45D0EF"
   id="stop84" />&#10;					<stop
   offset="1"
   style="stop-color:#205CE0"
   id="stop85" />&#10;				</radialGradient>&#10;				<path
   class="st18"
   d="m 581.9,694.9 c -2.1,-1.1 -3.6,-1.8 -4.5,-2.3 l -1.1,-0.5 c -0.7,0 -1.2,0.1 -1.4,0.4 -0.1,0.1 -0.2,0.3 -0.3,0.7 0.3,-0.1 0.7,0 1.1,0.2 0.3,0.2 0.5,0.3 0.8,0.5 10.8,6.4 22.6,8.8 35.3,7.3 0.7,-0.1 1.4,-0.2 2.1,-0.3 -0.1,-0.9 -0.5,-1.4 -1.2,-1.5 -0.3,0 -0.6,0.1 -0.9,0.2 -3.8,0.4 -6.2,0.6 -7.2,0.5 -1.7,-0.1 -4.1,-0.4 -7.3,-0.9 -4,-0.7 -6.5,-1.1 -7.5,-1.3 -1.4,-0.1 -4,-1.1 -7.9,-3 m -7.3,-1.7 c -0.4,0 -0.7,0.2 -0.9,0.6 -0.3,0.6 -0.6,1.2 -0.8,1.8 -0.1,0.1 -0.1,0.3 -0.1,0.5 0,0.1 -0.1,0.3 -0.1,0.4 0,0.1 0,0.2 0,0.3 0,0 0,0.1 0,0.1 -0.1,0.2 -0.1,0.5 -0.1,0.8 0.4,0 1,0.4 1.9,1 0.2,0.1 0.3,0.3 0.5,0.4 0.8,0 1.3,0.3 1.8,0.7 0.2,0.2 0.4,0.5 0.5,0.8 0.8,0.1 1.4,0.3 1.8,0.8 0.2,0.3 0.4,0.8 0.7,1.7 0.6,-0.1 1.2,-0.2 1.9,-0.2 0.9,0 1.7,0.2 2.3,0.7 0.4,0.4 0.8,0.9 1.1,1.6 l 1.7,-0.2 c 1.5,0 3.2,1 4.9,3.1 0,0 0.1,0 0.1,0 0.6,-0.2 1,-0.4 1.3,-0.4 1,0 2.2,0.7 3.5,2 0.7,-0.2 1.2,-0.3 1.6,-0.3 1.2,0 2.6,0.7 4.2,2 l 2,-0.5 c 0.8,0 1.7,0.3 2.6,1 0.4,0.2 1,0.3 1.7,0.3 0.8,0 1.7,-0.3 2.8,-0.8 0.4,-0.2 0.7,-0.4 1,-0.6 0,0 0,0.1 0.1,0.1 0.5,-0.8 0.9,-2 1.3,-3.6 0.1,-0.2 0.1,-0.5 0.2,-0.7 -0.1,0 -0.1,-0.1 -0.2,-0.1 -0.1,0.1 -0.2,0.2 -0.3,0.4 -0.1,0.1 -0.2,0.3 -0.3,0.4 -0.2,0.1 -0.3,0.2 -0.5,0.3 -0.2,0.1 -0.4,0.2 -0.6,0.3 -3,0 -6,-0.3 -8.8,-0.9 -1.5,-0.3 -2.9,-0.6 -4.4,-1 -1.5,-0.4 -3,-0.9 -4.4,-1.4 -2.6,-1 -5.2,-2.1 -7.6,-3.4 2.4,1.3 5,2.4 7.6,3.4 1.4,0.5 2.9,1 4.4,1.4 1.4,0.4 2.9,0.7 4.4,1 2.9,0.6 5.8,0.9 8.8,0.9 0.2,-0.1 0.4,-0.2 0.6,-0.3 0.2,-0.1 0.3,-0.2 0.5,-0.3 0.1,-0.1 0.2,-0.3 0.3,-0.4 0.1,-0.1 0.2,-0.3 0.3,-0.4 0,-0.1 0.1,-0.1 0.1,-0.1 0.1,-0.1 0.1,-0.3 0.2,-0.4 0.7,-2.9 0.9,-4.6 0.6,-5.2 -0.2,0 -0.3,0.1 -0.4,0.1 -0.7,0.1 -1.4,0.2 -2.1,0.3 -12.7,1.6 -24.4,-0.8 -35.3,-7.3 -0.3,-0.2 -0.6,-0.3 -0.8,-0.5 -1,-0.2 -1.3,-0.3 -1.6,-0.2 z"
   id="path85"
   style="fill:url(#SVGID_11_);stroke:#000000;stroke-opacity:1" />&#10;				&#10;					<radialGradient
   id="SVGID_12_"
   cx="131.0609"
   cy="1059.1886"
   r="36.450001"
   gradientTransform="matrix(1,0,0,-0.7809,453.2,1524.8472)"
   gradientUnits="userSpaceOnUse">&#10;					<stop
   offset="0"
   style="stop-color:#0D1115"
   id="stop86" />&#10;					<stop
   offset="0.651"
   style="stop-color:#393F73"
   id="stop87" />&#10;					<stop
   offset="1"
   style="stop-color:#75B2D1"
   id="stop88" />&#10;				</radialGradient>&#10;				<path
   class="st19"
   d="m 582.2,675.6 c -0.2,0 -0.4,0 -0.5,0 -0.2,5.7 -0.5,9.2 -0.9,10.3 -0.3,1.1 -1.3,2.9 -2.8,5.5 -0.2,0.4 -0.4,0.8 -0.6,1.2 0.9,0.5 2.4,1.2 4.5,2.3 3.9,1.9 6.6,2.9 7.9,3.1 1,0.1 3.5,0.5 7.5,1.3 3.1,0.5 5.5,0.8 7.3,0.9 1,0.1 3.4,-0.1 7.2,-0.5 0,-1.3 0,-2 0,-2.1 0,-5.4 0.4,-9.6 1.3,-12.4 0.6,-2 2,-5.6 4.4,-10.6 -0.6,-0.1 -1.2,-0.1 -1.7,-0.2 0,0 -0.1,0 -0.1,0 -0.6,0.2 -1.1,0.3 -1.5,0.3 -0.6,0 -0.9,-0.5 -0.9,-1.5 -5.1,1.2 -9,2.1 -11.6,2.5 -0.9,0.1 -1.6,0.2 -2.2,0.3 h -5.7 -5.4 c -2.3,-0.3 -4.4,-0.3 -6.2,-0.4 z"
   id="path88"
   style="fill:url(#SVGID_12_);stroke:#000000;stroke-opacity:1" />&#10;			</g>&#10;		</g>&#10;		<g
   id="g90"
   style="display:inline;stroke:#000000;stroke-opacity:1">&#10;			&#10;				<radialGradient
   id="Layer1_4_1_STROKES_1_"
   cx="131.0609"
   cy="1077.1798"
   r="54"
   gradientTransform="matrix(1,0,0,-0.8306,474.45,1574.2725)"
   gradientUnits="userSpaceOnUse">&#10;				<stop
   offset="0"
   style="stop-color:#FFFFFF"
   id="stop89" />&#10;				<stop
   offset="1"
   style="stop-color:#9BF0F3"
   id="stop90" />&#10;			</radialGradient>&#10;			<path
   id="Layer1_4_1_STROKES_2_"
   class="st20"
   d="m 581.7,675.6 c -1.9,-0.1 -3.5,-0.3 -4.8,-0.5 -0.6,-0.1 -1.1,-0.2 -1.5,-0.3 -0.6,-0.3 -0.8,-0.9 -0.8,-1.7 0,-0.2 0,-0.4 0.1,-0.6 0.5,-2.8 1.2,-6.6 2.2,-11.4 1.8,-9.2 2.4,-16.7 1.9,-22.7 -0.6,-6 0.1,-11.9 2.1,-17.8 2,-5.9 5.8,-9 11.6,-9.3 5.7,-0.3 11.7,3 18,9.8 1.20713,1.30293 2.32614,2.56547 3.35704,3.78904 m 8.67022,24.06272 c 0.46075,3.22199 1.11698,6.2358 1.27274,7.24824 0.2,1.3 0.8,3.4 1.7,6.2 0.8,2.7 1.3,4.4 1.5,5 0.1,0.6 0,1 -0.3,1.4 -0.3,0.3 -0.6,0.5 -1,0.6 -0.4,0.2 -0.9,0.4 -1.5,0.7 0,0.1 0.1,0.3 0.1,0.5 0.7,2.2 1,3.3 1,3.4 0,0.5 -0.1,0.8 -0.3,1 -0.2,0.1 -0.6,0.2 -1.3,0.2 -0.3,0 -1.8,-0.1 -4.4,-0.5 -0.7,-0.1 -1.4,-0.2 -2,-0.3 m -35.1,1.2 c 0.3,-1.8 0.7,-4.1 1.2,-6.7 0.2,-1.2 0.3,-2.4 0.5,-3.8 1.1,-7.3 1.6,-12.2 1.6,-14.8 0,-1 -0.3,-3.5 -0.8,-7.6 -0.3,-2.4 -0.6,-4.6 -0.9,-6.5 m 10,39.6 c -0.1,-1.7 -0.2,-2.9 -0.3,-3.5 v -5 -5.7 -5.4 c 0.1,-3.5 0.2,-6.2 0.2,-8 m 6,-2.1 v 3.3 c 0,5.3 0.3,10.9 0.8,16.8 0.3,3 0.7,6.2 1.1,9.4 2.6,-0.4 6.5,-1.3 11.6,-2.5 0.3,-0.1 0.7,-0.2 1,-0.3 0.4,-0.1 0.9,-0.2 1.3,-0.3 -0.1,-2.8 -0.2,-5.3 -0.4,-7.5 -0.1,-1.4 -0.3,-2.7 -0.4,-3.8 -0.6,-5.1 -1.51203,-10.74811 -3.1742,-18.07072 M 622.1,670.9 c -0.9,0.2 -2,0.5 -3.3,0.9 -0.9,0.2 -2,0.5 -3.1,0.8 m 6.3,-1.7 c 0.6,-0.2 1.1,-0.4 1.4,-0.5 0.2,-0.1 0.5,-0.2 0.7,-0.3 m -10.8,3 c 0,1 0.3,1.5 0.9,1.5 0.4,0 0.9,-0.1 1.5,-0.3 h 0.1 m 1.6,0.2 c -0.6,-0.1 -1.2,-0.1 -1.7,-0.2 m -21.9,1.5 h 5.7 c 0.6,0 1.3,-0.1 2.2,-0.3 m -19.5,0.1 c 1.8,0.1 3.9,0.2 6.2,0.3 h 5.4"
   style="stroke:#000000;stroke-opacity:1"
   sodipodi:nodetypes="cccscccscsccsccccccscscccccscccccccccscccccccccccccccscccccscccc" />&#10;		</g>&#10;		<g
   id="g92"
   style="stroke:#000000;stroke-opacity:1">&#10;			&#10;				<radialGradient
   id="Layer1_4_2_STROKES_1_"
   cx="131.0609"
   cy="916.43439"
   r="108.9"
   gradientTransform="matrix(1,0,0,-0.5295,516.55,1249.5664)"
   gradientUnits="userSpaceOnUse">&#10;				<stop
   offset="0"
   style="stop-color:#FFFFFF"
   id="stop91" />&#10;				<stop
   offset="1"
   style="stop-color:#9BF0F3"
   id="stop92" />&#10;			</radialGradient>&#10;			<path
   id="Layer1_4_2_STROKES_2_"
   class="st21"
   d="m 617.4,674.5 c -2.3,5 -3.8,8.6 -4.4,10.6 -0.9,2.8 -1.3,7 -1.3,12.4 0,0.1 0,0.8 0,2.1 0.3,-0.1 0.6,-0.1 0.9,-0.2 0.7,0 1.1,0.5 1.2,1.5 0.1,0 0.3,-0.1 0.4,-0.1 0.2,0.6 0,2.3 -0.6,5.2 0,0.2 -0.1,0.4 -0.1,0.6 3.7,1.2 7.2,2.9 10.5,5.1 4.1,2.6 8.4,4.6 13,6 7.5,2.1 14.8,4.6 21.9,7.6 0.4,0.2 0.9,0.4 1.3,0.6 1.3,0.7 2.5,1.4 3.6,2.3 0.4,0.3 0.7,0.6 1,0.9 0.6,0.5 1.1,1.1 1.7,1.6 1.3,1.4 2.4,3 3.3,4.8 2.5,5.1 3,9.9 1.3,14.4 0,0.8 0,1.8 0,3 0,0.1 0,0.2 0,0.3 0,2.1 0.4,4 1.4,5.5 0.9,1.6 1.4,2.5 1.4,2.7 0,1 -1,1.8 -3,2.2 -1.2,0.3 -2.6,0.4 -4.2,0.4 -1.3,0 -3.3,-0.1 -6.1,-0.4 -1.9,-0.2 -3.4,-0.3 -4.6,-0.4 -2.6,0.8 -5.4,1.2 -8.4,1.1 -3.8,1.8 -8,2.7 -12.7,2.7 -2.8,0 -7,-0.1 -12.6,-0.3 -5.6,-0.2 -9.8,-0.3 -12.5,-0.3 -0.9,0 -2.6,0.1 -5,0.3 -0.1,0 -0.3,0 -0.4,0 -0.4,0 -0.8,0.1 -1.2,0.1 -2.1,0.1 -3.9,0.2 -5.3,0.2 -0.8,0 -1.6,0 -2.2,0 -1.6,-0.1 -2.7,-0.2 -3.4,-0.4 h -2.4 c -0.3,0 -0.5,0 -0.8,0 -0.3,0 -0.6,0 -0.8,0 -1,0 -1.8,0 -2.4,0 -0.4,0 -0.8,-0.1 -1.1,-0.1 -1.6,-0.1 -3,-0.1 -4.3,-0.3 -2.2,-0.2 -3.5,-0.4 -4,-0.5 -0.5,-0.1 -0.9,-0.1 -1.2,-0.1 -0.3,0 -0.9,-0.1 -1.9,-0.3 -1.6,-0.2 -2.7,-0.7 -3.3,-1.5 -0.2,-0.3 -0.4,-0.9 -0.5,-1.6 -2.5,0.3 -4.7,0.4 -6.5,0.5 -3.8,-0.1 -7.3,0 -10.5,0.3 -1.6,0.1 -5.5,0.6 -11.5,1.5 -5.7,0.8 -8.7,1.2 -9.1,1.2 h -1 c -0.5,-0.1 -0.8,-0.4 -0.8,-0.9 0,-0.3 0.2,-0.7 0.5,-1.1 -0.5,-0.1 -0.8,-0.4 -0.8,-0.8 0,-0.7 0.8,-1.5 2.4,-2.3 0.9,-0.4 1.7,-0.7 2.2,-0.9 1,-0.9 2.5,-1.8 4.4,-2.8 2.8,-1.5 4.7,-3.1 5.9,-4.9 1.7,-3.1 3,-5.2 4,-6.4 1.6,-2 3.7,-3 6.3,-3 1.3,0 3,0.8 5,2.3 1.9,1.4 3.6,2 4.9,1.8 0.2,0 2.4,0 6.8,0.2 -2.1,-1.3 -4,-2.9 -5.6,-4.9 -3.3,-4.1 -5,-8.8 -5,-14 0,-4.7 1,-9.8 3,-15.3 1.4,-3.9 3,-7 4.7,-9.5 -0.2,-0.3 -0.3,-0.7 -0.3,-1.2 0,-0.6 0.1,-1 0.3,-1.3 0.2,-0.4 0.6,-0.7 1.1,-0.9 m 2.5,-2.8 c -0.2,0 -0.3,0 -0.5,0 m 9.7,-21.4 c 0.2,0 0.3,0 0.5,0 m -7.6,17.6 c 0.1,-0.4 0.2,-0.6 0.3,-0.7 0.3,-0.3 0.8,-0.5 1.4,-0.4 l 1.1,0.5 c 0.9,0.5 2.4,1.2 4.5,2.3 3.9,1.9 6.6,2.9 7.9,3.1 1,0.1 3.5,0.5 7.5,1.3 3.1,0.5 5.5,0.8 7.3,0.9 1,0.1 3.4,-0.1 7.2,-0.5 m 2.1,1.2 c -0.7,0.1 -1.4,0.2 -2.1,0.3 -12.7,1.6 -24.4,-0.8 -35.3,-7.3 -0.3,-0.2 -0.6,-0.3 -0.8,-0.5 -0.4,-0.2 -0.8,-0.3 -1.1,-0.2 m -1.9,2.9 c 0,-0.2 0.1,-0.3 0.1,-0.5 M 572,697 c 0.2,-0.1 0.3,-0.1 0.5,-0.1 m 4.5,3.7 c -0.2,-0.3 -0.3,-0.6 -0.5,-0.8 -0.4,-0.4 -1,-0.6 -1.8,-0.7 -0.1,0 -0.3,0 -0.4,0 -0.4,0 -0.6,0 -0.7,0 m 1.8,1.8 c 0.3,-0.1 0.5,-0.2 0.7,-0.2 0.2,-0.1 0.4,-0.1 0.6,-0.1 0.1,0 0.2,0 0.3,0 0.8,0.1 1.4,0.3 1.8,0.8 0.2,0.3 0.4,0.8 0.7,1.7 0.6,-0.1 1.2,-0.2 1.9,-0.2 0.9,0 1.7,0.2 2.3,0.7 0.4,0.4 0.8,0.9 1.1,1.6 l 1.7,-0.2 c 1.5,0 3.2,1 4.9,3.1 0,0 0.1,0 0.1,0 0.6,-0.2 1,-0.4 1.3,-0.4 1,0 2.2,0.7 3.5,2 0.7,-0.2 1.2,-0.3 1.6,-0.3 1.2,0 2.6,0.7 4.2,2 l 2,-0.5 c 0.8,0 1.7,0.3 2.6,1 0.4,0.2 1,0.3 1.7,0.3 0.8,0 1.7,-0.3 2.8,-0.8 0.4,-0.2 0.7,-0.4 1,-0.6 0,0 0,0.1 0.1,0.1 0.5,-0.8 0.9,-2 1.3,-3.6 0.1,-0.2 0.1,-0.5 0.2,-0.7 -0.1,0 -0.1,-0.1 -0.2,-0.1 -0.1,0.1 -0.2,0.2 -0.3,0.4 -0.1,0.1 -0.2,0.3 -0.3,0.4 -0.2,0.1 -0.3,0.2 -0.5,0.3 -0.2,0.1 -0.4,0.2 -0.6,0.3 -3,0 -6,-0.3 -8.8,-0.9 -1.5,-0.3 -2.9,-0.6 -4.4,-1 -1.5,-0.4 -3,-0.9 -4.4,-1.4 -2.6,-1 -5.2,-2.1 -7.6,-3.4 m -8.3,2.2 c 0.3,-0.1 0.6,-0.2 1,-0.3 m -4.8,1.1 c 0,0.6 0.3,1.1 0.8,1.5 0.1,0.1 0.2,0.2 0.3,0.3 0.6,0.5 1.3,0.7 1.9,0.7 0.7,0 1.2,0 1.5,0 0.3,-0.1 0.7,-0.2 1.1,-0.3 -0.2,-0.2 -0.3,-0.5 -0.5,-0.8 m 5,-0.4 -1,0.1 m -3.6,1 c 0.1,0.2 0.3,0.5 0.4,0.7 0.8,1.2 1.4,2 1.9,2.3 0.6,0.4 1.5,0.6 2.9,0.6 0.3,0 0.7,0 1.3,-0.1 0.6,0.9 1.1,1.6 1.5,1.9 0.6,0.5 1.4,0.7 2.5,0.7 0.7,0 1.4,-0.1 2,-0.2 0.2,0 0.4,-0.1 0.5,-0.1 -0.1,-0.1 -0.2,-0.3 -0.3,-0.4 -0.5,-0.8 -0.9,-2 -1.3,-3.4 0,-0.1 -0.1,-0.1 -0.2,-0.1 m -18.8,-11.4 c 0,0 0,0.1 0,0.1 m -2.4,2.9 c 0,0.1 0,0.2 0,0.3 0,0.5 0,0.9 0.2,1.3 0.1,0.6 0.4,1.2 0.8,1.7 0.1,0.2 0.3,0.4 0.5,0.6 0.1,0.1 0.2,0.2 0.3,0.3 0.4,0.3 0.8,0.4 1.2,0.5 0.1,0 0.2,0 0.3,0 0.3,0 0.7,-0.1 1,-0.3 0.1,0 0.2,-0.1 0.3,-0.1 0,-0.1 0,-0.2 0,-0.3 l 0.1,-1 m -2.4,-5.1 c 0.4,0 1,0.4 1.9,1 0.2,0.1 0.3,0.3 0.5,0.4 m -5.9,4.1 c 0.1,0.1 0.2,0.3 0.3,0.3 0.4,0.4 1,0.6 1.8,0.6 0.1,0 0.2,0 0.3,0 0,-0.1 0.1,-0.3 0.2,-0.4 m -0.2,0.4 c 0.2,0 0.3,-0.1 0.5,-0.1 m 1.2,0.5 c -0.2,0.8 -0.3,1.6 -0.3,2.3 -0.1,0.6 -0.1,2 -0.1,4.3 0,15.3 7.7,27 23.1,35 1.4,-0.1 3,-0.3 4.8,-0.4 1.4,-0.1 2.9,-0.2 4.5,-0.3 -9.1,-4.5 -16,-9.9 -20.8,-16.3 -4.8,-6.3 -7.7,-14.1 -8.8,-23.5 m -4.1,-1.5 c -0.5,1.5 -1,3.2 -1.5,5 -0.9,3.7 -1.3,6.7 -1.3,9 0,6.3 2.1,12.5 6.3,18.4 2.7,3.8 5.9,7.1 9.7,9.9 2,-0.1 3.7,-0.1 5.1,-0.1 0.7,0 1.4,0 1.9,0 1.3,-0.1 2.1,-0.1 2.3,-0.1 0.6,0 1.2,-0.1 1.9,-0.1 m -4.3,-38 c 0,0.1 0,0.1 0,0.2 m 10.6,3.1 c 0.4,0.4 0.8,0.8 1.3,1.2 0.5,0.5 1,0.9 1.4,1.3 1.4,1.3 2.5,1.9 3.3,1.9 0.3,0 0.6,-0.1 1,-0.3 0.2,-0.1 0.3,-0.2 0.5,-0.3 0,0 0.1,-0.1 0.1,-0.1 -1,-1.5 -2.1,-2.7 -3.1,-3.4 m -6.7,1.6 c -0.7,-0.6 -1.4,-1.3 -2.2,-2.1 -0.5,-0.6 -0.9,-1 -1.4,-1.5 M 593,712 c 1,1.4 2.3,2.1 4,2.1 0.6,0 1.3,-0.1 2,-0.4 0.3,-0.2 0.6,-0.3 0.8,-0.5 1.1,0.8 2.2,1.3 3.2,1.3 0.5,0 1.1,-0.2 1.7,-0.6 m -12.2,-1.8 c 2,2.5 4.5,4.5 7.5,6 3.6,1.8 8.8,3.2 15.5,4.3 2.6,0.4 6.3,1.1 11.2,2 -6.9,-2.2 -12.8,-5.2 -17.7,-8.9 m 4.4,-9 c 0,-0.1 0.1,-0.1 0.1,-0.1 0.1,-0.1 0.1,-0.3 0.2,-0.4 m -1.1,6.4 c 0,0.1 0,0.2 0,0.3 0,0.8 -0.3,1.4 -1,1.9 -0.2,0.2 -0.5,0.3 -0.8,0.5 -0.4,0.1 -0.8,0.2 -1.2,0.3 -0.1,0 -0.1,0 -0.2,0 m 2.7,-4.5 c 0.1,0.1 0.1,0.3 0.3,0.5 0.1,0.4 0.2,0.7 0.3,1 0.5,0.4 1.1,0.8 1.7,1.3 2.7,2 5.1,3.5 7,4.5 6,3.3 13.2,5.2 21.5,5.7 m -33.3,-8.6 v 0 m -29.1,-8.4 c 0.5,3.8 1.9,7.5 4.3,11.2 2.3,3.6 5.6,7.3 9.9,11.1 5.4,4.8 9.3,7.8 11.7,9 3,1.5 8.1,3.3 15.3,5.2 1,-0.9 2.5,-1.7 4.4,-2.5 1.8,-0.8 3.7,-1.4 5.6,-1.7 1.6,-0.2 3.7,-0.3 6.4,-0.3 2.4,0 4.6,0.2 6.7,0.6 2,0.4 3.7,1 5.3,1.8 4.3,2.1 6.4,5.3 6.4,9.6 0,0.7 0,1.4 -0.1,2 -0.5,4.5 -2.9,8 -7.1,10.5 4.1,-0.5 7.5,-1.8 10.1,-4.1 1.8,-1.6 3.3,-3.8 4.6,-6.5 1.2,-2.6 2.1,-5.8 2.8,-9.4 m -71.7,-22.6 c 5.9,3.9 12,6.5 18.1,7.8 3.7,0.8 10,2 18.9,3.5 1.5,0.3 4.7,0.5 9.6,0.7 1.1,0 2.1,0.1 3,0.2 2.3,0.3 4.1,0.8 5.3,1.6 3.7,2.4 6.1,4.3 7.2,5.8 1.3,1.8 2,4.3 2.2,7.5 m -32.7,-23.4 c 0.9,0.2 1.8,0.4 2.7,0.5 5.4,1 10.5,1.5 15.4,1.6 0.6,0 1.2,0 1.8,0 l 5.2,-0.4 m -31.1,18.1 c 1.5,-0.1 2.9,-0.1 4.3,-0.1 2,0 4.5,0.2 7.3,0.6 1.6,0.2 4.1,0.5 7.5,1 m 9.5,17.6 c -0.2,0.1 -0.5,0.3 -0.8,0.4 -0.3,0.2 -0.6,0.3 -0.9,0.5 m 8.4,-1 c 2.2,-0.7 4.4,-1.7 6.4,-3 m -40.7,-16.9 c -0.1,0.1 -0.2,0.1 -0.3,0.3 -0.2,0.2 -0.5,0.4 -0.7,0.7 -3.2,0.1 -6.7,0.3 -10.5,0.6 -0.1,0 -0.2,0 -0.3,0 -1.5,1.6 -2.8,3.9 -3.7,6.9 -1.1,3.6 -1.7,7.7 -1.7,12.3 0,0.9 0.1,1.8 0.3,2.6 m -4.4,-21.1 c -1.9,2.4 -3.3,5.2 -4.3,8.4 -0.8,2.8 -1.2,5.7 -1.2,8.8 0,1.5 0.1,2.6 0.3,3.2 0.1,0.2 0.2,0.5 0.5,0.9 m -4.2,-20.7 c -1.3,1.3 -2.4,3.5 -3.2,6.4 -0.8,2.8 -1.1,5.7 -1.1,8.7 0,1.9 0.2,3.4 0.7,4.4 0.1,0.3 0.3,0.6 0.5,0.9 m 1.2,-20.3 c -3,2.7 -4.5,7.5 -4.5,14.3 0,1.9 0.2,3.6 0.6,5 0.1,0.3 0.2,0.6 0.3,1 m 21.5,-21.6 c -1.3,1.5 -2.4,3.8 -3.3,6.9 -1,3.4 -1.5,6.6 -1.5,9.7 0,2.1 0.2,3.8 0.6,5.2 m 6.6,-22 c 0,0 -0.2,0 -0.5,0 -0.4,0 -0.7,0 -1,0 -0.3,0 -0.5,0.1 -0.6,0.1 -0.1,0 -0.2,0 -0.3,0 -0.9,0.1 -1.8,0.1 -2.5,0.3 m -33.1,1.5 c 0.5,0 1,0 1.6,0 0,0 0,0 0,0 l 7.3,-0.1 c 1,-0.1 2.1,-0.2 3.3,-0.3 0.1,0 0.1,0 0.2,0 0.1,0 0.1,0 0.2,0 m -11.1,18.9 c -0.2,-0.2 -0.3,-0.5 -0.4,-0.9 -0.1,-0.3 -0.3,-0.7 -0.3,-1.1 -0.3,-1.3 -0.5,-2.7 -0.5,-4.3 0,-6.6 1.8,-10.5 5.4,-11.7 0.8,-0.3 1.9,-0.5 3.3,-0.7 m 3.2,-0.1 c -2,1.1 -3.5,2.6 -4.4,4.6 -1,2 -1.5,4.7 -1.5,8 0,2.5 0.3,4.3 0.8,5.4 0.3,0.6 0.8,1.2 1.4,1.7 m -6.9,-19.3 c -1.4,0.8 -2.5,2.3 -3.2,4.8 -0.6,2 -1,4.2 -1,6.6 0,1.7 0.1,3 0.3,4 m -38.7,1.3 v 0 c 0.1,0 0.5,0 1.3,0 0.3,0 0.9,-0.1 1.8,-0.3 0.9,-0.2 1.7,-0.3 2.2,-0.3 m 131.4,-7.4 c 0.8,-0.9 1.4,-1.8 2,-2.8 0.6,-1 1.1,-2 1.5,-3"
   style="stroke:#000000;stroke-opacity:1" />&#10;		</g>&#10;		<g
   id="g94"
   style="stroke:#000000;stroke-opacity:1">&#10;			&#10;				<radialGradient
   id="Layer1_4_3_STROKES_1_"
   cx="131.0609"
   cy="1111.0664"
   r="43.487499"
   gradientTransform="matrix(1,0,0,-0.9437,445.25,1740.5359)"
   gradientUnits="userSpaceOnUse">&#10;				<stop
   offset="0"
   style="stop-color:#FFFFFF"
   id="stop93" />&#10;				<stop
   offset="1"
   style="stop-color:#9BF0F3"
   id="stop94" />&#10;			</radialGradient>&#10;			<path
   id="Layer1_4_3_STROKES_2_"
   class="st22"
   d="m 572,697 c -0.9,0.4 -1.8,1 -2.7,1.8 -0.9,0.7 -1.7,1.6 -2.4,2.7 -1.3,1.8 -2.8,4 -4.6,6.8 -3.3,4 -5.7,6.8 -7.1,8.6 -1.5,1.8 -2.2,4 -2.3,6.7 -0.1,0 -0.1,0 -0.2,0 -1.2,0 -2.6,-0.3 -4.1,-1 -0.3,-0.1 -0.6,-0.3 -0.8,-0.4 0.2,-2.7 1.4,-5.3 3.7,-7.6 3.1,-2.6 5.2,-4.7 6.4,-6.2 0.1,-0.2 0.3,-0.4 0.5,-0.5 -1.5,1.2 -3,1.8 -4.6,1.8 -0.6,0 -1.1,-0.1 -1.5,-0.4 -0.5,-0.3 -0.7,-0.7 -0.7,-1.2 0,-1.4 1.3,-3.1 4,-5.1 1,-2 1.6,-3.2 1.8,-3.5 1,-1.3 2.7,-2.3 5.1,-2.8 0.8,-0.2 1.6,-0.3 2.5,-0.4 0.7,-0.1 1.4,-0.1 2.2,-0.1 0.6,-0.2 1.1,-0.5 1.8,-0.8 1.1,-0.6 2,-1.2 2.7,-1.8 0.8,-0.9 1.3,-1.5 1.7,-1.9 0.6,-0.7 1.3,-1 2,-1 0.5,0 1.3,0.3 2.4,0.8 0.1,0.1 0.3,0.1 0.4,0.2 m -19.1,12.1 c -0.5,0.2 -0.9,0.3 -1.3,0.3 -0.3,0 -0.5,-0.2 -0.5,-0.5 0,-0.3 0.1,-0.6 0.4,-0.9 0,0 0.4,-0.4 1,-1 m 4.2,-3.4 c -2.5,1.3 -4.7,2.5 -6.5,3.8 -0.3,0.2 -0.5,0.4 -0.8,0.5 m 3.5,1.2 c 1.1,-1.7 2.2,-3 3.3,-3.8 1.1,-0.9 2.5,-1.6 4.2,-2.1 0.8,-0.6 1.8,-1 2.8,-1.3 0.8,-0.2 1.9,-0.4 3.3,-0.6 m 0.1,-0.3 c -1,0.2 -2.2,0.3 -3.7,0.3 -0.7,0 -1.3,0 -2,0 m -8.7,11.7 c 0.5,-0.4 0.9,-0.8 1.4,-1.3 2.1,-2.6 3.8,-4.4 4.9,-5.4 0.1,-0.1 0.3,-0.3 0.4,-0.3 1.8,-1.6 3.3,-2.6 4.4,-3.1 0.7,-0.3 1.5,-0.4 2.5,-0.5 m -5.4,0.9 c -0.4,0.3 -0.8,0.6 -1.1,1 -2.7,2.6 -4.8,4.3 -6.3,4.9"
   style="stroke:#000000;stroke-opacity:1" />&#10;		</g>&#10;	</g>&#10;	<g
   transform="translate(-4.35,6.1)"
   id="g100"
   style="stroke:#000000;stroke-opacity:1">&#10;		<g
   id="g97"
   style="display:none;stroke:#000000;stroke-opacity:1">&#10;			<g
   id="Layer1_5_FILL_2_"
   style="stroke:#000000;stroke-opacity:1">&#10;				&#10;					<radialGradient
   id="SVGID_13_"
   cx="131.0609"
   cy="1125.0852"
   r="36.387501"
   gradientTransform="matrix(1,0,0,-1,528.65,1738.5)"
   gradientUnits="userSpaceOnUse">&#10;					<stop
   offset="0"
   style="stop-color:#75B2D1"
   id="stop95" />&#10;					<stop
   offset="0.651"
   style="stop-color:#393F73"
   id="stop96" />&#10;					<stop
   offset="1"
   style="stop-color:#0D1115"
   id="stop97" />&#10;				</radialGradient>&#10;				<path
   class="st23"
   d="m 652.1,568.4 c -0.2,0.5 -0.4,1 -0.6,1.5 -0.7,1.6 -1.3,3.3 -2,5 -2,5.5 -3.8,11.6 -5.7,18.3 -1.9,7.3 -3.1,12.7 -3.5,16.2 0,0.6 -0.1,1.1 -0.1,1.6 0,-0.5 0.1,-1 0.1,-1.6 -1.9,0.2 -4.2,0.5 -6.8,0.8 -4.6,0.7 -8.6,1.5 -11.8,2.4 -3.2,0.9 -6.7,1.3 -10.4,1.5 -2.1,0.1 -4.5,0.2 -7.1,0.5 -0.2,0 -0.5,0.1 -0.7,0.1 -0.6,0.1 -1.3,0.1 -1.9,0.2 -0.3,0 -0.6,0.1 -0.9,0.1 -4.5,0.9 -7,3.2 -7.8,6.9 0,0.1 0,0.2 0,0.3 -0.1,0.2 -0.1,0.5 -0.1,0.7 0,2.9 1.5,5.2 4.6,6.9 2.7,1.5 5.9,2.2 9.7,2.2 6.4,0 12.3,-1 17.8,-3.1 2.9,-1.1 5.9,-2.4 9.1,-4.1 0.6,-0.2 4.1,-1.5 10.5,-3.9 4.7,-2 7.6,-3.6 8.7,-4.8 0.5,-0.3 0.9,-0.8 1,-1.3 0.6,-3.8 1.3,-8.1 2.1,-12.8 2,-11.9 3,-20.5 3,-25.8 0,-3.3 -0.1,-5.5 -0.3,-6.6 -0.5,-2.3 -1.6,-3.4 -3.3,-3.4 -1.3,0 -2.3,0.5 -3.2,1.5 -0.1,0.3 -0.3,0.5 -0.4,0.7 z"
   id="path97"
   style="fill:url(#SVGID_13_);stroke:#000000;stroke-opacity:1" />&#10;			</g>&#10;		</g>&#10;		<g
   id="g99"
   style="display:inline;stroke:#000000;stroke-opacity:1">&#10;			&#10;				<radialGradient
   id="Layer1_5_1_STROKES_1_"
   cx="131.0609"
   cy="1122.9738"
   r="40.674999"
   gradientTransform="matrix(1,0,0,-0.9911,521.15,1708.0304)"
   gradientUnits="userSpaceOnUse">&#10;				<stop
   offset="0"
   style="stop-color:#FFFFFF"
   id="stop98" />&#10;				<stop
   offset="1"
   style="stop-color:#9BF0F3"
   id="stop99" />&#10;			</radialGradient>&#10;			<path
   id="Layer1_5_1_STROKES_2_"
   class="st24"
   d="m 655.87449,607.02986 c -0.8,4.7 -0.97449,3.87014 -1.57449,7.77014 -0.2,0.5 -0.5,1 -1,1.3 -1.1,1.3 -4,2.9 -8.7,4.8 -6.4,2.4 -9.9,3.7 -10.5,3.9 -3.2,1.7 -9.9159,4.38019 -12.8159,5.48019 m -17.65975,-15.49251 c 2.6,-0.3 5.67565,-0.58768 7.77565,-0.68768 3.7,-0.1 7.2,-0.6 10.4,-1.5 3.2,-0.9 7.2,-1.7 11.8,-2.4 2.6,-0.4 4.8,-0.7 6.8,-0.8 0.4,-3.5 0.29884,-4.39565 2.29884,-11.69565 M 640.4,609.4 c -0.1,0.6 -0.1,1.1 -0.1,1.6"
   style="stroke:#000000;stroke-opacity:1"
   sodipodi:nodetypes="ccccccccsccccc" />&#10;		</g>&#10;	</g>&#10;	<g
   transform="translate(-4.35,6.1)"
   id="g105"
   style="display:inline;stroke:#000000;stroke-opacity:1">&#10;		<g
   id="g103"
   style="display:none;stroke:#000000;stroke-opacity:1">&#10;			<g
   id="Layer1_6_FILL_2_"
   style="stroke:#000000;stroke-opacity:1">&#10;				&#10;					<radialGradient
   id="SVGID_14_"
   cx="131.0609"
   cy="1125.0852"
   r="37.5625"
   gradientTransform="matrix(1,0,0,-1,572.65,1778.9)"
   gradientUnits="userSpaceOnUse">&#10;					<stop
   offset="0"
   style="stop-color:#275CD0"
   id="stop100" />&#10;					<stop
   offset="0.651"
   style="stop-color:#4EF3F7"
   id="stop101" />&#10;					<stop
   offset="0.9608"
   style="stop-color:#205CE0"
   id="stop102" />&#10;					<stop
   offset="1"
   style="stop-color:#205CE0"
   id="stop103" />&#10;				</radialGradient>&#10;				<path
   class="st25"
   d="m 708.2,633.2 c 2.7,-2.7 3.8,-4.5 3.1,-5.5 -0.3,-0.4 -0.9,-0.6 -1.8,-0.5 -1.1,0.1 -2.5,0.5 -4.5,1.3 -3.6,1.4 -7.6,3.6 -12.1,6.6 -4.4,2.9 -8,5.7 -10.7,8.4 0,0 0,0.1 0,0.1 -1.5,1.4 -2.5,2.6 -3,3.6 -0.1,0.4 -0.2,0.7 -0.4,1 0,0.3 0,0.6 0.2,0.9 0.1,0.1 0.2,0.1 0.3,0.2 0.8,0.6 2.8,0.3 6.1,-1 3.5,-1.4 7.5,-3.6 12,-6.5 4.4,-3.1 8,-5.9 10.8,-8.6 z"
   id="path103"
   style="fill:url(#SVGID_14_);stroke:#000000;stroke-opacity:1" />&#10;			</g>&#10;		</g>&#10;		<g
   id="g104"
   style="stroke:#000000;stroke-opacity:1">&#10;			<path
   id="Layer1_6_1_STROKES_2_"
   class="st26"
   d="m 709.6,627.2 c 0.9,-0.1 1.5,0.1 1.8,0.5 0.6,0.9 -0.4,2.7 -3.1,5.5 -2.8,2.7 -6.4,5.5 -10.9,8.5 -4.5,2.9 -8.5,5.1 -12,6.5 -3.3,1.3 -5.3,1.6 -6.1,1 -0.1,-0.1 -0.2,-0.1 -0.3,-0.2 -0.1,-0.2 -0.2,-0.5 -0.2,-0.9 0.2,-0.3 0.93812,-2.65189 1.03812,-2.95189"
   sodipodi:nodetypes="ccccccccc"
   style="stroke:#000000;stroke-opacity:1" />&#10;		</g>&#10;	</g>&#10;	&#10;	&#10;	&#10;	&#10;	&#10;	&#10;	&#10;	&#10;	&#10;	&#10;	&#10;	&#10;	&#10;	&#10;	&#10;	&#10;	&#10;	&#10;	&#10;	&#10;	&#10;	&#10;	&#10;	&#10;	&#10;	&#10;	&#10;	&#10;	&#10;	&#10;	&#10;	&#10;	&#10;	&#10;	&#10;	&#10;	&#10;	&#10;	&#10;	&#10;	&#10;	&#10;	&#10;	&#10;	&#10;	&#10;	&#10;	&#10;	&#10;	&#10;	&#10;	&#10;	&#10;	&#10;	&#10;	&#10;	&#10;	&#10;	&#10;	&#10;	&#10;	&#10;	&#10;	&#10;	&#10;	&#10;	&#10;	&#10;	&#10;	&#10;	&#10;	&#10;	&#10;	&#10;	&#10;	&#10;	&#10;	&#10;	&#10;	&#10;	&#10;	&#10;	&#10;	&#10;	&#10;	&#10;	&#10;	&#10;	&#10;	&#10;	&#10;	&#10;	&#10;	&#10;	&#10;	&#10;	&#10;	&#10;	&#10;	&#10;	&#10;	&#10;	&#10;	&#10;	&#10;	&#10;	&#10;	&#10;	&#10;	&#10;	&#10;	&#10;	&#10;	&#10;	&#10;	&#10;	&#10;	&#10;	&#10;	&#10;	&#10;	&#10;	&#10;	&#10;	&#10;	&#10;	&#10;	&#10;	&#10;	&#10;	&#10;	&#10;	&#10;	&#10;	&#10;	&#10;	&#10;	&#10;	&#10;	<g
   transform="translate(-4.35,6.1)"
   id="g531"
   style="display:inline;stroke:#000000;stroke-opacity:1">&#10;		<g
   id="g529"
   style="display:none;stroke:#000000;stroke-opacity:1">&#10;			<g
   id="Layer1_8_FILL_2_"
   style="stroke:#000000;stroke-opacity:1">&#10;				&#10;					<radialGradient
   id="SVGID_154_"
   cx="131.0609"
   cy="1125.0852"
   r="30.775"
   gradientTransform="matrix(1,0,0,-1,511.45,1682.5)"
   gradientUnits="userSpaceOnUse">&#10;					<stop
   offset="0"
   style="stop-color:#275CD0"
   id="stop522" />&#10;					<stop
   offset="0.651"
   style="stop-color:#4EF3F7"
   id="stop523" />&#10;					<stop
   offset="0.9608"
   style="stop-color:#205CE0"
   id="stop524" />&#10;					<stop
   offset="1"
   style="stop-color:#205CE0"
   id="stop525" />&#10;				</radialGradient>&#10;				<path
   class="st166"
   d="m 639.2,553.2 c -5.2,3.4 -9.3,7 -12,10.6 -2.9,3.6 -3.8,6.3 -2.7,7.9 0.9,1.4 3.1,2.3 6.8,2.9 0.2,-1.3 1,-3 2.6,-5 2.4,-3.1 5.9,-6.1 10.3,-9 4.4,-2.9 8.6,-4.9 12.5,-5.9 2.3,-0.6 4.1,-0.8 5.4,-0.4 0.9,-3.6 1,-6.1 0.1,-7.4 -1.1,-1.7 -3.9,-1.9 -8.3,-0.7 -4.6,1.3 -9.5,3.6 -14.7,7 z"
   id="path525"
   style="fill:url(#SVGID_154_);stroke:#000000;stroke-opacity:1" />&#10;				&#10;					<radialGradient
   id="SVGID_155_"
   cx="27.6409"
   cy="1592.9525"
   r="43.787399"
   gradientTransform="matrix(-0.8353,0.5498,0.6272,0.9526,-313.466,-944.8518)"
   gradientUnits="userSpaceOnUse">&#10;					<stop
   offset="0"
   style="stop-color:#275CD0"
   id="stop526" />&#10;					<stop
   offset="0.651"
   style="stop-color:#4EF3F7"
   id="stop527" />&#10;					<stop
   offset="0.9608"
   style="stop-color:#205CE0"
   id="stop528" />&#10;					<stop
   offset="1"
   style="stop-color:#205CE0"
   id="stop529" />&#10;				</radialGradient>&#10;				<path
   class="st167"
   d="m 686.9,612.7 c -4.4,-6.6 -6.2,-13.5 -5.6,-20.6 0,-0.1 0,-0.2 0,-0.3 0,-0.2 0,-0.4 0,-0.6 0.1,-0.5 0.2,-1 0.3,-1.5 0.8,-6.5 -0.8,-12.7 -4.6,-18.4 -3.8,-5.8 -8.8,-9.5 -15,-11.2 -0.6,-0.2 -1.3,-0.4 -2,-0.5 0.3,-0.5 0.5,-1.1 0.7,-1.6 0.5,-1.4 0.9,-2.6 1.2,-3.7 -1.3,-0.3 -3.1,-0.2 -5.4,0.4 -3.9,1 -8,3 -12.5,5.9 -4.4,2.9 -7.9,6 -10.3,9 -1.6,2 -2.5,3.6 -2.6,5 0.9,0.1 1.8,0.3 2.7,0.3 1,0.1 1.9,0.1 2.9,0.1 -0.1,0.6 -0.2,1.3 -0.3,1.9 -0.9,6.3 0.6,12.4 4.4,18.2 3.7,5.6 8.5,9.3 14.5,11.3 0.7,0.2 1.4,0.4 2.1,0.5 0.2,0.1 0.5,0.2 0.8,0.3 6.8,2.3 12.3,6.7 16.7,13.4 4.4,6.6 6.2,13.5 5.6,20.5 -0.1,0.9 -0.2,1.9 -0.4,2.8 -0.2,1.1 -0.5,2.2 -0.8,3.3 0.5,-1 1.5,-2.2 3,-3.6 0,0 0.1,-0.1 0,-0.1 2.7,-2.7 6.3,-5.5 10.7,-8.4 4.5,-3 8.5,-5.2 12.1,-6.6 1.9,-0.8 3.4,-1.2 4.5,-1.3 -1.1,-0.1 -2.2,-0.3 -3.3,-0.5 -0.9,-0.2 -1.8,-0.4 -2.7,-0.7 -6.8,-2.3 -12.4,-6.7 -16.7,-13.3 z"
   id="path529"
   style="fill:url(#SVGID_155_);stroke:#000000;stroke-opacity:1" />&#10;			</g>&#10;		</g>&#10;		<g
   id="g530"
   style="stroke:#000000;stroke-opacity:1">&#10;			<path
   id="Layer1_8_1_STROKES_2_"
   class="st26"
   d="m 662,554.3 c -0.3,1.1 -0.7,2.3 -1.2,3.7 -0.2,0.5 -0.4,1.1 -0.7,1.6 0.7,0.1 1.4,0.3 2,0.5 6.2,1.7 11.2,5.4 15,11.2 3.8,5.8 5.3,11.9 4.6,18.4 l -0.3,1.5 v 0.6 0.3 c -0.6,7.1 1.2,14 5.6,20.6 4.4,6.6 9.9,11 16.7,13.3 0.9,0.3 1.8,0.5 2.7,0.7 1.1,0.3 2.2,0.5 3.3,0.5 -1.1,0.1 -2.5,0.5 -4.5,1.3 -3.6,1.4 -7.82522,3.37478 -12.32522,6.37478 -1.0405,0.59152 -1.80651,1.32703 -2.89245,1.96253 m -10.32074,-6.09732 C 679.43579,627.95666 677.26043,623.64666 675,620.6 c -4.4,-6.6 -9.9,-11.1 -16.7,-13.4 -0.3,-0.1 -0.5,-0.2 -0.8,-0.3 l -1.5,-0.3 c -0.2,-0.1 -0.4,-0.1 -0.7,-0.2 -6,-1.9 -10.8,-5.7 -14.5,-11.3 -3.8,-5.8 -5.3,-11.9 -4.4,-18.2 0.1,-0.7 0.2,-1.3 0.3,-1.9 -0.9,0 -1.9,0 -2.9,-0.1 l -2.7,-0.3 c -3.6,-0.6 -5.9,-1.5 -6.8,-2.9 -1.1,-1.7 -0.2,-4.3 2.7,-7.9 2.8,-3.6 6.8,-7.2 12,-10.6 5.2,-3.4 10.1,-5.8 14.6,-7 4.4,-1.2 7.2,-1 8.3,0.7 1,1.4 1,3.8 0.1,7.4 -1.3,-0.3 -3.1,-0.2 -5.4,0.4 -3.9,1 -8,3 -12.5,5.9 -4.4,2.9 -7.9,6 -10.3,9 -1.6,2 -2.5,3.6 -2.6,5 m 24.1,31.9 c 0.7,0.2 1.4,0.4 2.1,0.5"
   sodipodi:nodetypes="ccccsccccscccccccccccccscccccscccccsccc"
   style="stroke:#000000;stroke-opacity:1" />&#10;		</g>&#10;	</g>&#10;	<g
   transform="translate(-4.35,6.1)"
   id="g543"
   style="stroke:#000000;stroke-opacity:1">&#10;		<g
   id="g540"
   style="display:none;stroke:#000000;stroke-opacity:1">&#10;			<g
   id="Layer1_9_FILL_2_"
   style="stroke:#000000;stroke-opacity:1">&#10;				&#10;					<radialGradient
   id="SVGID_156_"
   cx="131.0609"
   cy="1125.0852"
   r="36.387501"
   gradientTransform="matrix(1,0,0,-1,528.65,1738.5)"
   gradientUnits="userSpaceOnUse">&#10;					<stop
   offset="0"
   style="stop-color:#75B2D1"
   id="stop531" />&#10;					<stop
   offset="0.651"
   style="stop-color:#393F73"
   id="stop532" />&#10;					<stop
   offset="1"
   style="stop-color:#0A0D10"
   id="stop533" />&#10;				</radialGradient>&#10;				<path
   class="st168"
   d="m 604.2,616.5 c -3.4,-2.7 -6.3,-4 -8.8,-3.9 -1.1,0 -2.2,0.2 -3.4,0.6 -0.9,0.3 -1.8,0.6 -2.8,1.1 -0.2,0.1 -0.5,0.2 -0.6,0.4 -1.4,1.1 -2.6,2.7 -3.7,4.8 -1.6,3.2 -2.3,6.9 -2.2,10.9 0.1,4 1.3,8 3.6,11.8 2.2,3.8 4.9,5.9 8,6 3.1,0.1 5.3,-1.3 6.7,-4.3 0.7,-1.6 1.2,-3.5 1.4,-5.8 -3.5,-2.2 -6.6,-4.2 -9.1,-6.2 2.6,2 5.6,4 9.1,6.2 3.4,2.1 7.2,4.3 11.5,6.6 9.7,5.2 17.2,8.5 22.3,9.9 0.1,0 0.2,-0.1 0.3,-0.1 3.5,-0.8 8.9,-2.7 16.2,-5.8 4,-1.7 7.5,-3.2 10.5,-4.5 -0.8,-0.5 -1.4,-1.1 -2,-2 -1.1,-1.7 -1.5,-3.6 -1.3,-6 0,-0.6 0.1,-1.2 0.2,-1.6 -3,0.6 -6.3,1.4 -9.9,2.2 -6.1,1.4 -11.3,2.5 -15.8,3.1 -0.4,0 -0.7,0.1 -1.1,0.1 0.4,-0.1 0.7,-0.1 1.1,-0.1 -7.4,-5.1 -11.7,-8.1 -12.8,-8.9 -3,-2.2 -6.2,-4.6 -9.3,-7.2 -3.5,-3.4 -6.2,-5.8 -8.1,-7.3 z"
   id="path533"
   style="fill:url(#SVGID_156_);stroke:#000000;stroke-opacity:1" />&#10;				&#10;					<radialGradient
   id="SVGID_157_"
   cx="27.5266"
   cy="1592.9227"
   r="12.7618"
   gradientTransform="matrix(-0.8355,0.5495,0.6269,0.953,-314.2458,-898.2267)"
   gradientUnits="userSpaceOnUse">&#10;					<stop
   offset="0"
   style="stop-color:#275CD0"
   id="stop534" />&#10;					<stop
   offset="0.651"
   style="stop-color:#4EF3F7"
   id="stop535" />&#10;					<stop
   offset="0.9608"
   style="stop-color:#205CE0"
   id="stop536" />&#10;					<stop
   offset="1"
   style="stop-color:#205CE0"
   id="stop537" />&#10;				</radialGradient>&#10;				<path
   class="st169"
   d="m 668.4,642.1 c -0.4,0.1 -0.8,0.3 -1.2,0.5 0.1,0.1 0.2,0.3 0.3,0.4 -0.1,-0.1 -0.3,-0.3 -0.3,-0.4 -0.5,-0.7 -0.9,-1.6 -1.4,-2.6 -0.8,-1.9 -1.3,-3.7 -1.3,-5.3 0,-0.4 0,-0.7 0.1,-1 0.1,0 0.1,0 0.2,0 0.2,0 0.5,-0.1 0.7,-0.1 -0.1,-0.4 -0.3,-0.8 -0.5,-1 -0.4,-0.6 -1,-0.9 -1.7,-0.9 -1.3,0 -2.2,0.5 -2.8,1.6 -0.2,0.3 -0.3,0.8 -0.4,1.5 -0.1,0.5 -0.2,1 -0.2,1.6 -0.2,2.3 0.3,4.3 1.3,6 0.6,0.9 1.2,1.6 2,2 0.7,0.4 1.6,0.7 2.5,0.7 1.1,0 1.9,-0.4 2.3,-1.3 0.1,-0.3 0.2,-0.7 0.3,-1.1 0,-0.4 0,-0.5 0.1,-0.6 z"
   id="path537"
   style="fill:url(#SVGID_157_);stroke:#000000;stroke-opacity:1" />&#10;				&#10;					<radialGradient
   id="SVGID_158_"
   cx="131.0609"
   cy="1125.0852"
   r="36.387501"
   gradientTransform="matrix(1,0,0,-1,528.65,1738.5)"
   gradientUnits="userSpaceOnUse">&#10;					<stop
   offset="0"
   style="stop-color:#75B2D1"
   id="stop538" />&#10;					<stop
   offset="0.651"
   style="stop-color:#393F73"
   id="stop539" />&#10;					<stop
   offset="1"
   style="stop-color:#1C2431"
   id="stop540" />&#10;				</radialGradient>&#10;				<path
   class="st170"
   d="m 690.2,643.6 c -0.5,-0.2 -1,-0.5 -1.7,-0.8 -2.2,-1.1 -3.8,-1.8 -4.7,-2.3 0.9,0.4 2.5,1.2 4.7,2.3 0.6,0.4 1.2,0.6 1.7,0.8 0.9,0.4 1.6,0.7 2.1,0.8 0.3,0.1 0.5,0.1 0.7,0.1 l 0.7,-0.1 h 0.1 v 0 c 0,-0.1 -0.1,-0.3 -0.2,-0.3 -0.1,-0.1 -0.1,-0.3 -0.3,-0.5 -0.5,-0.8 -1.4,-1.7 -2.6,-2.6 -1.7,-1.2 -3.7,-2.2 -5.8,-3 2.1,0.8 4,1.8 5.8,3 1.3,0.9 2.2,1.8 2.6,2.6 0.1,0.2 0.2,0.3 0.3,0.5 0.4,0 0.7,-0.2 0.8,-0.4 0,0 0,-0.1 0,-0.1 0,-0.1 0.1,-0.2 0.1,-0.5 0,-2.1 -2.2,-4.7 -6.6,-7.8 -3.4,-2.5 -6.2,-4 -8.2,-4.4 -0.5,-0.1 -0.9,-0.1 -1.3,-0.1 0.4,0 0.8,0 1.3,0.1 -0.1,-0.3 -0.2,-0.6 -0.3,-1 -1.8,-0.2 -2.9,-0.3 -3.1,-0.3 -1.9,0 -3.8,0.4 -5.7,1.2 -0.1,0 -0.1,0 -0.2,0 -1,0.5 -2.6,1.3 -4.8,2.5 -0.2,0 -0.5,0.1 -0.7,0.1 -0.1,0 -0.1,0 -0.2,0 -0.1,0.3 -0.1,0.7 -0.1,1 0,1.6 0.4,3.4 1.3,5.3 0.5,1 0.9,1.9 1.4,2.6 0.4,-0.2 0.8,-0.4 1.2,-0.5 0.4,-0.2 0.8,-0.4 1.3,-0.6 h 1.5 c 0.2,0.1 2,0.8 5.6,2.1 0.5,0.2 0.9,0.4 1.5,0.5 0.6,0.2 1.2,0.5 1.8,0.7 2.7,0.9 4.8,1.4 6.3,1.4 1.1,0 2.1,-0.3 3,-1 -1.2,-0.2 -3.1,-0.7 -5.7,-1.5 -0.7,-0.2 -1.6,-0.5 -2.5,-0.8 0.9,0.3 1.7,0.6 2.5,0.8 2.6,0.8 4.5,1.3 5.7,1.5 0.5,0.1 0.8,0.2 1,0.2 0.9,0 1.6,-0.3 2,-0.9 -0.8,0.1 -1.5,-0.2 -2.3,-0.6 z"
   id="path540"
   style="fill:url(#SVGID_158_);stroke:#000000;stroke-opacity:1" />&#10;			</g>&#10;		</g>&#10;		<g
   id="g542"
   style="display:inline;stroke:#000000;stroke-opacity:1">&#10;			&#10;				<radialGradient
   id="Layer1_9_1_STROKES_1_"
   cx="131.0609"
   cy="1109.7622"
   r="90.599998"
   gradientTransform="matrix(1,0,0,-0.9387,548.85,1677.3949)"
   gradientUnits="userSpaceOnUse">&#10;				<stop
   offset="0"
   style="stop-color:#FFFFFF"
   id="stop541" />&#10;				<stop
   offset="1"
   style="stop-color:#9BF0F3"
   id="stop542" />&#10;			</radialGradient>&#10;			<path
   id="Layer1_9_1_STROKES_2_"
   class="st171"
   d="m 692.3,644.4 c -0.5,-0.1 -1.2,-0.4 -2.1,-0.8 -0.5,-0.2 -1,-0.5 -1.7,-0.8 -2.2,-1.1 -3.8,-1.8 -4.7,-2.3 m 5.5,4.7 c 0.4,0.1 0.8,0.1 1,0.1 0.9,0 1.6,-0.3 2,-0.9 0.3,0.1 0.5,0.1 0.7,0.1 l 0.7,-0.1 h 0.1 v 0 c 0,-0.1 -0.1,-0.3 -0.2,-0.3 -0.1,-0.1 -0.1,-0.3 -0.3,-0.5 -0.5,-0.8 -1.4,-1.7 -2.6,-2.6 -1.7,-1.2 -3.7,-2.2 -5.8,-3 m -19.4,-4.5 c 2.2,-1.2 3.8,-2.1 4.8,-2.5 0.1,0 0.1,0 0.2,-0.1 1.8,-0.8 3.7,-1.2 5.7,-1.2 0.3,0 1.4,0.1 3.2,0.3 0.1,0.3 0.2,0.6 0.3,1 2,0.4 4.8,1.9 8.2,4.4 4.4,3.2 6.6,5.8 6.6,7.8 v 0.5 0.1 c -0.1,0.2 -0.4,0.3 -0.8,0.4 m -15.4,-13.4 c 0.4,0 0.8,0 1.3,0.1 m -11.2,11.2 c 0.4,-0.2 0.8,-0.4 1.3,-0.6 h 1.5 c 0.2,0.1 2,0.8 5.6,2.1 0.5,0.2 0.9,0.4 1.5,0.5 0.6,0.2 1.2,0.5 1.8,0.7 2.7,0.9 4.8,1.4 6.3,1.4 1.1,0 2.1,-0.3 3.1,-1 -1.2,-0.2 -3.1,-0.8 -5.7,-1.6 -0.8,-0.2 -1.6,-0.5 -2.5,-0.8 M 613.98636,625.23945 C 615.54074,626.3 618.8,628.7 621.8,630.9 c 1.1,0.8 5.4,3.8 12.8,8.9 4.4,-0.6 9.7,-1.6 15.8,-3.1 3.6,-0.8 6.9,-1.6 9.9,-2.2 0.1,-0.7 0.2,-1.2 0.4,-1.5 0.5,-1 1.5,-1.6 2.8,-1.6 0.7,0 1.3,0.3 1.7,0.9 0,0.4 0.2,0.7 0.3,1.2 -0.2,0 -0.4,0.1 -0.7,0.1 h -0.2 c -0.1,0.3 -0.1,0.7 -0.1,1 0,1.6 0.4,3.4 1.3,5.3 0.5,1 0.9,1.9 1.4,2.6 0.4,-0.2 0.8,-0.4 1.2,-0.5 v 0.4 c 0,0.4 -0.1,0.8 -0.3,1.1 -0.4,0.8 -1.1,1.3 -2.3,1.3 -0.9,0 -1.8,-0.2 -2.5,-0.7 -3,1.3 -6.5,2.8 -10.5,4.5 -7.2,3.1 -12.6,5 -16.2,5.8 -0.1,0 -0.2,0 -0.3,0.1 -5.1,-1.4 -12.6,-4.7 -22.3,-9.9 -4.3,-2.3 -8.1,-4.5 -11.5,-6.6 -0.3,2.3 -0.8,4.2 -1.4,5.8 -1.4,3 -3.6,4.5 -6.7,4.3 -3.1,-0.2 -5.8,-2.2 -8,-6 -2.3,-3.9 -3.5,-7.8 -3.6,-11.8 -0.2,-4 0.5,-7.7 2.2,-10.9 1,-2.1 2.3,-3.7 3.7,-4.8 0.2,-0.1 0.4,-0.3 0.6,-0.4 0.9,-0.5 1.9,-0.8 2.8,-1.1 1.2,-0.4 2.3,-0.6 3.4,-0.6 2.5,-0.1 3.75438,-0.074 7.47289,2.41364 M 667.5,643 c -0.1,-0.1 -0.3,-0.3 -0.3,-0.4 m -7,-8 c -0.1,0.5 -0.2,1 -0.2,1.6 -0.2,2.3 0.3,4.3 1.3,6 0.6,0.9 1.2,1.6 2,2 M 633.4,640 c 0.4,-0.1 0.7,-0.1 1.1,-0.1 m -41.1,-8 c 2.6,2 5.6,4 9.1,6.2"
   style="stroke:#000000;stroke-opacity:1"
   sodipodi:nodetypes="cccccsccccscccccccscccsccccccccccsscccccccccsccscscccscscccccccscccccscccccccccccc" />&#10;		</g>&#10;	</g>&#10;	<g
   transform="translate(-4.35,6.1)"
   id="g545"
   style="stroke:#000000;stroke-opacity:1">&#10;		<g
   id="g544"
   style="display:inline;stroke:#000000;stroke-opacity:1">&#10;			&#10;				<radialGradient
   id="Layer1_10_1_STROKES_1_"
   cx="131.0609"
   cy="916.43439"
   r="108.9"
   gradientTransform="matrix(1,0,0,-0.5295,516.55,1249.5664)"
   gradientUnits="userSpaceOnUse">&#10;				<stop
   offset="0"
   style="stop-color:#FFFFFF"
   id="stop543" />&#10;				<stop
   offset="1"
   style="stop-color:#9BF0F3"
   id="stop544" />&#10;			</radialGradient>&#10;			<path
   id="Layer1_10_1_STROKES_2_"
   class="st172"
   d="m 577.4,692.6 c 0.2,-0.4 0.4,-0.8 0.6,-1.2 1.5,-2.6 2.4,-4.4 2.8,-5.5 0.4,-1.2 0.7,-4.6 0.9,-10.3 m -8.9,20.1 c 0.2,-0.7 0.5,-1.3 0.8,-1.8 0.3,-0.4 0.6,-0.6 0.9,-0.6 m -4.4,6.5 c 0,-0.6 0.3,-1.1 0.7,-1.5 0.4,-0.4 1,-0.6 1.7,-0.6 0,-0.3 0.1,-0.5 0.1,-0.8 0,-0.2 0,-0.3 0,-0.5 0,-0.1 0.1,-0.3 0.1,-0.4"
   style="stroke:#000000;stroke-opacity:1" />&#10;		</g>&#10;	</g>&#10;</g>&#10;</svg>
