<?xml version="1.0" encoding="UTF-8" standalone="no"?>
<!-- Generator: Adobe Illustrator 24.2.1, SVG Export Plug-In . SVG Version: 6.00 Build 0)  -->

<svg
   version="1.1"
   id="射手座"
   x="0px"
   y="0px"
   viewBox="0 0 512 512"
   xml:space="preserve"
   sodipodi:docname="射手座.svg"
   width="512"
   height="512"
   inkscape:version="1.3 (0e150ed6c4, 2023-07-21)"
   inkscape:export-filename="..\output\射手座\射手座 线条.png"
   inkscape:export-xdpi="96"
   inkscape:export-ydpi="96"
   xmlns:inkscape="http://www.inkscape.org/namespaces/inkscape"
   xmlns:sodipodi="http://sodipodi.sourceforge.net/DTD/sodipodi-0.dtd"
   xmlns="http://www.w3.org/2000/svg"
   xmlns:svg="http://www.w3.org/2000/svg"><defs
   id="defs148" /><sodipodi:namedview
   id="namedview148"
   pagecolor="#ffffff"
   bordercolor="#666666"
   borderopacity="1.0"
   inkscape:showpageshadow="2"
   inkscape:pageopacity="0.0"
   inkscape:pagecheckerboard="0"
   inkscape:deskcolor="#d1d1d1"
   inkscape:zoom="1.6298811"
   inkscape:cx="349.10521"
   inkscape:cy="209.52448"
   inkscape:window-width="1920"
   inkscape:window-height="1017"
   inkscape:window-x="1912"
   inkscape:window-y="-8"
   inkscape:window-maximized="1"
   inkscape:current-layer="射手座" />&#10;<style
   type="text/css"
   id="style1">&#10;	.st0{fill:url(#SVGID_1_);}&#10;	.st1{fill:#CCCCCC;}&#10;	.st2{fill:url(#SVGID_2_);}&#10;	.st3{fill:url(#SVGID_3_);}&#10;	.st4{fill:url(#SVGID_4_);}&#10;	.st5{fill:url(#SVGID_5_);}&#10;	.st6{fill:url(#SVGID_6_);}&#10;	.st7{fill:url(#SVGID_7_);}&#10;	.st8{fill:url(#SVGID_8_);}&#10;	.st9{fill:url(#SVGID_9_);}&#10;	.st10{fill:url(#SVGID_10_);}&#10;	.st11{fill:url(#SVGID_11_);}&#10;	.st12{fill:url(#SVGID_12_);}&#10;	.st13{fill:url(#SVGID_13_);}&#10;	.st14{fill:url(#SVGID_14_);}&#10;	.st15{fill:url(#SVGID_15_);}&#10;	.st16{fill:none;stroke:url(#SVGID_16_);stroke-linecap:round;stroke-linejoin:round;}&#10;	.st17{fill:none;stroke:url(#SVGID_17_);stroke-linecap:round;stroke-linejoin:round;}&#10;	.st18{fill:url(#SVGID_18_);}&#10;	.st19{fill:none;stroke:url(#SVGID_19_);stroke-linecap:round;stroke-linejoin:round;}&#10;	.st20{fill:url(#SVGID_20_);}&#10;	.st21{fill:url(#SVGID_21_);}&#10;	.st22{fill:url(#SVGID_22_);}&#10;	.st23{fill:url(#SVGID_23_);}&#10;	.st24{fill:url(#SVGID_24_);}&#10;	.st25{fill:none;stroke:url(#SVGID_25_);stroke-linecap:round;stroke-linejoin:round;}&#10;	.st26{fill:url(#SVGID_26_);}&#10;	.st27{fill:none;stroke:url(#SVGID_27_);stroke-linecap:round;stroke-linejoin:round;}&#10;	.st28{fill:url(#SVGID_28_);}&#10;	.st29{fill:none;stroke:#FFFFFF;stroke-linecap:round;stroke-linejoin:round;}&#10;	.st30{fill:url(#SVGID_29_);}&#10;	.st31{fill:url(#SVGID_30_);}&#10;	.st32{fill:url(#SVGID_31_);}&#10;	.st33{fill:url(#SVGID_32_);}&#10;	.st34{fill:url(#SVGID_33_);}&#10;	.st35{fill:url(#SVGID_34_);}&#10;	.st36{fill:url(#SVGID_35_);}&#10;	.st37{fill:url(#SVGID_36_);}&#10;	.st38{fill:url(#SVGID_37_);}&#10;	.st39{fill:url(#SVGID_38_);}&#10;</style>&#10;<g
   id="角色"
   transform="matrix(1.5625912,0,0,1.5625912,23.405517,-55.090104)"
   style="stroke:#000000;stroke-opacity:1">&#10;	<g
   id="身体"
   transform="translate(-230,20)"
   style="stroke:#000000;stroke-opacity:1">&#10;		<g
   id="g74"
   style="display:none;stroke:#000000;stroke-opacity:1">&#10;			<g
   id="g73"
   style="display:inline;stroke:#000000;stroke-opacity:1">&#10;				&#10;					<radialGradient
   id="SVGID_1_"
   cx="230"
   cy="382"
   r="80.212502"
   fx="230.6291"
   fy="382"
   gradientTransform="matrix(1,0,0,-1,90.75,700.9)"
   gradientUnits="userSpaceOnUse">&#10;					<stop
   offset="0"
   style="stop-color:#0464A5"
   id="stop1" />&#10;					<stop
   offset="9.803922e-02"
   style="stop-color:#054EA6"
   id="stop2" />&#10;					<stop
   offset="0.4471"
   style="stop-color:#152236"
   id="stop3" />&#10;					<stop
   offset="0.7922"
   style="stop-color:#204178"
   id="stop4" />&#10;					<stop
   offset="1"
   style="stop-color:#1C96E0"
   id="stop5" />&#10;				</radialGradient>&#10;				<path
   class="st0"
   d="m 309.1,307.5 c -0.5,-0.8 -0.7,-1.5 -0.7,-2 0,-0.4 0.1,-0.8 0.2,-1.3 l -3.9,1.4 c -0.7,0.3 -1.1,0.9 -1.3,1.8 -0.1,0.3 -0.1,0.5 -0.1,0.8 0,3.1 0.9,6.1 2.8,9 1.1,1.7 2.7,3.9 5,6.8 1.1,-1.2 2,-2.6 2.8,-4.1 0.8,-1.8 1.3,-3.5 1.3,-5.1 -0.1,-1 -0.2,-1.9 -0.4,-2.8 -0.1,0 -0.2,0 -0.3,0 -1.6,0 -3,-0.9 -4.3,-2.7 -0.3,-0.6 -0.8,-1.3 -1.1,-1.8 z"
   id="path5"
   style="fill:url(#SVGID_1_);stroke:#000000;stroke-opacity:1" />&#10;				<path
   class="st1"
   d="m 264.1,240.4 c 0.2,0.2 0.4,0.3 0.6,0.5 l 0.1,-0.3 c -0.2,0 -0.5,0 -0.7,-0.2 m 125.7,-23.8 -0.3,-0.3 c -0.1,0.1 -0.3,0.6 -0.6,1.4 0.2,-0.4 0.5,-0.7 0.9,-1.1 m 63.7,-53.2 v 0 l 0.3,0.2 c -0.1,-0.1 -0.1,-0.1 -0.1,-0.2 0,-0.1 -0.1,-0.1 -0.1,-0.1 -0.1,0 -0.1,0.1 -0.1,0.1 M 434,155.5 c 0.2,0 0.4,0 0.5,0 -0.1,-0.1 -0.1,-0.2 -0.2,-0.3 l -0.3,0.3 m -98.5,36.9 c 0.2,-0.2 0.4,-0.4 0.6,-0.6 -0.2,0.1 -0.5,0.1 -0.7,0.3 -0.1,0 -0.1,0 -0.3,0 l 0.4,0.3 m 68.3,-83.2 c 0.2,0 0.3,0 0.5,0.1 L 404,109 c -0.1,0.1 -0.1,0.1 -0.2,0.2 m -6.5,-26.1 c 0.2,0 0.4,0.1 0.6,0.2 V 83 c -0.3,0 -0.5,0 -0.6,0.1 m 4.8,4.7 v 0 c 0.1,0.1 0.2,0.2 0.4,0.3 v 0.1 -0.1 c -0.1,-0.1 -0.2,-0.2 -0.3,-0.3 0,0 -0.1,0 -0.1,0 z"
   id="path6"
   style="display:inline;stroke:#000000;stroke-opacity:1" />&#10;				&#10;					<radialGradient
   id="SVGID_2_"
   cx="230"
   cy="382"
   r="255.075"
   fx="228.99969"
   fy="382"
   gradientTransform="matrix(1,0,0,-1,107.75,580.35)"
   gradientUnits="userSpaceOnUse">&#10;					<stop
   offset="0"
   style="stop-color:#0464A5"
   id="stop6" />&#10;					<stop
   offset="9.803922e-02"
   style="stop-color:#054EA6"
   id="stop7" />&#10;					<stop
   offset="0.4471"
   style="stop-color:#152236"
   id="stop8" />&#10;					<stop
   offset="0.7922"
   style="stop-color:#204178"
   id="stop9" />&#10;					<stop
   offset="1"
   style="stop-color:#1C96E0"
   id="stop10" />&#10;				</radialGradient>&#10;				<path
   class="st2"
   d="m 346,313.3 c -0.6,-0.4 -1,-1 -1.3,-2 -0.9,0.1 -1.5,0.2 -2,0.3 -1.1,0.2 -1.7,0.9 -1.7,2 0,3.5 1.2,7 3.8,10.4 0.9,1.3 3.5,4.1 7.7,8.3 1,-1.6 1.7,-3.2 2.1,-4.8 0.3,-1.4 0.5,-3.2 0.5,-5.4 0,-2.1 -0.1,-3.7 -0.3,-4.8 v -0.1 c -1,-0.1 -2.5,-0.7 -4.6,-1.8 -1.6,-0.6 -2.9,-1.4 -4.2,-2.1 z"
   id="path10"
   style="fill:url(#SVGID_2_);stroke:#000000;stroke-opacity:1" />&#10;				&#10;					<radialGradient
   id="SVGID_3_"
   cx="230"
   cy="382"
   r="167.6375"
   fx="229.34261"
   fy="382"
   gradientTransform="matrix(1,0,0,-1,164.6,674.55)"
   gradientUnits="userSpaceOnUse">&#10;					<stop
   offset="0"
   style="stop-color:#4AE0EF"
   id="stop11" />&#10;					<stop
   offset="0.1451"
   style="stop-color:#4AE0EF"
   id="stop12" />&#10;					<stop
   offset="0.149"
   style="stop-color:#4AE0EF"
   id="stop13" />&#10;					<stop
   offset="0.4"
   style="stop-color:#054EA6"
   id="stop14" />&#10;					<stop
   offset="0.6275"
   style="stop-color:#020406"
   id="stop15" />&#10;					<stop
   offset="0.7922"
   style="stop-color:#204178"
   id="stop16" />&#10;					<stop
   offset="1"
   style="stop-color:#1C96E0"
   id="stop17" />&#10;				</radialGradient>&#10;				<path
   class="st3"
   d="m 370.5,236 c -0.6,1.5 -1.3,3.2 -2.1,5.1 -0.4,1 -0.9,1.8 -1.4,2.6 -0.8,1.3 -1.7,2.4 -2.8,3.4 -1.9,1.8 -4.7,3.2 -8.3,4.3 -3.7,1 -8.9,2.9 -15.8,5.8 -0.6,0.3 -1.2,0.5 -1.8,0.8 -0.4,0.5 -0.8,1 -1.2,1.4 -1.2,1.5 -2.6,2.7 -4,3.6 -0.7,0.5 -2.5,1.1 -5.5,1.9 -1.4,0.4 -2.1,1.6 -2.1,3.9 0,1.3 0.5,2.6 1.4,4 0.3,0.4 0.6,0.8 0.9,1.2 0.7,2.1 1.6,4.3 2.8,6.7 1,1.9 2.4,4.6 4.3,8 0.8,1.6 2.1,4 3.9,7.1 1.4,2.8 2.1,5.4 2.1,7.6 0,1.2 -0.1,2.1 -0.3,2.8 -0.1,0.3 -0.3,0.7 -0.6,1.4 -0.1,0.4 -0.3,0.8 -0.5,1.3 1.3,0.1 2.3,-0.1 3,-0.8 0.2,-0.2 0.3,-0.3 0.5,-0.4 0.4,-0.4 0.6,-0.7 0.6,-0.8 0.5,-0.8 0.8,-2.2 0.9,-4 -0.1,1.8 -0.4,3.2 -0.9,4 0,0.2 0.1,0.5 0.1,0.8 0.1,0.5 0.2,1 0.3,1.5 0.1,0.9 0.3,1.7 0.6,2.3 0.3,1 0.8,1.6 1.3,2 1.2,0.7 2.6,1.5 4.1,2.3 2.1,1 3.6,1.6 4.6,1.8 0.1,0 0.3,0 0.4,0 0.4,0 0.6,-0.4 0.6,-1 0,-0.6 -0.3,-2.8 -0.8,-6.3 -0.1,-0.9 -0.3,-1.8 -0.5,-2.5 -0.6,-2.2 -1.4,-3.8 -2.5,-5 -1.5,-1.6 -3.1,-3.6 -4.9,-6 -1.8,-2.4 -4,-7.1 -6.7,-14 -0.2,-0.5 -0.3,-0.9 -0.5,-1.4 -0.6,-1.5 -1.1,-2.9 -1.6,-4.3 -0.2,-0.9 -0.3,-1.9 -0.4,-2.9 -0.1,-1.4 1.2,-2.5 4.1,-3.5 2.8,-1 6.8,-2.2 11.8,-3.6 5,-1.4 9.3,-2.9 12.8,-4.4 0.5,-0.2 1.3,-0.5 2.3,-0.9 0.9,-0.4 1.9,-1 3,-1.9 1.1,-0.9 1.8,-2.4 2.3,-4.6 0.4,-2.2 0.8,-4.5 1.3,-6.7 0.3,-1.3 0.6,-2.8 0.9,-4.4 0.2,-1.2 0.3,-2.4 0.5,-3.8 0.1,-1.1 0.3,-2.1 0.5,-3.1 -2.3,-0.7 -4.4,-0.9 -6.7,-1.3 m 95.1,-6.2 c -2.3,-1.6 -4.2,-3 -5.6,-4.1 -2.6,-2.1 -5,-4.6 -7.3,-7.4 -1.6,1.7 -3.8,3.5 -6.5,5.4 0.2,0.3 0.4,0.6 0.5,1 1.1,1.5 2.3,3.1 3.4,4.8 0.1,0.1 0.1,0.2 0.2,0.3 1.1,1.6 2.1,3.1 3,4.5 5.4,1.6 8.6,2.6 9.5,2.9 2.5,0.8 5,1.9 7.7,3.2 0.5,0.3 1.4,0.7 2.7,1.3 1.1,0.6 1.8,1.3 2.1,1.9 0,0.1 0.1,0.2 0.1,0.3 0.8,1.6 1.7,2.7 2.7,3.3 0.6,2 0.9,4.3 0.9,6.8 0,2.2 -0.3,4.1 -1,5.7 -0.5,1.1 -1,2 -1.8,2.5 0.2,0.7 0.3,1.4 0.4,2.1 0,1.5 -0.1,2.7 -0.4,3.6 -0.3,0.8 -0.4,1.4 -0.4,1.8 0,1.2 0.4,2.8 1.2,4.5 0.4,0.9 0.6,1.8 0.8,2.5 0.4,-0.3 0.9,-0.7 1.4,-1 3.9,-3 5.8,-5 5.8,-6.2 0,-1.9 -0.2,-4 -0.7,-6.3 -0.5,-2.4 -0.7,-4.7 -0.7,-7 0,-2.4 0.3,-4.7 1,-7 0.7,-1.8 1,-2.9 1,-3.2 0,-0.7 0,-1.4 -0.1,-2.1 -0.5,-3 -2.1,-5.2 -4.8,-6.4 -2.2,-0.8 -3.9,-1.4 -5.2,-1.9 -2.3,-0.9 -4.4,-1.9 -6,-3.1 -1.4,-1.1 -2.7,-1.9 -3.9,-2.7 z"
   id="path17"
   style="fill:url(#SVGID_3_);stroke:#000000;stroke-opacity:1" />&#10;				&#10;					<radialGradient
   id="SVGID_4_"
   cx="230"
   cy="382"
   r="114.6875"
   fx="229.5502"
   fy="382"
   gradientTransform="matrix(1,0,0,-1,206.8,541.85)"
   gradientUnits="userSpaceOnUse">&#10;					<stop
   offset="0.1765"
   style="stop-color:#4FC1FF"
   id="stop18" />&#10;					<stop
   offset="0.5647"
   style="stop-color:#076AB5"
   id="stop19" />&#10;					<stop
   offset="0.7922"
   style="stop-color:#204178"
   id="stop20" />&#10;					<stop
   offset="1"
   style="stop-color:#1C96E0"
   id="stop21" />&#10;				</radialGradient>&#10;				<path
   class="st4"
   d="m 389.5,216.4 0.3,0.3 v -0.1 z"
   id="path21"
   style="fill:url(#SVGID_4_);stroke:#000000;stroke-opacity:1" />&#10;				&#10;					<radialGradient
   id="SVGID_5_"
   cx="230"
   cy="382"
   r="61.200001"
   fx="230.48"
   fy="382"
   gradientTransform="matrix(1,0,0,-1,199.3,613.2)"
   gradientUnits="userSpaceOnUse">&#10;					<stop
   offset="0"
   style="stop-color:#4AE0EF"
   id="stop22" />&#10;					<stop
   offset="9.803922e-02"
   style="stop-color:#4AE0EF"
   id="stop23" />&#10;					<stop
   offset="0.4471"
   style="stop-color:#152236"
   id="stop24" />&#10;					<stop
   offset="0.7922"
   style="stop-color:#204178"
   id="stop25" />&#10;					<stop
   offset="1"
   style="stop-color:#1C96E0"
   id="stop26" />&#10;				</radialGradient>&#10;				<path
   class="st5"
   d="m 460.8,276.7 c -0.5,-0.7 -1.4,-1 -2.9,-1.1 -1.4,-0.1 -2.6,1.6 -3.4,4.9 -0.5,2.1 -0.8,4.3 -0.8,6.8 0,0.4 0.1,1.6 0.4,3.7 4,-1.1 8.1,-2.7 12.1,-4.9 -0.6,-0.3 -1.2,-0.7 -1.9,-1.1 -2.3,-1.6 -3.3,-2.8 -3.1,-3.6 0.2,-0.7 0.7,-1.3 1.6,-1.7 -0.9,-1.3 -1.6,-2.3 -2,-3 z"
   id="path26"
   style="fill:url(#SVGID_5_);stroke:#000000;stroke-opacity:1" />&#10;				&#10;					<radialGradient
   id="SVGID_6_"
   cx="-194"
   cy="450.46619"
   r="69.349998"
   fx="-194"
   fy="443.66711"
   gradientTransform="matrix(0,-1,-2.1042,0,1381.9626,19.05)"
   gradientUnits="userSpaceOnUse">&#10;					<stop
   offset="0.1765"
   style="stop-color:#4FC1FF"
   id="stop27" />&#10;					<stop
   offset="0.3137"
   style="stop-color:#4AE0EF"
   id="stop28" />&#10;					<stop
   offset="0.5647"
   style="stop-color:#076AB5"
   id="stop29" />&#10;					<stop
   offset="0.7922"
   style="stop-color:#204178"
   id="stop30" />&#10;					<stop
   offset="1"
   style="stop-color:#1C96E0"
   id="stop31" />&#10;				</radialGradient>&#10;				<path
   class="st6"
   d="m 455.4,169.8 c -0.3,0.5 -0.9,1.1 -1.6,1.9 0,0.1 0.1,0.1 0.1,0.2 1.6,6.2 2.6,11 3.3,14.3 0.9,5 1.4,10.1 1.4,15.1 0,1.7 -0.1,3.3 -0.3,4.8 -0.3,1.9 -0.7,3.7 -1.2,5.3 1.3,-0.9 2.4,-1.9 3.5,-3.2 0.6,-0.7 1.1,-1.4 1.5,-2.1 v 0 c 1.5,-2.3 2.2,-4.6 2.2,-6.9 0,-0.9 -0.7,-3.6 -2,-8.2 -0.1,-0.2 -0.1,-0.3 -0.2,-0.4 -1.3,-4.1 -2,-6.3 -2,-6.4 -1.5,-5 -2.3,-7.7 -2.4,-8 -0.4,-1.4 -0.9,-2.8 -1.5,-4.2 -0.3,-0.8 -0.6,-1.5 -0.8,-2.2 m -18.6,-11.9 c -0.4,0.4 -0.8,0.6 -1.1,0.8 -0.8,0.4 -1.7,0.9 -2.5,1.6 0.8,0.3 1.8,1 3,2 0.4,0.3 0.7,0.6 1.1,1 1.2,1.2 2.5,2.6 4,4.4 1.3,1.6 2.5,3 3.5,4.1 2.1,2.4 3.5,3.6 4.2,3.6 0.8,0 2.2,-1 4.1,-3 0.2,-0.2 0.4,-0.4 0.6,-0.6 0,0 0.1,-0.1 0.1,-0.1 0,0 0.1,-0.1 0.1,-0.1 0.7,-0.8 1.2,-1.4 1.6,-1.9 0.3,-0.5 0.5,-0.9 0.5,-1.2 0,-1.4 -0.7,-3.1 -2.1,-5 l -0.3,-0.2 c -0.5,1.2 -1.4,2.5 -2.6,3.9 -1.8,1.9 -3.3,2.8 -4.5,2.8 -0.5,0 -1,-0.2 -1.6,-0.6 -0.7,-0.5 -1.1,-1.1 -1.1,-1.8 0,0.7 0.4,1.3 1.1,1.8 0.6,0.4 1.1,0.6 1.6,0.6 1.2,0 2.7,-0.9 4.5,-2.8 1.3,-1.3 2.2,-2.6 2.6,-3.9 v -0.1 c 0,0 0,-0.1 0,-0.1 0.2,-0.6 0.3,-1.3 0.3,-1.9 0,-2.2 -0.6,-4.1 -1.8,-5.6 -0.6,-0.8 -1.4,-1.5 -2.1,-1.9 -0.4,-0.2 -0.8,-0.4 -1.1,-0.5 0.3,1.1 0.6,2 0.9,2.8 0.1,-0.5 0.2,-1 0.3,-1.4 -0.1,0.5 -0.2,0.9 -0.3,1.4 -0.3,1 -0.9,2.1 -1.8,3.3 -1.4,2 -3,3.2 -4.6,3.6 0.1,0.1 0.3,0.3 0.4,0.4 0.6,0.5 1.3,0.7 2.2,0.7 0.7,0 1.5,-0.2 2.4,-0.7 0.3,-0.2 0.6,-0.3 0.9,-0.5 0.9,-0.6 1.5,-1.3 1.9,-1.9 -0.4,0.6 -1,1.3 -1.9,1.9 -0.3,0.2 -0.6,0.4 -0.9,0.5 -0.9,0.5 -1.7,0.7 -2.4,0.7 -0.9,0 -1.6,-0.2 -2.2,-0.7 -0.2,-0.1 -0.3,-0.3 -0.4,-0.4 -0.1,-0.1 -0.1,-0.1 -0.2,-0.2 -1,-1.4 -1.8,-2.3 -2.4,-2.7 -1.5,-0.9 -2.8,-1.6 -4,-2.1 m 14.1,14 c 0.3,-0.5 0.6,-1 0.9,-1.5 0.6,-1 1.1,-2.5 1.7,-4.3 -0.5,1.8 -1.1,3.3 -1.7,4.3 -0.3,0.5 -0.6,1 -0.9,1.5 -0.6,0.8 -1.3,1.5 -2,2.2 0.7,-0.7 1.4,-1.4 2,-2.2 M 390,194.6 c -0.5,0.5 -1,1.1 -1.5,1.6 0.3,2.6 0.7,5.2 1.1,7.8 0.1,0.8 0.3,1.5 0.4,2.2 0.2,1.5 0.3,2.9 0.3,4.2 0,2.6 -0.3,4.6 -0.8,6.1 l 0.3,0.2 c 0.9,-1.2 1.8,-2.5 2.6,-3.8 1.4,-2.4 2.6,-4.7 3.9,-6.7 1.3,-2.2 2.5,-4.1 3.6,-5.8 2.7,-4.1 5.4,-8.6 8.1,-13.4 0.1,-0.1 0.1,-0.3 0.3,-0.4 0.7,-1.3 1.9,-3.5 3.6,-6.6 1.2,-2.2 2.6,-4.9 4.3,-8 -1.7,3.1 -3.1,5.8 -4.3,8 -1.7,3.1 -2.9,5.3 -3.6,6.6 0.9,-1 1.7,-1.9 2.3,-2.6 1.8,-2 3.4,-3.8 4.8,-5.3 1,-1.2 1.9,-2.3 2.6,-3.3 0.8,-1.2 1.6,-2.4 2.4,-3.4 1.8,-2.6 3.3,-4.6 4.5,-6.1 0.7,-0.9 1.4,-1.7 2,-2.4 2.4,-2.5 4.6,-4.1 6.7,-4.9 -2.1,0.8 -4.3,2.4 -6.7,4.9 -0.7,0.7 -1.4,1.5 -2,2.4 -1.2,1.5 -2.7,3.6 -4.5,6.1 -0.7,1 -1.5,2.2 -2.4,3.4 -0.7,0.9 -1.6,2 -2.6,3.3 2.7,-1.4 5.4,-3.6 8.1,-6.7 0.7,-0.8 1.5,-1.7 2.2,-2.7 2.1,-2.8 3.6,-4.7 4.5,-5.8 0.3,-0.3 0.5,-0.6 0.6,-0.8 0.8,-0.9 1.6,-1.7 2.5,-2.3 0.8,-0.7 1.7,-1.2 2.5,-1.6 0.3,-0.2 0.7,-0.4 1.1,-0.8 -0.5,-0.2 -1,-0.4 -1.5,-0.5 -0.3,-0.1 -0.5,-0.1 -0.8,-0.1 0.3,0 0.5,0.1 0.8,0.1 -0.2,-0.5 -0.4,-1.1 -0.6,-1.6 -0.1,-0.1 -0.1,-0.2 -0.1,-0.3 -0.1,0 -0.3,0 -0.5,0 -2.8,0 -5.6,1.2 -8.2,3.6 -1.2,1.1 -2.5,2.5 -3.8,4.3 -1.5,2 -3,4.3 -4.7,7.1 1.7,-2.8 3.2,-5.1 4.7,-7.1 1.3,-1.7 2.6,-3.1 3.8,-4.3 2.6,-2.4 5.4,-3.6 8.2,-3.6 l 0.3,-0.3 c -1,-1.8 -2,-2.7 -3.1,-2.7 -0.3,0 -0.6,0 -0.9,0.1 0.5,0.5 0.9,1 1.2,1.4 -0.3,-0.5 -0.7,-0.9 -1.2,-1.4 -1,-0.9 -2.4,-1.9 -4.3,-3.1 -2.1,-1.3 -3.8,-2.1 -5,-2.4 -0.5,-0.2 -0.9,-0.3 -1.3,-0.3 -0.8,0 -1.3,0.1 -1.5,0.2 -0.2,0.2 -0.3,0.6 -0.3,1.4 l 0.1,1.8 c 0.9,0.1 2.1,0.6 3.6,1.3 0.3,0.1 0.6,0.3 0.9,0.4 1.3,0.7 2.5,1.5 3.8,2.3 0.6,0.4 1.3,0.9 1.9,1.4 -0.6,-0.5 -1.3,-1 -1.9,-1.4 -1.2,-0.8 -2.5,-1.6 -3.8,-2.3 -0.3,-0.2 -0.6,-0.3 -0.9,-0.4 -1.4,-0.7 -2.6,-1.2 -3.6,-1.3 -0.3,-0.1 -0.6,-0.1 -0.8,-0.1 -1.1,0 -1.7,0.4 -1.8,1.2 0,0.3 0,0.9 0,1.8 0.1,0 0.1,0 0.2,0 1.4,0 3.1,0.4 5.3,1.1 0.2,0.1 0.4,0.1 0.6,0.3 1,0.4 1.8,0.8 2.5,1.1 0.6,0.4 1.1,0.8 1.5,1.2 -0.4,-0.4 -0.9,-0.8 -1.5,-1.2 -0.7,-0.4 -1.5,-0.8 -2.5,-1.1 -0.2,-0.1 -0.5,-0.2 -0.6,-0.3 -2.1,-0.7 -3.9,-1.1 -5.3,-1.1 -0.1,0 -0.1,0 -0.2,0 -2.2,0.1 -3.3,0.8 -3.3,2.3 0,0.6 0.1,2.5 0.4,5.6 1.2,-0.4 2.5,-0.7 4,-0.9 0.9,-0.1 1.8,-0.2 2.6,-0.3 2.2,-0.4 3.8,-1.2 4.8,-2.2 -1,1 -2.6,1.7 -4.8,2.2 -0.8,0.8 -1.7,2 -2.8,3.5 -0.5,0.7 -1.1,1.6 -1.7,2.5 -1.8,2.8 -3.2,4.8 -4.2,6 -0.1,0.1 -0.3,0.3 -0.4,0.4 -0.2,0.2 -0.4,0.4 -0.5,0.6 -5.6,6.5 -12.2,13.7 -19.7,21.7 0,-0.1 0,-0.1 0,0 m 5.3,-26.5 c -0.4,0 -0.8,0 -1.3,-0.1 -1.2,3.5 -2.2,6.8 -2.9,9.8 -1.1,4.7 -1.7,8.8 -1.7,12.3 0,1.5 0.2,2.9 0.5,4.3 l 0.1,0.1 c 7.5,-7.9 14.1,-15.1 19.7,-21.6 0.2,-0.2 0.4,-0.4 0.5,-0.6 0.1,-0.1 0.2,-0.3 0.4,-0.4 1,-1.2 2.4,-3.2 4.2,-6 0.6,-0.9 1.2,-1.7 1.7,-2.5 1.1,-1.5 2,-2.7 2.8,-3.5 -0.8,0.1 -1.6,0.2 -2.6,0.3 -1.5,0.1 -2.9,0.4 -4,0.9 -0.7,0.3 -1.3,0.6 -1.9,0.9 -0.1,0.5 -0.1,0.9 -0.2,1.4 0,0.5 -0.1,1 -0.1,1.5 0.4,-0.3 0.8,-0.6 1.2,-1 -0.4,0.4 -0.8,0.7 -1.2,1 -1.7,1.3 -3.5,2.1 -5.4,2.6 -1.6,0.4 -3.9,0.6 -6.9,0.6 -1.3,0 -2.2,0 -2.7,-0.1 -0.1,0.1 -0.2,0.1 -0.2,0.1 z"
   id="path31"
   style="fill:url(#SVGID_6_);stroke:#000000;stroke-opacity:1" />&#10;				&#10;					<radialGradient
   id="SVGID_7_"
   cx="230"
   cy="382"
   r="167.6375"
   fx="229.34261"
   fy="382"
   gradientTransform="matrix(1,0,0,-1,164.6,674.55)"
   gradientUnits="userSpaceOnUse">&#10;					<stop
   offset="0"
   style="stop-color:#4AE0EF"
   id="stop32" />&#10;					<stop
   offset="0.3216"
   style="stop-color:#4AE0EF"
   id="stop33" />&#10;					<stop
   offset="0.4431"
   style="stop-color:#054EA6"
   id="stop34" />&#10;					<stop
   offset="0.6275"
   style="stop-color:#020406"
   id="stop35" />&#10;					<stop
   offset="0.7922"
   style="stop-color:#204178"
   id="stop36" />&#10;					<stop
   offset="1"
   style="stop-color:#1C96E0"
   id="stop37" />&#10;				</radialGradient>&#10;				<path
   class="st7"
   d="m 333.4,194.8 c -0.8,0.9 -1.4,1.8 -1.9,2.8 -0.1,0.1 -0.1,0.2 -0.2,0.3 -0.9,1.5 -1.6,3.1 -2,4.7 -0.1,0.3 -0.2,0.5 -0.2,0.8 -0.2,0.9 -0.4,1.9 -0.4,2.8 0,0.1 -0.1,0.3 -0.1,0.4 -0.2,3.7 0,7.3 0.5,10.6 0.3,2.2 0.8,4.3 1.5,6.3 0.8,2.4 1.6,4.4 2.5,6.1 0,0.1 0.1,0.2 0.1,0.3 0.5,1 1,1.9 1.6,2.6 0.1,-0.4 0.3,-0.9 0.5,-1.3 -0.2,0.4 -0.4,0.9 -0.5,1.3 -1.5,3.6 -2.9,6.6 -4,8.8 -0.5,0.9 -1,1.8 -1.5,2.6 -1.6,2.5 -3.2,4.4 -5,5.9 -0.8,0.7 -2.3,1.6 -4.5,2.7 -1.9,0.9 -3.3,1.6 -4.3,1.9 -2.3,0.7 -3.7,1.4 -4.2,2 -0.7,0.7 -1,2.2 -1,4.5 0,0.1 0.5,2.9 1.4,8.4 0.9,5.5 1.4,10.9 1.4,16.1 0,5 -0.2,8.1 -0.6,9.4 -0.9,2.8 -3.3,4.2 -6.9,4.3 0.6,1.8 1.7,2.7 3.1,2.8 0.3,0 0.6,0 1,0 0.9,0 1.6,-0.1 2,-0.3 -0.4,0.2 -1.1,0.3 -2,0.3 -0.2,0.4 -0.3,0.8 -0.5,1.3 -0.2,0.4 -0.3,0.8 -0.4,1.2 -0.1,0.5 -0.2,0.9 -0.2,1.3 0,0.5 0.2,1.1 0.7,2 0.3,0.6 0.7,1.2 1.3,1.9 1.3,1.8 2.7,2.7 4.3,2.7 0.1,0 0.2,0 0.3,0 1.4,-0.1 2.2,-0.8 2.5,-2.2 0.1,-0.8 0.4,-1.6 0.7,-2.4 0.3,-0.8 0.6,-1.7 1.1,-2.7 0.9,-1.7 1.3,-2.9 1.3,-3.6 0,-0.8 -0.4,-2.6 -1.1,-5.4 -0.7,-2.7 -1,-6.3 -0.7,-10.9 0.3,-4.6 0.7,-8.9 1.2,-13.2 0.4,-3.3 2,-5.8 4.6,-7.4 0.3,-0.2 0.7,-0.4 1.1,-0.6 0.5,-0.3 1.1,-0.5 1.7,-0.8 2.9,-1.5 6.7,-3.2 11.2,-5.1 0.6,-0.2 1.2,-0.5 1.8,-0.8 6.9,-2.8 12.2,-4.8 15.8,-5.8 3.6,-1 6.4,-2.4 8.3,-4.3 1,-1 2,-2.1 2.8,-3.4 0.5,-0.8 1,-1.7 1.4,-2.6 0.8,-1.9 1.5,-3.6 2.1,-5.1 0.6,-1.7 1.1,-3.1 1.5,-4.3 0.2,-0.6 0.4,-1.3 0.5,-1.9 1,-4 1.5,-8.1 1.5,-12.1 0,-1.3 -0.1,-2.6 -0.3,-4 0.2,1.4 0.2,2.7 0.3,4 0,4.1 -0.5,8.1 -1.5,12.1 -0.2,0.7 -0.4,1.3 -0.5,1.9 -0.4,1.2 -0.9,2.6 -1.5,4.3 2.2,0.4 4.4,0.6 6.6,0.8 2.6,0.2 5.1,0.2 7.6,0.1 2.5,-0.1 6.2,-0.5 11,-1.4 6.1,-1.1 11.7,-2 16.9,-2.5 4,-0.4 7.7,-0.9 11.3,-1.4 1.4,-0.2 3.2,-0.3 5.4,-0.4 -0.6,-0.5 -1.1,-1 -1.6,-1.4 -0.8,-0.7 -1.5,-1.4 -2,-1.9 -1.4,-1.5 -2.3,-3 -2.5,-4.4 -0.7,-4.3 -2.4,-8.1 -5.3,-11.4 -1.4,-1.4 -2.3,-2.4 -2.8,-3 -0.8,-0.9 -1.2,-1.6 -1.2,-2.2 0,-0.3 0,-0.5 0,-0.8 0,-2.4 0.2,-4.1 0.6,-5.3 -0.4,1.1 -0.6,2.9 -0.6,5.3 0,0.2 0,0.5 0,0.8 0,0.5 0.4,1.3 1.2,2.2 0.5,0.6 1.4,1.6 2.8,3 2.8,3.3 4.6,7.1 5.3,11.4 0.2,1.4 1.1,2.9 2.5,4.4 0.5,0.5 1.1,1.1 2,1.9 0.5,0.4 1,0.9 1.6,1.4 0,0 0.1,0.1 0.2,0.1 0.8,0.7 1.9,1.9 3.4,3.5 1.4,1.5 2.8,2.6 4,3.5 1.2,0.9 3.8,2.7 8,5.4 0.5,0.3 1,0.7 1.5,1 4.5,3 7.8,5.2 9.6,6.8 3.2,2.6 5.7,4.9 7.6,7 0.4,0.4 1,1 1.8,1.8 0,2.8 0.5,4.4 1.5,5 1.1,0.6 1.9,1.5 2.2,2.6 0.3,1.1 0.5,2.3 0.5,3.4 0,2.5 -0.4,3.7 -1.2,3.7 -0.7,0 -1.3,-0.5 -1.9,-1.4 -0.5,-0.9 -0.9,-1.4 -1.3,-1.4 -0.3,0 -0.6,0.3 -0.8,0.9 -0.2,0.6 -0.3,1.4 -0.2,2.3 0.1,0.9 0.3,1.6 0.4,2.1 0.2,0.5 0.8,1 1.9,1.3 -1.5,0.3 -2.6,0.6 -3.3,0.8 -0.2,0.1 -0.4,0.2 -0.6,0.3 -0.9,0.4 -1.5,1 -1.6,1.7 -0.2,0.9 0.8,2.1 3.1,3.6 0.7,0.5 1.3,0.9 1.9,1.1 1.4,0.8 2.4,1.2 3.1,1.2 1,0 2.7,-1.3 5,-3.9 2.3,-2.6 3.5,-4.3 3.7,-5.3 0.1,-0.5 0,-1.1 -0.1,-1.7 -0.2,-0.7 -0.4,-1.6 -0.8,-2.5 -0.8,-1.8 -1.2,-3.3 -1.2,-4.5 0,-0.3 0.1,-0.9 0.4,-1.8 0.3,-0.9 0.4,-2.1 0.4,-3.6 0,-0.7 -0.1,-1.4 -0.4,-2.1 -0.3,-0.8 -0.7,-1.7 -1.3,-2.5 -1.1,-1.6 -3.2,-3.7 -6.4,-6.5 -2.9,-2.5 -5.8,-5.6 -8.8,-9.3 -0.3,-0.4 -0.7,-0.8 -1,-1.3 -0.8,-1 -2.6,-3.8 -5.6,-8.3 -0.9,-1.4 -1.9,-2.9 -3,-4.5 -0.1,-0.1 -0.1,-0.2 -0.2,-0.3 -1.1,-1.7 -2.3,-3.3 -3.4,-4.8 -0.2,-0.3 -0.5,-0.6 -0.7,-0.9 -1.8,-2.2 -3.6,-4.1 -5.4,-5.6 1.8,1.6 3.6,3.5 5.4,5.6 0.1,-0.1 0.1,-0.1 0.3,-0.1 -1.7,-2.8 -2.6,-5 -2.6,-6.6 0,-0.9 0.2,-2.2 0.6,-3.9 0.4,-1.6 0.9,-3 1.4,-4.2 -0.5,1.2 -1,2.6 -1.4,4.2 -0.4,1.7 -0.6,3 -0.6,3.9 0,1.6 0.9,3.8 2.6,6.6 2.7,-1.9 4.9,-3.7 6.5,-5.4 0.7,-0.8 1.4,-1.5 1.9,-2.2 1,-1.4 1.8,-2.9 2.4,-4.6 0.5,-1.6 0.9,-3.3 1.2,-5.3 0.2,-1.5 0.3,-3.1 0.3,-4.8 0,-5 -0.5,-10.1 -1.4,-15.1 -0.6,-3.3 -1.7,-8.1 -3.3,-14.3 l -0.1,-0.1 c 0,0 -0.1,0.1 -0.1,0.1 -0.2,0.2 -0.4,0.4 -0.6,0.6 -1.9,2 -3.3,3 -4.1,3 -0.7,0 -2.1,-1.2 -4.2,-3.6 -1,-1.1 -2.2,-2.5 -3.5,-4.1 -1.4,-1.8 -2.8,-3.2 -4,-4.4 -0.4,-0.4 -0.7,-0.7 -1.1,-1 -1.2,-1 -2.2,-1.7 -3,-2 -0.8,0.6 -1.6,1.4 -2.5,2.3 -0.1,0.2 -0.3,0.4 -0.6,0.8 -0.9,1.1 -2.4,3 -4.5,5.8 -0.7,1 -1.5,1.9 -2.2,2.7 -2.7,3.1 -5.4,5.3 -8.1,6.7 -1.3,1.6 -2.9,3.3 -4.8,5.3 -0.6,0.7 -1.4,1.6 -2.3,2.6 -0.1,0.2 -0.2,0.3 -0.3,0.4 -2.7,4.8 -5.4,9.3 -8.1,13.4 -1.1,1.7 -2.4,3.6 -3.6,5.8 -1.2,2 -2.5,4.2 -3.9,6.7 -0.8,1.3 -1.7,2.5 -2.6,3.8 v 0.1 c -0.3,0.4 -0.6,0.7 -0.9,1.1 0.3,-0.8 0.5,-1.3 0.6,-1.4 0.5,-1.5 0.8,-3.5 0.8,-6.1 0,-1.3 -0.1,-2.7 -0.3,-4.2 -0.1,-0.7 -0.2,-1.4 -0.4,-2.2 -0.5,-2.6 -0.9,-5.2 -1.1,-7.8 0.5,-0.5 1,-1.1 1.5,-1.6 0,-0.1 0,-0.1 0,-0.2 -0.3,-1.4 -0.5,-2.8 -0.5,-4.3 0,-3.5 0.6,-7.6 1.7,-12.3 -3.2,0.9 -6.3,1.5 -9.2,1.7 -7.1,0.5 -12.4,0.5 -15.8,0 -3.4,-0.5 -7,-0.4 -10.9,0.3 -2.2,0.4 -4.9,1.5 -8,3.5 -2.1,1.3 -4.4,2.9 -6.9,4.9 -0.4,0.3 -0.8,0.6 -1.1,0.9 -1.2,0.9 -2.2,1.8 -3.1,2.8 -0.2,0.2 -0.5,0.4 -0.6,0.6 l -0.1,0.1 c -0.9,0.7 -1.6,1.4 -2.2,2.2 m 32.1,-6.9 c 1.1,0.7 2.3,1.6 3.6,2.7 1.5,1.2 2.5,2.2 3.2,2.9 0.9,1.1 1.4,3.4 1.4,6.8 0,0.4 -0.1,1.6 -0.2,3.5 -0.2,2.1 -0.3,3.3 -0.4,3.7 0.1,-0.4 0.2,-1.6 0.4,-3.7 0.1,-1.9 0.2,-3.1 0.2,-3.5 0,-3.4 -0.5,-5.7 -1.4,-6.8 -0.7,-0.8 -1.7,-1.8 -3.2,-2.9 -1.4,-1.1 -2.6,-2 -3.6,-2.7 z"
   id="path37"
   style="fill:url(#SVGID_7_);stroke:#000000;stroke-opacity:1" />&#10;				&#10;					<radialGradient
   id="SVGID_8_"
   cx="230"
   cy="382"
   r="255.075"
   fx="228.99969"
   fy="382"
   gradientTransform="matrix(1,0,0,-1,107.75,580.35)"
   gradientUnits="userSpaceOnUse">&#10;					<stop
   offset="0"
   style="stop-color:#4ADAF1"
   id="stop38" />&#10;					<stop
   offset="0.2275"
   style="stop-color:#054EA6"
   id="stop39" />&#10;					<stop
   offset="0.4471"
   style="stop-color:#152236"
   id="stop40" />&#10;					<stop
   offset="0.7922"
   style="stop-color:#204178"
   id="stop41" />&#10;					<stop
   offset="1"
   style="stop-color:#1C96E0"
   id="stop42" />&#10;				</radialGradient>&#10;				<path
   class="st8"
   d="m 331.5,197.6 c 0.5,-1 1.2,-1.9 1.9,-2.8 -0.8,0.3 -1.5,0.6 -2.4,1.1 -0.8,0.5 -1.5,0.9 -2.1,1.2 -0.9,0.4 -1.5,0.6 -2,0.6 -1.1,0 -2,-0.3 -2.6,-1 -1.3,-1.2 -2.3,-1.9 -3,-2.3 0.7,0.4 1.7,1.2 3,2.3 0.7,0.6 1.6,1 2.6,1 0.5,0 1.1,-0.2 2,-0.6 0.6,-0.3 1.4,-0.7 2.1,-1.2 0.8,-0.5 1.6,-0.8 2.4,-1.1 0.6,-0.8 1.3,-1.5 2,-2.3 l 0.1,-0.1 -0.3,-0.3 c -2.2,0.8 -3.8,1.2 -4.8,1.2 -0.5,0 -1,-0.1 -1.5,-0.4 -0.6,-0.3 -1.3,-0.8 -1.9,-1.6 -1.2,-1.4 -2.3,-2.1 -3.1,-2.3 -0.8,-0.1 -2.3,-0.3 -4.6,-0.4 -2,-0.1 -3.4,-0.2 -4.3,-0.4 -1.9,-0.5 -3.3,-0.9 -4.3,-1.3 -0.6,-0.2 -1.2,-0.5 -1.8,-0.8 -1,-0.6 -1.9,-1.2 -2.8,-2 -0.2,-0.2 -0.4,-0.4 -0.6,-0.6 -1.5,-1.4 -2.6,-2.4 -3.2,-2.9 -0.9,-0.6 -2,-1 -3.2,-1.1 -0.3,0 -0.7,-0.1 -1,-0.1 -1.2,0 -2.1,0.1 -2.8,0.4 -0.4,0.2 -0.8,0.5 -1.3,1.1 -0.3,0.4 -0.7,0.9 -1,1.6 -0.8,1.4 -1.4,2.4 -1.7,3 -0.3,0.5 -0.9,0.9 -1.7,1.1 -1.9,0.2 -3.6,0.3 -5,0.4 -0.6,0 -1.1,0.1 -1.5,0.1 -1.9,0.2 -3.4,0.6 -4.5,1.2 -0.6,0.3 -1,0.7 -1.4,1.1 -0.5,0.5 -0.7,1.5 -0.7,2.8 0,1.4 -0.2,2.4 -0.5,3 -0.4,0.6 -1.2,1.3 -2.4,1.9 -0.4,0.2 -1.5,0.7 -3.4,1.5 -2.3,1 -4,1.9 -5.2,2.7 -0.3,0.2 -0.6,0.4 -0.8,0.6 -1.7,1.4 -2.6,3.1 -2.6,5.1 0,0.4 0.3,1.1 0.8,2.4 0.5,1.2 0.8,2.2 0.8,2.9 0,0.8 -0.8,1.8 -2.5,3.1 -1.7,1.3 -2.5,2.7 -2.5,4.4 0,1.4 0.8,2.6 2.3,3.6 0.4,0.3 1.9,1 4.5,2.2 0.2,0.1 0.4,0.1 0.6,0.3 4.9,2.3 7.4,5.4 7.4,9.4 0,3.5 -2.2,5.2 -6.6,5.2 -0.6,0 -1.1,0 -1.4,0 -0.2,0 -0.3,-0.1 -0.4,-0.1 l -0.1,0.3 c 0.2,0.2 0.4,0.3 0.5,0.4 0.7,0.5 1.3,0.9 1.9,1.2 1.3,0.6 2.8,0.9 4.4,0.9 2.4,0 3.8,-0.6 4.1,-1.8 0.3,-1.4 0.3,-2.7 0.2,-3.8 -0.1,-1.1 0.2,-1.7 1,-1.8 1.1,0 2,0.5 2.6,1.6 0.5,0.9 0.8,2.1 0.8,3.5 0,2.6 -1,4.3 -3,5.2 -1.7,0.7 -4.2,0.8 -7.4,0.3 0.6,1.4 1.8,2.3 3.6,2.7 1.3,0.3 2.5,0.5 3.5,0.5 3.7,0 6.9,-1 9.5,-3 3.1,-2.3 4.6,-5.6 4.6,-9.9 0,-1.2 -0.8,-3.3 -2.5,-6.4 -0.1,-0.3 -0.3,-0.5 -0.4,-0.8 -1.4,-2.6 -2.1,-4.3 -2.1,-4.9 0,-1.8 1,-3.4 2.9,-4.8 1.6,-1.1 3.4,-1.7 5.3,-1.9 0.2,0 0.4,0 0.6,0 0.9,0 1.6,-0.4 2,-1 0.6,-0.7 0.8,-1.9 0.8,-3.5 0,-2.9 1,-4.3 3.1,-4.3 0.7,0 2.3,0.6 4.8,1.7 1.2,0.5 2.3,0.9 3.4,1.3 1.2,0.3 2.4,0.4 3.5,0.4 2.2,0 4.4,-0.3 6.4,-0.8 2,-0.6 3.9,-2.2 5.8,-4.8 0.2,-0.3 0.5,-0.6 0.7,-0.9 0.4,-0.5 0.8,-0.9 1.3,-1.3 -0.6,0.5 -1.2,0.9 -1.8,1.3 -1.9,1.2 -3.9,2.1 -5.9,2.6 2,-0.5 4,-1.3 5.9,-2.6 0.6,-0.4 1.2,-0.8 1.8,-1.3 0.2,-0.2 0.4,-0.3 0.5,-0.5 0.5,-0.4 1.1,-0.8 1.7,-1 0,-0.3 0.1,-0.5 0.2,-0.8 0.4,-1.6 1.1,-3.2 2,-4.7 -0.5,0.2 -0.9,0.4 -1.2,0.6 -1.6,0.9 -2.8,1.4 -3.6,1.4 -0.4,0 -1,-0.1 -1.8,-0.3 -0.9,-0.3 -1.5,-0.6 -1.8,-0.9 0.3,0.3 0.9,0.6 1.8,0.9 0.8,0.2 1.4,0.3 1.8,0.3 0.9,0 2.1,-0.5 3.6,-1.4 0.3,-0.2 0.7,-0.4 1.2,-0.6 0.5,0.1 0.6,0 0.7,-0.1 m -41.9,-6.2 c 0.5,-0.8 0.8,-1.4 1,-1.6 0.8,-1.2 2,-1.9 3.6,-1.9 -1.5,0.1 -2.7,0.7 -3.6,1.9 -0.2,0.3 -0.5,0.8 -1,1.6 -0.5,0.7 -0.9,1.1 -1.4,1.1 -0.7,0 -1.5,-0.3 -2.2,-1.1 -0.4,-0.4 -0.8,-0.7 -1.1,-0.9 -0.5,-0.4 -1,-0.7 -1.4,-0.9 0.4,0.2 0.9,0.5 1.4,0.9 0.3,0.3 0.7,0.6 1.1,0.9 0.7,0.7 1.5,1.1 2.2,1.1 0.5,0 0.9,-0.3 1.4,-1.1 m 8.8,4.7 h 1.5 c 1.3,-0.1 2.6,0.6 3.9,1.9 0.7,0.7 1.3,1.6 1.9,2.7 0.2,0.4 0.4,0.8 0.6,1.1 0.6,1.4 1.6,2.6 2.8,3.4 0.1,0.1 0.2,0.1 0.4,0.2 0.4,0.3 0.9,0.5 1.4,0.6 0.8,0.3 1.7,0.5 2.6,0.5 0.5,0 0.8,0 0.9,-0.1 0.2,0 0.6,-0.2 1.2,-0.4 -0.6,0.2 -1,0.4 -1.2,0.4 -0.1,0 -0.4,0.1 -0.9,0.1 -0.9,0 -1.8,-0.2 -2.6,-0.5 -0.5,-0.2 -1,-0.4 -1.4,-0.6 -0.1,-0.1 -0.3,-0.1 -0.4,-0.2 -1.2,-0.8 -2.2,-2 -2.8,-3.4 -0.2,-0.4 -0.4,-0.8 -0.6,-1.1 -0.6,-1.1 -1.2,-2 -1.9,-2.7 -1.3,-1.4 -2.6,-2.1 -3.9,-1.9 h -1.5 m 12.9,-6.5 c 0.1,0 0.9,0.7 2.4,1.9 0.9,0.7 1.8,1.1 2.7,1.1 0.5,0 1.1,-0.1 1.9,-0.4 0.7,-0.3 1.3,-0.4 1.8,-0.4 1.1,0 2.1,0.4 3,1.1 1.6,1.2 2.6,1.9 2.8,2 -0.2,-0.1 -1.2,-0.8 -2.8,-2 -0.9,-0.7 -1.9,-1.1 -3,-1.1 -0.5,0 -1.1,0.1 -1.8,0.4 -0.7,0.3 -1.4,0.4 -1.9,0.4 -0.9,0 -1.8,-0.4 -2.7,-1.1 -1.6,-1.2 -2.4,-1.9 -2.4,-1.9 m 7.7,15.9 c 0.3,0.1 0.9,0.1 1.7,0.1 2.3,0 4.4,-0.8 6.4,-2.4 -2,1.6 -4.2,2.4 -6.4,2.4 -0.8,0 -1.3,0 -1.7,-0.1 m -8.1,-6.5 c 0.3,-0.3 0.6,-0.4 0.9,-0.4 0.4,0 0.7,0.1 1,0.4 0.3,0.3 0.4,0.6 0.4,0.9 0,0.3 -0.1,0.7 -0.4,0.9 -0.3,0.3 -0.6,0.4 -1,0.4 -0.4,0 -0.7,-0.1 -0.9,-0.4 -0.3,-0.3 -0.4,-0.6 -0.4,-0.9 0,-0.3 0.1,-0.6 0.4,-0.9 m -38.3,18.8 c 0.2,0 0.4,0.1 0.6,0.3 0.2,0.2 0.3,0.4 0.3,0.6 0,0.2 -0.1,0.4 -0.3,0.6 -0.2,0.2 -0.4,0.3 -0.6,0.3 -0.2,0 -0.4,-0.1 -0.6,-0.3 -0.2,-0.2 -0.3,-0.4 -0.3,-0.6 0,-0.2 0.1,-0.4 0.3,-0.6 0.2,-0.3 0.4,-0.3 0.6,-0.3 z"
   id="path42"
   style="display:inline;fill:url(#SVGID_8_);stroke:#000000;stroke-opacity:1" />&#10;				&#10;					<radialGradient
   id="SVGID_9_"
   cx="230"
   cy="382"
   r="2.4749999"
   gradientTransform="matrix(1,0,0,-1,42.7,600.45)"
   gradientUnits="userSpaceOnUse">&#10;					<stop
   offset="0"
   style="stop-color:#FFFFFF"
   id="stop43" />&#10;					<stop
   offset="1"
   style="stop-color:#1C96E0"
   id="stop44" />&#10;				</radialGradient>&#10;				<path
   class="st9"
   d="m 273.2,218 c -0.2,-0.2 -0.4,-0.3 -0.6,-0.3 -0.2,0 -0.4,0.1 -0.6,0.3 -0.2,0.2 -0.3,0.4 -0.3,0.6 0,0.2 0.1,0.4 0.3,0.6 0.2,0.2 0.4,0.3 0.6,0.3 0.2,0 0.4,-0.1 0.6,-0.3 0.2,-0.2 0.3,-0.4 0.3,-0.6 0,-0.2 -0.1,-0.4 -0.3,-0.6 z"
   id="path44"
   style="display:inline;fill:url(#SVGID_9_);stroke:#000000;stroke-opacity:1" />&#10;				&#10;					<radialGradient
   id="SVGID_10_"
   cx="230"
   cy="382"
   r="3.9375"
   gradientTransform="matrix(1,0,0,-1,81.9,581.7)"
   gradientUnits="userSpaceOnUse">&#10;					<stop
   offset="0"
   style="stop-color:#FFFFFF"
   id="stop45" />&#10;					<stop
   offset="1"
   style="stop-color:#1C96E0"
   id="stop46" />&#10;				</radialGradient>&#10;				<path
   class="st10"
   d="m 311.8,198.6 c -0.4,0 -0.7,0.1 -0.9,0.4 -0.2,0.3 -0.4,0.6 -0.4,0.9 0,0.3 0.1,0.7 0.4,0.9 0.3,0.3 0.6,0.4 0.9,0.4 0.3,0 0.7,-0.1 1,-0.4 0.3,-0.3 0.4,-0.6 0.4,-0.9 0,-0.3 -0.1,-0.7 -0.4,-0.9 -0.3,-0.2 -0.6,-0.4 -1,-0.4 z"
   id="path46"
   style="display:inline;fill:url(#SVGID_10_);stroke:#000000;stroke-opacity:1" />&#10;				&#10;					<radialGradient
   id="SVGID_11_"
   cx="130.1945"
   cy="422.51361"
   r="44.7383"
   fx="137.3504"
   fy="419.17831"
   gradientTransform="matrix(0.9064,-0.4225,-0.7932,-1.703,668.3422,883.7756)"
   gradientUnits="userSpaceOnUse">&#10;					<stop
   offset="1.568627e-02"
   style="stop-color:#4AE0EF"
   id="stop47" />&#10;					<stop
   offset="0.1725"
   style="stop-color:#054EA6"
   id="stop48" />&#10;					<stop
   offset="0.4471"
   style="stop-color:#152236"
   id="stop49" />&#10;					<stop
   offset="0.7922"
   style="stop-color:#204178"
   id="stop50" />&#10;					<stop
   offset="1"
   style="stop-color:#4AE0EF"
   id="stop51" />&#10;				</radialGradient>&#10;				<path
   class="st11"
   d="m 404,109 0.2,0.3 c 1.3,0.2 2.5,0.6 3.8,1.2 0.1,0 0.3,0.1 0.4,0.2 1.4,0.8 2.8,2 4.1,3.7 0.2,0.3 0.4,0.5 0.5,0.8 1.2,1.6 2.3,3 3.3,4.3 -0.6,-0.2 -1,-0.3 -1.3,-0.3 -1.1,0 -2.5,0.5 -4.4,1.5 -0.5,0.5 -1,0.9 -1.6,1.2 -0.6,0.3 -1.3,0.6 -2,0.8 0.3,1.2 0.7,2.3 1.2,3.4 0.4,0.9 1,1.9 1.7,3 0.9,1.5 2.2,3.2 3.7,5 2.4,2.9 4.2,5.3 5.2,7.2 0.1,0.2 0.2,0.4 0.3,0.6 0.7,1.3 1.2,2.6 1.6,4.1 0.1,0.4 0.2,0.8 0.3,1.3 1.2,0.3 2.9,1.1 5,2.4 1.9,1.1 3.3,2.1 4.3,3.1 0.3,-0.1 0.6,-0.1 0.9,-0.1 1.1,0 2.2,0.9 3.1,2.7 0,0.1 0.1,0.2 0.2,0.3 0,0.1 0.1,0.2 0.1,0.3 0.2,0.6 0.5,1.1 0.6,1.6 0.5,0.1 1,0.3 1.5,0.5 1.2,0.5 2.5,1.2 3.9,2.2 0.6,0.4 1.4,1.3 2.4,2.7 0,0.1 0.1,0.1 0.2,0.2 1.7,-0.3 3.2,-1.5 4.6,-3.6 0.8,-1.2 1.4,-2.3 1.8,-3.3 -0.3,-0.8 -0.5,-1.7 -0.9,-2.8 -0.1,-0.4 -0.3,-0.8 -0.4,-1.3 -0.6,-2 -1,-4 -1.1,-6.2 0,-0.2 0,-0.5 0,-0.8 0,-0.1 0,-0.2 0,-0.3 0.1,-1.3 0.2,-2.6 0.3,-3.8 0,-0.9 0.1,-1.7 0.1,-2.5 0,-0.4 0,-0.7 0,-1.1 0,-1.7 0,-3.4 -0.1,-4.9 0.3,-0.2 0.6,-0.5 0.8,-0.9 0.3,-0.6 0.5,-1.5 0.6,-2.8 0,-0.2 0,-0.5 0,-0.8 0,-0.5 0,-1 -0.1,-1.4 6.6,-0.4 11.9,-1.2 15.8,-2.3 2,-0.5 4,-1.2 5.9,-2.1 1.2,-0.5 2.3,-1.1 3.4,-1.8 l 2.1,-2 2.5,-7.6 -24.5,-1 -13.8,-4.7 -6.6,-0.4 c -0.1,-0.5 -0.3,-1.2 -0.4,-1.9 -0.1,-0.4 -0.2,-0.9 -0.4,-1.3 -0.2,-0.6 -0.3,-1 -0.4,-1.4 -0.2,0.4 -0.4,0.8 -0.6,1.3 -1.6,3.1 -3.6,4.6 -6,4.6 -1.1,0 -2.2,-0.4 -3.3,-1.1 0,0 -0.1,-0.1 -0.1,-0.1 -0.7,0.3 -1.5,0.7 -2.5,1.2 -0.9,0.4 -1.7,0.8 -2.5,1.2 -0.4,-0.3 -0.8,-0.5 -1.4,-0.8 -1.3,-0.6 -2.5,-0.9 -3.6,-0.9 -2.9,0.1 -5.8,1.2 -8.4,3.4 m 17,17 0.3,-0.2 c 0.1,0.1 0.1,0.1 0.2,0.2 -0.2,0 -0.3,0 -0.5,0 z"
   id="path51"
   style="fill:url(#SVGID_11_);stroke:#000000;stroke-opacity:1" />&#10;				&#10;					<radialGradient
   id="SVGID_12_"
   cx="230"
   cy="382"
   r="0.2"
   gradientTransform="matrix(1,0,0,-1,191.25,507.9)"
   gradientUnits="userSpaceOnUse">&#10;					<stop
   offset="1.568627e-02"
   style="stop-color:#4AE0EF"
   id="stop52" />&#10;					<stop
   offset="9.803922e-02"
   style="stop-color:#054EA6"
   id="stop53" />&#10;					<stop
   offset="0.4471"
   style="stop-color:#152236"
   id="stop54" />&#10;					<stop
   offset="0.7922"
   style="stop-color:#204178"
   id="stop55" />&#10;					<stop
   offset="1"
   style="stop-color:#4AE0EF"
   id="stop56" />&#10;				</radialGradient>&#10;				<path
   class="st12"
   d="M 421.3,125.8 421,126 c 0.1,0 0.3,0 0.4,0 0,-0.1 0,-0.1 -0.1,-0.2 z"
   id="path56"
   style="fill:url(#SVGID_12_);stroke:#000000;stroke-opacity:1" />&#10;				&#10;					<radialGradient
   id="SVGID_13_"
   cx="-194"
   cy="496.9046"
   r="34.799999"
   fx="-194"
   fy="495.94931"
   gradientTransform="matrix(0,-1,-3.5392,0,2150.4211,-108.7)"
   gradientUnits="userSpaceOnUse">&#10;					<stop
   offset="0"
   style="stop-color:#4AE0EF"
   id="stop57" />&#10;					<stop
   offset="9.803922e-02"
   style="stop-color:#4AE0EF"
   id="stop58" />&#10;					<stop
   offset="0.4471"
   style="stop-color:#152236"
   id="stop59" />&#10;					<stop
   offset="0.8353"
   style="stop-color:#1B3678"
   id="stop60" />&#10;					<stop
   offset="1"
   style="stop-color:#4AE0EF"
   id="stop61" />&#10;				</radialGradient>&#10;				<path
   class="st13"
   d="m 404.2,109.3 c -0.1,0 -0.3,-0.1 -0.5,-0.1 -2.4,-0.3 -4.8,-0.1 -7.2,0.5 -0.3,-0.1 -0.6,-0.3 -0.9,-0.4 -0.1,0 -0.1,-0.1 -0.1,-0.1 -2.4,-0.9 -4,-1.3 -4.8,-1.3 -1.6,0 -4,0.3 -7.2,0.8 -3.2,0.5 -5.6,0.8 -7.4,0.8 -2,-0.1 -3.4,-0.2 -4.2,-0.2 l -4.4,6.8 h 2.8 c 1,0.2 3.9,1.1 8.8,2.7 4.8,1.4 8.2,2.2 10.2,2.2 1,0 2,-0.2 3,-0.6 1.1,0.4 2.1,0.8 3.2,1.1 2.9,0.9 5.7,1.4 8.4,1.4 1.2,0 2.3,-0.1 3.1,-0.3 0.8,-0.2 1.4,-0.4 2,-0.8 0.6,-0.3 1.1,-0.7 1.6,-1.2 1.8,-1 3.3,-1.5 4.4,-1.5 0.3,0 0.7,0.1 1.3,0.3 -1,-1.3 -2.1,-2.8 -3.3,-4.3 -0.2,-0.2 -0.4,-0.5 -0.5,-0.8 -1.3,-1.7 -2.7,-2.9 -4.1,-3.7 -0.1,-0.1 -0.3,-0.1 -0.4,-0.2 -1.3,-0.5 -2.5,-0.9 -3.8,-1.1 z"
   id="path61"
   style="fill:url(#SVGID_13_);stroke:#000000;stroke-opacity:1" />&#10;				&#10;					<radialGradient
   id="SVGID_14_"
   cx="230"
   cy="382"
   r="150.175"
   fx="233.53349"
   fy="382"
   gradientTransform="matrix(1,0,0,-1,190.2,464.2)"
   gradientUnits="userSpaceOnUse">&#10;					<stop
   offset="0"
   style="stop-color:#011B31"
   id="stop62" />&#10;					<stop
   offset="8.627451e-02"
   style="stop-color:#3780C8"
   id="stop63" />&#10;					<stop
   offset="0.1961"
   style="stop-color:#4AE0EF"
   id="stop64" />&#10;					<stop
   offset="0.6784"
   style="stop-color:#325276"
   id="stop65" />&#10;					<stop
   offset="0.9608"
   style="stop-color:#4AE0EF"
   id="stop66" />&#10;					<stop
   offset="1"
   style="stop-color:#4AE0EF"
   id="stop67" />&#10;				</radialGradient>&#10;				<path
   class="st14"
   d="m 420.4,82.2 c 0,0 -0.1,0.1 -0.1,0.1 -0.6,0.3 -1.1,0.5 -1.5,0.7 -0.3,0.6 -0.8,1.1 -1.6,1.5 -0.3,0.1 -0.5,0.2 -0.8,0.3 -0.5,3 -0.8,5 -0.8,5.9 0,0.1 0.1,0.4 0.2,0.9 0,0.2 0.1,0.4 0.1,0.6 0.1,0.6 0.3,1.3 0.6,2.2 0.1,0.2 0.1,0.5 0.2,0.8 0.8,2.7 1.5,4.5 1.9,5.3 0.8,1.5 1.7,2.8 2.8,3.8 0.3,0.3 0.6,0.5 0.9,0.8 0,0 0.1,0.1 0.1,0.1 1.1,0.8 2.1,1.1 3.3,1.1 2.4,0 4.4,-1.5 6,-4.6 0.2,-0.4 0.4,-0.8 0.6,-1.3 0.4,-0.9 0.6,-1.8 0.9,-2.6 v 0.1 c 0.1,0 0.3,0 0.4,0 1.3,0 2.3,-0.7 3.1,-2 0.4,-0.6 0.6,-1.2 0.9,-1.8 0.1,-0.6 0.2,-1.1 0.2,-1.7 0,-0.5 -0.1,-1 -0.4,-1.4 -0.3,-0.5 -0.7,-0.8 -1.3,-0.8 -0.4,0 -0.9,0.2 -1.5,0.6 -0.7,0.4 -1.1,0.9 -1.3,1.4 -0.1,-0.7 -0.3,-1.3 -0.5,-1.9 -0.4,-1.1 -1,-2 -1.7,-2.6 -0.6,-0.5 -0.9,-1.5 -0.8,-3.1 0,-1.5 -0.1,-2.7 -0.3,-3.7 -0.7,0.5 -1.5,0.8 -2.5,0.8 -0.8,0 -1.5,-0.2 -2.3,-0.7 -0.6,0.2 -1.3,0.4 -2.1,0.7 -1,0.3 -2,0.5 -2.7,0.5 z"
   id="path67"
   style="fill:url(#SVGID_14_);stroke:#000000;stroke-opacity:1" />&#10;				&#10;					<radialGradient
   id="SVGID_15_"
   cx="230"
   cy="382"
   r="139.925"
   fx="233.2924"
   fy="382"
   gradientTransform="matrix(1,0,0,-1,195,466.3)"
   gradientUnits="userSpaceOnUse">&#10;					<stop
   offset="0"
   style="stop-color:#011B31"
   id="stop68" />&#10;					<stop
   offset="0.1294"
   style="stop-color:#0464A5"
   id="stop69" />&#10;					<stop
   offset="0.3216"
   style="stop-color:#4AE0EF"
   id="stop70" />&#10;					<stop
   offset="0.4"
   style="stop-color:#3780C8"
   id="stop71" />&#10;					<stop
   offset="0.9608"
   style="stop-color:#205CE0"
   id="stop72" />&#10;					<stop
   offset="1"
   style="stop-color:#205CE0"
   id="stop73" />&#10;				</radialGradient>&#10;				<path
   class="st15"
   d="m 432,71.8 c -1,-0.5 -2.1,-0.8 -3.5,-0.8 -1.4,0 -3,0.3 -4.7,0.8 -0.7,0.2 -1.5,0.5 -2.3,0.8 -1,0.4 -2,0.8 -2.9,1.2 -0.3,0 -0.6,-0.1 -0.9,-0.1 -4,0 -6.9,1.8 -8.7,5.3 -1.1,2.1 -1.7,3.3 -1.9,3.6 -0.8,1 -1.8,1.6 -3.1,1.6 -0.1,0 -0.1,0 -0.3,0 -1,0 -2,-0.2 -2.9,-0.6 -0.9,-0.4 -1.7,-0.7 -2.6,-0.7 -0.2,0 -0.3,0 -0.4,0 v 0.3 c -0.2,-0.1 -0.4,-0.2 -0.6,-0.2 -0.6,-0.2 -1,-0.1 -1.4,0.2 -0.3,0.2 -0.5,0.5 -0.6,0.8 -0.1,0 -0.1,0 -0.2,0 -0.7,0 -1.4,0.2 -2,0.4 -0.3,0.1 -0.6,0.3 -0.9,0.6 -1.1,0.9 -1.6,2.2 -1.6,3.8 0,0.3 0.1,0.8 0.2,1.3 -0.1,0.5 -0.2,1.1 -0.2,1.7 0,0.4 0.1,0.9 0.2,1.5 0.1,0.4 0.2,0.8 0.3,1.3 0.2,0.7 0.3,1.2 0.4,1.7 0.3,0.9 0.7,1.3 1.1,1.3 0.4,0 0.5,-0.8 0.5,-2.4 0,-1.6 0.3,-2.4 0.9,-2.4 0.1,0 0.2,0.1 0.4,0.4 0.2,0.3 0.4,0.4 0.6,0.4 0.1,0 0.1,0 0.3,0 0,-0.1 0.1,-0.1 0.2,-0.2 0.1,-0.2 0.1,-0.3 0.3,-0.5 0.1,-0.3 0.3,-0.5 0.5,-0.7 0.1,-0.1 0.2,-0.2 0.3,-0.3 0,0 -0.1,0.1 -0.1,0.2 0.7,1 1.7,2 2.9,2.9 2.2,1.6 4.6,2.4 7.1,2.4 0.4,0 0.9,0 1.3,-0.1 0.2,0.2 0.5,0.3 0.7,0.5 0.7,0.4 1.5,0.7 2.4,0.7 1.8,0 3.4,-0.8 4.8,-2.6 0.3,-0.3 0.7,-0.9 1.3,-1.8 -0.3,-0.9 -0.5,-1.6 -0.6,-2.2 -0.1,-0.2 -0.1,-0.4 -0.1,-0.6 -0.1,-0.5 -0.2,-0.8 -0.2,-0.9 0,-0.9 0.3,-2.9 0.8,-5.9 0.2,-0.1 0.5,-0.2 0.8,-0.3 0.7,-0.4 1.3,-0.9 1.6,-1.5 0.5,-0.2 1,-0.4 1.5,-0.7 v -0.1 c 0,0 0.1,0 0.1,0 0.8,0 1.8,-0.2 2.9,-0.4 0.8,-0.2 1.5,-0.4 2.1,-0.7 0.8,0.4 1.5,0.7 2.3,0.7 1,0 1.9,-0.3 2.5,-0.8 0.2,1 0.3,2.2 0.3,3.7 -0.1,1.6 0.2,2.6 0.8,3.1 0.7,0.6 1.3,1.5 1.7,2.6 0.2,0.6 0.4,1.2 0.5,1.9 0.2,-0.6 0.6,-1 1.3,-1.4 0.6,-0.4 1.1,-0.6 1.5,-0.6 0.6,0 1,0.3 1.3,0.8 0.2,0.4 0.4,0.9 0.4,1.4 0,0.6 -0.1,1.1 -0.2,1.7 1.6,-1.6 2.4,-2.8 2.4,-3.6 0.2,-4.4 0.3,-6.9 0.3,-7.5 0,-1 -0.3,-1.6 -0.8,-2 -1.3,-1 -1.9,-1.5 -2,-1.5 -0.7,-0.7 -1.3,-1.3 -1.8,-1.8 -0.3,-0.3 -0.6,-0.6 -0.8,-0.8 -0.2,-1.5 -0.6,-2.7 -1.3,-3.6 -1,-0.5 -1.6,-1 -2.2,-1.3 m -29.5,16.3 c 0,0.1 0.1,0.1 0.1,0.2 0,-0.1 -0.1,-0.1 -0.1,-0.2 v 0 C 402.3,88 402.2,88 402.1,87.9 v -0.1 c -0.3,-0.3 -0.7,-0.6 -1.1,-0.9 -0.1,-0.1 -0.1,-0.1 -0.1,-0.1 0.1,0 0.1,0.1 0.2,0.1 0.4,0.3 0.7,0.6 1,0.9 v -0.1 c 0,0 0,0.1 0.1,0.1 0.1,0.1 0.2,0.2 0.3,0.3 z"
   id="path73"
   style="fill:url(#SVGID_15_);stroke:#000000;stroke-opacity:1" />&#10;			</g>&#10;		</g>&#10;		<g
   id="g76"
   style="stroke:#000000;stroke-opacity:1">&#10;			&#10;				<radialGradient
   id="SVGID_16_"
   cx="230"
   cy="405.82101"
   r="114.1"
   gradientTransform="matrix(1,0,0,-1.1496,142.05,668.1519)"
   gradientUnits="userSpaceOnUse">&#10;				<stop
   offset="0"
   style="stop-color:#4AB6D9"
   id="stop74" />&#10;				<stop
   offset="0.5412"
   style="stop-color:#A8F2F4"
   id="stop75" />&#10;				<stop
   offset="1"
   style="stop-color:#208AE0"
   id="stop76" />&#10;			</radialGradient>&#10;			<path
   class="st16"
   d="m 448.8,153.4 c 0.4,0.1 0.8,0.3 1.1,0.5 0.8,0.4 1.5,1.1 2.1,1.9 1.2,1.6 1.8,3.5 1.8,5.6 0,0.6 -0.1,1.2 -0.3,1.9 l 0.1,0.1 c 0,0.1 0.1,0.1 0.1,0.2 1.4,1.9 2.1,3.6 2.1,5 0,0.3 -0.2,0.7 -0.5,1.2 0.3,0.7 0.5,1.4 0.8,2.1 l 1.5,4.2 c 0.1,0.3 0.9,3 2.4,8 0,0.2 0.7,2.3 2,6.4 0,0.1 0.1,0.3 0.2,0.4 1.4,4.6 2,7.3 2,8.2 0,2.3 -0.7,4.6 -2.2,6.9 v 0 c -0.4,0.7 -0.9,1.4 -1.5,2.1 -1.1,1.3 -2.2,2.3 -3.5,3.2 -0.6,1.7 -1.4,3.2 -2.4,4.6 -0.5,0.7 -1.1,1.4 -1.9,2.2 2.2,2.8 4.6,5.3 7.3,7.4 1.4,1.1 3.3,2.5 5.6,4.1 1.2,0.8 2.4,1.7 3.8,2.6 1.7,1.2 3.7,2.3 6,3.1 1.3,0.5 3,1.1 5.2,1.9 2.7,1.2 4.3,3.3 4.8,6.4 0.1,0.6 0.1,1.3 0.1,2.1 0,0.3 -0.3,1.4 -1,3.2 -0.7,2.3 -1,4.6 -1,7 0,2.3 0.2,4.6 0.7,7 0.5,2.3 0.7,4.4 0.7,6.3 0,1.2 -1.9,3.2 -5.8,6.2 -0.5,0.4 -0.9,0.7 -1.4,1 0.1,0.6 0.2,1.2 0.1,1.7 -0.2,1 -1.4,2.7 -3.7,5.3 -2.3,2.6 -4,3.8 -5,3.9 -0.7,0 -1.8,-0.4 -3.1,-1.2 -4,2.1 -8,3.8 -12.1,4.9 -0.3,-2.1 -0.4,-3.3 -0.4,-3.7 0,-2.5 0.3,-4.7 0.8,-6.8 0.9,-3.3 2,-5 3.4,-4.9 1.4,0.1 2.4,0.4 2.9,1.1 0.5,0.7 1.1,1.6 2,2.9 l 0.6,-0.3 c 0.7,-0.2 1.8,-0.5 3.3,-0.8 -1.1,-0.3 -1.7,-0.7 -1.9,-1.3 -0.2,-0.5 -0.4,-1.2 -0.4,-2.1 -0.1,-0.9 0,-1.6 0.2,-2.3 0.2,-0.7 0.5,-0.9 0.8,-0.9 0.3,0 0.8,0.5 1.3,1.4 0.5,0.9 1.1,1.4 1.9,1.4 0.8,0 1.2,-1.2 1.2,-3.7 0,-1.1 -0.2,-2.3 -0.5,-3.4 -0.3,-1.1 -1.1,-2 -2.2,-2.6 -1,-0.5 -1.5,-2.2 -1.5,-5 l -1.8,-1.8 c -1.9,-2.1 -4.4,-4.4 -7.6,-7 -1.9,-1.5 -5.1,-3.8 -9.6,-6.8 -0.5,-0.3 -1,-0.7 -1.5,-1 -4.2,-2.8 -6.9,-4.6 -8,-5.4 -1.2,-0.9 -2.5,-2 -4,-3.5 -1.5,-1.6 -2.7,-2.8 -3.4,-3.5 -0.1,0 -0.1,-0.1 -0.2,-0.1 -2.2,0.1 -4,0.2 -5.4,0.4 -3.6,0.5 -7.3,1 -11.3,1.4 -5.2,0.5 -10.8,1.4 -16.9,2.5 -4.8,0.9 -8.5,1.4 -11,1.4 -2.5,0.1 -5,0 -7.6,-0.1 -0.2,1 -0.4,2 -0.5,3.1 -0.2,1.4 -0.4,2.6 -0.5,3.8 -0.3,1.7 -0.6,3.2 -0.9,4.4 -0.5,2.2 -0.9,4.5 -1.3,6.7 -0.4,2.2 -1.2,3.8 -2.3,4.6 -1.1,0.8 -2.1,1.5 -3,1.9 -1,0.4 -1.8,0.7 -2.3,0.9 -3.5,1.5 -7.8,3 -12.8,4.4 -5,1.4 -9,2.6 -11.8,3.6 -2.8,1 -4.2,2.1 -4.1,3.5 0.1,1 0.2,2 0.4,2.9 0.5,1.3 1,2.7 1.6,4.3 0.2,0.5 0.3,0.9 0.5,1.4 2.6,6.9 4.9,11.6 6.7,14 1.8,2.4 3.4,4.4 4.9,6 1.1,1.1 1.9,2.8 2.5,5 0.2,0.8 0.4,1.6 0.5,2.5 0.5,3.5 0.7,5.6 0.8,6.3 0.1,0.7 -0.1,1 -0.6,1 h -0.4 v 0.1 c 0.2,1.1 0.2,2.6 0.3,4.8 0,2.3 -0.2,4.1 -0.5,5.4 -0.4,1.5 -1.1,3.1 -2.1,4.8 -4.2,-4.2 -6.7,-7 -7.7,-8.3 -2.5,-3.4 -3.8,-6.9 -3.8,-10.4 0,-1.1 0.6,-1.8 1.7,-2 0.5,-0.1 1.1,-0.2 2,-0.3 -0.2,-0.7 -0.4,-1.4 -0.6,-2.3 l -0.3,-1.5 c -0.1,-0.3 -0.1,-0.5 -0.1,-0.8 -0.1,0.1 -0.3,0.3 -0.6,0.8 -0.1,0.1 -0.3,0.3 -0.5,0.4 -0.7,0.7 -1.7,0.9 -3,0.8 0.2,-0.5 0.4,-0.9 0.5,-1.3 0.3,-0.6 0.5,-1.1 0.6,-1.4 0.2,-0.7 0.3,-1.6 0.3,-2.8 0,-2.3 -0.7,-4.9 -2.1,-7.6 -1.8,-3.1 -3.1,-5.5 -3.9,-7.1 -1.9,-3.4 -3.3,-6 -4.3,-8 -1.2,-2.4 -2.1,-4.6 -2.8,-6.7 l -0.9,-1.2 c -0.9,-1.4 -1.4,-2.8 -1.4,-4 0,-2.2 0.7,-3.5 2.1,-3.9 3,-0.8 4.8,-1.4 5.5,-1.9 1.4,-0.9 2.7,-2.1 4,-3.6 0.4,-0.4 0.8,-0.9 1.2,-1.4 -4.5,1.9 -8.3,3.6 -11.2,5.1 -0.6,0.3 -1.2,0.6 -1.7,0.8 -0.4,0.2 -0.8,0.4 -1.1,0.6 -2.6,1.6 -4.2,4.1 -4.6,7.4 -0.5,4.3 -0.9,8.7 -1.2,13.2 -0.3,4.5 0,8.1 0.7,10.9 0.7,2.7 1.1,4.5 1.1,5.4 0,0.7 -0.4,1.9 -1.3,3.6 -0.5,0.9 -0.8,1.8 -1.1,2.7 -0.3,0.9 -0.6,1.7 -0.7,2.4 -0.3,1.4 -1.1,2.1 -2.5,2.2 0.1,0.9 0.3,1.8 0.4,2.8 0,1.6 -0.4,3.3 -1.3,5.1 -0.7,1.5 -1.6,2.9 -2.8,4.1 -2.2,-2.9 -3.9,-5.1 -5,-6.8 -1.9,-2.9 -2.8,-5.9 -2.8,-9 0,-0.3 0,-0.6 0.1,-0.8 0.1,-0.9 0.6,-1.5 1.3,-1.8 l 3.9,-1.4 c 0.1,-0.4 0.2,-0.8 0.4,-1.2 0.2,-0.5 0.3,-0.9 0.5,-1.3 h -1 c -1.4,-0.1 -2.5,-1 -3.1,-2.8 3.7,0 6,-1.5 6.9,-4.3 0.4,-1.3 0.6,-4.4 0.6,-9.4 0,-5.3 -0.5,-10.6 -1.4,-16.1 -0.9,-5.5 -1.4,-8.3 -1.4,-8.4 0,-2.3 0.3,-3.8 1,-4.5 0.5,-0.6 1.9,-1.3 4.2,-2 1,-0.3 2.4,-1 4.3,-1.9 2.1,-1.1 3.6,-2 4.5,-2.7 1.7,-1.5 3.4,-3.5 5,-5.9 0.5,-0.8 1,-1.7 1.5,-2.6 1.2,-2.2 2.5,-5.1 4,-8.8 -0.6,-0.7 -1.1,-1.6 -1.6,-2.6 -0.1,-0.1 -0.1,-0.2 -0.1,-0.3 -0.8,-1.7 -1.6,-3.7 -2.5,-6.1 -0.7,-2 -1.2,-4.1 -1.5,-6.3 -0.5,-3.3 -0.7,-6.9 -0.5,-10.6 0,-0.1 0,-0.2 0.1,-0.4 0,-0.9 0.2,-1.8 0.4,-2.8 -0.6,0.2 -1.2,0.6 -1.7,1 -0.2,0.1 -0.4,0.3 -0.5,0.5 -0.4,0.4 -0.9,0.8 -1.3,1.3 -0.2,0.3 -0.5,0.6 -0.7,0.9 -1.9,2.6 -3.8,4.2 -5.8,4.8 -2,0.6 -4.2,0.8 -6.4,0.8 -1.1,0 -2.3,-0.1 -3.5,-0.4 -1.1,-0.3 -2.2,-0.7 -3.4,-1.3 -2.5,-1.1 -4.1,-1.7 -4.8,-1.7 -2.1,0 -3.1,1.4 -3.1,4.3 0,1.6 -0.2,2.7 -0.8,3.5 -0.5,0.6 -1.1,1 -2,1 H 294 c -1.9,0.2 -3.6,0.8 -5.3,1.9 -1.9,1.3 -2.9,2.9 -2.9,4.8 0,0.7 0.7,2.3 2.1,4.9 0.1,0.3 0.3,0.5 0.4,0.8 1.7,3.1 2.5,5.3 2.5,6.4 0,4.3 -1.5,7.6 -4.6,9.9 -2.6,2 -5.8,3 -9.5,3 -1,0 -2.2,-0.2 -3.5,-0.5 -1.8,-0.4 -3,-1.3 -3.6,-2.7 3.2,0.5 5.7,0.4 7.4,-0.3 2,-0.8 3,-2.6 3,-5.2 0,-1.4 -0.3,-2.6 -0.8,-3.5 -0.6,-1.1 -1.5,-1.6 -2.6,-1.6 -0.8,0.1 -1.1,0.7 -1,1.8 0.1,1.1 0.1,2.4 -0.2,3.8 -0.3,1.2 -1.7,1.8 -4.1,1.8 -1.7,0 -3.1,-0.3 -4.4,-0.9 -0.6,-0.3 -1.2,-0.7 -1.9,-1.2 -0.2,-0.1 -0.4,-0.3 -0.5,-0.4 -0.2,-0.2 -0.4,-0.3 -0.6,-0.5 0.2,0.1 0.5,0.2 0.8,0.2 0.1,0 0.2,0 0.4,0.1 h 1.4 c 4.4,0 6.6,-1.7 6.6,-5.2 0,-4 -2.5,-7.1 -7.4,-9.4 l -0.6,-0.3 c -2.6,-1.2 -4.1,-1.9 -4.5,-2.2 -1.5,-1 -2.3,-2.2 -2.3,-3.6 0,-1.6 0.8,-3.1 2.5,-4.4 1.7,-1.3 2.5,-2.3 2.5,-3.1 0,-0.7 -0.3,-1.7 -0.8,-2.9 -0.5,-1.2 -0.8,-2 -0.8,-2.4 0,-2 0.9,-3.6 2.6,-5.1 0.2,-0.2 0.5,-0.4 0.8,-0.6 1.2,-0.8 2.9,-1.7 5.2,-2.7 1.9,-0.8 3,-1.3 3.4,-1.5 1.2,-0.6 2,-1.3 2.4,-1.9 0.3,-0.6 0.5,-1.6 0.5,-3 0,-1.3 0.2,-2.3 0.7,-2.8 0.4,-0.4 0.8,-0.8 1.4,-1.1 1.1,-0.6 2.6,-1 4.5,-1.2 0.5,0 1,-0.1 1.5,-0.1 1.4,-0.1 3,-0.2 5,-0.4 0.8,-0.2 1.4,-0.6 1.7,-1.1 0.3,-0.6 0.9,-1.6 1.7,-3 0.3,-0.6 0.7,-1.1 1,-1.6 0.4,-0.6 0.9,-0.9 1.3,-1.1 0.7,-0.3 1.6,-0.4 2.8,-0.4 0.3,0 0.7,0 1,0.1 1.2,0.1 2.3,0.5 3.2,1.1 0.6,0.5 1.7,1.4 3.2,2.9 0.2,0.2 0.4,0.3 0.6,0.6 0.9,0.8 1.8,1.4 2.8,2 0.6,0.3 1.1,0.5 1.8,0.8 1,0.4 2.4,0.8 4.3,1.3 0.8,0.2 2.2,0.4 4.3,0.4 2.2,0.1 3.8,0.2 4.6,0.4 0.8,0.2 1.9,0.9 3.1,2.3 0.7,0.7 1.3,1.3 1.9,1.6 0.5,0.2 1,0.4 1.5,0.4 1,0 2.6,-0.4 4.8,-1.2 h 0.3 c 0.2,-0.1 0.5,-0.2 0.7,-0.3 0.9,-1 2,-1.9 3.1,-2.8 0.4,-0.3 0.8,-0.6 1.1,-0.9 2.5,-2 4.8,-3.6 6.9,-4.9 3.1,-2 5.8,-3.1 8,-3.5 3.9,-0.7 7.5,-0.8 10.9,-0.3 3.4,0.5 8.7,0.5 15.8,0 2.9,-0.2 6,-0.8 9.2,-1.7 0.7,-3 0.86708,-3.83594 2.06708,-7.33594 m 1.74293,-2.08642 C 395.58601,167.82459 397.1,167.8 398.4,167.8 c 3,0 5.3,-0.2 6.9,-0.6 1.9,-0.5 3.7,-1.3 5.4,-2.6 0,-0.5 0.1,-1 0.1,-1.5 0,-0.5 0.1,-1 0.2,-1.4 0.6,-0.4 1.2,-0.7 1.9,-0.9 -0.2,-3.1 -0.4,-4.9 -0.4,-5.6 0,-1.4 1.1,-2.2 3.3,-2.3 v -1.8 c 0,-0.8 0.6,-1.2 1.8,-1.2 0.2,0 0.5,0 0.8,0.1 l -0.1,-1.8 c 0,-0.8 0.1,-1.2 0.3,-1.4 0.2,-0.1 0.6,-0.2 1.5,-0.2 0.4,0 0.8,0.1 1.3,0.3 -0.1,-0.4 -0.2,-0.8 -0.3,-1.3 -0.4,-1.5 -0.9,-2.9 -1.6,-4.1 l -0.3,-0.6 c -1,-1.9 -2.8,-4.3 -5.2,-7.2 -1.5,-1.8 -2.8,-3.5 -3.7,-5 -0.7,-1.1 -1.3,-2.1 -1.7,-3 -0.5,-1.1 -0.9,-2.2 -1.2,-3.4 m -76.1,75.6 c 0.1,-0.1 0.1,-0.2 0.2,-0.3 0.5,-1 1.2,-1.9 1.9,-2.8 -0.8,0.3 -1.5,0.6 -2.4,1.1 -0.8,0.5 -1.5,0.9 -2.1,1.2 -0.9,0.4 -1.5,0.6 -2,0.6 -1.1,0 -2,-0.3 -2.6,-1 -1.3,-1.2 -2.3,-1.9 -3,-2.3 m 14.2,-2 0.6,-0.6 m -2.7,3 c 0.6,-0.8 1.3,-1.5 2,-2.3 l 0.1,-0.1 m 30,-4.5 c 1.1,0.7 2.3,1.6 3.6,2.7 1.5,1.2 2.5,2.2 3.2,2.9 0.9,1.1 1.4,3.4 1.4,6.8 0,0.4 -0.1,1.6 -0.2,3.5 -0.2,2.1 -0.3,3.3 -0.4,3.7 m 16.4,8.9 c 0.5,-1.5 0.8,-3.5 0.8,-6.1 0,-1.3 -0.1,-2.7 -0.3,-4.2 -0.1,-0.7 -0.2,-1.4 -0.4,-2.2 -0.5,-2.6 -0.9,-5.2 -1.1,-7.8 0.5,-0.5 1,-1.1 1.5,-1.6 v -0.2 c -0.3,-1.4 -0.5,-2.8 -0.5,-4.3 0,-3.5 0.6,-7.6 1.7,-12.3 m -1.2,16.9 c 0,-0.1 0,-0.1 0,0 m 43.2,-34.2 c 0.8,-0.7 1.7,-1.2 2.5,-1.6 0.3,-0.2 0.7,-0.4 1.1,-0.8 -0.5,-0.2 -1,-0.4 -1.5,-0.5 -0.3,-0.1 -0.5,-0.1 -0.8,-0.1 m 2.3,0.5 c 1.2,0.5 2.5,1.2 3.9,2.2 0.6,0.4 1.4,1.3 2.4,2.7 0,0.1 0.1,0.1 0.2,0.2 1.7,-0.3 3.2,-1.5 4.6,-3.6 0.8,-1.2 1.4,-2.3 1.8,-3.3 m -19.5,-3.5 c -1,-0.9 -2.4,-1.9 -4.3,-3.1 -2.1,-1.3 -3.8,-2.1 -5,-2.4 m 13.1,8.4 h 0.5 c -0.1,-0.1 -0.1,-0.2 -0.2,-0.3 m -0.3,0.3 c -2.8,0 -5.6,1.2 -8.2,3.6 -1.2,1.1 -2.5,2.5 -3.8,4.3 -1.5,2 -3,4.3 -4.7,7.1 m 17.2,-15 c 0,0.1 0.1,0.2 0.1,0.3 0.2,0.6 0.5,1.1 0.6,1.6 M 418,150.3 c 0.9,0.1 2.1,0.6 3.6,1.3 0.3,0.1 0.6,0.3 0.9,0.4 1.3,0.7 2.5,1.5 3.8,2.3 0.6,0.4 1.3,0.9 1.9,1.4 m 6.1,-0.5 c -1,-1.8 -2,-2.7 -3.1,-2.7 -0.3,0 -0.6,0 -0.9,0.1 0.5,0.5 0.9,1 1.2,1.4 m 22.1,17.9 -0.6,0.6 c -1.9,2 -3.3,3 -4.1,3 -0.7,0 -2.1,-1.2 -4.2,-3.6 -1,-1.1 -2.2,-2.5 -3.5,-4.1 -1.4,-1.8 -2.8,-3.2 -4,-4.4 -0.4,-0.4 -0.7,-0.7 -1.1,-1 -1.2,-1 -2.2,-1.7 -3,-2 -0.8,0.6 -1.6,1.4 -2.5,2.3 -0.1,0.2 -0.3,0.4 -0.6,0.8 -0.9,1.1 -2.4,3 -4.5,5.8 -0.7,1 -1.5,1.9 -2.2,2.7 -2.7,3.1 -5.4,5.3 -8.1,6.7 -1.3,1.6 -2.9,3.3 -4.8,5.3 -0.83149,1.02831 -3.09324,3.61139 -3.88409,4.66585 m -2.33895,2.43317 C 403.07696,192.79902 397.3,204 396.1,206.2 c -1.2,2 -2.5,4.2 -3.9,6.7 -0.8,1.3 -1.7,2.5 -2.6,3.8 v 0 c -0.3,0.4 -0.6,0.7 -0.9,1.1 0.3,-0.8 0.5,-1.3 0.6,-1.4 m 64.2,-53 c -0.5,1.2 -1.4,2.5 -2.6,3.9 -1.8,1.9 -3.3,2.8 -4.5,2.8 -0.5,0 -1,-0.2 -1.6,-0.6 -0.7,-0.5 -1.1,-1.1 -1.1,-1.8 m -0.5,-4.7 0.4,0.4 c 0.6,0.5 1.3,0.7 2.2,0.7 0.7,0 1.5,-0.2 2.4,-0.7 0.3,-0.2 0.6,-0.3 0.9,-0.5 0.9,-0.6 1.5,-1.3 1.9,-1.9 m -35.7,17.6 c 1,-1.2 1.9,-2.3 2.6,-3.3 0.8,-1.2 1.6,-2.4 2.4,-3.4 1.8,-2.6 3.3,-4.6 4.5,-6.1 0.7,-0.9 1.4,-1.7 2,-2.4 2.4,-2.5 4.6,-4.1 6.7,-4.9 m -18,-5.3 h 0.2 c 1.4,0 3.1,0.4 5.3,1.1 0.2,0.1 0.4,0.1 0.6,0.3 1,0.4 1.8,0.8 2.5,1.1 0.6,0.4 1.1,0.8 1.5,1.2 m -13,4.1 c 1.2,-0.4 2.5,-0.7 4,-0.9 0.9,-0.1 1.8,-0.2 2.6,-0.3 2.2,-0.4 3.8,-1.2 4.8,-2.2 m -34,36.9 c 3.77573,-3.9771 7.53159,-8.05444 10.83837,-11.67672 m 2.54405,-2.76944 c 1.8587,-2.07751 4.63643,-5.2025 6.31758,-7.15384 0.2,-0.2 0.4,-0.4 0.5,-0.6 0.1,-0.1 0.2,-0.3 0.4,-0.4 1,-1.2 2.4,-3.2 4.2,-6 0.6,-0.9 1.2,-1.7 1.7,-2.5 1.1,-1.5 2,-2.7 2.8,-3.5 m -7.7,4 c -0.4,0.4 -0.8,0.7 -1.2,1 m -2.2,21.5 c 0.7,-1.3 1.9,-3.5 3.6,-6.6 1.2,-2.2 2.6,-4.9 4.3,-8 m 33.5,-15.7 c 0.1,-0.5 0.2,-1 0.3,-1.4 m 3.6,8.6 v 0.1 0.1 m 1.9,6.3 c -0.3,0.5 -0.9,1.1 -1.6,1.9 0,0.1 0.1,0.1 0.1,0.2 m -0.1,-0.2 -0.1,0.1 m -4.8,2.3 c 0.8,-0.7 1.5,-1.4 2,-2.2 l 0.9,-1.5 c 0.6,-1 1.1,-2.5 1.7,-4.3 m 3.5,45.3 c 0.5,-1.6 0.9,-3.3 1.2,-5.3 0.2,-1.5 0.3,-3.1 0.3,-4.8 0,-5 -0.5,-10.1 -1.4,-15.1 -0.6,-3.3 -1.7,-8.1 -3.3,-14.3 m -7.8,51.9 c 0.1,-0.1 0.1,-0.1 0.3,-0.1 -1.7,-2.8 -2.6,-5 -2.6,-6.6 0,-0.9 0.2,-2.2 0.6,-3.9 0.4,-1.6 0.9,-3 1.4,-4.2 m 7.6,25.3 c -0.9,-1.4 -1.9,-2.9 -3,-4.5 -0.1,-0.1 -0.1,-0.2 -0.2,-0.3 -1.1,-1.7 -2.3,-3.3 -3.4,-4.8 -0.2,-0.3 -0.5,-0.6 -0.7,-0.9 -1.8,-2.2 -3.6,-4.1 -5.4,-5.6 m 5.7,5.4 c 0.2,0.3 0.4,0.6 0.5,1 m 29.5,37.4 c -0.3,-0.8 -0.7,-1.7 -1.3,-2.5 -1.1,-1.6 -3.2,-3.7 -6.4,-6.5 -2.9,-2.5 -5.8,-5.6 -8.8,-9.3 -0.3,-0.4 -0.7,-0.8 -1,-1.3 -0.8,-1 -2.6,-3.8 -5.6,-8.3 5.4,1.6 8.6,2.6 9.5,2.9 2.5,0.8 5,1.9 7.7,3.2 0.5,0.3 1.4,0.7 2.7,1.3 1.1,0.6 1.8,1.3 2.1,1.9 0,0.1 0.1,0.2 0.1,0.3 0.8,1.6 1.7,2.7 2.7,3.3 0.6,2 0.9,4.3 0.9,6.8 0,2.2 -0.3,4.1 -1,5.7 -0.3,1.1 -0.9,2 -1.6,2.5 0.2,0.7 0.3,1.4 0.4,2.1 0,1.5 -0.1,2.7 -0.4,3.6 -0.3,0.8 -0.4,1.4 -0.4,1.8 0,1.2 0.4,2.8 1.2,4.5 0.4,0.9 0.6,1.8 0.8,2.5 m -31.6,-52.9 c 2.7,-1.9 4.9,-3.7 6.5,-5.4 m -38.2,-17.3 c -0.4,1.1 -0.6,2.9 -0.6,5.3 v 0.8 c 0,0.5 0.4,1.3 1.2,2.2 0.5,0.6 1.4,1.6 2.8,3 2.8,3.3 4.6,7.1 5.3,11.4 0.2,1.4 1.1,2.9 2.5,4.4 0.5,0.5 1.1,1.1 2,1.9 0.5,0.4 1,0.9 1.6,1.4 m 33.4,48.3 c -0.9,0.4 -1.5,1 -1.6,1.7 -0.2,0.9 0.8,2.1 3.1,3.6 0.7,0.5 1.3,0.9 1.9,1.1 m -95.7,-50 c 0.6,-1.7 1.1,-3.1 1.5,-4.3 0.2,-0.6 0.4,-1.3 0.5,-1.9 1,-4 1.5,-8.1 1.5,-12.1 0,-1.3 -0.1,-2.6 -0.3,-4 m -35.3,44.2 c 0.6,-0.2 1.2,-0.5 1.8,-0.8 6.9,-2.8 12.2,-4.8 15.8,-5.8 3.6,-1 6.4,-2.4 8.3,-4.3 1,-1 2,-2.1 2.8,-3.4 0.5,-0.8 1,-1.7 1.4,-2.6 0.8,-1.9 1.5,-3.6 2.1,-5.1 2.2,0.4 4.4,0.6 6.6,0.8 m -54.3,-38 c 0.3,0.3 0.9,0.6 1.8,0.9 0.8,0.2 1.4,0.3 1.8,0.3 0.9,0 2.1,-0.5 3.6,-1.4 0.3,-0.2 0.7,-0.4 1.2,-0.6 -0.9,1.5 -1.6,3.1 -2,4.7 -0.1,0.3 -0.2,0.5 -0.2,0.8 m -2.3,1.5 c -0.6,0.5 -1.2,0.9 -1.8,1.3 -1.9,1.2 -3.9,2.1 -5.9,2.6 m 16.2,22.3 c -0.2,0.4 -0.4,0.9 -0.5,1.3 m 9.9,78.9 c 0.3,1 0.8,1.6 1.3,2 1.2,0.7 2.6,1.5 4.1,2.3 2.1,1 3.6,1.6 4.6,1.8 m -10.9,-10.7 c 0.5,-0.8 0.8,-2.2 0.9,-4 M 283.5,189.6 c 0.4,0.2 0.9,0.5 1.4,0.9 0.3,0.3 0.7,0.6 1.1,0.9 0.7,0.7 1.5,1.1 2.2,1.1 0.5,0 0.9,-0.3 1.4,-1.1 0.5,-0.8 0.8,-1.4 1,-1.6 0.8,-1.2 2,-1.9 3.6,-1.9 m 4.2,8.2 h 1.5 c 1.3,-0.1 2.6,0.6 3.9,1.9 0.7,0.7 1.3,1.6 1.9,2.7 0.2,0.4 0.4,0.8 0.6,1.1 0.6,1.4 1.6,2.6 2.8,3.4 0.1,0.1 0.2,0.1 0.4,0.2 0.4,0.3 0.9,0.5 1.4,0.6 0.8,0.3 1.7,0.5 2.6,0.5 0.5,0 0.8,0 0.9,-0.1 0.2,0 0.6,-0.2 1.2,-0.4 m -4.3,-16.4 c 0.1,0 0.9,0.7 2.4,1.9 0.9,0.7 1.8,1.1 2.7,1.1 0.5,0 1.1,-0.1 1.9,-0.4 0.7,-0.3 1.3,-0.4 1.8,-0.4 1.1,0 2.1,0.4 3,1.1 1.6,1.2 2.6,1.9 2.8,2 m -6.9,10.6 c 0.3,0.1 0.9,0.1 1.7,0.1 2.3,0 4.4,-0.8 6.4,-2.4 m -18.5,101 c -0.1,0.5 -0.2,0.9 -0.2,1.3 0,0.5 0.2,1.1 0.7,2 0.3,0.6 0.7,1.2 1.3,1.9 1.3,1.8 2.7,2.7 4.3,2.7 h 0.3 m -5.5,-10.3 c 0.9,0 1.6,-0.1 2,-0.3"
   id="path76"
   style="display:inline;stroke:#000000;stroke-opacity:1"
   sodipodi:nodetypes="ccsscccsccccccsssccscccccccscscsccsscccscsscccccssssssccccccccccccccccccssccssccccscccssccccccsccccccccccsccsccsccccccccscscsccccccsccccccccsssccccccccccccccccccssccsscsccsccscscccsccscsccscscsscccssssscscscssccccccccsccscccccsccscccccccsccccsccsccscsscccscccccccccccccsccccccccccscccscccccsccccccccccccsccccccccccccccccccccsccccsccsccccccccccccssccccsccccscsccccccccsccccccccccccccccccccccccccccccccccscccsccccsccccccccccccccccccccccsccccscccccsscccccccccccscscccssccccccsccccccccccccccccccssccccscccccsccccscscccsccsccsccc" />&#10;		</g>&#10;		<g
   transform="translate(-246.35,21.35)"
   id="g81"
   style="stroke:#000000;stroke-opacity:1">&#10;			<g
   id="g78"
   style="display:none;stroke:#000000;stroke-opacity:1">&#10;				<g
   id="g77"
   style="stroke:#000000;stroke-opacity:1">&#10;					<path
   class="st1"
   d="m 688.5,130.6 c 0,0 0,0.1 0,0.1 z"
   id="path77"
   style="stroke:#000000;stroke-opacity:1" />&#10;				</g>&#10;			</g>&#10;			<g
   id="g80"
   style="stroke:#000000;stroke-opacity:1">&#10;				&#10;					<radialGradient
   id="SVGID_17_"
   cx="476.35001"
   cy="371.49741"
   r="87.287498"
   gradientTransform="matrix(1,0,0,-1.063,201,444.1555)"
   gradientUnits="userSpaceOnUse">&#10;					<stop
   offset="0"
   style="stop-color:#CEEDF4"
   id="stop78" />&#10;					<stop
   offset="0.5412"
   style="stop-color:#A8F2F4"
   id="stop79" />&#10;					<stop
   offset="1"
   style="stop-color:#208AE0"
   id="stop80" />&#10;				</radialGradient>&#10;				<path
   class="st17"
   d="m 642.2,61.9 c 0.4,-0.3 0.9,-0.4 1.4,-0.2 0.1,0 0.3,-0.1 0.6,-0.1 h 0.4 c 0.8,0 1.7,0.2 2.6,0.7 0.9,0.4 1.8,0.6 2.8,0.6 h 0.3 c 1.3,-0.1 2.3,-0.6 3.1,-1.7 0.2,-0.3 0.8,-1.5 1.9,-3.6 1.8,-3.5 4.7,-5.3 8.7,-5.3 0.3,0 0.6,0 0.9,0.1 0.9,-0.3 1.9,-0.7 2.9,-1.2 0.8,-0.3 1.6,-0.6 2.3,-0.8 1.7,-0.5 3.3,-0.8 4.7,-0.8 1.4,0 2.5,0.3 3.5,0.8 0.7,0.4 1.2,0.8 1.7,1.4 0.7,0.9 1.1,2.1 1.3,3.6 0.3,0.2 0.5,0.5 0.8,0.8 l 1.8,1.8 c 0,0 0.7,0.5 2,1.5 0.5,0.4 0.8,1 0.8,2 0,0.7 -0.1,3.2 -0.3,7.5 0,0.8 -0.8,1.9 -2.3,3.6 -0.2,0.6 -0.5,1.2 -0.9,1.8 -0.8,1.3 -1.9,2 -3.1,2 h -0.5 v 0 c -0.2,0.8 -0.5,1.6 -0.8,2.5 0.1,0.4 0.2,0.9 0.4,1.5 0.1,0.5 0.0918,0.518244 0.19177,0.918244 M 720.3,99.3 c -1.1,0.6 -2.2,1.2 -3.4,1.8 -1.9,0.9 -3.8,1.6 -5.8,2.1 -3.9,1.1 -9.2,1.8 -15.8,2.3 0,0.5 0.1,0.9 0.1,1.4 v 0.8 c 0,1.3 -0.2,2.2 -0.5,2.8 -0.2,0.4 -0.5,0.7 -0.8,0.9 0.1,1.5 0.2,3.1 0.2,4.8 v 1.1 c 0,0.8 -0.1,1.6 -0.1,2.5 -0.1,1.2 -0.2,2.4 -0.3,3.8 v 0.3 0.8 c 0.1,2.2 0.5,4.2 1.1,6.2 0.1,0.4 0.3,0.8 0.4,1.3 0.3,1.1 0.6,2 0.9,2.8 M 664.9,52.4 c 0.8,0.1 1.6,0.2 2.5,0.5 0.5,0.1 1.3,0.4 2.4,0.7 l 0.9,0.3 c 0.1,0 0.3,0.1 0.5,0.1 0.8,0.1 1.8,0.2 3.2,0.3 1.9,0.4 2.4,1.6 1.8,3.5 m -38.6,17.1 c -0.1,-0.4 -0.2,-1 -0.4,-1.7 -0.1,-0.5 -0.2,-0.9 -0.3,-1.3 -0.1,-0.6 -0.2,-1.1 -0.2,-1.6 0,-0.6 0.1,-1.2 0.2,-1.7 -0.1,-0.5 -0.2,-0.9 -0.2,-1.3 0,-1.7 0.5,-3 1.7,-3.8 l 0.9,-0.6 c 0.6,-0.3 1.3,-0.4 2,-0.4 h 0.2 0.3 c 0.1,0 0.3,0 0.5,0.1 1.6,0.2 3.2,1.1 5,2.7 0.1,0 0.1,0.1 0.2,0.2 0.4,0.3 0.7,0.6 1,0.9 v 0.1 c 0.1,0.1 0.2,0.1 0.3,0.2 v 0.1 c 0.1,0 0.1,0.1 0.2,0.1 -0.1,0 -0.1,-0.1 -0.2,-0.2 l -0.3,-0.3 v 0 c -2.2,-2.6 -3.6,-4.1 -4.3,-4.5 -0.2,-0.1 -0.4,-0.2 -0.6,-0.2 m 3.7,3.7 c 0,0 0.1,0.1 0.1,0.2 0.4,0.3 0.7,0.6 1.1,0.9 M 637,68.8 c 0.3,-1.2 0.9,-2.3 1.8,-3.1 0.2,-0.1 0.3,-0.3 0.5,-0.4 0.6,-0.4 1.2,-0.7 1.9,-0.8 0.2,-0.1 0.3,-0.1 0.5,-0.2 0.4,-0.1 0.8,-0.1 1.2,-0.1 1.6,0 3,0.4 4.3,1.3 m -5.7,6.6 c 0.1,-0.2 0.1,-0.3 0.3,-0.5 0.1,-0.3 0.3,-0.5 0.5,-0.7 0,0 0.1,-0.1 0.2,-0.1 0,-0.1 0.1,-0.1 0.1,-0.2 0.2,-0.2 0.4,-0.3 0.6,-0.5 0.8,-0.6 1.5,-0.8 2.3,-0.8 1.2,0 2.5,0.5 3.9,1.6 1.4,1.1 2.9,1.6 4.5,1.6 2.5,0 4.5,-1.4 6,-4.2 m 5.3,36 c 0.2,0 1,0.1 2.2,0.3 h 0.4 c 0,-0.1 -0.1,-0.1 -0.2,-0.2 -1.3,-1.5 -3,-3.6 -5,-6.4 -0.6,-0.2 -1,-0.3 -1.3,-0.3 -1.1,0 -2.5,0.5 -4.3,1.5 -0.5,0.5 -1,0.8 -1.6,1.2 -0.6,0.3 -1.3,0.6 -2,0.8 -0.9,0.2 -2,0.3 -3.1,0.3 -2.7,0 -5.5,-0.4 -8.4,-1.3 -1.1,-0.3 -2.1,-0.7 -3.2,-1.2 -1,0.4 -2,0.6 -3,0.6 -2,0 -5.4,-0.7 -10.2,-2.2 -4.9,-1.5 -7.8,-2.4 -8.8,-2.7 m 1.6,-6.8 c 0.8,0 2.2,0.1 4.2,0.2 1.8,0 4.2,-0.3 7.4,-0.8 3.2,-0.5 5.6,-0.8 7.2,-0.8 0.8,0 2.4,0.4 4.8,1.3 h 0.2 c 0.3,0.1 0.6,0.3 0.9,0.4 2.4,-0.6 4.8,-0.8 7.2,-0.5 0.1,-0.1 0.2,-0.1 0.3,-0.2 2.6,-2.2 5.4,-3.3 8.5,-3.3 1.1,0 2.3,0.3 3.7,0.8 0.6,0.2 1,0.5 1.4,0.8 0.7,-0.4 1.5,-0.8 2.5,-1.2 1,-0.5 1.8,-0.8 2.5,-1.2 -0.3,-0.2 -0.6,-0.5 -0.9,-0.8 -1.1,-1 -2,-2.3 -2.8,-3.8 -0.4,-0.9 -1.1,-2.7 -1.9,-5.3 -0.1,-0.3 -0.1,-0.5 -0.2,-0.8 -0.6,0.8 -1,1.4 -1.3,1.8 -1.4,1.7 -3,2.5 -4.8,2.5 -0.9,0 -1.7,-0.2 -2.4,-0.6 -0.2,-0.1 -0.5,-0.3 -0.7,-0.5 -0.4,0 -0.9,0.1 -1.3,0.1 -2.5,0 -4.8,-0.8 -7.1,-2.4 -1.3,-0.9 -2.3,-1.9 -2.9,-2.9 m 6.2,-3.8 c 1.4,1.5 3,2.2 4.8,2.2 1,0 2.1,-0.7 3.3,-2 1.4,-1.6 2.3,-2.4 2.8,-2.7 0.7,-0.3 1.6,-0.7 2.9,-1.1 0.2,-0.1 0.5,-0.2 0.8,-0.3 0.7,-0.4 1.3,-0.8 1.5,-1.5 -0.5,0.2 -1,0.3 -1.5,0.3 h -0.5 c -0.7,-0.1 -1.6,-0.3 -2.5,-0.5 -1.2,-0.4 -2,-0.6 -2.5,-0.6 -0.6,0 -1.3,0.2 -1.9,0.6 -0.7,0.4 -1.2,1 -1.5,1.7 M 670,58.2 c 0.4,0.6 1,1.2 1.7,1.6 0.8,0.4 1.5,0.7 2.3,0.7 1,0 1.8,-0.3 2.5,-0.8 0.2,-0.2 0.5,-0.4 0.7,-0.7 M 665,61.6 c 0.5,-0.2 1,-0.4 1.5,-0.7 0,0 0.1,0 0.1,-0.1 h -0.2 c -1.2,0 -2.4,-0.3 -3.7,-0.8 -1.3,-0.5 -2.2,-1.1 -2.7,-1.8 m 6.7,2.6 c 0.8,0 1.8,-0.1 2.9,-0.4 0.8,-0.2 1.5,-0.4 2.1,-0.7 m -5.2,11 -4.3,-0.5 c 0,0.2 0.1,0.4 0.1,0.6 0.1,0.6 0.3,1.3 0.6,2.2 m -0.7,-2.8 c -0.1,-0.5 -0.2,-0.8 -0.2,-0.9 0,-0.9 0.3,-2.9 0.8,-5.9 m -9,12.7 c 1.8,-0.3 3.6,-1 5.3,-2.2 1.3,-0.9 2.3,-1.9 3.3,-3.2 m 7.2,-0.6 c 0.2,-0.1 1.1,-0.4 2.5,-0.9 1.5,-0.5 2.4,-0.8 2.7,-0.8 m -11.8,3.5 3.3,0.2 0.4,5 h 0.8 c 0.2,0 0.6,0 1.1,0.1 0.5,0 1.1,-0.3 1.8,-1 m -0.4,-4.9 2.5,-0.8 m 8.8,-11.9 c 0.1,-1.2 0.1,-2.2 0,-3.2 m -4.7,4.2 c 0.2,1 0.3,2.2 0.3,3.7 -0.1,1.6 0.2,2.6 0.8,3.1 0.7,0.6 1.3,1.4 1.7,2.5 0.2,0.6 0.4,1.2 0.5,1.9 0.2,-0.6 0.6,-1.1 1.3,-1.4 0.6,-0.4 1.1,-0.6 1.5,-0.6 0.6,0 1,0.3 1.3,0.8 0.2,0.4 0.4,0.9 0.4,1.4 0,0.6 -0.1,1.1 -0.2,1.7 m -4.7,3.7 v -0.3 -0.7 m -4.2,-23.6 c 0.8,0.4 1.3,1 1.7,1.8 0.4,0.8 0.5,1.7 0.4,2.6 m 18.7,39.1 c 0.1,-0.5 0.6,-1.2 1.5,-1.9 m -3.8,17.9 c -0.6,0.3 -1.3,0.4 -2.3,0.3 m -8.6,1.8 h 1 c 1.8,-0.2 2.9,0.5 3.2,2.2 0.2,1 0.3,3 0.2,5.9 0.1,1.4 0.1,3.2 0.2,5.4 0.1,1.6 0.5,2.8 1.1,3.6 v 0 0.1 c 0,0 -0.1,-0.1 0,-0.1 M 675.4,91.6 c 2.6,1.2 4.7,3.1 6.2,5.6 1.5,2.5 2.2,5.2 2.2,8.3 0,1.8 -0.3,3 -1,3.5 -0.6,0.5 -2,0.8 -4.1,0.8 -1,0 -1.9,-0.1 -2.6,-0.2 -1.1,-0.2 -2.1,-0.4 -3.1,-0.6 m 4.4,8.9 c -0.7,1 -1.1,2.2 -1.1,3.5 0,0.7 0.1,1.3 0.2,1.8 m 14.9,-27.9 c 2.2,3.1 3.5,6.4 3.8,10.1 m -25.4,-18.1 -0.9,-3.6 -0.1,-0.1 m -0.5,-4 c 0.3,0 0.6,0.1 1,0.2 0.4,0 1.3,-0.3 2.7,-0.8 m -2.7,2.3 c 0.4,0 1.3,-0.1 2.7,-0.4 m 6.7,-2 c -0.2,0.4 -0.4,0.8 -0.6,1.3 -1.6,3.1 -3.5,4.7 -6,4.7 -1.1,0 -2.2,-0.4 -3.3,-1.2 m -3,4.1 c 3.2,1.7 5.7,2.7 7.4,3 m -9.4,-4.9 c 0.6,0.4 1,0.8 1.2,1.2 m -5.7,6.6 c 1.2,1.6 2.3,3.1 3.3,4.4 m -5.6,1.2 c 0.8,-0.9 1.4,-2.1 1.8,-3.6 m -8.7,-7.9 c 0.2,0 0.3,0 0.5,0.1 1.3,0.2 2.5,0.6 3.8,1.2 m -11.5,-0.8 c 0.5,0.2 1,0.4 1.4,0.6 m -0.9,6.9 c -0.6,0.5 -1.1,0.9 -1.6,1.3 -0.4,0.3 -0.7,0.5 -1,0.8 -0.2,0.2 -0.5,0.3 -0.7,0.4 -0.5,0.3 -1,0.6 -1.5,0.8 m 2.2,-4.8 4.8,-0.6 m 17.3,13.9 c 0.6,0.6 1.4,1.1 2.6,1.4 1,0.3 1.9,0.4 2.8,0.4 m -0.5,-4.7 c 0.5,0.6 1,1.1 1.4,1.5 m -7.3,4.9 c 0.7,0.5 1.5,0.9 2.5,1.2 1,0.3 1.8,0.3 2.5,0.2 m 4.9,11.1 c 0,0.5 0.6,2.3 1.8,5.6"
   id="path80"
   style="stroke:#000000;stroke-opacity:1"
   sodipodi:nodetypes="ccsscscccscccscccsccscccscscccccccssscsscccccccccccccccccscsscscsccccccccscsccccccccccscccccccsssccccccscccsccsccccsscccccscccccccccsccscccscccccsccsccccscccccsscccccccccsccccccccccsccccccccccccscscccccsccccccccccsccccsscscccscccccccccccccsccccccccccccccccsccccccccccsccc" />&#10;			</g>&#10;		</g>&#10;	</g>&#10;	<g
   id="弓"
   transform="translate(-246.35,21.35)"
   style="stroke:#000000;stroke-opacity:1">&#10;		<g
   id="g87"
   style="display:none;stroke:#000000;stroke-opacity:1">&#10;			<g
   id="g86"
   style="stroke:#000000;stroke-opacity:1">&#10;				&#10;					<radialGradient
   id="SVGID_18_"
   cx="246.35001"
   cy="380.64999"
   r="275.52499"
   fx="245.2695"
   fy="380.64999"
   gradientTransform="matrix(1,0,0,-1,176.8,581.65)"
   gradientUnits="userSpaceOnUse">&#10;					<stop
   offset="0"
   style="stop-color:#011B31"
   id="stop81" />&#10;					<stop
   offset="0.1451"
   style="stop-color:#325276"
   id="stop82" />&#10;					<stop
   offset="0.2863"
   style="stop-color:#0464A5"
   id="stop83" />&#10;					<stop
   offset="0.549"
   style="stop-color:#3780C8"
   id="stop84" />&#10;					<stop
   offset="0.9608"
   style="stop-color:#205CE0"
   id="stop85" />&#10;					<stop
   offset="1"
   style="stop-color:#205CE0"
   id="stop86" />&#10;				</radialGradient>&#10;				<path
   class="st18"
   d="m 380.2,126.8 c 0.5,5.5 0.9,9 1.1,10.4 0.8,4.3 2.3,7.5 4.3,9.6 4.5,4.7 10,9.6 16.6,14.9 0.4,0.3 0.7,0.6 1.1,0.9 0.1,0.1 0.1,0.1 0.3,0.2 5.6,4.4 10.1,10.1 13.4,17.2 0,0.1 0.1,0.1 0.1,0.2 2.9,6.2 4.5,12.5 4.9,19 0,0.9 0,1.8 0,2.7 0.8,-0.2 1.3,-0.6 1.5,-1 0.2,-0.5 0.3,-1 0.4,-1.5 0,-0.5 0,-2.4 -0.3,-5.8 -0.1,-0.8 -0.1,-1.5 -0.3,-2.3 0,-0.1 0,-0.3 0,-0.4 -0.4,-2.7 -1.2,-5.6 -2.3,-8.6 -1.5,-4.2 -3.4,-7.9 -5.8,-11.3 -1.4,-2 -4,-4.8 -7.9,-8.4 -1.5,-1.5 -3.3,-3.1 -5.2,-4.8 -1.5,-1.3 -3.1,-2.8 -4.8,-4.3 0,0 -0.1,-0.1 -0.1,-0.1 -1.9,-1.5 -3.6,-2.9 -4.9,-4.2 -0.1,-0.1 -0.2,-0.2 -0.3,-0.3 -1.3,-1.3 -2.4,-2.6 -3.2,-3.8 -1.6,-2.5 -2.6,-5.4 -3.1,-8.9 -0.3,-2.1 -0.4,-6.2 -0.4,-12.4 0,-0.9 0,-1.8 0,-2.7 H 376 c 2.5,1 3.8,2.6 4,4.8 0.1,0.3 0.2,0.6 0.2,0.9 m 5.2,-5.6 c 0,-0.8 -0.1,-1.6 -0.1,-2.4 H 376 c -0.7,1 -0.6,1.8 0.1,2.4 h 9.3 M 386,92.3 h -7.6 v 16.9 c -0.2,1.9 -0.5,3.6 -0.9,5 -0.2,0.8 -0.6,1.8 -1,3 -0.1,0.2 -0.2,0.4 -0.3,0.7 -0.1,0.3 -0.2,0.7 -0.3,0.9 h 9.3 c -0.1,-2.4 -0.1,-4.8 -0.3,-7 0,-0.4 0,-0.9 0,-1.3 0,-7.1 0.3,-13.1 1.1,-18.2 m -7.6,-2.5 c -0.6,1.1 -0.6,1.9 0,2.4 h 7.6 c 0.1,-0.8 0.3,-1.6 0.5,-2.4 h -8.1 M 421,26.1 c 0.6,2.6 0.8,6.4 0.7,11.4 -0.1,5.3 -2.1,10 -5.9,14.2 -3.9,4.1 -9.1,8.2 -15.8,12.3 -6.7,4.1 -11.1,8.6 -13.3,13.5 -2.2,4.9 -3.7,8 -4.6,9.2 -0.8,1 -2,2.1 -3.7,3.2 h 8.1 c 0.6,-2.6 1.3,-5 2.1,-7.1 2.7,-6.8 7.6,-12.5 14.6,-17.2 5.9,-3.9 9.3,-6.2 10.2,-6.9 1.4,-1.1 2.6,-2.1 3.7,-3.2 2.1,-2.1 3.8,-4.3 4.9,-6.5 0.7,-1.3 1.4,-3.2 2,-5.5 0.5,-2 0.7,-4.2 0.8,-6.5 0,-0.2 0,-0.4 0,-0.6 0,-2.6 -0.2,-4.9 -0.7,-7.1 C 423.7,27 422.6,26 421,26.1 Z"
   id="path86"
   style="fill:url(#SVGID_18_);stroke:#000000;stroke-opacity:1" />&#10;			</g>&#10;		</g>&#10;		<g
   id="g89"
   style="stroke:#000000;stroke-opacity:1">&#10;			&#10;				<radialGradient
   id="SVGID_19_"
   cx="246.35001"
   cy="388.47198"
   r="87.0625"
   gradientTransform="matrix(1,0,0,-1.0447,183,518.8181)"
   gradientUnits="userSpaceOnUse">&#10;				<stop
   offset="0"
   style="stop-color:#CEEDF4"
   id="stop87" />&#10;				<stop
   offset="0.5412"
   style="stop-color:#A8F2F4"
   id="stop88" />&#10;				<stop
   offset="1"
   style="stop-color:#208AE0"
   id="stop89" />&#10;			</radialGradient>&#10;			<path
   class="st19"
   d="m 386.5,89.8 c 0.6,-2.6 1.3,-5 2.1,-7.1 2.7,-6.8 7.6,-12.5 14.6,-17.2 5.9,-3.9 9.3,-6.2 10.2,-6.9 1.4,-1.1 2.6,-2.1 3.7,-3.2 2.1,-2.1 3.8,-4.3 4.9,-6.5 0.7,-1.3 1.4,-3.2 2,-5.5 0.5,-2 0.7,-4.2 0.8,-6.5 v -0.6 c 0,-2.6 -0.2,-4.9 -0.7,-7.1 -0.4,-2.2 -1.5,-3.2 -3.2,-3 0.6,2.6 0.8,6.4 0.7,11.4 -0.1,5.3 -2.1,10 -5.9,14.2 -3.9,4.1 -9.1,8.2 -15.8,12.3 -6.7,4.1 -11.1,8.6 -13.3,13.5 -2.2,4.9 -3.7,8 -4.6,9.2 -0.8,1 -2,2.1 -3.7,3.2 h 8.2 c -0.2,0.8 -0.3,1.6 -0.5,2.4 -0.47802,3.04736 -0.8623,7.97325 -1.01203,11.71334 m 0.012,6.48666 v 1.3 c 0.1,2.2 0.2,4.6 0.3,7 0,0.8 0,1.6 0.1,2.4 v 2.7 c 0,6.2 0.2,10.4 0.4,12.4 0.4,3.4 1.5,6.4 3.1,8.9 0.8,1.2 1.9,2.5 3.2,3.8 l 0.3,0.3 c 1.4,1.3 3,2.7 4.9,4.2 l 0.1,0.1 c 1.7,1.5 3.3,2.9 4.8,4.3 1.9,1.7 3.7,3.3 5.2,4.8 3.9,3.7 6.5,6.5 7.9,8.4 2.3,3.3 4.2,7.1 5.8,11.3 1.1,3.1 1.9,6 2.3,8.6 l 30.12987,-78.50721 M 454.39533,101.06186 424.9,37.1 m -46.5,52.7 c -0.6,1.1 -0.6,1.9 0,2.4 h 7.6 m -7.6,0.1 0.14724,12.23736 M 376.5,117.2 c -0.1,0.2 -0.2,0.4 -0.3,0.7 -0.1,0.3 -0.2,0.7 -0.3,0.9 h 9.3 m -9.2,0 c -0.7,1 -0.6,1.8 0.1,2.4 h 9.3 m -9.3,0 c 2.5,1 3.8,2.6 4,4.8 0,0.3 0,0.5 0.1,0.8 0.5,5.5 0.9,9 1.1,10.4 0.8,4.3 2.3,7.5 4.3,9.6 4.5,4.7 10,9.6 16.6,14.9 0.4,0.3 0.7,0.6 1.1,0.9 0.1,0.1 0.1,0.1 0.3,0.2 5.6,4.4 10.1,10.1 13.4,17.2 0,0.1 0.1,0.1 0.1,0.2 2.9,6.2 4.5,12.5 4.9,19 v 2.7 c 0.8,-0.2 1.3,-0.6 1.5,-1 0.2,-0.5 0.3,-1 0.4,-1.5 0,-0.5 0,-2.4 -0.3,-5.8 -0.1,-0.8 -0.1,-1.5 -0.3,-2.3 v -0.4"
   id="path89"
   style="stroke:#000000;stroke-opacity:1"
   sodipodi:nodetypes="ccccscccsccccsscccccccccsccscccccccccccccccccscccccccccccccccccccccc" />&#10;		</g>&#10;	</g>&#10;	<g
   id="箭"
   transform="translate(-246.35,21.35)"
   style="stroke:#000000;stroke-opacity:1">&#10;		<g
   id="g110"
   style="display:none;stroke:#000000;stroke-opacity:1">&#10;			<g
   id="g109"
   style="stroke:#000000;stroke-opacity:1">&#10;				&#10;					<radialGradient
   id="SVGID_20_"
   cx="246.35001"
   cy="380.64999"
   r="0.1"
   gradientTransform="matrix(1,0,0,-1,206.75,490.55)"
   gradientUnits="userSpaceOnUse">&#10;					<stop
   offset="0"
   style="stop-color:#FFFFFF"
   id="stop90" />&#10;					<stop
   offset="0.2431"
   style="stop-color:#FFFFFF"
   id="stop91" />&#10;					<stop
   offset="0.6941"
   style="stop-color:#4BE4F1"
   id="stop92" />&#10;					<stop
   offset="1"
   style="stop-color:#3780C8"
   id="stop93" />&#10;				</radialGradient>&#10;				<path
   class="st20"
   d="M 453.1,109.9 H 453 Z"
   id="path93"
   style="fill:url(#SVGID_20_);stroke:#000000;stroke-opacity:1" />&#10;				&#10;					<radialGradient
   id="SVGID_21_"
   cx="246.35001"
   cy="380.64999"
   r="0.09998703"
   gradientTransform="matrix(1,0,0,-1,206.75,480.75)"
   gradientUnits="userSpaceOnUse">&#10;					<stop
   offset="0"
   style="stop-color:#FFFFFF"
   id="stop94" />&#10;					<stop
   offset="0.2431"
   style="stop-color:#FFFFFF"
   id="stop95" />&#10;					<stop
   offset="0.6941"
   style="stop-color:#4BE4F1"
   id="stop96" />&#10;					<stop
   offset="1"
   style="stop-color:#3780C8"
   id="stop97" />&#10;				</radialGradient>&#10;				<path
   class="st21"
   d="m 453,100.1 0.1,0.1 c 0,0 0,-0.1 0,-0.1 z"
   id="path97"
   style="fill:url(#SVGID_21_);stroke:#000000;stroke-opacity:1" />&#10;				&#10;					<radialGradient
   id="SVGID_22_"
   cx="246.35001"
   cy="380.64999"
   r="159.3125"
   gradientTransform="matrix(1,0,0,-1,167,485.15)"
   gradientUnits="userSpaceOnUse">&#10;					<stop
   offset="0"
   style="stop-color:#FFFFFF"
   id="stop98" />&#10;					<stop
   offset="0.2431"
   style="stop-color:#FFFFFF"
   id="stop99" />&#10;					<stop
   offset="0.6941"
   style="stop-color:#4BE4F1"
   id="stop100" />&#10;					<stop
   offset="1"
   style="stop-color:#3780C8"
   id="stop101" />&#10;				</radialGradient>&#10;				<path
   class="st22"
   d="m 459.2,110.6 -3.4,-4.9 v -0.1 h -14.9 c 0.8,0.8 2.5,2 5.3,3.8 h 0.3 c -0.1,-0.7 -0.4,-1.5 -0.9,-2.4 0.9,0.6 1.9,1.1 2.9,1.4 l 4.6,1.6 h 0.1 c -0.5,-0.8 -1,-1.6 -1.5,-2.4 0.8,0.5 1.6,0.9 2.3,1.2 0.9,0.2 2.7,0.9 5.2,1.8 m -3.4,-6.3 3.4,-4.9 c -2.5,0.9 -4.3,1.5 -5.3,1.9 -0.7,0.3 -1.5,0.7 -2.3,1.2 0.5,-0.8 1,-1.5 1.5,-2.3 l -0.1,-0.1 -4.6,1.6 c -1,0.3 -1.9,0.8 -2.9,1.4 0.5,-0.9 0.8,-1.7 0.9,-2.4 h -0.3 c -2.7,1.7 -4.5,3 -5.3,3.8 l 15,-0.2 v 0 m -88.4,1.3 v -1.2 -2.1 c -1.4,1.2 -3.2,0.8 -5.3,-1.3 -2.3,1.8 -4.8,3.1 -7.5,3.9 2.7,0.8 5.2,2.1 7.4,3.9 2.1,-2 3.8,-2.4 5.3,-1.3 v -1.9 m 0.1,-1.2 v 1.2 h 73.5 14.9 l 0.1,0.1 c 0.4,-0.4 0.4,-0.8 0,-1.3 l -0.1,0.1 h -14.9 -73.5 z"
   id="path101"
   style="fill:url(#SVGID_22_);stroke:#000000;stroke-opacity:1" />&#10;				&#10;					<radialGradient
   id="SVGID_23_"
   cx="246.35001"
   cy="380.64999"
   r="0.1"
   gradientTransform="matrix(1,0,0,-1,209.45,486.3)"
   gradientUnits="userSpaceOnUse">&#10;					<stop
   offset="0"
   style="stop-color:#FFFFFF"
   id="stop102" />&#10;					<stop
   offset="0.2431"
   style="stop-color:#FFFFFF"
   id="stop103" />&#10;					<stop
   offset="0.6941"
   style="stop-color:#4BE4F1"
   id="stop104" />&#10;					<stop
   offset="1"
   style="stop-color:#3780C8"
   id="stop105" />&#10;				</radialGradient>&#10;				<path
   class="st23"
   d="m 455.8,105.7 c 0,0 0.1,0 0,0 z"
   id="path105"
   style="fill:url(#SVGID_23_);stroke:#000000;stroke-opacity:1" />&#10;				&#10;					<radialGradient
   id="SVGID_24_"
   cx="246.35001"
   cy="380.64999"
   r="0.050001141"
   gradientTransform="matrix(1,0,0,-1,209.45,485)"
   gradientUnits="userSpaceOnUse">&#10;					<stop
   offset="0"
   style="stop-color:#FFFFFF"
   id="stop106" />&#10;					<stop
   offset="0.2431"
   style="stop-color:#FFFFFF"
   id="stop107" />&#10;					<stop
   offset="0.6941"
   style="stop-color:#4BE4F1"
   id="stop108" />&#10;					<stop
   offset="1"
   style="stop-color:#3780C8"
   id="stop109" />&#10;				</radialGradient>&#10;				<path
   class="st24"
   d="m 455.9,104.3 c -0.1,0 -0.1,0 0,0 l -0.1,0.1 z"
   id="path109"
   style="fill:url(#SVGID_24_);stroke:#000000;stroke-opacity:1" />&#10;			</g>&#10;		</g>&#10;		<g
   id="g112"
   style="stroke:#000000;stroke-opacity:1">&#10;			&#10;				<radialGradient
   id="SVGID_25_"
   cx="246.35001"
   cy="377.20749"
   r="111.025"
   gradientTransform="matrix(1,0,0,-0.9815,133.5,475.2426)"
   gradientUnits="userSpaceOnUse">&#10;				<stop
   offset="0"
   style="stop-color:#CEEDF4"
   id="stop110" />&#10;				<stop
   offset="0.5412"
   style="stop-color:#A8F2F4"
   id="stop111" />&#10;				<stop
   offset="1"
   style="stop-color:#208AE0"
   id="stop112" />&#10;			</radialGradient>&#10;			<path
   class="st25"
   d="m 367.4,104.4 v 1.2 h 73.5 l 7.36899,0.13882 m 0.13882,-1.26941 -7.61193,-0.0347 L 367.4,104.4 v -2.1 c -1.4,1.2 -3.2,0.8 -5.3,-1.3 -2.3,1.8 -4.8,3.1 -7.5,3.9 2.7,0.8 5.2,2.1 7.4,3.9 2.1,-2 3.8,-2.4 5.3,-1.3 v -2.1 m 85.8,-5.2 c -0.5,0.8 -1,1.6 -1.5,2.3 0.8,-0.5 1.6,-0.9 2.3,-1.2 1,-0.4 2.8,-1 5.3,-1.9 l -2.0465,2.74828 m -7.81646,6.53348 c -1,-0.3 -2.83704,-1.18176 -3.83704,-1.78176 0.5,0.9 0.8,1.7 0.9,2.4 h -0.3 c -2.7,-1.7 -4.5,-3 -5.3,-3.8 m 12.2,-5.4 -4.6,1.6 c -1,0.3 -1.9,0.8 -2.9,1.4 0.5,-0.9 0.8,-1.7 0.9,-2.4 h -0.3 c -2.7,1.7 -4.5,3 -5.3,3.8 m 12.2,-4.4 h 0.1 v 0.1"
   id="path112"
   style="stroke:#000000;stroke-opacity:1"
   sodipodi:nodetypes="cccccccccccccccccccccccccccccccc" />&#10;		</g>&#10;	</g>&#10;	<g
   id="手2"
   transform="translate(-246.35,21.35)"
   style="display:inline;stroke:#000000;stroke-opacity:1">&#10;		<g
   id="g119"
   style="display:none;stroke:#000000;stroke-opacity:1">&#10;			<g
   id="g118"
   style="stroke:#000000;stroke-opacity:1">&#10;				&#10;					<radialGradient
   id="SVGID_26_"
   cx="-177.64999"
   cy="495.5546"
   r="34.799999"
   fx="-177.64999"
   fy="494.5993"
   gradientTransform="matrix(0,-1,-3.5392,0,2159.9932,-97.15)"
   gradientUnits="userSpaceOnUse">&#10;					<stop
   offset="0"
   style="stop-color:#0464A5"
   id="stop113" />&#10;					<stop
   offset="9.803922e-02"
   style="stop-color:#0464A5"
   id="stop114" />&#10;					<stop
   offset="0.4471"
   style="stop-color:#152236"
   id="stop115" />&#10;					<stop
   offset="0.8353"
   style="stop-color:#1B3678"
   id="stop116" />&#10;					<stop
   offset="1"
   style="stop-color:#2F94E0"
   id="stop117" />&#10;				</radialGradient>&#10;				<path
   class="st26"
   d="m 374.2,114.6 c 0,0.3 0,0.6 0,0.8 0,0.6 0.3,0.9 1,1 l 1.5,-0.1 c 0.3,0 0.5,0 0.7,0 0.7,-0.1 1.2,-0.1 1.4,-0.1 0.7,-0.2 1,-0.6 1,-1.2 0,-0.9 -0.5,-1.4 -1.5,-1.6 -0.1,0 -0.2,0 -0.3,-0.1 -0.1,0 -0.2,0 -0.3,0 -0.4,-0.1 -0.7,-0.1 -0.8,-0.1 -0.2,0 -0.6,0 -1.1,0 -0.7,0 -1.1,0.1 -1.4,0.2 0,0 -0.1,0 -0.1,0.1 0,0.2 -0.1,0.6 -0.1,1.1 m 4.2,-4.5 v 0 c -0.8,-0.1 -1.4,-0.2 -1.6,-0.2 -0.2,0 -0.6,0 -1.3,0 -0.8,0 -1.3,0.1 -1.5,0.3 0,0 -0.1,0 -0.1,0 -0.2,0.1 -0.3,0.3 -0.4,0.5 -0.1,0.2 -0.1,0.5 -0.1,0.8 0,0.4 0,0.7 0.1,0.9 0,0.7 0.4,1 1.1,1.1 0.2,-0.1 0.7,-0.2 1.4,-0.2 0.5,0 0.9,0 1.1,0 0.1,0 0.3,0 0.8,0.1 0.1,0 0.2,0 0.3,0 0.3,0 0.6,-0.1 0.7,-0.1 0.8,-0.2 1.2,-0.7 1.2,-1.3 0,-0.5 -0.1,-0.9 -0.3,-1.2 -0.4,-0.4 -0.8,-0.6 -1.4,-0.7 m 0,0 v 0 c 0.6,0.1 1.1,0.3 1.4,0.7 0.9,-0.2 1.3,-0.6 1.3,-1.3 0,-0.9 -0.6,-1.5 -1.6,-1.8 -0.1,0 -0.3,-0.1 -0.5,-0.1 -0.2,0 -0.3,-0.1 -0.5,-0.1 -0.7,-0.1 -1.2,-0.2 -1.4,-0.3 -0.3,0 -0.8,0 -1.6,0 -0.8,0 -1.3,0 -1.6,0.1 -0.1,0 -0.2,0 -0.3,0.1 0,0 -0.1,0 -0.1,0 -0.4,0.2 -0.6,0.7 -0.6,1.3 0,0.4 0,0.7 0.1,0.9 0,0.5 0.2,0.8 0.6,1 0.1,-0.2 0.2,-0.4 0.4,-0.5 0,0 0.1,0 0.1,0 0.2,-0.1 0.8,-0.2 1.5,-0.3 0.6,0 1.1,0 1.3,0 0.1,0.1 0.7,0.2 1.5,0.3 m -1.3,-5.3 c -0.2,0 -0.7,-0.1 -1.4,-0.1 -0.8,0 -1.3,0 -1.5,0.1 0,0 -0.1,0 -0.1,0 -0.3,0.2 -0.5,0.5 -0.6,1.1 0,0.3 0,0.6 0,0.8 0,0.3 0,0.5 0.2,0.7 0.3,-0.1 0.9,-0.1 1.6,-0.1 0.8,0 1.3,0 1.6,0 0.2,0 0.7,0.1 1.4,0.3 0.2,0 0.3,0 0.5,0.1 0.2,0 0.3,0.1 0.5,0.1 0.5,-0.2 0.8,-0.5 0.9,-1 0.1,-0.9 -0.5,-1.4 -1.6,-1.7 -0.1,0 -0.1,0 -0.2,0 -0.7,-0.2 -1.1,-0.3 -1.3,-0.3 m 8.4,-0.5 c -0.1,0 -0.3,0.1 -0.5,0.3 0,0 0,0 0,0 -0.4,0.3 -1,0.7 -1.9,1.3 -1.4,1.1 -2.1,1.7 -2.1,1.8 0,0.5 0.2,0.9 0.7,1.3 0.4,0.3 0.8,0.5 1.1,0.5 0.7,0 1.3,-0.2 1.9,-0.4 0.1,0 0.2,-0.1 0.3,-0.2 0.3,-0.2 0.8,-0.6 1.4,-1 -0.6,0.5 -1.1,0.8 -1.4,1 v 1.6 c 0,0.4 0,0.9 0,1.3 0,1 0.1,2 0.2,3.1 0.1,0 0.2,0 0.3,0 0.4,0 0.7,-0.1 1,-0.2 0.5,-0.2 0.9,-0.5 1.2,-0.9 0.2,-0.3 0.4,-0.7 0.5,-1.1 0.1,-0.3 0.1,-0.7 0.1,-1 0,-1.8 -0.2,-3.3 -0.5,-4.7 -0.5,-2 -1.3,-2.8 -2.3,-2.7 z"
   id="path117"
   style="fill:url(#SVGID_26_);stroke:#000000;stroke-opacity:1" />&#10;				<path
   class="st1"
   d="m 385,112.4 c 0,0.4 0,0.9 0,1.3 0,0.3 0,0.7 0.1,1.1 0,0 0.1,0 0.1,0 -0.1,-1.1 -0.1,-2.1 -0.2,-3.1 0,-0.4 0,-0.9 0,-1.3 0,0.7 0,1.4 0,2 z"
   id="path118"
   style="stroke:#000000;stroke-opacity:1" />&#10;			</g>&#10;		</g>&#10;		<g
   id="g121"
   style="stroke:#000000;stroke-opacity:1">&#10;			&#10;				<radialGradient
   id="SVGID_27_"
   cx="246.35001"
   cy="391.49561"
   r="54.762501"
   gradientTransform="matrix(1,0,0,-1.063,141.75,531.2096)"
   gradientUnits="userSpaceOnUse">&#10;				<stop
   offset="0"
   style="stop-color:#CEEDF4"
   id="stop119" />&#10;				<stop
   offset="0.5412"
   style="stop-color:#A8F2F4"
   id="stop120" />&#10;				<stop
   offset="1"
   style="stop-color:#208AE0"
   id="stop121" />&#10;			</radialGradient>&#10;			<path
   class="st27"
   d="m 385,110.4 v -1.6 c -0.1,0.1 -0.2,0.1 -0.3,0.2 -0.6,0.3 -1.2,0.4 -1.9,0.4 -0.3,0 -0.7,-0.2 -1.1,-0.5 -0.5,-0.4 -0.7,-0.8 -0.7,-1.3 0,-0.1 0.7,-0.7 2.1,-1.8 0.9,-0.6 1.5,-1.1 1.9,-1.3 0,0 0,0 0,0 0.2,-0.2 0.4,-0.3 0.5,-0.3 1,-0.1 1.8,0.8 2.3,2.7 0.3,1.4 0.5,2.9 0.5,4.7 0,0.3 0,0.7 -0.1,1 0.7,0.1 1.7,0.2 2.9,0.4 m -6.1,-4.2 c 0.3,-0.2 0.8,-0.6 1.4,-1 m -1.2,7 c 0.1,0 0.2,0 0.3,0 0.4,0 0.8,-0.1 1.1,-0.2 0.5,-0.2 0.8,-0.5 1.1,-0.9 0.2,-0.3 0.4,-0.7 0.5,-1.1 m -3.2,-2.2 c 0,0.4 0,0.9 0,1.3 0,1 0.1,2 0.2,3.1 m -5.8,-7 c 0.5,-0.2 0.8,-0.5 0.9,-1 0.1,-0.9 -0.5,-1.4 -1.6,-1.7 -0.1,0 -0.1,0 -0.2,0 -0.7,-0.1 -1.1,-0.2 -1.3,-0.3 -0.2,0 -0.7,-0.1 -1.4,-0.1 -0.8,0 -1.3,0 -1.5,0.1 0,0 -0.1,0 -0.1,0 -0.3,0.2 -0.5,0.5 -0.6,1.1 0,0.3 0,0.6 0,0.8 0,0.3 0,0.5 0.2,0.7 0.3,-0.1 0.9,-0.1 1.6,-0.1 0.8,0 1.3,0 1.6,0 0.2,0 0.7,0.1 1.4,0.3 0.2,0 0.3,0 0.5,0.1 0.2,0 0.3,0 0.5,0.1 1.1,0.3 1.6,0.8 1.6,1.8 0,0.6 -0.4,1 -1.3,1.3 0.2,0.3 0.3,0.7 0.3,1.2 0,0.7 -0.4,1.1 -1.2,1.3 -0.1,0 -0.4,0 -0.7,0.1 v 0 c 0.1,0 0.2,0.1 0.3,0.1 1,0.2 1.5,0.7 1.5,1.6 0,0.6 -0.3,1 -1,1.2 -0.2,0 -0.7,0 -1.4,0.1 -0.2,0 -0.4,0 -0.7,0 l -1.5,0.1 c -0.6,-0.1 -1,-0.4 -1,-1 0,-0.2 0,-0.5 0,-0.8 0,-0.5 0.1,-0.9 0.3,-1.1 0,0 0.1,-0.1 0.1,-0.1 -0.7,-0.1 -1.1,-0.4 -1.1,-1.1 -0.1,-0.2 -0.1,-0.5 -0.1,-0.9 0,-0.3 0,-0.5 0.1,-0.8 -0.4,-0.2 -0.6,-0.5 -0.6,-1 -0.1,-0.2 -0.1,-0.5 -0.1,-0.9 0,-0.6 0.2,-1.1 0.6,-1.3 0,0 0.1,0 0.1,0 0.1,0 0.1,-0.1 0.3,-0.1 m -0.4,3.2 c 0.1,-0.2 0.2,-0.4 0.4,-0.5 0,0 0.1,0 0.1,0 0.2,-0.1 0.8,-0.2 1.5,-0.3 0.6,0 1.1,0 1.3,0 0.2,0 0.8,0.1 1.6,0.2 v 0 c 0.6,0.1 1,0.3 1.3,0.7 m -1.6,2.5 c -0.1,0 -0.2,0 -0.3,0 0.1,0 0.2,0 0.3,0 m -0.2,0 c -0.4,-0.1 -0.7,-0.1 -0.8,-0.1 -0.2,0 -0.6,0 -1.1,0 -0.7,0 -1.1,0.1 -1.4,0.2"
   id="path121"
   style="stroke:#000000;stroke-opacity:1" />&#10;		</g>&#10;	</g>&#10;	<g
   id="手1"
   transform="translate(-230,20)"
   style="stroke:#000000;stroke-opacity:1">&#10;		<g
   id="g127"
   style="display:none;stroke:#000000;stroke-opacity:1">&#10;			<g
   id="g126"
   style="stroke:#000000;stroke-opacity:1">&#10;				&#10;					<radialGradient
   id="SVGID_28_"
   cx="-161.9922"
   cy="490.90631"
   r="35.964001"
   fx="-161.9209"
   fy="490.34659"
   gradientTransform="matrix(0.1265,-0.992,-3.5105,-0.4484,2216.0996,142.2148)"
   gradientUnits="userSpaceOnUse">&#10;					<stop
   offset="0"
   style="stop-color:#4AE0EF"
   id="stop122" />&#10;					<stop
   offset="9.803922e-02"
   style="stop-color:#4AE0EF"
   id="stop123" />&#10;					<stop
   offset="0.4471"
   style="stop-color:#152236"
   id="stop124" />&#10;					<stop
   offset="0.8353"
   style="stop-color:#1B3678"
   id="stop125" />&#10;					<stop
   offset="1"
   style="stop-color:#4AE0EF"
   id="stop126" />&#10;				</radialGradient>&#10;				<path
   class="st28"
   d="m 483.4,111.1 c -0.6,-1.2 -1.9,-2.4 -4,-3.7 -2.6,-1.6 -4.5,-2.3 -5.9,-2.3 -2.3,0.4 -4.1,0.7 -5.4,0.9 -1.5,0.2 -2.4,0.4 -2.8,0.4 l -8,0.2 c -2.6,0.1 -4.4,0.1 -5.5,0 -0.7,0 -1.5,0 -2.4,-0.1 -0.8,-0.1 -1.7,-0.2 -2.7,-0.3 l -0.1,0.2 c -0.1,-0.1 -0.3,-0.2 -0.4,-0.3 -2.7,-1.7 -4.8,-2.5 -6,-2.5 -1.4,0 -3,0.3 -4.8,0.8 -0.7,0.2 -1.3,0.4 -1.8,0.6 -1.2,0.5 -1.7,1 -1.6,1.6 0.1,0.8 0.5,1.5 1.1,2.2 v -0.1 c 0,-0.7 0.4,-1.3 1.1,-1.7 0.2,-0.1 1,-0.4 2.5,-0.9 -1.5,0.5 -2.3,0.8 -2.5,0.9 -0.7,0.4 -1.1,1 -1.1,1.7 v 0.1 c 0,0.7 0.2,1.2 0.6,1.7 0.1,-0.2 0.3,-0.4 0.5,-0.6 0.7,-0.7 1.9,-1.3 3.6,-1.7 -1.8,0.4 -3,0.9 -3.6,1.7 -0.2,0.2 -0.4,0.4 -0.5,0.6 -0.2,0.3 -0.3,0.6 -0.3,1 0,0.6 0.2,1.1 0.6,1.4 0.3,-0.3 0.7,-0.6 1.2,-0.9 0.4,-0.2 0.9,-0.4 1.4,-0.6 0.4,-0.2 0.8,-0.3 1.3,-0.4 -0.5,0.1 -0.9,0.3 -1.3,0.4 -0.5,0.2 -1,0.4 -1.4,0.6 -0.5,0.3 -0.9,0.6 -1.2,0.9 -0.3,0.3 -0.4,0.7 -0.4,1 0,0.6 0.5,0.9 1.5,0.9 0.5,0 1.1,-0.2 1.6,-0.5 0.6,-0.3 1.1,-0.5 1.4,-0.5 h 3.5 c 1.5,0 2.6,-0.1 3.4,-0.3 0.1,0 0.1,-0.1 0.3,-0.1 0.3,-0.1 0.5,-0.3 0.8,-0.4 -0.2,0.1 -0.5,0.3 -0.8,0.4 0.4,0.1 0.9,0.2 1.4,0.3 0.9,0.2 1.8,0.4 2.7,0.6 0.6,0.1 1.2,0.3 1.9,0.4 1.2,0.3 2.5,0.6 3.9,0.8 0.8,0.2 1.5,0.3 2.3,0.6 2,0.5 3.8,1 5.4,1.4 0.4,0.1 0.8,0.2 1.2,0.4 1.6,0.5 3.5,1.2 5.6,2.1 1.1,0.4 2.5,0.7 4.3,0.8 0.2,0 0.5,0 0.7,0 3.2,0 5.3,-0.3 6.5,-0.8 1,-0.5 1.7,-1.3 2.2,-2.4 0.2,-0.6 0.3,-1.2 0.4,-1.8 -0.1,0.7 -0.2,1.3 -0.4,1.8 1.4,-0.9 2,-2 2,-3.2 0,-1 -0.4,-1.8 -1,-2.5 -0.5,-0.4 -0.8,-0.6 -1,-0.8 z"
   id="path126"
   style="fill:url(#SVGID_28_);stroke:#000000;stroke-opacity:1" />&#10;			</g>&#10;		</g>&#10;		<g
   id="g128"
   style="stroke:#000000;stroke-opacity:1">&#10;			<path
   class="st29"
   d="m 446.6,106.3 c 1,0.1 1.9,0.2 2.7,0.3 0.9,0.1 1.7,0.1 2.4,0.1 h 5.5 l 8,-0.2 c 0.3,0 1.2,-0.2 2.8,-0.4 1.3,-0.2 3.1,-0.5 5.4,-0.9 1.4,0 3.3,0.8 5.9,2.3 2.1,1.2 3.4,2.4 4,3.7 0.3,0.2 0.5,0.4 0.9,0.6 0.7,0.7 1,1.5 1,2.5 0,1.2 -0.7,2.3 -2,3.2 -0.4,1.1 -1.2,1.9 -2.2,2.4 -1.2,0.6 -3.3,0.8 -6.5,0.8 h -0.7 c -1.8,-0.1 -3.2,-0.3 -4.3,-0.8 -2.1,-0.9 -4,-1.6 -5.6,-2.1 -0.4,-0.1 -0.8,-0.3 -1.2,-0.4 -1.6,-0.4 -3.4,-0.9 -5.4,-1.4 -0.7,-0.2 -1.5,-0.4 -2.3,-0.6 -1.4,-0.3 -2.7,-0.6 -3.9,-0.8 -0.6,-0.1 -1.3,-0.3 -1.9,-0.4 l -2.7,-0.6 c -0.5,-0.1 -1,-0.2 -1.4,-0.3 -0.1,0 -0.2,0 -0.3,0.1 -0.8,0.3 -1.9,0.4 -3.4,0.3 h -3.5 c -0.3,0 -0.8,0.2 -1.4,0.5 -0.6,0.3 -1.1,0.5 -1.6,0.5 -1,0 -1.5,-0.3 -1.5,-0.9 0,-0.3 0.1,-0.7 0.4,-1 -0.4,-0.4 -0.6,-0.8 -0.6,-1.4 0,-0.4 0.1,-0.7 0.3,-1 -0.4,-0.5 -0.6,-1 -0.6,-1.7 -0.7,-0.7 -1,-1.4 -1.1,-2.2 -0.1,-0.6 0.5,-1.1 1.6,-1.6 0.5,-0.2 1.1,-0.4 1.8,-0.6 1.8,-0.5 3.4,-0.8 4.8,-0.8 1.3,0 3.3,0.8 6,2.5 0.3,0.2 0.5,0.2 0.6,0.3 z m -0.5,-0.1 c 0.1,0.1 0.3,0.2 0.4,0.3 m -8.6,4.4 c -0.5,0.1 -0.9,0.3 -1.3,0.4 -0.5,0.2 -1,0.4 -1.4,0.6 -0.5,0.3 -0.9,0.6 -1.2,0.9 m 3.8,-4.6 c -1.8,0.4 -3,0.9 -3.6,1.7 -0.2,0.2 -0.4,0.4 -0.5,0.6 m -0.7,-1.7 v 0 c 0,-0.8 0.4,-1.3 1.1,-1.8 0.2,-0.1 1,-0.4 2.5,-0.9"
   id="path127"
   sodipodi:nodetypes="ccscccccccscsscccsccscccccsssscscccccsccccccccccccscc"
   style="stroke:#000000;stroke-opacity:1" />&#10;		</g>&#10;	</g>&#10;</g>&#10;&#10;&#10;</svg>
