<?xml version="1.0" encoding="utf-8"?>
<!-- Generator: Adobe Illustrator 24.2.1, SVG Export Plug-In . SVG Version: 6.00 Build 0)  -->
<svg version="1.1" id="天秤座" xmlns="http://www.w3.org/2000/svg" xmlns:xlink="http://www.w3.org/1999/xlink" x="0px" y="0px"
	 viewBox="0 0 550 400" style="enable-background:new 0 0 550 400;" xml:space="preserve">
<style type="text/css">
	.st0{stroke:#000000;stroke-miterlimit:10;}
	.st1{fill:url(#SVGID_1_);}
	.st2{fill:url(#SVGID_2_);}
	.st3{fill:url(#SVGID_3_);}
	.st4{fill:url(#SVGID_4_);}
	.st5{fill:url(#SVGID_5_);}
	.st6{fill:url(#SVGID_6_);}
	.st7{fill:url(#SVGID_7_);}
	.st8{fill:url(#SVGID_8_);}
	.st9{fill:url(#SVGID_9_);}
	.st10{fill:url(#SVGID_10_);}
	.st11{fill:none;stroke:#9BF0F3;stroke-linecap:round;stroke-linejoin:round;}
	.st12{fill:url(#SVGID_11_);}
	.st13{fill:url(#SVGID_12_);}
	.st14{fill:url(#SVGID_13_);}
	.st15{fill:url(#SVGID_14_);}
	.st16{fill:url(#SVGID_15_);}
	.st17{fill:url(#SVGID_16_);}
	.st18{fill:url(#SVGID_17_);}
	.st19{fill:url(#SVGID_18_);}
	.st20{fill:url(#SVGID_19_);}
	.st21{fill:url(#SVGID_20_);}
	.st22{fill:url(#SVGID_21_);}
	.st23{fill:url(#SVGID_22_);}
	.st24{fill:url(#SVGID_23_);}
	.st25{fill:url(#SVGID_24_);}
	.st26{fill:url(#SVGID_25_);}
	.st27{fill:url(#SVGID_26_);}
	.st28{fill:url(#SVGID_27_);}
	.st29{fill:url(#SVGID_28_);}
	.st30{fill:url(#SVGID_29_);}
	.st31{fill:url(#SVGID_30_);}
	.st32{fill:url(#SVGID_31_);}
	.st33{fill:url(#SVGID_32_);}
	.st34{fill:url(#SVGID_33_);}
	.st35{fill:url(#SVGID_34_);}
	.st36{fill:url(#SVGID_35_);}
	.st37{fill:url(#SVGID_36_);}
	.st38{fill:url(#SVGID_37_);}
	.st39{fill:url(#SVGID_38_);}
	.st40{fill:url(#SVGID_39_);}
	.st41{fill:url(#SVGID_40_);}
	.st42{fill:url(#SVGID_41_);}
	.st43{fill:url(#SVGID_42_);}
	.st44{fill:url(#SVGID_43_);}
	.st45{fill:url(#SVGID_44_);}
	.st46{fill:url(#SVGID_45_);}
	.st47{fill:url(#SVGID_46_);}
	.st48{fill:url(#SVGID_47_);}
	.st49{fill:url(#SVGID_48_);}
	.st50{fill:url(#SVGID_49_);}
	.st51{fill:url(#SVGID_50_);}
	.st52{fill:url(#SVGID_51_);}
	.st53{fill:url(#SVGID_52_);}
	.st54{fill:url(#SVGID_53_);}
	.st55{fill:url(#SVGID_54_);}
	.st56{fill:url(#SVGID_55_);}
	.st57{fill:url(#SVGID_56_);}
	.st58{fill:url(#SVGID_57_);}
	.st59{fill:url(#SVGID_58_);}
	.st60{fill:url(#SVGID_59_);}
	.st61{fill:url(#SVGID_60_);}
	.st62{fill:url(#SVGID_61_);}
	.st63{fill:url(#SVGID_62_);}
	.st64{fill:url(#SVGID_63_);}
	.st65{fill:url(#SVGID_64_);}
	.st66{fill:url(#SVGID_65_);}
	.st67{fill:url(#SVGID_66_);}
</style>
<rect id="bg" class="st0" width="550" height="400"/>
<g id="天秤">
	<g>
		<g>
			<g>
				
					<radialGradient id="SVGID_1_" cx="186.4449" cy="154.2532" r="86.5" fx="186.7841" fy="154.2532" gradientTransform="matrix(1 0 0 -0.4181 3.1051 298.6376)" gradientUnits="userSpaceOnUse">
					<stop  offset="0" style="stop-color:#205CE0"/>
					<stop  offset="0.1608" style="stop-color:#205CE0"/>
					<stop  offset="0.5176" style="stop-color:#4BE4F1"/>
					<stop  offset="0.6431" style="stop-color:#4EF3F7"/>
					<stop  offset="0.7765" style="stop-color:#2170C7"/>
					<stop  offset="0.8863" style="stop-color:#0F2B4F"/>
					<stop  offset="1" style="stop-color:#111C2E"/>
				</radialGradient>
				<path class="st1" d="M168.8,222.4c5.6,1,12.3,1.6,20.3,1.6s14.7-0.5,20.3-1.6s8.4-2.3,8.4-3.6v-0.1c0-0.4-0.2-0.8-0.6-1.2
					c-1.1-1-3.7-1.8-7.8-2.5c-5.6-1-12.3-1.6-20.3-1.6c-0.1,0-0.2,0-0.3,0c-7.8,0-14.4,0.5-19.9,1.6c-4.5,0.8-7.2,1.8-8.1,2.9
					c-0.1,0.1-0.2,0.2-0.2,0.3c-0.1,0.2-0.1,0.3-0.1,0.5v0.1C160.4,220.1,163.2,221.3,168.8,222.4z"/>
				
					<radialGradient id="SVGID_2_" cx="186.4449" cy="297.2622" r="102.725" fx="186.8477" fy="297.2622" gradientTransform="matrix(1 0 0 -1 0.3551 450.1122)" gradientUnits="userSpaceOnUse">
					<stop  offset="0" style="stop-color:#205CE0"/>
					<stop  offset="7.843137e-02" style="stop-color:#205CE0"/>
					<stop  offset="0.302" style="stop-color:#4BE4F1"/>
					<stop  offset="0.6431" style="stop-color:#4EF3F7"/>
					<stop  offset="0.7765" style="stop-color:#2170C7"/>
					<stop  offset="0.8863" style="stop-color:#0F2B4F"/>
					<stop  offset="1" style="stop-color:#111C2E"/>
				</radialGradient>
				<path class="st2" d="M189,223.9c-7.9,0-14.7-0.5-20.3-1.6s-8.4-2.3-8.4-3.6c0,5.9,2.8,10.9,8.4,15.2c5.6,4.2,12.3,6.3,20.3,6.3
					c7.9,0,14.7-2.1,20.3-6.3c5.6-4.3,8.4-9.3,8.4-15.2c0,1.4-2.8,2.6-8.4,3.6S196.9,223.9,189,223.9z"/>
				
					<radialGradient id="SVGID_3_" cx="186.5949" cy="297.2622" r="74.2516" fx="186.8861" fy="297.2622" gradientTransform="matrix(1 0 0 -1 88.1051 420.4122)" gradientUnits="userSpaceOnUse">
					<stop  offset="0.102" style="stop-color:#111C2E"/>
					<stop  offset="0.1922" style="stop-color:#0F2B4F"/>
					<stop  offset="0.4" style="stop-color:#2170C7"/>
					<stop  offset="0.5255" style="stop-color:#4BE4F1"/>
					<stop  offset="0.651" style="stop-color:#4EF3F7"/>
					<stop  offset="0.9608" style="stop-color:#205CE0"/>
					<stop  offset="1" style="stop-color:#205CE0"/>
				</radialGradient>
				<path class="st3" d="M190.1,165.1c-0.4-0.4-0.8-0.6-1.4-0.6c-0.6,0-1,0.2-1.4,0.6c-0.4,0.4-0.6,0.9-0.6,1.4s0.2,1,0.6,1.4
					c0.4,0.4,0.9,0.6,1.4,0.6c0.6,0,1-0.2,1.4-0.6c0.4-0.4,0.6-0.8,0.6-1.4S190.5,165.4,190.1,165.1 M187.3,160.9
					c-0.4,0.4-0.6,0.9-0.6,1.4c0,0.6,0.2,1,0.6,1.4c0.4,0.4,0.9,0.6,1.4,0.6c0.6,0,1-0.2,1.4-0.6c0.4-0.4,0.6-0.8,0.6-1.4
					c0-0.6-0.2-1-0.6-1.4c-0.4-0.4-0.8-0.6-1.4-0.6C188.1,160.3,187.7,160.5,187.3,160.9 M359.3,160.9c-0.4,0.4-0.5,0.9-0.5,1.4
					c0,0.6,0.2,1,0.5,1.4c0.4,0.4,0.9,0.6,1.5,0.6c0.6,0,1-0.2,1.4-0.6c0.4-0.4,0.6-0.8,0.6-1.4c0-0.6-0.2-1-0.6-1.4
					c-0.4-0.4-0.8-0.5-1.4-0.6l0,0C360.1,160.3,359.6,160.5,359.3,160.9 M278.6,140.3c-0.2-1.5-0.9-2.4-2.3-2.8
					c-0.4-0.1-0.7-0.2-1-0.3c-0.3-0.1-0.5-0.1-0.7-0.1c-0.2,0-0.4,0-0.7,0.1c-0.3,0.1-0.6,0.1-1.1,0.3c-1.3,0.4-2.1,1.3-2.3,2.8
					c-0.2,1.4-0.2,3.8-0.1,7.1c-0.5,0.8-1.4,2-2.9,3.8c-1.3,1.5-2,3.2-2,5.2c0,3.2,0.8,5.5,2.5,6.9c0.2,0.2,0.4,0.3,0.7,0.5
					c0.6,0.4,1.3,0.7,2.1,0.9c0.9,0.2,1.9,0.4,3,0.4h0.4c0,0,0.1,0,0.1,0c0.1,0,0.3,0,0.4,0c0.1,0,0.1,0,0.1,0h0.4
					c1.1,0,2.1-0.2,3-0.4c0.9-0.2,1.7-0.5,2.3-0.9c0.2-0.1,0.3-0.3,0.5-0.4c1.7-1.4,2.5-3.7,2.5-6.9c0-2-0.7-3.7-2-5.2
					c-1.5-1.7-2.5-3-3-3.8C278.9,144.1,278.8,141.7,278.6,140.3 M362.1,165.1c-0.4-0.4-0.8-0.6-1.4-0.6c-0.6,0-1.1,0.2-1.5,0.6
					c-0.4,0.4-0.5,0.9-0.5,1.4s0.2,1,0.5,1.4c0.4,0.4,0.9,0.6,1.5,0.6c0.6,0,1-0.2,1.4-0.6c0.4-0.4,0.6-0.8,0.6-1.4
					S362.5,165.4,362.1,165.1z"/>
				<path d="M280.1,228.2c0-0.1,0.1-0.1,0.1-0.3s0-0.2-0.1-0.3V228.2 M270.9,164.6c0.4,0.2,0.8,0.3,1.3,0.4c0.3,0,0.8,0,1.7,0
					C272.8,165,271.8,164.8,270.9,164.6 M278.4,164.6c-0.9,0.2-1.9,0.4-3,0.4c0.9,0,1.4,0,1.7,0C277.5,164.9,278,164.8,278.4,164.6
					 M193.9,153.6c-0.1-0.1-0.2-0.3-0.3-0.4c0,0.2,0.1,0.4,0.1,0.6L193.9,153.6 M355.6,153.1c-0.1,0.2-0.2,0.3-0.3,0.4l0.2,0.1
					C355.6,153.5,355.6,153.3,355.6,153.1z"/>
				
					<radialGradient id="SVGID_4_" cx="186.4449" cy="297.2622" r="231.8125" fx="187.354" fy="297.2622" gradientTransform="matrix(1 0 0 -1 87.0551 586.3622)" gradientUnits="userSpaceOnUse">
					<stop  offset="0.102" style="stop-color:#111C2E"/>
					<stop  offset="0.1922" style="stop-color:#0F2B4F"/>
					<stop  offset="0.4" style="stop-color:#2170C7"/>
					<stop  offset="0.5255" style="stop-color:#4BE4F1"/>
					<stop  offset="0.651" style="stop-color:#4EF3F7"/>
					<stop  offset="0.9608" style="stop-color:#205CE0"/>
					<stop  offset="1" style="stop-color:#205CE0"/>
				</radialGradient>
				<path class="st4" d="M272.8,171.2c-0.1,0-0.4,0.2-0.8,0.5c-0.4,0.3-0.8,0.6-1.1,0.8c-0.2,0.1-0.4,0.1-0.6,0
					c-0.2,0.6-0.3,1.2-0.3,1.9c0,1.2,0.3,2.3,1,3.3c-0.7,0.8-1,1.7-1,2.8c0,1.2,0.5,2.3,1.4,3.2c0.4,0.3,0.8,0.6,1.1,0.9
					c-0.3,0.1-0.6,0.1-0.9,0.3c-0.8,0.3-1.3,0.8-1.3,1.3c0,0,0,0.1,0.1,0.1l-0.1,28.9c0,0.5,0.4,0.9,1.3,1.2
					c0.2,0.1,0.4,0.2,0.7,0.3v3.2c-0.2,0.1-0.5,0.3-0.7,0.4c-0.8,0.7-1.3,1.6-1.3,2.6s0.4,1.9,1.3,2.7c0.4,0.4,0.9,0.6,1.4,0.8
					c-0.7,0.1-1.4,0.2-2,0.4c-1,0.3-1.6,0.8-1.6,1.3c0,0.1,0.1,0.3,0.1,0.4l0,12c-1.2,0.5-1.9,1.2-1.9,1.9c0,0.7,0.6,1.3,1.9,1.9
					v1.9c-0.1,0-0.2,0-0.3,0.1c-1.4,0.6-2.1,1.2-2.2,1.9c-1.5-0.5-2.8-0.8-3.8-0.8c-1,0-1.7,0.1-2.1,0.2c-0.8,0.2-1.3,0.6-1.3,1.3
					c0,0.7,0.4,1.5,1.1,2.4c0.6,0.7,1.7,1.7,3.1,2.8c-0.7,1-1.4,2.1-2.1,3.4c-0.5,0.9-1,1.8-1.3,2.6c-4.5,0.6-8.8,2.1-12.9,4.4
					c-4.3,2.3-7.5,5.5-9.8,9.5c-0.8,0.1-1.5,0.3-1.9,0.4c-2.8,0.7-5.4,2-7.6,3.8h92.3c-2.2-1.8-4.8-3.1-7.6-3.8
					c-0.5-0.1-1.1-0.2-1.9-0.4c-2.3-4.1-5.6-7.3-9.9-9.5c-4.1-2.3-8.4-3.8-13-4.4c-0.4-0.8-0.8-1.7-1.4-2.6c-0.7-1.3-1.4-2.4-2-3.3
					c1.4-1.1,2.5-2.1,3.1-2.9c0.8-0.9,1.2-1.7,1.2-2.4c0-0.6-0.4-1.1-1.3-1.3c-0.4-0.1-1.1-0.2-2.1-0.2c-1,0-2.1,0.2-3.5,0.7
					c-0.2-0.7-0.9-1.3-2.3-1.9h-0.1v-2.1c1.2-0.5,1.8-1.1,1.8-1.8c0-0.7-0.6-1.3-1.8-1.8v-12.3v-0.5c-0.1-0.4-0.6-0.7-1.5-1
					c-0.6-0.2-1.3-0.4-2-0.4c0.5-0.2,0.9-0.5,1.3-0.8c0.9-0.7,1.4-1.6,1.4-2.7s-0.5-1.9-1.4-2.6c-0.2-0.2-0.5-0.4-0.7-0.5v-3.1
					c0.2-0.1,0.5-0.2,0.7-0.3c0.6-0.2,1-0.5,1.3-0.8c0.1-0.1,0.1-0.3,0.1-0.4v-29.1c0-0.5-0.5-0.9-1.4-1.3c-0.2-0.1-0.5-0.2-0.8-0.3
					c0.4-0.2,0.8-0.5,1.2-0.9c1-0.9,1.4-2,1.4-3.2c0-1-0.3-1.9-1-2.8c0.7-0.9,1-2,1-3.3c0-0.8-0.1-1.5-0.4-2.2
					c-0.1,0.1-0.1,0.2-0.2,0.3c-0.1,0-0.3,0.1-0.7,0.2c-0.4,0.1-0.8-0.1-1.1-0.4c-0.4-0.4-0.8-0.7-1.4-0.9c-0.5,1.3-1,2-1.3,2
					s-0.6-0.3-1.1-1.1C273.3,171.6,273,171.2,272.8,171.2z"/>
				
					<radialGradient id="SVGID_5_" cx="186.4449" cy="297.2622" r="90.9375" fx="186.8015" fy="297.2622" gradientTransform="matrix(1 0 0 -1 87.1051 425.9122)" gradientUnits="userSpaceOnUse">
					<stop  offset="0.102" style="stop-color:#111C2E"/>
					<stop  offset="0.1922" style="stop-color:#0F2B4F"/>
					<stop  offset="0.4" style="stop-color:#2170C7"/>
					<stop  offset="0.5255" style="stop-color:#4BE4F1"/>
					<stop  offset="0.651" style="stop-color:#4EF3F7"/>
					<stop  offset="0.9608" style="stop-color:#205CE0"/>
					<stop  offset="1" style="stop-color:#205CE0"/>
				</radialGradient>
				<path class="st5" d="M275.4,165H275c0,0-0.1,0-0.1,0c-0.1,0-0.2,0-0.4,0c-0.1,0-0.1,0-0.1,0h-0.4c-0.9,0-1.4,0-1.7,0
					c-0.5-0.1-0.9-0.2-1.3-0.4c-0.8-0.2-1.5-0.5-2.1-0.9c-0.7,0.7-1,1.4-1,2c0,0.5,0.3,0.9,0.9,1.3l1.4,0.8c0.3,0.2,0.5,0.7,0.4,1.4
					c0,0.4-0.1,0.9-0.3,1.7c-0.2,0.7-0.2,1.2,0,1.5c0.1,0.1,0.1,0.1,0.1,0.1c0.2,0.1,0.4,0.1,0.6,0c0.3-0.2,0.7-0.4,1.1-0.8
					c0.4-0.4,0.7-0.5,0.8-0.5c0.2,0,0.5,0.4,0.9,1.1c0.4,0.7,0.8,1.1,1.1,1.1s0.7-0.7,1.3-2c0.6,0.2,1.1,0.4,1.4,0.9
					c0.3,0.3,0.6,0.5,1.1,0.4c0.4-0.1,0.6-0.2,0.7-0.2c0,0,0.1-0.1,0.2-0.3c0-0.1,0.1-0.1,0.1-0.2c0.1-0.3,0-0.8-0.1-1.6
					c-0.2-0.8-0.2-1.4-0.1-1.9c0.1-0.4,0.6-0.9,1.4-1.3c0.8-0.4,1.2-1,1.1-1.6c-0.1-0.7-0.4-1.4-1-2.1c-0.6,0.4-1.4,0.8-2.3,0.9
					c-0.4,0.2-0.9,0.3-1.3,0.4C276.8,165,276.2,165,275.4,165z"/>
				
					<radialGradient id="SVGID_6_" cx="186.4449" cy="297.2622" r="73.25" fx="186.7321" fy="297.2622" gradientTransform="matrix(1 0 0 -1 26.6051 392.9122)" gradientUnits="userSpaceOnUse">
					<stop  offset="0" style="stop-color:#205CE0"/>
					<stop  offset="7.843137e-02" style="stop-color:#205CE0"/>
					<stop  offset="0.302" style="stop-color:#4BE4F1"/>
					<stop  offset="0.6431" style="stop-color:#4EF3F7"/>
					<stop  offset="0.7765" style="stop-color:#2170C7"/>
					<stop  offset="0.8863" style="stop-color:#0F2B4F"/>
					<stop  offset="1" style="stop-color:#111C2E"/>
				</radialGradient>
				<path class="st6" d="M262.7,132.5c-2.4-0.8-5.3-1.1-8.5-1.1c-5.1,0-9.2,0.9-12.3,2.6c-1.7,1-3.8,2.9-6.1,5.8
					c-2.3,2.8-4.5,4.7-6.6,5.8c-3.3,1.8-7.6,2.6-13.1,2.6c-3.9,0-8-0.8-12.1-2.3c-4.2-1.6-7.3-2.4-9.5-2.4c-2.6,0-5.1,0.7-7.5,2
					c0.8-0.9,1.8-2,3-3.1c1.7-1.9,2.5-3.8,2.5-5.8c0-0.5,0-0.9,0-1.1c-2.3,0.9-4,1.7-5.3,2.4c-2.9,1.6-4.3,3.7-4.3,6.2
					c0,1,0.3,2.1,0.9,3.3c0.1,0.1,0.2,0.3,0.3,0.4c-1.1,1.3-1.8,2.8-1.9,4.6c-0.2,2.8,0.4,4.8,1.7,6.1c1.3,1.2,2.8,1.8,4.5,1.8
					c0.1,0,0.1,0,0.1,0c1.7-0.1,3-0.5,4.1-1.2c1-0.8,1.5-2,1.5-3.8c0-0.6-0.1-1.2-0.4-1.8l-0.2,0.1c0,2.3-1.1,3.4-3.4,3.4
					c-1,0-1.8-0.4-2.5-1.3c-0.7-0.9-1-1.9-0.9-3.2c0.1-1.3,0.6-2.3,1.6-3.1c1-0.8,2.2-1.1,3.7-0.8c1.5,0.3,3.6,2,6.5,5.1
					c2.8,3.1,4.8,4.6,5.8,4.6c0.9,0,1.6-0.4,2-1.2c0.4-0.7,0.4-1.4,0.2-2.1c1.3,0.4,2.8,0.8,4.4,0.9c1.6,0.3,4.1,0.4,7.6,0.5
					c2.4,0.1,5.1-0.4,8.1-1.5c2.9-1,5.5-2.3,7.8-3.9c1.7-1.1,4.1-1.9,7.3-2.4c1.6-0.3,2.7-0.6,3.3-0.8c1.1-0.6,1.6-1.5,1.6-2.7
					c0-0.4-0.1-0.7-0.3-1c1.8,0,3.2-0.4,4.4-1.2c1.4-0.9,2.1-2.2,2.1-3.9c0-1-0.4-1.8-1.1-2.4c0,0-0.1,0-0.1-0.1
					c0,0-0.1-0.1-0.1-0.1h0.4c2,0,3.7,0.3,5.1,0.8c0.3,2,0.5,3.3,0.8,3.8c0.6,1.3,1.9,1.9,3.9,1.9c0.6,0,1-0.1,1.4-0.3
					c0.3,0.9,0.6,1.6,0.9,2.1c0.7,1.2,1.6,1.8,2.7,1.8c1,0,1.6-0.4,1.9-1.4c0.2-0.4,0.3-1.2,0.3-2.2c0-1.6-0.3-3-0.9-4.3
					c-0.3-0.5-0.6-1-1-1.4c0.1-0.2,0.1-0.5,0.1-0.8C267.1,134.8,265.7,133.4,262.7,132.5z"/>
				
					<radialGradient id="SVGID_7_" cx="186.4449" cy="297.2622" r="56" fx="186.6645" fy="297.2622" gradientTransform="matrix(1 0 0 -1 89.6051 455.4122)" gradientUnits="userSpaceOnUse">
					<stop  offset="0.102" style="stop-color:#111C2E"/>
					<stop  offset="0.1922" style="stop-color:#0F2B4F"/>
					<stop  offset="0.4" style="stop-color:#2170C7"/>
					<stop  offset="0.5255" style="stop-color:#4BE4F1"/>
					<stop  offset="0.651" style="stop-color:#4EF3F7"/>
					<stop  offset="0.9608" style="stop-color:#205CE0"/>
					<stop  offset="1" style="stop-color:#205CE0"/>
				</radialGradient>
				<path class="st7" d="M269.5,122.1c-0.5,1.1-0.8,2.4-1,3.9c-0.1,2.3-0.1,4.8-0.1,7.4c1.5,0.7,3.5,1.1,6,1.1
					c1.7,0,3.2-0.2,4.7-0.6c0.5-0.1,1-0.3,1.4-0.4c0-2.6,0-5-0.1-7.4c-0.2-1.5-0.5-2.8-1-3.9c-1-2.2-2.6-3.8-4.9-4.9
					C272.1,118.2,270.4,119.9,269.5,122.1z"/>
				
					<radialGradient id="SVGID_8_" cx="186.4449" cy="132.3467" r="92.55" fx="186.8078" fy="132.3467" gradientTransform="matrix(1 0 0 -0.3838 177.1551 284.4508)" gradientUnits="userSpaceOnUse">
					<stop  offset="0" style="stop-color:#205CE0"/>
					<stop  offset="0.1608" style="stop-color:#205CE0"/>
					<stop  offset="0.5176" style="stop-color:#4BE4F1"/>
					<stop  offset="0.6431" style="stop-color:#4EF3F7"/>
					<stop  offset="0.7765" style="stop-color:#2170C7"/>
					<stop  offset="0.8863" style="stop-color:#0F2B4F"/>
					<stop  offset="1" style="stop-color:#111C2E"/>
				</radialGradient>
				<path class="st8" d="M381.3,222.4c5.6-1,8.4-2.3,8.4-3.6v-0.1c0-0.4-0.2-0.8-0.6-1.2c-1.1-1-3.7-1.8-7.8-2.5
					c-5.6-1-12.3-1.6-20.3-1.6c-0.1,0-0.2,0-0.3,0c-7.8,0-14.5,0.5-20,1.6c-4.5,0.8-7.2,1.8-8,2.9c-0.1,0.1-0.2,0.2-0.2,0.3
					c-0.1,0.2-0.1,0.3-0.1,0.5v0.1c0,1.4,2.8,2.6,8.4,3.6s12.3,1.6,20.3,1.6S375.7,223.4,381.3,222.4z"/>
				
					<radialGradient id="SVGID_9_" cx="186.4449" cy="297.2622" r="80.5" fx="186.7606" fy="297.2622" gradientTransform="matrix(1 0 0 -1 174.2551 465.7622)" gradientUnits="userSpaceOnUse">
					<stop  offset="0" style="stop-color:#205CE0"/>
					<stop  offset="7.843137e-02" style="stop-color:#205CE0"/>
					<stop  offset="0.302" style="stop-color:#4BE4F1"/>
					<stop  offset="0.6431" style="stop-color:#4EF3F7"/>
					<stop  offset="0.7765" style="stop-color:#2170C7"/>
					<stop  offset="0.8863" style="stop-color:#0F2B4F"/>
					<stop  offset="1" style="stop-color:#111C2E"/>
				</radialGradient>
				<path class="st9" d="M389.6,218.7c0,1.4-2.8,2.6-8.4,3.6c-5.6,1-12.3,1.6-20.3,1.6s-14.7-0.5-20.3-1.6s-8.4-2.3-8.4-3.6
					c0,5.9,2.8,10.9,8.4,15.2c5.6,4.2,12.3,6.3,20.3,6.3c7.9,0,14.7-2.1,20.3-6.3C386.9,229.6,389.6,224.6,389.6,218.7z"/>
				
					<radialGradient id="SVGID_10_" cx="186.4449" cy="297.2622" r="74.55" fx="186.7372" fy="297.2622" gradientTransform="matrix(1 0 0 -1 151.1551 393.4122)" gradientUnits="userSpaceOnUse">
					<stop  offset="0" style="stop-color:#205CE0"/>
					<stop  offset="7.843137e-02" style="stop-color:#205CE0"/>
					<stop  offset="0.302" style="stop-color:#4BE4F1"/>
					<stop  offset="0.6431" style="stop-color:#4EF3F7"/>
					<stop  offset="0.7765" style="stop-color:#2170C7"/>
					<stop  offset="0.8863" style="stop-color:#0F2B4F"/>
					<stop  offset="1" style="stop-color:#111C2E"/>
				</radialGradient>
				<path class="st10" d="M365.3,147.4c0.6-1.2,1-2.3,1-3.3c0-2.5-1.4-4.6-4.3-6.2c-1.3-0.7-3-1.5-5.3-2.4c0,0.3,0,0.6,0,1.1
					c0,1.9,0.8,3.8,2.5,5.8c1.2,1.2,2.2,2.2,3,3.1c-2.4-1.3-4.9-2-7.5-2c-2.1,0-5.3,0.8-9.4,2.4c-4.1,1.6-8.2,2.3-12.1,2.3
					c-5.5,0-9.8-0.9-13.1-2.6c-2-1.1-4.2-3-6.5-5.8c-2.4-2.9-4.4-4.8-6.2-5.8c-3.1-1.8-7.1-2.6-12.2-2.6c-3.2,0-6,0.4-8.5,1.1
					c-3,0.9-4.5,2.3-4.5,4c0,0.3,0.1,0.6,0.2,0.8c-0.4,0.4-0.7,0.9-1,1.4c-0.6,1.3-1,2.7-1,4.3c0,1,0.1,1.8,0.3,2.2
					c0.3,0.9,0.9,1.4,1.9,1.4c1.1,0,2-0.6,2.7-1.8c0.3-0.5,0.6-1.2,0.9-2.1c0.4,0.2,0.8,0.3,1.4,0.3c2,0,3.3-0.6,3.9-1.9
					c0.2-0.5,0.5-1.8,0.8-3.8c1.4-0.5,3.2-0.8,5.1-0.8h0.4c0,0-0.1,0.1-0.1,0.1c0,0-0.1,0-0.1,0.1c-0.8,0.6-1.1,1.4-1.1,2.4
					c0,1.7,0.7,3,2.1,3.9c1.2,0.7,2.6,1.1,4.4,1.2c-0.2,0.3-0.3,0.6-0.3,1c0,1.2,0.5,2.1,1.6,2.7c0.6,0.3,1.7,0.6,3.3,0.8
					c3.2,0.5,5.6,1.3,7.3,2.4c2.3,1.7,4.9,3,7.8,3.9c3,1.1,5.8,1.6,8.1,1.5c3.4-0.1,5.9-0.2,7.6-0.5c1.6-0.2,3.1-0.5,4.4-0.9
					c-0.3,0.7-0.3,1.4,0.1,2.1c0.4,0.8,1.1,1.2,2,1.2c1,0,3-1.5,5.8-4.6c2.8-3.1,5-4.8,6.4-5.1c1.5-0.3,2.7,0,3.7,0.8
					c1,0.8,1.6,1.8,1.6,3.1c0,1.3-0.3,2.3-1,3.2c-0.7,0.8-1.5,1.3-2.5,1.3c-2.3,0-3.4-1.2-3.4-3.4l-0.2-0.1
					c-0.2,0.6-0.4,1.1-0.4,1.8c0,1.7,0.5,3,1.5,3.8c1.1,0.8,2.4,1.2,4.2,1.2h0c1.7,0,3.2-0.6,4.5-1.8c1.3-1.2,1.8-3.3,1.6-6.1
					c-0.1-1.8-0.7-3.3-1.9-4.6C365.1,147.6,365.2,147.5,365.3,147.4z"/>
			</g>
		</g>
		<g>
			<path class="st11" d="M355.4,153.6c-0.2,0.5-0.4,1.1-0.4,1.7c0,1.7,0.5,3,1.5,3.8c1.1,0.8,2.4,1.2,4.2,1.2h0
				c1.7,0,3.2-0.6,4.5-1.8c1.3-1.2,1.8-3.3,1.6-6.1c-0.1-1.8-0.7-3.3-1.9-4.6c0.1-0.2,0.2-0.3,0.3-0.4c0.6-1.2,1-2.3,1-3.3
				c0-2.5-1.4-4.6-4.3-6.2c-1.3-0.7-3-1.5-5.3-2.4c0,0.3,0,0.6,0,1.1c0,1.9,0.8,3.8,2.5,5.8c1.2,1.2,2.2,2.2,3,3.1
				c-2.4-1.3-4.9-2-7.5-2c-2.1,0-5.3,0.8-9.4,2.4c-4.1,1.6-8.2,2.3-12.1,2.3c-5.5,0-9.8-0.9-13.1-2.6c-2-1.1-4.2-3-6.5-5.8
				c-2.4-2.9-4.4-4.8-6.2-5.8c-3.1-1.8-7.1-2.6-12.2-2.6c-3.2,0-6,0.4-8.5,1.1c-3,0.9-4.5,2.3-4.5,4c0,0.3,0.1,0.6,0.2,0.8
				c-0.4,0.4-0.7,0.9-1,1.4c-0.6,1.3-1,2.7-1,4.3c0,1,0.1,1.8,0.3,2.2c0.3,0.9,0.9,1.4,1.9,1.4c1.1,0,2-0.6,2.7-1.8
				c0.3-0.5,0.6-1.2,0.9-2.1c0.4,0.2,0.8,0.3,1.4,0.3c2,0,3.3-0.6,3.9-1.9c0.2-0.5,0.5-1.8,0.8-3.8c1.4-0.5,3.2-0.8,5.1-0.8h0.4
				c0,0-0.1,0.1-0.1,0.1c0,0-0.1,0-0.1,0.1c-0.8,0.6-1.1,1.4-1.1,2.4c0,1.7,0.7,3,2.1,3.9c1.2,0.7,2.6,1.1,4.4,1.2
				c-0.2,0.3-0.3,0.6-0.3,1c0,1.2,0.5,2.1,1.6,2.7c0.6,0.3,1.7,0.6,3.3,0.8c3.2,0.5,5.6,1.3,7.3,2.4c2.3,1.7,4.9,3,7.8,3.9
				c3,1.1,5.8,1.6,8.1,1.5c3.4-0.1,5.9-0.2,7.6-0.5c1.6-0.2,3.1-0.5,4.4-0.9c-0.3,0.7-0.3,1.4,0.1,2.1c0.4,0.8,1.1,1.2,2,1.2
				c1,0,3-1.5,5.8-4.6c2.8-3.1,5-4.8,6.4-5.1c1.5-0.3,2.7,0,3.7,0.8c1,0.8,1.6,1.8,1.6,3.1c0,1.3-0.3,2.3-1,3.2
				c-0.7,0.8-1.5,1.3-2.5,1.3c-2.3,0-3.4-1.2-3.4-3.4 M355.4,153.6c0.1-0.2,0.2-0.3,0.3-0.5c0,0.2,0,0.4,0,0.6 M389.6,218.7
				c0,1.4-2.8,2.6-8.4,3.6c-5.6,1-12.3,1.6-20.3,1.6s-14.7-0.5-20.3-1.6s-8.4-2.3-8.4-3.6c0,5.9,2.8,10.9,8.4,15.2
				c5.6,4.2,12.3,6.3,20.3,6.3c7.9,0,14.7-2.1,20.3-6.3C386.9,229.6,389.6,224.6,389.6,218.7L389.6,218.7c0-0.4-0.2-0.8-0.6-1.2
				c-1.1-1-3.7-1.8-7.8-2.5c-5.6-1-12.3-1.6-20.3-1.6c-0.1,0-0.2,0-0.3,0c-7.8,0-14.5,0.5-20,1.6c-4.5,0.8-7.2,1.8-8,2.9
				c-0.1,0.1-0.2,0.2-0.2,0.3c-0.1,0.2-0.1,0.3-0.1,0.5v0.1 M268.5,125.9c-0.1,2.3-0.1,4.8-0.1,7.4c1.5,0.7,3.5,1.1,6,1.1
				c1.7,0,3.2-0.2,4.7-0.6c0.5-0.1,1-0.3,1.4-0.4c0-2.6,0-5-0.1-7.4c-0.2-1.5-0.5-2.8-1-3.9c-1-2.2-2.6-3.8-4.9-4.9
				c-2.3,1-3.9,2.7-4.9,4.9C269,123.2,268.6,124.5,268.5,125.9z M193.9,153.6c0.2,0.5,0.4,1.1,0.4,1.7c0,1.7-0.5,3-1.5,3.8
				c-1,0.7-2.4,1.1-4.1,1.2c0,0-0.1,0-0.1,0c-1.7,0-3.2-0.6-4.5-1.8c-1.3-1.2-1.8-3.3-1.7-6.1c0.1-1.8,0.7-3.3,1.9-4.6
				c-0.1-0.2-0.2-0.3-0.3-0.4c-0.6-1.2-0.9-2.3-0.9-3.3c0-2.5,1.4-4.6,4.3-6.2c1.3-0.7,3-1.5,5.3-2.4c0,0.3,0,0.6,0,1.1
				c0,1.9-0.8,3.8-2.5,5.8c-1.2,1.2-2.2,2.2-3,3.1c2.4-1.3,4.9-2,7.5-2c2.1,0,5.3,0.8,9.5,2.4c4.1,1.6,8.2,2.3,12.1,2.3
				c5.5,0,9.8-0.9,13.1-2.6c2-1.1,4.2-3,6.6-5.8c2.4-2.9,4.4-4.8,6.1-5.8c3.1-1.8,7.2-2.6,12.3-2.6c3.2,0,6,0.4,8.5,1.1
				c3,0.9,4.4,2.3,4.4,4c0,0.3,0,0.6-0.1,0.8c0.4,0.4,0.7,0.9,1,1.4c0.6,1.3,0.9,2.7,0.9,4.3c0,1-0.1,1.8-0.3,2.2
				c-0.3,0.9-0.9,1.4-1.9,1.4c-1.1,0-2-0.6-2.7-1.8c-0.3-0.5-0.6-1.2-0.9-2.1c-0.4,0.2-0.8,0.3-1.4,0.3c-2,0-3.3-0.6-3.9-1.9
				c-0.2-0.5-0.5-1.8-0.8-3.8c-1.4-0.5-3.1-0.8-5.1-0.8h-0.4c0,0,0.1,0.1,0.1,0.1c0,0,0.1,0,0.1,0.1c0.8,0.6,1.1,1.4,1.1,2.4
				c0,1.7-0.7,3-2.1,3.9c-1.2,0.7-2.6,1.1-4.4,1.2c0.2,0.3,0.2,0.6,0.3,1c0,1.2-0.5,2.1-1.6,2.7c-0.6,0.3-1.7,0.6-3.3,0.8
				c-3.2,0.5-5.6,1.3-7.3,2.4c-2.3,1.7-4.9,3-7.8,3.9c-3,1.1-5.7,1.6-8.1,1.5c-3.4-0.1-5.9-0.2-7.6-0.5c-1.6-0.2-3.1-0.5-4.4-0.9
				c0.3,0.7,0.3,1.4-0.2,2.1c-0.4,0.8-1.1,1.2-2,1.2c-1,0-3-1.5-5.8-4.6c-2.8-3.1-5-4.8-6.5-5.1c-1.5-0.3-2.7,0-3.7,0.8
				c-1,0.8-1.6,1.8-1.6,3.1c0,1.3,0.3,2.3,0.9,3.2c0.7,0.8,1.5,1.3,2.5,1.3c2.3,0,3.4-1.2,3.4-3.4c0-0.2,0-0.4-0.1-0.6
				C193.7,153.3,193.8,153.4,193.9,153.6z M268.8,163.8c-0.3-0.2-0.5-0.3-0.7-0.5c-1.7-1.4-2.5-3.7-2.5-6.9c0-2,0.7-3.7,2-5.2
				c1.5-1.7,2.5-3,2.9-3.8c-0.1-3.3,0-5.7,0.1-7.1c0.2-1.5,0.9-2.4,2.3-2.8c0.4-0.1,0.8-0.2,1.1-0.3c0.3-0.1,0.5-0.1,0.7-0.1
				c0.2,0,0.4,0,0.7,0.1c0.3,0.1,0.6,0.1,1,0.3c1.3,0.4,2.1,1.3,2.3,2.8c0.2,1.4,0.3,3.8,0.1,7.1c0.5,0.8,1.5,2,3,3.8
				c1.3,1.5,2,3.2,2,5.2c0,3.2-0.8,5.5-2.5,6.9c-0.2,0.1-0.3,0.3-0.5,0.4c0.6,0.7,0.9,1.4,1,2.1c0.1,0.6-0.3,1.2-1.1,1.6
				c-0.8,0.4-1.3,0.8-1.4,1.3c-0.1,0.4-0.1,1.1,0.1,1.9c0.2,0.8,0.2,1.3,0.1,1.6c0,0.1-0.1,0.1-0.1,0.2c0.3,0.7,0.4,1.4,0.4,2.2
				c0,1.2-0.3,2.3-1,3.3c0.7,0.8,1,1.7,1,2.8c0,1.2-0.5,2.3-1.4,3.2c-0.3,0.3-0.7,0.6-1.2,0.9c0.3,0.1,0.6,0.1,0.8,0.3
				c0.9,0.3,1.4,0.8,1.4,1.3v29.1c0,0.1,0,0.2-0.1,0.4c-0.2,0.3-0.6,0.6-1.3,0.8c-0.2,0.1-0.5,0.2-0.7,0.3v3.1
				c0.2,0.1,0.5,0.3,0.7,0.5c0.9,0.7,1.4,1.6,1.4,2.6s-0.5,1.9-1.4,2.7c-0.4,0.3-0.8,0.6-1.3,0.8c0.7,0.1,1.4,0.2,2,0.4
				c0.9,0.3,1.4,0.6,1.5,1c0,0.1,0.1,0.1,0.1,0.3s0,0.2-0.1,0.3v12.3c1.2,0.5,1.8,1.1,1.8,1.8c0,0.7-0.6,1.3-1.8,1.8v2.1h0.1
				c1.4,0.5,2.1,1.2,2.3,1.9c1.3-0.4,2.5-0.7,3.5-0.7c1,0,1.7,0.1,2.1,0.2c0.8,0.2,1.3,0.6,1.3,1.3c0,0.7-0.4,1.5-1.2,2.4
				c-0.6,0.8-1.7,1.7-3.1,2.9c0.6,0.9,1.3,2,2,3.3c0.5,0.9,1,1.8,1.4,2.6c4.6,0.6,8.9,2.1,13,4.4c4.3,2.3,7.6,5.5,9.9,9.5
				c0.8,0.1,1.4,0.3,1.9,0.4c2.9,0.7,5.4,2,7.6,3.8h-92.3c2.2-1.8,4.8-3.1,7.6-3.8c0.5-0.1,1.1-0.2,1.9-0.4c2.3-4.1,5.5-7.3,9.8-9.5
				c4-2.3,8.3-3.8,12.9-4.4c0.4-0.8,0.8-1.7,1.3-2.6c0.7-1.3,1.4-2.4,2.1-3.4c-1.4-1.1-2.5-2.1-3.1-2.8c-0.8-0.9-1.1-1.7-1.1-2.4
				c0-0.6,0.4-1.1,1.3-1.3c0.4-0.1,1.1-0.2,2.1-0.2c1,0,2.3,0.3,3.8,0.8c0.1-0.7,0.8-1.4,2.2-1.9c0.1,0,0.1-0.1,0.3-0.1v-1.9
				c-1.2-0.6-1.9-1.2-1.9-1.9c0-0.7,0.6-1.4,1.9-1.9l0-12c-0.1-0.2-0.1-0.3-0.1-0.4c0-0.5,0.5-0.9,1.6-1.3c0.6-0.2,1.3-0.4,2-0.4
				c-0.5-0.2-1-0.4-1.4-0.8c-0.8-0.7-1.3-1.6-1.3-2.7s0.4-1.9,1.3-2.6c0.2-0.2,0.4-0.3,0.7-0.4v-3.2c-0.2-0.1-0.5-0.2-0.7-0.3
				c-0.8-0.3-1.3-0.7-1.3-1.2l0.1-28.9c0-0.1-0.1-0.1-0.1-0.1c0-0.5,0.4-0.9,1.3-1.3c0.3-0.1,0.6-0.2,0.9-0.3
				c-0.4-0.2-0.8-0.5-1.1-0.9c-0.9-0.9-1.4-2-1.4-3.2c0-1,0.3-1.9,1-2.8c-0.7-0.9-1-2-1-3.3c0-0.7,0.1-1.3,0.3-1.9
				c0,0-0.1-0.1-0.1-0.1c-0.3-0.3-0.3-0.8,0-1.5c0.2-0.8,0.3-1.3,0.3-1.7c0-0.7-0.1-1.2-0.4-1.4l-1.4-0.8c-0.6-0.3-0.9-0.7-0.9-1.3
				C267.7,165.2,268.1,164.5,268.8,163.8c0.6,0.4,1.3,0.7,2.1,0.9c0.9,0.2,1.9,0.4,3,0.4h0.4c0,0,0.1,0,0.1,0c0.1,0,0.3,0,0.4,0
				c0.1,0,0.1,0,0.1,0h0.4c1.1,0,2.1-0.2,3-0.4c0.9-0.2,1.7-0.5,2.3-0.9 M278.4,164.6c-0.4,0.2-0.9,0.3-1.3,0.4c-0.3,0-0.8,0-1.7,0
				 M273.9,165c-0.9,0-1.4,0-1.7,0c-0.5-0.1-0.9-0.2-1.3-0.4 M270.3,172.5c0.2,0.1,0.4,0.1,0.6,0c0.3-0.2,0.7-0.4,1.1-0.8
				c0.4-0.4,0.7-0.5,0.8-0.5c0.2,0,0.5,0.4,0.9,1.1c0.4,0.7,0.8,1.1,1.1,1.1s0.7-0.7,1.3-2c0.6,0.2,1.1,0.4,1.4,0.9
				c0.3,0.3,0.6,0.5,1.1,0.4c0.4-0.1,0.6-0.2,0.7-0.2c0,0,0.1-0.1,0.2-0.3 M359.3,160.9c0.4-0.4,0.9-0.6,1.5-0.6h0
				c0.6,0,1,0.2,1.4,0.6c0.4,0.4,0.6,0.9,0.6,1.4c0,0.6-0.2,1-0.6,1.4c-0.4,0.4-0.8,0.6-1.4,0.6c-0.6,0-1.1-0.2-1.5-0.6
				c-0.4-0.4-0.5-0.8-0.5-1.4C358.7,161.7,358.9,161.3,359.3,160.9z M360.7,168.5c-0.6,0-1.1-0.2-1.5-0.6c-0.4-0.4-0.5-0.8-0.5-1.4
				s0.2-1.1,0.5-1.4c0.4-0.4,0.9-0.6,1.5-0.6c0.6,0,1,0.2,1.4,0.6c0.4,0.4,0.6,0.9,0.6,1.4s-0.2,1-0.6,1.4
				C361.7,168.3,361.3,168.5,360.7,168.5l28.3,49 M187.3,160.9c0.4-0.4,0.9-0.6,1.4-0.6c0.6,0,1,0.2,1.4,0.6
				c0.4,0.4,0.6,0.9,0.6,1.4c0,0.6-0.2,1-0.6,1.4c-0.4,0.4-0.8,0.6-1.4,0.6c-0.6,0-1-0.2-1.4-0.6c-0.4-0.4-0.6-0.8-0.6-1.4
				C186.7,161.7,186.9,161.3,187.3,160.9z M188.7,168.5c-0.6,0-1-0.2-1.4-0.6c-0.4-0.4-0.6-0.8-0.6-1.4s0.2-1.1,0.6-1.4
				c0.4-0.4,0.9-0.6,1.4-0.6c0.6,0,1,0.2,1.4,0.6c0.4,0.4,0.6,0.9,0.6,1.4s-0.2,1-0.6,1.4C189.7,168.3,189.3,168.5,188.7,168.5
				l28.3,49c0.4,0.4,0.6,0.8,0.6,1.2v0.1c0,5.9-2.8,10.9-8.4,15.2c-5.6,4.2-12.3,6.3-20.3,6.3c-7.9,0-14.7-2.1-20.3-6.3
				c-5.6-4.3-8.4-9.3-8.4-15.2v-0.1c0-0.2,0.1-0.3,0.1-0.5c0-0.1,0.1-0.2,0.2-0.3L188.7,168.5v44.9c0.1,0,0.2,0,0.3,0
				c7.9,0,14.7,0.5,20.3,1.6c4,0.7,6.6,1.6,7.8,2.5 M217.6,218.7c0,1.4-2.8,2.6-8.4,3.6s-12.3,1.6-20.3,1.6s-14.7-0.5-20.3-1.6
				s-8.4-2.3-8.4-3.6 M160.7,217.9c0.9-1.1,3.6-2.1,8.1-2.9c5.5-1,12.2-1.6,19.9-1.6 M280.1,227.7v0.5 M360.7,213.4v-44.9l-28,49.4"
				/>
		</g>
	</g>
</g>
<g id="星星">
	<g transform="matrix( -0.2572784423828125, -0.2572784423828125, -0.2572784423828125, 0.2572784423828125, 395.85,372.4) ">
		<g>
			<g>
				
					<radialGradient id="SVGID_11_" cx="1491.7235" cy="2231.3049" r="10.0125" gradientTransform="matrix(-0.2573 0.2573 -0.2573 -0.2573 1368.3357 205.7813)" gradientUnits="userSpaceOnUse">
					<stop  offset="0" style="stop-color:#FFFFFF"/>
					<stop  offset="1" style="stop-color:#84E3ED"/>
				</radialGradient>
				<path class="st12" d="M403.8,21.6c3.7-2.4,8-2.4,12.8,0c-2.6-4.9-2.6-9.1,0-12.8c-4.4,3.2-8.7,3.2-12.8,0
					C406.2,13.4,406.2,17.7,403.8,21.6z"/>
			</g>
		</g>
	</g>
	<g transform="matrix( -0.2572784423828125, -0.2572784423828125, -0.2572784423828125, 0.2572784423828125, 450.25,331.65) ">
		<g>
			<g>
				
					<radialGradient id="SVGID_12_" cx="1518.2512" cy="2416.2217" r="10.0125" gradientTransform="matrix(-0.2573 0.2573 -0.2573 -0.2573 1422.7358 246.5314)" gradientUnits="userSpaceOnUse">
					<stop  offset="0" style="stop-color:#FFFFFF"/>
					<stop  offset="1" style="stop-color:#84E3ED"/>
				</radialGradient>
				<path class="st13" d="M403.8,21.6c3.7-2.4,8-2.4,12.8,0c-2.6-4.9-2.6-9.1,0-12.8c-4.4,3.2-8.7,3.2-12.8,0
					C406.2,13.4,406.2,17.7,403.8,21.6z"/>
			</g>
		</g>
	</g>
	<g transform="matrix( 1, 0, 0, 1, 5.2,-178.75) ">
		<g>
			<g>
				
					<radialGradient id="SVGID_13_" cx="181.2449" cy="476.0122" r="3.9375" gradientTransform="matrix(1 0 0 -1 91.4551 847.4622)" gradientUnits="userSpaceOnUse">
					<stop  offset="0" style="stop-color:#FFFFFF"/>
					<stop  offset="1" style="stop-color:#1C96E0"/>
				</radialGradient>
				<path class="st14" d="M271.6,372.6c0.3,0.3,0.6,0.4,1,0.4c0.4,0,0.7-0.1,1-0.4c0.3-0.3,0.4-0.6,0.4-0.9c0-0.4-0.1-0.7-0.4-1
					c-0.3-0.3-0.6-0.4-1-0.4s-0.7,0.1-1,0.4c-0.3,0.3-0.4,0.6-0.4,1C271.3,372.1,271.4,372.4,271.6,372.6z"/>
			</g>
		</g>
	</g>
	<g transform="matrix( 0.703704833984375, 0, 0, 0.703704833984375, 57.75,-128.5) ">
		<g>
			<g>
				
					<radialGradient id="SVGID_14_" cx="294.4381" cy="543.5579" r="3.9375" gradientTransform="matrix(0.7037 0 0 -0.7037 82.5549 756.1016)" gradientUnits="userSpaceOnUse">
					<stop  offset="0" style="stop-color:#FFFFFF"/>
					<stop  offset="1" style="stop-color:#1C96E0"/>
				</radialGradient>
				<path class="st15" d="M288.7,374.8c0.3,0.3,0.6,0.4,1,0.4c0.4,0,0.7-0.1,0.9-0.4s0.4-0.6,0.4-0.9c0-0.4-0.1-0.7-0.4-1
					s-0.6-0.4-0.9-0.4s-0.7,0.1-1,0.4s-0.4,0.6-0.4,1C288.3,374.2,288.4,374.5,288.7,374.8z"/>
			</g>
		</g>
	</g>
	<g transform="matrix( 0.647064208984375, 0, 0, 0.647064208984375, 124.35,-108.9) ">
		<g>
			<g>
				
					<radialGradient id="SVGID_15_" cx="253.1275" cy="541.0975" r="2.475" gradientTransform="matrix(0.6471 0 0 -0.6471 44.5507 731.0067)" gradientUnits="userSpaceOnUse">
					<stop  offset="0" style="stop-color:#FFFFFF"/>
					<stop  offset="1" style="stop-color:#1C96E0"/>
				</radialGradient>
				<path class="st16" d="M208.2,380.2c-0.2,0-0.4,0.1-0.6,0.3c-0.2,0.2-0.3,0.4-0.3,0.6c0,0.2,0.1,0.4,0.3,0.6
					c0.2,0.2,0.4,0.3,0.6,0.3c0.2,0,0.4-0.1,0.6-0.3s0.3-0.4,0.3-0.6c0-0.2-0.1-0.4-0.3-0.6C208.7,380.3,208.5,380.2,208.2,380.2z"
					/>
			</g>
		</g>
	</g>
	<g id="___1_64_" transform="matrix( 1, 0, 0, 1, 228.4,118.5) ">
		<g id="___1_65_">
			<g transform="matrix( 0.1918487548828125, 0.1918487548828125, -0.1918487548828125, 0.1918487548828125, -77.1,-109.35) ">
				<g>
					<g>
						
							<radialGradient id="SVGID_16_" cx="3157.1252" cy="17.2935" r="10.0125" gradientTransform="matrix(0.1918 -0.1918 -0.1918 -0.1918 15.57 601.0482)" gradientUnits="userSpaceOnUse">
							<stop  offset="0" style="stop-color:#FFFFFF"/>
							<stop  offset="1" style="stop-color:#84E3ED"/>
						</radialGradient>
						<path class="st17" d="M611.2-1.9c3.7-2.4,8-2.4,12.8,0c-2.6-4.9-2.6-9.1,0-12.8c-4.4,3.2-8.7,3.2-12.8,0
							C613.7-10,613.7-5.8,611.2-1.9z"/>
					</g>
				</g>
			</g>
		</g>
	</g>
	<g transform="matrix( 1, 0, 0, 1, -6.35,-28.4) ">
		<g>
			<g>
				
					<radialGradient id="SVGID_17_" cx="192.7949" cy="325.6622" r="1.75" gradientTransform="matrix(1 0 0 -1 16.7551 580.6122)" gradientUnits="userSpaceOnUse">
					<stop  offset="0" style="stop-color:#FFFFFF"/>
					<stop  offset="1" style="stop-color:#1C96E0"/>
				</radialGradient>
				<path class="st18" d="M209.1,255.5c0.1,0.1,0.2,0.2,0.4,0.2c0.2,0,0.3-0.1,0.4-0.2c0.1-0.1,0.2-0.2,0.2-0.4
					c0-0.2-0.1-0.3-0.2-0.4c-0.1-0.1-0.3-0.1-0.4-0.1c-0.2,0-0.3,0.1-0.4,0.1c-0.1,0.1-0.2,0.3-0.2,0.4
					C208.9,255.2,208.9,255.4,209.1,255.5z"/>
			</g>
		</g>
	</g>
	<g transform="matrix( 1, 0, 0, 1, -87.15,-138.85) ">
		<g>
			<g>
				
					<radialGradient id="SVGID_18_" cx="273.5949" cy="436.1122" r="1.75" gradientTransform="matrix(1 0 0 -1 6.7051 796.3622)" gradientUnits="userSpaceOnUse">
					<stop  offset="0" style="stop-color:#FFFFFF"/>
					<stop  offset="1" style="stop-color:#1C96E0"/>
				</radialGradient>
				<path class="st19" d="M280.6,359.9c-0.1-0.1-0.3-0.1-0.4-0.1c-0.2,0-0.3,0-0.4,0.1c-0.1,0.1-0.2,0.3-0.2,0.5
					c0,0.2,0.1,0.3,0.2,0.4c0.1,0.1,0.2,0.2,0.4,0.2c0.2,0,0.3-0.1,0.4-0.2c0.1-0.1,0.2-0.2,0.2-0.4S280.8,360,280.6,359.9z"/>
			</g>
		</g>
	</g>
	<g transform="matrix( -0.2572784423828125, -0.2572784423828125, -0.2572784423828125, 0.2572784423828125, 306.15,330.8) ">
		<g>
			<g>
				
					<radialGradient id="SVGID_19_" cx="1236.552" cy="2137.8264" r="10.0125" gradientTransform="matrix(-0.2573 0.2573 -0.2573 -0.2573 1278.6356 247.3814)" gradientUnits="userSpaceOnUse">
					<stop  offset="0" style="stop-color:#FFFFFF"/>
					<stop  offset="1" style="stop-color:#84E3ED"/>
				</radialGradient>
				<path class="st20" d="M403.8,21.6c3.7-2.4,8-2.4,12.8,0c-2.6-4.9-2.6-9.1,0-12.8c-4.4,3.2-8.7,3.2-12.8,0
					C406.2,13.4,406.2,17.7,403.8,21.6z"/>
			</g>
		</g>
	</g>
	<g id="___1_62_" transform="matrix( 1, 0, 0, 1, 232.7,205.25) ">
		<g transform="matrix( 0.0966949462890625, 0.0966949462890625, -0.0966949462890625, 0.0966949462890625, -38.85,-55.1) ">
			<g>
				<g>
					
						<radialGradient id="SVGID_20_" cx="10259.9727" cy="-3199.7202" r="10.0125" gradientTransform="matrix(9.669495e-02 -9.669495e-02 -9.669495e-02 -9.669495e-02 -566.5916 583.9409)" gradientUnits="userSpaceOnUse">
						<stop  offset="0" style="stop-color:#FFFFFF"/>
						<stop  offset="1" style="stop-color:#84E3ED"/>
					</radialGradient>
					<path class="st21" d="M728.2-92.6c3.7-2.4,8-2.4,12.8,0c-2.6-4.9-2.6-9.1,0-12.8c-4.4,3.2-8.7,3.2-12.8,0
						C730.6-100.8,730.6-96.5,728.2-92.6z"/>
				</g>
			</g>
		</g>
	</g>
	<g id="___1_61_" transform="matrix( 1, 0, 0, 1, 236.75,196.2) ">
		<g transform="matrix( 0.0966949462890625, 0.0966949462890625, -0.0966949462890625, 0.0966949462890625, -38.85,-55.1) ">
			<g>
				<g>
					
						<radialGradient id="SVGID_21_" cx="10285.8271" cy="-3131.9814" r="10.0125" gradientTransform="matrix(9.669495e-02 -9.669495e-02 -9.669495e-02 -9.669495e-02 -562.5416 592.9909)" gradientUnits="userSpaceOnUse">
						<stop  offset="0" style="stop-color:#FFFFFF"/>
						<stop  offset="1" style="stop-color:#84E3ED"/>
					</radialGradient>
					<path class="st22" d="M728.2-92.6c3.7-2.4,8-2.4,12.8,0c-2.6-4.9-2.6-9.1,0-12.8c-4.4,3.2-8.7,3.2-12.8,0
						C730.6-100.8,730.6-96.5,728.2-92.6z"/>
				</g>
			</g>
		</g>
	</g>
	<g transform="matrix( 1, 0, 0, 1, -100.35,-142.3) ">
		<g>
			<g>
				
					<radialGradient id="SVGID_22_" cx="286.7949" cy="439.5622" r="3.9375" gradientTransform="matrix(1 0 0 -1 -14.0949 811.0122)" gradientUnits="userSpaceOnUse">
					<stop  offset="0" style="stop-color:#FFFFFF"/>
					<stop  offset="1" style="stop-color:#1C96E0"/>
				</radialGradient>
				<path class="st23" d="M271.6,372.6c0.3,0.3,0.6,0.4,1,0.4c0.4,0,0.7-0.1,1-0.4c0.3-0.3,0.4-0.6,0.4-0.9c0-0.4-0.1-0.7-0.4-1
					c-0.3-0.3-0.6-0.4-1-0.4s-0.7,0.1-1,0.4c-0.3,0.3-0.4,0.6-0.4,1C271.3,372.1,271.4,372.4,271.6,372.6z"/>
			</g>
		</g>
	</g>
	<g transform="matrix( 1, 0, 0, 1, -103.95,-145.3) ">
		<g>
			<g>
				
					<radialGradient id="SVGID_23_" cx="290.3949" cy="442.5622" r="1.75" gradientTransform="matrix(1 0 0 -1 -10.0949 802.8122)" gradientUnits="userSpaceOnUse">
					<stop  offset="0" style="stop-color:#FFFFFF"/>
					<stop  offset="1" style="stop-color:#1C96E0"/>
				</radialGradient>
				<path class="st24" d="M280.6,359.9c-0.1-0.1-0.3-0.1-0.4-0.1c-0.2,0-0.3,0-0.4,0.1c-0.1,0.1-0.2,0.3-0.2,0.5
					c0,0.2,0.1,0.3,0.2,0.4c0.1,0.1,0.2,0.2,0.4,0.2c0.2,0,0.3-0.1,0.4-0.2c0.1-0.1,0.2-0.2,0.2-0.4S280.8,360,280.6,359.9z"/>
			</g>
		</g>
	</g>
	<g transform="matrix( 0.647064208984375, 0, 0, 0.647064208984375, 181.25,-94.1) ">
		<g>
			<g>
				
					<radialGradient id="SVGID_24_" cx="165.1918" cy="518.225" r="2.475" gradientTransform="matrix(0.6471 0 0 -0.6471 101.4507 716.2067)" gradientUnits="userSpaceOnUse">
					<stop  offset="0" style="stop-color:#FFFFFF"/>
					<stop  offset="1" style="stop-color:#1C96E0"/>
				</radialGradient>
				<path class="st25" d="M208.2,380.2c-0.2,0-0.4,0.1-0.6,0.3c-0.2,0.2-0.3,0.4-0.3,0.6c0,0.2,0.1,0.4,0.3,0.6
					c0.2,0.2,0.4,0.3,0.6,0.3c0.2,0,0.4-0.1,0.6-0.3s0.3-0.4,0.3-0.6c0-0.2-0.1-0.4-0.3-0.6C208.7,380.3,208.5,380.2,208.2,380.2z"
					/>
			</g>
		</g>
	</g>
	<g transform="matrix( 0.703704833984375, 0, 0, 0.703704833984375, 160.75,-131) ">
		<g>
			<g>
				
					<radialGradient id="SVGID_25_" cx="148.07" cy="547.1105" r="3.9375" gradientTransform="matrix(0.7037 0 0 -0.7037 91.7549 759.2016)" gradientUnits="userSpaceOnUse">
					<stop  offset="0" style="stop-color:#FFFFFF"/>
					<stop  offset="1" style="stop-color:#1C96E0"/>
				</radialGradient>
				<path class="st26" d="M196.8,373.5c-0.3-0.3-0.6-0.4-0.9-0.4s-0.7,0.1-0.9,0.4c-0.3,0.3-0.4,0.6-0.4,1c0,0.4,0.1,0.7,0.4,0.9
					c0.3,0.3,0.6,0.4,0.9,0.4c0.4,0,0.7-0.1,0.9-0.4s0.4-0.6,0.4-0.9C197.2,374.1,197.1,373.8,196.8,373.5z"/>
			</g>
		</g>
	</g>
	<g transform="matrix( 0.647064208984375, 0, 0, 0.647064208984375, 165.1,-110.9) ">
		<g>
			<g>
				
					<radialGradient id="SVGID_26_" cx="190.1507" cy="544.1884" r="2.475" gradientTransform="matrix(0.6471 0 0 -0.6471 85.3007 733.0067)" gradientUnits="userSpaceOnUse">
					<stop  offset="0" style="stop-color:#FFFFFF"/>
					<stop  offset="1" style="stop-color:#1C96E0"/>
				</radialGradient>
				<path class="st27" d="M208.2,380.2c-0.2,0-0.4,0.1-0.6,0.3c-0.2,0.2-0.3,0.4-0.3,0.6c0,0.2,0.1,0.4,0.3,0.6
					c0.2,0.2,0.4,0.3,0.6,0.3c0.2,0,0.4-0.1,0.6-0.3s0.3-0.4,0.3-0.6c0-0.2-0.1-0.4-0.3-0.6C208.7,380.3,208.5,380.2,208.2,380.2z"
					/>
			</g>
		</g>
	</g>
	<g id="___1_60_" transform="matrix( 1, 0, 0, 1, 256.6,136.7) ">
		<g transform="matrix( 0.0966949462890625, 0.0966949462890625, -0.0966949462890625, 0.0966949462890625, -38.85,-55.1) ">
			<g>
				<g>
					
						<radialGradient id="SVGID_27_" cx="10490.8535" cy="-2721.6707" r="10.0125" gradientTransform="matrix(9.669495e-02 -9.669495e-02 -9.669495e-02 -9.669495e-02 -542.6916 652.4908)" gradientUnits="userSpaceOnUse">
						<stop  offset="0" style="stop-color:#FFFFFF"/>
						<stop  offset="1" style="stop-color:#84E3ED"/>
					</radialGradient>
					<path class="st28" d="M728.2-92.6c3.7-2.4,8-2.4,12.8,0c-2.6-4.9-2.6-9.1,0-12.8c-4.4,3.2-8.7,3.2-12.8,0
						C730.6-100.8,730.6-96.5,728.2-92.6z"/>
				</g>
			</g>
		</g>
	</g>
	<g transform="matrix( 0.5212554931640625, 0, 0, 0.5212554931640625, 209.65,-47.55) ">
		<g>
			<g>
				
					<radialGradient id="SVGID_28_" cx="283.9959" cy="480.4811" r="3.9375" gradientTransform="matrix(0.5213 0 0 -0.5213 68.0628 627.1879)" gradientUnits="userSpaceOnUse">
					<stop  offset="0" style="stop-color:#FFFFFF"/>
					<stop  offset="1" style="stop-color:#1C96E0"/>
				</radialGradient>
				<path class="st29" d="M216.9,376c-0.3-0.3-0.6-0.4-0.9-0.4s-0.7,0.1-0.9,0.4c-0.3,0.3-0.4,0.6-0.4,1c0,0.4,0.1,0.7,0.4,0.9
					c0.3,0.3,0.6,0.4,0.9,0.4c0.4,0,0.7-0.1,0.9-0.4s0.4-0.6,0.4-0.9C217.3,376.6,217.2,376.3,216.9,376z"/>
			</g>
		</g>
	</g>
	<g id="___1_59_" transform="matrix( 1, 0, 0, 1, 329.45,229.5) ">
		<g transform="matrix( 0.0966949462890625, 0.0966949462890625, -0.0966949462890625, 0.0966949462890625, -38.85,-55.1) ">
			<g>
				<g>
					
						<radialGradient id="SVGID_29_" cx="9634.2939" cy="-2824.8301" r="10.0125" gradientTransform="matrix(9.669495e-02 -9.669495e-02 -9.669495e-02 -9.669495e-02 -469.8416 559.6909)" gradientUnits="userSpaceOnUse">
						<stop  offset="0" style="stop-color:#FFFFFF"/>
						<stop  offset="1" style="stop-color:#84E3ED"/>
					</radialGradient>
					<path class="st30" d="M728.2-92.6c3.7-2.4,8-2.4,12.8,0c-2.6-4.9-2.6-9.1,0-12.8c-4.4,3.2-8.7,3.2-12.8,0
						C730.6-100.8,730.6-96.5,728.2-92.6z"/>
				</g>
			</g>
		</g>
	</g>
	<g transform="matrix( 1, 0, 0, 1, 178.2,-31.75) ">
		<g>
			<g>
				
					<radialGradient id="SVGID_30_" cx="8.2449" cy="329.0122" r="1.75" gradientTransform="matrix(1 0 0 -1 201.3051 583.9622)" gradientUnits="userSpaceOnUse">
					<stop  offset="0" style="stop-color:#FFFFFF"/>
					<stop  offset="1" style="stop-color:#1C96E0"/>
				</radialGradient>
				<path class="st31" d="M209.1,255.5c0.1,0.1,0.2,0.2,0.4,0.2c0.2,0,0.3-0.1,0.4-0.2c0.1-0.1,0.2-0.2,0.2-0.4
					c0-0.2-0.1-0.3-0.2-0.4c-0.1-0.1-0.3-0.1-0.4-0.1c-0.2,0-0.3,0.1-0.4,0.1c-0.1,0.1-0.2,0.3-0.2,0.4
					C208.9,255.2,208.9,255.4,209.1,255.5z"/>
			</g>
		</g>
	</g>
	<g transform="matrix( 1, 0, 0, 1, 97.4,-142.2) ">
		<g>
			<g>
				
					<radialGradient id="SVGID_31_" cx="89.0449" cy="439.4622" r="1.75" gradientTransform="matrix(1 0 0 -1 191.2551 799.7122)" gradientUnits="userSpaceOnUse">
					<stop  offset="0" style="stop-color:#FFFFFF"/>
					<stop  offset="1" style="stop-color:#1C96E0"/>
				</radialGradient>
				<path class="st32" d="M280.6,359.9c-0.1-0.1-0.3-0.1-0.4-0.1c-0.2,0-0.3,0-0.4,0.1c-0.1,0.1-0.2,0.3-0.2,0.5
					c0,0.2,0.1,0.3,0.2,0.4c0.1,0.1,0.2,0.2,0.4,0.2c0.2,0,0.3-0.1,0.4-0.2c0.1-0.1,0.2-0.2,0.2-0.4S280.8,360,280.6,359.9z"/>
			</g>
		</g>
	</g>
	<g transform="matrix( -0.2572784423828125, -0.2572784423828125, -0.2572784423828125, 0.2572784423828125, 487.2,327.45) ">
		<g>
			<g>
				
					<radialGradient id="SVGID_32_" cx="1581.8984" cy="2496.1936" r="10.0125" gradientTransform="matrix(-0.2573 0.2573 -0.2573 -0.2573 1459.6859 250.7314)" gradientUnits="userSpaceOnUse">
					<stop  offset="0" style="stop-color:#FFFFFF"/>
					<stop  offset="1" style="stop-color:#84E3ED"/>
				</radialGradient>
				<path class="st33" d="M403.8,21.6c3.7-2.4,8-2.4,12.8,0c-2.6-4.9-2.6-9.1,0-12.8c-4.4,3.2-8.7,3.2-12.8,0
					C406.2,13.4,406.2,17.7,403.8,21.6z"/>
			</g>
		</g>
	</g>
	<g transform="matrix( 1, 0, 0, 1, 84.2,-145.65) ">
		<g>
			<g>
				
					<radialGradient id="SVGID_33_" cx="102.2449" cy="442.9122" r="3.9375" gradientTransform="matrix(1 0 0 -1 170.4551 814.3622)" gradientUnits="userSpaceOnUse">
					<stop  offset="0" style="stop-color:#FFFFFF"/>
					<stop  offset="1" style="stop-color:#1C96E0"/>
				</radialGradient>
				<path class="st34" d="M271.6,372.6c0.3,0.3,0.6,0.4,1,0.4c0.4,0,0.7-0.1,1-0.4c0.3-0.3,0.4-0.6,0.4-0.9c0-0.4-0.1-0.7-0.4-1
					c-0.3-0.3-0.6-0.4-1-0.4s-0.7,0.1-1,0.4c-0.3,0.3-0.4,0.6-0.4,1C271.3,372.1,271.4,372.4,271.6,372.6z"/>
			</g>
		</g>
	</g>
	<g transform="matrix( 1, 0, 0, 1, 68.4,-143.4) ">
		<g>
			<g>
				
					<radialGradient id="SVGID_34_" cx="118.0449" cy="440.6622" r="1.75" gradientTransform="matrix(1 0 0 -1 162.2551 800.9122)" gradientUnits="userSpaceOnUse">
					<stop  offset="0" style="stop-color:#FFFFFF"/>
					<stop  offset="1" style="stop-color:#1C96E0"/>
				</radialGradient>
				<path class="st35" d="M280.6,359.9c-0.1-0.1-0.3-0.1-0.4-0.1c-0.2,0-0.3,0-0.4,0.1c-0.1,0.1-0.2,0.3-0.2,0.5
					c0,0.2,0.1,0.3,0.2,0.4c0.1,0.1,0.2,0.2,0.4,0.2c0.2,0,0.3-0.1,0.4-0.2c0.1-0.1,0.2-0.2,0.2-0.4S280.8,360,280.6,359.9z"/>
			</g>
		</g>
	</g>
	<g id="___1_57_" transform="matrix( 1, 0, 0, 1, 308.65,139.45) ">
		<g id="___1_58_">
			<g transform="matrix( 0.1918487548828125, 0.1918487548828125, -0.1918487548828125, 0.1918487548828125, -77.1,-109.35) ">
				<g>
					<g>
						
							<radialGradient id="SVGID_35_" cx="2893.3762" cy="171.8422" r="10.0125" gradientTransform="matrix(0.1918 -0.1918 -0.1918 -0.1918 95.8199 580.0981)" gradientUnits="userSpaceOnUse">
							<stop  offset="0" style="stop-color:#FFFFFF"/>
							<stop  offset="1" style="stop-color:#84E3ED"/>
						</radialGradient>
						<path class="st36" d="M611.2-1.9c3.7-2.4,8-2.4,12.8,0c-2.6-4.9-2.6-9.1,0-12.8c-4.4,3.2-8.7,3.2-12.8,0
							C613.7-10,613.7-5.8,611.2-1.9z"/>
					</g>
				</g>
			</g>
		</g>
	</g>
	<g id="___1_56_" transform="matrix( 1, 0, 0, 1, 322.35,146) ">
		<g transform="matrix( 0.0966949462890625, 0.0966949462890625, -0.0966949462890625, 0.0966949462890625, -38.85,-55.1) ">
			<g>
				<g>
					
						<radialGradient id="SVGID_36_" cx="10102.7773" cy="-2429.7734" r="10.0125" gradientTransform="matrix(9.669495e-02 -9.669495e-02 -9.669495e-02 -9.669495e-02 -476.9416 643.1909)" gradientUnits="userSpaceOnUse">
						<stop  offset="0" style="stop-color:#FFFFFF"/>
						<stop  offset="1" style="stop-color:#84E3ED"/>
					</radialGradient>
					<path class="st37" d="M728.2-92.6c3.7-2.4,8-2.4,12.8,0c-2.6-4.9-2.6-9.1,0-12.8c-4.4,3.2-8.7,3.2-12.8,0
						C730.6-100.8,730.6-96.5,728.2-92.6z"/>
				</g>
			</g>
		</g>
	</g>
	<g transform="matrix( 0.703704833984375, 0, 0, 0.703704833984375, 135.7,-110.45) ">
		<g>
			<g>
				
					<radialGradient id="SVGID_37_" cx="183.6673" cy="517.908" r="3.9375" gradientTransform="matrix(0.7037 0 0 -0.7037 66.7049 738.6516)" gradientUnits="userSpaceOnUse">
					<stop  offset="0" style="stop-color:#FFFFFF"/>
					<stop  offset="1" style="stop-color:#1C96E0"/>
				</radialGradient>
				<path class="st38" d="M196.8,373.5c-0.3-0.3-0.6-0.4-0.9-0.4s-0.7,0.1-0.9,0.4c-0.3,0.3-0.4,0.6-0.4,1c0,0.4,0.1,0.7,0.4,0.9
					c0.3,0.3,0.6,0.4,0.9,0.4c0.4,0,0.7-0.1,0.9-0.4s0.4-0.6,0.4-0.9C197.2,374.1,197.1,373.8,196.8,373.5z"/>
			</g>
		</g>
	</g>
	<g id="___1_55_" transform="matrix( 1, 0, 0, 1, 199.45,269.3) ">
		<g transform="matrix( 0.0966949462890625, 0.0966949462890625, -0.0966949462890625, 0.0966949462890625, -38.85,-55.1) ">
			<g>
				<g>
					
						<radialGradient id="SVGID_38_" cx="10100.709" cy="-3702.8486" r="10.0125" gradientTransform="matrix(9.669495e-02 -9.669495e-02 -9.669495e-02 -9.669495e-02 -599.8416 519.8909)" gradientUnits="userSpaceOnUse">
						<stop  offset="0" style="stop-color:#FFFFFF"/>
						<stop  offset="1" style="stop-color:#84E3ED"/>
					</radialGradient>
					<path class="st39" d="M728.2-92.6c3.7-2.4,8-2.4,12.8,0c-2.6-4.9-2.6-9.1,0-12.8c-4.4,3.2-8.7,3.2-12.8,0
						C730.6-100.8,730.6-96.5,728.2-92.6z"/>
				</g>
			</g>
		</g>
	</g>
	<g id="___1_54_" transform="matrix( 1, 0, 0, 1, 235.95,232.95) ">
		<g transform="matrix( 0.0966949462890625, 0.0966949462890625, -0.0966949462890625, 0.0966949462890625, -38.85,-55.1) ">
			<g>
				<g>
					
						<radialGradient id="SVGID_39_" cx="10099.9336" cy="-3326.1487" r="10.0125" gradientTransform="matrix(9.669495e-02 -9.669495e-02 -9.669495e-02 -9.669495e-02 -563.3416 556.2409)" gradientUnits="userSpaceOnUse">
						<stop  offset="0" style="stop-color:#FFFFFF"/>
						<stop  offset="1" style="stop-color:#84E3ED"/>
					</radialGradient>
					<path class="st40" d="M728.2-92.6c3.7-2.4,8-2.4,12.8,0c-2.6-4.9-2.6-9.1,0-12.8c-4.4,3.2-8.7,3.2-12.8,0
						C730.6-100.8,730.6-96.5,728.2-92.6z"/>
				</g>
			</g>
		</g>
	</g>
	<g id="___1_52_" transform="matrix( 1, 0, 0, 1, 206.4,265.35) ">
		<g id="___1_53_">
			<g transform="matrix( 0.1918487548828125, 0.1918487548828125, -0.1918487548828125, 0.1918487548828125, -77.1,-109.35) ">
				<g>
					<g>
						
							<radialGradient id="SVGID_40_" cx="2831.7393" cy="-422.7661" r="10.0125" gradientTransform="matrix(0.1918 -0.1918 -0.1918 -0.1918 -6.4299 454.1983)" gradientUnits="userSpaceOnUse">
							<stop  offset="0" style="stop-color:#FFFFFF"/>
							<stop  offset="1" style="stop-color:#84E3ED"/>
						</radialGradient>
						<path class="st41" d="M611.2-1.9c3.7-2.4,8-2.4,12.8,0c-2.6-4.9-2.6-9.1,0-12.8c-4.4,3.2-8.7,3.2-12.8,0
							C613.7-10,613.7-5.8,611.2-1.9z"/>
					</g>
				</g>
			</g>
		</g>
	</g>
	<g transform="matrix( 1, 0, 0, 1, 94.6,-169.95) ">
		<g>
			<g>
				
					<radialGradient id="SVGID_41_" cx="91.8449" cy="467.2122" r="3.9375" gradientTransform="matrix(1 0 0 -1 87.0551 839.2622)" gradientUnits="userSpaceOnUse">
					<stop  offset="0" style="stop-color:#FFFFFF"/>
					<stop  offset="1" style="stop-color:#1C96E0"/>
				</radialGradient>
				<path class="st42" d="M179.8,371.4c-0.3-0.3-0.6-0.4-0.9-0.4s-0.7,0.1-0.9,0.4c-0.3,0.3-0.4,0.6-0.4,1c0,0.4,0.1,0.7,0.4,0.9
					c0.3,0.3,0.6,0.4,0.9,0.4c0.4,0,0.7-0.1,0.9-0.4s0.4-0.6,0.4-0.9C180.1,371.9,180,371.6,179.8,371.4z"/>
			</g>
		</g>
	</g>
	<g transform="matrix( 1, 0, 0, 1, 80.7,-174.7) ">
		<g>
			<g>
				
					<radialGradient id="SVGID_42_" cx="105.7449" cy="471.9622" r="1.75" gradientTransform="matrix(1 0 0 -1 91.9051 855.3622)" gradientUnits="userSpaceOnUse">
					<stop  offset="0" style="stop-color:#FFFFFF"/>
					<stop  offset="1" style="stop-color:#1C96E0"/>
				</radialGradient>
				<path class="st43" d="M198.1,383.5c0-0.2-0.1-0.3-0.1-0.4c-0.1-0.1-0.3-0.2-0.4-0.2c-0.2,0-0.3,0.1-0.4,0.2
					c-0.1,0.1-0.2,0.3-0.2,0.4c0,0.2,0.1,0.3,0.2,0.4c0.1,0.1,0.2,0.2,0.4,0.2c0.2,0,0.3-0.1,0.4-0.2
					C198.1,383.8,198.1,383.7,198.1,383.5z"/>
			</g>
		</g>
	</g>
	<g transform="matrix( 1, 0, 0, 1, 72.65,4.7) ">
		<g>
			<g>
				
					<radialGradient id="SVGID_43_" cx="113.7949" cy="292.5622" r="1.75" gradientTransform="matrix(1 0 0 -1 95.7551 547.5122)" gradientUnits="userSpaceOnUse">
					<stop  offset="0" style="stop-color:#FFFFFF"/>
					<stop  offset="1" style="stop-color:#1C96E0"/>
				</radialGradient>
				<path class="st44" d="M209.1,255.5c0.1,0.1,0.2,0.2,0.4,0.2c0.2,0,0.3-0.1,0.4-0.2c0.1-0.1,0.2-0.2,0.2-0.4
					c0-0.2-0.1-0.3-0.2-0.4c-0.1-0.1-0.3-0.1-0.4-0.1c-0.2,0-0.3,0.1-0.4,0.1c-0.1,0.1-0.2,0.3-0.2,0.4
					C208.9,255.2,208.9,255.4,209.1,255.5z"/>
			</g>
		</g>
	</g>
	<g transform="matrix( 1, 0, 0, 1, -8.15,-105.75) ">
		<g>
			<g>
				
					<radialGradient id="SVGID_44_" cx="194.5949" cy="403.0122" r="1.75" gradientTransform="matrix(1 0 0 -1 85.7051 763.2622)" gradientUnits="userSpaceOnUse">
					<stop  offset="0" style="stop-color:#FFFFFF"/>
					<stop  offset="1" style="stop-color:#1C96E0"/>
				</radialGradient>
				<path class="st45" d="M280.6,359.9c-0.1-0.1-0.3-0.1-0.4-0.1c-0.2,0-0.3,0-0.4,0.1c-0.1,0.1-0.2,0.3-0.2,0.5
					c0,0.2,0.1,0.3,0.2,0.4c0.1,0.1,0.2,0.2,0.4,0.2c0.2,0,0.3-0.1,0.4-0.2c0.1-0.1,0.2-0.2,0.2-0.4S280.8,360,280.6,359.9z"/>
			</g>
		</g>
	</g>
	<g transform="matrix( -0.2572784423828125, -0.2572784423828125, -0.2572784423828125, 0.2572784423828125, 385.15,363.9) ">
		<g>
			<g>
				
					<radialGradient id="SVGID_45_" cx="1454.4098" cy="2227.0295" r="10.0125" gradientTransform="matrix(-0.2573 0.2573 -0.2573 -0.2573 1357.6357 214.2813)" gradientUnits="userSpaceOnUse">
					<stop  offset="0" style="stop-color:#FFFFFF"/>
					<stop  offset="1" style="stop-color:#84E3ED"/>
				</radialGradient>
				<path class="st46" d="M403.8,21.6c3.7-2.4,8-2.4,12.8,0c-2.6-4.9-2.6-9.1,0-12.8c-4.4,3.2-8.7,3.2-12.8,0
					C406.2,13.4,406.2,17.7,403.8,21.6z"/>
			</g>
		</g>
	</g>
	<g id="___1_51_" transform="matrix( 1, 0, 0, 1, 315.75,229.3) ">
		<g transform="matrix( 0.0966949462890625, 0.0966949462890625, -0.0966949462890625, 0.0966949462890625, -38.85,-55.1) ">
			<g>
				<g>
					
						<radialGradient id="SVGID_46_" cx="9706.1699" cy="-2894.6372" r="10.0125" gradientTransform="matrix(9.669495e-02 -9.669495e-02 -9.669495e-02 -9.669495e-02 -483.5416 559.8909)" gradientUnits="userSpaceOnUse">
						<stop  offset="0" style="stop-color:#FFFFFF"/>
						<stop  offset="1" style="stop-color:#84E3ED"/>
					</radialGradient>
					<path class="st47" d="M728.2-92.6c3.7-2.4,8-2.4,12.8,0c-2.6-4.9-2.6-9.1,0-12.8c-4.4,3.2-8.7,3.2-12.8,0
						C730.6-100.8,730.6-96.5,728.2-92.6z"/>
				</g>
			</g>
		</g>
	</g>
	<g transform="matrix( 1, 0, 0, 1, -14.5,-105.6) ">
		<g>
			<g>
				
					<radialGradient id="SVGID_47_" cx="200.9449" cy="402.8622" r="3.9375" gradientTransform="matrix(1 0 0 -1 71.7551 774.3122)" gradientUnits="userSpaceOnUse">
					<stop  offset="0" style="stop-color:#FFFFFF"/>
					<stop  offset="1" style="stop-color:#1C96E0"/>
				</radialGradient>
				<path class="st48" d="M271.6,372.6c0.3,0.3,0.6,0.4,1,0.4c0.4,0,0.7-0.1,1-0.4c0.3-0.3,0.4-0.6,0.4-0.9c0-0.4-0.1-0.7-0.4-1
					c-0.3-0.3-0.6-0.4-1-0.4s-0.7,0.1-1,0.4c-0.3,0.3-0.4,0.6-0.4,1C271.3,372.1,271.4,372.4,271.6,372.6z"/>
			</g>
		</g>
	</g>
	<g transform="matrix( -0.1246185302734375, -0.1246185302734375, -0.1246185302734375, 0.1246185302734375, 301.95,202.9) ">
		<g>
			<g>
				
					<radialGradient id="SVGID_48_" cx="3728.4373" cy="8005.0991" r="10.0125" gradientTransform="matrix(-0.1246 0.1246 -0.1246 -0.1246 1778.3566 475.2181)" gradientUnits="userSpaceOnUse">
					<stop  offset="0" style="stop-color:#FFFFFF"/>
					<stop  offset="1" style="stop-color:#84E3ED"/>
				</radialGradient>
				<path class="st49" d="M309.4-64.4c2.4,4.6,2.4,8.9,0,12.8c3.7-2.4,8-2.4,12.8,0c-2.6-4.9-2.6-9.1,0-12.8
					C317.8-61.3,313.5-61.3,309.4-64.4z"/>
			</g>
		</g>
	</g>
	<g id="___1_50_" transform="matrix( 1, 0, 0, 1, 294.95,144.35) ">
		<g transform="matrix( 0.1918487548828125, 0.1918487548828125, -0.1918487548828125, 0.1918487548828125, -77.1,-109.35) ">
			<g>
				<g>
					
						<radialGradient id="SVGID_49_" cx="2916.3108" cy="123.3666" r="10.0125" gradientTransform="matrix(0.1918 -0.1918 -0.1918 -0.1918 82.12 575.1982)" gradientUnits="userSpaceOnUse">
						<stop  offset="0" style="stop-color:#FFFFFF"/>
						<stop  offset="1" style="stop-color:#84E3ED"/>
					</radialGradient>
					<path class="st50" d="M611.2-1.9c3.7-2.4,8-2.4,12.8,0c-2.6-4.9-2.6-9.1,0-12.8c-4.4,3.2-8.7,3.2-12.8,0
						C613.7-10,613.7-5.8,611.2-1.9z"/>
				</g>
			</g>
		</g>
	</g>
	<g id="___1_49_" transform="matrix( 1, 0, 0, 1, 151.5,139.95) ">
		<g transform="matrix( 0.0966949462890625, 0.0966949462890625, -0.0966949462890625, 0.0966949462890625, -38.85,-55.1) ">
			<g>
				<g>
					
						<radialGradient id="SVGID_50_" cx="11017.5098" cy="-3281.9375" r="10.0125" gradientTransform="matrix(9.669495e-02 -9.669495e-02 -9.669495e-02 -9.669495e-02 -647.7915 649.2408)" gradientUnits="userSpaceOnUse">
						<stop  offset="0" style="stop-color:#FFFFFF"/>
						<stop  offset="1" style="stop-color:#84E3ED"/>
					</radialGradient>
					<path class="st51" d="M728.2-92.6c3.7-2.4,8-2.4,12.8,0c-2.6-4.9-2.6-9.1,0-12.8c-4.4,3.2-8.7,3.2-12.8,0
						C730.6-100.8,730.6-96.5,728.2-92.6z"/>
				</g>
			</g>
		</g>
	</g>
	<g id="___1_47_" transform="matrix( 1, 0, 0, 1, 172.3,145.35) ">
		<g id="___1_48_">
			<g transform="matrix( 0.1918487548828125, 0.1918487548828125, -0.1918487548828125, 0.1918487548828125, -77.1,-109.35) ">
				<g>
					<g>
						
							<radialGradient id="SVGID_51_" cx="3233.3572" cy="-198.8921" r="10.0125" gradientTransform="matrix(0.1918 -0.1918 -0.1918 -0.1918 -40.5299 574.1982)" gradientUnits="userSpaceOnUse">
							<stop  offset="0" style="stop-color:#FFFFFF"/>
							<stop  offset="1" style="stop-color:#84E3ED"/>
						</radialGradient>
						<path class="st52" d="M611.2-1.9c3.7-2.4,8-2.4,12.8,0c-2.6-4.9-2.6-9.1,0-12.8c-4.4,3.2-8.7,3.2-12.8,0
							C613.7-10,613.7-5.8,611.2-1.9z"/>
					</g>
				</g>
			</g>
		</g>
	</g>
	<g transform="matrix( 1, 0, 0, 1, 38.55,-113.3) ">
		<g>
			<g>
				
					<radialGradient id="SVGID_52_" cx="147.8949" cy="410.5622" r="1.75" gradientTransform="matrix(1 0 0 -1 61.6551 665.5122)" gradientUnits="userSpaceOnUse">
					<stop  offset="0" style="stop-color:#FFFFFF"/>
					<stop  offset="1" style="stop-color:#1C96E0"/>
				</radialGradient>
				<path class="st53" d="M209.1,255.5c0.1,0.1,0.2,0.2,0.4,0.2c0.2,0,0.3-0.1,0.4-0.2c0.1-0.1,0.2-0.2,0.2-0.4
					c0-0.2-0.1-0.3-0.2-0.4c-0.1-0.1-0.3-0.1-0.4-0.1c-0.2,0-0.3,0.1-0.4,0.1c-0.1,0.1-0.2,0.3-0.2,0.4
					C208.9,255.2,208.9,255.4,209.1,255.5z"/>
			</g>
		</g>
	</g>
	<g transform="matrix( 1, 0, 0, 1, -34.7,-223.75) ">
		<g>
			<g>
				
					<radialGradient id="SVGID_53_" cx="221.1449" cy="521.0122" r="1.75" gradientTransform="matrix(1 0 0 -1 59.1551 881.2622)" gradientUnits="userSpaceOnUse">
					<stop  offset="0" style="stop-color:#FFFFFF"/>
					<stop  offset="1" style="stop-color:#1C96E0"/>
				</radialGradient>
				<path class="st54" d="M280.6,359.9c-0.1-0.1-0.3-0.1-0.4-0.1c-0.2,0-0.3,0-0.4,0.1c-0.1,0.1-0.2,0.3-0.2,0.5
					c0,0.2,0.1,0.3,0.2,0.4c0.1,0.1,0.2,0.2,0.4,0.2c0.2,0,0.3-0.1,0.4-0.2c0.1-0.1,0.2-0.2,0.2-0.4S280.8,360,280.6,359.9z"/>
			</g>
		</g>
	</g>
	<g transform="matrix( -0.2572784423828125, -0.2572784423828125, -0.2572784423828125, 0.2572784423828125, 351.05,245.9) ">
		<g>
			<g>
				
					<radialGradient id="SVGID_54_" cx="1158.8151" cy="2390.0825" r="10.0125" gradientTransform="matrix(-0.2573 0.2573 -0.2573 -0.2573 1323.5356 332.2816)" gradientUnits="userSpaceOnUse">
					<stop  offset="0" style="stop-color:#FFFFFF"/>
					<stop  offset="1" style="stop-color:#84E3ED"/>
				</radialGradient>
				<path class="st55" d="M403.8,21.6c3.7-2.4,8-2.4,12.8,0c-2.6-4.9-2.6-9.1,0-12.8c-4.4,3.2-8.7,3.2-12.8,0
					C406.2,13.4,406.2,17.7,403.8,21.6z"/>
			</g>
		</g>
	</g>
	<g transform="matrix( 1, 0, 0, 1, 91.75,-255.5) ">
		<g>
			<g>
				
					<radialGradient id="SVGID_55_" cx="94.6949" cy="552.7622" r="2.475" gradientTransform="matrix(1 0 0 -1 91.5551 930.8622)" gradientUnits="userSpaceOnUse">
					<stop  offset="0" style="stop-color:#FFFFFF"/>
					<stop  offset="1" style="stop-color:#1C96E0"/>
				</radialGradient>
				<path class="st56" d="M186.1,377.4c-0.2,0-0.4,0.1-0.6,0.3c-0.2,0.2-0.3,0.4-0.3,0.6c0,0.2,0.1,0.4,0.3,0.6
					c0.2,0.2,0.4,0.3,0.6,0.3c0.2,0,0.4-0.1,0.6-0.3s0.3-0.4,0.3-0.6c0-0.2-0.1-0.4-0.3-0.6C186.6,377.5,186.4,377.4,186.1,377.4z"
					/>
			</g>
		</g>
	</g>
	<g transform="matrix( -0.2572784423828125, -0.2572784423828125, -0.2572784423828125, 0.2572784423828125, 451.9,252.4) ">
		<g>
			<g>
				
					<radialGradient id="SVGID_56_" cx="1367.4417" cy="2573.4446" r="10.0125" gradientTransform="matrix(-0.2573 0.2573 -0.2573 -0.2573 1424.3859 325.7815)" gradientUnits="userSpaceOnUse">
					<stop  offset="0" style="stop-color:#FFFFFF"/>
					<stop  offset="1" style="stop-color:#84E3ED"/>
				</radialGradient>
				<path class="st57" d="M403.8,8.8c2.4,4.6,2.4,8.9,0,12.8c3.7-2.4,8-2.4,12.8,0c-2.6-4.9-2.6-9.1,0-12.8
					C412.1,12,407.9,12,403.8,8.8z"/>
			</g>
		</g>
	</g>
	<g id="___1_46_" transform="matrix( 1, 0, 0, 1, 246.15,127.95) ">
		<g transform="matrix( 0.0966949462890625, 0.0966949462890625, -0.0966949462890625, 0.0966949462890625, -38.85,-55.1) ">
			<g>
				<g>
					
						<radialGradient id="SVGID_57_" cx="10590.1348" cy="-2730.4612" r="10.0125" gradientTransform="matrix(9.669495e-02 -9.669495e-02 -9.669495e-02 -9.669495e-02 -553.1416 661.2408)" gradientUnits="userSpaceOnUse">
						<stop  offset="0" style="stop-color:#FFFFFF"/>
						<stop  offset="1" style="stop-color:#84E3ED"/>
					</radialGradient>
					<path class="st58" d="M728.2-92.6c3.7-2.4,8-2.4,12.8,0c-2.6-4.9-2.6-9.1,0-12.8c-4.4,3.2-8.7,3.2-12.8,0
						C730.6-100.8,730.6-96.5,728.2-92.6z"/>
				</g>
			</g>
		</g>
	</g>
	<g id="___1_44_" transform="matrix( 1, 0, 0, 1, 266.95,135.35) ">
		<g id="___1_45_">
			<g transform="matrix( 0.1918487548828125, 0.1918487548828125, -0.1918487548828125, 0.1918487548828125, -77.1,-109.35) ">
				<g>
					<g>
						
							<radialGradient id="SVGID_58_" cx="3012.741" cy="73.8485" r="10.0125" gradientTransform="matrix(0.1918 -0.1918 -0.1918 -0.1918 54.12 584.1982)" gradientUnits="userSpaceOnUse">
							<stop  offset="0" style="stop-color:#FFFFFF"/>
							<stop  offset="1" style="stop-color:#84E3ED"/>
						</radialGradient>
						<path class="st59" d="M611.2-1.9c3.7-2.4,8-2.4,12.8,0c-2.6-4.9-2.6-9.1,0-12.8c-4.4,3.2-8.7,3.2-12.8,0
							C613.7-10,613.7-5.8,611.2-1.9z"/>
					</g>
				</g>
			</g>
		</g>
	</g>
	<g transform="matrix( -0.2572784423828125, -0.2572784423828125, -0.2572784423828125, 0.2572784423828125, 397.4,238.55) ">
		<g>
			<g>
				
					<radialGradient id="SVGID_59_" cx="1234.6086" cy="2494.4443" r="10.0125" gradientTransform="matrix(-0.2573 0.2573 -0.2573 -0.2573 1369.8857 339.6316)" gradientUnits="userSpaceOnUse">
					<stop  offset="0" style="stop-color:#FFFFFF"/>
					<stop  offset="1" style="stop-color:#84E3ED"/>
				</radialGradient>
				<path class="st60" d="M403.8,21.6c3.7-2.4,8-2.4,12.8,0c-2.6-4.9-2.6-9.1,0-12.8c-4.4,3.2-8.7,3.2-12.8,0
					C406.2,13.4,406.2,17.7,403.8,21.6z"/>
			</g>
		</g>
	</g>
	<g transform="matrix( 1, 0, 0, 1, -66.25,-222.25) ">
		<g>
			<g>
				
					<radialGradient id="SVGID_60_" cx="252.6949" cy="519.5122" r="3.9375" gradientTransform="matrix(1 0 0 -1 20.0051 890.9622)" gradientUnits="userSpaceOnUse">
					<stop  offset="0" style="stop-color:#FFFFFF"/>
					<stop  offset="1" style="stop-color:#1C96E0"/>
				</radialGradient>
				<path class="st61" d="M271.6,372.6c0.3,0.3,0.6,0.4,1,0.4c0.4,0,0.7-0.1,1-0.4c0.3-0.3,0.4-0.6,0.4-0.9c0-0.4-0.1-0.7-0.4-1
					c-0.3-0.3-0.6-0.4-1-0.4s-0.7,0.1-1,0.4c-0.3,0.3-0.4,0.6-0.4,1C271.3,372.1,271.4,372.4,271.6,372.6z"/>
			</g>
		</g>
	</g>
	<g transform="matrix( -0.2572784423828125, -0.2572784423828125, -0.2572784423828125, 0.2572784423828125, 310.35,253.05) ">
		<g>
			<g>
				
					<radialGradient id="SVGID_61_" cx="1093.6133" cy="2297.0898" r="10.0125" gradientTransform="matrix(-0.2573 0.2573 -0.2573 -0.2573 1282.8356 325.1315)" gradientUnits="userSpaceOnUse">
					<stop  offset="0" style="stop-color:#FFFFFF"/>
					<stop  offset="1" style="stop-color:#84E3ED"/>
				</radialGradient>
				<path class="st62" d="M403.8,8.8c2.4,4.6,2.4,8.9,0,12.8c3.7-2.4,8-2.4,12.8,0c-2.6-4.9-2.6-9.1,0-12.8
					C412.1,12,407.9,12,403.8,8.8z"/>
			</g>
		</g>
	</g>
	<g transform="matrix( 0.5212554931640625, 0, 0, 0.5212554931640625, 163.15,-54) ">
		<g>
			<g>
				
					<radialGradient id="SVGID_62_" cx="373.2036" cy="492.8551" r="3.9375" gradientTransform="matrix(0.5213 0 0 -0.5213 21.5628 633.6379)" gradientUnits="userSpaceOnUse">
					<stop  offset="0" style="stop-color:#FFFFFF"/>
					<stop  offset="1" style="stop-color:#1C96E0"/>
				</radialGradient>
				<path class="st63" d="M216.9,376c-0.3-0.3-0.6-0.4-0.9-0.4s-0.7,0.1-0.9,0.4c-0.3,0.3-0.4,0.6-0.4,1c0,0.4,0.1,0.7,0.4,0.9
					c0.3,0.3,0.6,0.4,0.9,0.4c0.4,0,0.7-0.1,0.9-0.4s0.4-0.6,0.4-0.9C217.3,376.6,217.2,376.3,216.9,376z"/>
			</g>
		</g>
	</g>
	<g transform="matrix( -0.2572784423828125, -0.2572784423828125, -0.2572784423828125, 0.2572784423828125, 385.15,260.4) ">
		<g>
			<g>
				
					<radialGradient id="SVGID_63_" cx="1253.2655" cy="2428.1738" r="10.0125" gradientTransform="matrix(-0.2573 0.2573 -0.2573 -0.2573 1357.6357 317.7815)" gradientUnits="userSpaceOnUse">
					<stop  offset="0" style="stop-color:#FFFFFF"/>
					<stop  offset="1" style="stop-color:#84E3ED"/>
				</radialGradient>
				<path class="st64" d="M403.8,21.6c3.7-2.4,8-2.4,12.8,0c-2.6-4.9-2.6-9.1,0-12.8c-4.4,3.2-8.7,3.2-12.8,0
					C406.2,13.4,406.2,17.7,403.8,21.6z"/>
			</g>
		</g>
	</g>
	<g transform="matrix( -0.2572784423828125, -0.2572784423828125, -0.2572784423828125, 0.2572784423828125, 294.35,334.95) ">
		<g>
			<g>
				
					<radialGradient id="SVGID_64_" cx="1221.6849" cy="2106.8286" r="10.0125" gradientTransform="matrix(-0.2573 0.2573 -0.2573 -0.2573 1266.8356 243.2314)" gradientUnits="userSpaceOnUse">
					<stop  offset="0" style="stop-color:#FFFFFF"/>
					<stop  offset="1" style="stop-color:#84E3ED"/>
				</radialGradient>
				<path class="st65" d="M403.8,21.6c3.7-2.4,8-2.4,12.8,0c-2.6-4.9-2.6-9.1,0-12.8c-4.4,3.2-8.7,3.2-12.8,0
					C406.2,13.4,406.2,17.7,403.8,21.6z"/>
			</g>
		</g>
	</g>
	<g transform="matrix( 1, 0, 0, 1, -28.85,-34.75) ">
		<g>
			<g>
				
					<radialGradient id="SVGID_65_" cx="215.2949" cy="332.0122" r="1.75" gradientTransform="matrix(1 0 0 -1 -5.7449 586.9622)" gradientUnits="userSpaceOnUse">
					<stop  offset="0" style="stop-color:#FFFFFF"/>
					<stop  offset="1" style="stop-color:#1C96E0"/>
				</radialGradient>
				<path class="st66" d="M209.1,255.5c0.1,0.1,0.2,0.2,0.4,0.2c0.2,0,0.3-0.1,0.4-0.2c0.1-0.1,0.2-0.2,0.2-0.4
					c0-0.2-0.1-0.3-0.2-0.4c-0.1-0.1-0.3-0.1-0.4-0.1c-0.2,0-0.3,0.1-0.4,0.1c-0.1,0.1-0.2,0.3-0.2,0.4
					C208.9,255.2,208.9,255.4,209.1,255.5z"/>
			</g>
		</g>
	</g>
	<g transform="matrix( -0.17889404296875, -0.17889404296875, -0.17889404296875, 0.17889404296875, 269.85,288.3) ">
		<g>
			<g>
				
					<radialGradient id="SVGID_66_" cx="2047.1454" cy="3979.3354" r="10.0125" gradientTransform="matrix(-0.1789 0.1789 -0.1789 -0.1789 1449.7518 331.0161)" gradientUnits="userSpaceOnUse">
					<stop  offset="0" style="stop-color:#FFFFFF"/>
					<stop  offset="1" style="stop-color:#84E3ED"/>
				</radialGradient>
				<path class="st67" d="M365-8.5c3.7-2.4,8-2.4,12.8,0c-2.6-4.9-2.6-9.1,0-12.8c-4.4,3.2-8.7,3.2-12.8,0
					C367.4-16.7,367.4-12.4,365-8.5z"/>
			</g>
		</g>
	</g>
</g>
</svg>
