<?xml version="1.0" encoding="utf-8"?>
<!-- Generator: Adobe Illustrator 24.2.1, SVG Export Plug-In . SVG Version: 6.00 Build 0)  -->
<svg version="1.1" id="射手座" xmlns="http://www.w3.org/2000/svg" xmlns:xlink="http://www.w3.org/1999/xlink" x="0px" y="0px"
	 viewBox="0 0 285 400" style="enable-background:new 0 0 285 400;" xml:space="preserve">
<style type="text/css">
	.st0{fill:url(#SVGID_1_);}
	.st1{fill:#CCCCCC;}
	.st2{fill:url(#SVGID_2_);}
	.st3{fill:url(#SVGID_3_);}
	.st4{fill:url(#SVGID_4_);}
	.st5{fill:url(#SVGID_5_);}
	.st6{fill:url(#SVGID_6_);}
	.st7{fill:url(#SVGID_7_);}
	.st8{fill:url(#SVGID_8_);}
	.st9{fill:url(#SVGID_9_);}
	.st10{fill:url(#SVGID_10_);}
	.st11{fill:url(#SVGID_11_);}
	.st12{fill:url(#SVGID_12_);}
	.st13{fill:url(#SVGID_13_);}
	.st14{fill:url(#SVGID_14_);}
	.st15{fill:url(#SVGID_15_);}
	.st16{fill:none;stroke:url(#SVGID_16_);stroke-linecap:round;stroke-linejoin:round;}
	.st17{fill:none;stroke:url(#SVGID_17_);stroke-linecap:round;stroke-linejoin:round;}
	.st18{fill:url(#SVGID_18_);}
	.st19{fill:none;stroke:url(#SVGID_19_);stroke-linecap:round;stroke-linejoin:round;}
	.st20{fill:url(#SVGID_20_);}
	.st21{fill:url(#SVGID_21_);}
	.st22{fill:url(#SVGID_22_);}
	.st23{fill:url(#SVGID_23_);}
	.st24{fill:url(#SVGID_24_);}
	.st25{fill:none;stroke:url(#SVGID_25_);stroke-linecap:round;stroke-linejoin:round;}
	.st26{fill:url(#SVGID_26_);}
	.st27{fill:none;stroke:url(#SVGID_27_);stroke-linecap:round;stroke-linejoin:round;}
	.st28{fill:url(#SVGID_28_);}
	.st29{fill:none;stroke:#FFFFFF;stroke-linecap:round;stroke-linejoin:round;}
	.st30{fill:url(#SVGID_29_);}
	.st31{fill:url(#SVGID_30_);}
	.st32{fill:url(#SVGID_31_);}
	.st33{fill:url(#SVGID_32_);}
	.st34{fill:url(#SVGID_33_);}
	.st35{fill:url(#SVGID_34_);}
	.st36{fill:url(#SVGID_35_);}
	.st37{fill:url(#SVGID_36_);}
	.st38{fill:url(#SVGID_37_);}
	.st39{fill:url(#SVGID_38_);}
</style>
<rect id="bg" width="285" height="400"/>
<g id="角色">
	<g id="身体" transform="matrix( 1, 0, 0, 1, -230,20) ">
		<g>
			<g>
				
					<radialGradient id="SVGID_1_" cx="230" cy="382" r="80.2125" fx="230.6291" fy="382" gradientTransform="matrix(1 0 0 -1 90.75 700.9)" gradientUnits="userSpaceOnUse">
					<stop  offset="0" style="stop-color:#0464A5"/>
					<stop  offset="9.803922e-02" style="stop-color:#054EA6"/>
					<stop  offset="0.4471" style="stop-color:#152236"/>
					<stop  offset="0.7922" style="stop-color:#204178"/>
					<stop  offset="1" style="stop-color:#1C96E0"/>
				</radialGradient>
				<path class="st0" d="M309.1,307.5c-0.5-0.8-0.7-1.5-0.7-2c0-0.4,0.1-0.8,0.2-1.3l-3.9,1.4c-0.7,0.3-1.1,0.9-1.3,1.8
					c-0.1,0.3-0.1,0.5-0.1,0.8c0,3.1,0.9,6.1,2.8,9c1.1,1.7,2.7,3.9,5,6.8c1.1-1.2,2-2.6,2.8-4.1c0.8-1.8,1.3-3.5,1.3-5.1
					c-0.1-1-0.2-1.9-0.4-2.8c-0.1,0-0.2,0-0.3,0c-1.6,0-3-0.9-4.3-2.7C309.9,308.7,309.4,308,309.1,307.5z"/>
				<path class="st1" d="M264.1,240.4c0.2,0.2,0.4,0.3,0.6,0.5l0.1-0.3C264.6,240.6,264.3,240.6,264.1,240.4 M389.8,216.6l-0.3-0.3
					c-0.1,0.1-0.3,0.6-0.6,1.4C389.1,217.3,389.4,217,389.8,216.6 M453.5,163.4L453.5,163.4l0.3,0.2c-0.1-0.1-0.1-0.1-0.1-0.2
					c0-0.1-0.1-0.1-0.1-0.1C453.5,163.3,453.5,163.4,453.5,163.4 M434,155.5c0.2,0,0.4,0,0.5,0c-0.1-0.1-0.1-0.2-0.2-0.3L434,155.5
					 M335.5,192.4c0.2-0.2,0.4-0.4,0.6-0.6c-0.2,0.1-0.5,0.1-0.7,0.3c-0.1,0-0.1,0-0.3,0L335.5,192.4 M403.8,109.2
					c0.2,0,0.3,0,0.5,0.1L404,109C403.9,109.1,403.9,109.1,403.8,109.2 M397.3,83.1c0.2,0,0.4,0.1,0.6,0.2v-0.3
					C397.6,83,397.4,83,397.3,83.1 M402.1,87.8L402.1,87.8c0.1,0.1,0.2,0.2,0.4,0.3v0.1l0-0.1c-0.1-0.1-0.2-0.2-0.3-0.3
					C402.2,87.8,402.1,87.8,402.1,87.8L402.1,87.8z"/>
				
					<radialGradient id="SVGID_2_" cx="230" cy="382" r="255.075" fx="228.9997" fy="382" gradientTransform="matrix(1 0 0 -1 107.75 580.35)" gradientUnits="userSpaceOnUse">
					<stop  offset="0" style="stop-color:#0464A5"/>
					<stop  offset="9.803922e-02" style="stop-color:#054EA6"/>
					<stop  offset="0.4471" style="stop-color:#152236"/>
					<stop  offset="0.7922" style="stop-color:#204178"/>
					<stop  offset="1" style="stop-color:#1C96E0"/>
				</radialGradient>
				<path class="st2" d="M346,313.3c-0.6-0.4-1-1-1.3-2c-0.9,0.1-1.5,0.2-2,0.3c-1.1,0.2-1.7,0.9-1.7,2c0,3.5,1.2,7,3.8,10.4
					c0.9,1.3,3.5,4.1,7.7,8.3c1-1.6,1.7-3.2,2.1-4.8c0.3-1.4,0.5-3.2,0.5-5.4c0-2.1-0.1-3.7-0.3-4.8v-0.1c-1-0.1-2.5-0.7-4.6-1.8
					C348.6,314.8,347.3,314,346,313.3z"/>
				
					<radialGradient id="SVGID_3_" cx="230" cy="382" r="167.6375" fx="229.3426" fy="382" gradientTransform="matrix(1 0 0 -1 164.6 674.55)" gradientUnits="userSpaceOnUse">
					<stop  offset="0" style="stop-color:#4AE0EF"/>
					<stop  offset="0.1451" style="stop-color:#4AE0EF"/>
					<stop  offset="0.149" style="stop-color:#4AE0EF"/>
					<stop  offset="0.4" style="stop-color:#054EA6"/>
					<stop  offset="0.6275" style="stop-color:#020406"/>
					<stop  offset="0.7922" style="stop-color:#204178"/>
					<stop  offset="1" style="stop-color:#1C96E0"/>
				</radialGradient>
				<path class="st3" d="M370.5,236c-0.6,1.5-1.3,3.2-2.1,5.1c-0.4,1-0.9,1.8-1.4,2.6c-0.8,1.3-1.7,2.4-2.8,3.4
					c-1.9,1.8-4.7,3.2-8.3,4.3c-3.7,1-8.9,2.9-15.8,5.8c-0.6,0.3-1.2,0.5-1.8,0.8c-0.4,0.5-0.8,1-1.2,1.4c-1.2,1.5-2.6,2.7-4,3.6
					c-0.7,0.5-2.5,1.1-5.5,1.9c-1.4,0.4-2.1,1.6-2.1,3.9c0,1.3,0.5,2.6,1.4,4c0.3,0.4,0.6,0.8,0.9,1.2c0.7,2.1,1.6,4.3,2.8,6.7
					c1,1.9,2.4,4.6,4.3,8c0.8,1.6,2.1,4,3.9,7.1c1.4,2.8,2.1,5.4,2.1,7.6c0,1.2-0.1,2.1-0.3,2.8c-0.1,0.3-0.3,0.7-0.6,1.4
					c-0.1,0.4-0.3,0.8-0.5,1.3c1.3,0.1,2.3-0.1,3-0.8c0.2-0.2,0.3-0.3,0.5-0.4c0.4-0.4,0.6-0.7,0.6-0.8c0.5-0.8,0.8-2.2,0.9-4
					c-0.1,1.8-0.4,3.2-0.9,4c0,0.2,0.1,0.5,0.1,0.8c0.1,0.5,0.2,1,0.3,1.5c0.1,0.9,0.3,1.7,0.6,2.3c0.3,1,0.8,1.6,1.3,2
					c1.2,0.7,2.6,1.5,4.1,2.3c2.1,1,3.6,1.6,4.6,1.8c0.1,0,0.3,0,0.4,0c0.4,0,0.6-0.4,0.6-1s-0.3-2.8-0.8-6.3
					c-0.1-0.9-0.3-1.8-0.5-2.5c-0.6-2.2-1.4-3.8-2.5-5c-1.5-1.6-3.1-3.6-4.9-6c-1.8-2.4-4-7.1-6.7-14c-0.2-0.5-0.3-0.9-0.5-1.4
					c-0.6-1.5-1.1-2.9-1.6-4.3c-0.2-0.9-0.3-1.9-0.4-2.9c-0.1-1.4,1.2-2.5,4.1-3.5c2.8-1,6.8-2.2,11.8-3.6c5-1.4,9.3-2.9,12.8-4.4
					c0.5-0.2,1.3-0.5,2.3-0.9c0.9-0.4,1.9-1,3-1.9s1.8-2.4,2.3-4.6c0.4-2.2,0.8-4.5,1.3-6.7c0.3-1.3,0.6-2.8,0.9-4.4
					c0.2-1.2,0.3-2.4,0.5-3.8c0.1-1.1,0.3-2.1,0.5-3.1C374.9,236.6,372.8,236.4,370.5,236 M465.6,229.8c-2.3-1.6-4.2-3-5.6-4.1
					c-2.6-2.1-5-4.6-7.3-7.4c-1.6,1.7-3.8,3.5-6.5,5.4c0.2,0.3,0.4,0.6,0.5,1c1.1,1.5,2.3,3.1,3.4,4.8c0.1,0.1,0.1,0.2,0.2,0.3
					c1.1,1.6,2.1,3.1,3,4.5c5.4,1.6,8.6,2.6,9.5,2.9c2.5,0.8,5,1.9,7.7,3.2c0.5,0.3,1.4,0.7,2.7,1.3c1.1,0.6,1.8,1.3,2.1,1.9
					c0,0.1,0.1,0.2,0.1,0.3c0.8,1.6,1.7,2.7,2.7,3.3c0.6,2,0.9,4.3,0.9,6.8c0,2.2-0.3,4.1-1,5.7c-0.5,1.1-1,2-1.8,2.5
					c0.2,0.7,0.3,1.4,0.4,2.1c0,1.5-0.1,2.7-0.4,3.6c-0.3,0.8-0.4,1.4-0.4,1.8c0,1.2,0.4,2.8,1.2,4.5c0.4,0.9,0.6,1.8,0.8,2.5
					c0.4-0.3,0.9-0.7,1.4-1c3.9-3,5.8-5,5.8-6.2c0-1.9-0.2-4-0.7-6.3c-0.5-2.4-0.7-4.7-0.7-7c0-2.4,0.3-4.7,1-7c0.7-1.8,1-2.9,1-3.2
					c0-0.7,0-1.4-0.1-2.1c-0.5-3-2.1-5.2-4.8-6.4c-2.2-0.8-3.9-1.4-5.2-1.9c-2.3-0.9-4.4-1.9-6-3.1
					C468.1,231.4,466.8,230.6,465.6,229.8z"/>
				
					<radialGradient id="SVGID_4_" cx="230" cy="382" r="114.6875" fx="229.5502" fy="382" gradientTransform="matrix(1 0 0 -1 206.8 541.85)" gradientUnits="userSpaceOnUse">
					<stop  offset="0.1765" style="stop-color:#4FC1FF"/>
					<stop  offset="0.5647" style="stop-color:#076AB5"/>
					<stop  offset="0.7922" style="stop-color:#204178"/>
					<stop  offset="1" style="stop-color:#1C96E0"/>
				</radialGradient>
				<path class="st4" d="M389.5,216.4l0.3,0.3v-0.1L389.5,216.4z"/>
				
					<radialGradient id="SVGID_5_" cx="230" cy="382" r="61.2" fx="230.48" fy="382" gradientTransform="matrix(1 0 0 -1 199.3 613.2)" gradientUnits="userSpaceOnUse">
					<stop  offset="0" style="stop-color:#4AE0EF"/>
					<stop  offset="9.803922e-02" style="stop-color:#4AE0EF"/>
					<stop  offset="0.4471" style="stop-color:#152236"/>
					<stop  offset="0.7922" style="stop-color:#204178"/>
					<stop  offset="1" style="stop-color:#1C96E0"/>
				</radialGradient>
				<path class="st5" d="M460.8,276.7c-0.5-0.7-1.4-1-2.9-1.1c-1.4-0.1-2.6,1.6-3.4,4.9c-0.5,2.1-0.8,4.3-0.8,6.8
					c0,0.4,0.1,1.6,0.4,3.7c4-1.1,8.1-2.7,12.1-4.9c-0.6-0.3-1.2-0.7-1.9-1.1c-2.3-1.6-3.3-2.8-3.1-3.6c0.2-0.7,0.7-1.3,1.6-1.7
					C461.9,278.4,461.2,277.4,460.8,276.7z"/>
				
					<radialGradient id="SVGID_6_" cx="-194" cy="450.4662" r="69.35" fx="-194" fy="443.6671" gradientTransform="matrix(0 -1 -2.1042 0 1381.9626 19.05)" gradientUnits="userSpaceOnUse">
					<stop  offset="0.1765" style="stop-color:#4FC1FF"/>
					<stop  offset="0.3137" style="stop-color:#4AE0EF"/>
					<stop  offset="0.5647" style="stop-color:#076AB5"/>
					<stop  offset="0.7922" style="stop-color:#204178"/>
					<stop  offset="1" style="stop-color:#1C96E0"/>
				</radialGradient>
				<path class="st6" d="M455.4,169.8c-0.3,0.5-0.9,1.1-1.6,1.9c0,0.1,0.1,0.1,0.1,0.2c1.6,6.2,2.6,11,3.3,14.3
					c0.9,5,1.4,10.1,1.4,15.1c0,1.7-0.1,3.3-0.3,4.8c-0.3,1.9-0.7,3.7-1.2,5.3c1.3-0.9,2.4-1.9,3.5-3.2c0.6-0.7,1.1-1.4,1.5-2.1l0,0
					c1.5-2.3,2.2-4.6,2.2-6.9c0-0.9-0.7-3.6-2-8.2c-0.1-0.2-0.1-0.3-0.2-0.4c-1.3-4.1-2-6.3-2-6.4c-1.5-5-2.3-7.7-2.4-8
					c-0.4-1.4-0.9-2.8-1.5-4.2C455.9,171.2,455.6,170.5,455.4,169.8 M436.8,157.9c-0.4,0.4-0.8,0.6-1.1,0.8
					c-0.8,0.4-1.7,0.9-2.5,1.6c0.8,0.3,1.8,1,3,2c0.4,0.3,0.7,0.6,1.1,1c1.2,1.2,2.5,2.6,4,4.4c1.3,1.6,2.5,3,3.5,4.1
					c2.1,2.4,3.5,3.6,4.2,3.6c0.8,0,2.2-1,4.1-3c0.2-0.2,0.4-0.4,0.6-0.6c0,0,0.1-0.1,0.1-0.1c0,0,0.1-0.1,0.1-0.1
					c0.7-0.8,1.2-1.4,1.6-1.9c0.3-0.5,0.5-0.9,0.5-1.2c0-1.4-0.7-3.1-2.1-5l-0.3-0.2c-0.5,1.2-1.4,2.5-2.6,3.9
					c-1.8,1.9-3.3,2.8-4.5,2.8c-0.5,0-1-0.2-1.6-0.6c-0.7-0.5-1.1-1.1-1.1-1.8c0,0.7,0.4,1.3,1.1,1.8c0.6,0.4,1.1,0.6,1.6,0.6
					c1.2,0,2.7-0.9,4.5-2.8c1.3-1.3,2.2-2.6,2.6-3.9v-0.1c0,0,0-0.1,0-0.1c0.2-0.6,0.3-1.3,0.3-1.9c0-2.2-0.6-4.1-1.8-5.6
					c-0.6-0.8-1.4-1.5-2.1-1.9c-0.4-0.2-0.8-0.4-1.1-0.5c0.3,1.1,0.6,2,0.9,2.8c0.1-0.5,0.2-1,0.3-1.4c-0.1,0.5-0.2,0.9-0.3,1.4
					c-0.3,1-0.9,2.1-1.8,3.3c-1.4,2-3,3.2-4.6,3.6c0.1,0.1,0.3,0.3,0.4,0.4c0.6,0.5,1.3,0.7,2.2,0.7c0.7,0,1.5-0.2,2.4-0.7
					c0.3-0.2,0.6-0.3,0.9-0.5c0.9-0.6,1.5-1.3,1.9-1.9c-0.4,0.6-1,1.3-1.9,1.9c-0.3,0.2-0.6,0.4-0.9,0.5c-0.9,0.5-1.7,0.7-2.4,0.7
					c-0.9,0-1.6-0.2-2.2-0.7c-0.2-0.1-0.3-0.3-0.4-0.4c-0.1-0.1-0.1-0.1-0.2-0.2c-1-1.4-1.8-2.3-2.4-2.7
					C439.3,159.1,438,158.4,436.8,157.9 M450.9,171.9c0.3-0.5,0.6-1,0.9-1.5c0.6-1,1.1-2.5,1.7-4.3c-0.5,1.8-1.1,3.3-1.7,4.3
					C451.5,170.9,451.2,171.4,450.9,171.9c-0.6,0.8-1.3,1.5-2,2.2C449.6,173.4,450.3,172.7,450.9,171.9 M390,194.6
					c-0.5,0.5-1,1.1-1.5,1.6c0.3,2.6,0.7,5.2,1.1,7.8c0.1,0.8,0.3,1.5,0.4,2.2c0.2,1.5,0.3,2.9,0.3,4.2c0,2.6-0.3,4.6-0.8,6.1
					l0.3,0.2c0.9-1.2,1.8-2.5,2.6-3.8c1.4-2.4,2.6-4.7,3.9-6.7c1.3-2.2,2.5-4.1,3.6-5.8c2.7-4.1,5.4-8.6,8.1-13.4
					c0.1-0.1,0.1-0.3,0.3-0.4c0.7-1.3,1.9-3.5,3.6-6.6c1.2-2.2,2.6-4.9,4.3-8c-1.7,3.1-3.1,5.8-4.3,8c-1.7,3.1-2.9,5.3-3.6,6.6
					c0.9-1,1.7-1.9,2.3-2.6c1.8-2,3.4-3.8,4.8-5.3c1-1.2,1.9-2.3,2.6-3.3c0.8-1.2,1.6-2.4,2.4-3.4c1.8-2.6,3.3-4.6,4.5-6.1
					c0.7-0.9,1.4-1.7,2-2.4c2.4-2.5,4.6-4.1,6.7-4.9c-2.1,0.8-4.3,2.4-6.7,4.9c-0.7,0.7-1.4,1.5-2,2.4c-1.2,1.5-2.7,3.6-4.5,6.1
					c-0.7,1-1.5,2.2-2.4,3.4c-0.7,0.9-1.6,2-2.6,3.3c2.7-1.4,5.4-3.6,8.1-6.7c0.7-0.8,1.5-1.7,2.2-2.7c2.1-2.8,3.6-4.7,4.5-5.8
					c0.3-0.3,0.5-0.6,0.6-0.8c0.8-0.9,1.6-1.7,2.5-2.3c0.8-0.7,1.7-1.2,2.5-1.6c0.3-0.2,0.7-0.4,1.1-0.8c-0.5-0.2-1-0.4-1.5-0.5
					c-0.3-0.1-0.5-0.1-0.8-0.1c0.3,0,0.5,0.1,0.8,0.1c-0.2-0.5-0.4-1.1-0.6-1.6c-0.1-0.1-0.1-0.2-0.1-0.3c-0.1,0-0.3,0-0.5,0
					c-2.8,0-5.6,1.2-8.2,3.6c-1.2,1.1-2.5,2.5-3.8,4.3c-1.5,2-3,4.3-4.7,7.1c1.7-2.8,3.2-5.1,4.7-7.1c1.3-1.7,2.6-3.1,3.8-4.3
					c2.6-2.4,5.4-3.6,8.2-3.6l0.3-0.3c-1-1.8-2-2.7-3.1-2.7c-0.3,0-0.6,0-0.9,0.1c0.5,0.5,0.9,1,1.2,1.4c-0.3-0.5-0.7-0.9-1.2-1.4
					c-1-0.9-2.4-1.9-4.3-3.1c-2.1-1.3-3.8-2.1-5-2.4c-0.5-0.2-0.9-0.3-1.3-0.3c-0.8,0-1.3,0.1-1.5,0.2c-0.2,0.2-0.3,0.6-0.3,1.4
					l0.1,1.8c0.9,0.1,2.1,0.6,3.6,1.3c0.3,0.1,0.6,0.3,0.9,0.4c1.3,0.7,2.5,1.5,3.8,2.3c0.6,0.4,1.3,0.9,1.9,1.4
					c-0.6-0.5-1.3-1-1.9-1.4c-1.2-0.8-2.5-1.6-3.8-2.3c-0.3-0.2-0.6-0.3-0.9-0.4c-1.4-0.7-2.6-1.2-3.6-1.3c-0.3-0.1-0.6-0.1-0.8-0.1
					c-1.1,0-1.7,0.4-1.8,1.2c0,0.3,0,0.9,0,1.8c0.1,0,0.1,0,0.2,0c1.4,0,3.1,0.4,5.3,1.1c0.2,0.1,0.4,0.1,0.6,0.3
					c1,0.4,1.8,0.8,2.5,1.1c0.6,0.4,1.1,0.8,1.5,1.2c-0.4-0.4-0.9-0.8-1.5-1.2c-0.7-0.4-1.5-0.8-2.5-1.1c-0.2-0.1-0.5-0.2-0.6-0.3
					c-2.1-0.7-3.9-1.1-5.3-1.1c-0.1,0-0.1,0-0.2,0c-2.2,0.1-3.3,0.8-3.3,2.3c0,0.6,0.1,2.5,0.4,5.6c1.2-0.4,2.5-0.7,4-0.9
					c0.9-0.1,1.8-0.2,2.6-0.3c2.2-0.4,3.8-1.2,4.8-2.2c-1,1-2.6,1.7-4.8,2.2c-0.8,0.8-1.7,2-2.8,3.5c-0.5,0.7-1.1,1.6-1.7,2.5
					c-1.8,2.8-3.2,4.8-4.2,6c-0.1,0.1-0.3,0.3-0.4,0.4c-0.2,0.2-0.4,0.4-0.5,0.6C404.1,179.4,397.5,186.6,390,194.6
					C390,194.5,390,194.5,390,194.6 M395.3,168.1c-0.4,0-0.8,0-1.3-0.1c-1.2,3.5-2.2,6.8-2.9,9.8c-1.1,4.7-1.7,8.8-1.7,12.3
					c0,1.5,0.2,2.9,0.5,4.3l0.1,0.1c7.5-7.9,14.1-15.1,19.7-21.6c0.2-0.2,0.4-0.4,0.5-0.6c0.1-0.1,0.2-0.3,0.4-0.4
					c1-1.2,2.4-3.2,4.2-6c0.6-0.9,1.2-1.7,1.7-2.5c1.1-1.5,2-2.7,2.8-3.5c-0.8,0.1-1.6,0.2-2.6,0.3c-1.5,0.1-2.9,0.4-4,0.9
					c-0.7,0.3-1.3,0.6-1.9,0.9c-0.1,0.5-0.1,0.9-0.2,1.4c0,0.5-0.1,1-0.1,1.5c0.4-0.3,0.8-0.6,1.2-1c-0.4,0.4-0.8,0.7-1.2,1
					c-1.7,1.3-3.5,2.1-5.4,2.6c-1.6,0.4-3.9,0.6-6.9,0.6c-1.3,0-2.2,0-2.7-0.1C395.4,168.1,395.3,168.1,395.3,168.1z"/>
				
					<radialGradient id="SVGID_7_" cx="230" cy="382" r="167.6375" fx="229.3426" fy="382" gradientTransform="matrix(1 0 0 -1 164.6 674.55)" gradientUnits="userSpaceOnUse">
					<stop  offset="0" style="stop-color:#4AE0EF"/>
					<stop  offset="0.3216" style="stop-color:#4AE0EF"/>
					<stop  offset="0.4431" style="stop-color:#054EA6"/>
					<stop  offset="0.6275" style="stop-color:#020406"/>
					<stop  offset="0.7922" style="stop-color:#204178"/>
					<stop  offset="1" style="stop-color:#1C96E0"/>
				</radialGradient>
				<path class="st7" d="M333.4,194.8c-0.8,0.9-1.4,1.8-1.9,2.8c-0.1,0.1-0.1,0.2-0.2,0.3c-0.9,1.5-1.6,3.1-2,4.7
					c-0.1,0.3-0.2,0.5-0.2,0.8c-0.2,0.9-0.4,1.9-0.4,2.8c0,0.1-0.1,0.3-0.1,0.4c-0.2,3.7,0,7.3,0.5,10.6c0.3,2.2,0.8,4.3,1.5,6.3
					c0.8,2.4,1.6,4.4,2.5,6.1c0,0.1,0.1,0.2,0.1,0.3c0.5,1,1,1.9,1.6,2.6c0.1-0.4,0.3-0.9,0.5-1.3c-0.2,0.4-0.4,0.9-0.5,1.3
					c-1.5,3.6-2.9,6.6-4,8.8c-0.5,0.9-1,1.8-1.5,2.6c-1.6,2.5-3.2,4.4-5,5.9c-0.8,0.7-2.3,1.6-4.5,2.7c-1.9,0.9-3.3,1.6-4.3,1.9
					c-2.3,0.7-3.7,1.4-4.2,2c-0.7,0.7-1,2.2-1,4.5c0,0.1,0.5,2.9,1.4,8.4c0.9,5.5,1.4,10.9,1.4,16.1c0,5-0.2,8.1-0.6,9.4
					c-0.9,2.8-3.3,4.2-6.9,4.3c0.6,1.8,1.7,2.7,3.1,2.8c0.3,0,0.6,0,1,0c0.9,0,1.6-0.1,2-0.3c-0.4,0.2-1.1,0.3-2,0.3
					c-0.2,0.4-0.3,0.8-0.5,1.3c-0.2,0.4-0.3,0.8-0.4,1.2c-0.1,0.5-0.2,0.9-0.2,1.3c0,0.5,0.2,1.1,0.7,2c0.3,0.6,0.7,1.2,1.3,1.9
					c1.3,1.8,2.7,2.7,4.3,2.7c0.1,0,0.2,0,0.3,0c1.4-0.1,2.2-0.8,2.5-2.2c0.1-0.8,0.4-1.6,0.7-2.4c0.3-0.8,0.6-1.7,1.1-2.7
					c0.9-1.7,1.3-2.9,1.3-3.6c0-0.8-0.4-2.6-1.1-5.4c-0.7-2.7-1-6.3-0.7-10.9s0.7-8.9,1.2-13.2c0.4-3.3,2-5.8,4.6-7.4
					c0.3-0.2,0.7-0.4,1.1-0.6c0.5-0.3,1.1-0.5,1.7-0.8c2.9-1.5,6.7-3.2,11.2-5.1c0.6-0.2,1.2-0.5,1.8-0.8c6.9-2.8,12.2-4.8,15.8-5.8
					c3.6-1,6.4-2.4,8.3-4.3c1-1,2-2.1,2.8-3.4c0.5-0.8,1-1.7,1.4-2.6c0.8-1.9,1.5-3.6,2.1-5.1c0.6-1.7,1.1-3.1,1.5-4.3
					c0.2-0.6,0.4-1.3,0.5-1.9c1-4,1.5-8.1,1.5-12.1c0-1.3-0.1-2.6-0.3-4c0.2,1.4,0.2,2.7,0.3,4c0,4.1-0.5,8.1-1.5,12.1
					c-0.2,0.7-0.4,1.3-0.5,1.9c-0.4,1.2-0.9,2.6-1.5,4.3c2.2,0.4,4.4,0.6,6.6,0.8c2.6,0.2,5.1,0.2,7.6,0.1c2.5-0.1,6.2-0.5,11-1.4
					c6.1-1.1,11.7-2,16.9-2.5c4-0.4,7.7-0.9,11.3-1.4c1.4-0.2,3.2-0.3,5.4-0.4c-0.6-0.5-1.1-1-1.6-1.4c-0.8-0.7-1.5-1.4-2-1.9
					c-1.4-1.5-2.3-3-2.5-4.4c-0.7-4.3-2.4-8.1-5.3-11.4c-1.4-1.4-2.3-2.4-2.8-3c-0.8-0.9-1.2-1.6-1.2-2.2c0-0.3,0-0.5,0-0.8
					c0-2.4,0.2-4.1,0.6-5.3c-0.4,1.1-0.6,2.9-0.6,5.3c0,0.2,0,0.5,0,0.8c0,0.5,0.4,1.3,1.2,2.2c0.5,0.6,1.4,1.6,2.8,3
					c2.8,3.3,4.6,7.1,5.3,11.4c0.2,1.4,1.1,2.9,2.5,4.4c0.5,0.5,1.1,1.1,2,1.9c0.5,0.4,1,0.9,1.6,1.4c0,0,0.1,0.1,0.2,0.1
					c0.8,0.7,1.9,1.9,3.4,3.5c1.4,1.5,2.8,2.6,4,3.5c1.2,0.9,3.8,2.7,8,5.4c0.5,0.3,1,0.7,1.5,1c4.5,3,7.8,5.2,9.6,6.8
					c3.2,2.6,5.7,4.9,7.6,7c0.4,0.4,1,1,1.8,1.8c0,2.8,0.5,4.4,1.5,5c1.1,0.6,1.9,1.5,2.2,2.6c0.3,1.1,0.5,2.3,0.5,3.4
					c0,2.5-0.4,3.7-1.2,3.7c-0.7,0-1.3-0.5-1.9-1.4c-0.5-0.9-0.9-1.4-1.3-1.4c-0.3,0-0.6,0.3-0.8,0.9s-0.3,1.4-0.2,2.3
					c0.1,0.9,0.3,1.6,0.4,2.1c0.2,0.5,0.8,1,1.9,1.3c-1.5,0.3-2.6,0.6-3.3,0.8c-0.2,0.1-0.4,0.2-0.6,0.3c-0.9,0.4-1.5,1-1.6,1.7
					c-0.2,0.9,0.8,2.1,3.1,3.6c0.7,0.5,1.3,0.9,1.9,1.1c1.4,0.8,2.4,1.2,3.1,1.2c1,0,2.7-1.3,5-3.9s3.5-4.3,3.7-5.3
					c0.1-0.5,0-1.1-0.1-1.7c-0.2-0.7-0.4-1.6-0.8-2.5c-0.8-1.8-1.2-3.3-1.2-4.5c0-0.3,0.1-0.9,0.4-1.8c0.3-0.9,0.4-2.1,0.4-3.6
					c0-0.7-0.1-1.4-0.4-2.1c-0.3-0.8-0.7-1.7-1.3-2.5c-1.1-1.6-3.2-3.7-6.4-6.5c-2.9-2.5-5.8-5.6-8.8-9.3c-0.3-0.4-0.7-0.8-1-1.3
					c-0.8-1-2.6-3.8-5.6-8.3c-0.9-1.4-1.9-2.9-3-4.5c-0.1-0.1-0.1-0.2-0.2-0.3c-1.1-1.7-2.3-3.3-3.4-4.8c-0.2-0.3-0.5-0.6-0.7-0.9
					c-1.8-2.2-3.6-4.1-5.4-5.6c1.8,1.6,3.6,3.5,5.4,5.6c0.1-0.1,0.1-0.1,0.3-0.1c-1.7-2.8-2.6-5-2.6-6.6c0-0.9,0.2-2.2,0.6-3.9
					c0.4-1.6,0.9-3,1.4-4.2c-0.5,1.2-1,2.6-1.4,4.2c-0.4,1.7-0.6,3-0.6,3.9c0,1.6,0.9,3.8,2.6,6.6c2.7-1.9,4.9-3.7,6.5-5.4
					c0.7-0.8,1.4-1.5,1.9-2.2c1-1.4,1.8-2.9,2.4-4.6c0.5-1.6,0.9-3.3,1.2-5.3c0.2-1.5,0.3-3.1,0.3-4.8c0-5-0.5-10.1-1.4-15.1
					c-0.6-3.3-1.7-8.1-3.3-14.3l-0.1-0.1c0,0-0.1,0.1-0.1,0.1c-0.2,0.2-0.4,0.4-0.6,0.6c-1.9,2-3.3,3-4.1,3c-0.7,0-2.1-1.2-4.2-3.6
					c-1-1.1-2.2-2.5-3.5-4.1c-1.4-1.8-2.8-3.2-4-4.4c-0.4-0.4-0.7-0.7-1.1-1c-1.2-1-2.2-1.7-3-2c-0.8,0.6-1.6,1.4-2.5,2.3
					c-0.1,0.2-0.3,0.4-0.6,0.8c-0.9,1.1-2.4,3-4.5,5.8c-0.7,1-1.5,1.9-2.2,2.7c-2.7,3.1-5.4,5.3-8.1,6.7c-1.3,1.6-2.9,3.3-4.8,5.3
					c-0.6,0.7-1.4,1.6-2.3,2.6c-0.1,0.2-0.2,0.3-0.3,0.4c-2.7,4.8-5.4,9.3-8.1,13.4c-1.1,1.7-2.4,3.6-3.6,5.8
					c-1.2,2-2.5,4.2-3.9,6.7c-0.8,1.3-1.7,2.5-2.6,3.8v0.1c-0.3,0.4-0.6,0.7-0.9,1.1c0.3-0.8,0.5-1.3,0.6-1.4
					c0.5-1.5,0.8-3.5,0.8-6.1c0-1.3-0.1-2.7-0.3-4.2c-0.1-0.7-0.2-1.4-0.4-2.2c-0.5-2.6-0.9-5.2-1.1-7.8c0.5-0.5,1-1.1,1.5-1.6
					c0-0.1,0-0.1,0-0.2c-0.3-1.4-0.5-2.8-0.5-4.3c0-3.5,0.6-7.6,1.7-12.3c-3.2,0.9-6.3,1.5-9.2,1.7c-7.1,0.5-12.4,0.5-15.8,0
					c-3.4-0.5-7-0.4-10.9,0.3c-2.2,0.4-4.9,1.5-8,3.5c-2.1,1.3-4.4,2.9-6.9,4.9c-0.4,0.3-0.8,0.6-1.1,0.9c-1.2,0.9-2.2,1.8-3.1,2.8
					c-0.2,0.2-0.5,0.4-0.6,0.6l-0.1,0.1C334.7,193.3,334,194,333.4,194.8 M365.5,187.9c1.1,0.7,2.3,1.6,3.6,2.7
					c1.5,1.2,2.5,2.2,3.2,2.9c0.9,1.1,1.4,3.4,1.4,6.8c0,0.4-0.1,1.6-0.2,3.5c-0.2,2.1-0.3,3.3-0.4,3.7c0.1-0.4,0.2-1.6,0.4-3.7
					c0.1-1.9,0.2-3.1,0.2-3.5c0-3.4-0.5-5.7-1.4-6.8c-0.7-0.8-1.7-1.8-3.2-2.9C367.7,189.5,366.5,188.6,365.5,187.9z"/>
				
					<radialGradient id="SVGID_8_" cx="230" cy="382" r="255.075" fx="228.9997" fy="382" gradientTransform="matrix(1 0 0 -1 107.75 580.35)" gradientUnits="userSpaceOnUse">
					<stop  offset="0" style="stop-color:#4ADAF1"/>
					<stop  offset="0.2275" style="stop-color:#054EA6"/>
					<stop  offset="0.4471" style="stop-color:#152236"/>
					<stop  offset="0.7922" style="stop-color:#204178"/>
					<stop  offset="1" style="stop-color:#1C96E0"/>
				</radialGradient>
				<path class="st8" d="M331.5,197.6c0.5-1,1.2-1.9,1.9-2.8c-0.8,0.3-1.5,0.6-2.4,1.1c-0.8,0.5-1.5,0.9-2.1,1.2
					c-0.9,0.4-1.5,0.6-2,0.6c-1.1,0-2-0.3-2.6-1c-1.3-1.2-2.3-1.9-3-2.3c0.7,0.4,1.7,1.2,3,2.3c0.7,0.6,1.6,1,2.6,1
					c0.5,0,1.1-0.2,2-0.6c0.6-0.3,1.4-0.7,2.1-1.2c0.8-0.5,1.6-0.8,2.4-1.1c0.6-0.8,1.3-1.5,2-2.3l0.1-0.1l-0.3-0.3
					c-2.2,0.8-3.8,1.2-4.8,1.2c-0.5,0-1-0.1-1.5-0.4c-0.6-0.3-1.3-0.8-1.9-1.6c-1.2-1.4-2.3-2.1-3.1-2.3c-0.8-0.1-2.3-0.3-4.6-0.4
					c-2-0.1-3.4-0.2-4.3-0.4c-1.9-0.5-3.3-0.9-4.3-1.3c-0.6-0.2-1.2-0.5-1.8-0.8c-1-0.6-1.9-1.2-2.8-2c-0.2-0.2-0.4-0.4-0.6-0.6
					c-1.5-1.4-2.6-2.4-3.2-2.9c-0.9-0.6-2-1-3.2-1.1c-0.3,0-0.7-0.1-1-0.1c-1.2,0-2.1,0.1-2.8,0.4c-0.4,0.2-0.8,0.5-1.3,1.1
					c-0.3,0.4-0.7,0.9-1,1.6c-0.8,1.4-1.4,2.4-1.7,3c-0.3,0.5-0.9,0.9-1.7,1.1c-1.9,0.2-3.6,0.3-5,0.4c-0.6,0-1.1,0.1-1.5,0.1
					c-1.9,0.2-3.4,0.6-4.5,1.2c-0.6,0.3-1,0.7-1.4,1.1c-0.5,0.5-0.7,1.5-0.7,2.8c0,1.4-0.2,2.4-0.5,3c-0.4,0.6-1.2,1.3-2.4,1.9
					c-0.4,0.2-1.5,0.7-3.4,1.5c-2.3,1-4,1.9-5.2,2.7c-0.3,0.2-0.6,0.4-0.8,0.6c-1.7,1.4-2.6,3.1-2.6,5.1c0,0.4,0.3,1.1,0.8,2.4
					c0.5,1.2,0.8,2.2,0.8,2.9c0,0.8-0.8,1.8-2.5,3.1c-1.7,1.3-2.5,2.7-2.5,4.4c0,1.4,0.8,2.6,2.3,3.6c0.4,0.3,1.9,1,4.5,2.2
					c0.2,0.1,0.4,0.1,0.6,0.3c4.9,2.3,7.4,5.4,7.4,9.4c0,3.5-2.2,5.2-6.6,5.2c-0.6,0-1.1,0-1.4,0c-0.2,0-0.3-0.1-0.4-0.1l-0.1,0.3
					c0.2,0.2,0.4,0.3,0.5,0.4c0.7,0.5,1.3,0.9,1.9,1.2c1.3,0.6,2.8,0.9,4.4,0.9c2.4,0,3.8-0.6,4.1-1.8c0.3-1.4,0.3-2.7,0.2-3.8
					c-0.1-1.1,0.2-1.7,1-1.8c1.1,0,2,0.5,2.6,1.6c0.5,0.9,0.8,2.1,0.8,3.5c0,2.6-1,4.3-3,5.2c-1.7,0.7-4.2,0.8-7.4,0.3
					c0.6,1.4,1.8,2.3,3.6,2.7c1.3,0.3,2.5,0.5,3.5,0.5c3.7,0,6.9-1,9.5-3c3.1-2.3,4.6-5.6,4.6-9.9c0-1.2-0.8-3.3-2.5-6.4
					c-0.1-0.3-0.3-0.5-0.4-0.8c-1.4-2.6-2.1-4.3-2.1-4.9c0-1.8,1-3.4,2.9-4.8c1.6-1.1,3.4-1.7,5.3-1.9c0.2,0,0.4,0,0.6,0
					c0.9,0,1.6-0.4,2-1c0.6-0.7,0.8-1.9,0.8-3.5c0-2.9,1-4.3,3.1-4.3c0.7,0,2.3,0.6,4.8,1.7c1.2,0.5,2.3,0.9,3.4,1.3
					c1.2,0.3,2.4,0.4,3.5,0.4c2.2,0,4.4-0.3,6.4-0.8c2-0.6,3.9-2.2,5.8-4.8c0.2-0.3,0.5-0.6,0.7-0.9c0.4-0.5,0.8-0.9,1.3-1.3
					c-0.6,0.5-1.2,0.9-1.8,1.3c-1.9,1.2-3.9,2.1-5.9,2.6c2-0.5,4-1.3,5.9-2.6c0.6-0.4,1.2-0.8,1.8-1.3c0.2-0.2,0.4-0.3,0.5-0.5
					c0.5-0.4,1.1-0.8,1.7-1c0-0.3,0.1-0.5,0.2-0.8c0.4-1.6,1.1-3.2,2-4.7c-0.5,0.2-0.9,0.4-1.2,0.6c-1.6,0.9-2.8,1.4-3.6,1.4
					c-0.4,0-1-0.1-1.8-0.3c-0.9-0.3-1.5-0.6-1.8-0.9c0.3,0.3,0.9,0.6,1.8,0.9c0.8,0.2,1.4,0.3,1.8,0.3c0.9,0,2.1-0.5,3.6-1.4
					c0.3-0.2,0.7-0.4,1.2-0.6C331.3,197.8,331.4,197.7,331.5,197.6 M289.6,191.4c0.5-0.8,0.8-1.4,1-1.6c0.8-1.2,2-1.9,3.6-1.9
					c-1.5,0.1-2.7,0.7-3.6,1.9C290.4,190.1,290.1,190.6,289.6,191.4c-0.5,0.7-0.9,1.1-1.4,1.1c-0.7,0-1.5-0.3-2.2-1.1
					c-0.4-0.4-0.8-0.7-1.1-0.9c-0.5-0.4-1-0.7-1.4-0.9c0.4,0.2,0.9,0.5,1.4,0.9c0.3,0.3,0.7,0.6,1.1,0.9c0.7,0.7,1.5,1.1,2.2,1.1
					C288.7,192.5,289.1,192.2,289.6,191.4 M298.4,196.1h1.5c1.3-0.1,2.6,0.6,3.9,1.9c0.7,0.7,1.3,1.6,1.9,2.7
					c0.2,0.4,0.4,0.8,0.6,1.1c0.6,1.4,1.6,2.6,2.8,3.4c0.1,0.1,0.2,0.1,0.4,0.2c0.4,0.3,0.9,0.5,1.4,0.6c0.8,0.3,1.7,0.5,2.6,0.5
					c0.5,0,0.8,0,0.9-0.1c0.2,0,0.6-0.2,1.2-0.4c-0.6,0.2-1,0.4-1.2,0.4c-0.1,0-0.4,0.1-0.9,0.1c-0.9,0-1.8-0.2-2.6-0.5
					c-0.5-0.2-1-0.4-1.4-0.6c-0.1-0.1-0.3-0.1-0.4-0.2c-1.2-0.8-2.2-2-2.8-3.4c-0.2-0.4-0.4-0.8-0.6-1.1c-0.6-1.1-1.2-2-1.9-2.7
					c-1.3-1.4-2.6-2.1-3.9-1.9H298.4 M311.3,189.6c0.1,0,0.9,0.7,2.4,1.9c0.9,0.7,1.8,1.1,2.7,1.1c0.5,0,1.1-0.1,1.9-0.4
					c0.7-0.3,1.3-0.4,1.8-0.4c1.1,0,2.1,0.4,3,1.1c1.6,1.2,2.6,1.9,2.8,2c-0.2-0.1-1.2-0.8-2.8-2c-0.9-0.7-1.9-1.1-3-1.1
					c-0.5,0-1.1,0.1-1.8,0.4c-0.7,0.3-1.4,0.4-1.9,0.4c-0.9,0-1.8-0.4-2.7-1.1C312.1,190.3,311.3,189.6,311.3,189.6 M319,205.5
					c0.3,0.1,0.9,0.1,1.7,0.1c2.3,0,4.4-0.8,6.4-2.4c-2,1.6-4.2,2.4-6.4,2.4C319.9,205.6,319.4,205.6,319,205.5 M310.9,199
					c0.3-0.3,0.6-0.4,0.9-0.4c0.4,0,0.7,0.1,1,0.4s0.4,0.6,0.4,0.9s-0.1,0.7-0.4,0.9c-0.3,0.3-0.6,0.4-1,0.4s-0.7-0.1-0.9-0.4
					c-0.3-0.3-0.4-0.6-0.4-0.9S310.6,199.3,310.9,199 M272.6,217.8c0.2,0,0.4,0.1,0.6,0.3c0.2,0.2,0.3,0.4,0.3,0.6
					c0,0.2-0.1,0.4-0.3,0.6c-0.2,0.2-0.4,0.3-0.6,0.3s-0.4-0.1-0.6-0.3c-0.2-0.2-0.3-0.4-0.3-0.6c0-0.2,0.1-0.4,0.3-0.6
					C272.2,217.8,272.4,217.8,272.6,217.8z"/>
				
					<radialGradient id="SVGID_9_" cx="230" cy="382" r="2.475" gradientTransform="matrix(1 0 0 -1 42.7 600.45)" gradientUnits="userSpaceOnUse">
					<stop  offset="0" style="stop-color:#FFFFFF"/>
					<stop  offset="1" style="stop-color:#1C96E0"/>
				</radialGradient>
				<path class="st9" d="M273.2,218c-0.2-0.2-0.4-0.3-0.6-0.3s-0.4,0.1-0.6,0.3c-0.2,0.2-0.3,0.4-0.3,0.6c0,0.2,0.1,0.4,0.3,0.6
					c0.2,0.2,0.4,0.3,0.6,0.3s0.4-0.1,0.6-0.3c0.2-0.2,0.3-0.4,0.3-0.6C273.5,218.4,273.4,218.2,273.2,218z"/>
				
					<radialGradient id="SVGID_10_" cx="230" cy="382" r="3.9375" gradientTransform="matrix(1 0 0 -1 81.9 581.7)" gradientUnits="userSpaceOnUse">
					<stop  offset="0" style="stop-color:#FFFFFF"/>
					<stop  offset="1" style="stop-color:#1C96E0"/>
				</radialGradient>
				<path class="st10" d="M311.8,198.6c-0.4,0-0.7,0.1-0.9,0.4s-0.4,0.6-0.4,0.9s0.1,0.7,0.4,0.9c0.3,0.3,0.6,0.4,0.9,0.4
					s0.7-0.1,1-0.4c0.3-0.3,0.4-0.6,0.4-0.9s-0.1-0.7-0.4-0.9S312.2,198.6,311.8,198.6z"/>
				
					<radialGradient id="SVGID_11_" cx="130.1945" cy="422.5136" r="44.7383" fx="137.3504" fy="419.1783" gradientTransform="matrix(0.9064 -0.4225 -0.7932 -1.703 668.3422 883.7756)" gradientUnits="userSpaceOnUse">
					<stop  offset="1.568627e-02" style="stop-color:#4AE0EF"/>
					<stop  offset="0.1725" style="stop-color:#054EA6"/>
					<stop  offset="0.4471" style="stop-color:#152236"/>
					<stop  offset="0.7922" style="stop-color:#204178"/>
					<stop  offset="1" style="stop-color:#4AE0EF"/>
				</radialGradient>
				<path class="st11" d="M404,109l0.2,0.3c1.3,0.2,2.5,0.6,3.8,1.2c0.1,0,0.3,0.1,0.4,0.2c1.4,0.8,2.8,2,4.1,3.7
					c0.2,0.3,0.4,0.5,0.5,0.8c1.2,1.6,2.3,3,3.3,4.3c-0.6-0.2-1-0.3-1.3-0.3c-1.1,0-2.5,0.5-4.4,1.5c-0.5,0.5-1,0.9-1.6,1.2
					c-0.6,0.3-1.3,0.6-2,0.8c0.3,1.2,0.7,2.3,1.2,3.4c0.4,0.9,1,1.9,1.7,3c0.9,1.5,2.2,3.2,3.7,5c2.4,2.9,4.2,5.3,5.2,7.2
					c0.1,0.2,0.2,0.4,0.3,0.6c0.7,1.3,1.2,2.6,1.6,4.1c0.1,0.4,0.2,0.8,0.3,1.3c1.2,0.3,2.9,1.1,5,2.4c1.9,1.1,3.3,2.1,4.3,3.1
					c0.3-0.1,0.6-0.1,0.9-0.1c1.1,0,2.2,0.9,3.1,2.7c0,0.1,0.1,0.2,0.2,0.3c0,0.1,0.1,0.2,0.1,0.3c0.2,0.6,0.5,1.1,0.6,1.6
					c0.5,0.1,1,0.3,1.5,0.5c1.2,0.5,2.5,1.2,3.9,2.2c0.6,0.4,1.4,1.3,2.4,2.7c0,0.1,0.1,0.1,0.2,0.2c1.7-0.3,3.2-1.5,4.6-3.6
					c0.8-1.2,1.4-2.3,1.8-3.3c-0.3-0.8-0.5-1.7-0.9-2.8c-0.1-0.4-0.3-0.8-0.4-1.3c-0.6-2-1-4-1.1-6.2c0-0.2,0-0.5,0-0.8
					c0-0.1,0-0.2,0-0.3c0.1-1.3,0.2-2.6,0.3-3.8c0-0.9,0.1-1.7,0.1-2.5c0-0.4,0-0.7,0-1.1c0-1.7,0-3.4-0.1-4.9
					c0.3-0.2,0.6-0.5,0.8-0.9c0.3-0.6,0.5-1.5,0.6-2.8c0-0.2,0-0.5,0-0.8c0-0.5,0-1-0.1-1.4c6.6-0.4,11.9-1.2,15.8-2.3
					c2-0.5,4-1.2,5.9-2.1c1.2-0.5,2.3-1.1,3.4-1.8l2.1-2l2.5-7.6l-24.5-1l-13.8-4.7l-6.6-0.4c-0.1-0.5-0.3-1.2-0.4-1.9
					c-0.1-0.4-0.2-0.9-0.4-1.3c-0.2-0.6-0.3-1-0.4-1.4c-0.2,0.4-0.4,0.8-0.6,1.3c-1.6,3.1-3.6,4.6-6,4.6c-1.1,0-2.2-0.4-3.3-1.1
					c0,0-0.1-0.1-0.1-0.1c-0.7,0.3-1.5,0.7-2.5,1.2c-0.9,0.4-1.7,0.8-2.5,1.2c-0.4-0.3-0.8-0.5-1.4-0.8c-1.3-0.6-2.5-0.9-3.6-0.9
					C409.5,105.7,406.6,106.8,404,109 M421,126l0.3-0.2c0.1,0.1,0.1,0.1,0.2,0.2C421.3,126,421.2,126,421,126z"/>
				
					<radialGradient id="SVGID_12_" cx="230" cy="382" r="0.2" gradientTransform="matrix(1 0 0 -1 191.25 507.9)" gradientUnits="userSpaceOnUse">
					<stop  offset="1.568627e-02" style="stop-color:#4AE0EF"/>
					<stop  offset="9.803922e-02" style="stop-color:#054EA6"/>
					<stop  offset="0.4471" style="stop-color:#152236"/>
					<stop  offset="0.7922" style="stop-color:#204178"/>
					<stop  offset="1" style="stop-color:#4AE0EF"/>
				</radialGradient>
				<path class="st12" d="M421.3,125.8L421,126c0.1,0,0.3,0,0.4,0C421.4,125.9,421.4,125.9,421.3,125.8z"/>
				
					<radialGradient id="SVGID_13_" cx="-194" cy="496.9046" r="34.8" fx="-194" fy="495.9493" gradientTransform="matrix(0 -1 -3.5392 0 2150.4211 -108.7)" gradientUnits="userSpaceOnUse">
					<stop  offset="0" style="stop-color:#4AE0EF"/>
					<stop  offset="9.803922e-02" style="stop-color:#4AE0EF"/>
					<stop  offset="0.4471" style="stop-color:#152236"/>
					<stop  offset="0.8353" style="stop-color:#1B3678"/>
					<stop  offset="1" style="stop-color:#4AE0EF"/>
				</radialGradient>
				<path class="st13" d="M404.2,109.3c-0.1,0-0.3-0.1-0.5-0.1c-2.4-0.3-4.8-0.1-7.2,0.5c-0.3-0.1-0.6-0.3-0.9-0.4
					c-0.1,0-0.1-0.1-0.1-0.1c-2.4-0.9-4-1.3-4.8-1.3c-1.6,0-4,0.3-7.2,0.8c-3.2,0.5-5.6,0.8-7.4,0.8c-2-0.1-3.4-0.2-4.2-0.2
					l-4.4,6.8h2.8c1,0.2,3.9,1.1,8.8,2.7c4.8,1.4,8.2,2.2,10.2,2.2c1,0,2-0.2,3-0.6c1.1,0.4,2.1,0.8,3.2,1.1
					c2.9,0.9,5.7,1.4,8.4,1.4c1.2,0,2.3-0.1,3.1-0.3c0.8-0.2,1.4-0.4,2-0.8c0.6-0.3,1.1-0.7,1.6-1.2c1.8-1,3.3-1.5,4.4-1.5
					c0.3,0,0.7,0.1,1.3,0.3c-1-1.3-2.1-2.8-3.3-4.3c-0.2-0.2-0.4-0.5-0.5-0.8c-1.3-1.7-2.7-2.9-4.1-3.7c-0.1-0.1-0.3-0.1-0.4-0.2
					C406.7,109.9,405.5,109.5,404.2,109.3z"/>
				
					<radialGradient id="SVGID_14_" cx="230" cy="382" r="150.175" fx="233.5335" fy="382" gradientTransform="matrix(1 0 0 -1 190.2 464.2)" gradientUnits="userSpaceOnUse">
					<stop  offset="0" style="stop-color:#011B31"/>
					<stop  offset="8.627451e-02" style="stop-color:#3780C8"/>
					<stop  offset="0.1961" style="stop-color:#4AE0EF"/>
					<stop  offset="0.6784" style="stop-color:#325276"/>
					<stop  offset="0.9608" style="stop-color:#4AE0EF"/>
					<stop  offset="1" style="stop-color:#4AE0EF"/>
				</radialGradient>
				<path class="st14" d="M420.4,82.2c0,0-0.1,0.1-0.1,0.1c-0.6,0.3-1.1,0.5-1.5,0.7c-0.3,0.6-0.8,1.1-1.6,1.5
					c-0.3,0.1-0.5,0.2-0.8,0.3c-0.5,3-0.8,5-0.8,5.9c0,0.1,0.1,0.4,0.2,0.9c0,0.2,0.1,0.4,0.1,0.6c0.1,0.6,0.3,1.3,0.6,2.2
					c0.1,0.2,0.1,0.5,0.2,0.8c0.8,2.7,1.5,4.5,1.9,5.3c0.8,1.5,1.7,2.8,2.8,3.8c0.3,0.3,0.6,0.5,0.9,0.8c0,0,0.1,0.1,0.1,0.1
					c1.1,0.8,2.1,1.1,3.3,1.1c2.4,0,4.4-1.5,6-4.6c0.2-0.4,0.4-0.8,0.6-1.3c0.4-0.9,0.6-1.8,0.9-2.6v0.1c0.1,0,0.3,0,0.4,0
					c1.3,0,2.3-0.7,3.1-2c0.4-0.6,0.6-1.2,0.9-1.8c0.1-0.6,0.2-1.1,0.2-1.7c0-0.5-0.1-1-0.4-1.4c-0.3-0.5-0.7-0.8-1.3-0.8
					c-0.4,0-0.9,0.2-1.5,0.6c-0.7,0.4-1.1,0.9-1.3,1.4c-0.1-0.7-0.3-1.3-0.5-1.9c-0.4-1.1-1-2-1.7-2.6c-0.6-0.5-0.9-1.5-0.8-3.1
					c0-1.5-0.1-2.7-0.3-3.7c-0.7,0.5-1.5,0.8-2.5,0.8c-0.8,0-1.5-0.2-2.3-0.7c-0.6,0.2-1.3,0.4-2.1,0.7
					C422.1,82,421.1,82.2,420.4,82.2z"/>
				
					<radialGradient id="SVGID_15_" cx="230" cy="382" r="139.925" fx="233.2924" fy="382" gradientTransform="matrix(1 0 0 -1 195 466.3)" gradientUnits="userSpaceOnUse">
					<stop  offset="0" style="stop-color:#011B31"/>
					<stop  offset="0.1294" style="stop-color:#0464A5"/>
					<stop  offset="0.3216" style="stop-color:#4AE0EF"/>
					<stop  offset="0.4" style="stop-color:#3780C8"/>
					<stop  offset="0.9608" style="stop-color:#205CE0"/>
					<stop  offset="1" style="stop-color:#205CE0"/>
				</radialGradient>
				<path class="st15" d="M432,71.8c-1-0.5-2.1-0.8-3.5-0.8c-1.4,0-3,0.3-4.7,0.8c-0.7,0.2-1.5,0.5-2.3,0.8c-1,0.4-2,0.8-2.9,1.2
					c-0.3,0-0.6-0.1-0.9-0.1c-4,0-6.9,1.8-8.7,5.3c-1.1,2.1-1.7,3.3-1.9,3.6c-0.8,1-1.8,1.6-3.1,1.6c-0.1,0-0.1,0-0.3,0
					c-1,0-2-0.2-2.9-0.6c-0.9-0.4-1.7-0.7-2.6-0.7c-0.2,0-0.3,0-0.4,0v0.3c-0.2-0.1-0.4-0.2-0.6-0.2c-0.6-0.2-1-0.1-1.4,0.2
					c-0.3,0.2-0.5,0.5-0.6,0.8c-0.1,0-0.1,0-0.2,0c-0.7,0-1.4,0.2-2,0.4c-0.3,0.1-0.6,0.3-0.9,0.6c-1.1,0.9-1.6,2.2-1.6,3.8
					c0,0.3,0.1,0.8,0.2,1.3c-0.1,0.5-0.2,1.1-0.2,1.7c0,0.4,0.1,0.9,0.2,1.5c0.1,0.4,0.2,0.8,0.3,1.3c0.2,0.7,0.3,1.2,0.4,1.7
					c0.3,0.9,0.7,1.3,1.1,1.3c0.4,0,0.5-0.8,0.5-2.4c0-1.6,0.3-2.4,0.9-2.4c0.1,0,0.2,0.1,0.4,0.4c0.2,0.3,0.4,0.4,0.6,0.4
					c0.1,0,0.1,0,0.3,0c0-0.1,0.1-0.1,0.2-0.2c0.1-0.2,0.1-0.3,0.3-0.5c0.1-0.3,0.3-0.5,0.5-0.7c0.1-0.1,0.2-0.2,0.3-0.3
					c0,0-0.1,0.1-0.1,0.2c0.7,1,1.7,2,2.9,2.9c2.2,1.6,4.6,2.4,7.1,2.4c0.4,0,0.9,0,1.3-0.1c0.2,0.2,0.5,0.3,0.7,0.5
					c0.7,0.4,1.5,0.7,2.4,0.7c1.8,0,3.4-0.8,4.8-2.6c0.3-0.3,0.7-0.9,1.3-1.8c-0.3-0.9-0.5-1.6-0.6-2.2c-0.1-0.2-0.1-0.4-0.1-0.6
					c-0.1-0.5-0.2-0.8-0.2-0.9c0-0.9,0.3-2.9,0.8-5.9c0.2-0.1,0.5-0.2,0.8-0.3c0.7-0.4,1.3-0.9,1.6-1.5c0.5-0.2,1-0.4,1.5-0.7l0-0.1
					c0,0,0.1,0,0.1,0c0.8,0,1.8-0.2,2.9-0.4c0.8-0.2,1.5-0.4,2.1-0.7c0.8,0.4,1.5,0.7,2.3,0.7c1,0,1.9-0.3,2.5-0.8
					c0.2,1,0.3,2.2,0.3,3.7c-0.1,1.6,0.2,2.6,0.8,3.1c0.7,0.6,1.3,1.5,1.7,2.6c0.2,0.6,0.4,1.2,0.5,1.9c0.2-0.6,0.6-1,1.3-1.4
					c0.6-0.4,1.1-0.6,1.5-0.6c0.6,0,1,0.3,1.3,0.8c0.2,0.4,0.4,0.9,0.4,1.4c0,0.6-0.1,1.1-0.2,1.7c1.6-1.6,2.4-2.8,2.4-3.6
					c0.2-4.4,0.3-6.9,0.3-7.5c0-1-0.3-1.6-0.8-2c-1.3-1-1.9-1.5-2-1.5c-0.7-0.7-1.3-1.3-1.8-1.8c-0.3-0.3-0.6-0.6-0.8-0.8
					c-0.2-1.5-0.6-2.7-1.3-3.6C433.2,72.6,432.6,72.1,432,71.8 M402.5,88.1c0,0.1,0.1,0.1,0.1,0.2C402.6,88.2,402.5,88.2,402.5,88.1
					L402.5,88.1c-0.2-0.1-0.3-0.1-0.4-0.2l0-0.1c-0.3-0.3-0.7-0.6-1.1-0.9c-0.1-0.1-0.1-0.1-0.1-0.1c0.1,0,0.1,0.1,0.2,0.1
					c0.4,0.3,0.7,0.6,1,0.9l0-0.1c0,0,0,0.1,0.1,0.1C402.3,87.9,402.4,88,402.5,88.1z"/>
			</g>
		</g>
		<g>
			
				<radialGradient id="SVGID_16_" cx="230" cy="405.821" r="114.1" gradientTransform="matrix(1 0 0 -1.1496 142.05 668.1519)" gradientUnits="userSpaceOnUse">
				<stop  offset="0" style="stop-color:#4AB6D9"/>
				<stop  offset="0.5412" style="stop-color:#A8F2F4"/>
				<stop  offset="1" style="stop-color:#208AE0"/>
			</radialGradient>
			<path class="st16" d="M448.8,153.4c0.4,0.1,0.8,0.3,1.1,0.5c0.8,0.4,1.5,1.1,2.1,1.9c1.2,1.6,1.8,3.5,1.8,5.6
				c0,0.6-0.1,1.2-0.3,1.9c0,0,0.1,0.1,0.1,0.1c0,0.1,0.1,0.1,0.1,0.2c1.4,1.9,2.1,3.6,2.1,5c0,0.3-0.2,0.7-0.5,1.2
				c0.3,0.7,0.5,1.4,0.8,2.1c0.5,1.4,1,2.8,1.5,4.2c0.1,0.3,0.9,3,2.4,8c0,0.2,0.7,2.3,2,6.4c0,0.1,0.1,0.3,0.2,0.4
				c1.4,4.6,2,7.3,2,8.2c0,2.3-0.7,4.6-2.2,6.9l0,0c-0.4,0.7-0.9,1.4-1.5,2.1c-1.1,1.3-2.2,2.3-3.5,3.2c-0.6,1.7-1.4,3.2-2.4,4.6
				c-0.5,0.7-1.1,1.4-1.9,2.2c2.2,2.8,4.6,5.3,7.3,7.4c1.4,1.1,3.3,2.5,5.6,4.1c1.2,0.8,2.4,1.7,3.8,2.6c1.7,1.2,3.7,2.3,6,3.1
				c1.3,0.5,3,1.1,5.2,1.9c2.7,1.2,4.3,3.3,4.8,6.4c0.1,0.6,0.1,1.3,0.1,2.1c0,0.3-0.3,1.4-1,3.2c-0.7,2.3-1,4.6-1,7
				c0,2.3,0.2,4.6,0.7,7c0.5,2.3,0.7,4.4,0.7,6.3c0,1.2-1.9,3.2-5.8,6.2c-0.5,0.4-0.9,0.7-1.4,1c0.1,0.6,0.2,1.2,0.1,1.7
				c-0.2,1-1.4,2.7-3.7,5.3s-4,3.8-5,3.9c-0.7,0-1.8-0.4-3.1-1.2c-4,2.1-8,3.8-12.1,4.9c-0.3-2.1-0.4-3.3-0.4-3.7
				c0-2.5,0.3-4.7,0.8-6.8c0.9-3.3,2-5,3.4-4.9c1.4,0.1,2.4,0.4,2.9,1.1c0.5,0.7,1.1,1.6,2,2.9c0.2-0.1,0.4-0.2,0.6-0.3
				c0.7-0.2,1.8-0.5,3.3-0.8c-1.1-0.3-1.7-0.7-1.9-1.3c-0.2-0.5-0.4-1.2-0.4-2.1c-0.1-0.9,0-1.6,0.2-2.3s0.5-0.9,0.8-0.9
				c0.3,0,0.8,0.5,1.3,1.4c0.5,0.9,1.1,1.4,1.9,1.4c0.8,0,1.2-1.2,1.2-3.7c0-1.1-0.2-2.3-0.5-3.4c-0.3-1.1-1.1-2-2.2-2.6
				c-1-0.5-1.5-2.2-1.5-5c-0.8-0.8-1.4-1.4-1.8-1.8c-1.9-2.1-4.4-4.4-7.6-7c-1.9-1.5-5.1-3.8-9.6-6.8c-0.5-0.3-1-0.7-1.5-1
				c-4.2-2.8-6.9-4.6-8-5.4c-1.2-0.9-2.5-2-4-3.5c-1.5-1.6-2.7-2.8-3.4-3.5c-0.1,0-0.1-0.1-0.2-0.1c-2.2,0.1-4,0.2-5.4,0.4
				c-3.6,0.5-7.3,1-11.3,1.4c-5.2,0.5-10.8,1.4-16.9,2.5c-4.8,0.9-8.5,1.4-11,1.4c-2.5,0.1-5,0-7.6-0.1c-0.2,1-0.4,2-0.5,3.1
				c-0.2,1.4-0.4,2.6-0.5,3.8c-0.3,1.7-0.6,3.2-0.9,4.4c-0.5,2.2-0.9,4.5-1.3,6.7c-0.4,2.2-1.2,3.8-2.3,4.6s-2.1,1.5-3,1.9
				c-1,0.4-1.8,0.7-2.3,0.9c-3.5,1.5-7.8,3-12.8,4.4c-5,1.4-9,2.6-11.8,3.6c-2.8,1-4.2,2.1-4.1,3.5c0.1,1,0.2,2,0.4,2.9
				c0.5,1.3,1,2.7,1.6,4.3c0.2,0.5,0.3,0.9,0.5,1.4c2.6,6.9,4.9,11.6,6.7,14c1.8,2.4,3.4,4.4,4.9,6c1.1,1.1,1.9,2.8,2.5,5
				c0.2,0.8,0.4,1.6,0.5,2.5c0.5,3.5,0.7,5.6,0.8,6.3s-0.1,1-0.6,1c-0.1,0-0.2,0-0.4,0v0.1c0.2,1.1,0.2,2.6,0.3,4.8
				c0,2.3-0.2,4.1-0.5,5.4c-0.4,1.5-1.1,3.1-2.1,4.8c-4.2-4.2-6.7-7-7.7-8.3c-2.5-3.4-3.8-6.9-3.8-10.4c0-1.1,0.6-1.8,1.7-2
				c0.5-0.1,1.1-0.2,2-0.3c-0.2-0.7-0.4-1.4-0.6-2.3c-0.1-0.5-0.2-1-0.3-1.5c-0.1-0.3-0.1-0.5-0.1-0.8c-0.1,0.1-0.3,0.3-0.6,0.8
				c-0.1,0.1-0.3,0.3-0.5,0.4c-0.7,0.7-1.7,0.9-3,0.8c0.2-0.5,0.4-0.9,0.5-1.3c0.3-0.6,0.5-1.1,0.6-1.4c0.2-0.7,0.3-1.6,0.3-2.8
				c0-2.3-0.7-4.9-2.1-7.6c-1.8-3.1-3.1-5.5-3.9-7.1c-1.9-3.4-3.3-6-4.3-8c-1.2-2.4-2.1-4.6-2.8-6.7c-0.3-0.4-0.6-0.8-0.9-1.2
				c-0.9-1.4-1.4-2.8-1.4-4c0-2.2,0.7-3.5,2.1-3.9c3-0.8,4.8-1.4,5.5-1.9c1.4-0.9,2.7-2.1,4-3.6c0.4-0.4,0.8-0.9,1.2-1.4
				c-4.5,1.9-8.3,3.6-11.2,5.1c-0.6,0.3-1.2,0.6-1.7,0.8c-0.4,0.2-0.8,0.4-1.1,0.6c-2.6,1.6-4.2,4.1-4.6,7.4
				c-0.5,4.3-0.9,8.7-1.2,13.2s0,8.1,0.7,10.9c0.7,2.7,1.1,4.5,1.1,5.4c0,0.7-0.4,1.9-1.3,3.6c-0.5,0.9-0.8,1.8-1.1,2.7
				c-0.3,0.9-0.6,1.7-0.7,2.4c-0.3,1.4-1.1,2.1-2.5,2.2c0.1,0.9,0.3,1.8,0.4,2.8c0,1.6-0.4,3.3-1.3,5.1c-0.7,1.5-1.6,2.9-2.8,4.1
				c-2.2-2.9-3.9-5.1-5-6.8c-1.9-2.9-2.8-5.9-2.8-9c0-0.3,0-0.6,0.1-0.8c0.1-0.9,0.6-1.5,1.3-1.8l3.9-1.4c0.1-0.4,0.2-0.8,0.4-1.2
				c0.2-0.5,0.3-0.9,0.5-1.3c-0.3,0-0.6,0-1,0c-1.4-0.1-2.5-1-3.1-2.8c3.7,0,6-1.5,6.9-4.3c0.4-1.3,0.6-4.4,0.6-9.4
				c0-5.3-0.5-10.6-1.4-16.1c-0.9-5.5-1.4-8.3-1.4-8.4c0-2.3,0.3-3.8,1-4.5c0.5-0.6,1.9-1.3,4.2-2c1-0.3,2.4-1,4.3-1.9
				c2.1-1.1,3.6-2,4.5-2.7c1.7-1.5,3.4-3.5,5-5.9c0.5-0.8,1-1.7,1.5-2.6c1.2-2.2,2.5-5.1,4-8.8c-0.6-0.7-1.1-1.6-1.6-2.6
				c-0.1-0.1-0.1-0.2-0.1-0.3c-0.8-1.7-1.6-3.7-2.5-6.1c-0.7-2-1.2-4.1-1.5-6.3c-0.5-3.3-0.7-6.9-0.5-10.6c0-0.1,0-0.2,0.1-0.4
				c0-0.9,0.2-1.8,0.4-2.8c-0.6,0.2-1.2,0.6-1.7,1c-0.2,0.1-0.4,0.3-0.5,0.5c-0.4,0.4-0.9,0.8-1.3,1.3c-0.2,0.3-0.5,0.6-0.7,0.9
				c-1.9,2.6-3.8,4.2-5.8,4.8c-2,0.6-4.2,0.8-6.4,0.8c-1.1,0-2.3-0.1-3.5-0.4c-1.1-0.3-2.2-0.7-3.4-1.3c-2.5-1.1-4.1-1.7-4.8-1.7
				c-2.1,0-3.1,1.4-3.1,4.3c0,1.6-0.2,2.7-0.8,3.5c-0.5,0.6-1.1,1-2,1c-0.2,0-0.5,0-0.6,0c-1.9,0.2-3.6,0.8-5.3,1.9
				c-1.9,1.3-2.9,2.9-2.9,4.8c0,0.7,0.7,2.3,2.1,4.9c0.1,0.3,0.3,0.5,0.4,0.8c1.7,3.1,2.5,5.3,2.5,6.4c0,4.3-1.5,7.6-4.6,9.9
				c-2.6,2-5.8,3-9.5,3c-1,0-2.2-0.2-3.5-0.5c-1.8-0.4-3-1.3-3.6-2.7c3.2,0.5,5.7,0.4,7.4-0.3c2-0.8,3-2.6,3-5.2
				c0-1.4-0.3-2.6-0.8-3.5c-0.6-1.1-1.5-1.6-2.6-1.6c-0.8,0.1-1.1,0.7-1,1.8c0.1,1.1,0.1,2.4-0.2,3.8c-0.3,1.2-1.7,1.8-4.1,1.8
				c-1.7,0-3.1-0.3-4.4-0.9c-0.6-0.3-1.2-0.7-1.9-1.2c-0.2-0.1-0.4-0.3-0.5-0.4c-0.2-0.2-0.4-0.3-0.6-0.5c0.2,0.1,0.5,0.2,0.8,0.2
				c0.1,0,0.2,0,0.4,0.1c0.3,0,0.8,0,1.4,0c4.4,0,6.6-1.7,6.6-5.2c0-4-2.5-7.1-7.4-9.4c-0.2-0.1-0.4-0.2-0.6-0.3
				c-2.6-1.2-4.1-1.9-4.5-2.2c-1.5-1-2.3-2.2-2.3-3.6c0-1.6,0.8-3.1,2.5-4.4c1.7-1.3,2.5-2.3,2.5-3.1c0-0.7-0.3-1.7-0.8-2.9
				c-0.5-1.2-0.8-2-0.8-2.4c0-2,0.9-3.6,2.6-5.1c0.2-0.2,0.5-0.4,0.8-0.6c1.2-0.8,2.9-1.7,5.2-2.7c1.9-0.8,3-1.3,3.4-1.5
				c1.2-0.6,2-1.3,2.4-1.9c0.3-0.6,0.5-1.6,0.5-3c0-1.3,0.2-2.3,0.7-2.8c0.4-0.4,0.8-0.8,1.4-1.1c1.1-0.6,2.6-1,4.5-1.2
				c0.5,0,1-0.1,1.5-0.1c1.4-0.1,3-0.2,5-0.4c0.8-0.2,1.4-0.6,1.7-1.1c0.3-0.6,0.9-1.6,1.7-3c0.3-0.6,0.7-1.1,1-1.6
				c0.4-0.6,0.9-0.9,1.3-1.1c0.7-0.3,1.6-0.4,2.8-0.4c0.3,0,0.7,0,1,0.1c1.2,0.1,2.3,0.5,3.2,1.1c0.6,0.5,1.7,1.4,3.2,2.9
				c0.2,0.2,0.4,0.3,0.6,0.6c0.9,0.8,1.8,1.4,2.8,2c0.6,0.3,1.1,0.5,1.8,0.8c1,0.4,2.4,0.8,4.3,1.3c0.8,0.2,2.2,0.4,4.3,0.4
				c2.2,0.1,3.8,0.2,4.6,0.4c0.8,0.2,1.9,0.9,3.1,2.3c0.7,0.7,1.3,1.3,1.9,1.6c0.5,0.2,1,0.4,1.5,0.4c1,0,2.6-0.4,4.8-1.2
				c0.1,0,0.2,0,0.3,0c0.2-0.1,0.5-0.2,0.7-0.3c0.9-1,2-1.9,3.1-2.8c0.4-0.3,0.8-0.6,1.1-0.9c2.5-2,4.8-3.6,6.9-4.9
				c3.1-2,5.8-3.1,8-3.5c3.9-0.7,7.5-0.8,10.9-0.3c3.4,0.5,8.7,0.5,15.8,0c2.9-0.2,6-0.8,9.2-1.7c0.7-3,1.7-6.3,2.9-9.8
				c0.4,0,0.9,0.1,1.3,0.1c0,0,0.1,0,0.2,0c0.5,0,1.4,0.1,2.7,0.1c3,0,5.3-0.2,6.9-0.6c1.9-0.5,3.7-1.3,5.4-2.6c0-0.5,0.1-1,0.1-1.5
				c0-0.5,0.1-1,0.2-1.4c0.6-0.4,1.2-0.7,1.9-0.9c-0.2-3.1-0.4-4.9-0.4-5.6c0-1.4,1.1-2.2,3.3-2.3c0-0.9,0-1.5,0-1.8
				c0-0.8,0.6-1.2,1.8-1.2c0.2,0,0.5,0,0.8,0.1l-0.1-1.8c0-0.8,0.1-1.2,0.3-1.4c0.2-0.1,0.6-0.2,1.5-0.2c0.4,0,0.8,0.1,1.3,0.3
				c-0.1-0.4-0.2-0.8-0.3-1.3c-0.4-1.5-0.9-2.9-1.6-4.1c-0.1-0.2-0.2-0.4-0.3-0.6c-1-1.9-2.8-4.3-5.2-7.2c-1.5-1.8-2.8-3.5-3.7-5
				c-0.7-1.1-1.3-2.1-1.7-3c-0.5-1.1-0.9-2.2-1.2-3.4 M331.3,197.9c0.1-0.1,0.1-0.2,0.2-0.3c0.5-1,1.2-1.9,1.9-2.8
				c-0.8,0.3-1.5,0.6-2.4,1.1c-0.8,0.5-1.5,0.9-2.1,1.2c-0.9,0.4-1.5,0.6-2,0.6c-1.1,0-2-0.3-2.6-1c-1.3-1.2-2.3-1.9-3-2.3
				 M335.5,192.4c0.2-0.2,0.4-0.4,0.6-0.6 M333.4,194.8c0.6-0.8,1.3-1.5,2-2.3l0.1-0.1 M365.5,187.9c1.1,0.7,2.3,1.6,3.6,2.7
				c1.5,1.2,2.5,2.2,3.2,2.9c0.9,1.1,1.4,3.4,1.4,6.8c0,0.4-0.1,1.6-0.2,3.5c-0.2,2.1-0.3,3.3-0.4,3.7 M389.5,216.4
				c0.5-1.5,0.8-3.5,0.8-6.1c0-1.3-0.1-2.7-0.3-4.2c-0.1-0.7-0.2-1.4-0.4-2.2c-0.5-2.6-0.9-5.2-1.1-7.8c0.5-0.5,1-1.1,1.5-1.6
				c0-0.1,0-0.1,0-0.2c-0.3-1.4-0.5-2.8-0.5-4.3c0-3.5,0.6-7.6,1.7-12.3 M390,194.6C390,194.5,390,194.5,390,194.6 M433.2,160.4
				c0.8-0.7,1.7-1.2,2.5-1.6c0.3-0.2,0.7-0.4,1.1-0.8c-0.5-0.2-1-0.4-1.5-0.5c-0.3-0.1-0.5-0.1-0.8-0.1 M436.8,157.9
				c1.2,0.5,2.5,1.2,3.9,2.2c0.6,0.4,1.4,1.3,2.4,2.7c0,0.1,0.1,0.1,0.2,0.2c1.7-0.3,3.2-1.5,4.6-3.6c0.8-1.2,1.4-2.3,1.8-3.3
				 M430.2,152.6c-1-0.9-2.4-1.9-4.3-3.1c-2.1-1.3-3.8-2.1-5-2.4 M434,155.5c0.2,0,0.4,0,0.5,0c-0.1-0.1-0.1-0.2-0.2-0.3 M434,155.5
				c-2.8,0-5.6,1.2-8.2,3.6c-1.2,1.1-2.5,2.5-3.8,4.3c-1.5,2-3,4.3-4.7,7.1 M434.5,155.5c0,0.1,0.1,0.2,0.1,0.3
				c0.2,0.6,0.5,1.1,0.6,1.6 M418,150.3c0.9,0.1,2.1,0.6,3.6,1.3c0.3,0.1,0.6,0.3,0.9,0.4c1.3,0.7,2.5,1.5,3.8,2.3
				c0.6,0.4,1.3,0.9,1.9,1.4 M434.3,155.2c-1-1.8-2-2.7-3.1-2.7c-0.3,0-0.6,0-0.9,0.1c0.5,0.5,0.9,1,1.2,1.4 M453.6,171.9
				c-0.2,0.2-0.4,0.4-0.6,0.6c-1.9,2-3.3,3-4.1,3c-0.7,0-2.1-1.2-4.2-3.6c-1-1.1-2.2-2.5-3.5-4.1c-1.4-1.8-2.8-3.2-4-4.4
				c-0.4-0.4-0.7-0.7-1.1-1c-1.2-1-2.2-1.7-3-2c-0.8,0.6-1.6,1.4-2.5,2.3c-0.1,0.2-0.3,0.4-0.6,0.8c-0.9,1.1-2.4,3-4.5,5.8
				c-0.7,1-1.5,1.9-2.2,2.7c-2.7,3.1-5.4,5.3-8.1,6.7c-1.3,1.6-2.9,3.3-4.8,5.3c-0.6,0.7-1.4,1.6-2.3,2.6c-0.1,0.2-0.2,0.3-0.3,0.4
				c-2.7,4.8-5.4,9.3-8.1,13.4c-1.1,1.7-2.4,3.6-3.6,5.8c-1.2,2-2.5,4.2-3.9,6.7c-0.8,1.3-1.7,2.5-2.6,3.8l0,0
				c-0.3,0.4-0.6,0.7-0.9,1.1c0.3-0.8,0.5-1.3,0.6-1.4 M453.5,163.4c-0.5,1.2-1.4,2.5-2.6,3.9c-1.8,1.9-3.3,2.8-4.5,2.8
				c-0.5,0-1-0.2-1.6-0.6c-0.7-0.5-1.1-1.1-1.1-1.8 M443.2,163c0.1,0.1,0.3,0.3,0.4,0.4c0.6,0.5,1.3,0.7,2.2,0.7
				c0.7,0,1.5-0.2,2.4-0.7c0.3-0.2,0.6-0.3,0.9-0.5c0.9-0.6,1.5-1.3,1.9-1.9 M415.3,178.6c1-1.2,1.9-2.3,2.6-3.3
				c0.8-1.2,1.6-2.4,2.4-3.4c1.8-2.6,3.3-4.6,4.5-6.1c0.7-0.9,1.4-1.7,2-2.4c2.4-2.5,4.6-4.1,6.7-4.9 M415.5,153.2
				c0.1,0,0.1,0,0.2,0c1.4,0,3.1,0.4,5.3,1.1c0.2,0.1,0.4,0.1,0.6,0.3c1,0.4,1.8,0.8,2.5,1.1c0.6,0.4,1.1,0.8,1.5,1.2 M412.6,161
				c1.2-0.4,2.5-0.7,4-0.9c0.9-0.1,1.8-0.2,2.6-0.3c2.2-0.4,3.8-1.2,4.8-2.2 M390,194.5c7.5-7.9,14.1-15.1,19.7-21.6
				c0.2-0.2,0.4-0.4,0.5-0.6c0.1-0.1,0.2-0.3,0.4-0.4c1-1.2,2.4-3.2,4.2-6c0.6-0.9,1.2-1.7,1.7-2.5c1.1-1.5,2-2.7,2.8-3.5
				 M411.6,163.9c-0.4,0.4-0.8,0.7-1.2,1 M408.2,186.4c0.7-1.3,1.9-3.5,3.6-6.6c1.2-2.2,2.6-4.9,4.3-8 M449.6,156.1
				c0.1-0.5,0.2-1,0.3-1.4 M453.5,163.3c0,0.1,0,0.1,0,0.1v0.1 M455.4,169.8c-0.3,0.5-0.9,1.1-1.6,1.9c0,0.1,0.1,0.1,0.1,0.2
				 M453.8,171.7c0,0-0.1,0.1-0.1,0.1 M448.9,174.1c0.8-0.7,1.5-1.4,2-2.2c0.3-0.5,0.6-1,0.9-1.5c0.6-1,1.1-2.5,1.7-4.3 M457,211.4
				c0.5-1.6,0.9-3.3,1.2-5.3c0.2-1.5,0.3-3.1,0.3-4.8c0-5-0.5-10.1-1.4-15.1c-0.6-3.3-1.7-8.1-3.3-14.3 M446,223.8
				c0.1-0.1,0.1-0.1,0.3-0.1c-1.7-2.8-2.6-5-2.6-6.6c0-0.9,0.2-2.2,0.6-3.9c0.4-1.6,0.9-3,1.4-4.2 M453.3,234.3
				c-0.9-1.4-1.9-2.9-3-4.5c-0.1-0.1-0.1-0.2-0.2-0.3c-1.1-1.7-2.3-3.3-3.4-4.8c-0.2-0.3-0.5-0.6-0.7-0.9c-1.8-2.2-3.6-4.1-5.4-5.6
				 M446.3,223.6c0.2,0.3,0.4,0.6,0.5,1 M476.3,262c-0.3-0.8-0.7-1.7-1.3-2.5c-1.1-1.6-3.2-3.7-6.4-6.5c-2.9-2.5-5.8-5.6-8.8-9.3
				c-0.3-0.4-0.7-0.8-1-1.3c-0.8-1-2.6-3.8-5.6-8.3c5.4,1.6,8.6,2.6,9.5,2.9c2.5,0.8,5,1.9,7.7,3.2c0.5,0.3,1.4,0.7,2.7,1.3
				c1.1,0.6,1.8,1.3,2.1,1.9c0,0.1,0.1,0.2,0.1,0.3c0.8,1.6,1.7,2.7,2.7,3.3c0.6,2,0.9,4.3,0.9,6.8c0,2.2-0.3,4.1-1,5.7
				C477.6,260.6,477,261.5,476.3,262c0.2,0.7,0.3,1.4,0.4,2.1c0,1.5-0.1,2.7-0.4,3.6c-0.3,0.8-0.4,1.4-0.4,1.8
				c0,1.2,0.4,2.8,1.2,4.5c0.4,0.9,0.6,1.8,0.8,2.5 M446.3,223.6c2.7-1.9,4.9-3.7,6.5-5.4 M414.6,200.9c-0.4,1.1-0.6,2.9-0.6,5.3
				c0,0.2,0,0.5,0,0.8c0,0.5,0.4,1.3,1.2,2.2c0.5,0.6,1.4,1.6,2.8,3c2.8,3.3,4.6,7.1,5.3,11.4c0.2,1.4,1.1,2.9,2.5,4.4
				c0.5,0.5,1.1,1.1,2,1.9c0.5,0.4,1,0.9,1.6,1.4 M462.8,279.6c-0.9,0.4-1.5,1-1.6,1.7c-0.2,0.9,0.8,2.1,3.1,3.6
				c0.7,0.5,1.3,0.9,1.9,1.1 M370.5,236c0.6-1.7,1.1-3.1,1.5-4.3c0.2-0.6,0.4-1.3,0.5-1.9c1-4,1.5-8.1,1.5-12.1c0-1.3-0.1-2.6-0.3-4
				 M338.4,257.9c0.6-0.2,1.2-0.5,1.8-0.8c6.9-2.8,12.2-4.8,15.8-5.8c3.6-1,6.4-2.4,8.3-4.3c1-1,2-2.1,2.8-3.4
				c0.5-0.8,1-1.7,1.4-2.6c0.8-1.9,1.5-3.6,2.1-5.1c2.2,0.4,4.4,0.6,6.6,0.8 M322.9,198.7c0.3,0.3,0.9,0.6,1.8,0.9
				c0.8,0.2,1.4,0.3,1.8,0.3c0.9,0,2.1-0.5,3.6-1.4c0.3-0.2,0.7-0.4,1.2-0.6c-0.9,1.5-1.6,3.1-2,4.7c-0.1,0.3-0.2,0.5-0.2,0.8
				 M326.8,204.9c-0.6,0.5-1.2,0.9-1.8,1.3c-1.9,1.2-3.9,2.1-5.9,2.6 M335.3,231.1c-0.2,0.4-0.4,0.9-0.5,1.3 M344.7,311.3
				c0.3,1,0.8,1.6,1.3,2c1.2,0.7,2.6,1.5,4.1,2.3c2.1,1,3.6,1.6,4.6,1.8 M343.8,306.7c0.5-0.8,0.8-2.2,0.9-4 M283.5,189.6
				c0.4,0.2,0.9,0.5,1.4,0.9c0.3,0.3,0.7,0.6,1.1,0.9c0.7,0.7,1.5,1.1,2.2,1.1c0.5,0,0.9-0.3,1.4-1.1c0.5-0.8,0.8-1.4,1-1.6
				c0.8-1.2,2-1.9,3.6-1.9 M298.4,196.1h1.5c1.3-0.1,2.6,0.6,3.9,1.9c0.7,0.7,1.3,1.6,1.9,2.7c0.2,0.4,0.4,0.8,0.6,1.1
				c0.6,1.4,1.6,2.6,2.8,3.4c0.1,0.1,0.2,0.1,0.4,0.2c0.4,0.3,0.9,0.5,1.4,0.6c0.8,0.3,1.7,0.5,2.6,0.5c0.5,0,0.8,0,0.9-0.1
				c0.2,0,0.6-0.2,1.2-0.4 M311.3,189.6c0.1,0,0.9,0.7,2.4,1.9c0.9,0.7,1.8,1.1,2.7,1.1c0.5,0,1.1-0.1,1.9-0.4
				c0.7-0.3,1.3-0.4,1.8-0.4c1.1,0,2.1,0.4,3,1.1c1.6,1.2,2.6,1.9,2.8,2 M319,205.5c0.3,0.1,0.9,0.1,1.7,0.1c2.3,0,4.4-0.8,6.4-2.4
				 M308.6,304.2c-0.1,0.5-0.2,0.9-0.2,1.3c0,0.5,0.2,1.1,0.7,2c0.3,0.6,0.7,1.2,1.3,1.9c1.3,1.8,2.7,2.7,4.3,2.7c0.1,0,0.2,0,0.3,0
				 M309.5,301.8c0.9,0,1.6-0.1,2-0.3"/>
		</g>
		<g transform="matrix( 1, 0, 0, 1, -246.35,21.35) ">
			<g>
				<g>
					<path class="st1" d="M688.5,130.6c0,0,0,0.1,0,0.1L688.5,130.6L688.5,130.6z"/>
				</g>
			</g>
			<g>
				
					<radialGradient id="SVGID_17_" cx="476.35" cy="371.4974" r="87.2875" gradientTransform="matrix(1 0 0 -1.063 201 444.1555)" gradientUnits="userSpaceOnUse">
					<stop  offset="0" style="stop-color:#CEEDF4"/>
					<stop  offset="0.5412" style="stop-color:#A8F2F4"/>
					<stop  offset="1" style="stop-color:#208AE0"/>
				</radialGradient>
				<path class="st17" d="M642.2,61.9c0.4-0.3,0.9-0.4,1.4-0.2c0.1,0,0.3-0.1,0.6-0.1c0.1,0,0.3,0,0.4,0c0.8,0,1.7,0.2,2.6,0.7
					c0.9,0.4,1.8,0.6,2.8,0.6c0.1,0,0.2,0,0.3,0c1.3-0.1,2.3-0.6,3.1-1.7c0.2-0.3,0.8-1.5,1.9-3.6c1.8-3.5,4.7-5.3,8.7-5.3
					c0.3,0,0.6,0,0.9,0.1c0.9-0.3,1.9-0.7,2.9-1.2c0.8-0.3,1.6-0.6,2.3-0.8c1.7-0.5,3.3-0.8,4.7-0.8c1.4,0,2.5,0.3,3.5,0.8
					c0.7,0.4,1.2,0.8,1.7,1.4c0.7,0.9,1.1,2.1,1.3,3.6c0.3,0.2,0.5,0.5,0.8,0.8c0.5,0.5,1.1,1.1,1.8,1.8c0,0,0.7,0.5,2,1.5
					c0.5,0.4,0.8,1,0.8,2c0,0.7-0.1,3.2-0.3,7.5c0,0.8-0.8,1.9-2.3,3.6c-0.2,0.6-0.5,1.2-0.9,1.8c-0.8,1.3-1.9,2-3.1,2
					c-0.2,0-0.3,0-0.5,0v0c-0.2,0.8-0.5,1.6-0.8,2.5c0.1,0.4,0.2,0.9,0.4,1.5c0.1,0.5,0.3,0.9,0.4,1.3c0.2,0.7,0.3,1.4,0.4,1.9
					l6.6,0.4l13.8,4.7l24.5,1l-2.5,7.6l-2.1,2c-1.1,0.6-2.2,1.2-3.4,1.8c-1.9,0.9-3.8,1.6-5.8,2.1c-3.9,1.1-9.2,1.8-15.8,2.3
					c0,0.5,0.1,0.9,0.1,1.4c0,0.3,0,0.5,0,0.8c0,1.3-0.2,2.2-0.5,2.8c-0.2,0.4-0.5,0.7-0.8,0.9c0.1,1.5,0.2,3.1,0.2,4.8
					c0,0.4,0,0.7,0,1.1c0,0.8-0.1,1.6-0.1,2.5c-0.1,1.2-0.2,2.4-0.3,3.8c0,0.1,0,0.2,0,0.3c0,0.3,0,0.5,0,0.8
					c0.1,2.2,0.5,4.2,1.1,6.2c0.1,0.4,0.3,0.8,0.4,1.3c0.3,1.1,0.6,2,0.9,2.8 M664.9,52.4c0.8,0.1,1.6,0.2,2.5,0.5
					c0.5,0.1,1.3,0.4,2.4,0.7c0.3,0.1,0.6,0.2,0.9,0.3c0.1,0,0.3,0.1,0.5,0.1c0.8,0.1,1.8,0.2,3.2,0.3c1.9,0.4,2.4,1.6,1.8,3.5
					 M637.6,74.9c-0.1-0.4-0.2-1-0.4-1.7c-0.1-0.5-0.2-0.9-0.3-1.3c-0.1-0.6-0.2-1.1-0.2-1.6c0-0.6,0.1-1.2,0.2-1.7
					c-0.1-0.5-0.2-0.9-0.2-1.3c0-1.7,0.5-3,1.7-3.8c0.3-0.2,0.6-0.4,0.9-0.6c0.6-0.3,1.3-0.4,2-0.4c0,0,0.1,0,0.2,0
					c0.1,0,0.1,0,0.3,0c0.1,0,0.3,0,0.5,0.1c1.6,0.2,3.2,1.1,5,2.7c0.1,0,0.1,0.1,0.2,0.2c0.4,0.3,0.7,0.6,1,0.9l0,0.1
					c0.1,0.1,0.2,0.1,0.3,0.2v0.1c0.1,0,0.1,0.1,0.2,0.1c-0.1,0-0.1-0.1-0.2-0.2c-0.1-0.1-0.2-0.2-0.3-0.3c0,0,0,0,0,0
					c-2.2-2.6-3.6-4.1-4.3-4.5c-0.2-0.1-0.4-0.2-0.6-0.2 M647.3,65.4c0,0,0.1,0.1,0.1,0.2c0.4,0.3,0.7,0.6,1.1,0.9 M637,68.8
					c0.3-1.2,0.9-2.3,1.8-3.1c0.2-0.1,0.3-0.3,0.5-0.4c0.6-0.4,1.2-0.7,1.9-0.8c0.2-0.1,0.3-0.1,0.5-0.2c0.4-0.1,0.8-0.1,1.2-0.1
					c1.6,0,3,0.4,4.3,1.3 M641.5,72.1c0.1-0.2,0.1-0.3,0.3-0.5c0.1-0.3,0.3-0.5,0.5-0.7c0,0,0.1-0.1,0.2-0.1c0-0.1,0.1-0.1,0.1-0.2
					c0.2-0.2,0.4-0.3,0.6-0.5c0.8-0.6,1.5-0.8,2.3-0.8c1.2,0,2.5,0.5,3.9,1.6c1.4,1.1,2.9,1.6,4.5,1.6c2.5,0,4.5-1.4,6-4.2
					 M665.2,104.3c0.2,0,1,0.1,2.2,0.3c0.1,0,0.3,0,0.4,0c0-0.1-0.1-0.1-0.2-0.2c-1.3-1.5-3-3.6-5-6.4c-0.6-0.2-1-0.3-1.3-0.3
					c-1.1,0-2.5,0.5-4.3,1.5c-0.5,0.5-1,0.8-1.6,1.2c-0.6,0.3-1.3,0.6-2,0.8c-0.9,0.2-2,0.3-3.1,0.3c-2.7,0-5.5-0.4-8.4-1.3
					c-1.1-0.3-2.1-0.7-3.2-1.2c-1,0.4-2,0.6-3,0.6c-2,0-5.4-0.7-10.2-2.2c-4.9-1.5-7.8-2.4-8.8-2.7h-2.8l4.4-6.8
					c0.8,0,2.2,0.1,4.2,0.2c1.8,0,4.2-0.3,7.4-0.8c3.2-0.5,5.6-0.8,7.2-0.8c0.8,0,2.4,0.4,4.8,1.3c0,0,0.1,0,0.2,0
					c0.3,0.1,0.6,0.3,0.9,0.4c2.4-0.6,4.8-0.8,7.2-0.5c0.1-0.1,0.2-0.1,0.3-0.2c2.6-2.2,5.4-3.3,8.5-3.3c1.1,0,2.3,0.3,3.7,0.8
					c0.6,0.2,1,0.5,1.4,0.8c0.7-0.4,1.5-0.8,2.5-1.2c1-0.5,1.8-0.8,2.5-1.2c-0.3-0.2-0.6-0.5-0.9-0.8c-1.1-1-2-2.3-2.8-3.8
					c-0.4-0.9-1.1-2.7-1.9-5.3c-0.1-0.3-0.1-0.5-0.2-0.8c-0.6,0.8-1,1.4-1.3,1.8c-1.4,1.7-3,2.5-4.8,2.5c-0.9,0-1.7-0.2-2.4-0.6
					c-0.2-0.1-0.5-0.3-0.7-0.5c-0.4,0-0.9,0.1-1.3,0.1c-2.5,0-4.8-0.8-7.1-2.4c-1.3-0.9-2.3-1.9-2.9-2.9 M649,66.9
					c1.4,1.5,3,2.2,4.8,2.2c1,0,2.1-0.7,3.3-2c1.4-1.6,2.3-2.4,2.8-2.7c0.7-0.3,1.6-0.7,2.9-1.1c0.2-0.1,0.5-0.2,0.8-0.3
					c0.7-0.4,1.3-0.8,1.5-1.5c-0.5,0.2-1,0.3-1.5,0.3c-0.2,0-0.4,0-0.5,0c-0.7-0.1-1.6-0.3-2.5-0.5c-1.2-0.4-2-0.6-2.5-0.6
					c-0.6,0-1.3,0.2-1.9,0.6c-0.7,0.4-1.2,1-1.5,1.7 M670,58.2c0.4,0.6,1,1.2,1.7,1.6c0.8,0.4,1.5,0.7,2.3,0.7c1,0,1.8-0.3,2.5-0.8
					c0.2-0.2,0.5-0.4,0.7-0.7 M665,61.6c0.5-0.2,1-0.4,1.5-0.7c0,0,0.1,0,0.1-0.1c-0.1,0-0.1,0-0.2,0c-1.2,0-2.4-0.3-3.7-0.8
					s-2.2-1.1-2.7-1.8 M666.7,60.8c0.8,0,1.8-0.1,2.9-0.4c0.8-0.2,1.5-0.4,2.1-0.7 M666.5,70.7l-4.3-0.5c0,0.2,0.1,0.4,0.1,0.6
					c0.1,0.6,0.3,1.3,0.6,2.2 M662.2,70.2c-0.1-0.5-0.2-0.8-0.2-0.9c0-0.9,0.3-2.9,0.8-5.9 M653.8,76.1c1.8-0.3,3.6-1,5.3-2.2
					c1.3-0.9,2.3-1.9,3.3-3.2 M669.6,70.1c0.2-0.1,1.1-0.4,2.5-0.9c1.5-0.5,2.4-0.8,2.7-0.8 M663,71.9l3.3,0.2l0.4,5
					c0.3,0,0.5,0,0.8,0c0.2,0,0.6,0,1.1,0.1c0.5,0,1.1-0.3,1.8-1 M670,71.3l2.5-0.8 M681.3,58.6c0.1-1.2,0.1-2.2,0-3.2 M676.6,59.6
					c0.2,1,0.3,2.2,0.3,3.7c-0.1,1.6,0.2,2.6,0.8,3.1c0.7,0.6,1.3,1.4,1.7,2.5c0.2,0.6,0.4,1.2,0.5,1.9c0.2-0.6,0.6-1.1,1.3-1.4
					c0.6-0.4,1.1-0.6,1.5-0.6c0.6,0,1,0.3,1.3,0.8c0.2,0.4,0.4,0.9,0.4,1.4c0,0.6-0.1,1.1-0.2,1.7 M679.5,76.4c0-0.1,0-0.3,0-0.3
					c0-0.2,0-0.5,0-0.7 M675.3,51.8c0.8,0.4,1.3,1,1.7,1.8c0.4,0.8,0.5,1.7,0.4,2.6 M696.1,95.3c0.1-0.5,0.6-1.2,1.5-1.9
					 M693.8,111.3c-0.6,0.3-1.3,0.4-2.3,0.3 M682.9,113.4h1c1.8-0.2,2.9,0.5,3.2,2.2c0.2,1,0.3,3,0.2,5.9c0.1,1.4,0.1,3.2,0.2,5.4
					c0.1,1.6,0.5,2.8,1.1,3.6h0v0.1c0,0-0.1-0.1,0-0.1 M675.4,91.6c2.6,1.2,4.7,3.1,6.2,5.6c1.5,2.5,2.2,5.2,2.2,8.3
					c0,1.8-0.3,3-1,3.5c-0.6,0.5-2,0.8-4.1,0.8c-1,0-1.9-0.1-2.6-0.2c-1.1-0.2-2.1-0.4-3.1-0.6 M677.4,117.9c-0.7,1-1.1,2.2-1.1,3.5
					c0,0.7,0.1,1.3,0.2,1.8 M691.4,95.3c2.2,3.1,3.5,6.4,3.8,10.1 M669.8,87.3l-0.9-3.6c0,0-0.1-0.1-0.1-0.1 M668.3,79.6
					c0.3,0,0.6,0.1,1,0.2c0.4,0,1.3-0.3,2.7-0.8 M669.3,81.3c0.4,0,1.3-0.1,2.7-0.4 M678.7,78.9c-0.2,0.4-0.4,0.8-0.6,1.3
					c-1.6,3.1-3.5,4.7-6,4.7c-1.1,0-2.2-0.4-3.3-1.2 M665.8,87.8c3.2,1.7,5.7,2.7,7.4,3 M663.8,85.9c0.6,0.4,1,0.8,1.2,1.2
					 M659.3,93.7c1.2,1.6,2.3,3.1,3.3,4.4 M657,99.3c0.8-0.9,1.4-2.1,1.8-3.6 M650.1,87.8c0.2,0,0.3,0,0.5,0.1
					c1.3,0.2,2.5,0.6,3.8,1.2 M642.9,88.3c0.5,0.2,1,0.4,1.4,0.6 M643.4,95.8c-0.6,0.5-1.1,0.9-1.6,1.3c-0.4,0.3-0.7,0.5-1,0.8
					c-0.2,0.2-0.5,0.3-0.7,0.4c-0.5,0.3-1,0.6-1.5,0.8 M640.8,94.3l4.8-0.6 M662.9,107.6c0.6,0.6,1.4,1.1,2.6,1.4
					c1,0.3,1.9,0.4,2.8,0.4 M667.8,104.7c0.5,0.6,1,1.1,1.4,1.5 M661.9,111.1c0.7,0.5,1.5,0.9,2.5,1.2c1,0.3,1.8,0.3,2.5,0.2
					 M671.8,123.6c0,0.5,0.6,2.3,1.8,5.6"/>
			</g>
		</g>
	</g>
	<g id="弓" transform="matrix( 1, 0, 0, 1, -246.35,21.35) ">
		<g>
			<g>
				
					<radialGradient id="SVGID_18_" cx="246.35" cy="380.65" r="275.525" fx="245.2695" fy="380.65" gradientTransform="matrix(1 0 0 -1 176.8 581.65)" gradientUnits="userSpaceOnUse">
					<stop  offset="0" style="stop-color:#011B31"/>
					<stop  offset="0.1451" style="stop-color:#325276"/>
					<stop  offset="0.2863" style="stop-color:#0464A5"/>
					<stop  offset="0.549" style="stop-color:#3780C8"/>
					<stop  offset="0.9608" style="stop-color:#205CE0"/>
					<stop  offset="1" style="stop-color:#205CE0"/>
				</radialGradient>
				<path class="st18" d="M380.2,126.8c0.5,5.5,0.9,9,1.1,10.4c0.8,4.3,2.3,7.5,4.3,9.6c4.5,4.7,10,9.6,16.6,14.9
					c0.4,0.3,0.7,0.6,1.1,0.9c0.1,0.1,0.1,0.1,0.3,0.2c5.6,4.4,10.1,10.1,13.4,17.2c0,0.1,0.1,0.1,0.1,0.2c2.9,6.2,4.5,12.5,4.9,19
					c0,0.9,0,1.8,0,2.7c0.8-0.2,1.3-0.6,1.5-1c0.2-0.5,0.3-1,0.4-1.5c0-0.5,0-2.4-0.3-5.8c-0.1-0.8-0.1-1.5-0.3-2.3
					c0-0.1,0-0.3,0-0.4c-0.4-2.7-1.2-5.6-2.3-8.6c-1.5-4.2-3.4-7.9-5.8-11.3c-1.4-2-4-4.8-7.9-8.4c-1.5-1.5-3.3-3.1-5.2-4.8
					c-1.5-1.3-3.1-2.8-4.8-4.3c0,0-0.1-0.1-0.1-0.1c-1.9-1.5-3.6-2.9-4.9-4.2c-0.1-0.1-0.2-0.2-0.3-0.3c-1.3-1.3-2.4-2.6-3.2-3.8
					c-1.6-2.5-2.6-5.4-3.1-8.9c-0.3-2.1-0.4-6.2-0.4-12.4c0-0.9,0-1.8,0-2.7h-9.3c2.5,1,3.8,2.6,4,4.8
					C380.1,126.2,380.2,126.5,380.2,126.8 M385.4,121.2c0-0.8-0.1-1.6-0.1-2.4H376c-0.7,1-0.6,1.8,0.1,2.4H385.4 M386,92.3h-7.6
					v16.9c-0.2,1.9-0.5,3.6-0.9,5c-0.2,0.8-0.6,1.8-1,3c-0.1,0.2-0.2,0.4-0.3,0.7c-0.1,0.3-0.2,0.7-0.3,0.9h9.3
					c-0.1-2.4-0.1-4.8-0.3-7c0-0.4,0-0.9,0-1.3C384.9,103.4,385.2,97.4,386,92.3 M378.4,89.8c-0.6,1.1-0.6,1.9,0,2.4h7.6
					c0.1-0.8,0.3-1.6,0.5-2.4H378.4 M421,26.1c0.6,2.6,0.8,6.4,0.7,11.4c-0.1,5.3-2.1,10-5.9,14.2c-3.9,4.1-9.1,8.2-15.8,12.3
					c-6.7,4.1-11.1,8.6-13.3,13.5c-2.2,4.9-3.7,8-4.6,9.2c-0.8,1-2,2.1-3.7,3.2h8.1c0.6-2.6,1.3-5,2.1-7.1
					c2.7-6.8,7.6-12.5,14.6-17.2c5.9-3.9,9.3-6.2,10.2-6.9c1.4-1.1,2.6-2.1,3.7-3.2c2.1-2.1,3.8-4.3,4.9-6.5c0.7-1.3,1.4-3.2,2-5.5
					c0.5-2,0.7-4.2,0.8-6.5c0-0.2,0-0.4,0-0.6c0-2.6-0.2-4.9-0.7-7.1C423.7,27,422.6,26,421,26.1z"/>
			</g>
		</g>
		<g>
			
				<radialGradient id="SVGID_19_" cx="246.35" cy="388.472" r="87.0625" gradientTransform="matrix(1 0 0 -1.0447 183 518.8181)" gradientUnits="userSpaceOnUse">
				<stop  offset="0" style="stop-color:#CEEDF4"/>
				<stop  offset="0.5412" style="stop-color:#A8F2F4"/>
				<stop  offset="1" style="stop-color:#208AE0"/>
			</radialGradient>
			<path class="st19" d="M386.5,89.8c0.6-2.6,1.3-5,2.1-7.1c2.7-6.8,7.6-12.5,14.6-17.2c5.9-3.9,9.3-6.2,10.2-6.9
				c1.4-1.1,2.6-2.1,3.7-3.2c2.1-2.1,3.8-4.3,4.9-6.5c0.7-1.3,1.4-3.2,2-5.5c0.5-2,0.7-4.2,0.8-6.5c0-0.2,0-0.4,0-0.6
				c0-2.6-0.2-4.9-0.7-7.1c-0.4-2.2-1.5-3.2-3.2-3c0.6,2.6,0.8,6.4,0.7,11.4c-0.1,5.3-2.1,10-5.9,14.2c-3.9,4.1-9.1,8.2-15.8,12.3
				c-6.7,4.1-11.1,8.6-13.3,13.5c-2.2,4.9-3.7,8-4.6,9.2c-0.8,1-2,2.1-3.7,3.2H386.5c-0.2,0.8-0.3,1.6-0.5,2.4
				c-0.8,5.1-1.2,11.2-1,18.2c0,0.4,0,0.9,0,1.3c0.1,2.2,0.2,4.6,0.3,7c0,0.8,0,1.6,0.1,2.4c0,0.9,0,1.8,0,2.7
				c0,6.2,0.2,10.4,0.4,12.4c0.4,3.4,1.5,6.4,3.1,8.9c0.8,1.2,1.9,2.5,3.2,3.8c0.1,0.1,0.2,0.2,0.3,0.3c1.4,1.3,3,2.7,4.9,4.2
				c0,0,0.1,0.1,0.1,0.1c1.7,1.5,3.3,2.9,4.8,4.3c1.9,1.7,3.7,3.3,5.2,4.8c3.9,3.7,6.5,6.5,7.9,8.4c2.3,3.3,4.2,7.1,5.8,11.3
				c1.1,3.1,1.9,6,2.3,8.6l32.8-85.7l-31.3-68.3 M378.4,89.8c-0.6,1.1-0.6,1.9,0,2.4h7.6 M378.4,92.3v16.9c-0.2,1.9-0.5,3.6-0.9,5
				c-0.2,0.8-0.6,1.8-1,3c-0.1,0.2-0.2,0.4-0.3,0.7c-0.1,0.3-0.2,0.7-0.3,0.9h9.3 M376,118.8c-0.7,1-0.6,1.8,0.1,2.4h9.3
				 M376.1,121.2c2.5,1,3.8,2.6,4,4.8c0,0.3,0,0.5,0.1,0.8c0.5,5.5,0.9,9,1.1,10.4c0.8,4.3,2.3,7.5,4.3,9.6
				c4.5,4.7,10,9.6,16.6,14.9c0.4,0.3,0.7,0.6,1.1,0.9c0.1,0.1,0.1,0.1,0.3,0.2c5.6,4.4,10.1,10.1,13.4,17.2c0,0.1,0.1,0.1,0.1,0.2
				c2.9,6.2,4.5,12.5,4.9,19c0,0.9,0,1.8,0,2.7c0.8-0.2,1.3-0.6,1.5-1c0.2-0.5,0.3-1,0.4-1.5c0-0.5,0-2.4-0.3-5.8
				c-0.1-0.8-0.1-1.5-0.3-2.3c0-0.1,0-0.3,0-0.4"/>
		</g>
	</g>
	<g id="箭" transform="matrix( 1, 0, 0, 1, -246.35,21.35) ">
		<g>
			<g>
				
					<radialGradient id="SVGID_20_" cx="246.35" cy="380.65" r="0.1" gradientTransform="matrix(1 0 0 -1 206.75 490.55)" gradientUnits="userSpaceOnUse">
					<stop  offset="0" style="stop-color:#FFFFFF"/>
					<stop  offset="0.2431" style="stop-color:#FFFFFF"/>
					<stop  offset="0.6941" style="stop-color:#4BE4F1"/>
					<stop  offset="1" style="stop-color:#3780C8"/>
				</radialGradient>
				<path class="st20" d="M453.1,109.9l-0.1,0L453.1,109.9L453.1,109.9z"/>
				
					<radialGradient id="SVGID_21_" cx="246.35" cy="380.65" r="9.998703e-02" gradientTransform="matrix(1 0 0 -1 206.75 480.75)" gradientUnits="userSpaceOnUse">
					<stop  offset="0" style="stop-color:#FFFFFF"/>
					<stop  offset="0.2431" style="stop-color:#FFFFFF"/>
					<stop  offset="0.6941" style="stop-color:#4BE4F1"/>
					<stop  offset="1" style="stop-color:#3780C8"/>
				</radialGradient>
				<path class="st21" d="M453,100.1l0.1,0.1c0,0,0-0.1,0-0.1H453z"/>
				
					<radialGradient id="SVGID_22_" cx="246.35" cy="380.65" r="159.3125" gradientTransform="matrix(1 0 0 -1 167 485.15)" gradientUnits="userSpaceOnUse">
					<stop  offset="0" style="stop-color:#FFFFFF"/>
					<stop  offset="0.2431" style="stop-color:#FFFFFF"/>
					<stop  offset="0.6941" style="stop-color:#4BE4F1"/>
					<stop  offset="1" style="stop-color:#3780C8"/>
				</radialGradient>
				<path class="st22" d="M459.2,110.6l-3.4-4.9l0-0.1h-14.9c0.8,0.8,2.5,2,5.3,3.8h0.3c-0.1-0.7-0.4-1.5-0.9-2.4
					c0.9,0.6,1.9,1.1,2.9,1.4l4.6,1.6l0.1,0c-0.5-0.8-1-1.6-1.5-2.4c0.8,0.5,1.6,0.9,2.3,1.2C454.9,109,456.7,109.7,459.2,110.6
					 M455.8,104.3l3.4-4.9c-2.5,0.9-4.3,1.5-5.3,1.9c-0.7,0.3-1.5,0.7-2.3,1.2c0.5-0.8,1-1.5,1.5-2.3l-0.1-0.1l-4.6,1.6
					c-1,0.3-1.9,0.8-2.9,1.4c0.5-0.9,0.8-1.7,0.9-2.4h-0.3c-2.7,1.7-4.5,3-5.3,3.8L455.8,104.3L455.8,104.3 M367.4,105.6v-1.2v-2.1
					c-1.4,1.2-3.2,0.8-5.3-1.3c-2.3,1.8-4.8,3.1-7.5,3.9c2.7,0.8,5.2,2.1,7.4,3.9c2.1-2,3.8-2.4,5.3-1.3V105.6 M367.4,104.4v1.2
					h73.5h14.9l0.1,0.1c0.4-0.4,0.4-0.8,0-1.3l-0.1,0.1h-14.9H367.4z"/>
				
					<radialGradient id="SVGID_23_" cx="246.35" cy="380.65" r="0.1" gradientTransform="matrix(1 0 0 -1 209.45 486.3)" gradientUnits="userSpaceOnUse">
					<stop  offset="0" style="stop-color:#FFFFFF"/>
					<stop  offset="0.2431" style="stop-color:#FFFFFF"/>
					<stop  offset="0.6941" style="stop-color:#4BE4F1"/>
					<stop  offset="1" style="stop-color:#3780C8"/>
				</radialGradient>
				<path class="st23" d="M455.8,105.7C455.8,105.7,455.9,105.7,455.8,105.7L455.8,105.7L455.8,105.7z"/>
				
					<radialGradient id="SVGID_24_" cx="246.35" cy="380.65" r="5.000114e-02" gradientTransform="matrix(1 0 0 -1 209.45 485)" gradientUnits="userSpaceOnUse">
					<stop  offset="0" style="stop-color:#FFFFFF"/>
					<stop  offset="0.2431" style="stop-color:#FFFFFF"/>
					<stop  offset="0.6941" style="stop-color:#4BE4F1"/>
					<stop  offset="1" style="stop-color:#3780C8"/>
				</radialGradient>
				<path class="st24" d="M455.9,104.3C455.8,104.3,455.8,104.3,455.9,104.3l-0.1,0.1L455.9,104.3z"/>
			</g>
		</g>
		<g>
			
				<radialGradient id="SVGID_25_" cx="246.35" cy="377.2075" r="111.025" gradientTransform="matrix(1 0 0 -0.9815 133.5 475.2426)" gradientUnits="userSpaceOnUse">
				<stop  offset="0" style="stop-color:#CEEDF4"/>
				<stop  offset="0.5412" style="stop-color:#A8F2F4"/>
				<stop  offset="1" style="stop-color:#208AE0"/>
			</radialGradient>
			<path class="st25" d="M367.4,104.4v1.2h73.5h14.9 M455.9,104.3c0.4,0.5,0.4,0.9,0,1.3 M455.8,104.4h-14.9h-73.5v-2.1
				c-1.4,1.2-3.2,0.8-5.3-1.3c-2.3,1.8-4.8,3.1-7.5,3.9c2.7,0.8,5.2,2.1,7.4,3.9c2.1-2,3.8-2.4,5.3-1.3v-2.1 M453.1,100.2
				c-0.5,0.8-1,1.6-1.5,2.3c0.8-0.5,1.6-0.9,2.3-1.2c1-0.4,2.8-1,5.3-1.9l-3.4,4.9c0,0,0,0,0.1,0 M455.8,104.3L455.8,104.3
				 M455.9,105.7C455.9,105.7,455.8,105.7,455.9,105.7l3.4,4.9c-2.5-0.9-4.3-1.5-5.3-1.9c-0.7-0.3-1.5-0.7-2.3-1.2
				c0.5,0.8,1,1.6,1.5,2.4l0,0H453l-4.6-1.6c-1-0.3-1.9-0.8-2.9-1.4c0.5,0.9,0.8,1.7,0.9,2.4h-0.3c-2.7-1.7-4.5-3-5.3-3.8
				 M455.8,105.7L455.8,105.7 M453,100.1l-4.6,1.6c-1,0.3-1.9,0.8-2.9,1.4c0.5-0.9,0.8-1.7,0.9-2.4h-0.3c-2.7,1.7-4.5,3-5.3,3.8
				 M453,100.1h0.1c0,0,0,0.1,0,0.1"/>
		</g>
	</g>
	<g id="手2" transform="matrix( 1, 0, 0, 1, -246.35,21.35) ">
		<g>
			<g>
				
					<radialGradient id="SVGID_26_" cx="-177.65" cy="495.5546" r="34.8" fx="-177.65" fy="494.5993" gradientTransform="matrix(0 -1 -3.5392 0 2159.9932 -97.15)" gradientUnits="userSpaceOnUse">
					<stop  offset="0" style="stop-color:#0464A5"/>
					<stop  offset="9.803922e-02" style="stop-color:#0464A5"/>
					<stop  offset="0.4471" style="stop-color:#152236"/>
					<stop  offset="0.8353" style="stop-color:#1B3678"/>
					<stop  offset="1" style="stop-color:#2F94E0"/>
				</radialGradient>
				<path class="st26" d="M374.2,114.6c0,0.3,0,0.6,0,0.8c0,0.6,0.3,0.9,1,1l1.5-0.1c0.3,0,0.5,0,0.7,0c0.7-0.1,1.2-0.1,1.4-0.1
					c0.7-0.2,1-0.6,1-1.2c0-0.9-0.5-1.4-1.5-1.6c-0.1,0-0.2,0-0.3-0.1c-0.1,0-0.2,0-0.3,0c-0.4-0.1-0.7-0.1-0.8-0.1
					c-0.2,0-0.6,0-1.1,0c-0.7,0-1.1,0.1-1.4,0.2c0,0-0.1,0-0.1,0.1C374.3,113.7,374.2,114.1,374.2,114.6 M378.4,110.1L378.4,110.1
					c-0.8-0.1-1.4-0.2-1.6-0.2c-0.2,0-0.6,0-1.3,0c-0.8,0-1.3,0.1-1.5,0.3c0,0-0.1,0-0.1,0c-0.2,0.1-0.3,0.3-0.4,0.5
					c-0.1,0.2-0.1,0.5-0.1,0.8c0,0.4,0,0.7,0.1,0.9c0,0.7,0.4,1,1.1,1.1c0.2-0.1,0.7-0.2,1.4-0.2c0.5,0,0.9,0,1.1,0
					c0.1,0,0.3,0,0.8,0.1c0.1,0,0.2,0,0.3,0c0.3,0,0.6-0.1,0.7-0.1c0.8-0.2,1.2-0.7,1.2-1.3c0-0.5-0.1-0.9-0.3-1.2
					C379.4,110.4,379,110.2,378.4,110.1 M378.4,110.1L378.4,110.1c0.6,0.1,1.1,0.3,1.4,0.7c0.9-0.2,1.3-0.6,1.3-1.3
					c0-0.9-0.6-1.5-1.6-1.8c-0.1,0-0.3-0.1-0.5-0.1c-0.2,0-0.3-0.1-0.5-0.1c-0.7-0.1-1.2-0.2-1.4-0.3c-0.3,0-0.8,0-1.6,0
					c-0.8,0-1.3,0-1.6,0.1c-0.1,0-0.2,0-0.3,0.1c0,0-0.1,0-0.1,0c-0.4,0.2-0.6,0.7-0.6,1.3c0,0.4,0,0.7,0.1,0.9c0,0.5,0.2,0.8,0.6,1
					c0.1-0.2,0.2-0.4,0.4-0.5c0,0,0.1,0,0.1,0c0.2-0.1,0.8-0.2,1.5-0.3c0.6,0,1.1,0,1.3,0C377,109.9,377.6,110,378.4,110.1
					 M377.1,104.8c-0.2,0-0.7-0.1-1.4-0.1c-0.8,0-1.3,0-1.5,0.1c0,0-0.1,0-0.1,0c-0.3,0.2-0.5,0.5-0.6,1.1c0,0.3,0,0.6,0,0.8
					c0,0.3,0,0.5,0.2,0.7c0.3-0.1,0.9-0.1,1.6-0.1c0.8,0,1.3,0,1.6,0c0.2,0,0.7,0.1,1.4,0.3c0.2,0,0.3,0,0.5,0.1
					c0.2,0,0.3,0.1,0.5,0.1c0.5-0.2,0.8-0.5,0.9-1c0.1-0.9-0.5-1.4-1.6-1.7c-0.1,0-0.1,0-0.2,0C377.7,104.9,377.3,104.8,377.1,104.8
					 M385.5,104.3c-0.1,0-0.3,0.1-0.5,0.3c0,0,0,0,0,0c-0.4,0.3-1,0.7-1.9,1.3c-1.4,1.1-2.1,1.7-2.1,1.8c0,0.5,0.2,0.9,0.7,1.3
					c0.4,0.3,0.8,0.5,1.1,0.5c0.7,0,1.3-0.2,1.9-0.4c0.1,0,0.2-0.1,0.3-0.2c0.3-0.2,0.8-0.6,1.4-1c-0.6,0.5-1.1,0.8-1.4,1l0,1.6
					c0,0.4,0,0.9,0,1.3c0,1,0.1,2,0.2,3.1c0.1,0,0.2,0,0.3,0c0.4,0,0.7-0.1,1-0.2c0.5-0.2,0.9-0.5,1.2-0.9c0.2-0.3,0.4-0.7,0.5-1.1
					c0.1-0.3,0.1-0.7,0.1-1c0-1.8-0.2-3.3-0.5-4.7C387.3,105,386.5,104.2,385.5,104.3z"/>
				<path class="st1" d="M385,112.4c0,0.4,0,0.9,0,1.3c0,0.3,0,0.7,0.1,1.1c0,0,0.1,0,0.1,0c-0.1-1.1-0.1-2.1-0.2-3.1
					c0-0.4,0-0.9,0-1.3C385,111.1,385,111.8,385,112.4z"/>
			</g>
		</g>
		<g>
			
				<radialGradient id="SVGID_27_" cx="246.35" cy="391.4956" r="54.7625" gradientTransform="matrix(1 0 0 -1.063 141.75 531.2096)" gradientUnits="userSpaceOnUse">
				<stop  offset="0" style="stop-color:#CEEDF4"/>
				<stop  offset="0.5412" style="stop-color:#A8F2F4"/>
				<stop  offset="1" style="stop-color:#208AE0"/>
			</radialGradient>
			<path class="st27" d="M385,110.4l0-1.6c-0.1,0.1-0.2,0.1-0.3,0.2c-0.6,0.3-1.2,0.4-1.9,0.4c-0.3,0-0.7-0.2-1.1-0.5
				c-0.5-0.4-0.7-0.8-0.7-1.3c0-0.1,0.7-0.7,2.1-1.8c0.9-0.6,1.5-1.1,1.9-1.3c0,0,0,0,0,0c0.2-0.2,0.4-0.3,0.5-0.3
				c1-0.1,1.8,0.8,2.3,2.7c0.3,1.4,0.5,2.9,0.5,4.7c0,0.3,0,0.7-0.1,1c0.7,0.1,1.7,0.2,2.9,0.4 M385,108.8c0.3-0.2,0.8-0.6,1.4-1
				 M385.2,114.8c0.1,0,0.2,0,0.3,0c0.4,0,0.8-0.1,1.1-0.2c0.5-0.2,0.8-0.5,1.1-0.9c0.2-0.3,0.4-0.7,0.5-1.1 M385,110.4
				c0,0.4,0,0.9,0,1.3c0,1,0.1,2,0.2,3.1 M379.4,107.8c0.5-0.2,0.8-0.5,0.9-1c0.1-0.9-0.5-1.4-1.6-1.7c-0.1,0-0.1,0-0.2,0
				c-0.7-0.1-1.1-0.2-1.3-0.3c-0.2,0-0.7-0.1-1.4-0.1c-0.8,0-1.3,0-1.5,0.1c0,0-0.1,0-0.1,0c-0.3,0.2-0.5,0.5-0.6,1.1
				c0,0.3,0,0.6,0,0.8c0,0.3,0,0.5,0.2,0.7c0.3-0.1,0.9-0.1,1.6-0.1c0.8,0,1.3,0,1.6,0c0.2,0,0.7,0.1,1.4,0.3c0.2,0,0.3,0,0.5,0.1
				C379.1,107.7,379.2,107.7,379.4,107.8c1.1,0.3,1.6,0.8,1.6,1.8c0,0.6-0.4,1-1.3,1.3c0.2,0.3,0.3,0.7,0.3,1.2
				c0,0.7-0.4,1.1-1.2,1.3c-0.1,0-0.4,0-0.7,0.1v0c0.1,0,0.2,0.1,0.3,0.1c1,0.2,1.5,0.7,1.5,1.6c0,0.6-0.3,1-1,1.2
				c-0.2,0-0.7,0-1.4,0.1c-0.2,0-0.4,0-0.7,0l-1.5,0.1c-0.6-0.1-1-0.4-1-1c0-0.2,0-0.5,0-0.8c0-0.5,0.1-0.9,0.3-1.1
				c0,0,0.1-0.1,0.1-0.1c-0.7-0.1-1.1-0.4-1.1-1.1c-0.1-0.2-0.1-0.5-0.1-0.9c0-0.3,0-0.5,0.1-0.8c-0.4-0.2-0.6-0.5-0.6-1
				c-0.1-0.2-0.1-0.5-0.1-0.9c0-0.6,0.2-1.1,0.6-1.3c0,0,0.1,0,0.1,0c0.1,0,0.1-0.1,0.3-0.1 M373.5,110.7c0.1-0.2,0.2-0.4,0.4-0.5
				c0,0,0.1,0,0.1,0c0.2-0.1,0.8-0.2,1.5-0.3c0.6,0,1.1,0,1.3,0c0.2,0,0.8,0.1,1.6,0.2h0c0.6,0.1,1,0.3,1.3,0.7 M378.1,113.3
				c-0.1,0-0.2,0-0.3,0C377.9,113.3,378,113.3,378.1,113.3 M377.9,113.3c-0.4-0.1-0.7-0.1-0.8-0.1c-0.2,0-0.6,0-1.1,0
				c-0.7,0-1.1,0.1-1.4,0.2"/>
		</g>
	</g>
	<g id="手1" transform="matrix( 1, 0, 0, 1, -230,20) ">
		<g>
			<g>
				
					<radialGradient id="SVGID_28_" cx="-161.9922" cy="490.9063" r="35.964" fx="-161.9209" fy="490.3466" gradientTransform="matrix(0.1265 -0.992 -3.5105 -0.4484 2216.0996 142.2148)" gradientUnits="userSpaceOnUse">
					<stop  offset="0" style="stop-color:#4AE0EF"/>
					<stop  offset="9.803922e-02" style="stop-color:#4AE0EF"/>
					<stop  offset="0.4471" style="stop-color:#152236"/>
					<stop  offset="0.8353" style="stop-color:#1B3678"/>
					<stop  offset="1" style="stop-color:#4AE0EF"/>
				</radialGradient>
				<path class="st28" d="M483.4,111.1c-0.6-1.2-1.9-2.4-4-3.7c-2.6-1.6-4.5-2.3-5.9-2.3c-2.3,0.4-4.1,0.7-5.4,0.9
					c-1.5,0.2-2.4,0.4-2.8,0.4l-8,0.2c-2.6,0.1-4.4,0.1-5.5,0c-0.7,0-1.5,0-2.4-0.1c-0.8-0.1-1.7-0.2-2.7-0.3l-0.1,0.2
					c-0.1-0.1-0.3-0.2-0.4-0.3c-2.7-1.7-4.8-2.5-6-2.5c-1.4,0-3,0.3-4.8,0.8c-0.7,0.2-1.3,0.4-1.8,0.6c-1.2,0.5-1.7,1-1.6,1.6
					c0.1,0.8,0.5,1.5,1.1,2.2v-0.1c0-0.7,0.4-1.3,1.1-1.7c0.2-0.1,1-0.4,2.5-0.9c-1.5,0.5-2.3,0.8-2.5,0.9c-0.7,0.4-1.1,1-1.1,1.7
					v0.1c0,0.7,0.2,1.2,0.6,1.7c0.1-0.2,0.3-0.4,0.5-0.6c0.7-0.7,1.9-1.3,3.6-1.7c-1.8,0.4-3,0.9-3.6,1.7c-0.2,0.2-0.4,0.4-0.5,0.6
					c-0.2,0.3-0.3,0.6-0.3,1c0,0.6,0.2,1.1,0.6,1.4c0.3-0.3,0.7-0.6,1.2-0.9c0.4-0.2,0.9-0.4,1.4-0.6c0.4-0.2,0.8-0.3,1.3-0.4
					c-0.5,0.1-0.9,0.3-1.3,0.4c-0.5,0.2-1,0.4-1.4,0.6c-0.5,0.3-0.9,0.6-1.2,0.9c-0.3,0.3-0.4,0.7-0.4,1c0,0.6,0.5,0.9,1.5,0.9
					c0.5,0,1.1-0.2,1.6-0.5c0.6-0.3,1.1-0.5,1.4-0.5h3.5c1.5,0,2.6-0.1,3.4-0.3c0.1,0,0.1-0.1,0.3-0.1c0.3-0.1,0.5-0.3,0.8-0.4
					c-0.2,0.1-0.5,0.3-0.8,0.4c0.4,0.1,0.9,0.2,1.4,0.3c0.9,0.2,1.8,0.4,2.7,0.6c0.6,0.1,1.2,0.3,1.9,0.4c1.2,0.3,2.5,0.6,3.9,0.8
					c0.8,0.2,1.5,0.3,2.3,0.6c2,0.5,3.8,1,5.4,1.4c0.4,0.1,0.8,0.2,1.2,0.4c1.6,0.5,3.5,1.2,5.6,2.1c1.1,0.4,2.5,0.7,4.3,0.8
					c0.2,0,0.5,0,0.7,0c3.2,0,5.3-0.3,6.5-0.8c1-0.5,1.7-1.3,2.2-2.4c0.2-0.6,0.3-1.2,0.4-1.8c-0.1,0.7-0.2,1.3-0.4,1.8
					c1.4-0.9,2-2,2-3.2c0-1-0.4-1.8-1-2.5C483.9,111.5,483.6,111.3,483.4,111.1z"/>
			</g>
		</g>
		<g>
			<path class="st29" d="M446.6,106.3c1,0.1,1.9,0.2,2.7,0.3c0.9,0.1,1.7,0.1,2.4,0.1c1.1,0,2.9,0,5.5,0l8-0.2
				c0.3,0,1.2-0.2,2.8-0.4c1.3-0.2,3.1-0.5,5.4-0.9c1.4,0,3.3,0.8,5.9,2.3c2.1,1.2,3.4,2.4,4,3.7c0.3,0.2,0.5,0.4,0.9,0.6
				c0.7,0.7,1,1.5,1,2.5c0,1.2-0.7,2.3-2,3.2c-0.4,1.1-1.2,1.9-2.2,2.4c-1.2,0.6-3.3,0.8-6.5,0.8c-0.2,0-0.5,0-0.7,0
				c-1.8-0.1-3.2-0.3-4.3-0.8c-2.1-0.9-4-1.6-5.6-2.1c-0.4-0.1-0.8-0.3-1.2-0.4c-1.6-0.4-3.4-0.9-5.4-1.4c-0.7-0.2-1.5-0.4-2.3-0.6
				c-1.4-0.3-2.7-0.6-3.9-0.8c-0.6-0.1-1.3-0.3-1.9-0.4c-0.9-0.2-1.8-0.4-2.7-0.6c-0.5-0.1-1-0.2-1.4-0.3c-0.1,0-0.2,0-0.3,0.1
				c-0.8,0.3-1.9,0.4-3.4,0.3h-3.5c-0.3,0-0.8,0.2-1.4,0.5c-0.6,0.3-1.1,0.5-1.6,0.5c-1,0-1.5-0.3-1.5-0.9c0-0.3,0.1-0.7,0.4-1
				c-0.4-0.4-0.6-0.8-0.6-1.4c0-0.4,0.1-0.7,0.3-1c-0.4-0.5-0.6-1-0.6-1.7c-0.7-0.7-1-1.4-1.1-2.2c-0.1-0.6,0.5-1.1,1.6-1.6
				c0.5-0.2,1.1-0.4,1.8-0.6c1.8-0.5,3.4-0.8,4.8-0.8c1.3,0,3.3,0.8,6,2.5C446.3,106.2,446.5,106.2,446.6,106.3z M446.1,106.2
				c0.1,0.1,0.3,0.2,0.4,0.3 M483.2,117.4c0.2-0.6,0.3-1.2,0.4-1.8 M437.9,110.9c-0.5,0.1-0.9,0.3-1.3,0.4c-0.5,0.2-1,0.4-1.4,0.6
				c-0.5,0.3-0.9,0.6-1.2,0.9 M437.8,108.2c-1.8,0.4-3,0.9-3.6,1.7c-0.2,0.2-0.4,0.4-0.5,0.6 M433,108.8L433,108.8
				c0-0.8,0.4-1.3,1.1-1.8c0.2-0.1,1-0.4,2.5-0.9 M445.3,113.3c0.3-0.1,0.5-0.3,0.8-0.4"/>
		</g>
	</g>
</g>
<g id="星星" transform="matrix( 1, 0, 0, 1, -225.35,-11.55) ">
	<g>
		<g>
			
				<radialGradient id="SVGID_29_" cx="225.35" cy="413.55" r="2.475" gradientTransform="matrix(1 0 0 -1 115.7 661.6)" gradientUnits="userSpaceOnUse">
				<stop  offset="0" style="stop-color:#FFFFFF"/>
				<stop  offset="1" style="stop-color:#1C96E0"/>
			</radialGradient>
			<path class="st30" d="M341.8,248.2c0-0.2-0.1-0.4-0.3-0.6c-0.2-0.2-0.4-0.2-0.6-0.3c-0.2,0-0.4,0.1-0.6,0.3
				c-0.2,0.2-0.3,0.4-0.3,0.6c0,0.2,0.1,0.4,0.3,0.6c0.2,0.2,0.4,0.3,0.6,0.3c0.2,0,0.4-0.1,0.6-0.3
				C341.7,248.6,341.8,248.4,341.8,248.2z"/>
			
				<radialGradient id="SVGID_30_" cx="225.35" cy="413.55" r="1.75" gradientTransform="matrix(1 0 0 -1 122.6 680.4)" gradientUnits="userSpaceOnUse">
				<stop  offset="0" style="stop-color:#FFFFFF"/>
				<stop  offset="1" style="stop-color:#1C96E0"/>
			</radialGradient>
			<path class="st31" d="M347.5,267.4c0.1,0.1,0.2,0.2,0.4,0.2c0.2,0,0.3-0.1,0.4-0.2c0.1-0.1,0.2-0.2,0.2-0.4
				c0-0.2-0.1-0.3-0.2-0.5c-0.1-0.1-0.3-0.1-0.4-0.1c-0.2,0-0.3,0-0.4,0.1c-0.1,0.1-0.2,0.3-0.2,0.5S347.3,267.3,347.5,267.4z"/>
			
				<radialGradient id="SVGID_31_" cx="225.35" cy="413.55" r="1.75" gradientTransform="matrix(1 0 0 -1 127.1 666.9)" gradientUnits="userSpaceOnUse">
				<stop  offset="0" style="stop-color:#FFFFFF"/>
				<stop  offset="1" style="stop-color:#1C96E0"/>
			</radialGradient>
			<path class="st32" d="M353,253.4c0-0.2-0.1-0.3-0.2-0.4c-0.1-0.1-0.3-0.1-0.4-0.1c-0.2,0-0.3,0.1-0.4,0.1
				c-0.1,0.1-0.2,0.3-0.2,0.4c0,0.2,0.1,0.3,0.2,0.4c0.1,0.1,0.2,0.2,0.4,0.2c0.2,0,0.3-0.1,0.4-0.2
				C352.9,253.8,353,253.6,353,253.4z"/>
			
				<radialGradient id="SVGID_32_" cx="225.35" cy="413.55" r="1.75" gradientTransform="matrix(1 0 0 -1 134.1 654.05)" gradientUnits="userSpaceOnUse">
				<stop  offset="0" style="stop-color:#FFFFFF"/>
				<stop  offset="1" style="stop-color:#1C96E0"/>
			</radialGradient>
			<path class="st33" d="M359.4,240c-0.2,0-0.3,0.1-0.4,0.1c-0.1,0.1-0.2,0.3-0.2,0.5c0,0.2,0.1,0.3,0.2,0.4
				c0.1,0.1,0.2,0.2,0.4,0.2c0.2,0,0.3-0.1,0.4-0.2c0.1-0.1,0.2-0.2,0.2-0.4c0-0.2-0.1-0.3-0.2-0.5C359.7,240.1,359.5,240,359.4,240
				z"/>
			
				<radialGradient id="SVGID_33_" cx="225.35" cy="413.55" r="3.9375" gradientTransform="matrix(1 0 0 -1 108.35 655.55)" gradientUnits="userSpaceOnUse">
				<stop  offset="0" style="stop-color:#FFFFFF"/>
				<stop  offset="1" style="stop-color:#1C96E0"/>
			</radialGradient>
			<path class="st34" d="M335,242.3c0-0.4-0.1-0.7-0.4-0.9c-0.3-0.3-0.6-0.4-0.9-0.4c-0.4,0-0.7,0.1-1,0.4c-0.3,0.3-0.4,0.6-0.4,0.9
				s0.1,0.7,0.4,0.9c0.3,0.3,0.6,0.4,1,0.4c0.4,0,0.7-0.1,0.9-0.4C334.8,242.9,335,242.6,335,242.3z"/>
			
				<radialGradient id="SVGID_34_" cx="225.35" cy="413.55" r="3.9375" gradientTransform="matrix(1 0 0 -1 202.15 654.95)" gradientUnits="userSpaceOnUse">
				<stop  offset="0" style="stop-color:#FFFFFF"/>
				<stop  offset="1" style="stop-color:#1C96E0"/>
			</radialGradient>
			<path class="st35" d="M427.4,243c0.4,0,0.7-0.1,1-0.4c0.3-0.3,0.4-0.6,0.4-1s-0.1-0.7-0.4-0.9c-0.3-0.3-0.6-0.4-1-0.4
				c-0.4,0-0.7,0.1-0.9,0.4c-0.3,0.3-0.4,0.6-0.4,0.9c0,0.4,0.1,0.7,0.4,1C426.7,242.9,427,243,427.4,243z"/>
			
				<radialGradient id="SVGID_35_" cx="225.35" cy="413.55" r="1.75" gradientTransform="matrix(1 0 0 -1 209.75 643.75)" gradientUnits="userSpaceOnUse">
				<stop  offset="0" style="stop-color:#FFFFFF"/>
				<stop  offset="1" style="stop-color:#1C96E0"/>
			</radialGradient>
			<path class="st36" d="M435.5,230.7c0.1-0.1,0.1-0.2,0.1-0.4c0-0.2,0-0.3-0.1-0.4c-0.1-0.1-0.3-0.2-0.5-0.2s-0.3,0.1-0.4,0.2
				c-0.1,0.1-0.2,0.3-0.2,0.4c0,0.2,0.1,0.3,0.2,0.4c0.1,0.1,0.2,0.2,0.4,0.2C435.2,230.9,435.3,230.8,435.5,230.7z"/>
			
				<radialGradient id="SVGID_36_" cx="225.35" cy="413.55" r="1.75" gradientTransform="matrix(1 0 0 -1 200.2 632.1)" gradientUnits="userSpaceOnUse">
				<stop  offset="0" style="stop-color:#FFFFFF"/>
				<stop  offset="1" style="stop-color:#1C96E0"/>
			</radialGradient>
			<path class="st37" d="M425.9,218.2c-0.1-0.1-0.3-0.1-0.4-0.1c-0.2,0-0.3,0-0.4,0.1c-0.1,0.1-0.2,0.3-0.2,0.4
				c0,0.2,0.1,0.3,0.2,0.4c0.1,0.1,0.2,0.2,0.4,0.2c0.2,0,0.3-0.1,0.4-0.2c0.1-0.1,0.1-0.2,0.1-0.4C426,218.5,426,218.3,425.9,218.2
				z"/>
			
				<radialGradient id="SVGID_37_" cx="225.35" cy="413.55" r="1.75" gradientTransform="matrix(1 0 0 -1 202.1 621.25)" gradientUnits="userSpaceOnUse">
				<stop  offset="0" style="stop-color:#FFFFFF"/>
				<stop  offset="1" style="stop-color:#1C96E0"/>
			</radialGradient>
			<path class="st38" d="M427.8,208.2c0.1-0.1,0.2-0.2,0.2-0.4c0-0.2-0.1-0.3-0.2-0.4c-0.1-0.1-0.3-0.2-0.4-0.2
				c-0.2,0-0.3,0.1-0.4,0.2c-0.1,0.1-0.2,0.3-0.2,0.4c0,0.2,0.1,0.3,0.2,0.4c0.1,0.1,0.2,0.2,0.4,0.2
				C427.5,208.4,427.7,208.3,427.8,208.2z"/>
			
				<radialGradient id="SVGID_38_" cx="225.35" cy="413.55" r="3.9375" gradientTransform="matrix(1 0 0 -1 205.05 613.6)" gradientUnits="userSpaceOnUse">
				<stop  offset="0" style="stop-color:#FFFFFF"/>
				<stop  offset="1" style="stop-color:#1C96E0"/>
			</radialGradient>
			<path class="st39" d="M431.3,201.3c0.3-0.3,0.4-0.6,0.4-0.9s-0.1-0.7-0.4-0.9c-0.3-0.3-0.6-0.4-1-0.4c-0.4,0-0.7,0.1-0.9,0.4
				c-0.3,0.3-0.4,0.6-0.4,0.9c0,0.4,0.1,0.7,0.4,0.9s0.6,0.4,0.9,0.4C430.7,201.6,431,201.5,431.3,201.3z"/>
		</g>
	</g>
</g>
</svg>
