<?xml version="1.0" encoding="utf-8"?>
<!-- Generator: Adobe Illustrator 24.2.1, SVG Export Plug-In . SVG Version: 6.00 Build 0)  -->
<svg version="1.1" id="白羊座" xmlns="http://www.w3.org/2000/svg" xmlns:xlink="http://www.w3.org/1999/xlink" x="0px" y="0px"
	 viewBox="0 0 550 400" style="enable-background:new 0 0 550 400;" xml:space="preserve">
<style type="text/css">
	.st0{stroke:#000000;stroke-miterlimit:10;}
	.st1{fill:url(#SVGID_1_);}
	.st2{fill:url(#SVGID_2_);}
	.st3{fill:url(#SVGID_3_);}
	.st4{fill:url(#SVGID_4_);}
	.st5{fill:url(#SVGID_5_);}
	.st6{fill:#9BF0F3;}
	.st7{fill:url(#SVGID_6_);}
	.st8{fill:none;stroke:#9BF0F3;stroke-linecap:round;stroke-linejoin:round;}
	.st9{fill:url(#SVGID_7_);}
	.st10{fill:url(#SVGID_8_);}
	.st11{fill:url(#SVGID_9_);}
	.st12{fill:url(#SVGID_10_);}
	.st13{fill:url(#SVGID_11_);}
	.st14{fill:url(#SVGID_12_);}
	.st15{fill:url(#SVGID_13_);}
	.st16{fill:url(#SVGID_14_);}
	.st17{fill:url(#SVGID_15_);}
	.st18{fill:url(#SVGID_16_);}
	.st19{fill:url(#SVGID_17_);}
	.st20{fill:url(#SVGID_18_);}
	.st21{fill:url(#SVGID_19_);}
	.st22{fill:url(#SVGID_20_);}
	.st23{fill:url(#SVGID_21_);}
	.st24{fill:url(#SVGID_22_);}
	.st25{fill:url(#SVGID_23_);}
	.st26{fill:url(#SVGID_24_);}
	.st27{fill:url(#SVGID_25_);}
	.st28{fill:url(#SVGID_26_);}
	.st29{fill:url(#SVGID_27_);}
	.st30{fill:url(#SVGID_28_);}
	.st31{fill:url(#SVGID_29_);}
	.st32{fill:url(#SVGID_30_);}
	.st33{fill:url(#SVGID_31_);}
	.st34{fill:url(#SVGID_32_);}
	.st35{fill:url(#SVGID_33_);}
	.st36{fill:url(#SVGID_34_);}
	.st37{fill:url(#SVGID_35_);}
	.st38{fill:url(#SVGID_36_);}
	.st39{fill:url(#SVGID_37_);}
	.st40{fill:url(#SVGID_38_);}
	.st41{fill:url(#SVGID_39_);}
	.st42{fill:url(#SVGID_40_);}
	.st43{fill:url(#SVGID_41_);}
	.st44{fill:url(#SVGID_42_);}
	.st45{fill:url(#SVGID_43_);}
	.st46{fill:url(#SVGID_44_);}
	.st47{fill:url(#SVGID_45_);}
	.st48{fill:url(#SVGID_46_);}
	.st49{fill:url(#SVGID_47_);}
	.st50{fill:url(#SVGID_48_);}
	.st51{fill:url(#SVGID_49_);}
	.st52{fill:url(#SVGID_50_);}
	.st53{fill:url(#SVGID_51_);}
	.st54{fill:url(#SVGID_52_);}
	.st55{fill:url(#SVGID_53_);}
	.st56{fill:url(#SVGID_54_);}
	.st57{fill:url(#SVGID_55_);}
	.st58{fill:url(#SVGID_56_);}
	.st59{fill:url(#SVGID_57_);}
	.st60{fill:url(#SVGID_58_);}
	.st61{fill:url(#SVGID_59_);}
	.st62{fill:url(#SVGID_60_);}
	.st63{fill:url(#SVGID_61_);}
	.st64{fill:url(#SVGID_62_);}
	.st65{fill:url(#SVGID_63_);}
	.st66{fill:url(#SVGID_64_);}
	.st67{fill:url(#SVGID_65_);}
	.st68{fill:url(#SVGID_66_);}
	.st69{fill:url(#SVGID_67_);}
	.st70{fill:url(#SVGID_68_);}
	.st71{fill:url(#SVGID_69_);}
	.st72{fill:url(#SVGID_70_);}
	.st73{fill:url(#SVGID_71_);}
	.st74{fill:url(#SVGID_72_);}
	.st75{fill:url(#SVGID_73_);}
	.st76{fill:url(#SVGID_74_);}
	.st77{fill:url(#SVGID_75_);}
	.st78{fill:url(#SVGID_76_);}
	.st79{fill:url(#SVGID_77_);}
	.st80{fill:url(#SVGID_78_);}
	.st81{fill:url(#SVGID_79_);}
	.st82{fill:url(#SVGID_80_);}
	.st83{fill:url(#SVGID_81_);}
	.st84{fill:url(#SVGID_82_);}
	.st85{fill:url(#SVGID_83_);}
	.st86{fill:url(#SVGID_84_);}
	.st87{fill:url(#SVGID_85_);}
	.st88{fill:url(#SVGID_86_);}
	.st89{fill:url(#SVGID_87_);}
	.st90{fill:url(#SVGID_88_);}
	.st91{fill:url(#SVGID_89_);}
	.st92{fill:url(#SVGID_90_);}
	.st93{fill:url(#SVGID_91_);}
	.st94{fill:url(#SVGID_92_);}
	.st95{fill:url(#SVGID_93_);}
	.st96{fill:url(#SVGID_94_);}
</style>
<rect id="bg" class="st0" width="550" height="400"/>
<g id="白羊">
	<g>
		<g>
			<g>
				
					<radialGradient id="SVGID_1_" cx="148.6486" cy="303.8799" r="118.725" gradientTransform="matrix(1 0 0 -1 44.5551 548.3622)" gradientUnits="userSpaceOnUse">
					<stop  offset="0.102" style="stop-color:#111C2E"/>
					<stop  offset="0.1922" style="stop-color:#16314F"/>
					<stop  offset="0.4" style="stop-color:#1F6FC7"/>
					<stop  offset="0.5255" style="stop-color:#4BE4F1"/>
					<stop  offset="0.651" style="stop-color:#4EF3F7"/>
					<stop  offset="0.9608" style="stop-color:#205CE0"/>
					<stop  offset="1" style="stop-color:#205CE0"/>
				</radialGradient>
				<path class="st1" d="M191.6,276.2c0,1.3,2.4,3.2,7.2,5.6c2.5,1.3,5.4,2.8,8.8,4.5c1.9,1.3,4.5,3.5,7.6,6.6
					c1.5,1.5,2.9,2.9,4.1,4.2c0.3,0,0.7-0.2,1.2-0.5c0.6-0.4,1-0.7,1.1-0.8h0.5c-0.8,2-0.4,3.7,1.1,4.9c0.5,0.4,2.1,1.2,4.6,2.4
					c0.7,0.3,2.3,1,4.7,2.1c0.2,0.1,0.4,0.2,0.6,0.3v-3.4c-1-4.2-2.2-7.3-3.5-9.4c-1.6-2.6-3.5-4.5-5.6-5.6c-2.1-1.1-3.7-2-4.8-2.8
					c-1-0.8-2.1-1.6-3.1-2.6s-2.3-2.5-4.1-4.4c-1.5-1.7-2.3-2.5-2.3-2.6c0-1.4,2-4.5,5.9-9.3c3.9-4.7,5.8-8,5.8-10
					c0-0.7-0.1-1.6-0.4-2.6c-1.7,3.5-3.4,6.2-5.1,8.3c-3.1,3.8-7.2,7-12.3,9.6c-4.1,2.1-8.1,3.3-11.9,3.8
					C191.8,274.9,191.7,275.5,191.6,276.2z"/>
				<path d="M183.4,232.8c0-0.1,0-0.1,0-0.2l-0.4,0.1C183.1,232.8,183.2,232.8,183.4,232.8 M320,211C320,211,320,211,320,211h-0.1
					C319.9,211,319.9,211,320,211 M313.1,214.9L313.1,214.9l0.1-0.3C313.2,214.7,313.1,214.8,313.1,214.9 M360.6,184.9
					c-0.1,0-0.1,0-0.2,0.1l0.3,0.1L360.6,184.9L360.6,184.9z"/>
				
					<radialGradient id="SVGID_2_" cx="148.6486" cy="303.8799" r="102.2125" fx="151.8553" fy="303.8799" gradientTransform="matrix(1 0 0 -1 40.5051 532.8622)" gradientUnits="userSpaceOnUse">
					<stop  offset="0.102" style="stop-color:#111C2E"/>
					<stop  offset="0.1922" style="stop-color:#16314F"/>
					<stop  offset="0.4" style="stop-color:#1F6FC7"/>
					<stop  offset="0.6588" style="stop-color:#4BE4F1"/>
					<stop  offset="0.7843" style="stop-color:#4EF3F7"/>
					<stop  offset="0.9608" style="stop-color:#205CE0"/>
					<stop  offset="1" style="stop-color:#205CE0"/>
				</radialGradient>
				<path class="st2" d="M161.6,189.5c-1.4,0-2.1,1.9-2.1,5.6c0,2.7-0.4,4.7-1.4,6.3c-0.7,1.5-1.1,3.1-1.3,4.9
					c0,0.4,0.1,3.1,0.3,8.1c0,1.1,0.5,2.2,1.5,3.4c1,1.2,1.5,1.9,1.5,2.1c0,0.7-0.3,1.4-1,2c-0.7,0.6-1,1.3-1,1.9
					c0,1.5,1.6,2.6,4.9,3.4c2.6,0.6,4.5,0.9,5.8,0.7c-0.1,0.2-0.3,0.6-0.7,1.1c-0.4,0.5-0.6,0.8-0.6,1c0,0.8,1.3,1.5,3.8,2.1
					c2,0.5,3.6,0.8,4.7,0.8c0.6,0,1.2-0.1,1.8-0.4c0.7-0.3,1.3-0.4,2-0.4c0.2,0,1.2,0.2,3.1,0.6l0.4-0.1c-0.1-1.2-0.2-2.3-0.2-3.3
					c0-2.6,1-5.8,3-9.5c-2.2,0-4-0.2-5.5-0.6c-1.8-0.4-3.4-1.2-4.7-2.2c0.4-1.2,0.3-2-0.5-2.4c-1-0.5-1.5-1.1-1.5-1.8
					c0-0.8-0.1-1.8-0.3-3l-0.5-3c-0.3-2.4-0.8-4.1-1.5-5.1c-1-1.4-1.8-2.7-2.2-3.9c-0.6-1.7-1.6-3.5-3.2-5.4
					C164.6,190.5,163,189.6,161.6,189.5z"/>
				
					<radialGradient id="SVGID_3_" cx="148.6486" cy="303.8799" r="81.8875" gradientTransform="matrix(1 0 0 -1 177.5051 526.3622)" gradientUnits="userSpaceOnUse">
					<stop  offset="0.102" style="stop-color:#111C2E"/>
					<stop  offset="0.1922" style="stop-color:#16314F"/>
					<stop  offset="0.4" style="stop-color:#1F6FC7"/>
					<stop  offset="0.5255" style="stop-color:#4BE4F1"/>
					<stop  offset="0.651" style="stop-color:#4EF3F7"/>
					<stop  offset="0.9608" style="stop-color:#205CE0"/>
					<stop  offset="1" style="stop-color:#205CE0"/>
				</radialGradient>
				<path class="st3" d="M339.8,232.8c-2.8-1.7-5.3-3.1-7.5-4.3c-3.6,0.9-8.5,1.8-14.8,2.6c-1.1,0.1-2.6,0.3-4.6,0.6
					c0.7,0.2,1.6,0.4,2.7,0.7c2.8,0.8,4.3,1.7,4.3,2.6c0,0.8-4.2,3.2-12.5,7c-5.6,2-8.5,4.3-8.9,6.9c-0.9-0.1-1.5-0.2-1.6-0.2
					c-2.8,0-4.8,0.3-6,0.9c-1.6,0.8-3.7,2.7-6.2,5.7c1.2,0.2,2.7,0.5,4.5,0.9c2.5,0.5,4.5,0.8,5.9,0.8c3.1,0,5.4-0.1,6.9-0.4
					c2.3-0.3,4.5-1,6.5-2.1c1.9-1,3.5-2.4,4.8-4.3c0.3-0.4,1.1-0.7,2.4-1.1c1.6-0.5,2.6-0.8,3.1-1.1c2-1.1,6.3-3,12.8-5.8
					c5.6-2.8,8.4-5.5,8.4-8.1C339.9,233.6,339.9,233.2,339.8,232.8z"/>
				
					<radialGradient id="SVGID_4_" cx="148.6486" cy="303.8799" r="252.6375" fx="156.5745" fy="303.8799" gradientTransform="matrix(1 0 0 -1 166.5051 503.3622)" gradientUnits="userSpaceOnUse">
					<stop  offset="0.102" style="stop-color:#111C2E"/>
					<stop  offset="0.1922" style="stop-color:#16314F"/>
					<stop  offset="0.4" style="stop-color:#1F6FC7"/>
					<stop  offset="0.6588" style="stop-color:#4BE4F1"/>
					<stop  offset="0.7843" style="stop-color:#4EF3F7"/>
					<stop  offset="0.9608" style="stop-color:#205CE0"/>
					<stop  offset="1" style="stop-color:#205CE0"/>
				</radialGradient>
				<path class="st4" d="M345.3,217c-1.3-1.6-4-2.4-8.3-2.4c-5.9,0.3-10.9,0.5-14.9,0.5c-0.1,0-0.1,0-0.3,0c0-0.1-0.5-0.2-1.4-0.3
					c-0.7,0-1.7,0-3,0c-1.8,0-3.3,0-4.4,0h-0.1c-1.2,0-2,0-2.4,0c0.5,0,1.3,0,2.4,0c0-0.1,0-0.2,0.1-0.3v-0.1c0-0.8-0.3-1.5-1-2.3
					c-0.8-0.9-1.3-1.8-1.5-2.6c-0.1-0.4-0.3-1.4-0.5-3.1c-0.2-1.4-0.4-2.5-0.8-3.2c-1.3-2.5-2.6-4.5-3.8-6c-1.8-2.2-3.9-4.2-6.4-6
					c2.5,1.8,4.7,3.8,6.4,6c1.2,1.5,2.5,3.5,3.8,6c0.4,0.7,0.6,1.8,0.8,3.2c0.2,1.7,0.4,2.7,0.5,3.1c0.2,0.8,0.7,1.7,1.5,2.6
					c0.6,0.7,1,1.5,1,2.3v0.1v0.3c1.1,0,2.6,0,4.4,0c1.3,0,2.3,0,3,0c0.9,0,1.4,0.1,1.4,0.3c0.1,0,0.2,0,0.3,0
					c0.4-0.4,0.9-0.9,1.3-1.6c0.5-0.7,0.9-1.3,1.2-1.8c-0.4,0.1-0.9,0.1-1.3,0.1c0,0-0.1,0-0.1,0c-1.3,0-2.3-0.2-3-0.6
					c-0.1-0.1-0.2-0.1-0.3-0.2H320c-0.1,0-0.1,0-0.1,0c-2.2-0.3-3.7-1.7-4.5-4.1c-0.8-2.2-0.9-4.9-0.4-8.1c0.5-3.4,0.1-6.2-1.4-8.4
					c-1.6-2.4-2.4-4.4-2.4-6.1c0-0.8,0.2-2,0.6-3.7c0.4-1.7,0.8-2.8,1.2-3.1c1.8-5,4.1-9,7-12.2c-2.1-4-3-8.4-2.7-13.3
					c0.1-2,0.5-3.8,1-5.6c-2.5-0.6-4.5-0.9-5.8-0.9c-0.6,0-1.1,0.2-1.5,0.5c0.1,0.1,0.5,0.6,1.1,1.3c0,0,0.1,0.1,0.1,0.1
					c0.5,0.6,0.8,0.9,1.1,1.1c-0.2-0.2-0.6-0.5-1.1-1.1c0-0.1-0.1-0.1-0.1-0.1c-2.3-0.1-4.2-0.2-5.8-0.3c-4.3-0.1-6.5,0.4-6.6,1.5
					c-0.1,0.5,0.4,0.9,1.3,1.3c0.2,0.1,0.4,0.1,0.6,0.2c0.2,0.1,1.3,0.3,3.4,0.8c-2.1-0.5-3.2-0.7-3.4-0.8c-0.2-0.1-0.5-0.1-0.6-0.2
					c-9.5,0.7-17.5,3.5-23.9,8.3c-2.5,1.9-6,5.1-10.5,9.8c-4.5,4.6-8.3,8.1-11.4,10.4c-6.7,5.1-15.4,9.6-26,13.5
					c-8.3,3-15.4,5.9-21.4,8.7c-3.3,1.2-6.8,2.9-10.6,5.1c-2.2,1.3-5,4.6-8.4,9.8c-1,1.6-1.9,3.1-2.6,4.5c-2,3.7-3,6.9-3,9.5
					c0,1.1,0.1,2.2,0.2,3.3c0,0,0,0.1,0,0.2c0.3,2.3,1,4.8,2,7.5c0.8,2.3,2.2,5.5,4.2,9.8c0.1-0.7,0.1-1.3,0.1-2c0,0.7,0,1.4-0.1,2
					c-0.4,4.2-1.9,7.3-4.6,9.2c-1,0.7-2.6,1.5-4.7,2.4c-2.7,1.1-4.5,1.9-5.4,2.4c-2.2,1.2-3.8,3.8-4.7,7.8c-0.4,1.8-0.9,4.4-1.5,7.8
					c-0.1,0.3-0.1,0.6-0.1,0.9c-0.5,1.3-1.6,3.8-3.2,7.5c-2,4.9-3,7.8-3,8.9c0,0.5,0,1.1,0,1.8c-1,0.7-1.8,1.4-2.4,2.1
					c-2,2-3.1,3.8-3.1,5.4c0,1.5,0.2,3.8,0.7,7c0,0.3,0.1,0.7,0.1,1c1-0.6,1.7-0.9,2-1.1c2-1,3.9-2.2,5.9-3.5
					c2.6-1.8,4.4-3.4,5.5-4.9c0.7-0.9,1.5-2.8,2.3-5.9c0.9-3.5,1.5-5.7,2-6.6c4.1-8,6.3-12.1,6.6-12.5c1.2-1.9,2.5-3.6,3.9-5.1
					c0.9,0.1,1.9,0.1,2.9,0.1s2,0,3.1-0.1c3.9-0.4,7.8-1.7,11.9-3.8c5.1-2.6,9.2-5.8,12.3-9.6c1.7-2.1,3.4-4.9,5.1-8.3
					c1-2,1.9-4.2,2.9-6.6c0.2-0.5,0.4-1.1,0.7-1.6c0.3-0.8,0.7-1.6,1-2.3c-0.3,0.7-0.7,1.4-1,2.3c2-0.8,4.6-1.1,7.6-0.9
					c2.3,0.2,6.8,0.3,13.5,0.3c6.7,0,11.1-0.2,13.4-0.5c2-0.3,7-1.3,14.9-3c4.6-0.9,8.8-2,12.6-3.5c2.9-1.1,5.3-2.3,7-3.6
					c-0.7-0.3-1.4-0.7-2.3-1.2c-1.3-0.7-2.4-1.3-3.3-1.9c-0.1,1.2-0.2,2-0.4,2.4c-2.2-0.9-4.3-2.7-6.1-5.3c-1.8-2.5-3.6-6-5.4-10.4
					c1.8,4.5,3.5,7.9,5.4,10.4c1.9,2.6,3.9,4.4,6.1,5.3c0.2-0.3,0.3-1.1,0.4-2.4l0-0.1c-1.2-0.8-2-1.5-2.3-2.1
					c0.3,0.6,1.1,1.3,2.3,2.1l0,0.1c0.9,0.6,1.9,1.2,3.3,1.9c0.8,0.4,1.6,0.8,2.3,1.2c1.8,0.9,3.1,1.3,3.8,1.3c0.8,0,1.4-0.3,1.8-1
					c0.1-0.2,0.2-0.4,0.3-0.7c-0.5,0-1,0.1-1.5,0.2c0.5-0.1,1-0.1,1.5-0.2c5.6-0.6,10.1-1,13.3-1.3c2-0.2,3.5-0.4,4.6-0.6
					c6.3-0.8,11.2-1.6,14.8-2.6c2.2,1.2,4.7,2.6,7.5,4.3c2,1.2,4.1,2.4,6.4,3.8c4.1,2.6,7.9,4.3,11.2,5.3c0,0.2-0.3,0.9-0.9,2.3
					c-0.1,1.9,2.7,3.7,8.4,5.5c2.3,0.7,5,1.4,8.1,2c-1.3-5.4-4-10.2-8.1-14.3c-5.1-4.4-9.5-8.5-13.3-12.2c-0.9-0.9-1.7-1.7-2.4-2.5
					c-0.6-0.8-1.2-1.6-1.7-2.3C346.2,218.2,345.4,217.1,345.3,217 M306.9,186.6c0,2.1,0.9,4.4,2.4,6.8c0.8,1.2,1.9,2.6,3.2,4.1
					c-1.3-1.5-2.4-2.9-3.2-4.1C307.8,191,306.9,188.7,306.9,186.6 M351.5,163.4c1.2-1.4,1.9-2.9,1.9-4.8c0-1.4-0.4-2.8-1.3-4
					c-1.1-1.6-2.6-2.4-4.5-2.4c-1.5,0-2.8,0.4-4,1.3c-1.4,1-2.1,2.4-2.1,4.1c0,2.1,0.6,3.7,1.9,4.7c1.2,0.9,2.9,1.4,5.3,1.4
					C349.5,163.8,350.5,163.7,351.5,163.4z"/>
				
					<radialGradient id="SVGID_5_" cx="148.6486" cy="242.9174" r="169" gradientTransform="matrix(1 0 0 -0.6119 181.5051 310.6255)" gradientUnits="userSpaceOnUse">
					<stop  offset="0.102" style="stop-color:#111C2E"/>
					<stop  offset="0.1922" style="stop-color:#16314F"/>
					<stop  offset="0.4" style="stop-color:#1F6FC7"/>
					<stop  offset="0.5255" style="stop-color:#4BE4F1"/>
					<stop  offset="0.651" style="stop-color:#4EF3F7"/>
					<stop  offset="0.9608" style="stop-color:#205CE0"/>
					<stop  offset="1" style="stop-color:#205CE0"/>
				</radialGradient>
				<path class="st5" d="M356.7,179.8c-1-1.5-1.8-2.8-2.5-3.9c-3.7,2-8.1,2.8-13.3,2.6c-7.2-0.4-13-3.1-17.5-8.3
					c-1.4-1.5-2.6-3.2-3.5-4.9c-2.9,3.2-5.2,7.2-7,12.2c-0.3,0.3-0.7,1.4-1.2,3.1c-0.4,1.6-0.6,2.9-0.6,3.7c0,1.7,0.8,3.7,2.4,6.1
					c1.4,2.1,1.9,4.9,1.4,8.4c-0.5,3.2-0.4,5.9,0.4,8.1c0.8,2.4,2.3,3.8,4.5,4.1l0.1-0.1c0-0.1,0-0.1,0-0.1
					c-0.2-0.3-0.1-0.9,0.3-1.7c0.4-1,1-1.7,1.8-2c-0.8,0.4-1.4,1-1.8,2c-0.4,0.8-0.5,1.4-0.3,1.7c0,0.1,0,0.1,0,0.1c0,0,0,0,0,0.1
					h0.1c0.1,0.1,0.2,0.1,0.3,0.2c0.7,0.4,1.7,0.6,3,0.6c0,0,0.1,0,0.1,0c0.4,0,0.8,0,1.3-0.1c2.6-0.5,5.7-2.5,9.4-5.8
					c5.6-5,8.5-7.5,8.6-7.6c2.1-1.2,5.8-2.8,11.3-4.9c4.1-2.1,6.4-4.9,6.7-8.4l-0.3-0.1c-1-1.2-2.2-2.7-3.5-4.6
					C356.9,180.2,356.8,180,356.7,179.8 M341.9,194c1.7-1.8,2-4.7,1-8.7C344,189.3,343.6,192.2,341.9,194c-0.1,0.1-0.1,0.1-0.2,0.3
					c-0.3,0.3-0.6,0.5-0.9,0.8c-3-3-3-5.9,0-8.9C343.5,188.9,343.9,191.5,341.9,194z"/>
				<path class="st6" d="M341.9,194c2-2.5,1.6-5.1-1.1-7.8c-3,3-3,5.9,0,8.9c0.3-0.3,0.6-0.6,0.9-0.8
					C341.8,194.2,341.8,194.1,341.9,194z"/>
				
					<radialGradient id="SVGID_6_" cx="74.2612" cy="239.3116" r="203.8908" fx="74.937" fy="238.8842" gradientTransform="matrix(0.8452 -0.5345 -0.5345 -0.8452 412.7961 499.4353)" gradientUnits="userSpaceOnUse">
					<stop  offset="0.102" style="stop-color:#111C2E"/>
					<stop  offset="0.1922" style="stop-color:#0F2B4F"/>
					<stop  offset="0.4" style="stop-color:#2170C7"/>
					<stop  offset="0.5255" style="stop-color:#4BE4F1"/>
					<stop  offset="0.651" style="stop-color:#4EF3F7"/>
					<stop  offset="0.9608" style="stop-color:#205CE0"/>
					<stop  offset="1" style="stop-color:#205CE0"/>
				</radialGradient>
				<path class="st7" d="M362.7,129.5c-4.3-1.7-9.1-2.6-14.5-2.7c-9.8-0.2-17.3,2.3-22.5,7.3c-3.8,3.6-6.3,7.7-7.5,12.4
					c-0.5,1.8-0.8,3.7-1,5.6c-0.3,4.9,0.6,9.3,2.7,13.3c0.9,1.7,2.1,3.4,3.5,4.9c4.5,5.1,10.4,7.9,17.5,8.3
					c5.1,0.3,9.5-0.6,13.3-2.6c1.5-0.8,2.9-1.8,4.2-2.9c1.1-1,2-2,2.8-3.1c2.6-3.5,4-7.8,4-12.9c0-5.1-1.3-8.8-4-11
					c0.1,1.3,0.2,2.5,0.2,3.5c0,3.9-1.2,7.2-3.5,9.9c-0.7,0.8-1.4,1.5-2.1,2c-1.3,0.9-2.7,1.6-4.3,1.9c-1,0.2-2,0.4-3,0.4
					c-2.3,0-4.1-0.5-5.3-1.4c-1.2-1-1.9-2.6-1.9-4.7c0-1.7,0.7-3.1,2.1-4.1c1.2-0.9,2.5-1.3,4-1.3c1.9,0,3.4,0.8,4.5,2.4
					c0.9,1.2,1.3,2.6,1.3,4c0,1.8-0.6,3.4-1.9,4.8c1.6-0.4,3-1,4.3-1.9c0.8-0.5,1.5-1.2,2.1-2c2.3-2.7,3.5-6,3.5-9.9
					c0-1-0.1-2.2-0.2-3.5c2.7,2.2,4,5.9,4,11c0,5.1-1.3,9.4-4,12.9c-0.8,1.1-1.7,2.1-2.8,3.1c-1.3,1.1-2.7,2.1-4.2,2.9
					c0.7,1.1,1.5,2.4,2.5,3.9c0.1,0.2,0.2,0.3,0.3,0.5c1.3,1.9,2.4,3.5,3.5,4.6c0.1,0,0.1,0,0.2-0.1h0.1c3.2-0.9,6.4-2.7,9.6-5.6
					c1.3-1.2,2.5-2.4,3.5-3.6c1.6-1.9,3-3.8,4.1-5.8c2.4-4.3,3.6-8.8,3.6-13.6c0-8.6-3.1-15.7-9.4-21.1
					C369.4,132.8,366.2,130.9,362.7,129.5z"/>
			</g>
		</g>
		<g>
			<path class="st8" d="M360.7,184.9c3.2-0.9,6.4-2.7,9.6-5.6c1.3-1.2,2.5-2.4,3.5-3.6c1.6-1.9,3-3.8,4.1-5.8
				c2.4-4.3,3.6-8.8,3.6-13.6c0-8.6-3.1-15.7-9.4-21.1c-2.8-2.5-6-4.4-9.6-5.8c-4.3-1.7-9.2-2.6-14.5-2.7
				c-9.8-0.2-17.3,2.3-22.5,7.3c-3.8,3.6-6.3,7.7-7.5,12.4c-0.5,1.8-0.8,3.7-1,5.6c-0.3,4.9,0.6,9.3,2.7,13.3
				c0.9,1.7,2.1,3.4,3.5,4.9c4.5,5.1,10.4,7.9,17.5,8.3c5.1,0.3,9.5-0.6,13.3-2.6c1.5-0.8,2.9-1.8,4.2-2.9c1.1-1,2-2,2.8-3.1
				c2.6-3.5,3.9-7.8,3.9-12.9c0-5.1-1.3-8.8-4-11c0.1,1.3,0.2,2.5,0.2,3.5c0,3.9-1.2,7.2-3.5,9.9c-0.7,0.8-1.4,1.5-2.1,2
				c-1.3,0.9-2.7,1.6-4.3,1.9c-1,0.2-2,0.4-3,0.4c-2.3,0-4.1-0.5-5.3-1.4c-1.2-1-1.9-2.6-1.9-4.7c0-1.7,0.7-3.1,2.1-4.1
				c1.2-0.9,2.5-1.3,4-1.3c1.9,0,3.4,0.8,4.5,2.4c0.9,1.2,1.3,2.6,1.3,4c0,1.8-0.6,3.4-1.9,4.8 M343,185.4c1,3.9,0.6,6.8-1,8.7
				c-0.1,0.1-0.1,0.1-0.2,0.3c-0.3,0.3-0.6,0.5-0.9,0.8c-3-3-3-5.9,0-8.9c2.7,2.7,3.1,5.3,1.1,7.8 M357,180.3
				c1.2,1.9,2.4,3.5,3.4,4.6 M360.6,184.9L360.6,184.9l0,0.1c-0.3,3.5-2.5,6.4-6.7,8.4c-5.5,2.1-9.3,3.7-11.3,4.9
				c-0.1,0.1-3,2.6-8.6,7.6c-3.7,3.3-6.9,5.3-9.4,5.8c-0.3,0.5-0.7,1.1-1.2,1.8c-0.5,0.6-0.9,1.1-1.3,1.6c4,0,9-0.2,14.9-0.5
				c4.2,0,7,0.8,8.3,2.4c0.1,0.2,0.9,1.3,2.2,3.3c0.5,0.8,1.1,1.6,1.7,2.3c0.8,0.8,1.6,1.6,2.4,2.5c3.8,3.7,8.2,7.8,13.3,12.2
				c4.1,4.1,6.8,8.8,8.1,14.3c-3.1-0.6-5.8-1.3-8.1-2c-5.7-1.7-8.5-3.6-8.4-5.5c0.6-1.3,0.9-2.1,0.9-2.3c-3.3-0.9-7.1-2.7-11.2-5.3
				c-2.3-1.4-4.4-2.7-6.4-3.8c0.1,0.4,0.1,0.8,0.1,1.2c0,2.7-2.8,5.4-8.4,8.1c-6.6,2.7-10.8,4.7-12.8,5.8c-0.5,0.3-1.5,0.6-3.1,1.1
				c-1.3,0.4-2.1,0.8-2.4,1.1c-1.2,1.8-2.8,3.2-4.8,4.3c-2,1.1-4.2,1.8-6.5,2.1c-1.5,0.2-3.8,0.4-6.9,0.4c-1.4,0-3.4-0.3-5.9-0.8
				c-1.8-0.4-3.3-0.7-4.5-0.9c2.5-3,4.6-4.9,6.2-5.7c1.2-0.6,3.2-0.9,6-0.9c0.1,0,0.7,0.1,1.6,0.2c0.4-2.6,3.4-4.9,8.9-6.9
				c8.3-3.8,12.5-6.2,12.5-7c0-0.9-1.4-1.7-4.3-2.6c-1.1-0.3-2-0.5-2.7-0.7c-3.2,0.3-7.7,0.8-13.3,1.3c-0.1,0.2-0.2,0.5-0.3,0.7
				c-0.4,0.7-1,1-1.8,1c-0.7,0-2-0.4-3.8-1.3c-1.8,1.3-4.1,2.5-7,3.6c-3.8,1.4-8,2.6-12.6,3.5c-7.9,1.7-12.8,2.7-14.9,3
				c-2.3,0.3-6.7,0.5-13.4,0.5c-6.7,0-11.2-0.1-13.5-0.3c-3-0.2-5.6,0.1-7.6,0.9c-0.2,0.5-0.5,1-0.7,1.6c-1,2.4-1.9,4.6-2.9,6.6
				c0.3,1,0.4,1.9,0.4,2.6c0,2-1.9,5.3-5.8,10c-3.9,4.7-5.9,7.8-5.9,9.3c0,0.1,0.8,0.9,2.3,2.6c1.7,1.9,3.1,3.4,4.1,4.4
				s2,1.9,3.1,2.6c1,0.8,2.6,1.7,4.8,2.8c2.1,1.1,4,3,5.6,5.6c1.3,2.1,2.5,5.3,3.5,9.4v3.4c-0.2-0.1-0.4-0.1-0.6-0.3
				c-2.4-1.1-4-1.8-4.7-2.1c-2.6-1.2-4.1-2-4.6-2.4c-1.5-1.2-1.9-2.9-1.1-4.9h-0.5c-0.1,0.1-0.5,0.3-1.1,0.8
				c-0.5,0.3-0.9,0.5-1.2,0.5c-1.2-1.3-2.6-2.7-4.1-4.2c-3.1-3.1-5.7-5.3-7.6-6.6c-3.4-1.7-6.3-3.2-8.8-4.5
				c-4.8-2.5-7.2-4.3-7.2-5.6c0.1-0.7,0.2-1.3,0.2-1.8c-1,0.1-2.1,0.1-3.1,0.1s-2,0-2.9-0.1c-1.4,1.5-2.7,3.2-3.9,5.1
				c-0.3,0.4-2.4,4.6-6.6,12.5c-0.5,0.9-1.1,3.1-2,6.6c-0.8,3.1-1.5,5-2.3,5.9c-1.1,1.5-3,3.1-5.5,4.9c-2,1.4-3.9,2.5-5.9,3.5
				c-0.3,0.1-1,0.5-2,1.1c-0.1-0.3-0.1-0.6-0.1-1c-0.4-3.2-0.7-5.5-0.7-7c0-1.6,1-3.4,3.1-5.4c0.6-0.6,1.4-1.3,2.4-2.1
				c0-0.6,0-1.2,0-1.8c0-1.1,1-4,3-8.9c1.6-3.6,2.6-6.1,3.2-7.5c0-0.3,0.1-0.6,0.1-0.9c0.6-3.4,1.1-6,1.5-7.8c0.9-4,2.5-6.6,4.7-7.8
				c0.9-0.4,2.7-1.2,5.4-2.4c2.1-0.9,3.7-1.7,4.7-2.4c2.7-1.9,4.2-5,4.6-9.2c-2-4.3-3.4-7.5-4.2-9.8c-1-2.7-1.6-5.2-2-7.5
				c-0.1,0-0.3-0.1-0.4-0.1c-1.9-0.4-2.9-0.6-3.1-0.6c-0.7,0-1.3,0.1-2,0.4c-0.6,0.2-1.2,0.4-1.8,0.4c-1.1,0-2.6-0.2-4.7-0.8
				c-2.5-0.6-3.8-1.3-3.8-2.1c0-0.2,0.2-0.5,0.6-1c0.4-0.5,0.6-0.9,0.7-1.1c-1.3,0.2-3.2-0.1-5.8-0.7c-3.3-0.8-4.9-1.9-4.9-3.4
				c0-0.6,0.3-1.2,1-1.9c0.7-0.7,1-1.3,1-2c0-0.2-0.5-0.9-1.5-2.1c-1-1.2-1.5-2.3-1.5-3.4c-0.2-5-0.3-7.7-0.3-8.1
				c0.2-1.8,0.6-3.4,1.3-4.9c0.9-1.5,1.4-3.6,1.4-6.3c0-3.7,0.7-5.6,2.1-5.6c1.4,0,2.9,1,4.6,2.9c1.6,1.9,2.6,3.7,3.2,5.4
				c0.4,1.3,1.2,2.6,2.2,3.9c0.7,1,1.2,2.6,1.5,5.1l0.5,3c0.2,1.2,0.3,2.2,0.3,3c0,0.7,0.5,1.3,1.5,1.8c0.8,0.4,0.9,1.2,0.5,2.4
				c1.3,1,2.9,1.8,4.7,2.2c1.5,0.4,3.3,0.6,5.5,0.6c0.7-1.4,1.6-2.9,2.6-4.5c3.4-5.2,6.2-8.4,8.4-9.8c3.8-2.2,7.3-3.9,10.6-5.1
				c5.9-2.8,13-5.7,21.4-8.7c10.6-3.9,19.3-8.4,26-13.5c3-2.3,6.8-5.8,11.4-10.4c4.6-4.6,8.1-7.9,10.5-9.8
				c6.4-4.9,14.4-7.6,23.9-8.3c-0.9-0.4-1.3-0.8-1.3-1.3c0.1-1.1,2.3-1.6,6.6-1.5c1.6,0,3.5,0.1,5.8,0.3c-0.6-0.7-1-1.1-1.1-1.3
				c0.4-0.3,0.9-0.5,1.5-0.5c1.3,0,3.2,0.3,5.8,0.9 M312.9,231.6c2-0.2,3.5-0.4,4.6-0.6c6.3-0.8,11.2-1.6,14.8-2.6
				c2.2,1.2,4.7,2.6,7.5,4.3 M313.2,148.6c-0.2-0.2-0.6-0.5-1.1-1.1c0-0.1-0.1-0.1-0.1-0.1 M305,150.8c-2.1-0.5-3.2-0.7-3.4-0.8
				c-0.2-0.1-0.5-0.1-0.6-0.2 M312.9,177.6c-0.3,0.3-0.7,1.4-1.2,3.1c-0.4,1.6-0.6,2.9-0.6,3.7c0,1.7,0.8,3.7,2.4,6.1
				c1.4,2.1,1.9,4.9,1.4,8.4c-0.5,3.2-0.4,5.9,0.4,8.1c0.8,2.4,2.3,3.8,4.5,4.1 M320,211c0-0.1,0-0.1-0.1-0.1
				c-0.2-0.3-0.1-0.9,0.3-1.7c0.4-1,1-1.7,1.8-2 M306.9,186.6c0,2.1,0.9,4.4,2.4,6.8c0.8,1.2,1.9,2.6,3.2,4.1 M299.2,191.3
				c2.5,1.8,4.7,3.8,6.4,6c1.2,1.5,2.5,3.5,3.8,6c0.4,0.7,0.6,1.8,0.8,3.2c0.2,1.7,0.4,2.7,0.5,3.1c0.2,0.8,0.7,1.7,1.5,2.6
				c0.6,0.7,1,1.5,1,2.3v0.1 M313.2,214.9c1.1,0,2.6,0,4.4,0c1.3,0,2.3,0,3,0c0.9,0,1.4,0.1,1.4,0.3c0.1,0,0.2,0,0.3,0 M310.7,214.8
				c0.5,0,1.3,0,2.4,0c0-0.1,0-0.2,0.1-0.3 M313.1,214.9L313.1,214.9 M324.7,211.7c-0.4,0.1-0.9,0.1-1.3,0.1c0,0-0.1,0-0.1,0
				c-1.3,0-2.3-0.2-3-0.6c-0.1-0.1-0.2-0.1-0.3-0.2H320c-0.1,0-0.1,0-0.1,0 M320,211C320,211,320,211,320,211 M298.1,233.1
				c0.5-0.1,1-0.1,1.5-0.2 M276.4,216.8c1.8,4.5,3.5,7.9,5.4,10.4c1.9,2.6,3.9,4.4,6.1,5.3c0.2-0.3,0.3-1.1,0.4-2.4l0-0.1
				c-1.2-0.8-2-1.5-2.3-2.1 M288.2,230.2c0.9,0.6,1.9,1.2,3.3,1.9c0.8,0.4,1.6,0.8,2.3,1.2 M224.8,244.5c0.3-0.8,0.7-1.6,1-2.3
				 M183.4,232.8c0-0.1,0-0.1,0-0.2c-0.2-1.2-0.2-2.3-0.2-3.3c0-2.6,1-5.8,3-9.5 M189.6,248.1c0,0.7,0,1.4-0.1,2 M191.8,274.4
				c3.9-0.4,7.8-1.7,11.9-3.8c5.1-2.6,9.2-5.8,12.3-9.6c1.7-2.1,3.4-4.9,5.1-8.3"/>
		</g>
	</g>
</g>
<g id="腿渐变">
	<g>
		<g>
			<g>
				
					<radialGradient id="SVGID_7_" cx="148.6486" cy="303.8799" r="134.2" fx="152.8588" fy="303.8799" gradientTransform="matrix(1 0 0 -1 9.0051 617.9622)" gradientUnits="userSpaceOnUse">
					<stop  offset="0.102" style="stop-color:#111C2E"/>
					<stop  offset="0.1922" style="stop-color:#16314F"/>
					<stop  offset="0.3529" style="stop-color:#1F6FC7"/>
					<stop  offset="0.8471" style="stop-color:#4ADFF2;stop-opacity:0"/>
					<stop  offset="1" style="stop-color:#1F56E0;stop-opacity:0"/>
				</radialGradient>
				<path class="st9" d="M345.3,217c-1.3-1.6-4-2.4-8.3-2.4c-5.9,0.3-10.9,0.5-14.9,0.5c-0.1,0-0.1,0-0.3,0c0-0.1-0.5-0.2-1.4-0.3
					c-0.7,0-1.7,0-3,0c-1.8,0-3.3,0-4.4,0h-0.1c-1.2,0-2,0-2.4,0c0.5,0,1.3,0,2.4,0c0-0.1,0-0.2,0.1-0.3v-0.1c0-0.8-0.3-1.5-1-2.3
					c-0.8-0.9-1.3-1.8-1.5-2.6c-0.1-0.4-0.3-1.4-0.5-3.1c-0.2-1.4-0.4-2.5-0.8-3.2c-1.3-2.5-2.6-4.5-3.8-6c-1.8-2.2-3.9-4.2-6.4-6
					c2.5,1.8,4.7,3.8,6.4,6c1.2,1.5,2.5,3.5,3.8,6c0.4,0.7,0.6,1.8,0.8,3.2c0.2,1.7,0.4,2.7,0.5,3.1c0.2,0.8,0.7,1.7,1.5,2.6
					c0.6,0.7,1,1.5,1,2.3v0.1v0.3c1.1,0,2.6,0,4.4,0c1.3,0,2.3,0,3,0c0.9,0,1.4,0.1,1.4,0.3c0.1,0,0.2,0,0.3,0
					c0.4-0.4,0.9-0.9,1.3-1.6c0.5-0.7,0.9-1.3,1.2-1.8c-0.4,0.1-0.9,0.1-1.3,0.1c0,0-0.1,0-0.1,0c-1.3,0-2.3-0.2-3-0.6
					c-0.1-0.1-0.2-0.1-0.3-0.2H320c-0.1,0-0.1,0-0.1,0c-2.2-0.3-3.7-1.7-4.5-4.1c-0.8-2.2-0.9-4.9-0.4-8.1c0.5-3.4,0.1-6.2-1.4-8.4
					c-1.1-1.7-1.8-3.2-2.2-4.5h-43.7v-19.3c-0.4,0.4-0.8,0.8-1.2,1.2c-4.5,4.6-8.3,8.1-11.4,10.4c-6.7,5.1-15.4,9.6-26,13.5
					c-8.3,3-15.4,5.9-21.4,8.7c-3.3,1.2-6.8,2.9-10.6,5.1c-2.2,1.3-5,4.6-8.4,9.8c-1,1.6-1.9,3.1-2.6,4.5c-2,3.7-3,6.9-3,9.5
					c0,1.1,0.1,2.2,0.2,3.3c0,0,0,0.1,0,0.2c0.3,2.3,1,4.8,2,7.5c0.8,2.3,2.2,5.5,4.2,9.8c0.1-0.7,0.1-1.3,0.1-2c0,0.7,0,1.4-0.1,2
					c-0.4,4.2-1.9,7.3-4.6,9.2c-1,0.7-2.6,1.5-4.7,2.4c-2.7,1.1-4.5,1.9-5.4,2.4c-2.2,1.2-3.8,3.8-4.7,7.8c-0.4,1.8-0.9,4.4-1.5,7.8
					c-0.1,0.3-0.1,0.6-0.1,0.9c-0.5,1.3-1.6,3.8-3.2,7.5c-2,4.9-3,7.8-3,8.9c0,0.5,0,1.1,0,1.8c-1,0.7-1.8,1.4-2.4,2.1
					c-2,2-3.1,3.8-3.1,5.4c0,1.5,0.2,3.8,0.7,7c0,0.3,0.1,0.7,0.1,1c1-0.6,1.7-0.9,2-1.1c2-1,3.9-2.2,5.9-3.5
					c2.6-1.8,4.4-3.4,5.5-4.9c0.7-0.9,1.5-2.8,2.3-5.9c0.9-3.5,1.5-5.7,2-6.6c4.1-8,6.3-12.1,6.6-12.5c1.2-1.9,2.5-3.6,3.9-5.1
					c0.9,0.1,1.9,0.1,2.9,0.1s2,0,3.1-0.1c3.9-0.4,7.8-1.7,11.9-3.8c5.1-2.6,9.2-5.8,12.3-9.6c1.7-2.1,3.4-4.9,5.1-8.3
					c1-2,1.9-4.2,2.9-6.6c0.2-0.5,0.4-1.1,0.7-1.6c0.3-0.8,0.7-1.6,1-2.3c-0.3,0.7-0.7,1.4-1,2.3c2-0.8,4.6-1.1,7.6-0.9
					c2.3,0.2,6.8,0.3,13.5,0.3c6.7,0,11.1-0.2,13.4-0.5c2-0.3,7-1.3,14.9-3c4.6-0.9,8.8-2,12.6-3.5c2.9-1.1,5.3-2.3,7-3.6
					c-0.7-0.3-1.4-0.7-2.3-1.2c-1.3-0.7-2.4-1.3-3.3-1.9c-0.1,1.2-0.2,2-0.4,2.4c-2.2-0.9-4.3-2.7-6.1-5.3c-1.8-2.5-3.6-6-5.4-10.4
					c1.8,4.5,3.5,7.9,5.4,10.4c1.9,2.6,3.9,4.4,6.1,5.3c0.2-0.3,0.3-1.1,0.4-2.4l0-0.1c-1.2-0.8-2-1.5-2.3-2.1
					c0.3,0.6,1.1,1.3,2.3,2.1l0,0.1c0.9,0.6,1.9,1.2,3.3,1.9c0.8,0.4,1.6,0.8,2.3,1.2c1.8,0.9,3.1,1.3,3.8,1.3c0.8,0,1.4-0.3,1.8-1
					c0.1-0.2,0.2-0.4,0.3-0.7c-0.5,0-1,0.1-1.5,0.2c0.5-0.1,1-0.1,1.5-0.2c5.6-0.6,10.1-1,13.3-1.3c2-0.2,3.5-0.4,4.6-0.6
					c6.3-0.8,11.2-1.6,14.8-2.6c2.2,1.2,4.7,2.6,7.5,4.3c2,1.2,4.1,2.4,6.4,3.8c4.1,2.6,7.9,4.3,11.2,5.3c0,0.2-0.3,0.9-0.9,2.3
					c-0.1,1.9,2.7,3.7,8.4,5.5c2.3,0.7,5,1.4,8.1,2c-1.3-5.4-4-10.2-8.1-14.3c-5.1-4.4-9.5-8.5-13.3-12.2c-0.9-0.9-1.7-1.7-2.4-2.5
					c-0.6-0.8-1.2-1.6-1.7-2.3C346.2,218.2,345.4,217.1,345.3,217 M306.9,186.6c0,2.1,0.9,4.4,2.4,6.8c0.8,1.2,1.9,2.6,3.2,4.1
					c-1.3-1.5-2.4-2.9-3.2-4.1C307.8,191,306.9,188.7,306.9,186.6z"/>
			</g>
		</g>
		<g>
			<path class="st8" d="M299.6,232.9c5.6-0.6,10.1-1,13.3-1.3c2-0.2,3.5-0.4,4.6-0.6c6.3-0.8,11.2-1.6,14.8-2.6
				c2.2,1.2,4.7,2.6,7.5,4.3c2,1.2,4.1,2.4,6.4,3.8c4.1,2.6,7.9,4.3,11.2,5.3c0,0.2-0.3,0.9-0.9,2.3c-0.1,1.9,2.7,3.7,8.4,5.5
				c2.3,0.7,5,1.4,8.1,2c-1.3-5.4-4-10.2-8.1-14.3c-5.1-4.4-9.5-8.5-13.3-12.2c-0.9-0.9-1.7-1.7-2.4-2.5c-0.6-0.8-1.2-1.6-1.7-2.3
				c-1.3-2-2.1-3.1-2.2-3.3c-1.3-1.6-4-2.4-8.3-2.4c-5.9,0.3-10.9,0.5-14.9,0.5c-0.1,0-0.1,0-0.3,0c0-0.1-0.5-0.2-1.4-0.3
				c-0.7,0-1.7,0-3,0c-1.8,0-3.3,0-4.4,0h-0.1c-1.2,0-2,0-2.4,0 M311.4,186c0.3,1.3,1.1,2.8,2.2,4.5c1.4,2.1,1.9,4.9,1.4,8.4
				c-0.5,3.2-0.4,5.9,0.4,8.1c0.8,2.4,2.3,3.8,4.5,4.1c0,0,0.1,0,0.1,0h0.1c0.1,0.1,0.2,0.1,0.3,0.2c0.7,0.4,1.7,0.6,3,0.6
				c0,0,0.1,0,0.1,0c0.4,0,0.8,0,1.3-0.1c-0.3,0.5-0.7,1.1-1.2,1.8c-0.5,0.6-0.9,1.1-1.3,1.6 M299.6,232.9c-0.1,0.2-0.2,0.5-0.3,0.7
				c-0.4,0.7-1,1-1.8,1c-0.7,0-2-0.4-3.8-1.3c-1.8,1.3-4.1,2.5-7,3.6c-3.8,1.4-8,2.6-12.6,3.5c-7.9,1.7-12.8,2.7-14.9,3
				c-2.3,0.3-6.7,0.5-13.4,0.5c-6.7,0-11.2-0.1-13.5-0.3c-3-0.2-5.6,0.1-7.6,0.9c-0.2,0.5-0.5,1-0.7,1.6c-1,2.4-1.9,4.6-2.9,6.6
				c-1.7,3.5-3.4,6.2-5.1,8.3c-3.1,3.8-7.2,7-12.3,9.6c-4.1,2.1-8.1,3.3-11.9,3.8c-1,0.1-2.1,0.1-3.1,0.1s-2,0-2.9-0.1
				c-1.4,1.5-2.7,3.2-3.9,5.1c-0.3,0.4-2.4,4.6-6.6,12.5c-0.5,0.9-1.1,3.1-2,6.6c-0.8,3.1-1.5,5-2.3,5.9c-1.1,1.5-3,3.1-5.5,4.9
				c-2,1.4-3.9,2.5-5.9,3.5c-0.3,0.1-1,0.5-2,1.1c-0.1-0.3-0.1-0.6-0.1-1c-0.4-3.2-0.7-5.5-0.7-7c0-1.6,1-3.4,3.1-5.4
				c0.6-0.6,1.4-1.3,2.4-2.1c0-0.6,0-1.2,0-1.8c0-1.1,1-4,3-8.9c1.6-3.6,2.6-6.1,3.2-7.5c0-0.3,0.1-0.6,0.1-0.9
				c0.6-3.4,1.1-6,1.5-7.8c0.9-4,2.5-6.6,4.7-7.8c0.9-0.4,2.7-1.2,5.4-2.4c2.1-0.9,3.7-1.7,4.7-2.4c2.7-1.9,4.2-5,4.6-9.2
				c-2-4.3-3.4-7.5-4.2-9.8c-1-2.7-1.6-5.2-2-7.5c0-0.1,0-0.1,0-0.2c-0.2-1.2-0.2-2.3-0.2-3.3c0-2.6,1-5.8,3-9.5
				c0.7-1.4,1.6-2.9,2.6-4.5c3.4-5.2,6.2-8.4,8.4-9.8c3.8-2.2,7.3-3.9,10.6-5.1c5.9-2.8,13-5.7,21.4-8.7c10.6-3.9,19.3-8.4,26-13.5
				c3-2.3,6.8-5.8,11.4-10.4c0.4-0.4,0.8-0.8,1.2-1.2 M306.9,186.6c0,2.1,0.9,4.4,2.4,6.8c0.8,1.2,1.9,2.6,3.2,4.1 M299.2,191.3
				c2.5,1.8,4.7,3.8,6.4,6c1.2,1.5,2.5,3.5,3.8,6c0.4,0.7,0.6,1.8,0.8,3.2c0.2,1.7,0.4,2.7,0.5,3.1c0.2,0.8,0.7,1.7,1.5,2.6
				c0.6,0.7,1,1.5,1,2.3v0.1c0,0.1,0,0.3-0.1,0.3 M298.1,233.1c0.5-0.1,1-0.1,1.5-0.2 M276.4,216.8c1.8,4.5,3.5,7.9,5.4,10.4
				c1.9,2.6,3.9,4.4,6.1,5.3c0.2-0.3,0.3-1.1,0.4-2.4l0-0.1c-1.2-0.8-2-1.5-2.3-2.1 M288.2,230.2c0.9,0.6,1.9,1.2,3.3,1.9
				c0.8,0.4,1.6,0.8,2.3,1.2 M224.8,244.5c0.3-0.8,0.7-1.6,1-2.3 M189.6,248.1c0,0.7,0,1.4-0.1,2"/>
		</g>
	</g>
</g>
<g id="星星">
	<g transform="matrix( -0.2572784423828125, -0.2572784423828125, -0.2572784423828125, 0.2572784423828125, 477.45,344.05) ">
		<g>
			<g>
				
					<radialGradient id="SVGID_8_" cx="1545.2225" cy="2159.48" r="10.0125" gradientTransform="matrix(-0.2573 0.2573 -0.2573 -0.2573 1449.9359 234.1314)" gradientUnits="userSpaceOnUse">
					<stop  offset="0" style="stop-color:#FFFFFF"/>
					<stop  offset="1" style="stop-color:#84E3ED"/>
				</radialGradient>
				<path class="st10" d="M490.1,82.2c3.7-2.4,8-2.4,12.8,0c-2.6-4.9-2.6-9.1,0-12.8c-4.4,3.2-8.7,3.2-12.8,0
					C492.5,74,492.5,78.3,490.1,82.2z"/>
			</g>
		</g>
	</g>
	<g id="___1_140_" transform="matrix( 1, 0, 0, 1, 294.95,252.05) ">
		<g transform="matrix( 0.0966949462890625, 0.0966949462890625, -0.0966949462890625, 0.0966949462890625, -38.85,-55.1) ">
			<g>
				<g>
					
						<radialGradient id="SVGID_9_" cx="7674.8779" cy="-2765.9409" r="10.0125" gradientTransform="matrix(9.669495e-02 -9.669495e-02 -9.669495e-02 -9.669495e-02 -504.3416 537.1409)" gradientUnits="userSpaceOnUse">
						<stop  offset="0" style="stop-color:#FFFFFF"/>
						<stop  offset="1" style="stop-color:#84E3ED"/>
					</radialGradient>
					<path class="st11" d="M498.5,68.6c3.7-2.4,8-2.4,12.8,0c-2.6-4.9-2.6-9.1,0-12.8c-4.4,3.2-8.7,3.2-12.8,0
						C501,60.4,501,64.7,498.5,68.6z"/>
				</g>
			</g>
		</g>
	</g>
	<g id="___1_139_" transform="matrix( 1, 0, 0, 1, 250,236.1) ">
		<g transform="matrix( 0.0966949462890625, 0.0966949462890625, -0.0966949462890625, 0.0966949462890625, -38.85,-55.1) ">
			<g>
				<g>
					
						<radialGradient id="SVGID_10_" cx="7989.7856" cy="-2915.897" r="10.0125" gradientTransform="matrix(9.669495e-02 -9.669495e-02 -9.669495e-02 -9.669495e-02 -549.2916 553.0909)" gradientUnits="userSpaceOnUse">
						<stop  offset="0" style="stop-color:#FFFFFF"/>
						<stop  offset="1" style="stop-color:#84E3ED"/>
					</radialGradient>
					<path class="st12" d="M498.5,68.6c3.7-2.4,8-2.4,12.8,0c-2.6-4.9-2.6-9.1,0-12.8c-4.4,3.2-8.7,3.2-12.8,0
						C501,60.4,501,64.7,498.5,68.6z"/>
				</g>
			</g>
		</g>
	</g>
	<g id="___1_138_" transform="matrix( 1, 0, 0, 1, 233.85,229.7) ">
		<g transform="matrix( 0.0966949462890625, 0.0966949462890625, -0.0966949462890625, 0.0966949462890625, -38.85,-55.1) ">
			<g>
				<g>
					
						<radialGradient id="SVGID_11_" cx="8106.3896" cy="-2966.3132" r="10.0125" gradientTransform="matrix(9.669495e-02 -9.669495e-02 -9.669495e-02 -9.669495e-02 -565.4416 559.4909)" gradientUnits="userSpaceOnUse">
						<stop  offset="0" style="stop-color:#FFFFFF"/>
						<stop  offset="1" style="stop-color:#84E3ED"/>
					</radialGradient>
					<path class="st13" d="M498.5,68.6c3.7-2.4,8-2.4,12.8,0c-2.6-4.9-2.6-9.1,0-12.8c-4.4,3.2-8.7,3.2-12.8,0
						C501,60.4,501,64.7,498.5,68.6z"/>
				</g>
			</g>
		</g>
	</g>
	<g id="___1_137_" transform="matrix( 1, 0, 0, 1, 234.75,214.9) ">
		<g transform="matrix( 0.0966949462890625, 0.0966949462890625, -0.0966949462890625, 0.0966949462890625, -38.85,-55.1) ">
			<g>
				<g>
					
						<radialGradient id="SVGID_12_" cx="8178.2651" cy="-2885.1301" r="10.0125" gradientTransform="matrix(9.669495e-02 -9.669495e-02 -9.669495e-02 -9.669495e-02 -564.5416 574.2909)" gradientUnits="userSpaceOnUse">
						<stop  offset="0" style="stop-color:#FFFFFF"/>
						<stop  offset="1" style="stop-color:#84E3ED"/>
					</radialGradient>
					<path class="st14" d="M498.5,68.6c3.7-2.4,8-2.4,12.8,0c-2.6-4.9-2.6-9.1,0-12.8c-4.4,3.2-8.7,3.2-12.8,0
						C501,60.4,501,64.7,498.5,68.6z"/>
				</g>
			</g>
		</g>
	</g>
	<g id="___1_136_" transform="matrix( 1, 0, 0, 1, 237.25,208.1) ">
		<g transform="matrix( 0.0966949462890625, 0.0966949462890625, -0.0966949462890625, 0.0966949462890625, -38.85,-55.1) ">
			<g>
				<g>
					
						<radialGradient id="SVGID_13_" cx="8200.5" cy="-2837.041" r="10.0125" gradientTransform="matrix(9.669495e-02 -9.669495e-02 -9.669495e-02 -9.669495e-02 -562.0416 581.0909)" gradientUnits="userSpaceOnUse">
						<stop  offset="0" style="stop-color:#FFFFFF"/>
						<stop  offset="1" style="stop-color:#84E3ED"/>
					</radialGradient>
					<path class="st15" d="M498.5,68.6c3.7-2.4,8-2.4,12.8,0c-2.6-4.9-2.6-9.1,0-12.8c-4.4,3.2-8.7,3.2-12.8,0
						C501,60.4,501,64.7,498.5,68.6z"/>
				</g>
			</g>
		</g>
	</g>
	<g id="___1_135_" transform="matrix( 1, 0, 0, 1, 330.1,220.5) ">
		<g transform="matrix( 0.1918487548828125, 0.1918487548828125, -0.1918487548828125, 0.1918487548828125, -77.1,-109.35) ">
			<g>
				<g>
					
						<radialGradient id="SVGID_14_" cx="2112.7864" cy="106.411" r="10.0125" gradientTransform="matrix(0.1918 -0.1918 -0.1918 -0.1918 117.2699 499.0483)" gradientUnits="userSpaceOnUse">
						<stop  offset="0" style="stop-color:#FFFFFF"/>
						<stop  offset="1" style="stop-color:#84E3ED"/>
					</radialGradient>
					<path class="st16" d="M495.5,79.4c3.7-2.4,8-2.4,12.8,0c-2.6-4.9-2.6-9.1,0-12.8c-4.4,3.2-8.7,3.2-12.8,0
						C497.9,71.2,497.9,75.5,495.5,79.4z"/>
				</g>
			</g>
		</g>
	</g>
	<g id="___1_133_" transform="matrix( 1, 0, 0, 1, 361.45,173.55) ">
		<g id="___1_134_">
			<g transform="matrix( 0.1918487548828125, 0.1918487548828125, -0.1918487548828125, 0.1918487548828125, -77.1,-109.35) ">
				<g>
					<g>
						
							<radialGradient id="SVGID_15_" cx="2153.4434" cy="310.4777" r="10.0125" gradientTransform="matrix(0.1918 -0.1918 -0.1918 -0.1918 148.6199 545.9982)" gradientUnits="userSpaceOnUse">
							<stop  offset="0" style="stop-color:#FFFFFF"/>
							<stop  offset="1" style="stop-color:#84E3ED"/>
						</radialGradient>
						<path class="st17" d="M495.5,79.4c3.7-2.4,8-2.4,12.8,0c-2.6-4.9-2.6-9.1,0-12.8c-4.4,3.2-8.7,3.2-12.8,0
							C497.9,71.2,497.9,75.5,495.5,79.4z"/>
					</g>
				</g>
			</g>
		</g>
	</g>
	<g transform="matrix( 1, 0, 0, 1, 104.1,-154.9) ">
		<g>
			<g>
				
					<radialGradient id="SVGID_16_" cx="44.5486" cy="458.7799" r="2.475" gradientTransform="matrix(1 0 0 -1 103.9051 830.2622)" gradientUnits="userSpaceOnUse">
					<stop  offset="0" style="stop-color:#FFFFFF"/>
					<stop  offset="1" style="stop-color:#1C96E0"/>
				</radialGradient>
				<path class="st18" d="M148.4,370.8c-0.2,0-0.4,0.1-0.6,0.3c-0.2,0.2-0.3,0.4-0.3,0.6c0,0.2,0.1,0.4,0.3,0.6
					c0.2,0.2,0.4,0.3,0.6,0.3c0.2,0,0.4-0.1,0.6-0.3s0.3-0.4,0.3-0.6c0-0.2-0.1-0.4-0.3-0.6C148.8,370.9,148.6,370.8,148.4,370.8z"
					/>
			</g>
		</g>
	</g>
	<g transform="matrix( 1, 0, 0, 1, 89.85,-160.45) ">
		<g>
			<g>
				
					<radialGradient id="SVGID_17_" cx="58.7986" cy="464.3299" r="3.9375" gradientTransform="matrix(1 0 0 -1 82.3051 829.7622)" gradientUnits="userSpaceOnUse">
					<stop  offset="0" style="stop-color:#FFFFFF"/>
					<stop  offset="1" style="stop-color:#1C96E0"/>
				</radialGradient>
				<path class="st19" d="M142,364.7c-0.3-0.3-0.6-0.4-0.9-0.4s-0.7,0.1-0.9,0.4c-0.3,0.3-0.4,0.6-0.4,1c0,0.4,0.1,0.7,0.4,0.9
					c0.3,0.3,0.6,0.4,0.9,0.4c0.4,0,0.7-0.1,0.9-0.4s0.4-0.6,0.4-0.9C142.4,365.3,142.2,365,142,364.7z"/>
			</g>
		</g>
	</g>
	<g transform="matrix( 1, 0, 0, 1, 77.1,-177.95) ">
		<g>
			<g>
				
					<radialGradient id="SVGID_18_" cx="71.5486" cy="481.8299" r="1.75" gradientTransform="matrix(1 0 0 -1 88.3051 858.6122)" gradientUnits="userSpaceOnUse">
					<stop  offset="0" style="stop-color:#FFFFFF"/>
					<stop  offset="1" style="stop-color:#1C96E0"/>
				</radialGradient>
				<path class="st20" d="M160.4,376.9c0-0.2-0.1-0.3-0.1-0.4c-0.1-0.1-0.3-0.2-0.4-0.2c-0.2,0-0.3,0.1-0.4,0.2
					c-0.1,0.1-0.2,0.3-0.2,0.4c0,0.2,0.1,0.3,0.2,0.4c0.1,0.1,0.2,0.2,0.4,0.2c0.2,0,0.3-0.1,0.4-0.2
					C160.3,377.2,160.4,377,160.4,376.9z"/>
			</g>
		</g>
	</g>
	<g transform="matrix( 1, 0, 0, 1, 53.85,-163.9) ">
		<g>
			<g>
				
					<radialGradient id="SVGID_19_" cx="94.7986" cy="467.7799" r="1.75" gradientTransform="matrix(1 0 0 -1 72.0551 831.7122)" gradientUnits="userSpaceOnUse">
					<stop  offset="0" style="stop-color:#FFFFFF"/>
					<stop  offset="1" style="stop-color:#1C96E0"/>
				</radialGradient>
				<path class="st21" d="M166.8,363.4c-0.2,0-0.3,0-0.4,0.1c-0.1,0.1-0.2,0.3-0.2,0.4c0,0.2,0.1,0.3,0.2,0.4
					c0.1,0.1,0.2,0.2,0.4,0.2c0.2,0,0.3-0.1,0.4-0.2c0.1-0.1,0.1-0.2,0.1-0.4c0-0.2-0.1-0.3-0.1-0.4
					C167.1,363.5,166.9,363.4,166.8,363.4z"/>
			</g>
		</g>
	</g>
	<g transform="matrix( 1, 0, 0, 1, 137.05,-19.15) ">
		<g>
			<g>
				
					<radialGradient id="SVGID_20_" cx="11.5986" cy="323.0299" r="1.75" gradientTransform="matrix(1 0 0 -1 160.1551 571.3622)" gradientUnits="userSpaceOnUse">
					<stop  offset="0" style="stop-color:#FFFFFF"/>
					<stop  offset="1" style="stop-color:#1C96E0"/>
				</radialGradient>
				<path class="st22" d="M171.3,248.8c0.1,0.1,0.2,0.2,0.4,0.2c0.2,0,0.3-0.1,0.4-0.2c0.1-0.1,0.2-0.2,0.2-0.4
					c0-0.2-0.1-0.3-0.2-0.4c-0.1-0.1-0.3-0.1-0.4-0.1c-0.2,0-0.3,0.1-0.4,0.1c-0.1,0.1-0.2,0.3-0.2,0.4
					C171.1,248.6,171.1,248.7,171.3,248.8z"/>
			</g>
		</g>
	</g>
	<g transform="matrix( 1, 0, 0, 1, 56.25,-127.6) ">
		<g>
			<g>
				
					<radialGradient id="SVGID_21_" cx="92.3986" cy="431.4799" r="1.75" gradientTransform="matrix(1 0 0 -1 150.1051 785.1122)" gradientUnits="userSpaceOnUse">
					<stop  offset="0" style="stop-color:#FFFFFF"/>
					<stop  offset="1" style="stop-color:#1C96E0"/>
				</radialGradient>
				<path class="st23" d="M242.9,353.3c-0.1-0.1-0.3-0.1-0.4-0.1c-0.2,0-0.3,0-0.4,0.1c-0.1,0.1-0.2,0.3-0.2,0.5
					c0,0.2,0.1,0.3,0.2,0.4c0.1,0.1,0.2,0.2,0.4,0.2c0.2,0,0.3-0.1,0.4-0.2c0.1-0.1,0.2-0.2,0.2-0.4S243,353.4,242.9,353.3z"/>
			</g>
		</g>
	</g>
	<g transform="matrix( -0.2572784423828125, -0.2572784423828125, -0.2572784423828125, 0.2572784423828125, 446.05,316.55) ">
		<g>
			<g>
				
					<radialGradient id="SVGID_22_" cx="1430.7548" cy="2151.9006" r="10.0125" gradientTransform="matrix(-0.2573 0.2573 -0.2573 -0.2573 1418.5358 261.6314)" gradientUnits="userSpaceOnUse">
					<stop  offset="0" style="stop-color:#FFFFFF"/>
					<stop  offset="1" style="stop-color:#84E3ED"/>
				</radialGradient>
				<path class="st24" d="M490.1,82.2c3.7-2.4,8-2.4,12.8,0c-2.6-4.9-2.6-9.1,0-12.8c-4.4,3.2-8.7,3.2-12.8,0
					C492.5,74,492.5,78.3,490.1,82.2z"/>
			</g>
		</g>
	</g>
	<g id="___1_132_" transform="matrix( 1, 0, 0, 1, 314.45,160.6) ">
		<g transform="matrix( 0.0966949462890625, 0.0966949462890625, -0.0966949462890625, 0.0966949462890625, -38.85,-55.1) ">
			<g>
				<g>
					
						<radialGradient id="SVGID_23_" cx="8046.9238" cy="-2192.2297" r="10.0125" gradientTransform="matrix(9.669495e-02 -9.669495e-02 -9.669495e-02 -9.669495e-02 -484.8416 628.5909)" gradientUnits="userSpaceOnUse">
						<stop  offset="0" style="stop-color:#FFFFFF"/>
						<stop  offset="1" style="stop-color:#84E3ED"/>
					</radialGradient>
					<path class="st25" d="M498.5,68.6c3.7-2.4,8-2.4,12.8,0c-2.6-4.9-2.6-9.1,0-12.8c-4.4,3.2-8.7,3.2-12.8,0
						C501,60.4,501,64.7,498.5,68.6z"/>
				</g>
			</g>
		</g>
	</g>
	<g transform="matrix( 1, 0, 0, 1, 177.7,-208.35) ">
		<g>
			<g>
				
					<radialGradient id="SVGID_24_" cx="-29.0514" cy="512.2299" r="2.475" gradientTransform="matrix(1 0 0 -1 177.5051 883.7122)" gradientUnits="userSpaceOnUse">
					<stop  offset="0" style="stop-color:#FFFFFF"/>
					<stop  offset="1" style="stop-color:#1C96E0"/>
				</radialGradient>
				<path class="st26" d="M148.4,370.8c-0.2,0-0.4,0.1-0.6,0.3c-0.2,0.2-0.3,0.4-0.3,0.6c0,0.2,0.1,0.4,0.3,0.6
					c0.2,0.2,0.4,0.3,0.6,0.3c0.2,0,0.4-0.1,0.6-0.3s0.3-0.4,0.3-0.6c0-0.2-0.1-0.4-0.3-0.6C148.8,370.9,148.6,370.8,148.4,370.8z"
					/>
			</g>
		</g>
	</g>
	<g id="___1_131_" transform="matrix( 1, 0, 0, 1, 329.95,145.1) ">
		<g transform="matrix( 0.0966949462890625, 0.0966949462890625, -0.0966949462890625, 0.0966949462890625, -38.85,-55.1) ">
			<g>
				<g>
					
						<radialGradient id="SVGID_25_" cx="8046.9238" cy="-2031.932" r="10.0125" gradientTransform="matrix(9.669495e-02 -9.669495e-02 -9.669495e-02 -9.669495e-02 -469.3416 644.0909)" gradientUnits="userSpaceOnUse">
						<stop  offset="0" style="stop-color:#FFFFFF"/>
						<stop  offset="1" style="stop-color:#84E3ED"/>
					</radialGradient>
					<path class="st27" d="M498.5,68.6c3.7-2.4,8-2.4,12.8,0c-2.6-4.9-2.6-9.1,0-12.8c-4.4,3.2-8.7,3.2-12.8,0
						C501,60.4,501,64.7,498.5,68.6z"/>
				</g>
			</g>
		</g>
	</g>
	<g id="___1_130_" transform="matrix( 1, 0, 0, 1, 318.5,151.55) ">
		<g transform="matrix( 0.0966949462890625, 0.0966949462890625, -0.0966949462890625, 0.0966949462890625, -38.85,-55.1) ">
			<g>
				<g>
					
						<radialGradient id="SVGID_26_" cx="8072.7788" cy="-2124.4912" r="10.0125" gradientTransform="matrix(9.669495e-02 -9.669495e-02 -9.669495e-02 -9.669495e-02 -480.7916 637.6409)" gradientUnits="userSpaceOnUse">
						<stop  offset="0" style="stop-color:#FFFFFF"/>
						<stop  offset="1" style="stop-color:#84E3ED"/>
					</radialGradient>
					<path class="st28" d="M498.5,68.6c3.7-2.4,8-2.4,12.8,0c-2.6-4.9-2.6-9.1,0-12.8c-4.4,3.2-8.7,3.2-12.8,0
						C501,60.4,501,64.7,498.5,68.6z"/>
				</g>
			</g>
		</g>
	</g>
	<g id="___1_129_" transform="matrix( 1, 0, 0, 1, 324.9,204.15) ">
		<g transform="matrix( 0.0966949462890625, 0.0966949462890625, -0.0966949462890625, 0.0966949462890625, -38.85,-55.1) ">
			<g>
				<g>
					
						<radialGradient id="SVGID_27_" cx="7767.6958" cy="-2363.3865" r="10.0125" gradientTransform="matrix(9.669495e-02 -9.669495e-02 -9.669495e-02 -9.669495e-02 -474.3916 585.0409)" gradientUnits="userSpaceOnUse">
						<stop  offset="0" style="stop-color:#FFFFFF"/>
						<stop  offset="1" style="stop-color:#84E3ED"/>
					</radialGradient>
					<path class="st29" d="M498.5,68.6c3.7-2.4,8-2.4,12.8,0c-2.6-4.9-2.6-9.1,0-12.8c-4.4,3.2-8.7,3.2-12.8,0
						C501,60.4,501,64.7,498.5,68.6z"/>
				</g>
			</g>
		</g>
	</g>
	<g transform="matrix( 1, 0, 0, 1, 43.05,-131.05) ">
		<g>
			<g>
				
					<radialGradient id="SVGID_28_" cx="105.5986" cy="434.9299" r="3.9375" gradientTransform="matrix(1 0 0 -1 129.3051 799.7622)" gradientUnits="userSpaceOnUse">
					<stop  offset="0" style="stop-color:#FFFFFF"/>
					<stop  offset="1" style="stop-color:#1C96E0"/>
				</radialGradient>
				<path class="st30" d="M233.9,366c0.3,0.3,0.6,0.4,1,0.4c0.4,0,0.7-0.1,0.9-0.4c0.3-0.3,0.4-0.6,0.4-0.9c0-0.4-0.1-0.7-0.4-1
					c-0.3-0.3-0.6-0.4-0.9-0.4s-0.7,0.1-1,0.4c-0.3,0.3-0.4,0.6-0.4,1C233.5,365.4,233.6,365.8,233.9,366z"/>
			</g>
		</g>
	</g>
	<g transform="matrix( 1, 0, 0, 1, 39.45,-134.05) ">
		<g>
			<g>
				
					<radialGradient id="SVGID_29_" cx="109.1986" cy="437.9299" r="1.75" gradientTransform="matrix(1 0 0 -1 133.3051 791.5622)" gradientUnits="userSpaceOnUse">
					<stop  offset="0" style="stop-color:#FFFFFF"/>
					<stop  offset="1" style="stop-color:#1C96E0"/>
				</radialGradient>
				<path class="st31" d="M242.9,353.3c-0.1-0.1-0.3-0.1-0.4-0.1c-0.2,0-0.3,0-0.4,0.1c-0.1,0.1-0.2,0.3-0.2,0.5
					c0,0.2,0.1,0.3,0.2,0.4c0.1,0.1,0.2,0.2,0.4,0.2c0.2,0,0.3-0.1,0.4-0.2c0.1-0.1,0.2-0.2,0.2-0.4S243,353.4,242.9,353.3z"/>
			</g>
		</g>
	</g>
	<g transform="matrix( 1, 0, 0, 1, 31.05,-161.1) ">
		<g>
			<g>
				
					<radialGradient id="SVGID_30_" cx="117.5986" cy="464.9799" r="3.9375" gradientTransform="matrix(1 0 0 -1 117.3051 829.8122)" gradientUnits="userSpaceOnUse">
					<stop  offset="0" style="stop-color:#FFFFFF"/>
					<stop  offset="1" style="stop-color:#1C96E0"/>
				</radialGradient>
				<path class="st32" d="M233.9,366c0.3,0.3,0.6,0.4,1,0.4c0.4,0,0.7-0.1,0.9-0.4c0.3-0.3,0.4-0.6,0.4-0.9c0-0.4-0.1-0.7-0.4-1
					c-0.3-0.3-0.6-0.4-0.9-0.4s-0.7,0.1-1,0.4c-0.3,0.3-0.4,0.6-0.4,1C233.5,365.4,233.6,365.8,233.9,366z"/>
			</g>
		</g>
	</g>
	<g transform="matrix( 1, 0, 0, 1, 12.95,-177.3) ">
		<g>
			<g>
				
					<radialGradient id="SVGID_31_" cx="135.6986" cy="481.1799" r="3.9375" gradientTransform="matrix(1 0 0 -1 99.2051 846.0122)" gradientUnits="userSpaceOnUse">
					<stop  offset="0" style="stop-color:#FFFFFF"/>
					<stop  offset="1" style="stop-color:#1C96E0"/>
				</radialGradient>
				<path class="st33" d="M233.9,366c0.3,0.3,0.6,0.4,1,0.4c0.4,0,0.7-0.1,0.9-0.4c0.3-0.3,0.4-0.6,0.4-0.9c0-0.4-0.1-0.7-0.4-1
					c-0.3-0.3-0.6-0.4-0.9-0.4s-0.7,0.1-1,0.4c-0.3,0.3-0.4,0.6-0.4,1C233.5,365.4,233.6,365.8,233.9,366z"/>
			</g>
		</g>
	</g>
	<g transform="matrix( 0.703704833984375, 0, 0, 0.703704833984375, 96.35,-72.45) ">
		<g>
			<g>
				
					<radialGradient id="SVGID_32_" cx="163.2604" cy="477.2717" r="3.9375" gradientTransform="matrix(0.7037 0 0 -0.7037 121.1549 700.0516)" gradientUnits="userSpaceOnUse">
					<stop  offset="0" style="stop-color:#FFFFFF"/>
					<stop  offset="1" style="stop-color:#1C96E0"/>
				</radialGradient>
				<path class="st34" d="M235,365.4c0.3,0.3,0.6,0.4,1,0.4c0.4,0,0.7-0.1,0.9-0.4c0.3-0.3,0.4-0.6,0.4-0.9c0-0.4-0.1-0.7-0.4-1
					c-0.3-0.3-0.6-0.4-0.9-0.4s-0.7,0.1-1,0.4c-0.3,0.3-0.4,0.6-0.4,1C234.6,364.8,234.7,365.1,235,365.4z"/>
			</g>
		</g>
	</g>
	<g transform="matrix( 0.647064208984375, 0, 0, 0.647064208984375, 164.45,-51.15) ">
		<g>
			<g>
				
					<radialGradient id="SVGID_33_" cx="100.883" cy="467.6538" r="2.475" gradientTransform="matrix(0.6471 0 0 -0.6471 84.6507 673.2567)" gradientUnits="userSpaceOnUse">
					<stop  offset="0" style="stop-color:#FFFFFF"/>
					<stop  offset="1" style="stop-color:#1C96E0"/>
				</radialGradient>
				<path class="st35" d="M149.8,370c-0.2,0-0.4,0.1-0.6,0.3c-0.2,0.2-0.3,0.4-0.3,0.6c0,0.2,0.1,0.4,0.3,0.6
					c0.2,0.2,0.4,0.3,0.6,0.3c0.2,0,0.4-0.1,0.6-0.3s0.3-0.4,0.3-0.6c0-0.2-0.1-0.4-0.3-0.6C150.3,370,150.1,370,149.8,370z"/>
			</g>
		</g>
	</g>
	<g id="___1_127_" transform="matrix( 1, 0, 0, 1, 301.85,205.6) ">
		<g id="___1_128_">
			<g transform="matrix( 0.1918487548828125, 0.1918487548828125, -0.1918487548828125, 0.1918487548828125, -77.1,-109.35) ">
				<g>
					<g>
						
							<radialGradient id="SVGID_34_" cx="2225.2446" cy="71.618" r="10.0125" gradientTransform="matrix(0.1918 -0.1918 -0.1918 -0.1918 89.0199 513.9482)" gradientUnits="userSpaceOnUse">
							<stop  offset="0" style="stop-color:#FFFFFF"/>
							<stop  offset="1" style="stop-color:#84E3ED"/>
						</radialGradient>
						<path class="st36" d="M495.5,79.4c3.7-2.4,8-2.4,12.8,0c-2.6-4.9-2.6-9.1,0-12.8c-4.4,3.2-8.7,3.2-12.8,0
							C497.9,71.2,497.9,75.5,495.5,79.4z"/>
					</g>
				</g>
			</g>
		</g>
	</g>
	<g id="___1_125_" transform="matrix( 1, 0, 0, 1, 330.9,171.55) ">
		<g id="___1_126_">
			<g transform="matrix( 0.1918487548828125, 0.1918487548828125, -0.1918487548828125, 0.1918487548828125, -77.1,-109.35) ">
				<g>
					<g>
						
							<radialGradient id="SVGID_35_" cx="2238.2759" cy="236.0702" r="10.0125" gradientTransform="matrix(0.1918 -0.1918 -0.1918 -0.1918 118.0699 547.9982)" gradientUnits="userSpaceOnUse">
							<stop  offset="0" style="stop-color:#FFFFFF"/>
							<stop  offset="1" style="stop-color:#84E3ED"/>
						</radialGradient>
						<path class="st37" d="M495.5,79.4c3.7-2.4,8-2.4,12.8,0c-2.6-4.9-2.6-9.1,0-12.8c-4.4,3.2-8.7,3.2-12.8,0
							C497.9,71.2,497.9,75.5,495.5,79.4z"/>
					</g>
				</g>
			</g>
		</g>
	</g>
	<g id="___1_124_" transform="matrix( 1, 0, 0, 1, 302.9,213.9) ">
		<g transform="matrix( 0.0966949462890625, 0.0966949462890625, -0.0966949462890625, 0.0966949462890625, -38.85,-55.1) ">
			<g>
				<g>
					
						<radialGradient id="SVGID_36_" cx="7831.0391" cy="-2527.5625" r="10.0125" gradientTransform="matrix(9.669495e-02 -9.669495e-02 -9.669495e-02 -9.669495e-02 -496.3916 575.2909)" gradientUnits="userSpaceOnUse">
						<stop  offset="0" style="stop-color:#FFFFFF"/>
						<stop  offset="1" style="stop-color:#84E3ED"/>
					</radialGradient>
					<path class="st38" d="M498.5,68.6c3.7-2.4,8-2.4,12.8,0c-2.6-4.9-2.6-9.1,0-12.8c-4.4,3.2-8.7,3.2-12.8,0
						C501,60.4,501,64.7,498.5,68.6z"/>
				</g>
			</g>
		</g>
	</g>
	<g id="___1_123_" transform="matrix( 1, 0, 0, 1, 308.15,201.6) ">
		<g transform="matrix( 0.0966949462890625, 0.0966949462890625, -0.0966949462890625, 0.0966949462890625, -38.85,-55.1) ">
			<g>
				<g>
					
						<radialGradient id="SVGID_37_" cx="7867.4941" cy="-2436.8135" r="10.0125" gradientTransform="matrix(9.669495e-02 -9.669495e-02 -9.669495e-02 -9.669495e-02 -491.1416 587.5909)" gradientUnits="userSpaceOnUse">
						<stop  offset="0" style="stop-color:#FFFFFF"/>
						<stop  offset="1" style="stop-color:#84E3ED"/>
					</radialGradient>
					<path class="st39" d="M498.5,68.6c3.7-2.4,8-2.4,12.8,0c-2.6-4.9-2.6-9.1,0-12.8c-4.4,3.2-8.7,3.2-12.8,0
						C501,60.4,501,64.7,498.5,68.6z"/>
				</g>
			</g>
		</g>
	</g>
	<g transform="matrix( 0.703704833984375, 0, 0, 0.703704833984375, 133.5,-100.2) ">
		<g>
			<g>
				
					<radialGradient id="SVGID_38_" cx="110.4684" cy="516.7058" r="3.9375" gradientTransform="matrix(0.7037 0 0 -0.7037 158.3049 727.8016)" gradientUnits="userSpaceOnUse">
					<stop  offset="0" style="stop-color:#FFFFFF"/>
					<stop  offset="1" style="stop-color:#1C96E0"/>
				</radialGradient>
				<path class="st40" d="M235,365.4c0.3,0.3,0.6,0.4,1,0.4c0.4,0,0.7-0.1,0.9-0.4c0.3-0.3,0.4-0.6,0.4-0.9c0-0.4-0.1-0.7-0.4-1
					c-0.3-0.3-0.6-0.4-0.9-0.4s-0.7,0.1-1,0.4c-0.3,0.3-0.4,0.6-0.4,1C234.6,364.8,234.7,365.1,235,365.4z"/>
			</g>
		</g>
	</g>
	<g transform="matrix( 0.703704833984375, 0, 0, 0.703704833984375, 201.55,-99.3) ">
		<g>
			<g>
				
					<radialGradient id="SVGID_39_" cx="13.766" cy="515.4269" r="3.9375" gradientTransform="matrix(0.7037 0 0 -0.7037 226.3549 726.9016)" gradientUnits="userSpaceOnUse">
					<stop  offset="0" style="stop-color:#FFFFFF"/>
					<stop  offset="1" style="stop-color:#1C96E0"/>
				</radialGradient>
				<path class="st41" d="M235,365.4c0.3,0.3,0.6,0.4,1,0.4c0.4,0,0.7-0.1,0.9-0.4c0.3-0.3,0.4-0.6,0.4-0.9c0-0.4-0.1-0.7-0.4-1
					c-0.3-0.3-0.6-0.4-0.9-0.4s-0.7,0.1-1,0.4c-0.3,0.3-0.4,0.6-0.4,1C234.6,364.8,234.7,365.1,235,365.4z"/>
			</g>
		</g>
	</g>
	<g transform="matrix( 0.647064208984375, 0, 0, 0.647064208984375, 265.65,-85.4) ">
		<g>
			<g>
				
					<radialGradient id="SVGID_40_" cx="-55.5157" cy="520.5852" r="2.475" gradientTransform="matrix(0.6471 0 0 -0.6471 185.8507 707.5067)" gradientUnits="userSpaceOnUse">
					<stop  offset="0" style="stop-color:#FFFFFF"/>
					<stop  offset="1" style="stop-color:#1C96E0"/>
				</radialGradient>
				<path class="st42" d="M149.8,370c-0.2,0-0.4,0.1-0.6,0.3c-0.2,0.2-0.3,0.4-0.3,0.6c0,0.2,0.1,0.4,0.3,0.6
					c0.2,0.2,0.4,0.3,0.6,0.3c0.2,0,0.4-0.1,0.6-0.3s0.3-0.4,0.3-0.6c0-0.2-0.1-0.4-0.3-0.6C150.3,370,150.1,370,149.8,370z"/>
			</g>
		</g>
	</g>
	<g id="___1_122_" transform="matrix( 1, 0, 0, 1, 362.35,163.65) ">
		<g transform="matrix( 0.0966949462890625, 0.0966949462890625, -0.0966949462890625, 0.0966949462890625, -38.85,-55.1) ">
			<g>
				<g>
					
						<radialGradient id="SVGID_41_" cx="7783.4668" cy="-1960.3151" r="10.0125" gradientTransform="matrix(9.669495e-02 -9.669495e-02 -9.669495e-02 -9.669495e-02 -436.9417 625.5409)" gradientUnits="userSpaceOnUse">
						<stop  offset="0" style="stop-color:#FFFFFF"/>
						<stop  offset="1" style="stop-color:#84E3ED"/>
					</radialGradient>
					<path class="st43" d="M498.5,68.6c3.7-2.4,8-2.4,12.8,0c-2.6-4.9-2.6-9.1,0-12.8c-4.4,3.2-8.7,3.2-12.8,0
						C501,60.4,501,64.7,498.5,68.6z"/>
				</g>
			</g>
		</g>
	</g>
	<g transform="matrix( -0.1246185302734375, -0.1246185302734375, -0.1246185302734375, 0.1246185302734375, 419.9,234.1) ">
		<g>
			<g>
				
					<radialGradient id="SVGID_42_" cx="4113.7983" cy="7136.2681" r="10.0125" gradientTransform="matrix(-0.1246 0.1246 -0.1246 -0.1246 1896.306 444.0182)" gradientUnits="userSpaceOnUse">
					<stop  offset="0" style="stop-color:#FFFFFF"/>
					<stop  offset="1" style="stop-color:#84E3ED"/>
				</radialGradient>
				<path class="st44" d="M487.6,73.5c3.7-2.4,8-2.4,12.8,0c-2.6-4.9-2.6-9.1,0-12.8c-4.4,3.2-8.7,3.2-12.8,0
					C490.1,65.3,490.1,69.6,487.6,73.5z"/>
			</g>
		</g>
	</g>
	<g id="___1_120_" transform="matrix( 1, 0, 0, 1, 266.75,171.75) ">
		<g id="___1_121_">
			<g transform="matrix( 0.1918487548828125, 0.1918487548828125, -0.1918487548828125, 0.1918487548828125, -77.1,-109.35) ">
				<g>
					<g>
						
							<radialGradient id="SVGID_43_" cx="2404.9434" cy="68.3602" r="10.0125" gradientTransform="matrix(0.1918 -0.1918 -0.1918 -0.1918 53.92 547.7982)" gradientUnits="userSpaceOnUse">
							<stop  offset="0" style="stop-color:#FFFFFF"/>
							<stop  offset="1" style="stop-color:#84E3ED"/>
						</radialGradient>
						<path class="st45" d="M495.5,79.4c3.7-2.4,8-2.4,12.8,0c-2.6-4.9-2.6-9.1,0-12.8c-4.4,3.2-8.7,3.2-12.8,0
							C497.9,71.2,497.9,75.5,495.5,79.4z"/>
					</g>
				</g>
			</g>
		</g>
	</g>
	<g id="___1_119_" transform="matrix( 1, 0, 0, 1, 346.4,171.25) ">
		<g transform="matrix( 0.0966949462890625, 0.0966949462890625, -0.0966949462890625, 0.0966949462890625, -38.85,-55.1) ">
			<g>
				<g>
					
						<radialGradient id="SVGID_44_" cx="7826.644" cy="-2082.0898" r="10.0125" gradientTransform="matrix(9.669495e-02 -9.669495e-02 -9.669495e-02 -9.669495e-02 -452.8917 617.9409)" gradientUnits="userSpaceOnUse">
						<stop  offset="0" style="stop-color:#FFFFFF"/>
						<stop  offset="1" style="stop-color:#84E3ED"/>
					</radialGradient>
					<path class="st46" d="M498.5,68.6c3.7-2.4,8-2.4,12.8,0c-2.6-4.9-2.6-9.1,0-12.8c-4.4,3.2-8.7,3.2-12.8,0
						C501,60.4,501,64.7,498.5,68.6z"/>
				</g>
			</g>
		</g>
	</g>
	<g transform="matrix( 0.703704833984375, 0, 0, 0.703704833984375, 212.6,-8.85) ">
		<g>
			<g>
				
					<radialGradient id="SVGID_45_" cx="-1.9366" cy="386.8929" r="3.9375" gradientTransform="matrix(0.7037 0 0 -0.7037 143.6049 637.0516)" gradientUnits="userSpaceOnUse">
					<stop  offset="0" style="stop-color:#FFFFFF"/>
					<stop  offset="1" style="stop-color:#1C96E0"/>
				</radialGradient>
				<path class="st47" d="M143.1,364.1c-0.3-0.3-0.6-0.4-0.9-0.4s-0.7,0.1-0.9,0.4c-0.3,0.3-0.4,0.6-0.4,1c0,0.4,0.1,0.7,0.4,0.9
					c0.3,0.3,0.6,0.4,0.9,0.4c0.4,0,0.7-0.1,0.9-0.4s0.4-0.6,0.4-0.9C143.5,364.7,143.4,364.4,143.1,364.1z"/>
			</g>
		</g>
	</g>
	<g id="___1_118_" transform="matrix( 1, 0, 0, 1, 281.2,160.6) ">
		<g transform="matrix( 0.0966949462890625, 0.0966949462890625, -0.0966949462890625, 0.0966949462890625, -38.85,-55.1) ">
			<g>
				<g>
					
						<radialGradient id="SVGID_46_" cx="8218.8564" cy="-2364.1621" r="10.0125" gradientTransform="matrix(9.669495e-02 -9.669495e-02 -9.669495e-02 -9.669495e-02 -518.0916 628.5909)" gradientUnits="userSpaceOnUse">
						<stop  offset="0" style="stop-color:#FFFFFF"/>
						<stop  offset="1" style="stop-color:#84E3ED"/>
					</radialGradient>
					<path class="st48" d="M498.5,68.6c3.7-2.4,8-2.4,12.8,0c-2.6-4.9-2.6-9.1,0-12.8c-4.4,3.2-8.7,3.2-12.8,0
						C501,60.4,501,64.7,498.5,68.6z"/>
				</g>
			</g>
		</g>
	</g>
	<g id="___1_117_" transform="matrix( 1, 0, 0, 1, 333.2,145.9) ">
		<g transform="matrix( 0.0966949462890625, 0.0966949462890625, -0.0966949462890625, 0.0966949462890625, -38.85,-55.1) ">
			<g>
				<g>
					
						<radialGradient id="SVGID_47_" cx="8025.9819" cy="-2019.2632" r="10.0125" gradientTransform="matrix(9.669495e-02 -9.669495e-02 -9.669495e-02 -9.669495e-02 -466.0916 643.2909)" gradientUnits="userSpaceOnUse">
						<stop  offset="0" style="stop-color:#FFFFFF"/>
						<stop  offset="1" style="stop-color:#84E3ED"/>
					</radialGradient>
					<path class="st49" d="M498.5,68.6c3.7-2.4,8-2.4,12.8,0c-2.6-4.9-2.6-9.1,0-12.8c-4.4,3.2-8.7,3.2-12.8,0
						C501,60.4,501,64.7,498.5,68.6z"/>
				</g>
			</g>
		</g>
	</g>
	<g transform="matrix( -0.2572784423828125, -0.2572784423828125, -0.2572784423828125, 0.2572784423828125, 354.05,385.1) ">
		<g>
			<g>
				
					<radialGradient id="SVGID_48_" cx="1385.1816" cy="1839.8839" r="10.0125" gradientTransform="matrix(-0.2573 0.2573 -0.2573 -0.2573 1326.5356 193.0813)" gradientUnits="userSpaceOnUse">
					<stop  offset="0" style="stop-color:#FFFFFF"/>
					<stop  offset="1" style="stop-color:#84E3ED"/>
				</radialGradient>
				<path class="st50" d="M490.1,69.4c2.4,4.6,2.4,8.9,0,12.8c3.7-2.4,8-2.4,12.8,0c-2.6-4.9-2.6-9.1,0-12.8
					C498.5,72.6,494.2,72.6,490.1,69.4z"/>
			</g>
		</g>
	</g>
	<g id="___1_116_" transform="matrix( 1, 0, 0, 1, 164.05,291.05) ">
		<g transform="matrix( 0.0966949462890625, 0.0966949462890625, -0.0966949462890625, 0.0966949462890625, -38.85,-55.1) ">
			<g>
				<g>
					
						<radialGradient id="SVGID_49_" cx="8150.0835" cy="-3644.4766" r="10.0125" gradientTransform="matrix(9.669495e-02 -9.669495e-02 -9.669495e-02 -9.669495e-02 -635.2415 498.141)" gradientUnits="userSpaceOnUse">
						<stop  offset="0" style="stop-color:#FFFFFF"/>
						<stop  offset="1" style="stop-color:#84E3ED"/>
					</radialGradient>
					<path class="st51" d="M498.5,68.6c3.7-2.4,8-2.4,12.8,0c-2.6-4.9-2.6-9.1,0-12.8c-4.4,3.2-8.7,3.2-12.8,0
						C501,60.4,501,64.7,498.5,68.6z"/>
				</g>
			</g>
		</g>
	</g>
	<g id="___1_115_" transform="matrix( 1, 0, 0, 1, 161.55,300.45) ">
		<g transform="matrix( 0.0966949462890625, 0.0966949462890625, -0.0966949462890625, 0.0966949462890625, -38.85,-55.1) ">
			<g>
				<g>
					
						<radialGradient id="SVGID_50_" cx="8114.4043" cy="-3706.0103" r="10.0125" gradientTransform="matrix(9.669495e-02 -9.669495e-02 -9.669495e-02 -9.669495e-02 -637.7415 488.7409)" gradientUnits="userSpaceOnUse">
						<stop  offset="0" style="stop-color:#FFFFFF"/>
						<stop  offset="1" style="stop-color:#84E3ED"/>
					</radialGradient>
					<path class="st52" d="M498.5,68.6c3.7-2.4,8-2.4,12.8,0c-2.6-4.9-2.6-9.1,0-12.8c-4.4,3.2-8.7,3.2-12.8,0
						C501,60.4,501,64.7,498.5,68.6z"/>
				</g>
			</g>
		</g>
	</g>
	<g id="___1_114_" transform="matrix( 1, 0, 0, 1, 196.3,247.55) ">
		<g transform="matrix( 0.0966949462890625, 0.0966949462890625, -0.0966949462890625, 0.0966949462890625, -38.85,-55.1) ">
			<g>
				<g>
					
						<radialGradient id="SVGID_51_" cx="8208.2559" cy="-3252.781" r="10.0125" gradientTransform="matrix(9.669495e-02 -9.669495e-02 -9.669495e-02 -9.669495e-02 -602.9916 541.6409)" gradientUnits="userSpaceOnUse">
						<stop  offset="0" style="stop-color:#FFFFFF"/>
						<stop  offset="1" style="stop-color:#84E3ED"/>
					</radialGradient>
					<path class="st53" d="M498.5,68.6c3.7-2.4,8-2.4,12.8,0c-2.6-4.9-2.6-9.1,0-12.8c-4.4,3.2-8.7,3.2-12.8,0
						C501,60.4,501,64.7,498.5,68.6z"/>
				</g>
			</g>
		</g>
	</g>
	<g id="___1_113_" transform="matrix( 1, 0, 0, 1, 197.2,232.75) ">
		<g transform="matrix( 0.0966949462890625, 0.0966949462890625, -0.0966949462890625, 0.0966949462890625, -38.85,-55.1) ">
			<g>
				<g>
					
						<radialGradient id="SVGID_52_" cx="8280.1318" cy="-3171.5979" r="10.0125" gradientTransform="matrix(9.669495e-02 -9.669495e-02 -9.669495e-02 -9.669495e-02 -602.0916 556.4409)" gradientUnits="userSpaceOnUse">
						<stop  offset="0" style="stop-color:#FFFFFF"/>
						<stop  offset="1" style="stop-color:#84E3ED"/>
					</radialGradient>
					<path class="st54" d="M498.5,68.6c3.7-2.4,8-2.4,12.8,0c-2.6-4.9-2.6-9.1,0-12.8c-4.4,3.2-8.7,3.2-12.8,0
						C501,60.4,501,64.7,498.5,68.6z"/>
				</g>
			</g>
		</g>
	</g>
	<g id="___1_112_" transform="matrix( 1, 0, 0, 1, 199.7,225.95) ">
		<g transform="matrix( 0.0966949462890625, 0.0966949462890625, -0.0966949462890625, 0.0966949462890625, -38.85,-55.1) ">
			<g>
				<g>
					
						<radialGradient id="SVGID_53_" cx="8302.3662" cy="-3123.5085" r="10.0125" gradientTransform="matrix(9.669495e-02 -9.669495e-02 -9.669495e-02 -9.669495e-02 -599.5916 563.2409)" gradientUnits="userSpaceOnUse">
						<stop  offset="0" style="stop-color:#FFFFFF"/>
						<stop  offset="1" style="stop-color:#84E3ED"/>
					</radialGradient>
					<path class="st55" d="M498.5,68.6c3.7-2.4,8-2.4,12.8,0c-2.6-4.9-2.6-9.1,0-12.8c-4.4,3.2-8.7,3.2-12.8,0
						C501,60.4,501,64.7,498.5,68.6z"/>
				</g>
			</g>
		</g>
	</g>
	<g id="___1_111_" transform="matrix( 1, 0, 0, 1, 163.85,296.75) ">
		<g transform="matrix( 0.1918487548828125, 0.1918487548828125, -0.1918487548828125, 0.1918487548828125, -77.1,-109.35) ">
			<g>
				<g>
					
						<radialGradient id="SVGID_54_" cx="2347.3459" cy="-525.5965" r="10.0125" gradientTransform="matrix(0.1918 -0.1918 -0.1918 -0.1918 -48.9799 422.7984)" gradientUnits="userSpaceOnUse">
						<stop  offset="0" style="stop-color:#FFFFFF"/>
						<stop  offset="1" style="stop-color:#84E3ED"/>
					</radialGradient>
					<path class="st56" d="M495.5,79.4c3.7-2.4,8-2.4,12.8,0c-2.6-4.9-2.6-9.1,0-12.8c-4.4,3.2-8.7,3.2-12.8,0
						C497.9,71.2,497.9,75.5,495.5,79.4z"/>
				</g>
			</g>
		</g>
	</g>
	<g id="___1_109_" transform="matrix( 1, 0, 0, 1, 165.25,279.95) ">
		<g id="___1_110_">
			<g transform="matrix( 0.1918487548828125, 0.1918487548828125, -0.1918487548828125, 0.1918487548828125, -77.1,-109.35) ">
				<g>
					<g>
						
							<radialGradient id="SVGID_55_" cx="2387.4817" cy="-478.1634" r="10.0125" gradientTransform="matrix(0.1918 -0.1918 -0.1918 -0.1918 -47.5799 439.5983)" gradientUnits="userSpaceOnUse">
							<stop  offset="0" style="stop-color:#FFFFFF"/>
							<stop  offset="1" style="stop-color:#84E3ED"/>
						</radialGradient>
						<path class="st57" d="M495.5,79.4c3.7-2.4,8-2.4,12.8,0c-2.6-4.9-2.6-9.1,0-12.8c-4.4,3.2-8.7,3.2-12.8,0
							C497.9,71.2,497.9,75.5,495.5,79.4z"/>
					</g>
				</g>
			</g>
		</g>
	</g>
	<g transform="matrix( 1, 0, 0, 1, 66.55,-137.05) ">
		<g>
			<g>
				
					<radialGradient id="SVGID_56_" cx="82.0986" cy="440.9299" r="2.475" gradientTransform="matrix(1 0 0 -1 66.3551 812.4122)" gradientUnits="userSpaceOnUse">
					<stop  offset="0" style="stop-color:#FFFFFF"/>
					<stop  offset="1" style="stop-color:#1C96E0"/>
				</radialGradient>
				<path class="st58" d="M148.4,370.8c-0.2,0-0.4,0.1-0.6,0.3c-0.2,0.2-0.3,0.4-0.3,0.6c0,0.2,0.1,0.4,0.3,0.6
					c0.2,0.2,0.4,0.3,0.6,0.3c0.2,0,0.4-0.1,0.6-0.3s0.3-0.4,0.3-0.6c0-0.2-0.1-0.4-0.3-0.6C148.8,370.9,148.6,370.8,148.4,370.8z"
					/>
			</g>
		</g>
	</g>
	<g transform="matrix( 1, 0, 0, 1, 52.3,-142.6) ">
		<g>
			<g>
				
					<radialGradient id="SVGID_57_" cx="96.3486" cy="446.4799" r="3.9375" gradientTransform="matrix(1 0 0 -1 44.7551 811.9122)" gradientUnits="userSpaceOnUse">
					<stop  offset="0" style="stop-color:#FFFFFF"/>
					<stop  offset="1" style="stop-color:#1C96E0"/>
				</radialGradient>
				<path class="st59" d="M142,364.7c-0.3-0.3-0.6-0.4-0.9-0.4s-0.7,0.1-0.9,0.4c-0.3,0.3-0.4,0.6-0.4,1c0,0.4,0.1,0.7,0.4,0.9
					c0.3,0.3,0.6,0.4,0.9,0.4c0.4,0,0.7-0.1,0.9-0.4s0.4-0.6,0.4-0.9C142.4,365.3,142.2,365,142,364.7z"/>
			</g>
		</g>
	</g>
	<g transform="matrix( 1, 0, 0, 1, 39.55,-160.1) ">
		<g>
			<g>
				
					<radialGradient id="SVGID_58_" cx="109.0986" cy="463.9799" r="1.75" gradientTransform="matrix(1 0 0 -1 50.7551 840.7622)" gradientUnits="userSpaceOnUse">
					<stop  offset="0" style="stop-color:#FFFFFF"/>
					<stop  offset="1" style="stop-color:#1C96E0"/>
				</radialGradient>
				<path class="st60" d="M160.4,376.9c0-0.2-0.1-0.3-0.1-0.4c-0.1-0.1-0.3-0.2-0.4-0.2c-0.2,0-0.3,0.1-0.4,0.2
					c-0.1,0.1-0.2,0.3-0.2,0.4c0,0.2,0.1,0.3,0.2,0.4c0.1,0.1,0.2,0.2,0.4,0.2c0.2,0,0.3-0.1,0.4-0.2
					C160.3,377.2,160.4,377,160.4,376.9z"/>
			</g>
		</g>
	</g>
	<g transform="matrix( 1, 0, 0, 1, 31.5,19.3) ">
		<g>
			<g>
				
					<radialGradient id="SVGID_59_" cx="117.1486" cy="284.5799" r="1.75" gradientTransform="matrix(1 0 0 -1 54.6051 532.9122)" gradientUnits="userSpaceOnUse">
					<stop  offset="0" style="stop-color:#FFFFFF"/>
					<stop  offset="1" style="stop-color:#1C96E0"/>
				</radialGradient>
				<path class="st61" d="M171.3,248.8c0.1,0.1,0.2,0.2,0.4,0.2c0.2,0,0.3-0.1,0.4-0.2c0.1-0.1,0.2-0.2,0.2-0.4
					c0-0.2-0.1-0.3-0.2-0.4c-0.1-0.1-0.3-0.1-0.4-0.1c-0.2,0-0.3,0.1-0.4,0.1c-0.1,0.1-0.2,0.3-0.2,0.4
					C171.1,248.6,171.1,248.7,171.3,248.8z"/>
			</g>
		</g>
	</g>
	<g transform="matrix( 1, 0, 0, 1, -49.3,-91.15) ">
		<g>
			<g>
				
					<radialGradient id="SVGID_60_" cx="197.9486" cy="395.0299" r="1.75" gradientTransform="matrix(1 0 0 -1 44.5551 748.6622)" gradientUnits="userSpaceOnUse">
					<stop  offset="0" style="stop-color:#FFFFFF"/>
					<stop  offset="1" style="stop-color:#1C96E0"/>
				</radialGradient>
				<path class="st62" d="M242.9,353.3c-0.1-0.1-0.3-0.1-0.4-0.1c-0.2,0-0.3,0-0.4,0.1c-0.1,0.1-0.2,0.3-0.2,0.5
					c0,0.2,0.1,0.3,0.2,0.4c0.1,0.1,0.2,0.2,0.4,0.2c0.2,0,0.3-0.1,0.4-0.2c0.1-0.1,0.2-0.2,0.2-0.4S243,353.4,242.9,353.3z"/>
			</g>
		</g>
	</g>
	<g transform="matrix( -0.2572784423828125, -0.2572784423828125, -0.2572784423828125, 0.2572784423828125, 344,378.5) ">
		<g>
			<g>
				
					<radialGradient id="SVGID_61_" cx="1352.8236" cy="1833.1792" r="10.0125" gradientTransform="matrix(-0.2573 0.2573 -0.2573 -0.2573 1316.4856 199.6813)" gradientUnits="userSpaceOnUse">
					<stop  offset="0" style="stop-color:#FFFFFF"/>
					<stop  offset="1" style="stop-color:#84E3ED"/>
				</radialGradient>
				<path class="st63" d="M490.1,82.2c3.7-2.4,8-2.4,12.8,0c-2.6-4.9-2.6-9.1,0-12.8c-4.4,3.2-8.7,3.2-12.8,0
					C492.5,74,492.5,78.3,490.1,82.2z"/>
			</g>
		</g>
	</g>
	<g transform="matrix( 1, 0, 0, 1, -21.55,-119.15) ">
		<g>
			<g>
				
					<radialGradient id="SVGID_62_" cx="170.1986" cy="423.0299" r="3.9375" gradientTransform="matrix(1 0 0 -1 64.7051 787.8622)" gradientUnits="userSpaceOnUse">
					<stop  offset="0" style="stop-color:#FFFFFF"/>
					<stop  offset="1" style="stop-color:#1C96E0"/>
				</radialGradient>
				<path class="st64" d="M233.9,366c0.3,0.3,0.6,0.4,1,0.4c0.4,0,0.7-0.1,0.9-0.4c0.3-0.3,0.4-0.6,0.4-0.9c0-0.4-0.1-0.7-0.4-1
					c-0.3-0.3-0.6-0.4-0.9-0.4s-0.7,0.1-1,0.4c-0.3,0.3-0.4,0.6-0.4,1C233.5,365.4,233.6,365.8,233.9,366z"/>
			</g>
		</g>
	</g>
	<g transform="matrix( 1, 0, 0, 1, -14,-79.6) ">
		<g>
			<g>
				
					<radialGradient id="SVGID_63_" cx="162.6486" cy="383.4799" r="3.9375" gradientTransform="matrix(1 0 0 -1 72.2551 748.3122)" gradientUnits="userSpaceOnUse">
					<stop  offset="0" style="stop-color:#FFFFFF"/>
					<stop  offset="1" style="stop-color:#1C96E0"/>
				</radialGradient>
				<path class="st65" d="M233.9,366c0.3,0.3,0.6,0.4,1,0.4c0.4,0,0.7-0.1,0.9-0.4c0.3-0.3,0.4-0.6,0.4-0.9c0-0.4-0.1-0.7-0.4-1
					c-0.3-0.3-0.6-0.4-0.9-0.4s-0.7,0.1-1,0.4c-0.3,0.3-0.4,0.6-0.4,1C233.5,365.4,233.6,365.8,233.9,366z"/>
			</g>
		</g>
	</g>
	<g transform="matrix( 1, 0, 0, 1, -12.4,-69.8) ">
		<g>
			<g>
				
					<radialGradient id="SVGID_64_" cx="161.0486" cy="373.6799" r="3.9375" gradientTransform="matrix(1 0 0 -1 73.8551 738.5122)" gradientUnits="userSpaceOnUse">
					<stop  offset="0" style="stop-color:#FFFFFF"/>
					<stop  offset="1" style="stop-color:#1C96E0"/>
				</radialGradient>
				<path class="st66" d="M233.9,366c0.3,0.3,0.6,0.4,1,0.4c0.4,0,0.7-0.1,0.9-0.4c0.3-0.3,0.4-0.6,0.4-0.9c0-0.4-0.1-0.7-0.4-1
					c-0.3-0.3-0.6-0.4-0.9-0.4s-0.7,0.1-1,0.4c-0.3,0.3-0.4,0.6-0.4,1C233.5,365.4,233.6,365.8,233.9,366z"/>
			</g>
		</g>
	</g>
	<g transform="matrix( 0.513031005859375, 0, 0, -0.513031005859375, 107,482.2) ">
		<g>
			<g>
				
					<radialGradient id="SVGID_65_" cx="356.2083" cy="-204.9727" r="3.9375" gradientTransform="matrix(0.513 0 0 0.513 54.7242 474.4656)" gradientUnits="userSpaceOnUse">
					<stop  offset="0" style="stop-color:#FFFFFF"/>
					<stop  offset="1" style="stop-color:#1C96E0"/>
				</radialGradient>
				<path class="st67" d="M236.4,370.5c0.3,0.3,0.6,0.4,1,0.4c0.4,0,0.7-0.1,0.9-0.4c0.3-0.3,0.4-0.6,0.4-0.9c0-0.4-0.1-0.7-0.4-1
					c-0.3-0.3-0.6-0.4-0.9-0.4s-0.7,0.1-1,0.4c-0.3,0.3-0.4,0.6-0.4,1C236,369.9,236.2,370.2,236.4,370.5z"/>
			</g>
		</g>
	</g>
	<g transform="matrix( -0.2572784423828125, -0.2572784423828125, -0.2572784423828125, 0.2572784423828125, 362.6,395.7) ">
		<g>
			<g>
				
					<radialGradient id="SVGID_66_" cx="1422.3982" cy="1835.8999" r="10.0125" gradientTransform="matrix(-0.2573 0.2573 -0.2573 -0.2573 1335.0857 182.4813)" gradientUnits="userSpaceOnUse">
					<stop  offset="0" style="stop-color:#FFFFFF"/>
					<stop  offset="1" style="stop-color:#84E3ED"/>
				</radialGradient>
				<path class="st68" d="M490.1,69.4c2.4,4.6,2.4,8.9,0,12.8c3.7-2.4,8-2.4,12.8,0c-2.6-4.9-2.6-9.1,0-12.8
					C498.5,72.6,494.2,72.6,490.1,69.4z"/>
			</g>
		</g>
	</g>
	<g id="___1_108_" transform="matrix( 1, 0, 0, 1, 254.85,221.8) ">
		<g transform="matrix( 0.0966949462890625, 0.0966949462890625, -0.0966949462890625, 0.0966949462890625, -38.85,-55.1) ">
			<g>
				<g>
					
						<radialGradient id="SVGID_67_" cx="8038.6509" cy="-2816.8743" r="10.0125" gradientTransform="matrix(9.669495e-02 -9.669495e-02 -9.669495e-02 -9.669495e-02 -544.4416 567.3909)" gradientUnits="userSpaceOnUse">
						<stop  offset="0" style="stop-color:#FFFFFF"/>
						<stop  offset="1" style="stop-color:#84E3ED"/>
					</radialGradient>
					<path class="st69" d="M498.5,68.6c3.7-2.4,8-2.4,12.8,0c-2.6-4.9-2.6-9.1,0-12.8c-4.4,3.2-8.7,3.2-12.8,0
						C501,60.4,501,64.7,498.5,68.6z"/>
				</g>
			</g>
		</g>
	</g>
	<g id="___1_107_" transform="matrix( 1, 0, 0, 1, 352.25,172.6) ">
		<g transform="matrix( 0.0966949462890625, 0.0966949462890625, -0.0966949462890625, 0.0966949462890625, -38.85,-55.1) ">
			<g>
				<g>
					
						<radialGradient id="SVGID_68_" cx="7789.4136" cy="-2058.8208" r="10.0125" gradientTransform="matrix(9.669495e-02 -9.669495e-02 -9.669495e-02 -9.669495e-02 -447.0417 616.5909)" gradientUnits="userSpaceOnUse">
						<stop  offset="0" style="stop-color:#FFFFFF"/>
						<stop  offset="1" style="stop-color:#84E3ED"/>
					</radialGradient>
					<path class="st70" d="M498.5,68.6c3.7-2.4,8-2.4,12.8,0c-2.6-4.9-2.6-9.1,0-12.8c-4.4,3.2-8.7,3.2-12.8,0
						C501,60.4,501,64.7,498.5,68.6z"/>
				</g>
			</g>
		</g>
	</g>
	<g id="___1_106_" transform="matrix( 1, 0, 0, 1, 219.35,240.6) ">
		<g transform="matrix( 0.0966949462890625, 0.0966949462890625, -0.0966949462890625, 0.0966949462890625, -38.85,-55.1) ">
			<g>
				<g>
					
						<radialGradient id="SVGID_69_" cx="8125.0044" cy="-3097.6541" r="10.0125" gradientTransform="matrix(9.669495e-02 -9.669495e-02 -9.669495e-02 -9.669495e-02 -579.9416 548.5909)" gradientUnits="userSpaceOnUse">
						<stop  offset="0" style="stop-color:#FFFFFF"/>
						<stop  offset="1" style="stop-color:#84E3ED"/>
					</radialGradient>
					<path class="st71" d="M498.5,68.6c3.7-2.4,8-2.4,12.8,0c-2.6-4.9-2.6-9.1,0-12.8c-4.4,3.2-8.7,3.2-12.8,0
						C501,60.4,501,64.7,498.5,68.6z"/>
				</g>
			</g>
		</g>
	</g>
	<g transform="matrix( 1, 0, 0, 1, -62.5,-94.6) ">
		<g>
			<g>
				
					<radialGradient id="SVGID_70_" cx="211.1486" cy="398.4799" r="3.9375" gradientTransform="matrix(1 0 0 -1 23.7551 763.3122)" gradientUnits="userSpaceOnUse">
					<stop  offset="0" style="stop-color:#FFFFFF"/>
					<stop  offset="1" style="stop-color:#1C96E0"/>
				</radialGradient>
				<path class="st72" d="M233.9,366c0.3,0.3,0.6,0.4,1,0.4c0.4,0,0.7-0.1,0.9-0.4c0.3-0.3,0.4-0.6,0.4-0.9c0-0.4-0.1-0.7-0.4-1
					c-0.3-0.3-0.6-0.4-0.9-0.4s-0.7,0.1-1,0.4c-0.3,0.3-0.4,0.6-0.4,1C233.5,365.4,233.6,365.8,233.9,366z"/>
			</g>
		</g>
	</g>
	<g transform="matrix( 1, 0, 0, 1, -6.5,-143.25) ">
		<g>
			<g>
				
					<radialGradient id="SVGID_71_" cx="155.1486" cy="447.1299" r="3.9375" gradientTransform="matrix(1 0 0 -1 79.7551 811.9622)" gradientUnits="userSpaceOnUse">
					<stop  offset="0" style="stop-color:#FFFFFF"/>
					<stop  offset="1" style="stop-color:#1C96E0"/>
				</radialGradient>
				<path class="st73" d="M233.9,366c0.3,0.3,0.6,0.4,1,0.4c0.4,0,0.7-0.1,0.9-0.4c0.3-0.3,0.4-0.6,0.4-0.9c0-0.4-0.1-0.7-0.4-1
					c-0.3-0.3-0.6-0.4-0.9-0.4s-0.7,0.1-1,0.4c-0.3,0.3-0.4,0.6-0.4,1C233.5,365.4,233.6,365.8,233.9,366z"/>
			</g>
		</g>
	</g>
	<g transform="matrix( 1, 0, 0, 1, -24.6,-159.45) ">
		<g>
			<g>
				
					<radialGradient id="SVGID_72_" cx="173.2486" cy="463.3299" r="3.9375" gradientTransform="matrix(1 0 0 -1 61.6551 828.1622)" gradientUnits="userSpaceOnUse">
					<stop  offset="0" style="stop-color:#FFFFFF"/>
					<stop  offset="1" style="stop-color:#1C96E0"/>
				</radialGradient>
				<path class="st74" d="M233.9,366c0.3,0.3,0.6,0.4,1,0.4c0.4,0,0.7-0.1,0.9-0.4c0.3-0.3,0.4-0.6,0.4-0.9c0-0.4-0.1-0.7-0.4-1
					c-0.3-0.3-0.6-0.4-0.9-0.4s-0.7,0.1-1,0.4c-0.3,0.3-0.4,0.6-0.4,1C233.5,365.4,233.6,365.8,233.9,366z"/>
			</g>
		</g>
	</g>
	<g id="___1_104_" transform="matrix( 1, 0, 0, 1, 157.75,220.05) ">
		<g id="___1_105_">
			<g transform="matrix( 0.1918487548828125, 0.1918487548828125, -0.1918487548828125, 0.1918487548828125, -77.1,-109.35) ">
				<g>
					<g>
						
							<radialGradient id="SVGID_73_" cx="2563.1406" cy="-341.5977" r="10.0125" gradientTransform="matrix(0.1918 -0.1918 -0.1918 -0.1918 -55.0799 499.4983)" gradientUnits="userSpaceOnUse">
							<stop  offset="0" style="stop-color:#FFFFFF"/>
							<stop  offset="1" style="stop-color:#84E3ED"/>
						</radialGradient>
						<path class="st75" d="M495.5,79.4c3.7-2.4,8-2.4,12.8,0c-2.6-4.9-2.6-9.1,0-12.8c-4.4,3.2-8.7,3.2-12.8,0
							C497.9,71.2,497.9,75.5,495.5,79.4z"/>
					</g>
				</g>
			</g>
		</g>
	</g>
	<g id="___1_103_" transform="matrix( 1, 0, 0, 1, 164.05,216.05) ">
		<g transform="matrix( 0.0966949462890625, 0.0966949462890625, -0.0966949462890625, 0.0966949462890625, -38.85,-55.1) ">
			<g>
				<g>
					
						<radialGradient id="SVGID_74_" cx="8537.9004" cy="-3256.6592" r="10.0125" gradientTransform="matrix(9.669495e-02 -9.669495e-02 -9.669495e-02 -9.669495e-02 -635.2415 573.1409)" gradientUnits="userSpaceOnUse">
						<stop  offset="0" style="stop-color:#FFFFFF"/>
						<stop  offset="1" style="stop-color:#84E3ED"/>
					</radialGradient>
					<path class="st76" d="M498.5,68.6c3.7-2.4,8-2.4,12.8,0c-2.6-4.9-2.6-9.1,0-12.8c-4.4,3.2-8.7,3.2-12.8,0
						C501,60.4,501,64.7,498.5,68.6z"/>
				</g>
			</g>
		</g>
	</g>
	<g transform="matrix( 0.647064208984375, 0, 0, 0.647064208984375, 221.3,-47.5) ">
		<g>
			<g>
				
					<radialGradient id="SVGID_75_" cx="13.0246" cy="462.0129" r="2.475" gradientTransform="matrix(0.6471 0 0 -0.6471 141.5007 669.6067)" gradientUnits="userSpaceOnUse">
					<stop  offset="0" style="stop-color:#FFFFFF"/>
					<stop  offset="1" style="stop-color:#1C96E0"/>
				</radialGradient>
				<path class="st77" d="M149.8,370c-0.2,0-0.4,0.1-0.6,0.3c-0.2,0.2-0.3,0.4-0.3,0.6c0,0.2,0.1,0.4,0.3,0.6
					c0.2,0.2,0.4,0.3,0.6,0.3c0.2,0,0.4-0.1,0.6-0.3s0.3-0.4,0.3-0.6c0-0.2-0.1-0.4-0.3-0.6C150.3,370,150.1,370,149.8,370z"/>
			</g>
		</g>
	</g>
	<g id="___1_101_" transform="matrix( 1, 0, 0, 1, 158.95,198.15) ">
		<g id="___1_102_">
			<g transform="matrix( 0.1918487548828125, 0.1918487548828125, -0.1918487548828125, 0.1918487548828125, -77.1,-109.35) ">
				<g>
					<g>
						
							<radialGradient id="SVGID_76_" cx="2617.0894" cy="-281.394" r="10.0125" gradientTransform="matrix(0.1918 -0.1918 -0.1918 -0.1918 -53.8799 521.3983)" gradientUnits="userSpaceOnUse">
							<stop  offset="0" style="stop-color:#FFFFFF"/>
							<stop  offset="1" style="stop-color:#84E3ED"/>
						</radialGradient>
						<path class="st78" d="M495.5,79.4c3.7-2.4,8-2.4,12.8,0c-2.6-4.9-2.6-9.1,0-12.8c-4.4,3.2-8.7,3.2-12.8,0
							C497.9,71.2,497.9,75.5,495.5,79.4z"/>
					</g>
				</g>
			</g>
		</g>
	</g>
	<g id="___1_100_" transform="matrix( 1, 0, 0, 1, 158,215.2) ">
		<g transform="matrix( 0.0966949462890625, 0.0966949462890625, -0.0966949462890625, 0.0966949462890625, -38.85,-55.1) ">
			<g>
				<g>
					
						<radialGradient id="SVGID_77_" cx="8573.5801" cy="-3283.5479" r="10.0125" gradientTransform="matrix(9.669495e-02 -9.669495e-02 -9.669495e-02 -9.669495e-02 -641.2916 573.9909)" gradientUnits="userSpaceOnUse">
						<stop  offset="0" style="stop-color:#FFFFFF"/>
						<stop  offset="1" style="stop-color:#84E3ED"/>
					</radialGradient>
					<path class="st79" d="M498.5,68.6c3.7-2.4,8-2.4,12.8,0c-2.6-4.9-2.6-9.1,0-12.8c-4.4,3.2-8.7,3.2-12.8,0
						C501,60.4,501,64.7,498.5,68.6z"/>
				</g>
			</g>
		</g>
	</g>
	<g id="___1_98_" transform="matrix( 1, 0, 0, 1, 349.4,145.65) ">
		<g id="___1_99_">
			<g transform="matrix( 0.1918487548828125, 0.1918487548828125, -0.1918487548828125, 0.1918487548828125, -77.1,-109.35) ">
				<g>
					<g>
						
							<radialGradient id="SVGID_78_" cx="2257.5618" cy="351.7862" r="10.0125" gradientTransform="matrix(0.1918 -0.1918 -0.1918 -0.1918 136.5699 573.8982)" gradientUnits="userSpaceOnUse">
							<stop  offset="0" style="stop-color:#FFFFFF"/>
							<stop  offset="1" style="stop-color:#84E3ED"/>
						</radialGradient>
						<path class="st80" d="M495.5,79.4c3.7-2.4,8-2.4,12.8,0c-2.6-4.9-2.6-9.1,0-12.8c-4.4,3.2-8.7,3.2-12.8,0
							C497.9,71.2,497.9,75.5,495.5,79.4z"/>
					</g>
				</g>
			</g>
		</g>
	</g>
	<g id="___1_97_" transform="matrix( 1, 0, 0, 1, 357.4,142.95) ">
		<g transform="matrix( 0.0966949462890625, 0.0966949462890625, -0.0966949462890625, 0.0966949462890625, -38.85,-55.1) ">
			<g>
				<g>
					
						<radialGradient id="SVGID_79_" cx="7916.1006" cy="-1878.8734" r="10.0125" gradientTransform="matrix(9.669495e-02 -9.669495e-02 -9.669495e-02 -9.669495e-02 -441.8917 646.2408)" gradientUnits="userSpaceOnUse">
						<stop  offset="0" style="stop-color:#FFFFFF"/>
						<stop  offset="1" style="stop-color:#84E3ED"/>
					</radialGradient>
					<path class="st81" d="M498.5,68.6c3.7-2.4,8-2.4,12.8,0c-2.6-4.9-2.6-9.1,0-12.8c-4.4,3.2-8.7,3.2-12.8,0
						C501,60.4,501,64.7,498.5,68.6z"/>
				</g>
			</g>
		</g>
	</g>
	<g id="___1_96_" transform="matrix( 1, 0, 0, 1, 358.6,138.95) ">
		<g transform="matrix( 0.0966949462890625, 0.0966949462890625, -0.0966949462890625, 0.0966949462890625, -38.85,-55.1) ">
			<g>
				<g>
					
						<radialGradient id="SVGID_80_" cx="7930.5791" cy="-1851.9847" r="10.0125" gradientTransform="matrix(9.669495e-02 -9.669495e-02 -9.669495e-02 -9.669495e-02 -440.6917 650.2408)" gradientUnits="userSpaceOnUse">
						<stop  offset="0" style="stop-color:#FFFFFF"/>
						<stop  offset="1" style="stop-color:#84E3ED"/>
					</radialGradient>
					<path class="st82" d="M498.5,68.6c3.7-2.4,8-2.4,12.8,0c-2.6-4.9-2.6-9.1,0-12.8c-4.4,3.2-8.7,3.2-12.8,0
						C501,60.4,501,64.7,498.5,68.6z"/>
				</g>
			</g>
		</g>
	</g>
	<g transform="matrix( 0.703704833984375, 0, 0, 0.703704833984375, 182.2,-66.8) ">
		<g>
			<g>
				
					<radialGradient id="SVGID_81_" cx="41.2633" cy="469.2427" r="3.9375" gradientTransform="matrix(0.7037 0 0 -0.7037 113.2049 695.0016)" gradientUnits="userSpaceOnUse">
					<stop  offset="0" style="stop-color:#FFFFFF"/>
					<stop  offset="1" style="stop-color:#1C96E0"/>
				</radialGradient>
				<path class="st83" d="M143.1,364.1c-0.3-0.3-0.6-0.4-0.9-0.4s-0.7,0.1-0.9,0.4c-0.3,0.3-0.4,0.6-0.4,1c0,0.4,0.1,0.7,0.4,0.9
					c0.3,0.3,0.6,0.4,0.9,0.4c0.4,0,0.7-0.1,0.9-0.4s0.4-0.6,0.4-0.9C143.5,364.7,143.4,364.4,143.1,364.1z"/>
			</g>
		</g>
	</g>
	<g transform="matrix( 0.647064208984375, 0, 0, 0.647064208984375, 252.7,-106.15) ">
		<g>
			<g>
				
					<radialGradient id="SVGID_82_" cx="-35.5022" cy="552.6531" r="2.475" gradientTransform="matrix(0.6471 0 0 -0.6471 172.9007 728.2567)" gradientUnits="userSpaceOnUse">
					<stop  offset="0" style="stop-color:#FFFFFF"/>
					<stop  offset="1" style="stop-color:#1C96E0"/>
				</radialGradient>
				<path class="st84" d="M149.8,370c-0.2,0-0.4,0.1-0.6,0.3c-0.2,0.2-0.3,0.4-0.3,0.6c0,0.2,0.1,0.4,0.3,0.6
					c0.2,0.2,0.4,0.3,0.6,0.3c0.2,0,0.4-0.1,0.6-0.3s0.3-0.4,0.3-0.6c0-0.2-0.1-0.4-0.3-0.6C150.3,370,150.1,370,149.8,370z"/>
			</g>
		</g>
	</g>
	<g transform="matrix( 0.703704833984375, 0, 0, 0.703704833984375, 187.1,-86.65) ">
		<g>
			<g>
				
					<radialGradient id="SVGID_83_" cx="34.3001" cy="497.4506" r="3.9375" gradientTransform="matrix(0.7037 0 0 -0.7037 118.1049 714.8516)" gradientUnits="userSpaceOnUse">
					<stop  offset="0" style="stop-color:#FFFFFF"/>
					<stop  offset="1" style="stop-color:#1C96E0"/>
				</radialGradient>
				<path class="st85" d="M143.1,364.1c-0.3-0.3-0.6-0.4-0.9-0.4s-0.7,0.1-0.9,0.4c-0.3,0.3-0.4,0.6-0.4,1c0,0.4,0.1,0.7,0.4,0.9
					c0.3,0.3,0.6,0.4,0.9,0.4c0.4,0,0.7-0.1,0.9-0.4s0.4-0.6,0.4-0.9C143.5,364.7,143.4,364.4,143.1,364.1z"/>
			</g>
		</g>
	</g>
	<g transform="matrix( 0.703704833984375, 0, 0, 0.703704833984375, 198.6,-83.3) ">
		<g>
			<g>
				
					<radialGradient id="SVGID_84_" cx="17.9581" cy="492.6901" r="3.9375" gradientTransform="matrix(0.7037 0 0 -0.7037 129.6049 711.5016)" gradientUnits="userSpaceOnUse">
					<stop  offset="0" style="stop-color:#FFFFFF"/>
					<stop  offset="1" style="stop-color:#1C96E0"/>
				</radialGradient>
				<path class="st86" d="M143.1,364.1c-0.3-0.3-0.6-0.4-0.9-0.4s-0.7,0.1-0.9,0.4c-0.3,0.3-0.4,0.6-0.4,1c0,0.4,0.1,0.7,0.4,0.9
					c0.3,0.3,0.6,0.4,0.9,0.4c0.4,0,0.7-0.1,0.9-0.4s0.4-0.6,0.4-0.9C143.5,364.7,143.4,364.4,143.1,364.1z"/>
			</g>
		</g>
	</g>
	<g transform="matrix( 0.647064208984375, 0, 0, 0.647064208984375, 202.95,-63.2) ">
		<g>
			<g>
				
					<radialGradient id="SVGID_85_" cx="41.3835" cy="486.2764" r="2.475" gradientTransform="matrix(0.6471 0 0 -0.6471 123.1507 685.3067)" gradientUnits="userSpaceOnUse">
					<stop  offset="0" style="stop-color:#FFFFFF"/>
					<stop  offset="1" style="stop-color:#1C96E0"/>
				</radialGradient>
				<path class="st87" d="M149.8,370c-0.2,0-0.4,0.1-0.6,0.3c-0.2,0.2-0.3,0.4-0.3,0.6c0,0.2,0.1,0.4,0.3,0.6
					c0.2,0.2,0.4,0.3,0.6,0.3c0.2,0,0.4-0.1,0.6-0.3s0.3-0.4,0.3-0.6c0-0.2-0.1-0.4-0.3-0.6C150.3,370,150.1,370,149.8,370z"/>
			</g>
		</g>
	</g>
	<g transform="matrix( 0.647064208984375, 0, 0, 0.647064208984375, 190.55,-74.5) ">
		<g>
			<g>
				
					<radialGradient id="SVGID_86_" cx="60.547" cy="503.7399" r="2.475" gradientTransform="matrix(0.6471 0 0 -0.6471 110.7507 696.6067)" gradientUnits="userSpaceOnUse">
					<stop  offset="0" style="stop-color:#FFFFFF"/>
					<stop  offset="1" style="stop-color:#1C96E0"/>
				</radialGradient>
				<path class="st88" d="M149.8,370c-0.2,0-0.4,0.1-0.6,0.3c-0.2,0.2-0.3,0.4-0.3,0.6c0,0.2,0.1,0.4,0.3,0.6
					c0.2,0.2,0.4,0.3,0.6,0.3c0.2,0,0.4-0.1,0.6-0.3s0.3-0.4,0.3-0.6c0-0.2-0.1-0.4-0.3-0.6C150.3,370,150.1,370,149.8,370z"/>
			</g>
		</g>
	</g>
	<g id="___1_95_" transform="matrix( 1, 0, 0, 1, 298.95,188.15) ">
		<g transform="matrix( 0.0966949462890625, 0.0966949462890625, -0.0966949462890625, 0.0966949462890625, -38.85,-55.1) ">
			<g>
				<g>
					
						<radialGradient id="SVGID_87_" cx="7984.6147" cy="-2414.8369" r="10.0125" gradientTransform="matrix(9.669495e-02 -9.669495e-02 -9.669495e-02 -9.669495e-02 -500.3416 601.0409)" gradientUnits="userSpaceOnUse">
						<stop  offset="0" style="stop-color:#FFFFFF"/>
						<stop  offset="1" style="stop-color:#84E3ED"/>
					</radialGradient>
					<path class="st89" d="M498.5,68.6c3.7-2.4,8-2.4,12.8,0c-2.6-4.9-2.6-9.1,0-12.8c-4.4,3.2-8.7,3.2-12.8,0
						C501,60.4,501,64.7,498.5,68.6z"/>
				</g>
			</g>
		</g>
	</g>
	<g id="___1_94_" transform="matrix( 1, 0, 0, 1, 294.45,184.4) ">
		<g transform="matrix( 0.0966949462890625, 0.0966949462890625, -0.0966949462890625, 0.0966949462890625, -38.85,-55.1) ">
			<g>
				<g>
					
						<radialGradient id="SVGID_88_" cx="8027.2749" cy="-2418.7151" r="10.0125" gradientTransform="matrix(9.669495e-02 -9.669495e-02 -9.669495e-02 -9.669495e-02 -504.8416 604.7909)" gradientUnits="userSpaceOnUse">
						<stop  offset="0" style="stop-color:#FFFFFF"/>
						<stop  offset="1" style="stop-color:#84E3ED"/>
					</radialGradient>
					<path class="st90" d="M498.5,68.6c3.7-2.4,8-2.4,12.8,0c-2.6-4.9-2.6-9.1,0-12.8c-4.4,3.2-8.7,3.2-12.8,0
						C501,60.4,501,64.7,498.5,68.6z"/>
				</g>
			</g>
		</g>
	</g>
	<g transform="matrix( 0.703704833984375, 0, 0, 0.703704833984375, 221.3,-57.4) ">
		<g>
			<g>
				
					<radialGradient id="SVGID_89_" cx="-14.2998" cy="455.8849" r="3.9375" gradientTransform="matrix(0.7037 0 0 -0.7037 152.3049 685.6016)" gradientUnits="userSpaceOnUse">
					<stop  offset="0" style="stop-color:#FFFFFF"/>
					<stop  offset="1" style="stop-color:#1C96E0"/>
				</radialGradient>
				<path class="st91" d="M143.1,364.1c-0.3-0.3-0.6-0.4-0.9-0.4s-0.7,0.1-0.9,0.4c-0.3,0.3-0.4,0.6-0.4,1c0,0.4,0.1,0.7,0.4,0.9
					c0.3,0.3,0.6,0.4,0.9,0.4c0.4,0,0.7-0.1,0.9-0.4s0.4-0.6,0.4-0.9C143.5,364.7,143.4,364.4,143.1,364.1z"/>
			</g>
		</g>
	</g>
	<g transform="matrix( 0.5212554931640625, 0, 0, 0.5212554931640625, 249.7,-0.95) ">
		<g>
			<g>
				
					<radialGradient id="SVGID_90_" cx="68.0554" cy="415.4374" r="3.9375" gradientTransform="matrix(0.5213 0 0 -0.5213 108.1129 580.5878)" gradientUnits="userSpaceOnUse">
					<stop  offset="0" style="stop-color:#FFFFFF"/>
					<stop  offset="1" style="stop-color:#1C96E0"/>
				</radialGradient>
				<path class="st92" d="M144.4,363.3c-0.3-0.3-0.6-0.4-1-0.4c-0.4,0-0.7,0.1-0.9,0.4c-0.3,0.3-0.4,0.6-0.4,1
					c0,0.4,0.1,0.7,0.4,0.9c0.3,0.3,0.6,0.4,0.9,0.4c0.4,0,0.7-0.1,1-0.4s0.4-0.6,0.4-0.9C144.8,363.9,144.7,363.6,144.4,363.3z"/>
			</g>
		</g>
	</g>
	<g transform="matrix( 0.703704833984375, 0, 0, 0.703704833984375, 245.85,-99.7) ">
		<g>
			<g>
				
					<radialGradient id="SVGID_91_" cx="-49.1866" cy="515.9953" r="3.9375" gradientTransform="matrix(0.7037 0 0 -0.7037 176.8549 727.9016)" gradientUnits="userSpaceOnUse">
					<stop  offset="0" style="stop-color:#FFFFFF"/>
					<stop  offset="1" style="stop-color:#1C96E0"/>
				</radialGradient>
				<path class="st93" d="M143.1,364.1c-0.3-0.3-0.6-0.4-0.9-0.4s-0.7,0.1-0.9,0.4c-0.3,0.3-0.4,0.6-0.4,1c0,0.4,0.1,0.7,0.4,0.9
					c0.3,0.3,0.6,0.4,0.9,0.4c0.4,0,0.7-0.1,0.9-0.4s0.4-0.6,0.4-0.9C143.5,364.7,143.4,364.4,143.1,364.1z"/>
			</g>
		</g>
	</g>
	<g transform="matrix( 0.703704833984375, 0, 0, 0.703704833984375, 243.95,-109.5) ">
		<g>
			<g>
				
					<radialGradient id="SVGID_92_" cx="-46.4865" cy="529.9216" r="3.9375" gradientTransform="matrix(0.7037 0 0 -0.7037 174.9549 737.7016)" gradientUnits="userSpaceOnUse">
					<stop  offset="0" style="stop-color:#FFFFFF"/>
					<stop  offset="1" style="stop-color:#1C96E0"/>
				</radialGradient>
				<path class="st94" d="M143.1,364.1c-0.3-0.3-0.6-0.4-0.9-0.4s-0.7,0.1-0.9,0.4c-0.3,0.3-0.4,0.6-0.4,1c0,0.4,0.1,0.7,0.4,0.9
					c0.3,0.3,0.6,0.4,0.9,0.4c0.4,0,0.7-0.1,0.9-0.4s0.4-0.6,0.4-0.9C143.5,364.7,143.4,364.4,143.1,364.1z"/>
			</g>
		</g>
	</g>
	<g transform="matrix( 0.647064208984375, 0, 0, 0.647064208984375, 245.5,-102.2) ">
		<g>
			<g>
				
					<radialGradient id="SVGID_93_" cx="-24.3751" cy="546.5486" r="2.475" gradientTransform="matrix(0.6471 0 0 -0.6471 165.7007 724.3067)" gradientUnits="userSpaceOnUse">
					<stop  offset="0" style="stop-color:#FFFFFF"/>
					<stop  offset="1" style="stop-color:#1C96E0"/>
				</radialGradient>
				<path class="st95" d="M149.8,370c-0.2,0-0.4,0.1-0.6,0.3c-0.2,0.2-0.3,0.4-0.3,0.6c0,0.2,0.1,0.4,0.3,0.6
					c0.2,0.2,0.4,0.3,0.6,0.3c0.2,0,0.4-0.1,0.6-0.3s0.3-0.4,0.3-0.6c0-0.2-0.1-0.4-0.3-0.6C150.3,370,150.1,370,149.8,370z"/>
			</g>
		</g>
	</g>
	<g transform="matrix( 0.647064208984375, 0, 0, 0.647064208984375, 247.4,-105.05) ">
		<g>
			<g>
				
					<radialGradient id="SVGID_94_" cx="-27.3114" cy="550.9531" r="2.475" gradientTransform="matrix(0.6471 0 0 -0.6471 167.6007 727.1567)" gradientUnits="userSpaceOnUse">
					<stop  offset="0" style="stop-color:#FFFFFF"/>
					<stop  offset="1" style="stop-color:#1C96E0"/>
				</radialGradient>
				<path class="st96" d="M149.8,370c-0.2,0-0.4,0.1-0.6,0.3c-0.2,0.2-0.3,0.4-0.3,0.6c0,0.2,0.1,0.4,0.3,0.6
					c0.2,0.2,0.4,0.3,0.6,0.3c0.2,0,0.4-0.1,0.6-0.3s0.3-0.4,0.3-0.6c0-0.2-0.1-0.4-0.3-0.6C150.3,370,150.1,370,149.8,370z"/>
			</g>
		</g>
	</g>
</g>
</svg>
