<?xml version="1.0" encoding="utf-8"?>
<!-- Generator: Adobe Illustrator 24.2.1, SVG Export Plug-In . SVG Version: 6.00 Build 0)  -->
<svg version="1.1" id="金牛座" xmlns="http://www.w3.org/2000/svg" xmlns:xlink="http://www.w3.org/1999/xlink" x="0px" y="0px"
	 viewBox="0 0 550 400" style="enable-background:new 0 0 550 400;" xml:space="preserve">
<style type="text/css">
	.st0{stroke:#000000;stroke-miterlimit:10;}
	.st1{fill:#111C2E;}
	.st2{fill:url(#SVGID_1_);}
	.st3{fill:url(#SVGID_2_);}
	.st4{fill:#9BF0F3;}
	.st5{fill:url(#SVGID_3_);}
	.st6{fill:url(#SVGID_4_);}
	.st7{fill:url(#SVGID_5_);}
	.st8{fill:url(#SVGID_6_);}
	.st9{fill:none;stroke:#9BF0F3;stroke-linecap:round;stroke-linejoin:round;}
	.st10{fill:url(#SVGID_7_);}
	.st11{fill:url(#SVGID_8_);}
	.st12{fill:url(#SVGID_9_);}
	.st13{fill:url(#SVGID_10_);}
	.st14{fill:url(#SVGID_11_);}
	.st15{fill:url(#SVGID_12_);}
	.st16{fill:url(#SVGID_13_);}
	.st17{fill:url(#SVGID_14_);}
	.st18{fill:url(#SVGID_15_);}
	.st19{fill:url(#SVGID_16_);}
	.st20{fill:url(#SVGID_17_);}
	.st21{fill:url(#SVGID_18_);}
	.st22{fill:url(#SVGID_19_);}
	.st23{fill:url(#SVGID_20_);}
	.st24{fill:url(#SVGID_21_);}
	.st25{fill:url(#SVGID_22_);}
	.st26{fill:url(#SVGID_23_);}
	.st27{fill:url(#SVGID_24_);}
	.st28{fill:url(#SVGID_25_);}
	.st29{fill:url(#SVGID_26_);}
	.st30{fill:url(#SVGID_27_);}
	.st31{fill:url(#SVGID_28_);}
	.st32{fill:url(#SVGID_29_);}
	.st33{fill:url(#SVGID_30_);}
	.st34{fill:url(#SVGID_31_);}
	.st35{fill:url(#SVGID_32_);}
	.st36{fill:url(#SVGID_33_);}
	.st37{fill:url(#SVGID_34_);}
	.st38{fill:url(#SVGID_35_);}
	.st39{fill:url(#SVGID_36_);}
	.st40{fill:url(#SVGID_37_);}
	.st41{fill:url(#SVGID_38_);}
	.st42{fill:url(#SVGID_39_);}
	.st43{fill:url(#SVGID_40_);}
	.st44{fill:url(#SVGID_41_);}
	.st45{fill:url(#SVGID_42_);}
	.st46{fill:url(#SVGID_43_);}
	.st47{fill:url(#SVGID_44_);}
	.st48{fill:url(#SVGID_45_);}
	.st49{fill:url(#SVGID_46_);}
	.st50{fill:url(#SVGID_47_);}
	.st51{fill:url(#SVGID_48_);}
	.st52{fill:url(#SVGID_49_);}
	.st53{fill:url(#SVGID_50_);}
	.st54{fill:url(#SVGID_51_);}
	.st55{fill:url(#SVGID_52_);}
	.st56{fill:url(#SVGID_53_);}
	.st57{fill:url(#SVGID_54_);}
	.st58{fill:url(#SVGID_55_);}
	.st59{fill:url(#SVGID_56_);}
	.st60{fill:url(#SVGID_57_);}
	.st61{fill:url(#SVGID_58_);}
	.st62{fill:url(#SVGID_59_);}
	.st63{fill:url(#SVGID_60_);}
	.st64{fill:url(#SVGID_61_);}
	.st65{fill:url(#SVGID_62_);}
	.st66{fill:url(#SVGID_63_);}
	.st67{fill:url(#SVGID_64_);}
	.st68{fill:url(#SVGID_65_);}
	.st69{fill:url(#SVGID_66_);}
	.st70{fill:url(#SVGID_67_);}
	.st71{fill:url(#SVGID_68_);}
	.st72{fill:url(#SVGID_69_);}
	.st73{fill:url(#SVGID_70_);}
	.st74{fill:url(#SVGID_71_);}
	.st75{fill:url(#SVGID_72_);}
	.st76{fill:url(#SVGID_73_);}
	.st77{fill:url(#SVGID_74_);}
	.st78{fill:url(#SVGID_75_);}
	.st79{fill:url(#SVGID_76_);}
	.st80{fill:url(#SVGID_77_);}
	.st81{fill:url(#SVGID_78_);}
	.st82{fill:url(#SVGID_79_);}
	.st83{fill:url(#SVGID_80_);}
	.st84{fill:url(#SVGID_81_);}
	.st85{fill:url(#SVGID_82_);}
	.st86{fill:url(#SVGID_83_);}
	.st87{fill:url(#SVGID_84_);}
	.st88{fill:url(#SVGID_85_);}
	.st89{fill:url(#SVGID_86_);}
	.st90{fill:url(#SVGID_87_);}
	.st91{fill:url(#SVGID_88_);}
	.st92{fill:url(#SVGID_89_);}
	.st93{fill:url(#SVGID_90_);}
</style>
<rect id="BG" class="st0" width="550" height="400"/>
<g id="牛">
	<g>
		<g>
			<g>
				<path d="M203,199.2L203,199.2L203,199.2L203,199.2 M233.1,185c0,0,0.1,0.1,0.1,0.1c0-0.1,0.1-0.1,0.1-0.3L233.1,185
					 M296.8,231.4l-0.3,0.4c0.1-0.1,0.3-0.2,0.4-0.3C296.9,231.5,296.9,231.5,296.8,231.4 M272.8,218C272.8,218,272.8,218,272.8,218
					c-0.1,0.1-0.1,0.3-0.2,0.4L272.8,218 M301.9,109.5c1.6,1.1,3.4,2.5,5.3,4C305.9,112.1,304.1,110.7,301.9,109.5 M246,152.2
					l0.1-0.4l-0.2-0.1c0,0.1,0,0.1,0,0.1C246,152,246,152.1,246,152.2z"/>
				<path class="st1" d="M275.1,203.6c-0.5,0-1,0.2-1.5,0.6c-0.5,0.4-0.8,1-0.8,1.7c0,0.6,0.2,1.7,0.5,3.1s0.5,2.7,0.5,3.7
					c0,1.7-0.3,3.4-0.9,4.9c1.7-0.2,2.8-0.5,3.5-1.1c0.2-0.1,0.3-0.3,0.4-0.4c0.4-0.4,0.7-1,1-2c0.3-1.1,0.4-2.2,0.4-3.2
					c0-1.5-0.2-2.9-0.6-4.3C277.1,204.6,276.2,203.6,275.1,203.6z"/>
				
					<radialGradient id="SVGID_1_" cx="164.1177" cy="319.1882" r="182" gradientTransform="matrix(1 0 0 -1 58.5551 487.8622)" gradientUnits="userSpaceOnUse">
					<stop  offset="0.102" style="stop-color:#111C2E"/>
					<stop  offset="0.1922" style="stop-color:#16314F"/>
					<stop  offset="0.4" style="stop-color:#1F6FC7"/>
					<stop  offset="0.5255" style="stop-color:#4BE4F1"/>
					<stop  offset="0.651" style="stop-color:#4EF3F7"/>
					<stop  offset="0.9608" style="stop-color:#205CE0"/>
					<stop  offset="1" style="stop-color:#205CE0"/>
				</radialGradient>
				<path class="st2" d="M178.1,210.7c-1.2-0.6-4.1-2.4-8.7-5.3c-6.1-3.9-11.8-6.2-17.1-7.1c-1.7-0.3-3.3-0.5-4.9-0.5
					c-4.9,0-9.8,1.3-14.6,3.9c-3.7,2-6.5,4.4-8.5,7.1c1.7-0.8,3.7-1.6,6.1-2.2c4.4-1.1,8.4-1.6,11.9-1.6c3.6,0.1,7,0.7,10,1.7
					c1.5,0.5,2.9,1.1,4.3,1.8c3.7,2,8.4,5.6,14.1,11.1c3.1,2.9,6.8,5,10.9,6.3c3,0.9,6.8,1.4,11.3,1.5c5.8,0.2,10.7-0.9,14.8-3.3
					c-0.1-0.9-0.1-1.9-0.1-3c0-3.4,0.2-6.1,0.6-7.9c0.4-1.9,1.6-5.3,3.5-10.1c-3.5-0.2-6.3-1.6-8.5-4l-0.1-0.1
					c-0.9,3.8-2.5,6.9-4.9,9.3c-3.1,3.1-6.9,4.6-11.3,4.6C184.1,213,181.2,212.2,178.1,210.7 M236,124.1c-0.4-0.6-0.9-1.2-1.3-1.7
					c-4.2-5.1-10.2-7.6-17.9-7.6c-0.3,0-0.5,0-0.8,0.1c-6.2,0.2-11.7,2.1-16.5,5.8c-3.2,2.5-7.1,6.7-11.7,12.8
					c-4.7,6.4-8.4,10.6-10.9,12.8c-4.6,3.9-9.7,5.8-15.5,5.8c-3.1,0-6.2-0.3-9.2-0.9c-3.1-0.6-6.1-1.5-9.1-2.6
					c-4.5-1.8-9.5-4.6-15-8.4c1.8,6.2,5.8,11.3,11.8,15.3c3.7,2.5,7.8,4.3,12.3,5.5c3.8,1,8,1.6,12.3,1.7c7.2,0.1,13.1-1.4,17.7-4.4
					c3.2-2.1,6.3-5.6,9.3-10.3c3.7-5.8,6-9.2,7.1-10.3c3-3.1,6.7-4.7,11.1-4.6c4.1,0.1,7.3,1.4,9.6,3.8c0.4,0.5,0.9,1,1.3,1.5
					c1.9,2.7,2.8,6,2.8,9.9c0,0.3,0,0.7-0.1,1.1c0,0.3,0,0.5,0,0.8c0.1,2.6,0.3,4.6,0.6,5.9c0,0.1,0.1,0.3,0.1,0.3
					c0.2,1.7,0.8,3.3,1.9,4.7c0.6,0.8,2,2.1,4.3,4c1.8,1.5,3.1,3,4.1,4.6c1.4,2.2,2.1,4.5,2.1,6.9c0,1-0.2,1.8-0.6,2.3
					c-0.4,0.5-1.2,0.8-2.2,0.8c-0.3,0-0.5,0-0.7-0.1c0.5,1.1,0.7,2.1,0.7,3.1s-0.1,1.8-0.3,2.3c0,0.1-0.1,0.2-0.1,0.3
					c2.3,3.1,3.4,5.4,3.4,6.8v0.9c-0.1,0.4-0.4,0.6-0.9,0.6c-1.1,0-2.3-0.4-3.4-1.3c-0.5-0.4-1-0.8-1.5-1.3c0.1,0.7,0.1,1.5,0.2,2.4
					c0.3,3.2,0.4,5.4,0.4,6.4c0,1.1-0.1,1.9-0.2,2.4c-0.3,0.9-0.8,1.4-1.6,1.4c-1.6,0-2.9-1-3.7-2.9c-0.8-1.9-2-2.9-3.6-2.9
					c-0.7,0-2.1,0.9-4.3,2.8c-0.3,0.2-0.5,0.5-0.8,0.7c-1.8,1.4-3.3,2.1-4.7,2.1c-0.4,0-0.7,0-1.1,0c-1.9,4.8-3.1,8.2-3.5,10.1
					c-0.4,1.8-0.6,4.4-0.6,7.9c0,1.1,0,2.1,0.1,3c0.2,2.9,0.9,4.4,1.9,4.4c0.3,0,0.8-1.3,1.4-3.9c0.4-1.8,1.2-3.5,2.2-4.9
					c0.3-0.5,0.6-0.9,1.1-1.4c0.5-0.6,1-1.1,1.6-1.6c2.4-2,4-3.7,4.8-5c0.7-1.2,1.2-2.5,1.6-3.9c0.2-1.3,0.3-2.7,0.3-4.3
					c0,1.5-0.1,3-0.3,4.3c1.6,1.9,3.4,3.3,5.4,4.4c1.8,0.9,4.2,1.8,7.3,2.8c2.4,1.2,5,2.7,7.8,4.4c2.2,1.2,4.7,1.8,7.6,1.8
					c0.6,0,1.4-0.4,2.4-1.2c0.3-0.2,0.6-0.5,1.1-0.8c-0.3-0.2-0.6-0.5-0.9-0.9c-0.2-0.2-1.3-2-3.4-5.4c2.1,3.4,3.2,5.2,3.4,5.4
					c0.3,0.3,0.6,0.6,0.9,0.9c0.8,0.6,1.7,0.9,2.8,0.9c0.6,0,1.8-0.5,3.5-1.6c0.1-0.1,0.2-0.1,0.4-0.2c1.8-1,3.1-1.6,3.9-1.9
					c-0.8,0.2-2.1,0.8-3.9,1.9c0.5,0.5,1.1,0.9,2,1.4c0.4,0.2,0.9,0.5,1.4,0.7c2,0.8,3.7,1.2,4.9,1.3c1.8,0,3.2-1.1,4.2-3.4
					c0.1-0.2,0.1-0.3,0.2-0.4c0-0.1,0.1-0.2,0.1-0.3c0.6-1.6,0.9-3.2,0.9-4.9c0-1-0.2-2.2-0.5-3.7s-0.5-2.5-0.5-3.1
					c0-0.7,0.3-1.3,0.8-1.7c0.5-0.4,1-0.6,1.5-0.6c1.1,0,1.9,1,2.5,3c0.4,1.4,0.6,2.8,0.6,4.3c0,1-0.1,2.1-0.4,3.2
					c-0.3,1-0.6,1.6-1,2c-0.1,0.2-0.2,0.3-0.4,0.4c-0.6,0.6-1.8,0.9-3.5,1.1c0,0.1-0.1,0.2-0.1,0.3c0,0,0,0,0,0
					c0.3,0.2,0.7,0.4,1,0.6c0.5,0.2,1.1,0.3,2,0.3c0.9,0,1.7-0.1,2.5-0.4c0.9-0.4,1.7-1,2.4-1.9c-0.6,0.9-1.4,1.6-2.4,1.9
					c0.6,0.2,1.2,0.3,1.8,0.3c2.1,0,3.6-0.6,4.4-1.8c0.5-0.7,0.8-1.8,0.9-3.2c0.1-0.6,0.1-1.2,0.1-1.9c0-2.4-0.9-5.1-2.9-8.1
					c-0.2-0.4-0.5-0.8-0.8-1.1c-0.3-0.4-1.3-1.7-3-3.8c-0.6-0.8-1.4-1.6-2.2-2.6c-0.9-1.1-2.6-3.9-4.9-8.2c-0.2-0.3-0.3-0.6-0.5-0.9
					c-0.6-1-1.1-1.8-1.7-2.5c0.5,0.7,1.1,1.5,1.7,2.5c0.1-1.5,0.2-2.6,0.3-3.6c0.2-6.4-0.3-11.3-1.6-14.9c-1.7-4.7-4.9-8.3-9.8-10.6
					l-14-5.9l-0.1,0.4c0.4,3.2-0.7,5.6-3.3,7.1c-1.2,0.7-2.4,1.2-3.8,1.4c-1.4,0.2-2.8,0.1-4.4-0.2c1.5,0.3,3,0.4,4.4,0.2
					c1.3-0.2,2.6-0.7,3.8-1.4c2.6-1.6,3.7-3.9,3.3-7.1c0-0.1,0-0.2-0.1-0.4c0,0,0,0,0-0.1c-0.2-2.3,0.5-5.5,1.9-9.6
					c0.9-2.2,1.6-3.8,2.1-4.9c0.3-0.8,0.4-1.2,0.4-1.3c0-0.8-0.4-1.2-1.1-1.2c-1.7,0-4.4,2.1-8,6.2c-0.2,0.2-0.3,0.4-0.5,0.6
					c-4.1,4.7-7.1,9.4-9,14.1c1.9-4.7,4.9-9.4,9-14.1c0.2-0.2,0.3-0.4,0.5-0.6C240.6,134,238.8,128.4,236,124.1 M262.8,203.9
					c0-0.4,0.2-0.8,0.6-1.1c0.4-0.3,0.7-0.4,1.1-0.4c0.6,0,1.3,0.3,1.9,1c0.7,0.7,1,1.5,1,2.3c0,0.6-0.1,1-0.4,1.4
					c-0.3,0.4-0.7,0.6-1.2,0.6c0.5-0.1,0.9-0.3,1.2-0.6c0.3-0.4,0.4-0.9,0.4-1.4c0-0.8-0.3-1.6-1-2.3c-0.6-0.7-1.3-1-1.9-1
					c-0.4,0-0.7,0.1-1.1,0.4C263,203.1,262.8,203.5,262.8,203.9c0,1.3,0.2,2.4,0.5,3.2c0.2,0.6,0.8,1.6,1.5,2.9
					c-0.8-1.3-1.3-2.3-1.5-2.9C263,206.3,262.8,205.2,262.8,203.9 M270.5,216.7c0.5-1.4,0.6-2.7,0.3-3.9
					C271.1,214,270.9,215.3,270.5,216.7c-0.1,0.4-0.3,0.8-0.5,1.1c-0.3,0.7-0.7,1.3-1.2,1.6c0.5-0.4,0.9-0.9,1.2-1.6
					C270.2,217.4,270.3,217.1,270.5,216.7 M246,198.8c0.8,0.8,2.1,2.3,3.9,4.4c1.7,1.9,2.8,3.1,3.3,3.7c-0.5-0.6-1.6-1.8-3.3-3.7
					C248.1,201.1,246.8,199.6,246,198.8 M249.4,194.4c-4.2-2.4-4.7-5.9-1.6-10.4C251.8,187.2,252.3,190.7,249.4,194.4 M242.4,210.4
					c-1.8,3.2-4.8,3.4-9,0.8C236.4,208,239.4,207.7,242.4,210.4z"/>
				
					<radialGradient id="SVGID_2_" cx="164.1177" cy="319.1882" r="125.725" gradientTransform="matrix(1 0 0 -1 58.5551 461.8622)" gradientUnits="userSpaceOnUse">
					<stop  offset="0.102" style="stop-color:#111C2E"/>
					<stop  offset="0.1922" style="stop-color:#16314F"/>
					<stop  offset="0.4" style="stop-color:#1F6FC7"/>
					<stop  offset="0.5255" style="stop-color:#4BE4F1"/>
					<stop  offset="0.651" style="stop-color:#4EF3F7"/>
					<stop  offset="0.9608" style="stop-color:#205CE0"/>
					<stop  offset="1" style="stop-color:#205CE0"/>
				</radialGradient>
				<path class="st3" d="M219.4,136.8c-3.9,1.9-7.5,4.9-10.8,9.3c-3.6,4.7-5.9,9.3-6.9,14c-0.2,1-1,3.3-2.4,7
					c-1.1,2.8-1.6,5.3-1.6,7.4c0.1,2.6-0.7,5.1-2.4,7.5c-1.7,2.5-2.6,4.4-2.6,5.7c0,0.3,0.1,0.6,0.4,0.8c0.3,0.3,0.6,0.4,1,0.4
					c1.1,0,3-1.2,5.6-3.6c0.3-0.2,0.5-0.5,0.8-0.8c0.8-0.8,1.7-1.6,2.6-2.6c-1,0.9-1.8,1.8-2.6,2.6c-0.3,0.3-0.5,0.5-0.8,0.8
					c-0.1,1.3-0.2,2.8-0.2,4.3c0,3.9,1.2,7.1,3.6,9.6l0.1,0.1c2.2,2.4,5.1,3.8,8.5,4c0.3,0,0.7,0,1.1,0c1.3,0,2.9-0.7,4.7-2.1
					c0.3-0.2,0.5-0.5,0.8-0.7c2.1-1.9,3.6-2.8,4.3-2.8c1.6,0,2.8,1,3.6,2.9c0.8,1.9,2.1,2.9,3.7,2.9c0.8,0,1.3-0.5,1.6-1.4
					c0.1-0.5,0.2-1.3,0.2-2.4c0-1-0.1-3.2-0.4-6.4c-0.1-0.9-0.1-1.8-0.2-2.4c0.4,0.5,0.9,0.9,1.5,1.3c1.2,0.9,2.3,1.3,3.4,1.3
					c0.5,0,0.8-0.2,0.9-0.6v-0.9c0-1.4-1.1-3.7-3.4-6.8c0,0-0.1-0.1-0.1-0.1c-0.2-0.2-0.3-0.4-0.4-0.6c-2.9-3.4-4.5-5.3-4.8-5.8
					c0.3,0.5,1.9,2.4,4.8,5.8c0.1,0.2,0.3,0.4,0.4,0.6l0.2-0.2c0.2-0.5,0.3-1.3,0.3-2.3s-0.2-2-0.7-3.1c-1-0.3-1.7-1.1-2.1-2.5
					c-0.2-0.8-0.3-1.7-0.3-2.8c0-0.5,0-1,0.1-1.5c0,0.5-0.1,1-0.1,1.5c0,1.1,0.1,2,0.3,2.8c0.4,1.4,1.1,2.2,2.1,2.5
					c0.2,0.1,0.4,0.1,0.7,0.1c1,0,1.8-0.3,2.2-0.8c0.4-0.5,0.6-1.3,0.6-2.3c0-2.4-0.7-4.7-2.1-6.9c-1-1.6-2.4-3.2-4.1-4.6
					c-2.2-1.9-3.6-3.2-4.3-4c-1.1-1.4-1.7-3-1.9-4.7c0-0.1-0.1-0.2-0.1-0.3c-0.3-1.3-0.5-3.3-0.6-5.9c0-0.3,0-0.5,0-0.8
					c0-0.4,0.1-0.7,0.1-1.1c0-3.8-0.9-7.1-2.8-9.9C220.2,137.8,219.8,137.2,219.4,136.8z"/>
				<path class="st4" d="M233.4,211.2c4.2,2.6,7.2,2.4,9-0.8C239.4,207.7,236.4,208,233.4,211.2 M247.8,184c-3.1,4.5-2.6,8,1.6,10.4
					C252.3,190.7,251.8,187.2,247.8,184z"/>
				
					<radialGradient id="SVGID_3_" cx="164.1177" cy="319.1882" r="175.6" gradientTransform="matrix(1 0 0 -1 55.2551 455.9622)" gradientUnits="userSpaceOnUse">
					<stop  offset="5.098039e-02" style="stop-color:#111C2E"/>
					<stop  offset="0.1608" style="stop-color:#16314F"/>
					<stop  offset="0.2706" style="stop-color:#1F6FC7"/>
					<stop  offset="0.4863" style="stop-color:#4ADFF2;stop-opacity:0"/>
					<stop  offset="0.7529" style="stop-color:#4FEFF7;stop-opacity:0"/>
					<stop  offset="0.9608" style="stop-color:#1F56E0;stop-opacity:0"/>
					<stop  offset="1" style="stop-color:#205CE0"/>
				</radialGradient>
				<path class="st5" d="M257.6,110.4c-5.2,1.1-10,3.2-14.2,6.3c-3,2.2-5.5,4.6-7.4,7.4c2.9,4.2,4.6,9.8,5.3,16.8
					c3.6-4.1,6.3-6.2,8-6.2c0.7,0,1.1,0.4,1.1,1.2c0,0.1-0.2,0.5-0.4,1.3c0.9,0.6,1.7,1.3,2.3,2c0.5,0.6,1.1,0.9,1.9,0.9
					c2.2,0,4.7-2.3,7.4-6.8c2.7-4.5,4.9-6.8,6.6-6.8c0,0,0.9,0.3,2.6,0.9c1.9,0.6,3.2,0.9,3.9,0.9c0.8,0,2.5-0.2,5.1-0.7
					c3.1-0.6,5-1.1,5.6-1.7c2.6-2.3,4.5-3.8,5.6-4.5c1.7-1,3.4-1.5,5.3-1.5c1.6,0,2.5,0.5,2.7,1.4c0.1,0.6,0,1.7-0.2,3.4
					c0,0.8,0.6,1.2,1.8,1.2c1,0,2.1-0.6,3.1-1.7c1-1.1,2.3-1.5,3.9-1.3c1.1-1.9,1.6-3.1,1.6-3.6c0-2.1-0.7-4.1-2.1-5.9
					c-1.9-1.6-3.6-2.9-5.3-4c-0.1-0.1-0.3-0.1-0.4-0.3c-1.4-0.9-2.7-1.7-3.9-2.3c-3.9-2-7.9-3-12.1-3c-5.3,0-9.3,0.5-12,1.6
					C268.4,107.6,263.1,109.2,257.6,110.4z"/>
				
					<radialGradient id="SVGID_4_" cx="128.6026" cy="350.2528" r="84.763" gradientTransform="matrix(0.9448 -0.3275 -0.8565 -2.4712 503.4575 1060.8743)" gradientUnits="userSpaceOnUse">
					<stop  offset="0" style="stop-color:#1F56E0;stop-opacity:0"/>
					<stop  offset="0.1725" style="stop-color:#4FEFF7;stop-opacity:0"/>
					<stop  offset="0.5098" style="stop-color:#1F6BC7"/>
					<stop  offset="0.8549" style="stop-color:#16314F"/>
					<stop  offset="1" style="stop-color:#111C2E"/>
				</radialGradient>
				<path class="st6" d="M345.2,195.8c-0.5-0.4-1.1-0.9-1.6-1.3c-2.9-2.3-5.9-6.7-9-13.2c-3.7-7.9-6.8-13.3-9-16.3
					c-1.6-2.1-4-4.8-7-8.1c-3.3-3.5-5.5-6-6.8-7.4c-4.7-5.7-7-11.3-7-16.8c0-3.4,0.8-6.3,2.3-8.7c0.2-0.4,0.4-0.7,0.6-1
					c-1.6-0.2-2.9,0.2-3.9,1.3c-1.1,1.1-2.1,1.7-3.1,1.7c-1.2,0-1.8-0.4-1.8-1.2c0.2-1.7,0.3-2.8,0.2-3.4c-0.2-0.9-1.1-1.4-2.7-1.4
					c-1.9,0-3.6,0.5-5.3,1.5c-1.1,0.7-3,2.2-5.6,4.5c-0.6,0.6-2.5,1.1-5.6,1.7c-2.6,0.5-4.3,0.7-5.1,0.7c-0.7,0-2-0.3-3.9-0.9
					c-1.7-0.6-2.6-0.9-2.6-0.9c-1.6,0-3.8,2.3-6.6,6.8c-2.8,4.5-5.2,6.8-7.4,6.8c-0.8,0-1.4-0.3-1.9-0.9c-0.6-0.7-1.3-1.4-2.3-2
					c-0.4,1-1.1,2.7-2.1,4.9c-1.5,4.1-2.1,7.3-1.9,9.6l0.2,0.1l14,5.9c4.8,2.3,8.1,5.9,9.8,10.6c1.3,3.6,1.8,8.5,1.6,14.9
					c0,0.9-0.1,2.1-0.3,3.6c0.2,0.3,0.3,0.6,0.5,0.9c2.3,4.3,4,7.1,4.9,8.2c0.8,1,1.6,1.9,2.2,2.6c1.7,2.1,2.7,3.4,3,3.8
					c0.3,0.4,0.5,0.8,0.8,1.1c8.5,0.1,13.8,2.4,16.1,7c-2.2-4.6-7.6-6.9-16.1-7c1.9,3,2.9,5.7,2.9,8.1c0,0.7,0,1.3-0.1,1.9
					c-0.1,1.4-0.4,2.5-0.9,3.2c-0.8,1.2-2.3,1.8-4.4,1.8c-0.6,0-1.2-0.1-1.8-0.3c-0.7,0.3-1.5,0.4-2.5,0.4c-0.9,0-1.5-0.1-2-0.3
					c-0.3-0.2-0.7-0.4-1-0.6l-0.2,0.4c-1,2.3-2.4,3.4-4.2,3.4c-1.2,0-2.8-0.4-4.9-1.3c-0.5-0.2-1-0.5-1.4-0.7
					c-4.2,2.2-7.3,3.8-9.3,4.7c-3.9,1.7-7.7,2.7-11.4,2.9s-6.9,1.6-9.8,4.4c-2.8,2.7-4.3,5.8-4.3,9.1c0,5,2,9.7,5.9,13.9
					c1.2,1.2,3.1,3.2,5.9,5.9c2.7,2.7,4.9,5.2,6.7,7.7c1.7,2.4,3.5,5,5.3,8c2.2,3.5,3.9,6.5,5,9c2.2,4.5,3.5,7.1,3.9,7.8
					c1.1,1.7,2.4,2.8,3.9,3.3c0,0.2,0,0.4,0,0.7c0,2.6,1.4,6.3,4.2,11c2.8,4.7,4.9,7,6.4,7c1.3,0,2.2-1.3,2.9-3.8
					c2.1,1.5,3.8,2.2,5.1,2.2c1.5,0,2.2-1.3,2.2-3.9c0-3.9-1.2-8.1-3.6-12.7c-2.4-4.5-4.6-6.8-6.6-6.8c-0.1,0-0.3,0-0.4,0
					c0,0,0-0.1,0.1-0.1c0.5-0.9,0.7-2.1,0.7-3.6c0-2.4-1.1-6.5-3.4-12.2c-0.7-1.7-1.8-3.2-3.4-4.5c-1.9-1.4-3.3-2.6-4.2-3.5
					c-1.3-1.2-2.6-2.8-3.9-4.6c-1.3-1.9-2.4-3.7-3.1-5.4c-1.3-3.2-2.5-5.8-3.4-7.8c-0.1-0.2-0.2-0.4-0.3-0.6h1.3
					c2.4,0.4,5.8,1.1,10.1,2.1c3.3,0.7,6.4,1.1,9.2,1.3c0.2-3.5,1.3-6.3,3.3-8.4c1.5-1.7,4.2-3.4,8-5.2c4.9-2.2,8.6-4.1,11.1-5.8
					l0.3-0.4c-0.5-0.5-1.1-1-1.6-1.6c-2.6-2.8-4.6-5.6-6-8.4c1.4,2.8,3.4,5.6,6,8.4c0.5,0.6,1.1,1.2,1.6,1.6c0,0,0.1,0.1,0.1,0.1
					c2.5-1.8,5.5-5.4,9-10.8c3.3-5.1,7.5-9.7,12.8-13.8c-2.7-2.7-4.5-5.2-5.3-7.6c0.8,2.3,2.6,4.8,5.3,7.6c0.6-0.5,1.2-1,1.9-1.4
					c6.1-4.5,13-7.6,20.6-9.3C342.6,196,343.9,195.9,345.2,195.8 M263.6,148.2c17.6,1.4,28.3,6,32,13.8
					C291.9,154.3,281.3,149.7,263.6,148.2 M299.4,181.8c-2.4,8.4-1.1,15.5,4,21.2C298.4,197.3,297,190.2,299.4,181.8z"/>
				
					<radialGradient id="SVGID_5_" cx="164.1177" cy="319.1882" r="79.55" fx="163.4938" fy="319.1882" gradientTransform="matrix(1 0 0 -1 169.0051 565.3622)" gradientUnits="userSpaceOnUse">
					<stop  offset="0.102" style="stop-color:#10172E"/>
					<stop  offset="0.1922" style="stop-color:#0E254F;stop-opacity:0.8118"/>
					<stop  offset="0.4" style="stop-color:#185FC7;stop-opacity:0"/>
					<stop  offset="0.4745" style="stop-color:#2174CF;stop-opacity:0"/>
					<stop  offset="0.7255" style="stop-color:#4BE4F1"/>
					<stop  offset="0.8" style="stop-color:#4EF3F7"/>
					<stop  offset="0.9608" style="stop-color:#205CE0"/>
					<stop  offset="1" style="stop-color:#205CE0"/>
				</radialGradient>
				<path class="st7" d="M359.4,213.7c-0.1,2-0.2,3.9-0.4,5.9c-0.1,4.1-1.9,8.4-5.4,12.9c-3.5,4.5-7.9,8.1-13.3,10.7
					c-1.7,0.8-3.6,1.6-5.8,2.5c3.5,1,6.3,1.7,8.5,2c2.3,0.3,5.1,0.5,8.6,0.5c4.1,0,7.8-0.3,11.1-0.9c2.9-0.5,5.8-1.3,8.9-2.5
					c-2.3-1.5-4.1-3.5-5.6-6c-1.3-2.3-2.3-5.2-3-8.8c-0.7-4-1.2-6.9-1.5-8.6C361.3,218.8,360.5,216.2,359.4,213.7z"/>
				
					<radialGradient id="SVGID_6_" cx="164.1177" cy="319.1882" r="122.1625" fx="163.1596" fy="319.1882" gradientTransform="matrix(1 0 0 -1 184.6051 530.9122)" gradientUnits="userSpaceOnUse">
					<stop  offset="0.102" style="stop-color:#10192E;stop-opacity:0"/>
					<stop  offset="0.1922" style="stop-color:#0E254F;stop-opacity:0.8118"/>
					<stop  offset="0.4" style="stop-color:#1863C7;stop-opacity:0.7608"/>
					<stop  offset="0.4745" style="stop-color:#217ACE;stop-opacity:0.8039"/>
					<stop  offset="0.7255" style="stop-color:#4BE4F1"/>
					<stop  offset="0.8" style="stop-color:#4EF3F7"/>
					<stop  offset="0.9608" style="stop-color:#205CE0"/>
					<stop  offset="1" style="stop-color:#205CE0"/>
				</radialGradient>
				<path class="st8" d="M359,219.6c0.2-2,0.3-3.9,0.4-5.9c-1.1-2.5-2.4-4.9-4.1-7.2c-2.6-3.6-6-7.2-10.1-10.7
					c-1.2,0.1-2.6,0.2-4,0.4c-7.6,1.7-14.5,4.8-20.6,9.3c-0.7,0.5-1.3,0.9-1.9,1.4c-5.3,4.1-9.5,8.6-12.8,13.8
					c-3.5,5.4-6.5,9-9,10.8c-0.1,0.1-0.3,0.2-0.4,0.3c-2.6,1.7-6.3,3.6-11.1,5.8c-3.8,1.7-6.5,3.4-8,5.2c-2,2.1-3.1,4.9-3.3,8.4
					c0,0.5,0,1,0,1.5c0,4.6,2.6,8.4,7.9,11.6c5.3,3.1,10.4,5.7,15.5,7.8c5.1,2.1,8.5,3.5,10.1,4.5c1.6,0.9,3.4,1.9,5.3,3.1
					c1.6,1,3.8,2.4,6.6,4.1c2.4,1.4,4.7,2,6.8,2c3.8,0,6.6-0.8,8.3-2.4c-0.9-0.8-1.4-1.3-1.6-1.4c0.2,0.1,0.8,0.6,1.6,1.4
					c1.3,1.1,3.4,3,6.3,5.5c2.5,2.3,5.3,3.5,8.3,3.5c0.7,0,1.4-0.1,1.9-0.4c0.3-1.1,0.5-2,0.5-2.6c0-1.4-0.3-2.8-1-4.1
					c0,0,0,0,0-0.1c-0.7,0-2.2-0.2-4.6-0.6c-2.6-0.4-4.3-0.8-4.9-0.9c0.6,0.2,2.2,0.5,4.9,0.9c2.4,0.4,3.9,0.6,4.6,0.6
					c0,0,0.1,0,0.2,0c1.1,0,1.8,0,2.2,0c0.5-0.1,1-0.2,1.4-0.3c-1.9-5.1-4-8.9-6.3-11.4c-2.6-2.8-5.8-4.3-9.6-4.3
					c-2.4,0.1-4.2,0.2-5.5,0.2c0.9,1.1,1.8,2.4,2.6,3.8c-0.9-1.4-1.8-2.7-2.6-3.8c-1.5-2-3.1-3.6-4.7-4.9c-3-2.4-6.5-3.8-10.3-4.1
					c-2.5-0.2-6-2.4-10.8-6.7c-0.2-0.2-0.4-0.4-0.6-0.6c-5.4-4.8-9.1-7.7-11.3-8.8c2.1,1.1,5.9,4,11.3,8.8
					c4.5-1.4,10.2-2.9,17.2-4.4c3.9-0.9,7.3-1.9,10.3-2.9c0.2-0.1,0.4-0.1,0.7-0.2c2.2-0.8,4.1-1.6,5.8-2.5
					c5.3-2.6,9.8-6.2,13.3-10.7C357.1,228,358.9,223.8,359,219.6z"/>
			</g>
		</g>
		<g>
			<path class="st9" d="M341.2,196.2c-7.6,1.7-14.5,4.8-20.6,9.3c-0.7,0.5-1.3,0.9-1.9,1.4c-5.3,4.1-9.5,8.6-12.8,13.8
				c-3.5,5.4-6.5,9-9,10.8c-0.1,0.1-0.3,0.2-0.4,0.3c-2.6,1.7-6.3,3.6-11.1,5.8c-3.8,1.7-6.5,3.4-8,5.2c-2,2.1-3.1,4.9-3.3,8.4
				c0,0.5,0,1,0,1.5c0,4.6,2.6,8.4,7.9,11.6c5.3,3.1,10.4,5.7,15.5,7.8c5.1,2.1,8.5,3.5,10.1,4.5c1.6,0.9,3.4,1.9,5.3,3.1
				c1.6,1,3.8,2.4,6.6,4.1c2.4,1.4,4.7,2,6.8,2c3.8,0,6.6-0.8,8.3-2.4c-0.9-0.8-1.4-1.3-1.6-1.4 M371.9,244.8
				c0.4-0.2,0.8-0.3,1.2-0.4 M334.6,245.7c3.5,1,6.3,1.7,8.5,2c2.3,0.3,5.1,0.5,8.6,0.5c4.1,0,7.8-0.3,11.1-0.9
				c2.9-0.5,5.8-1.3,8.9-2.5 M334.6,245.7c2.2-0.8,4.1-1.6,5.8-2.5c5.3-2.6,9.8-6.2,13.3-10.7c3.5-4.4,5.3-8.7,5.4-12.9 M341,283.6
				c0.6,0.2,2.2,0.5,4.9,0.9c2.4,0.4,3.9,0.6,4.6,0.6c0,0,0.1,0,0.2,0c1.1,0,1.8,0,2.2,0c0.5-0.1,1-0.2,1.4-0.3
				c-1.9-5.1-4-8.9-6.3-11.4c-2.6-2.8-5.8-4.3-9.6-4.3c-2.4,0.1-4.2,0.2-5.5,0.2c0.9,1.1,1.8,2.4,2.6,3.8 M350.5,285.2
				C350.5,285.2,350.5,285.3,350.5,285.2c0.6,1.4,1,2.8,1,4.2c0,0.7-0.1,1.6-0.5,2.6c-0.6,0.2-1.2,0.4-1.9,0.4c-3,0-5.7-1.1-8.3-3.5
				c-2.9-2.6-5-4.4-6.3-5.5 M236,124.1c1.9-2.8,4.4-5.2,7.4-7.4c4.2-3.1,9-5.2,14.2-6.3c5.5-1.2,10.8-2.8,15.9-4.8
				c2.7-1.1,6.7-1.6,12-1.6c4.2,0,8.3,1,12.1,3c1.2,0.6,2.5,1.4,3.9,2.3c0.1,0.1,0.2,0.2,0.4,0.3c2.3,1.2,4,2.5,5.3,4 M307.6,123
				c1.3,0.2,2.7-0.1,4-0.9c1.3-0.7,2.4-1.7,3.4-2.9 M219.4,136.8c-2.4-2.4-5.6-3.7-9.6-3.8c-4.4-0.1-8.1,1.4-11.1,4.6
				c-1.1,1.1-3.4,4.6-7.1,10.3c-3,4.7-6.1,8.2-9.3,10.3c-4.6,3.1-10.5,4.6-17.7,4.4c-4.4-0.1-8.5-0.7-12.3-1.7
				c-4.5-1.2-8.6-3.1-12.3-5.5c-6-4-10-9.1-11.8-15.3c5.5,3.8,10.5,6.6,15,8.4c3,1.2,6,2.1,9.1,2.6c3,0.6,6.1,0.9,9.2,0.9
				c5.8,0,10.9-1.9,15.5-5.8c2.6-2.2,6.2-6.4,10.9-12.8c4.5-6.1,8.4-10.3,11.7-12.8c4.8-3.7,10.3-5.6,16.5-5.8
				c0.3,0,0.5-0.1,0.8-0.1c7.7,0,13.7,2.5,17.9,7.6c0.4,0.5,0.9,1.1,1.3,1.7c2.9,4.2,4.6,9.8,5.3,16.8c3.6-4.1,6.3-6.2,8-6.2
				c0.7,0,1.1,0.4,1.1,1.2c0,0.1-0.2,0.5-0.4,1.3c0.9,0.6,1.7,1.3,2.3,2c0.5,0.6,1.1,0.9,1.9,0.9c2.2,0,4.7-2.3,7.4-6.8
				c2.7-4.5,4.9-6.8,6.6-6.8c0,0,0.9,0.3,2.6,0.9c1.9,0.6,3.2,0.9,3.9,0.9c0.8,0,2.5-0.2,5.1-0.7c3.1-0.6,5-1.1,5.6-1.7
				c2.6-2.3,4.5-3.8,5.6-4.5c1.7-1,3.4-1.5,5.3-1.5c1.6,0,2.5,0.5,2.7,1.4c0.1,0.6,0,1.7-0.2,3.4c0,0.8,0.6,1.2,1.8,1.2
				c1,0,2.1-0.6,3.1-1.7c1-1.1,2.3-1.5,3.9-1.3 M203,199.2c-2.4-2.6-3.6-5.8-3.6-9.6c0-1.5,0.1-3,0.2-4.3c-2.6,2.4-4.5,3.6-5.6,3.6
				c-0.4,0-0.7-0.1-1-0.4c-0.3-0.2-0.4-0.5-0.4-0.8c0-1.3,0.9-3.2,2.6-5.7c1.7-2.4,2.5-4.9,2.4-7.5c-0.1-2.1,0.5-4.5,1.6-7.4
				c1.4-3.7,2.3-6.1,2.4-7c1-4.7,3.3-9.3,6.9-14c3.3-4.3,6.9-7.4,10.8-9.3c0.4,0.5,0.9,1,1.3,1.5c1.9,2.7,2.8,6,2.8,9.9
				c0,0.3,0,0.7-0.1,1.1c0,0.3,0,0.5,0,0.8c0.1,2.6,0.3,4.6,0.6,5.9c0,0.1,0.1,0.3,0.1,0.3c0.2,1.7,0.8,3.3,1.9,4.7
				c0.6,0.8,2,2.1,4.3,4c1.8,1.5,3.1,3,4.1,4.6c1.4,2.2,2.1,4.5,2.1,6.9c0,1-0.2,1.8-0.6,2.3c-0.4,0.5-1.2,0.8-2.2,0.8
				c-0.3,0-0.5,0-0.7-0.1c0.5,1.1,0.7,2.1,0.7,3.1s-0.1,1.8-0.3,2.3c0,0.1-0.1,0.2-0.1,0.3c2.3,3.1,3.4,5.4,3.4,6.8v0.9
				c-0.1,0.4-0.4,0.6-0.9,0.6c-1.1,0-2.3-0.4-3.4-1.3c-0.5-0.4-1-0.8-1.5-1.3c0.1,0.7,0.1,1.5,0.2,2.4c0.3,3.2,0.4,5.4,0.4,6.4
				c0,1.1-0.1,1.9-0.2,2.4c-0.3,0.9-0.8,1.4-1.6,1.4c-1.6,0-2.9-1-3.7-2.9c-0.8-1.9-2-2.9-3.6-2.9c-0.7,0-2.1,0.9-4.3,2.8
				c-0.3,0.2-0.5,0.5-0.8,0.7c-1.8,1.4-3.3,2.1-4.7,2.1c-0.4,0-0.7,0-1.1,0c-1.9,4.8-3.1,8.2-3.5,10.1c-0.4,1.8-0.6,4.4-0.6,7.9
				c0,1.1,0,2.1,0.1,3c0.2,2.9,0.9,4.4,1.9,4.4c0.3,0,0.8-1.3,1.4-3.9c0.4-1.8,1.2-3.5,2.2-4.9c0.3-0.5,0.6-0.9,1.1-1.4
				c0.5-0.6,1-1.1,1.6-1.6c2.4-2,4-3.7,4.8-5c0.7-1.2,1.2-2.5,1.6-3.9c0.2-1.3,0.3-2.7,0.3-4.3 M250,137.3c-0.4,1-1.1,2.7-2.1,4.9
				c-1.5,4.1-2.1,7.3-1.9,9.6 M260.2,157.8c4.8,2.3,8.1,5.9,9.8,10.6c1.3,3.6,1.8,8.5,1.6,14.9c0,0.9-0.1,2.1-0.3,3.6
				c0.2,0.3,0.3,0.6,0.5,0.9c2.3,4.3,4,7.1,4.9,8.2c0.8,1,1.6,1.9,2.2,2.7c1.7,2.1,2.7,3.3,3,3.8c0.3,0.4,0.5,0.8,0.8,1.1
				c8.5,0.1,13.8,2.4,16.1,7 M246,151.8c0,0,0,0.1,0,0.1c0,0.1,0,0.2,0.1,0.3c0.4,3.2-0.7,5.6-3.3,7.1c-1.2,0.7-2.4,1.2-3.8,1.4
				c-1.4,0.2-2.8,0.1-4.4-0.2 M231.8,155.6c1.9-4.7,4.9-9.4,9-14.1c0.2-0.2,0.3-0.4,0.5-0.6 M232.9,179.5c-1-0.3-1.7-1.1-2.1-2.5
				c-0.2-0.8-0.3-1.7-0.3-2.8c0-0.5,0-1,0.1-1.5 M307.1,113.6c-1.9-1.6-3.6-2.9-5.3-4 M263.6,148.2c17.6,1.4,28.3,6,32,13.8
				 M207.5,224.2c-4.1,2.3-9,3.4-14.8,3.3c-4.5-0.1-8.3-0.6-11.3-1.5c-4.1-1.3-7.8-3.4-10.9-6.3c-5.7-5.4-10.4-9.1-14.1-11.1
				c-1.3-0.7-2.8-1.3-4.3-1.8c-3-1-6.4-1.6-10-1.7c-3.5-0.1-7.5,0.4-11.9,1.6c-2.4,0.6-4.5,1.3-6.1,2.2c2-2.7,4.8-5.1,8.5-7.1
				c4.8-2.6,9.7-3.9,14.6-3.9c1.6,0,3.2,0.2,4.9,0.5c5.3,0.9,11,3.3,17.1,7.1c4.6,2.9,7.5,4.6,8.7,5.3c3.1,1.6,6,2.4,8.7,2.4
				c4.4,0,8.2-1.5,11.3-4.6c2.4-2.4,4.1-5.5,4.9-9.2v0l0.1,0.1c2.2,2.4,5.1,3.8,8.5,4 M313.4,199.4c0.8,2.3,2.6,4.8,5.3,7.6
				 M271.2,186.9c-0.6-1-1.1-1.8-1.7-2.5 M264.8,210c-0.8-1.3-1.3-2.3-1.5-2.9c-0.3-0.8-0.5-1.9-0.5-3.2c0-0.4,0.2-0.8,0.6-1.1
				c0.4-0.3,0.7-0.4,1.1-0.4c0.6,0,1.3,0.3,1.9,1c0.7,0.7,1,1.5,1,2.3c0,0.6-0.1,1-0.4,1.4c-0.3,0.4-0.7,0.6-1.2,0.6 M272.9,217.7
				c0.6-1.6,0.9-3.2,0.9-4.9c0-1-0.2-2.2-0.5-3.7s-0.5-2.5-0.5-3.1c0-0.7,0.3-1.3,0.8-1.7c0.5-0.4,1-0.6,1.5-0.6c1.1,0,1.9,1,2.5,3
				c0.4,1.4,0.6,2.8,0.6,4.3c0,1-0.1,2.1-0.4,3.2c-0.3,1-0.6,1.6-1,2c-0.1,0.2-0.2,0.3-0.4,0.5 M272.9,217.7c0,0.1-0.1,0.2-0.1,0.3
				c0,0,0,0,0,0c0.3,0.2,0.7,0.3,1,0.5c0.5,0.2,1.1,0.3,2,0.3c0.9,0,1.7-0.1,2.5-0.4c0.9-0.4,1.7-1,2.4-1.9 M268.8,219.4
				c0.5-0.4,0.9-0.9,1.2-1.6c0.2-0.3,0.3-0.7,0.4-1.1c0.5-1.4,0.6-2.7,0.3-3.9 M272.6,218.4c-1,2.3-2.4,3.4-4.2,3.4
				c-1.2,0-2.8-0.4-4.9-1.3c-0.5-0.2-1-0.5-1.4-0.7c-4.2,2.2-7.3,3.8-9.3,4.7c-3.9,1.7-7.7,2.7-11.4,2.9s-6.9,1.6-9.8,4.4
				c-2.8,2.7-4.3,5.8-4.3,9.1c0,5,2,9.7,5.9,13.9c1.2,1.2,3.1,3.2,5.9,5.9c2.7,2.7,4.9,5.2,6.7,7.7c1.7,2.4,3.5,5,5.3,8
				c2.2,3.5,3.9,6.5,5,9c2.2,4.5,3.5,7.1,3.9,7.8c1.1,1.7,2.4,2.8,3.9,3.3c0,0.2,0,0.4,0,0.7c0,2.6,1.4,6.3,4.2,11
				c2.8,4.7,4.9,7,6.4,7c1.3,0,2.2-1.3,2.9-3.8c2.1,1.5,3.8,2.2,5.1,2.2c1.5,0,2.2-1.3,2.2-3.9c0-3.9-1.2-8.1-3.6-12.7
				c-2.4-4.5-4.6-6.8-6.6-6.8c-0.1,0-0.3,0-0.4,0c0,0,0-0.1,0.1-0.1c0.5-0.9,0.7-2.1,0.7-3.7c0-2.4-1.1-6.5-3.4-12.2
				c-0.7-1.7-1.8-3.2-3.4-4.5c-1.9-1.4-3.3-2.6-4.2-3.5c-1.3-1.2-2.6-2.8-3.9-4.6c-1.3-1.9-2.4-3.7-3.1-5.4
				c-1.3-3.2-2.5-5.8-3.4-7.8c-0.1-0.2-0.2-0.4-0.3-0.6h1.3c2.4,0.4,5.8,1.1,10.1,2.1c3.3,0.7,6.4,1.1,9.2,1.3 M282.6,203.6
				c1.9,3,2.9,5.7,2.9,8.1c0,0.7,0,1.3-0.1,1.9c-0.1,1.4-0.5,2.5-0.9,3.2c-0.8,1.2-2.3,1.8-4.4,1.8c-0.6,0-1.2-0.1-1.8-0.3
				 M272.8,218c-0.1,0.1-0.1,0.3-0.2,0.4 M296.8,231.4c-0.5-0.5-1.1-1.1-1.6-1.7c-2.6-2.8-4.6-5.6-6-8.4 M296.9,231.5
				C296.9,231.5,296.9,231.5,296.9,231.5 M334.6,245.7c-0.2,0.1-0.4,0.1-0.7,0.2c-3,1-6.4,2-10.3,2.9c-7,1.6-12.7,3.1-17.2,4.4
				c0.2,0.2,0.4,0.4,0.6,0.6c4.7,4.2,8.3,6.5,10.8,6.7c3.8,0.3,7.2,1.7,10.3,4.1c1.6,1.3,3.2,2.9,4.7,4.9 M295.2,244.4
				c2.1,1.1,5.9,4,11.3,8.8 M299.4,181.8c-2.4,8.4-1.1,15.5,4,21.2 M246,198.8c0.8,0.8,2.1,2.3,3.9,4.4c1.7,1.9,2.8,3.1,3.3,3.7
				 M247.8,184c4,3.2,4.5,6.7,1.6,10.4C245.2,192,244.7,188.5,247.8,184z M227.8,178.6c0.3,0.5,1.9,2.4,4.8,5.8
				c0.1,0.2,0.3,0.4,0.4,0.6c0,0,0.1,0.1,0.1,0.1 M262.1,219.9c-0.9-0.5-1.5-0.9-2-1.4c-0.1,0.1-0.3,0.1-0.4,0.2
				c-1.8,1-3,1.6-3.5,1.6c-1,0-2-0.3-2.8-0.9c-0.5,0.3-0.8,0.6-1.1,0.8c-1.1,0.8-1.9,1.2-2.4,1.2c-2.9,0-5.4-0.6-7.6-1.8
				c-2.7-1.8-5.3-3.3-7.8-4.4c-3-1-5.4-1.9-7.3-2.8c-2-1-3.8-2.5-5.4-4.4 M253.5,219.3c-0.3-0.2-0.6-0.5-0.9-0.9
				c-0.2-0.2-1.3-2-3.4-5.4 M233.4,211.2c3-3.3,6-3.5,9-0.8C240.6,213.6,237.6,213.9,233.4,211.2z M199.6,185.2
				c0.3-0.2,0.5-0.5,0.8-0.8c0.8-0.8,1.7-1.6,2.6-2.6 M264,216.6c-0.8,0.2-2.1,0.8-3.9,1.9"/>
		</g>
	</g>
</g>
<g id="腿">
	<g>
		<g>
			<g>
				
					<radialGradient id="SVGID_7_" cx="164.1177" cy="319.1882" r="141.125" fx="164.6712" fy="319.1882" gradientTransform="matrix(1 0 0 -1 128.1051 509.9122)" gradientUnits="userSpaceOnUse">
					<stop  offset="0.102" style="stop-color:#10192E;stop-opacity:0"/>
					<stop  offset="0.1922" style="stop-color:#0E224F;stop-opacity:0"/>
					<stop  offset="0.4" style="stop-color:#1863C7;stop-opacity:0.7608"/>
					<stop  offset="0.4745" style="stop-color:#217ACE;stop-opacity:0.8039"/>
					<stop  offset="0.7255" style="stop-color:#4BE4F1"/>
					<stop  offset="0.8" style="stop-color:#4EF3F7"/>
					<stop  offset="0.9608" style="stop-color:#205CE0"/>
					<stop  offset="1" style="stop-color:#205CE0"/>
				</radialGradient>
				<path class="st10" d="M272.8,218l-0.2,0.4c-1,2.3-2.4,3.4-4.2,3.4c-1.2,0-2.8-0.4-4.9-1.3c-0.5-0.2-1-0.5-1.4-0.7
					c-4.2,2.2-7.3,3.8-9.3,4.7c-3.9,1.7-7.7,2.7-11.4,2.9s-6.9,1.6-9.8,4.4c-2.8,2.7-4.3,5.8-4.3,9.1c0,5,2,9.7,5.9,13.9
					c1.2,1.2,3.1,3.2,5.9,5.9c2.7,2.7,4.9,5.2,6.7,7.7c1.7,2.4,3.5,5,5.3,8c2.2,3.5,3.9,6.5,5,9c2.2,4.5,3.5,7.1,3.9,7.8
					c1.1,1.7,2.4,2.8,3.9,3.3c0,0.2,0,0.4,0,0.7c0,2.6,1.4,6.3,4.2,11c2.8,4.7,4.9,7,6.4,7c1.3,0,2.2-1.3,2.9-3.8
					c2.1,1.5,3.8,2.2,5.1,2.2c1.5,0,2.2-1.3,2.2-3.9c0-3.9-1.2-8.1-3.6-12.7c-2.4-4.5-4.6-6.8-6.6-6.8c-0.1,0-0.3,0-0.4,0
					c0,0,0-0.1,0.1-0.1c0.5-0.9,0.7-2.1,0.7-3.6c0-2.4-1.1-6.5-3.4-12.2c-0.7-1.7-1.8-3.2-3.4-4.5c-1.9-1.4-3.3-2.6-4.2-3.5
					c-1.3-1.2-2.6-2.8-3.9-4.6c-1.3-1.9-2.4-3.7-3.1-5.4c-1.3-3.2-2.5-5.8-3.4-7.8c-0.1-0.2-0.2-0.4-0.3-0.6h1.3
					c2.4,0.4,5.8,1.1,10.1,2.1c3.3,0.7,6.4,1.1,9.2,1.3c0.2-3.5,1.3-6.3,3.3-8.4c1.5-1.7,4.2-3.4,8-5.2c4.9-2.2,8.6-4.1,11.1-5.8
					l0.3-0.4c-0.5-0.5-1.1-1-1.6-1.6c-2.1-2.2-3.8-4.5-5.1-6.8c-0.3-0.5-0.6-1.1-0.9-1.6c-1.4-2.6-2.7-5.2-3.9-7.8
					c-0.1,1.4-0.4,2.5-0.9,3.2c-0.8,1.2-2.3,1.8-4.4,1.8c-0.6,0-1.2-0.1-1.8-0.3c-0.7,0.3-1.5,0.4-2.5,0.4c-0.9,0-1.5-0.1-2-0.3
					C273.5,218.3,273.2,218.1,272.8,218z"/>
			</g>
		</g>
		<g>
			<path class="st9" d="M272.6,218.4c-1,2.3-2.4,3.4-4.2,3.4c-1.2,0-2.8-0.4-4.9-1.3c-0.5-0.2-1-0.5-1.4-0.7
				c-4.2,2.2-7.3,3.8-9.3,4.7c-3.9,1.7-7.7,2.7-11.4,2.9s-6.9,1.6-9.8,4.4c-2.8,2.7-4.3,5.8-4.3,9.1c0,5,2,9.7,5.9,13.9
				c1.2,1.2,3.1,3.2,5.9,5.9c2.7,2.7,4.9,5.2,6.7,7.7c1.7,2.4,3.5,5,5.3,8c2.2,3.5,3.9,6.5,5,9c2.2,4.5,3.5,7.1,3.9,7.8
				c1.1,1.7,2.4,2.8,3.9,3.3c0,0.2,0,0.4,0,0.7c0,2.6,1.4,6.3,4.2,11c2.8,4.7,4.9,7,6.4,7c1.3,0,2.2-1.3,2.9-3.8
				c2.1,1.5,3.8,2.2,5.1,2.2c1.5,0,2.2-1.3,2.2-3.9c0-3.9-1.2-8.1-3.6-12.7c-2.4-4.5-4.6-6.8-6.6-6.8c-0.1,0-0.3,0-0.4,0
				c0,0,0-0.1,0.1-0.1c0.5-0.9,0.7-2.1,0.7-3.7c0-2.4-1.1-6.5-3.4-12.2c-0.7-1.7-1.8-3.2-3.4-4.5c-1.9-1.4-3.3-2.6-4.2-3.5
				c-1.3-1.2-2.6-2.8-3.9-4.6c-1.3-1.9-2.4-3.7-3.1-5.4c-1.3-3.2-2.5-5.8-3.4-7.8c-0.1-0.2-0.2-0.4-0.3-0.6h1.3
				c2.4,0.4,5.8,1.1,10.1,2.1c3.3,0.7,6.4,1.1,9.2,1.3c0.2-3.5,1.3-6.3,3.3-8.4c1.5-1.7,4.2-3.4,8-5.2c4.9-2.2,8.6-4.1,11.1-5.8
				 M296.8,231.4c-0.5-0.5-1.1-1.1-1.6-1.7c-2.1-2.2-3.8-4.5-5.1-6.8 M285.3,213.6c-0.1,1.4-0.5,2.5-0.9,3.2
				c-0.8,1.2-2.3,1.8-4.4,1.8c-0.6,0-1.2-0.1-1.8-0.3c-0.7,0.3-1.5,0.4-2.5,0.4c-0.9,0-1.5-0.1-2-0.3c-0.3-0.2-0.6-0.4-1-0.5"/>
		</g>
	</g>
</g>
<g id="星星">
	<g transform="matrix( -0.2572784423828125, -0.2572784423828125, -0.2572784423828125, 0.2572784423828125, 429.15,385.9) ">
		<g>
			<g>
				
					<radialGradient id="SVGID_8_" cx="1417.0514" cy="2101.1304" r="10.0125" gradientTransform="matrix(-0.2573 0.2573 -0.2573 -0.2573 1401.6357 192.2813)" gradientUnits="userSpaceOnUse">
					<stop  offset="0" style="stop-color:#FFFFFF"/>
					<stop  offset="1" style="stop-color:#84E3ED"/>
				</radialGradient>
				<path class="st11" d="M489.8,22.4c3.7-2.4,8-2.4,12.8,0c-2.6-4.9-2.6-9.1,0-12.8c-4.4,3.2-8.7,3.2-12.8,0
					C492.2,14.2,492.2,18.5,489.8,22.4z"/>
			</g>
		</g>
	</g>
	<g id="___1_140_" transform="matrix( 1, 0, 0, 1, 305.75,257.95) ">
		<g transform="matrix( 0.0966949462890625, 0.0966949462890625, -0.0966949462890625, 0.0966949462890625, -38.85,-55.1) ">
			<g>
				<g>
					
						<radialGradient id="SVGID_9_" cx="8415.7559" cy="-1921.9672" r="10.0125" gradientTransform="matrix(9.669495e-02 -9.669495e-02 -9.669495e-02 -9.669495e-02 -493.5416 531.2409)" gradientUnits="userSpaceOnUse">
						<stop  offset="0" style="stop-color:#FFFFFF"/>
						<stop  offset="1" style="stop-color:#84E3ED"/>
					</radialGradient>
					<path class="st12" d="M499.4-90.6c3.7-2.4,8-2.4,12.8,0c-2.6-4.9-2.6-9.1,0-12.8c-4.4,3.2-8.7,3.2-12.8,0
						C501.8-98.7,501.8-94.5,499.4-90.6z"/>
				</g>
			</g>
		</g>
	</g>
	<g id="___1_139_" transform="matrix( 1, 0, 0, 1, 285.45,244.3) ">
		<g transform="matrix( 0.0966949462890625, 0.0966949462890625, -0.0966949462890625, 0.0966949462890625, -38.85,-55.1) ">
			<g>
				<g>
					
						<radialGradient id="SVGID_10_" cx="8591.3076" cy="-1956.3535" r="10.0125" gradientTransform="matrix(9.669495e-02 -9.669495e-02 -9.669495e-02 -9.669495e-02 -513.8416 544.8909)" gradientUnits="userSpaceOnUse">
						<stop  offset="0" style="stop-color:#FFFFFF"/>
						<stop  offset="1" style="stop-color:#84E3ED"/>
					</radialGradient>
					<path class="st13" d="M499.4-90.6c3.7-2.4,8-2.4,12.8,0c-2.6-4.9-2.6-9.1,0-12.8c-4.4,3.2-8.7,3.2-12.8,0
						C501.8-98.7,501.8-94.5,499.4-90.6z"/>
				</g>
			</g>
		</g>
	</g>
	<g id="___1_138_" transform="matrix( 1, 0, 0, 1, 282.2,229.5) ">
		<g transform="matrix( 0.0966949462890625, 0.0966949462890625, -0.0966949462890625, 0.0966949462890625, -38.85,-55.1) ">
			<g>
				<g>
					
						<radialGradient id="SVGID_11_" cx="8684.6426" cy="-1896.6296" r="10.0125" gradientTransform="matrix(9.669495e-02 -9.669495e-02 -9.669495e-02 -9.669495e-02 -517.0916 559.6909)" gradientUnits="userSpaceOnUse">
						<stop  offset="0" style="stop-color:#FFFFFF"/>
						<stop  offset="1" style="stop-color:#84E3ED"/>
					</radialGradient>
					<path class="st14" d="M499.4-90.6c3.7-2.4,8-2.4,12.8,0c-2.6-4.9-2.6-9.1,0-12.8c-4.4,3.2-8.7,3.2-12.8,0
						C501.8-98.7,501.8-94.5,499.4-90.6z"/>
				</g>
			</g>
		</g>
	</g>
	<g id="___1_137_" transform="matrix( 1, 0, 0, 1, 243.9,221.5) ">
		<g transform="matrix( 0.0966949462890625, 0.0966949462890625, -0.0966949462890625, 0.0966949462890625, -38.85,-55.1) ">
			<g>
				<g>
					
						<radialGradient id="SVGID_12_" cx="8924.0547" cy="-2053.3079" r="10.0125" gradientTransform="matrix(9.669495e-02 -9.669495e-02 -9.669495e-02 -9.669495e-02 -555.3916 567.6909)" gradientUnits="userSpaceOnUse">
						<stop  offset="0" style="stop-color:#FFFFFF"/>
						<stop  offset="1" style="stop-color:#84E3ED"/>
					</radialGradient>
					<path class="st15" d="M499.4-90.6c3.7-2.4,8-2.4,12.8,0c-2.6-4.9-2.6-9.1,0-12.8c-4.4,3.2-8.7,3.2-12.8,0
						C501.8-98.7,501.8-94.5,499.4-90.6z"/>
				</g>
			</g>
		</g>
	</g>
	<g id="___1_136_" transform="matrix( 1, 0, 0, 1, 230.75,215.1) ">
		<g transform="matrix( 0.0966949462890625, 0.0966949462890625, -0.0966949462890625, 0.0966949462890625, -38.85,-55.1) ">
			<g>
				<g>
					
						<radialGradient id="SVGID_13_" cx="9025.1455" cy="-2088.2114" r="10.0125" gradientTransform="matrix(9.669495e-02 -9.669495e-02 -9.669495e-02 -9.669495e-02 -568.5416 574.0909)" gradientUnits="userSpaceOnUse">
						<stop  offset="0" style="stop-color:#FFFFFF"/>
						<stop  offset="1" style="stop-color:#84E3ED"/>
					</radialGradient>
					<path class="st16" d="M499.4-90.6c3.7-2.4,8-2.4,12.8,0c-2.6-4.9-2.6-9.1,0-12.8c-4.4,3.2-8.7,3.2-12.8,0
						C501.8-98.7,501.8-94.5,499.4-90.6z"/>
				</g>
			</g>
		</g>
	</g>
	<g id="___1_135_" transform="matrix( 1, 0, 0, 1, 228.65,200.3) ">
		<g transform="matrix( 0.0966949462890625, 0.0966949462890625, -0.0966949462890625, 0.0966949462890625, -38.85,-55.1) ">
			<g>
				<g>
					
						<radialGradient id="SVGID_14_" cx="9112.5342" cy="-2022.5411" r="10.0125" gradientTransform="matrix(9.669495e-02 -9.669495e-02 -9.669495e-02 -9.669495e-02 -570.6416 588.8909)" gradientUnits="userSpaceOnUse">
						<stop  offset="0" style="stop-color:#FFFFFF"/>
						<stop  offset="1" style="stop-color:#84E3ED"/>
					</radialGradient>
					<path class="st17" d="M499.4-90.6c3.7-2.4,8-2.4,12.8,0c-2.6-4.9-2.6-9.1,0-12.8c-4.4,3.2-8.7,3.2-12.8,0
						C501.8-98.7,501.8-94.5,499.4-90.6z"/>
				</g>
			</g>
		</g>
	</g>
	<g id="___1_134_" transform="matrix( 1, 0, 0, 1, 290.45,261.3) ">
		<g transform="matrix( 0.1918487548828125, 0.1918487548828125, -0.1918487548828125, 0.1918487548828125, -77.1,-109.35) ">
			<g>
				<g>
					
						<radialGradient id="SVGID_15_" cx="2319.9331" cy="104.7012" r="10.0125" gradientTransform="matrix(0.1918 -0.1918 -0.1918 -0.1918 77.62 458.2484)" gradientUnits="userSpaceOnUse">
						<stop  offset="0" style="stop-color:#FFFFFF"/>
						<stop  offset="1" style="stop-color:#84E3ED"/>
					</radialGradient>
					<path class="st18" d="M495.9-0.8c3.7-2.4,8-2.4,12.8,0c-2.6-4.9-2.6-9.1,0-12.8c-4.4,3.2-8.7,3.2-12.8,0
						C498.4-9,498.4-4.7,495.9-0.8z"/>
				</g>
			</g>
		</g>
	</g>
	<g id="___1_132_" transform="matrix( 1, 0, 0, 1, 272.5,129.95) ">
		<g id="___1_133_">
			<g transform="matrix( 0.1918487548828125, 0.1918487548828125, -0.1918487548828125, 0.1918487548828125, -77.1,-109.35) ">
				<g>
					<g>
						
							<radialGradient id="SVGID_16_" cx="2709.041" cy="400.2461" r="10.0125" gradientTransform="matrix(0.1918 -0.1918 -0.1918 -0.1918 59.67 589.5981)" gradientUnits="userSpaceOnUse">
							<stop  offset="0" style="stop-color:#FFFFFF"/>
							<stop  offset="1" style="stop-color:#84E3ED"/>
						</radialGradient>
						<path class="st19" d="M495.9-0.8c3.7-2.4,8-2.4,12.8,0c-2.6-4.9-2.6-9.1,0-12.8c-4.4,3.2-8.7,3.2-12.8,0
							C498.4-9,498.4-4.7,495.9-0.8z"/>
					</g>
				</g>
			</g>
		</g>
	</g>
	<g transform="matrix( 1, 0, 0, 1, 98,-169.5) ">
		<g>
			<g>
				
					<radialGradient id="SVGID_17_" cx="66.1177" cy="488.6882" r="2.475" gradientTransform="matrix(1 0 0 -1 97.8051 844.8622)" gradientUnits="userSpaceOnUse">
					<stop  offset="0" style="stop-color:#FFFFFF"/>
					<stop  offset="1" style="stop-color:#1C96E0"/>
				</radialGradient>
				<path class="st20" d="M163.8,355.5c-0.2,0-0.4,0.1-0.6,0.3c-0.2,0.2-0.3,0.4-0.3,0.6c0,0.2,0.1,0.4,0.3,0.6
					c0.2,0.2,0.4,0.3,0.6,0.3c0.2,0,0.4-0.1,0.6-0.3s0.3-0.4,0.3-0.6c0-0.2-0.1-0.4-0.3-0.6C164.3,355.6,164.1,355.5,163.8,355.5z"
					/>
			</g>
		</g>
	</g>
	<g transform="matrix( 1, 0, 0, 1, 85.75,-176.55) ">
		<g>
			<g>
				
					<radialGradient id="SVGID_18_" cx="78.3677" cy="495.7383" r="3.9375" gradientTransform="matrix(1 0 0 -1 78.2051 845.8622)" gradientUnits="userSpaceOnUse">
					<stop  offset="0" style="stop-color:#FFFFFF"/>
					<stop  offset="1" style="stop-color:#1C96E0"/>
				</radialGradient>
				<path class="st21" d="M157.4,349.4c-0.3-0.3-0.6-0.4-0.9-0.4s-0.7,0.1-0.9,0.4c-0.3,0.3-0.4,0.6-0.4,1c0,0.4,0.1,0.7,0.4,0.9
					c0.3,0.3,0.6,0.4,0.9,0.4c0.4,0,0.7-0.1,0.9-0.4s0.4-0.6,0.4-0.9C157.8,350,157.7,349.7,157.4,349.4z"/>
			</g>
		</g>
	</g>
	<g transform="matrix( 1, 0, 0, 1, 71,-192.55) ">
		<g>
			<g>
				
					<radialGradient id="SVGID_19_" cx="93.1177" cy="511.7383" r="1.75" gradientTransform="matrix(1 0 0 -1 82.2051 873.2122)" gradientUnits="userSpaceOnUse">
					<stop  offset="0" style="stop-color:#FFFFFF"/>
					<stop  offset="1" style="stop-color:#1C96E0"/>
				</radialGradient>
				<path class="st22" d="M175.8,361.6c0-0.2-0.1-0.3-0.1-0.4c-0.1-0.1-0.3-0.2-0.4-0.2c-0.2,0-0.3,0.1-0.4,0.2
					c-0.1,0.1-0.2,0.3-0.2,0.4c0,0.2,0.1,0.3,0.2,0.4c0.1,0.1,0.2,0.2,0.4,0.2c0.2,0,0.3-0.1,0.4-0.2
					C175.8,361.9,175.8,361.7,175.8,361.6z"/>
			</g>
		</g>
	</g>
	<g transform="matrix( 1, 0, 0, 1, 47.75,-178.5) ">
		<g>
			<g>
				
					<radialGradient id="SVGID_20_" cx="116.3677" cy="497.6882" r="1.75" gradientTransform="matrix(1 0 0 -1 65.9551 846.3123)" gradientUnits="userSpaceOnUse">
					<stop  offset="0" style="stop-color:#FFFFFF"/>
					<stop  offset="1" style="stop-color:#1C96E0"/>
				</radialGradient>
				<path class="st23" d="M182.2,348.1c-0.2,0-0.3,0-0.4,0.1c-0.1,0.1-0.2,0.3-0.2,0.4c0,0.2,0.1,0.3,0.2,0.4
					c0.1,0.1,0.2,0.2,0.4,0.2c0.2,0,0.3-0.1,0.4-0.2c0.1-0.1,0.1-0.2,0.1-0.4c0-0.2-0.1-0.3-0.1-0.4
					C182.5,348.2,182.4,348.1,182.2,348.1z"/>
			</g>
		</g>
	</g>
	<g transform="matrix( 1, 0, 0, 1, 130.95,-31.75) ">
		<g>
			<g>
				
					<radialGradient id="SVGID_21_" cx="33.1677" cy="350.9382" r="1.75" gradientTransform="matrix(1 0 0 -1 154.0551 583.9622)" gradientUnits="userSpaceOnUse">
					<stop  offset="0" style="stop-color:#FFFFFF"/>
					<stop  offset="1" style="stop-color:#1C96E0"/>
				</radialGradient>
				<path class="st24" d="M186.7,233.5c0.1,0.1,0.2,0.2,0.4,0.2c0.2,0,0.3-0.1,0.4-0.2c0.1-0.1,0.2-0.2,0.2-0.4
					c0-0.2-0.1-0.3-0.2-0.4c-0.1-0.1-0.3-0.1-0.4-0.1c-0.2,0-0.3,0.1-0.4,0.1c-0.1,0.1-0.2,0.3-0.2,0.4
					C186.5,233.3,186.6,233.4,186.7,233.5z"/>
			</g>
		</g>
	</g>
	<g transform="matrix( 1, 0, 0, 1, 50.15,-142.2) ">
		<g>
			<g>
				
					<radialGradient id="SVGID_22_" cx="113.9677" cy="461.3882" r="1.75" gradientTransform="matrix(1 0 0 -1 144.0051 799.7122)" gradientUnits="userSpaceOnUse">
					<stop  offset="0" style="stop-color:#FFFFFF"/>
					<stop  offset="1" style="stop-color:#1C96E0"/>
				</radialGradient>
				<path class="st25" d="M258.3,338c-0.1-0.1-0.3-0.1-0.4-0.1c-0.2,0-0.3,0-0.4,0.1c-0.1,0.1-0.2,0.3-0.2,0.5
					c0,0.2,0.1,0.3,0.2,0.4c0.1,0.1,0.2,0.2,0.4,0.2c0.2,0,0.3-0.1,0.4-0.2c0.1-0.1,0.2-0.2,0.2-0.4S258.4,338.1,258.3,338z"/>
			</g>
		</g>
	</g>
	<g transform="matrix( -0.2572784423828125, -0.2572784423828125, -0.2572784423828125, 0.2572784423828125, 439.95,327.45) ">
		<g>
			<g>
				
					<radialGradient id="SVGID_23_" cx="1324.4474" cy="2235.7124" r="10.0125" gradientTransform="matrix(-0.2573 0.2573 -0.2573 -0.2573 1412.4358 250.7314)" gradientUnits="userSpaceOnUse">
					<stop  offset="0" style="stop-color:#FFFFFF"/>
					<stop  offset="1" style="stop-color:#84E3ED"/>
				</radialGradient>
				<path class="st26" d="M489.8,22.4c3.7-2.4,8-2.4,12.8,0c-2.6-4.9-2.6-9.1,0-12.8c-4.4,3.2-8.7,3.2-12.8,0
					C492.2,14.2,492.2,18.5,489.8,22.4z"/>
			</g>
		</g>
	</g>
	<g transform="matrix( -0.2572784423828125, -0.2572784423828125, -0.2572784423828125, 0.2572784423828125, 482,364.75) ">
		<g>
			<g>
				
					<radialGradient id="SVGID_24_" cx="1478.658" cy="2244.9436" r="10.0125" gradientTransform="matrix(-0.2573 0.2573 -0.2573 -0.2573 1454.4858 213.4313)" gradientUnits="userSpaceOnUse">
					<stop  offset="0" style="stop-color:#FFFFFF"/>
					<stop  offset="1" style="stop-color:#84E3ED"/>
				</radialGradient>
				<path class="st27" d="M489.8,22.4c3.7-2.4,8-2.4,12.8,0c-2.6-4.9-2.6-9.1,0-12.8c-4.4,3.2-8.7,3.2-12.8,0
					C492.2,14.2,492.2,18.5,489.8,22.4z"/>
			</g>
		</g>
	</g>
	<g id="___1_131_" transform="matrix( 1, 0, 0, 1, 319.6,234.7) ">
		<g transform="matrix( 0.0966949462890625, 0.0966949462890625, -0.0966949462890625, 0.0966949462890625, -38.85,-55.1) ">
			<g>
				<g>
					
						<radialGradient id="SVGID_25_" cx="8464.3623" cy="-1730.1267" r="10.0125" gradientTransform="matrix(9.669495e-02 -9.669495e-02 -9.669495e-02 -9.669495e-02 -479.6916 554.4909)" gradientUnits="userSpaceOnUse">
						<stop  offset="0" style="stop-color:#FFFFFF"/>
						<stop  offset="1" style="stop-color:#84E3ED"/>
					</radialGradient>
					<path class="st28" d="M499.4-90.6c3.7-2.4,8-2.4,12.8,0c-2.6-4.9-2.6-9.1,0-12.8c-4.4,3.2-8.7,3.2-12.8,0
						C501.8-98.7,501.8-94.5,499.4-90.6z"/>
				</g>
			</g>
		</g>
	</g>
	<g id="___1_130_" transform="matrix( 1, 0, 0, 1, 319.85,228.3) ">
		<g transform="matrix( 0.0966949462890625, 0.0966949462890625, -0.0966949462890625, 0.0966949462890625, -38.85,-55.1) ">
			<g>
				<g>
					
						<radialGradient id="SVGID_26_" cx="8496.1631" cy="-1695.7404" r="10.0125" gradientTransform="matrix(9.669495e-02 -9.669495e-02 -9.669495e-02 -9.669495e-02 -479.4416 560.8909)" gradientUnits="userSpaceOnUse">
						<stop  offset="0" style="stop-color:#FFFFFF"/>
						<stop  offset="1" style="stop-color:#84E3ED"/>
					</radialGradient>
					<path class="st29" d="M499.4-90.6c3.7-2.4,8-2.4,12.8,0c-2.6-4.9-2.6-9.1,0-12.8c-4.4,3.2-8.7,3.2-12.8,0
						C501.8-98.7,501.8-94.5,499.4-90.6z"/>
				</g>
			</g>
		</g>
	</g>
	<g id="___1_129_" transform="matrix( 1, 0, 0, 1, 263.3,204.3) ">
		<g transform="matrix( 0.0966949462890625, 0.0966949462890625, -0.0966949462890625, 0.0966949462890625, -38.85,-55.1) ">
			<g>
				<g>
					
						<radialGradient id="SVGID_27_" cx="8912.6787" cy="-1864.0531" r="10.0125" gradientTransform="matrix(9.669495e-02 -9.669495e-02 -9.669495e-02 -9.669495e-02 -535.9916 584.8909)" gradientUnits="userSpaceOnUse">
						<stop  offset="0" style="stop-color:#FFFFFF"/>
						<stop  offset="1" style="stop-color:#84E3ED"/>
					</radialGradient>
					<path class="st30" d="M499.4-90.6c3.7-2.4,8-2.4,12.8,0c-2.6-4.9-2.6-9.1,0-12.8c-4.4,3.2-8.7,3.2-12.8,0
						C501.8-98.7,501.8-94.5,499.4-90.6z"/>
				</g>
			</g>
		</g>
	</g>
	<g transform="matrix( 1, 0, 0, 1, 38.25,-151.4) ">
		<g>
			<g>
				
					<radialGradient id="SVGID_28_" cx="125.8677" cy="470.5882" r="3.9375" gradientTransform="matrix(1 0 0 -1 124.5051 820.1122)" gradientUnits="userSpaceOnUse">
					<stop  offset="0" style="stop-color:#FFFFFF"/>
					<stop  offset="1" style="stop-color:#1C96E0"/>
				</radialGradient>
				<path class="st31" d="M249.3,350.7c0.3,0.3,0.6,0.4,1,0.4c0.4,0,0.7-0.1,0.9-0.4c0.3-0.3,0.4-0.6,0.4-0.9c0-0.4-0.1-0.7-0.4-1
					c-0.3-0.3-0.6-0.4-0.9-0.4s-0.7,0.1-1,0.4c-0.3,0.3-0.4,0.6-0.4,1C248.9,350.1,249.1,350.5,249.3,350.7z"/>
			</g>
		</g>
	</g>
	<g transform="matrix( 1, 0, 0, 1, 33.35,-148.65) ">
		<g>
			<g>
				
					<radialGradient id="SVGID_29_" cx="130.7677" cy="467.8382" r="1.75" gradientTransform="matrix(1 0 0 -1 127.2051 806.1622)" gradientUnits="userSpaceOnUse">
					<stop  offset="0" style="stop-color:#FFFFFF"/>
					<stop  offset="1" style="stop-color:#1C96E0"/>
				</radialGradient>
				<path class="st32" d="M258.3,338c-0.1-0.1-0.3-0.1-0.4-0.1c-0.2,0-0.3,0-0.4,0.1c-0.1,0.1-0.2,0.3-0.2,0.5
					c0,0.2,0.1,0.3,0.2,0.4c0.1,0.1,0.2,0.2,0.4,0.2c0.2,0,0.3-0.1,0.4-0.2c0.1-0.1,0.2-0.2,0.2-0.4S258.4,338.1,258.3,338z"/>
			</g>
		</g>
	</g>
	<g transform="matrix( 1, 0, 0, 1, 24.95,-175.7) ">
		<g>
			<g>
				
					<radialGradient id="SVGID_30_" cx="139.1677" cy="494.8882" r="3.9375" gradientTransform="matrix(1 0 0 -1 111.2051 844.4122)" gradientUnits="userSpaceOnUse">
					<stop  offset="0" style="stop-color:#FFFFFF"/>
					<stop  offset="1" style="stop-color:#1C96E0"/>
				</radialGradient>
				<path class="st33" d="M249.3,350.7c0.3,0.3,0.6,0.4,1,0.4c0.4,0,0.7-0.1,0.9-0.4c0.3-0.3,0.4-0.6,0.4-0.9c0-0.4-0.1-0.7-0.4-1
					c-0.3-0.3-0.6-0.4-0.9-0.4s-0.7,0.1-1,0.4c-0.3,0.3-0.4,0.6-0.4,1C248.9,350.1,249.1,350.5,249.3,350.7z"/>
			</g>
		</g>
	</g>
	<g transform="matrix( 1, 0, 0, 1, 15.75,-180.3) ">
		<g>
			<g>
				
					<radialGradient id="SVGID_31_" cx="148.3677" cy="499.4883" r="3.9375" gradientTransform="matrix(1 0 0 -1 102.0051 849.0122)" gradientUnits="userSpaceOnUse">
					<stop  offset="0" style="stop-color:#FFFFFF"/>
					<stop  offset="1" style="stop-color:#1C96E0"/>
				</radialGradient>
				<path class="st34" d="M249.3,350.7c0.3,0.3,0.6,0.4,1,0.4c0.4,0,0.7-0.1,0.9-0.4c0.3-0.3,0.4-0.6,0.4-0.9c0-0.4-0.1-0.7-0.4-1
					c-0.3-0.3-0.6-0.4-0.9-0.4s-0.7,0.1-1,0.4c-0.3,0.3-0.4,0.6-0.4,1C248.9,350.1,249.1,350.5,249.3,350.7z"/>
			</g>
		</g>
	</g>
	<g transform="matrix( 0.703704833984375, 0, 0, 0.703704833984375, 88,-97.1) ">
		<g>
			<g>
				
					<radialGradient id="SVGID_32_" cx="206.3642" cy="543.214" r="3.9375" gradientTransform="matrix(0.7037 0 0 -0.7037 112.8049 724.7016)" gradientUnits="userSpaceOnUse">
					<stop  offset="0" style="stop-color:#FFFFFF"/>
					<stop  offset="1" style="stop-color:#1C96E0"/>
				</radialGradient>
				<path class="st35" d="M257,343.6c0.3,0.3,0.6,0.4,1,0.4c0.4,0,0.7-0.1,0.9-0.4s0.4-0.6,0.4-0.9c0-0.4-0.1-0.7-0.4-1
					s-0.6-0.4-0.9-0.4s-0.7,0.1-1,0.4s-0.4,0.6-0.4,1C256.6,343.1,256.7,343.4,257,343.6z"/>
			</g>
		</g>
	</g>
	<g transform="matrix( 0.647064208984375, 0, 0, 0.647064208984375, 156.1,-75.8) ">
		<g>
			<g>
				
					<radialGradient id="SVGID_33_" cx="150.7337" cy="542.3113" r="2.475" gradientTransform="matrix(0.6471 0 0 -0.6471 76.3007 697.9067)" gradientUnits="userSpaceOnUse">
					<stop  offset="0" style="stop-color:#FFFFFF"/>
					<stop  offset="1" style="stop-color:#1C96E0"/>
				</radialGradient>
				<path class="st36" d="M173.7,346.3c-0.2,0-0.4,0.1-0.6,0.3c-0.2,0.2-0.3,0.4-0.3,0.6c0,0.2,0.1,0.4,0.3,0.6
					c0.2,0.2,0.4,0.3,0.6,0.3c0.2,0,0.4-0.1,0.6-0.3s0.3-0.4,0.3-0.6c0-0.2-0.1-0.4-0.3-0.6C174.2,346.4,174,346.3,173.7,346.3z"/>
			</g>
		</g>
	</g>
	<g id="___1_127_" transform="matrix( 1, 0, 0, 1, 273.95,189.55) ">
		<g id="___1_128_">
			<g transform="matrix( 0.1918487548828125, 0.1918487548828125, -0.1918487548828125, 0.1918487548828125, -77.1,-109.35) ">
				<g>
					<g>
						
							<radialGradient id="SVGID_34_" cx="2549.9316" cy="248.6946" r="10.0125" gradientTransform="matrix(0.1918 -0.1918 -0.1918 -0.1918 61.12 529.9982)" gradientUnits="userSpaceOnUse">
							<stop  offset="0" style="stop-color:#FFFFFF"/>
							<stop  offset="1" style="stop-color:#84E3ED"/>
						</radialGradient>
						<path class="st37" d="M495.9-0.8c3.7-2.4,8-2.4,12.8,0c-2.6-4.9-2.6-9.1,0-12.8c-4.4,3.2-8.7,3.2-12.8,0
							C498.4-9,498.4-4.7,495.9-0.8z"/>
					</g>
				</g>
			</g>
		</g>
	</g>
	<g id="___1_126_" transform="matrix( 1, 0, 0, 1, 290.8,197.3) ">
		<g transform="matrix( 0.0966949462890625, 0.0966949462890625, -0.0966949462890625, 0.0966949462890625, -38.85,-55.1) ">
			<g>
				<g>
					
						<radialGradient id="SVGID_35_" cx="8806.6758" cy="-1685.6571" r="10.0125" gradientTransform="matrix(9.669495e-02 -9.669495e-02 -9.669495e-02 -9.669495e-02 -508.4916 591.8909)" gradientUnits="userSpaceOnUse">
						<stop  offset="0" style="stop-color:#FFFFFF"/>
						<stop  offset="1" style="stop-color:#84E3ED"/>
					</radialGradient>
					<path class="st38" d="M499.4-90.6c3.7-2.4,8-2.4,12.8,0c-2.6-4.9-2.6-9.1,0-12.8c-4.4,3.2-8.7,3.2-12.8,0
						C501.8-98.7,501.8-94.5,499.4-90.6z"/>
				</g>
			</g>
		</g>
	</g>
	<g id="___1_125_" transform="matrix( 1, 0, 0, 1, 273.4,124.05) ">
		<g transform="matrix( 0.0966949462890625, 0.0966949462890625, -0.0966949462890625, 0.0966949462890625, -38.85,-55.1) ">
			<g>
				<g>
					
						<radialGradient id="SVGID_36_" cx="9275.417" cy="-1396.8624" r="10.0125" gradientTransform="matrix(9.669495e-02 -9.669495e-02 -9.669495e-02 -9.669495e-02 -525.8916 665.1409)" gradientUnits="userSpaceOnUse">
						<stop  offset="0" style="stop-color:#FFFFFF"/>
						<stop  offset="1" style="stop-color:#84E3ED"/>
					</radialGradient>
					<path class="st39" d="M499.4-90.6c3.7-2.4,8-2.4,12.8,0c-2.6-4.9-2.6-9.1,0-12.8c-4.4,3.2-8.7,3.2-12.8,0
						C501.8-98.7,501.8-94.5,499.4-90.6z"/>
				</g>
			</g>
		</g>
	</g>
	<g id="___1_123_" transform="matrix( 1, 0, 0, 1, 258.4,147.1) ">
		<g id="___1_124_">
			<g transform="matrix( 0.1918487548828125, 0.1918487548828125, -0.1918487548828125, 0.1918487548828125, -77.1,-109.35) ">
				<g>
					<g>
						
							<radialGradient id="SVGID_37_" cx="2701.092" cy="318.8018" r="10.0125" gradientTransform="matrix(0.1918 -0.1918 -0.1918 -0.1918 45.57 572.4482)" gradientUnits="userSpaceOnUse">
							<stop  offset="0" style="stop-color:#FFFFFF"/>
							<stop  offset="1" style="stop-color:#84E3ED"/>
						</radialGradient>
						<path class="st40" d="M495.9-0.8c3.7-2.4,8-2.4,12.8,0c-2.6-4.9-2.6-9.1,0-12.8c-4.4,3.2-8.7,3.2-12.8,0
							C498.4-9,498.4-4.7,495.9-0.8z"/>
					</g>
				</g>
			</g>
		</g>
	</g>
	<g id="___1_122_" transform="matrix( 1, 0, 0, 1, 257.45,127.65) ">
		<g transform="matrix( 0.0966949462890625, 0.0966949462890625, -0.0966949462890625, 0.0966949462890625, -38.85,-55.1) ">
			<g>
				<g>
					
						<radialGradient id="SVGID_38_" cx="9339.2783" cy="-1497.9534" r="10.0125" gradientTransform="matrix(9.669495e-02 -9.669495e-02 -9.669495e-02 -9.669495e-02 -541.8416 661.5408)" gradientUnits="userSpaceOnUse">
						<stop  offset="0" style="stop-color:#FFFFFF"/>
						<stop  offset="1" style="stop-color:#84E3ED"/>
					</radialGradient>
					<path class="st41" d="M499.4-90.6c3.7-2.4,8-2.4,12.8,0c-2.6-4.9-2.6-9.1,0-12.8c-4.4,3.2-8.7,3.2-12.8,0
						C501.8-98.7,501.8-94.5,499.4-90.6z"/>
				</g>
			</g>
		</g>
	</g>
	<g transform="matrix( 0.703704833984375, 0, 0, 0.703704833984375, 206.5,-23.45) ">
		<g>
			<g>
				
					<radialGradient id="SVGID_39_" cx="37.9698" cy="438.5537" r="3.9375" gradientTransform="matrix(0.7037 0 0 -0.7037 137.5049 651.6517)" gradientUnits="userSpaceOnUse">
					<stop  offset="0" style="stop-color:#FFFFFF"/>
					<stop  offset="1" style="stop-color:#1C96E0"/>
				</radialGradient>
				<path class="st42" d="M165.1,342.3c-0.3-0.3-0.6-0.4-0.9-0.4s-0.7,0.1-0.9,0.4c-0.3,0.3-0.4,0.6-0.4,1c0,0.4,0.1,0.7,0.4,0.9
					c0.3,0.3,0.6,0.4,0.9,0.4c0.4,0,0.7-0.1,0.9-0.4s0.4-0.6,0.4-0.9C165.5,342.9,165.3,342.6,165.1,342.3z"/>
			</g>
		</g>
	</g>
	<g transform="matrix( 0.647064208984375, 0, 0, 0.647064208984375, 214.55,-4.55) ">
		<g>
			<g>
				
					<radialGradient id="SVGID_40_" cx="60.4026" cy="432.1986" r="2.475" gradientTransform="matrix(0.6471 0 0 -0.6471 134.7507 626.6567)" gradientUnits="userSpaceOnUse">
					<stop  offset="0" style="stop-color:#FFFFFF"/>
					<stop  offset="1" style="stop-color:#1C96E0"/>
				</radialGradient>
				<path class="st43" d="M173.7,346.3c-0.2,0-0.4,0.1-0.6,0.3c-0.2,0.2-0.3,0.4-0.3,0.6c0,0.2,0.1,0.4,0.3,0.6
					c0.2,0.2,0.4,0.3,0.6,0.3c0.2,0,0.4-0.1,0.6-0.3s0.3-0.4,0.3-0.6c0-0.2-0.1-0.4-0.3-0.6C174.2,346.4,174,346.3,173.7,346.3z"/>
			</g>
		</g>
	</g>
	<g transform="matrix( 0.703704833984375, 0, 0, 0.703704833984375, 88.45,-110.45) ">
		<g>
			<g>
				
					<radialGradient id="SVGID_41_" cx="205.7248" cy="562.1851" r="3.9375" gradientTransform="matrix(0.7037 0 0 -0.7037 19.455 738.6516)" gradientUnits="userSpaceOnUse">
					<stop  offset="0" style="stop-color:#FFFFFF"/>
					<stop  offset="1" style="stop-color:#1C96E0"/>
				</radialGradient>
				<path class="st44" d="M165.1,342.3c-0.3-0.3-0.6-0.4-0.9-0.4s-0.7,0.1-0.9,0.4c-0.3,0.3-0.4,0.6-0.4,1c0,0.4,0.1,0.7,0.4,0.9
					c0.3,0.3,0.6,0.4,0.9,0.4c0.4,0,0.7-0.1,0.9-0.4s0.4-0.6,0.4-0.9C165.5,342.9,165.3,342.6,165.1,342.3z"/>
			</g>
		</g>
	</g>
	<g transform="matrix( -0.2572784423828125, -0.2572784423828125, -0.2572784423828125, 0.2572784423828125, 384.4,244.3) ">
		<g>
			<g>
				
					<radialGradient id="SVGID_42_" cx="1054.8945" cy="2289.3508" r="10.0125" gradientTransform="matrix(-0.2573 0.2573 -0.2573 -0.2573 1356.8857 333.8815)" gradientUnits="userSpaceOnUse">
					<stop  offset="0" style="stop-color:#FFFFFF"/>
					<stop  offset="1" style="stop-color:#84E3ED"/>
				</radialGradient>
				<path class="st45" d="M489.8,9.6c2.4,4.6,2.4,8.9,0,12.8c3.7-2.4,8-2.4,12.8,0c-2.6-4.9-2.6-9.1,0-12.8
					C498.1,12.7,493.9,12.7,489.8,9.6z"/>
			</g>
		</g>
	</g>
	<g id="___1_121_" transform="matrix( 1, 0, 0, 1, 146.75,220.9) ">
		<g transform="matrix( 0.0966949462890625, 0.0966949462890625, -0.0966949462890625, 0.0966949462890625, -38.85,-55.1) ">
			<g>
				<g>
					
						<radialGradient id="SVGID_43_" cx="9429.5098" cy="-2552.5581" r="10.0125" gradientTransform="matrix(9.669495e-02 -9.669495e-02 -9.669495e-02 -9.669495e-02 -652.5415 568.2909)" gradientUnits="userSpaceOnUse">
						<stop  offset="0" style="stop-color:#FFFFFF"/>
						<stop  offset="1" style="stop-color:#84E3ED"/>
					</radialGradient>
					<path class="st46" d="M499.4-90.6c3.7-2.4,8-2.4,12.8,0c-2.6-4.9-2.6-9.1,0-12.8c-4.4,3.2-8.7,3.2-12.8,0
						C501.8-98.7,501.8-94.5,499.4-90.6z"/>
				</g>
			</g>
		</g>
	</g>
	<g id="___1_120_" transform="matrix( 1, 0, 0, 1, 147.25,228.55) ">
		<g transform="matrix( 0.0966949462890625, 0.0966949462890625, -0.0966949462890625, 0.0966949462890625, -38.85,-55.1) ">
			<g>
				<g>
					
						<radialGradient id="SVGID_44_" cx="9387.3672" cy="-2589.53" r="10.0125" gradientTransform="matrix(9.669495e-02 -9.669495e-02 -9.669495e-02 -9.669495e-02 -652.0415 560.6409)" gradientUnits="userSpaceOnUse">
						<stop  offset="0" style="stop-color:#FFFFFF"/>
						<stop  offset="1" style="stop-color:#84E3ED"/>
					</radialGradient>
					<path class="st47" d="M499.4-90.6c3.7-2.4,8-2.4,12.8,0c-2.6-4.9-2.6-9.1,0-12.8c-4.4,3.2-8.7,3.2-12.8,0
						C501.8-98.7,501.8-94.5,499.4-90.6z"/>
				</g>
			</g>
		</g>
	</g>
	<g id="___1_119_" transform="matrix( 1, 0, 0, 1, 132.25,215.5) ">
		<g transform="matrix( 0.0966949462890625, 0.0966949462890625, -0.0966949462890625, 0.0966949462890625, -38.85,-55.1) ">
			<g>
				<g>
					
						<radialGradient id="SVGID_45_" cx="9532.4111" cy="-2599.6133" r="10.0125" gradientTransform="matrix(9.669495e-02 -9.669495e-02 -9.669495e-02 -9.669495e-02 -667.0415 573.6909)" gradientUnits="userSpaceOnUse">
						<stop  offset="0" style="stop-color:#FFFFFF"/>
						<stop  offset="1" style="stop-color:#84E3ED"/>
					</radialGradient>
					<path class="st48" d="M499.4-90.6c3.7-2.4,8-2.4,12.8,0c-2.6-4.9-2.6-9.1,0-12.8c-4.4,3.2-8.7,3.2-12.8,0
						C501.8-98.7,501.8-94.5,499.4-90.6z"/>
				</g>
			</g>
		</g>
	</g>
	<g id="___1_118_" transform="matrix( 1, 0, 0, 1, 135.2,221.4) ">
		<g transform="matrix( 0.0966949462890625, 0.0966949462890625, -0.0966949462890625, 0.0966949462890625, -38.85,-55.1) ">
			<g>
				<g>
					
						<radialGradient id="SVGID_46_" cx="9486.6484" cy="-2614.8674" r="10.0125" gradientTransform="matrix(9.669495e-02 -9.669495e-02 -9.669495e-02 -9.669495e-02 -664.0916 567.7909)" gradientUnits="userSpaceOnUse">
						<stop  offset="0" style="stop-color:#FFFFFF"/>
						<stop  offset="1" style="stop-color:#84E3ED"/>
					</radialGradient>
					<path class="st49" d="M499.4-90.6c3.7-2.4,8-2.4,12.8,0c-2.6-4.9-2.6-9.1,0-12.8c-4.4,3.2-8.7,3.2-12.8,0
						C501.8-98.7,501.8-94.5,499.4-90.6z"/>
				</g>
			</g>
		</g>
	</g>
	<g id="___1_117_" transform="matrix( 1, 0, 0, 1, 191.1,218.15) ">
		<g transform="matrix( 0.0966949462890625, 0.0966949462890625, -0.0966949462890625, 0.0966949462890625, -38.85,-55.1) ">
			<g>
				<g>
					
						<radialGradient id="SVGID_47_" cx="9214.4004" cy="-2309.0088" r="10.0125" gradientTransform="matrix(9.669495e-02 -9.669495e-02 -9.669495e-02 -9.669495e-02 -608.1915 571.0409)" gradientUnits="userSpaceOnUse">
						<stop  offset="0" style="stop-color:#FFFFFF"/>
						<stop  offset="1" style="stop-color:#84E3ED"/>
					</radialGradient>
					<path class="st50" d="M499.4-90.6c3.7-2.4,8-2.4,12.8,0c-2.6-4.9-2.6-9.1,0-12.8c-4.4,3.2-8.7,3.2-12.8,0
						C501.8-98.7,501.8-94.5,499.4-90.6z"/>
				</g>
			</g>
		</g>
	</g>
	<g id="___1_116_" transform="matrix( 1, 0, 0, 1, 193.6,211.35) ">
		<g transform="matrix( 0.0966949462890625, 0.0966949462890625, -0.0966949462890625, 0.0966949462890625, -38.85,-55.1) ">
			<g>
				<g>
					
						<radialGradient id="SVGID_48_" cx="9236.6357" cy="-2260.9194" r="10.0125" gradientTransform="matrix(9.669495e-02 -9.669495e-02 -9.669495e-02 -9.669495e-02 -605.6915 577.8409)" gradientUnits="userSpaceOnUse">
						<stop  offset="0" style="stop-color:#FFFFFF"/>
						<stop  offset="1" style="stop-color:#84E3ED"/>
					</radialGradient>
					<path class="st51" d="M499.4-90.6c3.7-2.4,8-2.4,12.8,0c-2.6-4.9-2.6-9.1,0-12.8c-4.4,3.2-8.7,3.2-12.8,0
						C501.8-98.7,501.8-94.5,499.4-90.6z"/>
				</g>
			</g>
		</g>
	</g>
	<g id="___1_115_" transform="matrix( 1, 0, 0, 1, 149.55,226.6) ">
		<g transform="matrix( 0.1918487548828125, 0.1918487548828125, -0.1918487548828125, 0.1918487548828125, -77.1,-109.35) ">
			<g>
				<g>
					
						<radialGradient id="SVGID_49_" cx="2777.5845" cy="-172.0791" r="10.0125" gradientTransform="matrix(0.1918 -0.1918 -0.1918 -0.1918 -63.2799 492.9483)" gradientUnits="userSpaceOnUse">
						<stop  offset="0" style="stop-color:#FFFFFF"/>
						<stop  offset="1" style="stop-color:#84E3ED"/>
					</radialGradient>
					<path class="st52" d="M495.9-0.8c3.7-2.4,8-2.4,12.8,0c-2.6-4.9-2.6-9.1,0-12.8c-4.4,3.2-8.7,3.2-12.8,0
						C498.4-9,498.4-4.7,495.9-0.8z"/>
				</g>
			</g>
		</g>
	</g>
	<g id="___1_113_" transform="matrix( 1, 0, 0, 1, 165.45,234.2) ">
		<g id="___1_114_">
			<g transform="matrix( 0.1918487548828125, 0.1918487548828125, -0.1918487548828125, 0.1918487548828125, -77.1,-109.35) ">
				<g>
					<g>
						
							<radialGradient id="SVGID_50_" cx="2716.3386" cy="-150.4475" r="10.0125" gradientTransform="matrix(0.1918 -0.1918 -0.1918 -0.1918 -47.3799 485.3483)" gradientUnits="userSpaceOnUse">
							<stop  offset="0" style="stop-color:#FFFFFF"/>
							<stop  offset="1" style="stop-color:#84E3ED"/>
						</radialGradient>
						<path class="st53" d="M495.9-0.8c3.7-2.4,8-2.4,12.8,0c-2.6-4.9-2.6-9.1,0-12.8c-4.4,3.2-8.7,3.2-12.8,0
							C498.4-9,498.4-4.7,495.9-0.8z"/>
					</g>
				</g>
			</g>
		</g>
	</g>
	<g transform="matrix( 1, 0, 0, 1, 60.45,-151.65) ">
		<g>
			<g>
				
					<radialGradient id="SVGID_51_" cx="103.6677" cy="470.8382" r="2.475" gradientTransform="matrix(1 0 0 -1 60.2551 827.0122)" gradientUnits="userSpaceOnUse">
					<stop  offset="0" style="stop-color:#FFFFFF"/>
					<stop  offset="1" style="stop-color:#1C96E0"/>
				</radialGradient>
				<path class="st54" d="M163.8,355.5c-0.2,0-0.4,0.1-0.6,0.3c-0.2,0.2-0.3,0.4-0.3,0.6c0,0.2,0.1,0.4,0.3,0.6
					c0.2,0.2,0.4,0.3,0.6,0.3c0.2,0,0.4-0.1,0.6-0.3s0.3-0.4,0.3-0.6c0-0.2-0.1-0.4-0.3-0.6C164.3,355.6,164.1,355.5,163.8,355.5z"
					/>
			</g>
		</g>
	</g>
	<g transform="matrix( 1, 0, 0, 1, 84.25,-101.2) ">
		<g>
			<g>
				
					<radialGradient id="SVGID_52_" cx="79.8677" cy="420.3882" r="3.9375" gradientTransform="matrix(1 0 0 -1 76.7051 770.5122)" gradientUnits="userSpaceOnUse">
					<stop  offset="0" style="stop-color:#FFFFFF"/>
					<stop  offset="1" style="stop-color:#1C96E0"/>
				</radialGradient>
				<path class="st55" d="M157.4,349.4c-0.3-0.3-0.6-0.4-0.9-0.4s-0.7,0.1-0.9,0.4c-0.3,0.3-0.4,0.6-0.4,1c0,0.4,0.1,0.7,0.4,0.9
					c0.3,0.3,0.6,0.4,0.9,0.4c0.4,0,0.7-0.1,0.9-0.4s0.4-0.6,0.4-0.9C157.8,350,157.7,349.7,157.4,349.4z"/>
			</g>
		</g>
	</g>
	<g transform="matrix( 1, 0, 0, 1, 33.45,-174.7) ">
		<g>
			<g>
				
					<radialGradient id="SVGID_53_" cx="130.6677" cy="493.8882" r="1.75" gradientTransform="matrix(1 0 0 -1 44.6551 855.3622)" gradientUnits="userSpaceOnUse">
					<stop  offset="0" style="stop-color:#FFFFFF"/>
					<stop  offset="1" style="stop-color:#1C96E0"/>
				</radialGradient>
				<path class="st56" d="M175.8,361.6c0-0.2-0.1-0.3-0.1-0.4c-0.1-0.1-0.3-0.2-0.4-0.2c-0.2,0-0.3,0.1-0.4,0.2
					c-0.1,0.1-0.2,0.3-0.2,0.4c0,0.2,0.1,0.3,0.2,0.4c0.1,0.1,0.2,0.2,0.4,0.2c0.2,0,0.3-0.1,0.4-0.2
					C175.8,361.9,175.8,361.7,175.8,361.6z"/>
			</g>
		</g>
	</g>
	<g transform="matrix( 1, 0, 0, 1, 10.2,-160.65) ">
		<g>
			<g>
				
					<radialGradient id="SVGID_54_" cx="153.9177" cy="479.8382" r="1.75" gradientTransform="matrix(1 0 0 -1 28.4051 828.4622)" gradientUnits="userSpaceOnUse">
					<stop  offset="0" style="stop-color:#FFFFFF"/>
					<stop  offset="1" style="stop-color:#1C96E0"/>
				</radialGradient>
				<path class="st57" d="M182.2,348.1c-0.2,0-0.3,0-0.4,0.1c-0.1,0.1-0.2,0.3-0.2,0.4c0,0.2,0.1,0.3,0.2,0.4
					c0.1,0.1,0.2,0.2,0.4,0.2c0.2,0,0.3-0.1,0.4-0.2c0.1-0.1,0.1-0.2,0.1-0.4c0-0.2-0.1-0.3-0.1-0.4
					C182.5,348.2,182.4,348.1,182.2,348.1z"/>
			</g>
		</g>
	</g>
	<g transform="matrix( 1, 0, 0, 1, -58.55,-128.55) ">
		<g>
			<g>
				
					<radialGradient id="SVGID_55_" cx="222.6677" cy="447.7383" r="1.75" gradientTransform="matrix(1 0 0 -1 35.3051 786.0622)" gradientUnits="userSpaceOnUse">
					<stop  offset="0" style="stop-color:#FFFFFF"/>
					<stop  offset="1" style="stop-color:#1C96E0"/>
				</radialGradient>
				<path class="st58" d="M258.3,338c-0.1-0.1-0.3-0.1-0.4-0.1c-0.2,0-0.3,0-0.4,0.1c-0.1,0.1-0.2,0.3-0.2,0.5
					c0,0.2,0.1,0.3,0.2,0.4c0.1,0.1,0.2,0.2,0.4,0.2c0.2,0,0.3-0.1,0.4-0.2c0.1-0.1,0.2-0.2,0.2-0.4S258.4,338.1,258.3,338z"/>
			</g>
		</g>
	</g>
	<g transform="matrix( -0.2572784423828125, -0.2572784423828125, -0.2572784423828125, 0.2572784423828125, 334.75,337.35) ">
		<g>
			<g>
				
					<radialGradient id="SVGID_56_" cx="1139.2391" cy="2012.0244" r="10.0125" gradientTransform="matrix(-0.2573 0.2573 -0.2573 -0.2573 1307.2356 240.8314)" gradientUnits="userSpaceOnUse">
					<stop  offset="0" style="stop-color:#FFFFFF"/>
					<stop  offset="1" style="stop-color:#84E3ED"/>
				</radialGradient>
				<path class="st59" d="M489.8,22.4c3.7-2.4,8-2.4,12.8,0c-2.6-4.9-2.6-9.1,0-12.8c-4.4,3.2-8.7,3.2-12.8,0
					C492.2,14.2,492.2,18.5,489.8,22.4z"/>
			</g>
		</g>
	</g>
	<g transform="matrix( 1, 0, 0, 1, -5.65,-112.2) ">
		<g>
			<g>
				
					<radialGradient id="SVGID_57_" cx="169.7677" cy="431.3882" r="3.9375" gradientTransform="matrix(1 0 0 -1 80.6051 780.9122)" gradientUnits="userSpaceOnUse">
					<stop  offset="0" style="stop-color:#FFFFFF"/>
					<stop  offset="1" style="stop-color:#1C96E0"/>
				</radialGradient>
				<path class="st60" d="M249.3,350.7c0.3,0.3,0.6,0.4,1,0.4c0.4,0,0.7-0.1,0.9-0.4c0.3-0.3,0.4-0.6,0.4-0.9c0-0.4-0.1-0.7-0.4-1
					c-0.3-0.3-0.6-0.4-0.9-0.4s-0.7,0.1-1,0.4c-0.3,0.3-0.4,0.6-0.4,1C248.9,350.1,249.1,350.5,249.3,350.7z"/>
			</g>
		</g>
	</g>
	<g transform="matrix( 1, 0, 0, 1, -32.75,-195.2) ">
		<g>
			<g>
				
					<radialGradient id="SVGID_58_" cx="196.8677" cy="514.3882" r="3.9375" gradientTransform="matrix(1 0 0 -1 53.5051 863.9122)" gradientUnits="userSpaceOnUse">
					<stop  offset="0" style="stop-color:#FFFFFF"/>
					<stop  offset="1" style="stop-color:#1C96E0"/>
				</radialGradient>
				<path class="st61" d="M249.3,350.7c0.3,0.3,0.6,0.4,1,0.4c0.4,0,0.7-0.1,0.9-0.4c0.3-0.3,0.4-0.6,0.4-0.9c0-0.4-0.1-0.7-0.4-1
					c-0.3-0.3-0.6-0.4-0.9-0.4s-0.7,0.1-1,0.4c-0.3,0.3-0.4,0.6-0.4,1C248.9,350.1,249.1,350.5,249.3,350.7z"/>
			</g>
		</g>
	</g>
	<g transform="matrix( -0.2572784423828125, -0.2572784423828125, -0.2572784423828125, 0.2572784423828125, 338.6,286.1) ">
		<g>
			<g>
				
					<radialGradient id="SVGID_59_" cx="1047.1208" cy="2119.1069" r="10.0125" gradientTransform="matrix(-0.2573 0.2573 -0.2573 -0.2573 1311.0857 292.0815)" gradientUnits="userSpaceOnUse">
					<stop  offset="0" style="stop-color:#FFFFFF"/>
					<stop  offset="1" style="stop-color:#84E3ED"/>
				</radialGradient>
				<path class="st62" d="M489.8,9.6c2.4,4.6,2.4,8.9,0,12.8c3.7-2.4,8-2.4,12.8,0c-2.6-4.9-2.6-9.1,0-12.8
					C498.1,12.7,493.9,12.7,489.8,9.6z"/>
			</g>
		</g>
	</g>
	<g id="___1_112_" transform="matrix( 1, 0, 0, 1, 281.05,253.05) ">
		<g transform="matrix( 0.0966949462890625, 0.0966949462890625, -0.0966949462890625, 0.0966949462890625, -38.85,-55.1) ">
			<g>
				<g>
					
						<radialGradient id="SVGID_60_" cx="8568.8145" cy="-2024.351" r="10.0125" gradientTransform="matrix(9.669495e-02 -9.669495e-02 -9.669495e-02 -9.669495e-02 -518.2416 536.1409)" gradientUnits="userSpaceOnUse">
						<stop  offset="0" style="stop-color:#FFFFFF"/>
						<stop  offset="1" style="stop-color:#84E3ED"/>
					</radialGradient>
					<path class="st63" d="M499.4-90.6c3.7-2.4,8-2.4,12.8,0c-2.6-4.9-2.6-9.1,0-12.8c-4.4,3.2-8.7,3.2-12.8,0
						C501.8-98.7,501.8-94.5,499.4-90.6z"/>
				</g>
			</g>
		</g>
	</g>
	<g id="___1_111_" transform="matrix( 1, 0, 0, 1, 248.75,207.2) ">
		<g transform="matrix( 0.0966949462890625, 0.0966949462890625, -0.0966949462890625, 0.0966949462890625, -38.85,-55.1) ">
			<g>
				<g>
					
						<radialGradient id="SVGID_61_" cx="8972.9199" cy="-1954.2853" r="10.0125" gradientTransform="matrix(9.669495e-02 -9.669495e-02 -9.669495e-02 -9.669495e-02 -550.5416 581.9909)" gradientUnits="userSpaceOnUse">
						<stop  offset="0" style="stop-color:#FFFFFF"/>
						<stop  offset="1" style="stop-color:#84E3ED"/>
					</radialGradient>
					<path class="st64" d="M499.4-90.6c3.7-2.4,8-2.4,12.8,0c-2.6-4.9-2.6-9.1,0-12.8c-4.4,3.2-8.7,3.2-12.8,0
						C501.8-98.7,501.8-94.5,499.4-90.6z"/>
				</g>
			</g>
		</g>
	</g>
	<g id="___1_110_" transform="matrix( 1, 0, 0, 1, 264.45,238.35) ">
		<g transform="matrix( 0.0966949462890625, 0.0966949462890625, -0.0966949462890625, 0.0966949462890625, -38.85,-55.1) ">
			<g>
				<g>
					
						<radialGradient id="SVGID_62_" cx="8730.6631" cy="-2034.1755" r="10.0125" gradientTransform="matrix(9.669495e-02 -9.669495e-02 -9.669495e-02 -9.669495e-02 -534.8416 550.8409)" gradientUnits="userSpaceOnUse">
						<stop  offset="0" style="stop-color:#FFFFFF"/>
						<stop  offset="1" style="stop-color:#84E3ED"/>
					</radialGradient>
					<path class="st65" d="M499.4-90.6c3.7-2.4,8-2.4,12.8,0c-2.6-4.9-2.6-9.1,0-12.8c-4.4,3.2-8.7,3.2-12.8,0
						C501.8-98.7,501.8-94.5,499.4-90.6z"/>
				</g>
			</g>
		</g>
	</g>
	<g transform="matrix( 1, 0, 0, 1, 115.15,-120.95) ">
		<g>
			<g>
				
					<radialGradient id="SVGID_63_" cx="48.9677" cy="440.1382" r="2.475" gradientTransform="matrix(1 0 0 -1 114.9551 796.3122)" gradientUnits="userSpaceOnUse">
					<stop  offset="0" style="stop-color:#FFFFFF"/>
					<stop  offset="1" style="stop-color:#1C96E0"/>
				</radialGradient>
				<path class="st66" d="M163.8,355.5c-0.2,0-0.4,0.1-0.6,0.3c-0.2,0.2-0.3,0.4-0.3,0.6c0,0.2,0.1,0.4,0.3,0.6
					c0.2,0.2,0.4,0.3,0.6,0.3c0.2,0,0.4-0.1,0.6-0.3s0.3-0.4,0.3-0.6c0-0.2-0.1-0.4-0.3-0.6C164.3,355.6,164.1,355.5,163.8,355.5z"
					/>
			</g>
		</g>
	</g>
	<g id="___1_109_" transform="matrix( 1, 0, 0, 1, 263.3,129) ">
		<g transform="matrix( 0.0966949462890625, 0.0966949462890625, -0.0966949462890625, 0.0966949462890625, -38.85,-55.1) ">
			<g>
				<g>
					
						<radialGradient id="SVGID_64_" cx="9302.0479" cy="-1474.6844" r="10.0125" gradientTransform="matrix(9.669495e-02 -9.669495e-02 -9.669495e-02 -9.669495e-02 -535.9916 660.1909)" gradientUnits="userSpaceOnUse">
						<stop  offset="0" style="stop-color:#FFFFFF"/>
						<stop  offset="1" style="stop-color:#84E3ED"/>
					</radialGradient>
					<path class="st67" d="M499.4-90.6c3.7-2.4,8-2.4,12.8,0c-2.6-4.9-2.6-9.1,0-12.8c-4.4,3.2-8.7,3.2-12.8,0
						C501.8-98.7,501.8-94.5,499.4-90.6z"/>
				</g>
			</g>
		</g>
	</g>
	<g id="___1_108_" transform="matrix( 1, 0, 0, 1, 268.5,229.3) ">
		<g transform="matrix( 0.0966949462890625, 0.0966949462890625, -0.0966949462890625, 0.0966949462890625, -38.85,-55.1) ">
			<g>
				<g>
					
						<radialGradient id="SVGID_65_" cx="8756.5176" cy="-1966.4369" r="10.0125" gradientTransform="matrix(9.669495e-02 -9.669495e-02 -9.669495e-02 -9.669495e-02 -530.7916 559.8909)" gradientUnits="userSpaceOnUse">
						<stop  offset="0" style="stop-color:#FFFFFF"/>
						<stop  offset="1" style="stop-color:#84E3ED"/>
					</radialGradient>
					<path class="st68" d="M499.4-90.6c3.7-2.4,8-2.4,12.8,0c-2.6-4.9-2.6-9.1,0-12.8c-4.4,3.2-8.7,3.2-12.8,0
						C501.8-98.7,501.8-94.5,499.4-90.6z"/>
				</g>
			</g>
		</g>
	</g>
	<g id="___1_107_" transform="matrix( 1, 0, 0, 1, 210.75,226) ">
		<g transform="matrix( 0.0966949462890625, 0.0966949462890625, -0.0966949462890625, 0.0966949462890625, -38.85,-55.1) ">
			<g>
				<g>
					
						<radialGradient id="SVGID_66_" cx="9072.2012" cy="-2247.9922" r="10.0125" gradientTransform="matrix(9.669495e-02 -9.669495e-02 -9.669495e-02 -9.669495e-02 -588.5416 563.1909)" gradientUnits="userSpaceOnUse">
						<stop  offset="0" style="stop-color:#FFFFFF"/>
						<stop  offset="1" style="stop-color:#84E3ED"/>
					</radialGradient>
					<path class="st69" d="M499.4-90.6c3.7-2.4,8-2.4,12.8,0c-2.6-4.9-2.6-9.1,0-12.8c-4.4,3.2-8.7,3.2-12.8,0
						C501.8-98.7,501.8-94.5,499.4-90.6z"/>
				</g>
			</g>
		</g>
	</g>
	<g transform="matrix( 1, 0, 0, 1, 78.6,-140) ">
		<g>
			<g>
				
					<radialGradient id="SVGID_67_" cx="85.5177" cy="459.1882" r="2.475" gradientTransform="matrix(1 0 0 -1 78.4051 815.3622)" gradientUnits="userSpaceOnUse">
					<stop  offset="0" style="stop-color:#FFFFFF"/>
					<stop  offset="1" style="stop-color:#1C96E0"/>
				</radialGradient>
				<path class="st70" d="M163.8,355.5c-0.2,0-0.4,0.1-0.6,0.3c-0.2,0.2-0.3,0.4-0.3,0.6c0,0.2,0.1,0.4,0.3,0.6
					c0.2,0.2,0.4,0.3,0.6,0.3c0.2,0,0.4-0.1,0.6-0.3s0.3-0.4,0.3-0.6c0-0.2-0.1-0.4-0.3-0.6C164.3,355.6,164.1,355.5,163.8,355.5z"
					/>
			</g>
		</g>
	</g>
	<g transform="matrix( 1, 0, 0, 1, -71.75,-135.75) ">
		<g>
			<g>
				
					<radialGradient id="SVGID_68_" cx="235.8677" cy="454.9382" r="3.9375" gradientTransform="matrix(1 0 0 -1 14.5051 804.4622)" gradientUnits="userSpaceOnUse">
					<stop  offset="0" style="stop-color:#FFFFFF"/>
					<stop  offset="1" style="stop-color:#1C96E0"/>
				</radialGradient>
				<path class="st71" d="M249.3,350.7c0.3,0.3,0.6,0.4,1,0.4c0.4,0,0.7-0.1,0.9-0.4c0.3-0.3,0.4-0.6,0.4-0.9c0-0.4-0.1-0.7-0.4-1
					c-0.3-0.3-0.6-0.4-0.9-0.4s-0.7,0.1-1,0.4c-0.3,0.3-0.4,0.6-0.4,1C248.9,350.1,249.1,350.5,249.3,350.7z"/>
			</g>
		</g>
	</g>
	<g transform="matrix( 1, 0, 0, 1, -72.2,-114.2) ">
		<g>
			<g>
				
					<radialGradient id="SVGID_69_" cx="236.3177" cy="433.3882" r="1.75" gradientTransform="matrix(1 0 0 -1 21.6551 771.7122)" gradientUnits="userSpaceOnUse">
					<stop  offset="0" style="stop-color:#FFFFFF"/>
					<stop  offset="1" style="stop-color:#1C96E0"/>
				</radialGradient>
				<path class="st72" d="M258.3,338c-0.1-0.1-0.3-0.1-0.4-0.1c-0.2,0-0.3,0-0.4,0.1c-0.1,0.1-0.2,0.3-0.2,0.5
					c0,0.2,0.1,0.3,0.2,0.4c0.1,0.1,0.2,0.2,0.4,0.2c0.2,0,0.3-0.1,0.4-0.2c0.1-0.1,0.2-0.2,0.2-0.4S258.4,338.1,258.3,338z"/>
			</g>
		</g>
	</g>
	<g transform="matrix( 1, 0, 0, 1, -30.7,-174.05) ">
		<g>
			<g>
				
					<radialGradient id="SVGID_70_" cx="194.8177" cy="493.2383" r="3.9375" gradientTransform="matrix(1 0 0 -1 55.5551 842.7622)" gradientUnits="userSpaceOnUse">
					<stop  offset="0" style="stop-color:#FFFFFF"/>
					<stop  offset="1" style="stop-color:#1C96E0"/>
				</radialGradient>
				<path class="st73" d="M249.3,350.7c0.3,0.3,0.6,0.4,1,0.4c0.4,0,0.7-0.1,0.9-0.4c0.3-0.3,0.4-0.6,0.4-0.9c0-0.4-0.1-0.7-0.4-1
					c-0.3-0.3-0.6-0.4-0.9-0.4s-0.7,0.1-1,0.4c-0.3,0.3-0.4,0.6-0.4,1C248.9,350.1,249.1,350.5,249.3,350.7z"/>
			</g>
		</g>
	</g>
	<g id="___1_105_" transform="matrix( 1, 0, 0, 1, 145.15,168.95) ">
		<g id="___1_106_">
			<g transform="matrix( 0.1918487548828125, 0.1918487548828125, -0.1918487548828125, 0.1918487548828125, -77.1,-109.35) ">
				<g>
					<g>
						
							<radialGradient id="SVGID_71_" cx="2939.3003" cy="-33.2981" r="10.0125" gradientTransform="matrix(0.1918 -0.1918 -0.1918 -0.1918 -67.6799 550.5982)" gradientUnits="userSpaceOnUse">
							<stop  offset="0" style="stop-color:#FFFFFF"/>
							<stop  offset="1" style="stop-color:#84E3ED"/>
						</radialGradient>
						<path class="st74" d="M495.9-0.8c3.7-2.4,8-2.4,12.8,0c-2.6-4.9-2.6-9.1,0-12.8c-4.4,3.2-8.7,3.2-12.8,0
							C498.4-9,498.4-4.7,495.9-0.8z"/>
					</g>
				</g>
			</g>
		</g>
	</g>
	<g id="___1_104_" transform="matrix( 1, 0, 0, 1, 156.05,174.05) ">
		<g transform="matrix( 0.0966949462890625, 0.0966949462890625, -0.0966949462890625, 0.0966949462890625, -38.85,-55.1) ">
			<g>
				<g>
					
						<radialGradient id="SVGID_72_" cx="9623.6777" cy="-2262.2122" r="10.0125" gradientTransform="matrix(9.669495e-02 -9.669495e-02 -9.669495e-02 -9.669495e-02 -643.2415 615.1409)" gradientUnits="userSpaceOnUse">
						<stop  offset="0" style="stop-color:#FFFFFF"/>
						<stop  offset="1" style="stop-color:#84E3ED"/>
					</radialGradient>
					<path class="st75" d="M499.4-90.6c3.7-2.4,8-2.4,12.8,0c-2.6-4.9-2.6-9.1,0-12.8c-4.4,3.2-8.7,3.2-12.8,0
						C501.8-98.7,501.8-94.5,499.4-90.6z"/>
				</g>
			</g>
		</g>
	</g>
	<g id="___1_103_" transform="matrix( 1, 0, 0, 1, 157.95,164.95) ">
		<g transform="matrix( 0.0966949462890625, 0.0966949462890625, -0.0966949462890625, 0.0966949462890625, -38.85,-55.1) ">
			<g>
				<g>
					
						<radialGradient id="SVGID_73_" cx="9660.9082" cy="-2205.3323" r="10.0125" gradientTransform="matrix(9.669495e-02 -9.669495e-02 -9.669495e-02 -9.669495e-02 -641.3416 624.2409)" gradientUnits="userSpaceOnUse">
						<stop  offset="0" style="stop-color:#FFFFFF"/>
						<stop  offset="1" style="stop-color:#84E3ED"/>
					</radialGradient>
					<path class="st76" d="M499.4-90.6c3.7-2.4,8-2.4,12.8,0c-2.6-4.9-2.6-9.1,0-12.8c-4.4,3.2-8.7,3.2-12.8,0
						C501.8-98.7,501.8-94.5,499.4-90.6z"/>
				</g>
			</g>
		</g>
	</g>
	<g transform="matrix( 0.703704833984375, 0, 0, 0.703704833984375, 8.55,-104.45) ">
		<g>
			<g>
				
					<radialGradient id="SVGID_74_" cx="319.2667" cy="553.6588" r="3.9375" gradientTransform="matrix(0.7037 0 0 -0.7037 33.355 732.0516)" gradientUnits="userSpaceOnUse">
					<stop  offset="0" style="stop-color:#FFFFFF"/>
					<stop  offset="1" style="stop-color:#1C96E0"/>
				</radialGradient>
				<path class="st77" d="M257,343.6c0.3,0.3,0.6,0.4,1,0.4c0.4,0,0.7-0.1,0.9-0.4s0.4-0.6,0.4-0.9c0-0.4-0.1-0.7-0.4-1
					s-0.6-0.4-0.9-0.4s-0.7,0.1-1,0.4s-0.4,0.6-0.4,1C256.6,343.1,256.7,343.4,257,343.6z"/>
			</g>
		</g>
	</g>
	<g id="___1_102_" transform="matrix( 1, 0, 0, 1, 167.85,156.5) ">
		<g transform="matrix( 0.0966949462890625, 0.0966949462890625, -0.0966949462890625, 0.0966949462890625, -38.85,-55.1) ">
			<g>
				<g>
					
						<radialGradient id="SVGID_75_" cx="9653.4102" cy="-2110.4463" r="10.0125" gradientTransform="matrix(9.669495e-02 -9.669495e-02 -9.669495e-02 -9.669495e-02 -631.4415 632.6909)" gradientUnits="userSpaceOnUse">
						<stop  offset="0" style="stop-color:#FFFFFF"/>
						<stop  offset="1" style="stop-color:#84E3ED"/>
					</radialGradient>
					<path class="st78" d="M499.4-90.6c3.7-2.4,8-2.4,12.8,0c-2.6-4.9-2.6-9.1,0-12.8c-4.4,3.2-8.7,3.2-12.8,0
						C501.8-98.7,501.8-94.5,499.4-90.6z"/>
				</g>
			</g>
		</g>
	</g>
	<g transform="matrix( -0.1246185302734375, -0.1246185302734375, -0.1246185302734375, 0.1246185302734375, 258.2,197.7) ">
		<g>
			<g>
				
					<radialGradient id="SVGID_76_" cx="2826.1062" cy="7131.5801" r="10.0125" gradientTransform="matrix(-0.1246 0.1246 -0.1246 -0.1246 1734.6067 480.4181)" gradientUnits="userSpaceOnUse">
					<stop  offset="0" style="stop-color:#FFFFFF"/>
					<stop  offset="1" style="stop-color:#84E3ED"/>
				</radialGradient>
				<path class="st79" d="M487-62.8c2.4,4.6,2.4,8.9,0,12.8c3.7-2.4,8-2.4,12.8,0c-2.6-4.9-2.6-9.1,0-12.8
					C495.3-59.7,491.1-59.7,487-62.8z"/>
			</g>
		</g>
	</g>
	<g id="___1_101_" transform="matrix( 1, 0, 0, 1, 151.9,168.35) ">
		<g transform="matrix( 0.0966949462890625, 0.0966949462890625, -0.0966949462890625, 0.0966949462890625, -38.85,-55.1) ">
			<g>
				<g>
					
						<radialGradient id="SVGID_77_" cx="9674.6104" cy="-2254.1975" r="10.0125" gradientTransform="matrix(9.669495e-02 -9.669495e-02 -9.669495e-02 -9.669495e-02 -647.3915 620.8409)" gradientUnits="userSpaceOnUse">
						<stop  offset="0" style="stop-color:#FFFFFF"/>
						<stop  offset="1" style="stop-color:#84E3ED"/>
					</radialGradient>
					<path class="st80" d="M499.4-90.6c3.7-2.4,8-2.4,12.8,0c-2.6-4.9-2.6-9.1,0-12.8c-4.4,3.2-8.7,3.2-12.8,0
						C501.8-98.7,501.8-94.5,499.4-90.6z"/>
				</g>
			</g>
		</g>
	</g>
	<g id="___1_99_" transform="matrix( 1, 0, 0, 1, 213.4,147.3) ">
		<g id="___1_100_">
			<g transform="matrix( 0.1918487548828125, 0.1918487548828125, -0.1918487548828125, 0.1918487548828125, -77.1,-109.35) ">
				<g>
					<g>
						
							<radialGradient id="SVGID_78_" cx="2817.8506" cy="201.0008" r="10.0125" gradientTransform="matrix(0.1918 -0.1918 -0.1918 -0.1918 0.57 572.2482)" gradientUnits="userSpaceOnUse">
							<stop  offset="0" style="stop-color:#FFFFFF"/>
							<stop  offset="1" style="stop-color:#84E3ED"/>
						</radialGradient>
						<path class="st81" d="M495.9-0.8c3.7-2.4,8-2.4,12.8,0c-2.6-4.9-2.6-9.1,0-12.8c-4.4,3.2-8.7,3.2-12.8,0
							C498.4-9,498.4-4.7,495.9-0.8z"/>
					</g>
				</g>
			</g>
		</g>
	</g>
	<g id="___1_98_" transform="matrix( 1, 0, 0, 1, 221.4,144.6) ">
		<g transform="matrix( 0.0966949462890625, 0.0966949462890625, -0.0966949462890625, 0.0966949462890625, -38.85,-55.1) ">
			<g>
				<g>
					
						<radialGradient id="SVGID_79_" cx="9438.042" cy="-1772.0111" r="10.0125" gradientTransform="matrix(9.669495e-02 -9.669495e-02 -9.669495e-02 -9.669495e-02 -577.8916 644.5909)" gradientUnits="userSpaceOnUse">
						<stop  offset="0" style="stop-color:#FFFFFF"/>
						<stop  offset="1" style="stop-color:#84E3ED"/>
					</radialGradient>
					<path class="st82" d="M499.4-90.6c3.7-2.4,8-2.4,12.8,0c-2.6-4.9-2.6-9.1,0-12.8c-4.4,3.2-8.7,3.2-12.8,0
						C501.8-98.7,501.8-94.5,499.4-90.6z"/>
				</g>
			</g>
		</g>
	</g>
	<g id="___1_97_" transform="matrix( 1, 0, 0, 1, 222.6,140.6) ">
		<g transform="matrix( 0.0966949462890625, 0.0966949462890625, -0.0966949462890625, 0.0966949462890625, -38.85,-55.1) ">
			<g>
				<g>
					
						<radialGradient id="SVGID_80_" cx="9452.5205" cy="-1745.1224" r="10.0125" gradientTransform="matrix(9.669495e-02 -9.669495e-02 -9.669495e-02 -9.669495e-02 -576.6916 648.5909)" gradientUnits="userSpaceOnUse">
						<stop  offset="0" style="stop-color:#FFFFFF"/>
						<stop  offset="1" style="stop-color:#84E3ED"/>
					</radialGradient>
					<path class="st83" d="M499.4-90.6c3.7-2.4,8-2.4,12.8,0c-2.6-4.9-2.6-9.1,0-12.8c-4.4,3.2-8.7,3.2-12.8,0
						C501.8-98.7,501.8-94.5,499.4-90.6z"/>
				</g>
			</g>
		</g>
	</g>
	<g transform="matrix( 0.703704833984375, 0, 0, 0.703704833984375, 176.1,-81.4) ">
		<g>
			<g>
				
					<radialGradient id="SVGID_81_" cx="81.1697" cy="520.9036" r="3.9375" gradientTransform="matrix(0.7037 0 0 -0.7037 107.1049 709.6016)" gradientUnits="userSpaceOnUse">
					<stop  offset="0" style="stop-color:#FFFFFF"/>
					<stop  offset="1" style="stop-color:#1C96E0"/>
				</radialGradient>
				<path class="st84" d="M165.1,342.3c-0.3-0.3-0.6-0.4-0.9-0.4s-0.7,0.1-0.9,0.4c-0.3,0.3-0.4,0.6-0.4,1c0,0.4,0.1,0.7,0.4,0.9
					c0.3,0.3,0.6,0.4,0.9,0.4c0.4,0,0.7-0.1,0.9-0.4s0.4-0.6,0.4-0.9C165.5,342.9,165.3,342.6,165.1,342.3z"/>
			</g>
		</g>
	</g>
	<g transform="matrix( 0.647064208984375, 0, 0, 0.647064208984375, 116.7,-104.5) ">
		<g>
			<g>
				
					<radialGradient id="SVGID_82_" cx="211.6241" cy="586.6655" r="2.475" gradientTransform="matrix(0.6471 0 0 -0.6471 36.9007 726.6068)" gradientUnits="userSpaceOnUse">
					<stop  offset="0" style="stop-color:#FFFFFF"/>
					<stop  offset="1" style="stop-color:#1C96E0"/>
				</radialGradient>
				<path class="st85" d="M173.7,346.3c-0.2,0-0.4,0.1-0.6,0.3c-0.2,0.2-0.3,0.4-0.3,0.6c0,0.2,0.1,0.4,0.3,0.6
					c0.2,0.2,0.4,0.3,0.6,0.3c0.2,0,0.4-0.1,0.6-0.3s0.3-0.4,0.3-0.6c0-0.2-0.1-0.4-0.3-0.6C174.2,346.4,174,346.3,173.7,346.3z"/>
			</g>
		</g>
	</g>
	<g id="___1_96_" transform="matrix( 1, 0, 0, 1, 276.35,169.8) ">
		<g transform="matrix( 0.0966949462890625, 0.0966949462890625, -0.0966949462890625, 0.0966949462890625, -38.85,-55.1) ">
			<g>
				<g>
					
						<radialGradient id="SVGID_83_" cx="9023.5947" cy="-1618.1769" r="10.0125" gradientTransform="matrix(9.669495e-02 -9.669495e-02 -9.669495e-02 -9.669495e-02 -522.9416 619.3909)" gradientUnits="userSpaceOnUse">
						<stop  offset="0" style="stop-color:#FFFFFF"/>
						<stop  offset="1" style="stop-color:#84E3ED"/>
					</radialGradient>
					<path class="st86" d="M499.4-90.6c3.7-2.4,8-2.4,12.8,0c-2.6-4.9-2.6-9.1,0-12.8c-4.4,3.2-8.7,3.2-12.8,0
						C501.8-98.7,501.8-94.5,499.4-90.6z"/>
				</g>
			</g>
		</g>
	</g>
	<g transform="matrix( 0.703704833984375, 0, 0, 0.703704833984375, 111.1,-100.35) ">
		<g>
			<g>
				
					<radialGradient id="SVGID_84_" cx="173.538" cy="547.8325" r="3.9375" gradientTransform="matrix(0.7037 0 0 -0.7037 42.105 728.5516)" gradientUnits="userSpaceOnUse">
					<stop  offset="0" style="stop-color:#FFFFFF"/>
					<stop  offset="1" style="stop-color:#1C96E0"/>
				</radialGradient>
				<path class="st87" d="M165.1,342.3c-0.3-0.3-0.6-0.4-0.9-0.4s-0.7,0.1-0.9,0.4c-0.3,0.3-0.4,0.6-0.4,1c0,0.4,0.1,0.7,0.4,0.9
					c0.3,0.3,0.6,0.4,0.9,0.4c0.4,0,0.7-0.1,0.9-0.4s0.4-0.6,0.4-0.9C165.5,342.9,165.3,342.6,165.1,342.3z"/>
			</g>
		</g>
	</g>
	<g transform="matrix( 0.703704833984375, 0, 0, 0.703704833984375, 107.95,-107.85) ">
		<g>
			<g>
				
					<radialGradient id="SVGID_85_" cx="178.0143" cy="558.4903" r="3.9375" gradientTransform="matrix(0.7037 0 0 -0.7037 38.955 736.0516)" gradientUnits="userSpaceOnUse">
					<stop  offset="0" style="stop-color:#FFFFFF"/>
					<stop  offset="1" style="stop-color:#1C96E0"/>
				</radialGradient>
				<path class="st88" d="M165.1,342.3c-0.3-0.3-0.6-0.4-0.9-0.4s-0.7,0.1-0.9,0.4c-0.3,0.3-0.4,0.6-0.4,1c0,0.4,0.1,0.7,0.4,0.9
					c0.3,0.3,0.6,0.4,0.9,0.4c0.4,0,0.7-0.1,0.9-0.4s0.4-0.6,0.4-0.9C165.5,342.9,165.3,342.6,165.1,342.3z"/>
			</g>
		</g>
	</g>
	<g transform="matrix( 0.647064208984375, 0, 0, 0.647064208984375, 109.5,-100.55) ">
		<g>
			<g>
				
					<radialGradient id="SVGID_86_" cx="222.7513" cy="580.561" r="2.475" gradientTransform="matrix(0.6471 0 0 -0.6471 29.7007 722.6567)" gradientUnits="userSpaceOnUse">
					<stop  offset="0" style="stop-color:#FFFFFF"/>
					<stop  offset="1" style="stop-color:#1C96E0"/>
				</radialGradient>
				<path class="st89" d="M173.7,346.3c-0.2,0-0.4,0.1-0.6,0.3c-0.2,0.2-0.3,0.4-0.3,0.6c0,0.2,0.1,0.4,0.3,0.6
					c0.2,0.2,0.4,0.3,0.6,0.3c0.2,0,0.4-0.1,0.6-0.3s0.3-0.4,0.3-0.6c0-0.2-0.1-0.4-0.3-0.6C174.2,346.4,174,346.3,173.7,346.3z"/>
			</g>
		</g>
	</g>
	<g transform="matrix( 0.647064208984375, 0, 0, 0.647064208984375, 111.4,-103.4) ">
		<g>
			<g>
				
					<radialGradient id="SVGID_87_" cx="219.815" cy="584.9655" r="2.475" gradientTransform="matrix(0.6471 0 0 -0.6471 31.6007 725.5067)" gradientUnits="userSpaceOnUse">
					<stop  offset="0" style="stop-color:#FFFFFF"/>
					<stop  offset="1" style="stop-color:#1C96E0"/>
				</radialGradient>
				<path class="st90" d="M173.7,346.3c-0.2,0-0.4,0.1-0.6,0.3c-0.2,0.2-0.3,0.4-0.3,0.6c0,0.2,0.1,0.4,0.3,0.6
					c0.2,0.2,0.4,0.3,0.6,0.3c0.2,0,0.4-0.1,0.6-0.3s0.3-0.4,0.3-0.6c0-0.2-0.1-0.4-0.3-0.6C174.2,346.4,174,346.3,173.7,346.3z"/>
			</g>
		</g>
	</g>
	<g id="___1_95_" transform="matrix( 1, 0, 0, 1, 244.5,289.8) ">
		<g transform="matrix( 0.1918487548828125, 0.1918487548828125, -0.1918487548828125, 0.1918487548828125, -77.1,-109.35) ">
			<g>
				<g>
					
						<radialGradient id="SVGID_88_" cx="2365.4114" cy="-89.3317" r="10.0125" gradientTransform="matrix(0.1918 -0.1918 -0.1918 -0.1918 31.67 429.7484)" gradientUnits="userSpaceOnUse">
						<stop  offset="0" style="stop-color:#FFFFFF"/>
						<stop  offset="1" style="stop-color:#84E3ED"/>
					</radialGradient>
					<path class="st91" d="M495.9-0.8c3.7-2.4,8-2.4,12.8,0c-2.6-4.9-2.6-9.1,0-12.8c-4.4,3.2-8.7,3.2-12.8,0
						C498.4-9,498.4-4.7,495.9-0.8z"/>
				</g>
			</g>
		</g>
	</g>
	<g id="___1_94_" transform="matrix( 1, 0, 0, 1, 300.35,288.8) ">
		<g transform="matrix( 0.0966949462890625, 0.0966949462890625, -0.0966949462890625, 0.0966949462890625, -38.85,-55.1) ">
			<g>
				<g>
					
						<radialGradient id="SVGID_89_" cx="8284.1563" cy="-2109.4121" r="10.0125" gradientTransform="matrix(9.669495e-02 -9.669495e-02 -9.669495e-02 -9.669495e-02 -498.9416 500.391)" gradientUnits="userSpaceOnUse">
						<stop  offset="0" style="stop-color:#FFFFFF"/>
						<stop  offset="1" style="stop-color:#84E3ED"/>
					</radialGradient>
					<path class="st92" d="M499.4-90.6c3.7-2.4,8-2.4,12.8,0c-2.6-4.9-2.6-9.1,0-12.8c-4.4,3.2-8.7,3.2-12.8,0
						C501.8-98.7,501.8-94.5,499.4-90.6z"/>
				</g>
			</g>
		</g>
	</g>
	<g transform="matrix( 1, 0, 0, 1, 55.05,-67.05) ">
		<g>
			<g>
				
					<radialGradient id="SVGID_90_" cx="109.0677" cy="386.2383" r="1.75" gradientTransform="matrix(1 0 0 -1 148.9051 724.5622)" gradientUnits="userSpaceOnUse">
					<stop  offset="0" style="stop-color:#FFFFFF"/>
					<stop  offset="1" style="stop-color:#1C96E0"/>
				</radialGradient>
				<path class="st93" d="M258.3,338c-0.1-0.1-0.3-0.1-0.4-0.1c-0.2,0-0.3,0-0.4,0.1c-0.1,0.1-0.2,0.3-0.2,0.5
					c0,0.2,0.1,0.3,0.2,0.4c0.1,0.1,0.2,0.2,0.4,0.2c0.2,0,0.3-0.1,0.4-0.2c0.1-0.1,0.2-0.2,0.2-0.4S258.4,338.1,258.3,338z"/>
			</g>
		</g>
	</g>
</g>
</svg>
