<?xml version="1.0" encoding="UTF-8" standalone="no"?>
<!-- Generator: Adobe Illustrator 24.2.1, SVG Export Plug-In . SVG Version: 6.00 Build 0)  -->

<svg
   version="1.1"
   id="处女座"
   x="0px"
   y="0px"
   viewBox="0 0 512 512"
   xml:space="preserve"
   sodipodi:docname="处女座.svg"
   width="512"
   height="512"
   inkscape:version="1.3 (0e150ed6c4, 2023-07-21)"
   inkscape:export-filename="..\output\处女座\处女座 线条.png"
   inkscape:export-xdpi="96"
   inkscape:export-ydpi="96"
   xmlns:inkscape="http://www.inkscape.org/namespaces/inkscape"
   xmlns:sodipodi="http://sodipodi.sourceforge.net/DTD/sodipodi-0.dtd"
   xmlns:xlink="http://www.w3.org/1999/xlink"
   xmlns="http://www.w3.org/2000/svg"
   xmlns:svg="http://www.w3.org/2000/svg"><defs
   id="defs495"><linearGradient
     inkscape:collect="always"
     xlink:href="#SVGID_3_"
     id="linearGradient496"
     x1="152.41815"
     y1="312.62805"
     x2="151.89458"
     y2="267.24948"
     gradientUnits="userSpaceOnUse" /></defs><sodipodi:namedview
   id="namedview495"
   pagecolor="#ffffff"
   bordercolor="#666666"
   borderopacity="1.0"
   inkscape:showpageshadow="2"
   inkscape:pageopacity="0.0"
   inkscape:pagecheckerboard="0"
   inkscape:deskcolor="#d1d1d1"
   inkscape:zoom="1.0671593"
   inkscape:cx="174.2945"
   inkscape:cy="236.60947"
   inkscape:window-width="1920"
   inkscape:window-height="1017"
   inkscape:window-x="1912"
   inkscape:window-y="-8"
   inkscape:window-maximized="1"
   inkscape:current-layer="处女座" />&#10;<style
   type="text/css"
   id="style1">&#10;	.st0{fill:url(#SVGID_1_);}&#10;	.st1{fill:url(#SVGID_2_);}&#10;	.st2{fill:url(#SVGID_3_);}&#10;	.st3{fill:url(#SVGID_4_);}&#10;	.st4{fill:url(#SVGID_5_);}&#10;	.st5{fill:url(#SVGID_6_);}&#10;	.st6{fill:#4BE7F2;}&#10;	.st7{fill:url(#SVGID_7_);}&#10;	.st8{fill:url(#SVGID_8_);}&#10;	.st9{fill:url(#SVGID_9_);}&#10;	.st10{fill:url(#SVGID_10_);}&#10;	.st11{fill:url(#SVGID_11_);}&#10;	.st12{fill:url(#SVGID_12_);}&#10;	.st13{fill:url(#SVGID_13_);}&#10;	.st14{fill:url(#SVGID_14_);}&#10;	.st15{fill:url(#SVGID_15_);}&#10;	.st16{fill:url(#SVGID_16_);}&#10;	.st17{fill:url(#SVGID_17_);}&#10;	.st18{fill:url(#SVGID_18_);}&#10;	.st19{fill:none;stroke:url(#SVGID_19_);stroke-linecap:round;stroke-linejoin:round;}&#10;	.st20{fill:none;stroke:url(#SVGID_20_);stroke-linecap:round;stroke-linejoin:round;}&#10;	.st21{fill:none;stroke:url(#SVGID_21_);stroke-linecap:round;stroke-linejoin:round;}&#10;	.st22{fill:none;stroke:url(#SVGID_22_);stroke-linecap:round;stroke-linejoin:round;}&#10;	.st23{fill:none;stroke:url(#SVGID_23_);stroke-linecap:round;stroke-linejoin:round;}&#10;	.st24{fill:none;stroke:url(#SVGID_24_);stroke-linecap:round;stroke-linejoin:round;}&#10;	.st25{fill:none;stroke:url(#SVGID_25_);stroke-linecap:round;stroke-linejoin:round;}&#10;	.st26{fill:none;stroke:url(#SVGID_26_);stroke-linecap:round;stroke-linejoin:round;}&#10;	.st27{fill:none;stroke:url(#SVGID_27_);stroke-linecap:round;stroke-linejoin:round;}&#10;	.st28{fill:none;stroke:url(#SVGID_28_);stroke-linecap:round;stroke-linejoin:round;}&#10;	.st29{fill:none;stroke:url(#SVGID_29_);stroke-linecap:round;stroke-linejoin:round;}&#10;	.st30{fill:none;stroke:#FFFFFF;stroke-linecap:round;stroke-linejoin:round;}&#10;	.st31{fill:none;stroke:url(#SVGID_30_);stroke-linecap:round;stroke-linejoin:round;}&#10;	.st32{fill:none;stroke:url(#SVGID_31_);stroke-linecap:round;stroke-linejoin:round;}&#10;	.st33{fill:none;stroke:url(#SVGID_32_);stroke-linecap:round;stroke-linejoin:round;}&#10;	.st34{fill:none;stroke:url(#SVGID_33_);stroke-linecap:round;stroke-linejoin:round;}&#10;	.st35{fill:none;stroke:url(#SVGID_34_);stroke-linecap:round;stroke-linejoin:round;}&#10;	.st36{fill:none;stroke:url(#SVGID_35_);stroke-linecap:round;stroke-linejoin:round;}&#10;	.st37{fill:none;stroke:url(#SVGID_36_);stroke-linecap:round;stroke-linejoin:round;}&#10;	.st38{fill:none;stroke:url(#SVGID_37_);stroke-linecap:round;stroke-linejoin:round;}&#10;	.st39{fill:none;stroke:url(#SVGID_38_);stroke-linecap:round;stroke-linejoin:round;}&#10;	.st40{fill:none;stroke:url(#SVGID_39_);stroke-linecap:round;stroke-linejoin:round;}&#10;	.st41{fill:none;stroke:url(#SVGID_40_);stroke-linecap:round;stroke-linejoin:round;}&#10;	.st42{fill:none;stroke:url(#SVGID_41_);stroke-linecap:round;stroke-linejoin:round;}&#10;	.st43{fill:none;stroke:url(#SVGID_42_);stroke-linecap:round;stroke-linejoin:round;}&#10;	.st44{fill:none;stroke:url(#SVGID_43_);stroke-linecap:round;stroke-linejoin:round;}&#10;	.st45{fill:none;stroke:url(#SVGID_44_);stroke-linecap:round;stroke-linejoin:round;}&#10;	.st46{fill:none;stroke:url(#SVGID_45_);stroke-linecap:round;stroke-linejoin:round;}&#10;	.st47{fill:none;stroke:url(#SVGID_46_);stroke-linecap:round;stroke-linejoin:round;}&#10;	.st48{fill:none;stroke:url(#SVGID_47_);stroke-linecap:round;stroke-linejoin:round;}&#10;	.st49{fill:none;stroke:url(#SVGID_48_);stroke-linecap:round;stroke-linejoin:round;}&#10;	.st50{fill:none;stroke:url(#SVGID_49_);stroke-linecap:round;stroke-linejoin:round;}&#10;	.st51{fill:none;stroke:url(#SVGID_50_);stroke-linecap:round;stroke-linejoin:round;}&#10;	.st52{fill:none;stroke:url(#SVGID_51_);stroke-linecap:round;stroke-linejoin:round;}&#10;	.st53{fill:none;stroke:url(#SVGID_52_);stroke-linecap:round;stroke-linejoin:round;}&#10;	.st54{fill:url(#SVGID_53_);}&#10;	.st55{fill:url(#SVGID_54_);}&#10;	.st56{fill:url(#SVGID_55_);}&#10;	.st57{fill:url(#SVGID_56_);}&#10;	.st58{fill:url(#SVGID_57_);}&#10;	.st59{fill:url(#SVGID_58_);}&#10;	.st60{fill:url(#SVGID_59_);}&#10;	.st61{fill:url(#SVGID_60_);}&#10;	.st62{fill:url(#SVGID_61_);}&#10;	.st63{fill:url(#SVGID_62_);}&#10;	.st64{fill:url(#SVGID_63_);}&#10;	.st65{fill:none;stroke:url(#SVGID_64_);stroke-linecap:round;stroke-linejoin:round;}&#10;	.st66{fill:none;stroke:url(#SVGID_65_);stroke-linecap:round;stroke-linejoin:round;}&#10;	.st67{fill:none;stroke:url(#SVGID_66_);stroke-linecap:round;stroke-linejoin:round;}&#10;	.st68{fill:none;stroke:url(#SVGID_67_);stroke-linecap:round;stroke-linejoin:round;}&#10;	.st69{fill:url(#SVGID_68_);}&#10;	.st70{fill:url(#SVGID_69_);}&#10;	.st71{fill:url(#SVGID_70_);}&#10;	.st72{fill:url(#SVGID_71_);}&#10;	.st73{fill:url(#SVGID_72_);}&#10;	.st74{fill:url(#SVGID_73_);}&#10;	.st75{fill:url(#SVGID_74_);}&#10;	.st76{fill:url(#SVGID_75_);}&#10;	.st77{fill:url(#SVGID_76_);}&#10;	.st78{fill:url(#SVGID_77_);}&#10;	.st79{fill:url(#SVGID_78_);}&#10;	.st80{fill:url(#SVGID_79_);}&#10;	.st81{fill:url(#SVGID_80_);}&#10;	.st82{fill:url(#SVGID_81_);}&#10;	.st83{fill:url(#SVGID_82_);}&#10;	.st84{fill:url(#SVGID_83_);}&#10;	.st85{fill:url(#SVGID_84_);}&#10;	.st86{fill:url(#SVGID_85_);}&#10;	.st87{fill:url(#SVGID_86_);}&#10;	.st88{fill:none;stroke:url(#SVGID_87_);stroke-linecap:round;stroke-linejoin:round;}&#10;	.st89{fill:none;stroke:url(#SVGID_88_);stroke-linecap:round;stroke-linejoin:round;}&#10;	.st90{fill:none;stroke:url(#SVGID_89_);stroke-linecap:round;stroke-linejoin:round;}&#10;	.st91{fill:none;stroke:url(#SVGID_90_);stroke-linecap:round;stroke-linejoin:round;}&#10;	.st92{fill:none;stroke:url(#SVGID_91_);stroke-linecap:round;stroke-linejoin:round;}&#10;	.st93{fill:none;stroke:url(#SVGID_92_);stroke-linecap:round;stroke-linejoin:round;}&#10;	.st94{fill:none;stroke:url(#SVGID_93_);stroke-linecap:round;stroke-linejoin:round;}&#10;	.st95{fill:none;stroke:url(#SVGID_94_);stroke-linecap:round;stroke-linejoin:round;}&#10;	.st96{fill:none;stroke:url(#SVGID_95_);stroke-linecap:round;stroke-linejoin:round;}&#10;	.st97{fill:none;stroke:url(#SVGID_96_);stroke-linecap:round;stroke-linejoin:round;}&#10;	.st98{fill:none;stroke:url(#SVGID_97_);stroke-linecap:round;stroke-linejoin:round;}&#10;	.st99{fill:none;stroke:url(#SVGID_98_);stroke-linecap:round;stroke-linejoin:round;}&#10;	.st100{fill:none;stroke:url(#SVGID_99_);stroke-linecap:round;stroke-linejoin:round;}&#10;	.st101{fill:none;stroke:url(#SVGID_100_);stroke-linecap:round;stroke-linejoin:round;}&#10;	.st102{fill:none;stroke:url(#SVGID_101_);stroke-linecap:round;stroke-linejoin:round;}&#10;	.st103{fill:none;stroke:url(#SVGID_102_);stroke-linecap:round;stroke-linejoin:round;}&#10;	.st104{fill:none;stroke:url(#SVGID_103_);stroke-linecap:round;stroke-linejoin:round;}&#10;	.st105{fill:none;stroke:url(#SVGID_104_);stroke-linecap:round;stroke-linejoin:round;}&#10;	.st106{fill:none;stroke:url(#SVGID_105_);stroke-linecap:round;stroke-linejoin:round;}&#10;	.st107{fill:none;stroke:url(#SVGID_106_);stroke-linecap:round;stroke-linejoin:round;}&#10;	.st108{fill:none;stroke:url(#SVGID_107_);stroke-linecap:round;stroke-linejoin:round;}&#10;	.st109{fill:none;stroke:url(#SVGID_108_);stroke-linecap:round;stroke-linejoin:round;}&#10;	.st110{fill:none;stroke:url(#SVGID_109_);stroke-linecap:round;stroke-linejoin:round;}&#10;	.st111{fill:none;stroke:url(#SVGID_110_);stroke-linecap:round;stroke-linejoin:round;}&#10;	.st112{fill:none;stroke:url(#SVGID_111_);stroke-linecap:round;stroke-linejoin:round;}&#10;	.st113{fill:none;stroke:url(#SVGID_112_);stroke-linecap:round;stroke-linejoin:round;}&#10;	.st114{fill:none;stroke:url(#SVGID_113_);stroke-linecap:round;stroke-linejoin:round;}&#10;	.st115{fill:none;stroke:url(#SVGID_114_);stroke-linecap:round;stroke-linejoin:round;}&#10;	.st116{fill:none;stroke:url(#SVGID_115_);stroke-linecap:round;stroke-linejoin:round;}&#10;	.st117{fill:none;stroke:url(#SVGID_116_);stroke-linecap:round;stroke-linejoin:round;}&#10;	.st118{fill:none;stroke:url(#SVGID_117_);stroke-linecap:round;stroke-linejoin:round;}&#10;	.st119{fill:none;stroke:url(#SVGID_118_);stroke-linecap:round;stroke-linejoin:round;}&#10;	.st120{fill:none;stroke:url(#SVGID_119_);stroke-linecap:round;stroke-linejoin:round;}&#10;	.st121{fill:none;stroke:url(#SVGID_120_);stroke-linecap:round;stroke-linejoin:round;}&#10;	.st122{fill:none;stroke:url(#SVGID_121_);stroke-linecap:round;stroke-linejoin:round;}&#10;	.st123{fill:none;stroke:url(#SVGID_122_);stroke-linecap:round;stroke-linejoin:round;}&#10;	.st124{fill:none;stroke:url(#SVGID_123_);stroke-linecap:round;stroke-linejoin:round;}&#10;	.st125{fill:url(#SVGID_124_);}&#10;	.st126{fill:url(#SVGID_125_);}&#10;	.st127{fill:url(#SVGID_126_);}&#10;	.st128{fill:url(#SVGID_127_);}&#10;	.st129{fill:url(#SVGID_128_);}&#10;	.st130{fill:url(#SVGID_129_);}&#10;	.st131{fill:url(#SVGID_130_);}&#10;	.st132{fill:url(#SVGID_131_);}&#10;	.st133{fill:url(#SVGID_132_);}&#10;	.st134{fill:url(#SVGID_133_);}&#10;</style>&#10;<g
   id="_x31_"
   transform="matrix(1.8982275,0,0,1.8982275,-9.9072929,-6.2145829)"
   style="stroke:#000000;stroke-opacity:1">&#10;	<g
   id="角色"
   transform="translate(-12,-49.6)"
   style="stroke:#000000;stroke-opacity:1">&#10;		<g
   id="g102"
   style="display:none;stroke:#000000;stroke-opacity:1">&#10;			<g
   id="g101"
   style="stroke:#000000;stroke-opacity:1">&#10;				&#10;					<radialGradient
   id="SVGID_1_"
   cx="12"
   cy="406.67841"
   r="55"
   gradientTransform="matrix(1,0,0,-1.5068,97.8,731.9904)"
   gradientUnits="userSpaceOnUse">&#10;					<stop
   offset="0"
   style="stop-color:#75B2D1"
   id="stop1" />&#10;					<stop
   offset="0.651"
   style="stop-color:#393F73"
   id="stop2" />&#10;					<stop
   offset="1"
   style="stop-color:#0A0D10"
   id="stop3" />&#10;				</radialGradient>&#10;				<path
   class="st0"
   d="m 219.6,203.1 0.1,0.4 c 0,-0.2 0,-0.4 -0.1,-0.8 v 0.4 m -87.5,-61.5 c 0,-0.1 -0.1,-0.1 -0.1,-0.2 l 0.1,0.2 v 0 m 37.8,-1.6 c 0,-5 -0.7,-8.8 -2.1,-11.4 -0.1,-0.1 -0.1,-0.3 -0.2,-0.4 l -0.8,-1.2 c -1.8,-2.3 -4.4,-3.5 -7.9,-3.5 -4,0 -8.1,3.2 -12.4,9.5 -0.6,1.1 -1.2,2.1 -1.8,3.1 -0.1,0.2 -0.2,0.3 -0.3,0.5 -3,5.4 -5.1,8.9 -6.3,10.6 -0.1,0.2 -0.6,0.9 -1.5,2.1 -0.5,0.7 -1,1.5 -1.7,2.5 3.1,0.6 6.3,2 9.8,4.2 0.1,0 0.1,0.1 0.2,0.1 2.9,1.8 5.2,3.7 6.8,5.6 0.3,-0.5 0.6,-1 0.9,-1.6 0.3,-0.5 0.6,-1 0.9,-1.6 2,-1.7 3.9,-2.8 5.8,-3.4 -1.9,0.5 -3.8,1.7 -5.8,3.4 -0.3,0.6 -0.6,1.1 -0.9,1.6 0.6,0.6 1.3,1.3 2.1,2.1 3,3.1 4.6,4.8 4.9,5.1 0.8,1 2.2,1.8 4.2,2.5 l 0.1,-0.1 v -0.1 c 4,-11.7 6,-21.6 6,-29.6 z"
   id="path3"
   style="fill:url(#SVGID_1_);stroke:#000000;stroke-opacity:1" />&#10;				&#10;					<radialGradient
   id="SVGID_2_"
   cx="12"
   cy="323.60001"
   r="102.6875"
   gradientTransform="matrix(1,0,0,-1,131.8,523.8)"
   gradientUnits="userSpaceOnUse">&#10;					<stop
   offset="0"
   style="stop-color:#090D11"
   id="stop4" />&#10;					<stop
   offset="0.1451"
   style="stop-color:#091227"
   id="stop5" />&#10;					<stop
   offset="0.3216"
   style="stop-color:#0530A2"
   id="stop6" />&#10;					<stop
   offset="0.5961"
   style="stop-color:#37B2C7"
   id="stop7" />&#10;					<stop
   offset="0.851"
   style="stop-color:#4AE0EF"
   id="stop8" />&#10;					<stop
   offset="1"
   style="stop-color:#FFFFFF"
   id="stop9" />&#10;				</radialGradient>&#10;				<path
   class="st1"
   d="m 141.4,274.4 c -0.6,0 -1.3,-0.1 -1.9,-0.3 7.2,3.4 14,5.8 20.3,7.1 3.9,0.8 7.6,1.2 11.1,1.2 5.8,0 10.9,-1 15.3,-3.1 3.1,-1.5 6.3,-3.8 9.5,-6.9 4.3,-4.1 6.8,-6.4 7.5,-6.9 2.4,-1.8 5,-2.8 7.7,-3.1 -0.5,0.1 -0.9,0.3 -1.3,0.5 -1.1,0.6 -1.6,1.8 -1.6,3.5 0,2.1 0.5,3.9 1.5,5.3 1.2,1.7 3,2.5 5.3,2.5 5.5,0 8.3,-1.6 8.3,-4.8 0,-2.8 -2.4,-6 -7.3,-9.6 -2.3,-1.7 -5.6,-3.6 -9.9,-5.9 -4.7,-2.5 -8.3,-4.7 -10.6,-6.5 -2.3,-1.8 -4.1,-3.7 -5.5,-5.8 1.9,5.5 2.7,11.3 2.4,17.4 -0.2,4.7 -1,9.2 -2.6,13.7 1.5,-4.5 2.4,-9 2.6,-13.7 0.2,-6.1 -0.6,-11.9 -2.4,-17.4 -0.6,-0.9 -1.2,-1.8 -1.6,-2.7 -1.3,-2.7 -3,-5.7 -5.1,-8.9 1.1,3.8 1.6,7.9 1.6,12.2 0,11.3 -3,19.7 -9,25.3 -4.2,3.9 -9.8,6.3 -16.8,7.1 -2,0.2 -4,0.4 -6.3,0.4 -0.5,0 -1.9,0 -4.4,-0.1 -3,-0.3 -5.2,-0.4 -6.8,-0.5 z"
   id="path9"
   style="fill:url(#SVGID_2_);stroke:#000000;stroke-opacity:1" />&#10;				&#10;					<radialGradient
   id="SVGID_3_"
   cx="10.999666"
   cy="304.67435"
   r="48.762501"
   gradientTransform="matrix(-0.8323781,-0.89087997,-0.730691,0.68270833,385.86925,117.6226)"
   gradientUnits="userSpaceOnUse"
   fx="10.999666"
   fy="304.67435">&#10;					<stop
   offset="0"
   style="stop-color:#75b2d1;stop-opacity:0;"
   id="stop10" />&#10;					<stop
   offset="0.65100002"
   style="stop-color:#777ebb;stop-opacity:1;"
   id="stop11" />&#10;					<stop
   offset="1"
   style="stop-color:#0A0D10"
   id="stop12" />&#10;				</radialGradient>&#10;				<path
   class="st2"
   d="m 139.5,274.1 c -0.6,-0.3 -1.1,-0.5 -1.6,-0.8 -3.4,-1.8 -6.3,-3.2 -8.5,-4.4 0.8,3.7 1.5,8.8 2.1,15 1,6.1 2.9,10.6 5.8,13.4 2.3,2.3 5.2,5.6 8.8,10.1 0.6,0.8 1.2,1.5 1.8,2.3 0.4,0.6 0.9,1.2 1.4,1.9 2.2,0.5 5.2,0.8 8.8,0.9 7.6,0.3 14.2,-0.7 19.8,-2.9 -0.5,-1.7 -1.2,-3.3 -2.1,-5 -1.3,-2.3 -3.6,-5.6 -6.9,-9.6 -3.4,-4.1 -5.7,-7.3 -6.9,-9.5 -0.8,-1.5 -1.4,-2.9 -1.9,-4.4 -6.6,-1.2 -13.4,-3.5 -20.6,-7 M 129.4,269 c -1.1,-0.6 -2.1,-1.1 -2.9,-1.5 0.7,13.2 2.6,24.3 5.4,33.5 0.7,2.2 1.6,4.9 2.9,8.3 2.6,0.4 6.3,0.6 11.3,0.6 0.3,0 0.8,0 1.7,0 -0.6,-0.8 -1.2,-1.5 -1.8,-2.3 -3.5,-4.5 -6.4,-7.9 -8.8,-10.1 -2.9,-2.8 -4.8,-7.2 -5.8,-13.4 -0.6,-6.3 -1.3,-11.4 -2,-15.1 z"
   id="path12"
   style="fill:url(#linearGradient496);stroke:#000000;stroke-opacity:1" />&#10;				&#10;					<radialGradient
   id="SVGID_4_"
   cx="12"
   cy="323.60001"
   r="102.6875"
   gradientTransform="matrix(1,0,0,-1,131.8,523.8)"
   gradientUnits="userSpaceOnUse">&#10;					<stop
   offset="0"
   style="stop-color:#090D11"
   id="stop13" />&#10;					<stop
   offset="0.1451"
   style="stop-color:#091227"
   id="stop14" />&#10;					<stop
   offset="0.3216"
   style="stop-color:#445BA3"
   id="stop15" />&#10;					<stop
   offset="0.5961"
   style="stop-color:#37B2C7"
   id="stop16" />&#10;					<stop
   offset="0.851"
   style="stop-color:#4AE0EF"
   id="stop17" />&#10;					<stop
   offset="1"
   style="stop-color:#FFFFFF"
   id="stop18" />&#10;				</radialGradient>&#10;				<path
   class="st3"
   d="m 149.4,220.6 c 2.5,-4.9 4.2,-9.8 5.1,-14.6 -2,0.9 -4.4,2.1 -7.1,3.4 -4.9,2.5 -8.9,4.2 -12,5.2 -1.9,0.6 -3.5,0.8 -4.8,0.8 -2.8,0 -5.1,-1.1 -7,-3.3 l -0.1,0.1 c 0,7.5 -1.7,13.5 -5,18.1 -4,5.4 -10.6,9.1 -19.8,11.2 -0.6,0.1 -3.4,0.3 -8.7,0.6 -5.4,0.3 -9.8,0.8 -13.3,1.5 -11.8,2.3 -17.7,7.1 -17.7,14.3 0,5.1 3.8,10 11.5,14.6 7,4.2 13.4,6.3 19.1,6.3 2.2,0 4.6,-0.8 7,-2.3 1.3,-0.8 3.3,-2.5 6.3,-5 5.6,-4.8 10.6,-7.3 14.8,-7.3 1.5,0 4.2,0.9 8,2.9 0.3,0.1 0.6,0.3 0.9,0.4 0.8,0.4 1.8,0.9 2.9,1.5 2.2,1.1 5.1,2.6 8.5,4.4 0.5,0.3 1.1,0.5 1.6,0.8 0.7,0.1 1.3,0.2 1.9,0.3 1.5,0.1 3.7,0.2 6.6,0.4 2.5,0.1 4,0.1 4.4,0.1 2.2,0 4.3,-0.1 6.3,-0.4 6.9,-0.9 12.5,-3.2 16.8,-7.1 6,-5.5 9,-13.9 9,-25.3 0,-4.3 -0.5,-8.4 -1.6,-12.2 -2.1,-3.2 -4.5,-6.7 -7.4,-10.5 -1.9,-2.6 -3.6,-4.9 -5.2,-7.1 -0.9,-1.3 -1.8,-2.5 -2.6,-3.6 0,0 -0.1,-0.1 -0.1,-0.1 -0.5,-0.7 -0.9,-1.3 -1.4,-1.8 -0.8,-1.2 -1.5,-2.2 -2.3,-3.2 -0.5,-0.2 -1.2,-0.3 -1.9,-0.3 -0.3,0 -0.7,0.1 -1.1,0.2 5.7,5.8 8.5,15.3 8.5,28.6 0,5.3 -0.6,10.7 -1.8,16.2 -1.5,7.1 -3.7,12 -6.4,14.5 2.8,-2.6 4.9,-7.4 6.4,-14.5 1.2,-5.5 1.8,-10.9 1.8,-16.2 0,-13.3 -2.8,-22.8 -8.5,-28.6 -0.3,0 -0.6,0.1 -0.9,0.3 -2.7,12.5 -6.3,22.4 -10.8,29.7 -6.4,10.5 -15.7,18.6 -28.1,24.1 12.3,-5.6 21.7,-13.6 28.1,-24.1 4.5,-7.3 8.1,-17.2 10.8,-29.7 -0.5,0.1 -1,0.3 -1.6,0.5 -0.5,0.1 -0.9,0.3 -1.4,0.6 -0.8,0.3 -1.7,0.7 -2.6,1.1 -0.9,4.7 -2.6,9.5 -5.1,14.5 -3.3,6.5 -7.5,12.3 -12.8,17.3 -12.5,11.9 -27.5,17.2 -44.9,15.8 17.5,1.4 32.5,-3.9 44.9,-15.8 5.3,-5 9.5,-10.8 12.8,-17.3 m -67.5,27.8 c 3,0.3 5.1,0.5 6.4,0.5 12.3,0 23.3,-2.6 32.9,-7.9 10.4,-5.7 17.7,-13.8 21.8,-24.3 -4.1,10.5 -11.3,18.6 -21.8,24.3 -9.6,5.3 -20.6,7.9 -32.9,7.9 -1.2,0 -3.4,-0.2 -6.4,-0.5 h -4.3 4.3 m 56.2,11.8 c 5.3,-2 10.2,-5.3 14.6,-9.8 2.6,-2.7 4.7,-5.5 6.4,-8.5 1.4,-2.5 2.4,-5.2 3.1,-7.9 0.7,-2.6 1.1,-5.7 1.3,-9.3 0.1,-2.3 0.1,-4.8 -0.1,-7.5 0.1,2.7 0.1,5.2 0.1,7.5 -0.2,3.6 -0.6,6.7 -1.3,9.3 -0.7,2.8 -1.8,5.4 -3.1,7.9 -1.7,3 -3.8,5.8 -6.4,8.5 -4.4,4.5 -9.2,7.8 -14.6,9.8 -5.3,2 -11.1,2.7 -17.4,2.2 6.3,0.5 12.1,-0.2 17.4,-2.2 z"
   id="path18"
   style="fill:url(#SVGID_4_);stroke:#000000;stroke-opacity:1" />&#10;				&#10;					<radialGradient
   id="SVGID_5_"
   cx="12"
   cy="323.60001"
   r="64.1875"
   gradientTransform="matrix(1,0,0,-1,120.3,541.8)"
   gradientUnits="userSpaceOnUse">&#10;					<stop
   offset="0"
   style="stop-color:#0A162E"
   id="stop19" />&#10;					<stop
   offset="0.2549"
   style="stop-color:#224275"
   id="stop20" />&#10;					<stop
   offset="0.4"
   style="stop-color:#3780C8"
   id="stop21" />&#10;					<stop
   offset="0.5255"
   style="stop-color:#4BE4F1"
   id="stop22" />&#10;					<stop
   offset="0.651"
   style="stop-color:#4EF3F7"
   id="stop23" />&#10;					<stop
   offset="0.9608"
   style="stop-color:#205CE0"
   id="stop24" />&#10;					<stop
   offset="1"
   style="stop-color:#205CE0"
   id="stop25" />&#10;				</radialGradient>&#10;				<path
   class="st4"
   d="m 123.1,196.4 c -0.2,0.2 -0.4,0.3 -0.6,0.5 -1.1,1.1 -1.8,2.3 -2.2,3.6 -0.1,0.7 -0.2,1.6 -0.2,2.6 0,0.2 0,0.4 0.1,0.7 0,0.4 0,0.7 0.1,1.1 0.3,2.2 1,4.2 2.3,6 0.1,0.1 0.3,0.2 0.5,0.3 1.4,0.7 2.9,1 4.5,1 1.3,0 3.1,-0.5 5.2,-1.5 1.2,-0.6 3.4,-1.7 6.4,-3.2 -3.1,1.5 -5.2,2.6 -6.4,3.2 -2.1,1 -3.9,1.5 -5.2,1.5 -1.6,0 -3.1,-0.3 -4.5,-1 l -0.1,0.3 c 0.2,0.2 0.3,0.5 0.6,0.7 0,0 0.1,0 0.1,0 1.9,2.2 4.2,3.2 7,3.3 1.3,0 2.9,-0.3 4.8,-0.8 3.1,-0.9 7.1,-2.7 12,-5.2 2.7,-1.4 5.1,-2.6 7.1,-3.4 0.9,-0.4 1.8,-0.8 2.6,-1.1 0.5,-0.2 1,-0.4 1.4,-0.6 0.5,-0.2 1.1,-0.4 1.6,-0.5 0.3,-0.1 0.7,-0.2 0.9,-0.3 0.4,-0.1 0.8,-0.2 1.1,-0.2 0.7,0 1.4,0.1 1.9,0.3 0.2,0.1 0.5,0.2 0.7,0.3 0,-1.6 -0.2,-3 -0.5,-4.3 -0.1,0 -0.1,-0.1 -0.2,-0.1 -0.4,-0.1 -2,-0.2 -4.8,-0.2 -3.2,0 -5.9,0.2 -8.3,0.8 -3.4,0.7 -7.8,2.2 -13,4.5 5.2,-2.3 9.6,-3.8 13,-4.5 2.3,-0.5 5.1,-0.8 8.3,-0.8 2.7,0 4.3,0.1 4.8,0.2 l 0.2,-0.1 c -0.6,-2.4 -1.7,-4.4 -3.3,-6.2 -0.4,-0.4 -0.7,-0.8 -1.1,-1.1 -0.1,0 -0.1,-0.1 -0.1,-0.1 -1.2,-0.2 -2.5,-0.3 -3.9,-0.3 -5.6,0 -10.4,0.4 -14.4,1.3 -4.7,1 -10.4,3 -17.3,5.9 6.9,-3 12.6,-4.9 17.3,-5.9 4,-0.9 8.8,-1.3 14.4,-1.3 1.4,0 2.6,0.1 3.9,0.3 V 192 c -0.5,-0.4 -1,-0.8 -1.6,-1.2 -0.6,-0.4 -1.2,-0.7 -1.9,-0.9 -1.8,-0.8 -3.8,-1.1 -6,-1.1 -5.5,0 -11.3,0.9 -17.3,2.8 -4.6,1.3 -7.8,2.9 -9.9,4.8 m 13.3,3 c -1.3,0.5 -2.5,0.9 -3.8,1.4 1.3,-0.4 2.6,-0.9 3.8,-1.4 5,-1.9 10.1,-3 15.3,-3.3 -5.2,0.3 -10.3,1.5 -15.3,3.3 z"
   id="path25"
   style="fill:url(#SVGID_5_);stroke:#000000;stroke-opacity:1" />&#10;				&#10;					<radialGradient
   id="SVGID_6_"
   cx="12"
   cy="323.60001"
   r="72.375"
   gradientTransform="matrix(1,0,0,-1,132.8,471.3)"
   gradientUnits="userSpaceOnUse">&#10;					<stop
   offset="0"
   style="stop-color:#111C2E"
   id="stop26" />&#10;					<stop
   offset="0.2549"
   style="stop-color:#325276"
   id="stop27" />&#10;					<stop
   offset="0.4"
   style="stop-color:#3780C8"
   id="stop28" />&#10;					<stop
   offset="0.5255"
   style="stop-color:#4BE4F1"
   id="stop29" />&#10;					<stop
   offset="0.651"
   style="stop-color:#4EF3F7"
   id="stop30" />&#10;					<stop
   offset="0.9608"
   style="stop-color:#205CE0"
   id="stop31" />&#10;					<stop
   offset="1"
   style="stop-color:#205CE0"
   id="stop32" />&#10;				</radialGradient>&#10;				<path
   class="st5"
   d="m 118.7,153.1 c -0.5,0.4 -0.9,0.8 -1.3,1.4 -1.5,1.8 -2.6,4.4 -3.3,7.6 1.2,3.4 2.2,6.4 2.9,9.1 0.5,2 0.9,3.7 1.3,5.3 1.1,-1.7 2.2,-3.4 3.3,-5.3 1.6,-2.4 3.3,-4.9 5.2,-7.6 3.7,-5.1 6.5,-9.1 8.4,-11.8 0.7,-1 1.2,-1.8 1.7,-2.5 -8.4,0.1 -14,1 -16.8,2.8 -0.6,0.3 -1.1,0.7 -1.4,1 m 45.1,17 c 0,-0.1 0.1,-0.2 0.1,-0.3 v 0 c -2,-0.7 -3.4,-1.5 -4.2,-2.5 -0.3,-0.3 -1.9,-2.1 -4.9,-5.1 -0.8,-0.8 -1.5,-1.5 -2.1,-2.1 -0.4,0.6 -0.7,1.1 -0.9,1.6 -1.1,1.8 -1.8,2.9 -2,3.3 -3.4,5.3 -7,9.8 -10.6,13.4 -4.9,5 -9.9,9.1 -14.8,12.2 -0.7,0.5 -1.4,0.9 -2,1.3 0,1.9 0,3.5 0.1,5 0.2,-0.2 0.3,-0.3 0.6,-0.5 2.1,-1.9 5.4,-3.5 9.8,-4.8 6,-1.8 11.8,-2.8 17.3,-2.8 2.2,0 4.2,0.4 6,1.1 0.6,0.3 1.3,0.6 1.9,0.9 0.1,-0.9 0.3,-1.8 0.4,-2.7 0.3,-1.6 0.7,-3.4 1.2,-5.2 0.5,-1.9 1.9,-6.2 4.1,-12.8 z"
   id="path32"
   style="fill:url(#SVGID_6_);stroke:#000000;stroke-opacity:1" />&#10;				<path
   class="st6"
   d="m 129.5,144.5 c -1,1.3 -1.6,2.1 -1.6,2.4 -0.1,0.3 0,0.7 0.1,1.1 0.1,0.4 0.7,0.6 1.6,0.6 0.9,0 1.6,-1.3 2.3,-3.9 0.2,-1.2 0.3,-2.2 0.4,-2.9 l -0.2,-0.2 c -1.3,1.3 -2.1,2.2 -2.6,2.9 z"
   id="path33"
   style="stroke:#000000;stroke-opacity:1" />&#10;				&#10;					<radialGradient
   id="SVGID_7_"
   cx="12"
   cy="406.67841"
   r="55"
   gradientTransform="matrix(1,0,0,-1.5068,97.8,731.9904)"
   gradientUnits="userSpaceOnUse">&#10;					<stop
   offset="0"
   style="stop-color:#75B2D1"
   id="stop33" />&#10;					<stop
   offset="0.4157"
   style="stop-color:#035D9A"
   id="stop34" />&#10;					<stop
   offset="0.7255"
   style="stop-color:#393F73"
   id="stop35" />&#10;					<stop
   offset="1"
   style="stop-color:#0A0D10"
   id="stop36" />&#10;				</radialGradient>&#10;				<path
   class="st7"
   d="m 134.1,129.3 -0.2,-0.1 c -0.2,0.1 -1.3,0.1 -3.3,-0.1 -0.5,0.3 -1,0.5 -1.4,0.8 -1.9,1.1 -3.5,2.3 -4.8,3.4 -1.2,1 -2.1,2.1 -2.8,3.2 -0.8,1.2 -1.3,2.6 -1.8,4.1 -0.3,0.9 -0.6,2.5 -1,4.7 -0.1,0.2 -0.4,2.3 -1,6.2 -0.2,1.1 -0.4,2.1 -0.6,3.1 0.4,-0.5 0.8,-1 1.3,-1.4 0.7,-1.4 1.6,-2.7 2.6,-4 1.6,-1.9 2.6,-3.3 3,-4.3 0.8,-1.7 1,-3.6 0.7,-5.8 0.3,2.2 0.1,4.1 -0.7,5.8 -0.4,0.9 -1.4,2.3 -3,4.3 -1,1.3 -1.9,2.6 -2.6,4 0.4,-0.4 0.8,-0.7 1.3,-1 2.8,-1.8 8.4,-2.7 16.8,-2.8 0.9,-1.2 1.4,-1.9 1.5,-2.1 1.2,-1.7 3.3,-5.2 6.3,-10.6 -5.1,3.7 -8.7,5.5 -10.8,5.5 -0.8,0 -1.3,-0.1 -1.6,-0.3 -0.1,0.7 -0.2,1.7 -0.4,2.9 -0.6,2.6 -1.4,3.9 -2.3,3.9 -0.9,0 -1.4,-0.2 -1.6,-0.6 -0.1,-0.4 -0.2,-0.8 -0.1,-1.1 0,-0.4 0.6,-1.2 1.6,-2.4 0.5,-0.7 1.3,-1.6 2.5,-2.9 l -0.1,-0.3 c 0,-0.9 0,-1.7 0,-2.5 0,-1.8 0.3,-3.7 0.8,-5.7 0.7,-1.3 1.1,-2.6 1.7,-3.9 m 32.8,-2.2 c -1.2,-1.6 -2.8,-2.9 -4.8,-3.8 -1.9,-0.4 -3.8,-1 -5.8,-1.9 -5.6,-2.5 -9.1,-6.2 -10.5,-10.8 -1.3,-1.4 -2.4,-3 -3.2,-4.8 -2.1,-0.9 -3.7,-1.8 -4.7,-3 -0.1,0.4 -0.2,0.8 -0.4,1.3 -0.5,1.3 -1.1,2 -1.8,2.1 0.1,0.8 0.2,1.8 0.3,3 0.3,2.9 0.6,4.7 0.8,5.5 -0.2,-0.8 -0.5,-2.6 -0.8,-5.5 -0.1,-1.2 -0.2,-2.2 -0.3,-3 h -0.1 c -0.7,0 -1.3,-0.3 -1.7,-0.9 -0.3,1.5 -0.5,2.9 -0.5,4 0,1.1 0,1.8 0.1,2.1 0,0.2 0,0.5 0.1,0.8 0,0.1 0,0.1 0,0.2 0.1,0.2 0.3,0.5 0.4,0.8 0.9,1.5 1.8,3 2.8,4.6 0.8,1.5 1.2,3 1.2,4.6 0,1.4 -0.2,2.4 -0.7,3.1 -0.1,0.2 -0.3,0.4 -0.6,0.6 l -0.1,0.1 c 0.1,0.2 0.2,0.3 0.2,0.4 0,0.6 -0.5,1 -1.6,1 -0.1,0 -0.3,0 -0.4,-0.1 -0.3,0.6 -0.6,1.3 -0.9,1.9 -0.6,1.3 -1,2.7 -1.4,3.9 -0.5,2 -0.8,3.9 -0.8,5.7 0,0.8 0,1.6 0,2.5 0,0.1 0.1,0.1 0.1,0.2 0,0.1 0.1,0.1 0.1,0.2 0.3,0.2 0.8,0.3 1.6,0.3 2.1,0 5.6,-1.8 10.8,-5.5 0.1,-0.2 0.1,-0.3 0.3,-0.5 0.6,-1 1.1,-2 1.8,-3.1 4.3,-6.3 8.4,-9.5 12.4,-9.5 3.6,0 6.3,1.2 8.1,3.5 z"
   id="path36"
   style="fill:url(#SVGID_7_);stroke:#000000;stroke-opacity:1" />&#10;				&#10;					<radialGradient
   id="SVGID_8_"
   cx="12"
   cy="406.67841"
   r="55"
   gradientTransform="matrix(1,0,0,-1.5068,97.8,731.9904)"
   gradientUnits="userSpaceOnUse">&#10;					<stop
   offset="0"
   style="stop-color:#75B2D1"
   id="stop37" />&#10;					<stop
   offset="6.666666e-02"
   style="stop-color:#0A94E4"
   id="stop38" />&#10;					<stop
   offset="0.651"
   style="stop-color:#393F73"
   id="stop39" />&#10;					<stop
   offset="1"
   style="stop-color:#0A0D10"
   id="stop40" />&#10;				</radialGradient>&#10;				<path
   class="st8"
   d="m 136.9,126 v 0 c -0.1,-0.2 -0.2,-0.3 -0.3,-0.6 0.1,0.3 0.2,0.4 0.3,0.6 m -7.3,-8 c -0.3,-0.1 -0.5,-0.1 -0.8,-0.2 -1.9,1.5 -3.3,2.2 -4.3,2.2 -1,0 -1.8,-0.5 -2.4,-1.4 0,-0.1 -0.2,-0.4 -0.5,-0.9 -2.9,0.5 -6.3,2 -10.3,4.3 -3.6,2.2 -6.3,4.2 -7.9,6.2 -0.4,0.5 -0.8,0.9 -1.1,1.4 -0.2,0.3 -0.4,0.7 -0.6,1.1 -0.3,0.7 -0.6,1.5 -0.8,2.4 -0.1,0.6 -0.2,1.2 -0.3,1.8 -0.2,1.9 -0.2,4.8 -0.1,8.6 -0.3,7.3 -0.5,12.8 -0.5,16.4 0,4.4 0.1,8.1 0.3,11.2 0.2,3.7 0.5,6.5 1,8.2 0.8,3.2 2.4,6.9 4.6,10.9 0.8,3.7 2.4,5.6 4.7,5.6 3.3,0 7.3,-1.3 12,-4 0.7,-0.4 1.3,-0.8 2,-1.3 4.9,-3.1 9.8,-7.2 14.8,-12.2 3.6,-3.7 7.2,-8.2 10.6,-13.4 0.2,-0.3 0.9,-1.4 2,-3.3 -1.6,-1.9 -3.9,-3.7 -6.8,-5.6 -0.1,0 -0.1,-0.1 -0.2,-0.1 -3.4,-2.2 -6.7,-3.6 -9.8,-4.2 -1.9,2.7 -4.7,6.7 -8.4,11.8 -1.8,2.6 -3.6,5.1 -5.2,7.6 -1.2,1.8 -2.3,3.6 -3.3,5.3 -0.6,1 -1.2,2 -1.8,2.9 0.6,-1 1.1,-1.9 1.8,-2.9 -0.3,-1.5 -0.7,-3.3 -1.3,-5.3 -0.7,-2.6 -1.7,-5.6 -2.9,-9.1 -0.2,-0.5 -0.3,-1 -0.6,-1.5 -3.5,-9.8 -5.3,-16.2 -5.3,-19.2 0,-0.6 0.2,-1.8 0.5,-3.7 0.3,-1.4 0.5,-2.4 0.7,-2.9 1,0 1.9,-0.1 2.8,-0.2 0.6,-0.1 1.7,-0.5 3.3,-1.4 1,-0.5 2.1,-1.1 3.5,-1.9 3.5,-2.1 6.8,-2.9 10,-2.5 0.6,0.1 1.2,0.2 1.8,0.3 2,0.2 3.1,0.3 3.3,0.1 0.2,-0.1 0.3,-0.4 0.3,-0.9 0,-0.3 0,-0.5 -0.1,-0.7 0,-0.1 -0.1,-0.2 -0.1,-0.3 -0.4,-0.7 -1,-1.2 -1.9,-1.4 -0.1,0 -0.3,-0.1 -0.4,-0.1 -1.3,-0.3 -2.9,-0.6 -4.7,-0.9 -0.6,-0.1 -1.2,-0.2 -1.8,-0.2 -1.6,-0.1 -3.3,0.1 -5.3,0.4 1.9,-0.3 3.7,-0.5 5.3,-0.4 0,0 0.1,-0.1 0.1,-0.1 2,-0.5 3.1,-0.8 3.3,-0.8 0.8,0 1.8,0.6 3.1,1.9 0.1,0 0.3,0.1 0.4,0.1 0.9,0.2 1.5,0.7 1.9,1.4 0,-0.1 -0.1,-0.1 -0.1,-0.2 0.1,0 0.1,0 0.3,0 0.2,0 0.3,0.1 0.4,0.1 0.1,0 0.2,0 0.4,0 0.2,0 0.3,0.1 0.4,0.1 1.1,0 1.6,-0.3 1.6,-1 0,-0.1 -0.1,-0.3 -0.2,-0.4 -0.1,-0.2 -0.2,-0.3 -0.3,-0.6 l -0.4,-0.4 c -0.5,-0.6 -1.1,-1.3 -2.1,-2.1 -0.7,-0.6 -1.3,-1.2 -1.8,-1.6 -1.4,-0.8 -2.4,-1.2 -3,-1.2 -0.6,0 -2.4,0.2 -5.4,0.6 -3,0.4 -5,0.9 -6,1.4 1,-0.5 3,-1 6,-1.4 3,-0.4 4.8,-0.6 5.4,-0.6 0.6,0 1.6,0.4 3,1.2 0.4,-0.1 0.7,-0.2 0.9,-0.3 0.1,-0.1 0.1,-0.4 0.1,-0.9 -0.1,-0.6 -1.3,-1.3 -3.8,-1.8 z"
   id="path40"
   style="fill:url(#SVGID_8_);stroke:#000000;stroke-opacity:1" />&#10;				&#10;					<radialGradient
   id="SVGID_9_"
   cx="12"
   cy="323.60001"
   r="133.53751"
   gradientTransform="matrix(1,0,0,-1,79.8,445.75)"
   gradientUnits="userSpaceOnUse">&#10;					<stop
   offset="0"
   style="stop-color:#090D11"
   id="stop41" />&#10;					<stop
   offset="0.1451"
   style="stop-color:#091227"
   id="stop42" />&#10;					<stop
   offset="0.3216"
   style="stop-color:#4158A3"
   id="stop43" />&#10;					<stop
   offset="0.4"
   style="stop-color:#195085"
   id="stop44" />&#10;					<stop
   offset="0.9608"
   style="stop-color:#205CE0"
   id="stop45" />&#10;					<stop
   offset="1"
   style="stop-color:#205CE0"
   id="stop46" />&#10;				</radialGradient>&#10;				<path
   class="st9"
   d="m 137.6,104.1 c 0.1,-0.4 0.3,-0.8 0.4,-1.3 -0.3,-0.3 -0.6,-0.6 -0.8,-0.9 -1.4,-0.3 -2.6,-0.7 -3.6,-1.2 -0.1,0.4 -0.2,0.8 -0.2,1.3 0,1.5 0.2,2.5 0.7,3.3 0.4,0.6 0.9,0.9 1.7,0.9 h 0.1 c 0.7,-0.1 1.3,-0.8 1.7,-2.1 m 6.3,-32.5 c -0.1,0 -0.1,0.1 -0.2,0.2 -0.2,0.3 -0.4,0.7 -0.4,1.1 -0.2,0.6 -0.3,1.3 -0.3,2.1 0,1.4 0.2,2.6 0.6,3.6 0,0.1 0.1,0.1 0.1,0.2 v 0 c -0.7,0.1 -1.3,0.3 -1.9,0.6 -1.5,0.6 -2.3,1.4 -2.4,2.5 -0.7,-0.2 -1.4,-0.3 -2.3,-0.3 -1.2,0 -2.5,0.3 -3.9,0.9 -0.7,0.3 -1.3,0.6 -1.8,1 -0.8,-0.4 -1.7,-0.7 -2.6,-0.8 -1.5,-0.2 -3,0 -4.5,0.7 -0.4,0.2 -0.8,0.4 -1.1,0.6 0.5,0.2 0.9,0.4 1.3,0.7 1,0.6 1.9,1.3 2.6,2 l 0.1,0.1 c 0.6,-0.4 1.3,-0.7 2,-0.9 0.2,-0.1 0.4,-0.1 0.6,-0.2 0.9,-0.3 1.8,-0.4 2.8,-0.4 0.6,0 1.2,0.2 1.8,0.4 0.1,0.1 0.2,0.3 0.3,0.4 0,0 0,0.1 0,0.1 0.1,0.2 0.1,0.3 0.1,0.3 0,0.1 0.1,0.3 0.1,0.8 v 0 c 0,0.1 0,0.1 0,0.2 0,0.4 0,0.8 -0.1,1.2 -0.1,0.4 -0.2,0.8 -0.4,1.1 0.7,0.1 1.7,0.2 2.9,0.2 0.6,0 1.1,-0.1 1.6,-0.2 1.1,-0.3 2,-0.8 2.7,-1.5 0.5,-0.5 0.9,-1.1 1.1,-1.7 0.3,-0.6 0.4,-1.3 0.4,-2.1 0,-0.1 -0.1,-0.3 -0.2,-0.4 V 84 83.9 c -0.3,-0.4 -0.6,-0.7 -0.9,-1 0.4,0 1,0.1 1.8,0.1 1.3,0 2.3,-0.1 3.1,-0.3 1.7,-0.4 2.5,-1.2 2.5,-2.3 0,-0.2 0,-0.4 -0.1,-0.6 0.7,-0.2 1.4,-0.6 2,-1.2 h 0.1 c 0.6,-0.5 1,-1.1 1.3,-1.7 0.1,-0.2 0.1,-0.3 0.2,-0.5 0.1,-0.4 0.1,-0.8 0.1,-1.2 v 0 c 0,-1.8 -0.8,-2.7 -2.4,-2.7 -0.7,0 -1.4,0.3 -2.1,0.8 0,-0.3 -0.1,-0.5 -0.1,-0.8 -0.1,-0.4 -0.3,-0.7 -0.6,-1.1 -0.2,-0.3 -0.4,-0.6 -0.7,-0.8 -0.4,-0.3 -0.8,-0.4 -1.2,-0.4 -0.8,0.3 -1.5,0.7 -2,1.4 z"
   id="path46"
   style="fill:url(#SVGID_9_);stroke:#000000;stroke-opacity:1" />&#10;				&#10;					<radialGradient
   id="SVGID_10_"
   cx="-80.798203"
   cy="318.18829"
   r="155.16161"
   gradientTransform="matrix(0.9463,-0.3234,-0.4005,-1.1761,352.6819,486.2974)"
   gradientUnits="userSpaceOnUse">&#10;					<stop
   offset="0"
   style="stop-color:#090D11"
   id="stop47" />&#10;					<stop
   offset="0.1451"
   style="stop-color:#091227"
   id="stop48" />&#10;					<stop
   offset="0.3216"
   style="stop-color:#0530A2"
   id="stop49" />&#10;					<stop
   offset="0.4"
   style="stop-color:#195085"
   id="stop50" />&#10;					<stop
   offset="0.9608"
   style="stop-color:#205CE0"
   id="stop51" />&#10;					<stop
   offset="1"
   style="stop-color:#205CE0"
   id="stop52" />&#10;				</radialGradient>&#10;				<path
   class="st10"
   d="m 142.9,84.3 v 0 c 0,-0.1 0,-0.1 0,0 v 0 m -15.7,2.5 -0.1,-0.1 z"
   id="path52"
   style="fill:url(#SVGID_10_);stroke:#000000;stroke-opacity:1" />&#10;				&#10;					<radialGradient
   id="SVGID_11_"
   cx="12"
   cy="323.60001"
   r="133.53751"
   gradientTransform="matrix(1,0,0,-1,79.8,445.75)"
   gradientUnits="userSpaceOnUse">&#10;					<stop
   offset="0"
   style="stop-color:#090D11"
   id="stop53" />&#10;					<stop
   offset="0.1451"
   style="stop-color:#091227"
   id="stop54" />&#10;					<stop
   offset="0.3216"
   style="stop-color:#0530A2"
   id="stop55" />&#10;					<stop
   offset="0.4"
   style="stop-color:#195085"
   id="stop56" />&#10;					<stop
   offset="0.9608"
   style="stop-color:#205CE0"
   id="stop57" />&#10;					<stop
   offset="1"
   style="stop-color:#205CE0"
   id="stop58" />&#10;				</radialGradient>&#10;				<path
   class="st11"
   d="m 142,83.2 c 0.3,0.3 0.6,0.6 0.9,1 0,0 0.1,0.1 0.1,0.2 h -0.1 c 0.1,0.1 0.1,0.3 0.2,0.4 0,0.7 -0.1,1.4 -0.4,2.1 1.3,-0.1 2.3,-0.6 3.2,-1.5 0.7,-0.7 1,-1.5 1.1,-2.3 -0.8,0.2 -1.9,0.3 -3.1,0.3 -0.9,-0.1 -1.5,-0.2 -1.9,-0.2 m -3.1,6.7 c -0.5,0.1 -1,0.2 -1.6,0.2 -1.3,0 -2.3,-0.1 -2.9,-0.2 -0.5,0.9 -1.3,1.6 -2.4,2.2 -0.5,0.3 -1.1,0.5 -1.8,0.7 1.2,1.9 3.1,3.5 5.9,4.8 0.3,-0.9 0.4,-1.5 0.4,-2 0,-0.4 -0.2,-1 -0.6,-1.9 -0.4,-0.7 -0.7,-1.3 -1.1,-1.8 0.4,0.5 0.7,1.1 1.1,1.8 0.4,0.9 0.6,1.5 0.6,1.9 0,0.5 -0.1,1.1 -0.4,2 0.2,0.1 0.3,0.2 0.5,0.3 0.4,0.2 0.8,0.4 1.3,0.5 0.6,-0.8 1.1,-1.8 1.4,-3 0.3,-0.9 0.4,-1.7 0.4,-2.3 0,-1.5 -0.3,-2.6 -0.8,-3.2 M 151.6,66 c -1.5,0 -2.8,0.6 -3.8,1.7 -0.2,0.2 -0.3,0.4 -0.5,0.6 -0.4,-0.3 -0.9,-0.4 -1.5,-0.4 -0.1,0 -0.3,0 -0.4,0 -1.1,0.2 -1.7,1.3 -1.7,3.3 l 0.1,0.3 c 0.5,-0.7 1.2,-1.1 2.1,-1.1 0.4,0 0.8,0.2 1.2,0.4 0.2,0.2 0.4,0.5 0.7,0.8 0.2,0.3 0.4,0.7 0.6,1.1 0,-0.2 0.1,-0.3 0.1,-0.5 0.1,-0.2 0.1,-0.6 0.1,-1.2 0,-0.3 0,-0.6 -0.1,-0.8 0.7,-0.2 1.5,-0.4 2.3,-0.5 0.3,0 0.7,-0.1 1.1,-0.1 0.4,0 1,0.1 1.8,0.3 0.3,-0.5 0.5,-1 0.5,-1.5 0,-0.2 0,-0.5 0,-0.7 -0.3,-1.1 -1.1,-1.7 -2.6,-1.7 z"
   id="path58"
   style="fill:url(#SVGID_11_);stroke:#000000;stroke-opacity:1" />&#10;				&#10;					<radialGradient
   id="SVGID_12_"
   cx="-80.798203"
   cy="318.18829"
   r="155.16161"
   gradientTransform="matrix(0.9463,-0.3234,-0.4005,-1.1761,352.6819,486.2974)"
   gradientUnits="userSpaceOnUse">&#10;					<stop
   offset="0"
   style="stop-color:#090D11"
   id="stop59" />&#10;					<stop
   offset="0.1451"
   style="stop-color:#091227"
   id="stop60" />&#10;					<stop
   offset="0.3216"
   style="stop-color:#3751A3"
   id="stop61" />&#10;					<stop
   offset="0.4"
   style="stop-color:#195085"
   id="stop62" />&#10;					<stop
   offset="0.9608"
   style="stop-color:#205CE0"
   id="stop63" />&#10;					<stop
   offset="1"
   style="stop-color:#205CE0"
   id="stop64" />&#10;				</radialGradient>&#10;				<path
   class="st12"
   d="m 141.6,88.4 c -0.7,0.8 -1.6,1.3 -2.7,1.5 0.6,0.6 0.8,1.6 0.8,3.2 0,0.6 -0.1,1.4 -0.4,2.3 -0.3,1.2 -0.8,2.2 -1.4,3 1.5,0.5 3.2,1 5.2,1.5 2.7,0.3 5.9,0.5 9.8,0.5 5.1,0 10.1,-0.6 14.9,-1.7 -2.9,-1.6 -5.5,-3.8 -7.9,-6.6 -0.9,-1 -3.8,-5.4 -8.6,-13.3 h -0.1 c -0.6,0.6 -1.3,0.9 -2,1.2 0.1,0.2 0.1,0.4 0.1,0.6 0,1.2 -0.8,1.9 -2.5,2.3 -0.1,0.8 -0.5,1.6 -1.1,2.3 -0.8,0.9 -1.9,1.4 -3.2,1.5 -0.1,0.6 -0.4,1.2 -0.9,1.7 m 79.5,66 c -2.3,0.8 -4.4,1.6 -6.3,2.3 -1.1,0.5 -2.2,0.9 -3.1,1.3 0,0.2 -0.1,0.3 -0.1,0.5 0,0.5 0,1 0.1,1.4 0.2,1.1 0.7,2.1 1.4,2.9 0.7,0.8 1.8,1.4 3.1,1.9 0.1,-1.6 0.6,-3.2 1.3,-4.7 0.5,-1.1 1.2,-2.2 2,-3.2 0.5,-0.7 1.1,-1.3 1.8,-2 l -0.2,-0.4 m -39,-58.6 v 0 c -4.4,3.8 -8.3,6.6 -11.8,8.5 -4.7,2.5 -9.2,3.8 -13.7,3.8 -4.4,0 -8.6,-0.6 -12.4,-1.8 -0.6,-0.2 -1.1,-0.4 -1.6,-0.5 0.8,1.7 1.9,3.3 3.2,4.8 1,1.1 2.2,2.2 3.5,3 5,3.4 11.2,5 18.6,4.7 3.5,-0.1 8.5,-1.1 15.1,-2.9 0.6,-0.2 1.2,-0.3 1.8,-0.4 5.8,-1.5 10.9,-2.3 15.4,-2.5 5.3,-0.2 9.7,1 13.3,3.7 0.1,0.1 0.2,0.2 0.3,0.3 1.3,1 2.4,2.2 3.3,3.5 5.8,3.1 8.6,8.6 8.6,16.5 0,3.7 -1.2,7 -3.5,9.8 -2.3,2.7 -6.4,5.9 -12.5,9.5 6.1,-3.6 10.2,-6.8 12.5,-9.5 2.3,-2.8 3.5,-6 3.5,-9.8 0,-7.9 -2.9,-13.4 -8.6,-16.5 2.1,3.1 3.1,7 2.9,11.8 0.1,-4.8 -0.9,-8.7 -2.9,-11.8 -0.9,-1.3 -1.9,-2.5 -3.3,-3.5 -0.1,-0.1 -0.2,-0.2 -0.3,-0.3 -3.6,-2.7 -8,-3.9 -13.3,-3.7 -4.5,0.2 -9.7,1 -15.4,2.5 -0.6,0.1 -1.1,0.3 -1.8,0.4 -6.6,1.8 -11.6,2.7 -15.1,2.9 -7.4,0.3 -13.6,-1.3 -18.6,-4.7 -1.3,-0.9 -2.5,-1.9 -3.5,-3 1.4,4.7 4.9,8.3 10.5,10.8 1.9,0.9 3.9,1.5 5.8,1.9 1.5,0.3 3,0.5 4.6,0.5 4.3,0.1 8.6,-1.1 12.9,-3.4 1.7,-0.9 3.4,-1.6 5.2,-2.1 3.3,-0.9 6.7,-1 10.1,-0.2 -3.5,-0.8 -6.9,-0.7 -10.1,0.2 -1.8,0.5 -3.5,1.2 -5.2,2.1 -4.3,2.3 -8.6,3.5 -12.9,3.4 4.6,1.3 9.4,1.1 14.6,-0.7 1.2,-0.4 2.4,-0.8 3.6,-1 7,-1.4 13.1,0.3 18.4,5.2 1.5,1.3 2.5,2.9 2.9,4.8 0.8,3.2 0.2,6.1 -1.7,8.6 1.9,-2.5 2.5,-5.4 1.7,-8.6 -0.4,-1.9 -1.4,-3.5 -2.9,-4.8 -5.3,-4.9 -11.5,-6.6 -18.4,-5.2 -1.2,0.2 -2.4,0.6 -3.6,1 -5.1,1.7 -10,2 -14.6,0.7 -1.5,0 -3.1,-0.2 -4.6,-0.5 2,0.9 3.6,2.2 4.8,3.8 l 0.8,1.2 c 0.1,0.1 0.1,0.3 0.2,0.4 1.4,2.6 2.1,6.4 2.1,11.4 0,8 -2,17.9 -6,29.7 v 0.1 c 0,0 0,0.1 0,0.1 v 0.1 c 0,7.5 3.7,11.7 11.1,12.7 1.9,0.3 4.6,0.6 8.2,0.9 0.1,0 0.1,0 0.2,0.1 0.5,0.1 1,0.2 1.4,0.3 0.5,0.1 0.9,0.3 1.3,0.5 -0.4,-0.2 -0.8,-0.4 -1.3,-0.5 -0.4,-0.2 -0.9,-0.3 -1.4,-0.3 -0.6,0.2 -1.3,0.4 -2,0.6 -3.7,1 -6.3,1.9 -7.9,2.6 -2.9,1.3 -5.1,2.9 -6.6,4.9 1.8,1.1 3.8,2.8 5.8,5.1 0.9,1 1.7,2.1 2.4,3.1 1.1,-2.5 2.9,-5 5.6,-7.4 2.1,-2 3.5,-3.3 4.2,-3.9 0.2,-0.2 0.3,-0.3 0.3,-0.4 1.4,-1.6 2.1,-3.1 2.1,-4.6 0,-1.2 -0.3,-2.3 -0.9,-3.3 -0.3,-0.9 -0.8,-1.8 -1.4,-2.5 -0.1,-0.1 -0.1,-0.2 -0.3,-0.3 -0.8,-0.8 -1.7,-1.6 -2.7,-2.4 -1.1,-0.8 -2.1,-1.8 -3.1,-2.9 -2,-2.3 -3.1,-5 -3.1,-8.2 0,-2.3 0.4,-4.5 1.4,-6.7 1.1,-2.6 2.9,-4.5 5.4,-5.9 0.8,-0.5 1.6,-0.9 2.4,-1.3 2.1,-0.9 4.3,-1.5 6.6,-1.7 3.1,-0.3 6.2,-1.1 9.1,-2.5 -2.9,1.3 -5.9,2.2 -9.1,2.5 -2.3,0.2 -4.5,0.8 -6.6,1.7 -0.8,0.4 -1.6,0.8 -2.4,1.3 -2.5,1.4 -4.3,3.3 -5.4,5.9 -0.9,2.2 -1.4,4.4 -1.4,6.7 0,3.1 1.1,5.9 3.1,8.2 1,1.1 2,2.1 3.1,2.9 1,0.7 1.9,1.5 2.7,2.4 0.1,0.1 0.2,0.2 0.3,0.3 0.7,0.7 1.1,1.6 1.4,2.5 0.6,1 0.9,2.1 0.9,3.3 0,1.5 -0.7,3 -2.1,4.6 -0.1,0.1 -0.2,0.2 -0.3,0.4 -0.7,0.7 -2.1,2 -4.2,3.9 -2.6,2.4 -4.5,4.9 -5.6,7.4 2.1,3.1 3.1,6 3.1,8.8 0,1 -0.1,1.9 -0.3,2.9 0.2,0.1 0.4,0.2 0.7,0.3 1.1,0.5 2.4,0.7 3.9,0.7 1.2,0 2.2,-0.1 2.9,-0.4 -0.5,-1.4 -0.7,-3.1 -0.7,-4.9 0,-0.7 0,-1.2 0.1,-1.6 0,0.4 -0.1,1 -0.1,1.6 0,1.8 0.2,3.4 0.7,4.9 0.6,1.9 1.6,3.4 3.1,4.6 2.1,1.8 4.8,2.7 8.1,2.8 3.4,0 6.1,-0.9 8.1,-2.8 2,-1.8 3,-4.1 3,-7 0,-0.6 0,-1.1 -0.1,-1.6 -0.6,-0.7 -0.9,-1.5 -0.9,-2.4 0,0 0,-0.1 0,-0.1 0,-1.8 0.4,-3.7 1.2,-5.6 0.8,-2.1 2.3,-4.6 4.3,-7.5 -2,2.8 -3.5,5.3 -4.3,7.5 -0.8,2 -1.2,3.8 -1.2,5.6 0,0.1 0,0.1 0,0.1 0,0.9 0.3,1.7 0.9,2.4 0.1,0.1 0.2,0.2 0.3,0.3 0.8,0.7 1.8,1 3,1 2,0 3.8,-0.4 5.5,-1.3 1.3,-0.7 2.2,-1.5 2.8,-2.4 0.3,-0.7 0.5,-1.4 0.5,-2.2 l -0.1,-0.4 -0.4,0.1 c -0.3,0.4 -0.7,0.8 -0.9,1.1 -0.8,0.8 -1.4,1.2 -2,1.2 -0.7,0 -1.4,-0.2 -2.1,-0.5 -1,-0.5 -1.5,-1.3 -1.5,-2.3 0,-2.5 1.1,-4.5 3.3,-5.9 0.4,-0.3 1.2,-0.6 2.3,-1.1 1.2,-0.5 2.8,-1.1 4.9,-1.9 3.3,-1.2 5.7,-2.6 7.2,-4.1 0.3,-0.3 0.5,-0.6 0.8,-0.9 1.7,-2.2 2.6,-5 2.6,-8.5 0,-2 -0.4,-3.8 -1.1,-5.6 -0.8,-1.7 -1.9,-3.2 -3.4,-4.6 -2.2,-2 -4.9,-3.4 -8.1,-4.2 -0.2,-0.1 -0.5,-0.1 -0.7,-0.1 -1.5,-0.4 -2.8,-0.7 -3.8,-1 -0.2,0 -0.3,-0.1 -0.4,-0.1 -1.3,-0.4 -2.3,-1.1 -3.1,-1.9 -0.7,-0.8 -1.2,-1.7 -1.4,-2.9 -0.1,-0.4 -0.1,-0.9 -0.1,-1.4 l -0.2,-0.4 c -0.2,0.1 -0.4,0.2 -0.6,0.3 -0.3,0.1 -0.6,0.2 -0.8,0.3 -7.6,3.4 -11.4,7.2 -11.4,11.3 0,3.4 1.3,6.7 4,9.9 -2.7,-3.2 -4,-6.5 -4,-9.9 0,-4.1 3.8,-7.9 11.4,-11.3 0.3,-0.1 0.6,-0.2 0.8,-0.3 0.2,-0.1 0.4,-0.2 0.6,-0.3 0.1,-0.1 0.2,-0.1 0.3,-0.1 0.9,-0.4 2,-0.8 3.1,-1.3 1.8,-0.7 3.9,-1.5 6.3,-2.3 0.9,-0.4 1.8,-0.7 2.8,-1.1 0.9,-0.5 1.9,-0.9 3,-1.4 4,-1.7 6.9,-3 8.7,-3.9 0.9,-0.4 1.5,-0.8 1.8,-1 2.1,-1.4 3.5,-2.9 4.2,-4.7 0.4,-1 0.6,-2.1 0.6,-3.2 0,-1.4 -0.2,-2.8 -0.6,-4 -0.8,-2.5 -2.4,-4.5 -4.8,-6.1 -1.4,-1 -3.3,-1.9 -5.4,-2.7 -1,-0.4 -2,-0.7 -3.2,-1 -0.6,-0.2 -1.3,-0.4 -2,-0.5 0.7,0.2 1.4,0.3 2,0.5 -0.2,-5.5 -2.5,-9.8 -7.1,-12.7 -1.6,-1 -3.3,-1.7 -5.2,-2.3 -0.7,-0.2 -1.3,-0.4 -2,-0.5 -2.5,-0.6 -5.2,-0.9 -8.1,-0.9 h -0.1 c -2.8,0 -6.9,0.4 -12.1,1.3 -0.4,0.1 -0.7,0.1 -1,0.2 -3.3,0.5 -5.9,0.8 -7.8,0.9 -0.9,0.1 -1.6,0.1 -2.2,0.1 -4.6,0 -8.8,-1 -12.5,-2.9 3.7,2 7.8,2.9 12.5,2.9 0.6,0 1.3,0 2.2,-0.1 1.9,-0.1 4.5,-0.4 7.8,-0.9 0.3,0 0.7,-0.1 1,-0.2 5.2,-0.8 9.2,-1.3 12.1,-1.3 -4.8,-1.4 -8.9,-3.3 -12.3,-5.5 -5.5,-3.9 -9.3,-6.4 -11.5,-7.9 m 4.2,78.1 c 0.5,2.5 2.2,5.5 5.1,9.2 1.7,2.1 2.8,4 3.4,5.6 0.3,1 0.5,1.9 0.5,2.7 0,1.6 -1.2,4.3 -3.5,7.9 -2.3,3.7 -3.5,6.5 -3.5,8.4 0,2 0.5,3.5 1.6,4.4 0.9,0.8 2.4,1.3 4.3,1.3 0.5,0 0.9,0 1.4,-0.1 0.8,-0.1 1.6,-0.4 2.3,-0.7 0.3,-0.1 0.6,-0.3 0.9,-0.5 1.3,-0.9 2,-2 2,-3.4 0,-0.8 -0.1,-1.4 -0.4,-1.9 -0.3,-0.5 -0.8,-0.8 -1.4,-0.8 -0.7,0 -1.3,0.3 -1.6,0.8 -0.3,0.4 -0.5,1 -0.5,1.8 0,0.3 0.1,0.6 0.3,0.9 0.2,0.3 0.6,0.6 1.2,0.7 -0.6,-0.1 -1,-0.3 -1.2,-0.7 -0.2,-0.4 -0.3,-0.7 -0.3,-0.9 0,-0.7 0.2,-1.3 0.5,-1.8 0.4,-0.5 0.9,-0.8 1.6,-0.8 0.6,0 1.1,0.3 1.4,0.8 0.3,0.5 0.4,1.1 0.4,1.9 0,1.4 -0.7,2.5 -2,3.4 -0.3,0.2 -0.6,0.4 -0.9,0.5 1.8,-0.6 3.1,-1.6 3.8,-3.1 0.2,-0.4 0.6,-2.3 1.1,-5.6 0.2,-1.4 0.8,-3 1.7,-4.6 -0.1,0.1 -0.3,0.2 -0.4,0.3 -1.2,0.9 -2.8,1.4 -4.6,1.6 -1.5,0.1 -2.9,0.8 -4.2,1.9 -1.4,1.3 -2.1,2.8 -2.1,4.6 0,0.8 0.2,1.8 0.5,2.8 -0.3,-1 -0.5,-1.9 -0.5,-2.8 0,-1.7 0.7,-3.3 2.1,-4.6 1.3,-1.2 2.7,-1.8 4.2,-1.9 1.8,-0.2 3.3,-0.7 4.6,-1.6 0.1,-0.1 0.3,-0.2 0.4,-0.3 0.9,-0.7 2,-1.8 3.3,-3.4 -1.3,1.6 -2.4,2.7 -3.3,3.4 -0.9,1.6 -1.5,3.2 -1.7,4.6 -0.5,3.3 -0.9,5.2 -1.1,5.6 -0.7,1.5 -2,2.5 -3.8,3.1 -0.7,0.3 -1.5,0.6 -2.3,0.7 -0.5,0 -0.9,0.1 -1.4,0.1 -2,0 -3.4,-0.4 -4.3,-1.3 -1,-0.9 -1.6,-2.4 -1.6,-4.4 0,-1.9 1.2,-4.7 3.5,-8.4 2.3,-3.7 3.5,-6.3 3.5,-7.9 0,-0.8 -0.2,-1.7 -0.5,-2.7 -0.6,-1.7 -1.8,-3.6 -3.4,-5.6 -2.9,-3.6 -4.6,-6.7 -5.1,-9.2 m -8.7,-78.3 c 0.6,-0.4 1.2,-0.9 1.8,-1.3 -6.6,-2.2 -11.3,-4 -14.2,-5.4 -4.9,-2.5 -9.1,-6.4 -12.6,-11.7 -0.3,0.6 -0.7,1.2 -1.3,1.7 v 0 c 4.9,7.8 7.8,12.2 8.6,13.3 2.3,2.8 4.9,5 7.9,6.6 3.1,-0.7 6.1,-1.7 9,-2.9 0.3,-0.2 0.5,-0.3 0.8,-0.3 z"
   id="path64"
   style="fill:url(#SVGID_12_);stroke:#000000;stroke-opacity:1" />&#10;				&#10;					<radialGradient
   id="SVGID_13_"
   cx="12"
   cy="323.60001"
   r="266.79999"
   gradientTransform="matrix(1,0,0,-1,97.8,410.3)"
   gradientUnits="userSpaceOnUse">&#10;					<stop
   offset="0"
   style="stop-color:#011B31"
   id="stop65" />&#10;					<stop
   offset="0.1294"
   style="stop-color:#0464A5"
   id="stop66" />&#10;					<stop
   offset="0.3216"
   style="stop-color:#325276"
   id="stop67" />&#10;					<stop
   offset="0.4"
   style="stop-color:#3780C8"
   id="stop68" />&#10;					<stop
   offset="0.9608"
   style="stop-color:#205CE0"
   id="stop69" />&#10;					<stop
   offset="1"
   style="stop-color:#205CE0"
   id="stop70" />&#10;				</radialGradient>&#10;				<path
   class="st13"
   d="m 103.6,82.5 c 0,1 0.1,2.2 0.2,3.4 0,0.1 0,0.2 0.1,0.3 0.2,1.8 0.6,3.7 1.1,5.8 0.4,1.7 0.9,3.1 1.5,4.2 0.6,1.2 1.3,1.9 2,2.3 1.4,0.7 2.3,1.6 2.5,2.9 0.3,1.3 0.2,3.3 -0.3,6.1 -0.5,2.8 0.2,4 1.8,3.8 1.6,-0.2 2.6,0.4 3,1.8 0.1,0.6 0.7,0.9 1.6,0.9 0.7,0 1.7,-0.2 2.9,-0.5 -1.2,0.3 -2.2,0.5 -2.9,0.5 0.1,0.7 0.5,1.2 1.2,1.3 1.5,0.3 2.3,0.6 2.4,0.8 0.3,0.7 0.6,1.2 0.9,1.6 0.3,0.6 0.5,0.9 0.5,0.9 0.6,0.9 1.4,1.4 2.4,1.4 0.9,0 2.3,-0.7 4.3,-2.2 0.6,-0.5 1.3,-1 2,-1.6 0.7,-0.6 1.8,-1.5 3.1,-2.8 0,-0.4 -0.1,-0.8 -0.1,-1.2 0,-0.1 0,-0.1 0,-0.2 0,-0.4 -0.1,-0.7 -0.1,-0.8 0,-0.2 -0.1,-0.9 -0.1,-2.1 0,-1.2 0.2,-2.5 0.5,-4 -0.5,-0.7 -0.7,-1.8 -0.7,-3.3 0,-0.5 0.1,-0.9 0.2,-1.3 -3.2,-1.5 -5.1,-4 -5.6,-7.4 -0.5,0 -1.1,0 -1.7,0 -2.7,0 -5.2,-0.6 -7.6,-1.9 -2.2,-1.2 -3.6,-2.8 -4.3,-4.7 -0.9,-0.4 -1.8,-0.9 -2.8,-1.5 -4.1,-2.4 -6.7,-3.5 -7.8,-3.5 -0.1,0 -0.2,0 -0.3,0 0,0.4 0,0.7 0.1,1 z"
   id="path70"
   style="fill:url(#SVGID_13_);stroke:#000000;stroke-opacity:1" />&#10;				&#10;					<radialGradient
   id="SVGID_14_"
   cx="12"
   cy="323.60001"
   r="64.987503"
   gradientTransform="matrix(1,0,0,-1,93.8,418.45)"
   gradientUnits="userSpaceOnUse">&#10;					<stop
   offset="0"
   style="stop-color:#090D11"
   id="stop71" />&#10;					<stop
   offset="0.1451"
   style="stop-color:#091227"
   id="stop72" />&#10;					<stop
   offset="0.3216"
   style="stop-color:#3751A3"
   id="stop73" />&#10;					<stop
   offset="0.4"
   style="stop-color:#195085"
   id="stop74" />&#10;					<stop
   offset="0.9608"
   style="stop-color:#205CE0"
   id="stop75" />&#10;					<stop
   offset="1"
   style="stop-color:#205CE0"
   id="stop76" />&#10;				</radialGradient>&#10;				<path
   class="st14"
   d="m 96.6,80.5 c 0,2.3 0.4,3.9 1.3,4.9 0.7,0.8 1.9,1.3 3.4,1.3 0.1,0 0.3,0 0.4,0 0.7,0 1.4,-0.2 2.1,-0.5 0,-0.1 -0.1,-0.3 -0.1,-0.3 -0.1,-1.2 -0.2,-2.4 -0.2,-3.4 0,-0.3 0,-0.6 0,-0.8 0.1,0 0.2,0 0.3,0 1.1,0 3.7,1.2 7.8,3.5 1,0.6 1.9,1.1 2.8,1.5 0.7,1.9 2.2,3.5 4.3,4.7 2.3,1.3 4.9,1.9 7.6,1.9 0.6,0 1.1,0 1.7,0 0.8,-0.1 1.5,-0.3 2.1,-0.5 0.6,-0.2 1.2,-0.4 1.8,-0.7 1.1,-0.6 1.9,-1.3 2.4,-2.2 0.2,-0.3 0.3,-0.7 0.4,-1.1 0.1,-0.4 0.1,-0.8 0.1,-1.2 0,-0.1 0,-0.1 0,-0.2 v 0 c 0,-0.4 -0.1,-0.8 -0.2,-1.1 0,0 0,-0.1 0,-0.1 -0.1,-0.2 -0.2,-0.3 -0.3,-0.4 -0.6,-0.3 -1.2,-0.4 -1.8,-0.4 -1,0 -1.9,0.1 -2.8,0.4 -0.2,0.1 -0.4,0.1 -0.6,0.2 -0.7,0.2 -1.4,0.5 -2,0.9 0,0 0,0 0,0 -0.2,0.1 -0.3,0.2 -0.5,0.3 0.1,-0.1 0.3,-0.3 0.4,-0.4 -0.7,-0.8 -1.5,-1.4 -2.6,-2 -0.4,-0.2 -0.8,-0.4 -1.3,-0.7 -1.5,-0.6 -3.4,-1.3 -5.9,-1.8 -1.4,-0.3 -3.7,-1.7 -6.8,-4.1 -1.8,-1.4 -3.5,-2.3 -5,-2.8 -0.9,-0.3 -1.8,-0.4 -2.6,-0.4 -1.6,0 -3,0.4 -4.2,1.3 -1.3,0.9 -2,2.3 -2,4.2 z"
   id="path76"
   style="fill:url(#SVGID_14_);stroke:#000000;stroke-opacity:1" />&#10;				&#10;					<radialGradient
   id="SVGID_15_"
   cx="12"
   cy="323.60001"
   r="91.199997"
   gradientTransform="matrix(1,0,0,-1,99.2,414.35)"
   gradientUnits="userSpaceOnUse">&#10;					<stop
   offset="0"
   style="stop-color:#090D11"
   id="stop77" />&#10;					<stop
   offset="0.1451"
   style="stop-color:#091227"
   id="stop78" />&#10;					<stop
   offset="0.3216"
   style="stop-color:#3751A3"
   id="stop79" />&#10;					<stop
   offset="0.4"
   style="stop-color:#195085"
   id="stop80" />&#10;					<stop
   offset="0.9608"
   style="stop-color:#205CE0"
   id="stop81" />&#10;					<stop
   offset="1"
   style="stop-color:#205CE0"
   id="stop82" />&#10;				</radialGradient>&#10;				<path
   class="st15"
   d="m 120.2,63.6 c -1.5,0.6 -3,1.2 -4.4,2 -4.8,2.5 -8.3,5.8 -10.4,9.8 1.5,0.5 3.2,1.4 5,2.8 3.2,2.4 5.5,3.7 6.8,4.1 2.5,0.6 4.4,1.2 5.9,1.8 0.3,-0.2 0.7,-0.4 1.1,-0.6 1.5,-0.7 3,-0.9 4.5,-0.7 0.9,0.1 1.7,0.3 2.6,0.8 0.5,-0.4 1.1,-0.7 1.8,-1 1.4,-0.6 2.7,-0.9 3.9,-0.9 0.8,0 1.6,0.1 2.3,0.3 0.1,-1.1 0.9,-1.9 2.4,-2.5 0.6,-0.2 1.2,-0.4 1.9,-0.6 l -0.1,-0.2 c -0.4,-1 -0.6,-2.2 -0.6,-3.6 0,-0.8 0.1,-1.5 0.3,-2.1 -0.2,0.1 -0.4,0.2 -0.6,0.3 -1,0.5 -1.8,1.1 -2.5,1.8 -0.7,0.7 -1.5,1.6 -2.2,2.7 -0.7,1 -1.2,1.7 -1.4,1.8 0.2,-0.2 0.7,-0.8 1.4,-1.8 0.7,-1.1 1.5,-2 2.2,-2.7 0.6,-0.6 1.5,-1.2 2.5,-1.8 0.2,-0.1 0.4,-0.2 0.6,-0.3 0.1,-0.4 0.3,-0.8 0.4,-1.1 0,-0.1 0.1,-0.1 0.2,-0.2 l -0.1,-0.3 c -2,-0.4 -4.3,0.5 -6.9,2.7 -3.5,3.1 -7.1,5.2 -10.7,6.3 3.6,-1.1 7.2,-3.2 10.7,-6.3 2.6,-2.2 4.9,-3.1 6.9,-2.7 0,-2 0.6,-3.1 1.7,-3.3 -1.3,-1.8 -2.9,-3.3 -4.8,-4.3 -2.8,-1.6 -6.2,-2.3 -10.3,-2.3 -3.4,0.1 -6.8,0.9 -10.1,2.1 z"
   id="path82"
   style="fill:url(#SVGID_15_);stroke:#000000;stroke-opacity:1" />&#10;				&#10;					<radialGradient
   id="SVGID_16_"
   cx="12"
   cy="323.60001"
   r="64.1875"
   gradientTransform="matrix(1,0,0,-1,120.3,541.8)"
   gradientUnits="userSpaceOnUse">&#10;					<stop
   offset="0"
   style="stop-color:#0A162E"
   id="stop83" />&#10;					<stop
   offset="0.2549"
   style="stop-color:#003275"
   id="stop84" />&#10;					<stop
   offset="0.4"
   style="stop-color:#3780C8"
   id="stop85" />&#10;					<stop
   offset="0.5255"
   style="stop-color:#4BE4F1"
   id="stop86" />&#10;					<stop
   offset="0.651"
   style="stop-color:#4EF3F7"
   id="stop87" />&#10;					<stop
   offset="0.9608"
   style="stop-color:#205CE0"
   id="stop88" />&#10;					<stop
   offset="1"
   style="stop-color:#205CE0"
   id="stop89" />&#10;				</radialGradient>&#10;				<path
   class="st16"
   d="m 162.4,190.1 c 0,-0.1 -0.1,-0.2 -0.2,-0.3 -0.9,-1.2 -1.9,-1.8 -3.3,-1.8 -0.2,0 -0.3,0 -0.5,0.1 -0.2,0.9 -0.4,1.8 -0.4,2.7 0.5,0.3 1.1,0.7 1.6,1.2 0,0 0.1,0.1 0.1,0.1 0.4,0.3 0.7,0.7 1.1,1.1 1.6,1.8 2.7,3.8 3.3,6.2 0,0 0,0.1 0,0.1 0.3,1.3 0.5,2.8 0.5,4.3 -0.2,-0.1 -0.4,-0.2 -0.7,-0.3 0.7,1 1.5,2 2.3,3.2 0.4,0.6 0.9,1.2 1.4,1.8 0,0 0.1,0.1 0.1,0.1 0.8,1.1 1.7,2.3 2.6,3.6 1.5,2 3,3 4.4,3 0.1,0 0.3,0 0.4,0 1.1,-0.2 1.9,-1 2.4,-2.5 0.1,-0.3 0.2,-0.7 0.3,-1 0,-0.2 0.1,-0.3 0.1,-0.5 0.2,-1 0.3,-1.9 0.3,-2.9 0,-2.7 -1,-5.7 -3.1,-8.8 -0.7,-1 -1.5,-2.1 -2.4,-3.1 -2,-2.3 -3.9,-4 -5.8,-5.1 -1.5,-0.7 -3,-1.2 -4.5,-1.2 z"
   id="path89"
   style="fill:url(#SVGID_16_);stroke:#000000;stroke-opacity:1" />&#10;				&#10;					<radialGradient
   id="SVGID_17_"
   cx="12"
   cy="323.60001"
   r="133.53751"
   gradientTransform="matrix(1,0,0,-1,79.8,445.75)"
   gradientUnits="userSpaceOnUse">&#10;					<stop
   offset="0"
   style="stop-color:#090D11"
   id="stop90" />&#10;					<stop
   offset="0.1451"
   style="stop-color:#091227"
   id="stop91" />&#10;					<stop
   offset="0.3216"
   style="stop-color:#5C6AA3"
   id="stop92" />&#10;					<stop
   offset="0.4"
   style="stop-color:#3B5D85"
   id="stop93" />&#10;					<stop
   offset="0.9608"
   style="stop-color:#4572E0"
   id="stop94" />&#10;					<stop
   offset="1"
   style="stop-color:#205CE0"
   id="stop95" />&#10;				</radialGradient>&#10;				<path
   class="st17"
   d="m 176.9,95.9 -0.1,-0.1 c -3,1.2 -6,2.2 -9,2.9 -4.8,1.1 -9.8,1.7 -14.9,1.7 -3.9,0 -7.2,-0.2 -9.8,-0.5 -2,-0.4 -3.7,-0.9 -5.2,-1.5 -0.5,-0.2 -0.9,-0.3 -1.3,-0.5 -0.2,-0.1 -0.3,-0.2 -0.5,-0.3 -2.7,-1.3 -4.7,-2.9 -5.9,-4.8 -0.7,0.2 -1.4,0.4 -2.1,0.5 0.5,3.5 2.4,5.9 5.6,7.4 1.1,0.5 2.3,0.9 3.6,1.2 0.3,0.1 0.5,0.1 0.8,0.2 0,0.3 0,0.5 -0.1,0.8 1,1.1 2.6,2.1 4.7,3 0.5,0.2 1,0.3 1.6,0.5 3.8,1.2 8,1.8 12.4,1.8 4.4,0 9,-1.3 13.7,-3.8 3.5,-1.9 7.4,-4.7 11.8,-8.4 l -0.1,-0.2 c 0.2,-0.1 0.4,-0.2 0.6,-0.3 0,0 0.1,-0.1 0.1,-0.1 0.2,-0.1 0.3,-0.2 0.6,-0.3 2,-1.1 4,-2 6,-2.7 1.4,-0.6 2.9,-0.9 4.4,-1.2 0.3,0 0.6,0 0.9,0 2.2,0 4,0.4 5.3,1.3 1,0.6 1.6,1.5 2,2.5 0.2,0.6 0.3,1.2 0.3,1.8 0,0.3 0,0.6 -0.1,0.9 0.2,-0.3 0.4,-0.7 0.5,-0.9 0.5,-1.6 0.8,-2.9 0.8,-4 0,-2 -0.8,-3.7 -2.3,-5.1 -1.4,-1.3 -3.1,-2 -5,-2 -2.7,0 -5.4,0.8 -8.3,2.4 -1.5,0.9 -4.1,2.7 -7.6,5.4 -0.3,0.3 -0.7,0.5 -1,0.8 -0.6,0.4 -1.2,0.9 -1.8,1.3 -0.2,0.1 -0.3,0.2 -0.6,0.3 z"
   id="path95"
   style="fill:url(#SVGID_17_);stroke:#000000;stroke-opacity:1" />&#10;				&#10;					<radialGradient
   id="SVGID_18_"
   cx="12"
   cy="323.60001"
   r="133.53751"
   gradientTransform="matrix(1,0,0,-1,79.8,445.75)"
   gradientUnits="userSpaceOnUse">&#10;					<stop
   offset="0"
   style="stop-color:#090D11"
   id="stop96" />&#10;					<stop
   offset="0.1451"
   style="stop-color:#091227"
   id="stop97" />&#10;					<stop
   offset="0.3216"
   style="stop-color:#5161A3"
   id="stop98" />&#10;					<stop
   offset="0.4"
   style="stop-color:#2F5885"
   id="stop99" />&#10;					<stop
   offset="0.9608"
   style="stop-color:#205CE0"
   id="stop100" />&#10;					<stop
   offset="1"
   style="stop-color:#205CE0"
   id="stop101" />&#10;				</radialGradient>&#10;				<path
   class="st18"
   d="m 174.9,72 c 1.5,0 2.6,0.4 3.4,1.2 0.7,0.7 1.1,1.8 1.1,3 0,1.1 -0.5,2 -1.5,2.7 -0.9,0.6 -1.9,0.8 -3,0.8 -0.9,0 -1.6,-0.2 -2,-0.6 -0.4,-0.4 -0.6,-1 -0.6,-1.9 -0.4,0.5 -0.7,1.1 -0.7,1.8 0,0.8 0.2,1.4 0.8,1.9 0.5,0.5 1.2,0.8 2,0.8 2.3,0 4.1,-1 5.5,-3.2 1.2,-1.8 1.7,-3.7 1.8,-5.8 0,-2.3 -0.6,-4.1 -1.8,-5.3 -1.3,-1.3 -3,-2 -5.3,-2 -3.7,0 -7.2,1.5 -10.6,4.6 -0.3,0.3 -0.6,0.6 -0.9,0.8 -0.9,0.2 -1.8,0.3 -2.8,0.3 -0.1,0 -0.1,0 -0.2,0 -1.1,0 -2.6,-0.3 -4.4,-0.8 -0.8,-0.2 -1.4,-0.4 -2,-0.5 -0.8,-0.2 -1.4,-0.3 -1.8,-0.3 -0.4,0 -0.7,0 -1.1,0.1 -0.8,0.1 -1.5,0.3 -2.3,0.5 0,0.3 0.1,0.5 0.1,0.8 0,0.6 0,1 -0.1,1.2 0,0.1 -0.1,0.3 -0.1,0.5 0.1,0.3 0.1,0.5 0.1,0.8 0.6,-0.6 1.3,-0.8 2.1,-0.8 1.6,0 2.4,0.9 2.4,2.7 v 0 c 2.2,1 4.4,1.5 6.6,1.5 1.5,0 3.5,-0.5 5.8,-1.6 0.6,-0.3 1.2,-0.6 1.9,-0.9 3.1,-1.5 5.7,-2.3 7.6,-2.3 z"
   id="path101"
   style="fill:url(#SVGID_18_);stroke:#000000;stroke-opacity:1" />&#10;			</g>&#10;		</g>&#10;		<g
   id="g105"
   style="stroke:#000000;stroke-opacity:1">&#10;			&#10;				<radialGradient
   id="SVGID_19_"
   cx="12"
   cy="298.89999"
   r="0.82499999"
   gradientTransform="matrix(1,0,0,-0.9091,170.3,367.3773)"
   gradientUnits="userSpaceOnUse">&#10;				<stop
   offset="0"
   style="stop-color:#FFFFFF"
   id="stop102" />&#10;				<stop
   offset="0.4275"
   style="stop-color:#9BF0F3"
   id="stop103" />&#10;				<stop
   offset="0.6902"
   style="stop-color:#398CCD"
   id="stop104" />&#10;				<stop
   offset="1"
   style="stop-color:#294360"
   id="stop105" />&#10;			</radialGradient>&#10;			<path
   class="st19"
   d="M 182.1,95.8 C 182,95.8 182,95.7 182,95.7"
   id="path105"
   style="stroke:#000000;stroke-opacity:1" />&#10;		</g>&#10;		<g
   id="g107"
   style="stroke:#000000;stroke-opacity:1">&#10;			&#10;				<radialGradient
   id="SVGID_20_"
   cx="12"
   cy="253.65311"
   r="14.5"
   gradientTransform="matrix(1,0,0,-0.7793,153.35,285.5745)"
   gradientUnits="userSpaceOnUse">&#10;				<stop
   offset="0"
   style="stop-color:#FFFFFF"
   id="stop106" />&#10;				<stop
   offset="1"
   style="stop-color:#9BF0F3"
   id="stop107" />&#10;			</radialGradient>&#10;			<path
   class="st20"
   d="m 176.9,95.8 c 0.2,-0.1 0.4,-0.2 0.7,-0.3"
   id="path107"
   style="stroke:#000000;stroke-opacity:1" />&#10;		</g>&#10;		<g
   id="g111"
   style="stroke:#000000;stroke-opacity:1">&#10;			&#10;				<radialGradient
   id="SVGID_21_"
   cx="12"
   cy="359.52039"
   r="83.737503"
   gradientTransform="matrix(1,0,0,-1.1702,183.2,527.0516)"
   gradientUnits="userSpaceOnUse">&#10;				<stop
   offset="0"
   style="stop-color:#FFFFFF"
   id="stop108" />&#10;				<stop
   offset="0.4275"
   style="stop-color:#9BF0F3"
   id="stop109" />&#10;				<stop
   offset="0.6902"
   style="stop-color:#398CCD"
   id="stop110" />&#10;				<stop
   offset="1"
   style="stop-color:#294360"
   id="stop111" />&#10;			</radialGradient>&#10;			<path
   class="st21"
   d="m 137.3,101.9 c 0.3,0.1 0.5,0.1 0.8,0.2 0,0.3 0,0.5 -0.1,0.8 m 44.1,-7 v 0 m -44.1,6.9 c -0.3,-0.3 -0.6,-0.6 -0.8,-0.9"
   id="path111"
   style="stroke:#000000;stroke-opacity:1" />&#10;		</g>&#10;		<g
   id="g115"
   style="stroke:#000000;stroke-opacity:1">&#10;			&#10;				<radialGradient
   id="SVGID_22_"
   cx="12"
   cy="347.38519"
   r="42.700001"
   gradientTransform="matrix(1,0,0,-1.1066,138.75,450.5016)"
   gradientUnits="userSpaceOnUse">&#10;				<stop
   offset="0"
   style="stop-color:#FFFFFF"
   id="stop112" />&#10;				<stop
   offset="0.4275"
   style="stop-color:#9BF0F3"
   id="stop113" />&#10;				<stop
   offset="0.6902"
   style="stop-color:#398CCD"
   id="stop114" />&#10;				<stop
   offset="1"
   style="stop-color:#294360"
   id="stop115" />&#10;			</radialGradient>&#10;			<path
   class="st22"
   d="m 152.6,77.1 c 3.5,5.3 7.7,9.2 12.6,11.7 2.9,1.5 7.6,3.3 14.2,5.4 m -74,-18.9 c 2.1,-4 5.6,-7.2 10.4,-9.8 1.4,-0.8 2.9,-1.4 4.4,-2 3.3,-1.2 6.7,-2 10.3,-2.3 4.1,-0.1 7.5,0.7 10.3,2.3 1.9,1.1 3.4,2.5 4.8,4.3 m 5.8,11 c 4.9,7.8 7.8,12.2 8.6,13.3 2.3,2.8 4.9,5 7.9,6.6"
   id="path115"
   style="stroke:#000000;stroke-opacity:1" />&#10;		</g>&#10;		<g
   id="g117"
   style="stroke:#000000;stroke-opacity:1">&#10;			&#10;				<radialGradient
   id="SVGID_23_"
   cx="12"
   cy="390.2562"
   r="92.125"
   gradientTransform="matrix(1,0,0,-1.3696,138.55,721.4974)"
   gradientUnits="userSpaceOnUse">&#10;				<stop
   offset="0"
   style="stop-color:#FFFFFF"
   id="stop116" />&#10;				<stop
   offset="1"
   style="stop-color:#9BF0F3"
   id="stop117" />&#10;			</radialGradient>&#10;			<path
   class="st23"
   d="m 182.6,95.4 c -0.2,0.2 -0.4,0.3 -0.5,0.4"
   id="path117"
   style="stroke:#000000;stroke-opacity:1" />&#10;		</g>&#10;		<g
   id="g121"
   style="stroke:#000000;stroke-opacity:1">&#10;			&#10;				<radialGradient
   id="SVGID_24_"
   cx="12"
   cy="365.11411"
   r="86.25"
   gradientTransform="matrix(1,0,0,-1.202,230.4,622.0277)"
   gradientUnits="userSpaceOnUse">&#10;				<stop
   offset="0"
   style="stop-color:#FFFFFF"
   id="stop118" />&#10;				<stop
   offset="0.4275"
   style="stop-color:#9BF0F3"
   id="stop119" />&#10;				<stop
   offset="0.6902"
   style="stop-color:#398CCD"
   id="stop120" />&#10;				<stop
   offset="1"
   style="stop-color:#294360"
   id="stop121" />&#10;			</radialGradient>&#10;			<path
   class="st24"
   d="m 219.3,203.1 c 0.1,-0.1 0.2,-0.3 0.4,-0.4 0.1,0.4 0.1,0.6 0.1,0.8 0,0.8 -0.2,1.5 -0.5,2.2 -0.5,1 -1.4,1.8 -2.8,2.4 -1.7,0.8 -3.5,1.2 -5.5,1.3 -1.2,0 -2.2,-0.3 -3,-1 -0.1,-0.1 -0.3,-0.2 -0.3,-0.3 0.1,0.5 0.1,1 0.1,1.6 0,2.9 -1,5.2 -3,7 -2.1,1.8 -4.8,2.7 -8.1,2.8 -3.3,0 -6,-0.9 -8.1,-2.8 -1.4,-1.2 -2.4,-2.8 -3.1,-4.6 -0.7,0.3 -1.7,0.4 -2.9,0.4 -1.5,0 -2.8,-0.2 -3.9,-0.7 M 145.9,110.6 c 1,1.1 2.2,2.2 3.5,3 5,3.4 11.2,5 18.6,4.7 3.5,-0.1 8.5,-1.1 15.1,-2.9 0.6,-0.2 1.2,-0.3 1.8,-0.4 5.8,-1.5 10.9,-2.3 15.4,-2.5 5.3,-0.2 9.7,1 13.3,3.7 0.1,0.1 0.2,0.2 0.3,0.3 1.3,1 2.4,2.2 3.3,3.5 m -50.5,3.8 c 4.6,1.3 9.4,1.1 14.6,-0.7 1.2,-0.4 2.4,-0.8 3.6,-1 7,-1.4 13.1,0.3 18.4,5.2 1.5,1.3 2.5,2.9 2.9,4.8 0.8,3.2 0.2,6.1 -1.7,8.6 m 12.6,-20.8 c 2.1,3.1 3.1,7 2.9,11.8 m -19.6,14.2 c -2.9,1.3 -5.9,2.2 -9.1,2.5 -2.3,0.2 -4.5,0.8 -6.6,1.7 -0.8,0.4 -1.6,0.8 -2.4,1.3 -2.5,1.4 -4.3,3.3 -5.4,5.9 -0.9,2.2 -1.4,4.4 -1.4,6.7 0,3.1 1.1,5.9 3.1,8.2 1,1.1 2,2.1 3.1,2.9 1,0.7 1.9,1.5 2.7,2.4 0.1,0.1 0.2,0.2 0.3,0.3 0.7,0.7 1.1,1.6 1.4,2.5 0.6,1 0.9,2.1 0.9,3.3 0,1.5 -0.7,3 -2.1,4.6 -0.1,0.1 -0.2,0.2 -0.3,0.4 -0.7,0.7 -2.1,2 -4.2,3.9 -2.6,2.4 -4.5,4.9 -5.6,7.4 m 11.5,-26 c 0.5,2.5 2.2,5.5 5.1,9.2 1.7,2.1 2.8,4 3.4,5.6 0.3,1 0.5,1.9 0.5,2.7 0,1.6 -1.2,4.3 -3.5,7.9 -2.3,3.7 -3.5,6.5 -3.5,8.4 0,2 0.5,3.5 1.6,4.4 0.9,0.8 2.4,1.3 4.3,1.3 0.5,0 0.9,0 1.4,-0.1 0.8,-0.1 1.6,-0.4 2.3,-0.7 0.3,-0.1 0.6,-0.3 0.9,-0.5 1.3,-0.9 2,-2 2,-3.4 0,-0.8 -0.1,-1.4 -0.4,-1.9 -0.3,-0.5 -0.8,-0.8 -1.4,-0.8 -0.7,0 -1.3,0.3 -1.6,0.8 -0.3,0.4 -0.5,1 -0.5,1.8 0,0.3 0.1,0.6 0.3,0.9 0.2,0.3 0.6,0.6 1.2,0.7 M 211.8,158 c 0.9,-0.4 2,-0.8 3.1,-1.3 1.8,-0.7 3.9,-1.5 6.2,-2.3 0.9,-0.4 1.8,-0.7 2.8,-1.1 m -12.4,4.8 c -0.2,0.1 -0.4,0.2 -0.6,0.3 -0.3,0.1 -0.6,0.2 -0.8,0.3 -7.6,3.4 -11.4,7.2 -11.4,11.3 0,3.4 1.3,6.7 4,9.9 m 9,-21.4 c 0,-0.2 0,-0.3 0.1,-0.5 -0.1,0 -0.2,0 -0.3,0.1 m 0.2,0.4 c 0,0.5 0,1 0.1,1.4 m 0.4,32.5 c -2,2.8 -3.5,5.3 -4.3,7.5 -0.8,2 -1.2,3.8 -1.2,5.6 0,0.1 0,0.1 0,0.1 0,0.9 0.3,1.7 0.9,2.4 m -13.8,2.4 c -0.3,-1 -0.5,-1.9 -0.5,-2.8 0,-1.7 0.7,-3.3 2.1,-4.6 1.3,-1.2 2.7,-1.8 4.2,-1.9 1.8,-0.2 3.3,-0.7 4.6,-1.6 0.1,-0.1 0.3,-0.2 0.4,-0.3 0.9,-0.7 2,-1.8 3.3,-3.4 m -3.4,3.6 c -0.9,1.6 -1.5,3.2 -1.7,4.6 -0.5,3.3 -0.9,5.2 -1.1,5.6 -0.7,1.5 -2,2.5 -3.8,3.1 m -13.1,-7.2 c 0,0.4 -0.1,1 -0.1,1.6 0,1.8 0.2,3.4 0.7,4.9"
   id="path121"
   style="stroke:#000000;stroke-opacity:1" />&#10;		</g>&#10;		<g
   id="g124"
   style="display:inline;stroke:#000000;stroke-opacity:1">&#10;			&#10;				<radialGradient
   id="SVGID_25_"
   cx="12"
   cy="337.0513"
   r="138.89999"
   gradientTransform="matrix(1,0,0,-1.0576,241.2,536.8139)"
   gradientUnits="userSpaceOnUse">&#10;				<stop
   offset="0"
   style="stop-color:#FFFFFF"
   id="stop122" />&#10;				<stop
   offset="0.8471"
   style="stop-color:#9BF0F3"
   id="stop123" />&#10;				<stop
   offset="1"
   style="stop-color:#9BF0F3"
   id="stop124" />&#10;			</radialGradient>&#10;			<path
   class="st25"
   d="m 205.7,108.9 v 0 m 22.5,16.4 c 1.1,0.3 2.2,0.6 3.2,1 2.2,0.8 4,1.7 5.4,2.7 2.4,1.6 4,3.7 4.8,6.1 0.4,1.2 0.6,2.6 0.6,4 0,1.1 -0.2,2.2 -0.6,3.2 -0.7,1.8 -2.1,3.3 -4.2,4.7 -0.4,0.2 -1,0.6 -1.8,1 -1.8,0.9 -4.7,2.2 -8.7,3.9 -1,0.4 -2,0.9 -3,1.4 m -7.6,11.3 c 0.1,0.1 0.3,0.1 0.4,0.1 1,0.3 2.3,0.6 3.8,1 0.2,0 0.5,0.1 0.7,0.1 3.2,0.8 5.9,2.2 8.1,4.2 1.5,1.4 2.6,2.9 3.4,4.6 0.7,1.7 1.1,3.6 1.1,5.6 0,3.5 -0.9,6.3 -2.6,8.5 -0.2,0.3 -0.5,0.6 -0.8,0.9 -1.5,1.6 -3.9,2.9 -7.2,4.1 -2.1,0.8 -3.7,1.4 -4.9,1.9 -1.1,0.5 -1.9,0.8 -2.3,1.1 -2.2,1.4 -3.3,3.4 -3.3,5.9 0,1 0.5,1.7 1.5,2.3 0.7,0.3 1.4,0.5 2.1,0.5 0.6,0 1.2,-0.4 2,-1.2 0.3,-0.3 0.6,-0.7 0.9,-1.1 m -48.9,9.3 c 1.6,2.1 3.3,4.5 5.2,7.1 2.8,3.8 5.3,7.3 7.4,10.5 2.1,3.3 3.8,6.3 5.1,8.9 0.4,0.9 1,1.8 1.6,2.7 1.4,2.1 3.2,4 5.5,5.8 2.4,1.9 5.9,4 10.6,6.5 4.3,2.3 7.6,4.2 9.9,5.9 4.9,3.6 7.3,6.8 7.3,9.6 0,3.2 -2.8,4.8 -8.3,4.8 -2.3,0 -4,-0.8 -5.3,-2.5 -1,-1.4 -1.5,-3.1 -1.5,-5.3 0,-1.7 0.5,-2.9 1.6,-3.5 0.3,-0.2 0.8,-0.4 1.3,-0.5 -2.7,0.2 -5.3,1.3 -7.7,3.1 -0.7,0.5 -3.2,2.8 -7.5,6.9 -3.2,3.1 -6.4,5.4 -9.5,6.9 -4.4,2.1 -9.5,3.1 -15.3,3.1 -3.5,0 -7.2,-0.4 -11.1,-1.2 m -33.1,-13.7 c -0.3,-0.2 -0.6,-0.3 -0.9,-0.4 -3.8,-1.9 -6.5,-2.9 -8,-2.9 -4.2,0 -9.2,2.4 -14.8,7.3 -2.9,2.5 -5,4.2 -6.3,5 -2.4,1.5 -4.7,2.3 -7,2.3 -5.7,0 -12.1,-2.1 -19.1,-6.3 C 62.8,267.9 59,263 59,257.9 c 0,-7.3 5.9,-12.1 17.7,-14.3 3.5,-0.7 8,-1.2 13.3,-1.5 5.2,-0.3 8.1,-0.5 8.7,-0.6 9.2,-2.1 15.8,-5.8 19.8,-11.2 3.3,-4.5 5,-10.6 5,-18.1 v -0.1 m -0.6,-0.7 c -0.1,-0.2 -0.2,-0.3 -0.3,-0.5 m -2.4,-7.8 c -0.1,-0.3 -0.1,-0.6 -0.1,-0.8 0,-0.6 0.1,-1.2 0.3,-1.8 m 2.1,-3.6 c -0.1,-1.5 -0.1,-3.1 -0.1,-5 -4.7,2.7 -8.7,4 -12,4 -2.3,0 -3.9,-1.9 -4.7,-5.6 -2.2,-4 -3.8,-7.7 -4.6,-10.9 -0.4,-1.7 -0.8,-4.5 -1,-8.2 -0.2,-3.1 -0.3,-6.8 -0.3,-11.2 0,-3.6 0.2,-9 0.5,-16.4 -0.1,-3.9 -0.1,-6.8 0.1,-8.6 0,-0.6 0.1,-1.2 0.3,-1.8 0.2,-0.9 0.4,-1.8 0.8,-2.4 0.2,-0.4 0.4,-0.8 0.6,-1.1 0.3,-0.5 0.7,-0.9 1.1,-1.4 1.7,-1.9 4.3,-4 7.9,-6.2 4,-2.4 7.4,-3.8 10.3,-4.3 -0.2,-0.4 -0.5,-0.9 -0.9,-1.6 -0.1,-0.2 -0.9,-0.5 -2.4,-0.8 -0.7,-0.1 -1.1,-0.6 -1.2,-1.3 -0.9,0 -1.4,-0.3 -1.6,-0.9 -0.4,-1.5 -1.4,-2.1 -3,-1.8 -1.6,0.3 -2.2,-1 -1.8,-3.8 0.4,-2.8 0.5,-4.8 0.3,-6.1 -0.3,-1.3 -1.2,-2.2 -2.5,-2.9 -0.7,-0.4 -1.4,-1.1 -2,-2.3 -0.5,-1.1 -1,-2.5 -1.5,-4.2 -0.5,-2.1 -0.9,-4 -1.1,-5.8 m 122.5,38.5 c 0.7,0.2 1.4,0.3 2,0.5 m -61.3,1.8 0.8,1.2 c 0.1,0.1 0.1,0.3 0.2,0.4 1.4,2.6 2.1,6.4 2.1,11.4 0,8 -2,17.9 -6,29.7 v 0.1 0.1 0.1 m 2.7,-46.3 c -1.5,0 -3.1,-0.2 -4.6,-0.5 2,0.9 3.6,2.2 4.8,3.8 m -4.8,-3.8 c -1.9,-0.4 -3.8,-1 -5.8,-1.9 -5.6,-2.5 -9.1,-6.2 -10.5,-10.8 -1.3,-1.4 -2.4,-3 -3.2,-4.8 m 15.8,82.4 c 0.3,-1.6 0.7,-3.4 1.2,-5.2 0.5,-2 1.9,-6.3 4.2,-12.9 0,-0.1 0.1,-0.2 0.1,-0.3 v 0 c -2,-0.7 -3.4,-1.5 -4.2,-2.5 -0.3,-0.3 -1.9,-2.1 -4.9,-5.1 l -2.1,-2.1 c -0.4,0.6 -0.7,1.1 -0.9,1.6 -1.1,1.8 -1.8,2.9 -2,3.3 -3.4,5.3 -7,9.8 -10.6,13.4 -4.9,5 -9.9,9.1 -14.8,12.2 -0.7,0.5 -1.4,0.9 -2,1.3 m 41.5,-22 v 0 c -0.1,-0.1 0,-0.1 0,-0.1 M 103.6,81.7 v 0.8 c 0,1 0.1,2.2 0.2,3.4 m 39.5,-13.1 -0.6,0.3 c -1,0.5 -1.8,1.1 -2.5,1.8 -0.7,0.7 -1.5,1.6 -2.2,2.7 -0.7,1 -1.2,1.7 -1.4,1.8 m 7.2,-8.1 c -2,-0.4 -4.3,0.5 -6.9,2.7 -3.5,3.1 -7.1,5.2 -10.7,6.3 m 10.7,45.6 v 0 c 0.1,0.2 0.1,0.4 0.1,0.5 0,0.6 -0.5,1 -1.6,1 -0.1,0 -0.3,0 -0.4,-0.1 m 9.6,9.3 c 0.1,-0.2 0.1,-0.3 0.3,-0.5 0.6,-1 1.1,-2 1.8,-3.1 4.3,-6.3 8.4,-9.5 12.4,-9.5 3.5,0 6.1,1.2 7.9,3.5 m -38.2,-9.2 c 0.6,-0.5 1.3,-1 2,-1.6 0.7,-0.6 1.8,-1.5 3.1,-2.8 m -1.6,8 c 0.4,-0.1 0.7,-0.2 0.9,-0.3 0.1,-0.1 0.1,-0.4 0.1,-0.9 0,-1 -1.3,-1.8 -3.8,-2.3 -0.3,-0.1 -0.5,-0.1 -0.8,-0.2 -1.9,1.5 -3.3,2.2 -4.3,2.2 -1,0 -1.8,-0.5 -2.4,-1.4 0,-0.1 -0.2,-0.4 -0.5,-0.9 m -3.6,4.7 c 1,-0.5 3,-1 6,-1.4 3,-0.4 4.8,-0.6 5.4,-0.6 0.6,0 1.6,0.4 3,1.2 0.6,0.4 1.2,0.9 1.8,1.6 0.9,0.8 1.6,1.5 2.1,2.1 l 0.4,0.4 m 0.3,0.3 v 0 0 m -5.2,-0.1 c 0.1,0 0.3,0.1 0.4,0.1 0.9,0.2 1.5,0.7 1.9,1.4 0,-0.1 -0.1,-0.1 -0.1,-0.2 h 0.3 c 0.2,0 0.3,0.1 0.4,0.1 h 0.4 m -1,0.1 c 0,0.1 0.1,0.2 0.1,0.3 0.2,-0.1 0.4,-0.2 0.5,-0.3 m -0.5,0.3 c 0.1,0.2 0.1,0.4 0.1,0.7 0,0.5 -0.1,0.8 -0.3,0.9 -0.2,0.1 -1.3,0.1 -3.3,-0.1 -0.5,0.3 -1,0.5 -1.4,0.8 -1.9,1.1 -3.5,2.3 -4.8,3.4 -1.2,1 -2.1,2.1 -2.8,3.2 -0.8,1.2 -1.3,2.6 -1.8,4.1 -0.3,0.9 -0.6,2.5 -1,4.7 -0.1,0.2 -0.4,2.3 -1,6.2 -0.2,1.1 -0.4,2.1 -0.6,3.1 M 134,127.3 c 0.1,0 0.1,-0.1 0.2,-0.1 m 2.4,-1.8 c 0.1,0.2 0.3,0.4 0.3,0.6 m -11.7,-1.2 0.1,-0.1 c 2,-0.5 3.1,-0.8 3.3,-0.8 0.8,0 1.8,0.6 3.1,1.9 -1.3,-0.3 -2.9,-0.6 -4.7,-0.9 -0.6,-0.1 -1.2,-0.1 -1.8,-0.1 -1.6,-0.1 -3.3,0.1 -5.3,0.4 m 10.7,3.8 c -0.5,-0.1 -1.1,-0.2 -1.8,-0.3 -3.2,-0.4 -6.5,0.4 -10,2.5 -1.3,0.8 -2.5,1.4 -3.5,1.9 -1.6,0.9 -2.7,1.3 -3.3,1.4 -0.9,0.1 -1.9,0.2 -2.8,0.2 -0.2,0.5 -0.4,1.5 -0.7,2.9 -0.3,1.9 -0.5,3.1 -0.5,3.7 0,3 1.7,9.4 5.3,19.2 l 0.6,1.5 m 22.9,-12.6 c 0.9,-1.2 1.4,-1.9 1.5,-2.1 1.2,-1.7 3.3,-5.2 6.3,-10.6 m -27.5,-22.6 c 0.7,0 1.7,-0.2 2.9,-0.5 m -6,48.5 c 1.2,3.4 2.2,6.4 2.9,9.1 0.5,2 0.9,3.7 1.3,5.3 1.1,-1.7 2.2,-3.4 3.3,-5.3 1.6,-2.4 3.3,-4.9 5.2,-7.6 3.7,-5.1 6.5,-9.1 8.4,-11.8 0.7,-1 1.2,-1.8 1.7,-2.5 m -20.4,30.1 c 0.6,-1 1.1,-1.9 1.8,-2.9 m 34.6,-16.4 c 0.3,-0.5 0.6,-1 0.9,-1.6 2,-1.7 3.9,-2.8 5.8,-3.4 m -67.8,98.5 c 17.5,1.4 32.5,-3.9 44.9,-15.8 5.2,-5 9.5,-10.8 12.8,-17.3 2.5,-4.9 4.2,-9.8 5.1,-14.6 m 5.5,-2.1 c -2.7,12.5 -6.3,22.4 -10.8,29.7 -6.4,10.5 -15.7,18.6 -28.1,24.1 M 77.7,248.4 H 82 c 3,0.3 5.1,0.5 6.4,0.5 12.3,0 23.3,-2.6 32.9,-7.9 10.4,-5.7 17.7,-13.8 21.8,-24.3 M 129.4,269 c -1.1,-0.6 -2.1,-1.1 -2.9,-1.5 m 13,6.6 c -0.6,-0.3 -1.1,-0.5 -1.6,-0.8 -3.4,-1.8 -6.3,-3.2 -8.5,-4.4 m 10.1,5.2 c 0.7,0.1 1.3,0.2 1.9,0.3 1.5,0.1 3.7,0.2 6.6,0.4 2.5,0.1 4,0.1 4.4,0.1 2.2,0 4.3,-0.1 6.3,-0.4 6.9,-0.9 12.5,-3.2 16.8,-7.1 6,-5.5 9,-13.9 9,-25.3 0,-4.3 -0.5,-8.4 -1.6,-12.2 m -62.2,32.5 c 6.3,0.5 12.1,-0.2 17.4,-2.2 5.3,-2 10.2,-5.3 14.6,-9.8 2.6,-2.7 4.7,-5.5 6.4,-8.5 1.4,-2.5 2.4,-5.2 3.1,-7.9 0.7,-2.6 1.1,-5.7 1.3,-9.3 0.1,-2.3 0.1,-4.8 -0.1,-7.5 m -3.6,64 c -6.3,-1.3 -13.1,-3.6 -20.3,-7.1 m 21.4,-70.5 c 5.7,5.8 8.5,15.3 8.5,28.6 0,5.3 -0.6,10.7 -1.8,16.2 -1.5,7.1 -3.7,12 -6.4,14.5 m 28.4,-21.3 c 1.9,5.5 2.7,11.3 2.4,17.4 -0.2,4.7 -1,9.2 -2.6,13.7"
   id="path124"
   style="stroke:#000000;stroke-opacity:1"
   sodipodi:nodetypes="cccccssccsccccccccscccccscsscccccscccsscscccccscccsccscsccccsccccscccscccsccccccccccccssccccccccccsccccccccccccccsscscccccccsccsccssccccccsssccccsccscccsccscccsscccccccccccsscccccssccccscccccccccscscccccccccsccccccccccccccccccccccccccccsccccccccccsccsccsccccccccsccccc" />&#10;		</g>&#10;		<g
   id="g128"
   style="stroke:#000000;stroke-opacity:1">&#10;			&#10;				<radialGradient
   id="SVGID_26_"
   cx="12"
   cy="371.29449"
   r="50.25"
   gradientTransform="matrix(1,0,0,-1.2393,180.45,617.7466)"
   gradientUnits="userSpaceOnUse">&#10;				<stop
   offset="0"
   style="stop-color:#FFFFFF"
   id="stop125" />&#10;				<stop
   offset="0.4275"
   style="stop-color:#9BF0F3"
   id="stop126" />&#10;				<stop
   offset="0.6902"
   style="stop-color:#398CCD"
   id="stop127" />&#10;				<stop
   offset="1"
   style="stop-color:#294360"
   id="stop128" />&#10;			</radialGradient>&#10;			<path
   class="st26"
   d="m 217.1,119.9 c 5.8,3.1 8.6,8.6 8.6,16.5 0,3.7 -1.2,7 -3.5,9.8 -2.3,2.7 -6.4,5.9 -12.5,9.5 m -4,-46.8 c -2.8,0 -6.9,0.4 -12.1,1.3 -0.4,0.1 -0.7,0.1 -1,0.2 -3.3,0.5 -5.9,0.8 -7.8,0.9 -0.9,0.1 -1.6,0.1 -2.2,0.1 -4.6,0 -8.8,-1 -12.5,-2.9 m 41.7,51.4 c 0.2,1.1 0.7,2.1 1.4,2.9 0.7,0.8 1.8,1.4 3.1,1.9"
   id="path128"
   style="stroke:#000000;stroke-opacity:1" />&#10;		</g>&#10;		<g
   id="g131"
   style="stroke:#000000;stroke-opacity:1">&#10;			&#10;				<radialGradient
   id="SVGID_27_"
   cx="12"
   cy="371.29449"
   r="50.25"
   gradientTransform="matrix(1,0,0,-1.2393,180.45,617.7466)"
   gradientUnits="userSpaceOnUse">&#10;				<stop
   offset="0"
   style="stop-color:#FFFFFF"
   id="stop129" />&#10;				<stop
   offset="0.8471"
   style="stop-color:#9BF0F3"
   id="stop130" />&#10;				<stop
   offset="1"
   style="stop-color:#9BF0F3"
   id="stop131" />&#10;			</radialGradient>&#10;			<path
   class="st27"
   d="m 166.7,123.8 c 4.3,0.1 8.6,-1.1 12.9,-3.4 1.7,-0.9 3.4,-1.6 5.2,-2.1 3.3,-0.9 6.7,-1 10.1,-0.2 m -31,51.8 c 0,7.5 3.7,11.7 11.1,12.7 1.9,0.3 4.6,0.6 8.2,0.9 0.1,0 0.1,0 0.2,0.1 0.5,0.1 1,0.2 1.4,0.3 0.5,0.1 0.9,0.3 1.3,0.5"
   id="path131"
   style="stroke:#000000;stroke-opacity:1" />&#10;		</g>&#10;		<g
   id="g134"
   style="stroke:#000000;stroke-opacity:1">&#10;			&#10;				<radialGradient
   id="SVGID_28_"
   cx="12"
   cy="332.4071"
   r="14.875"
   gradientTransform="matrix(1,0,0,-1.037,160.8,529.4978)"
   gradientUnits="userSpaceOnUse">&#10;				<stop
   offset="0"
   style="stop-color:#FFFFFF"
   id="stop132" />&#10;				<stop
   offset="0.8471"
   style="stop-color:#9BF0F3"
   id="stop133" />&#10;				<stop
   offset="1"
   style="stop-color:#9BF0F3"
   id="stop134" />&#10;			</radialGradient>&#10;			<path
   class="st28"
   d="m 166.9,191.6 c 1.5,-2 3.7,-3.6 6.6,-4.9 1.6,-0.7 4.2,-1.5 7.9,-2.6 0.7,-0.2 1.4,-0.4 2,-0.6"
   id="path134"
   style="stroke:#000000;stroke-opacity:1" />&#10;		</g>&#10;		<g
   id="g136"
   style="stroke:#000000;stroke-opacity:1">&#10;			&#10;				<radialGradient
   id="SVGID_29_"
   cx="12"
   cy="331.3111"
   r="48.875"
   gradientTransform="matrix(1,0,0,-1.0322,173.05,527.8376)"
   gradientUnits="userSpaceOnUse">&#10;				<stop
   offset="0"
   style="stop-color:#FFFFFF"
   id="stop135" />&#10;				<stop
   offset="1"
   style="stop-color:#9BF0F3"
   id="stop136" />&#10;			</radialGradient>&#10;			<path
   class="st29"
   d="m 123.5,212.1 c -0.2,-0.2 -0.4,-0.5 -0.6,-0.7 m -0.3,-0.5 c -1.3,-1.8 -2,-3.8 -2.3,-6 0,-0.4 -0.1,-0.7 -0.1,-1.1 0,-0.2 -0.1,-0.4 -0.1,-0.7 m 0.2,-2.6 c 0.3,-1.3 1.1,-2.5 2.2,-3.6 m 35.9,-8.7 c 0.2,0 0.3,-0.1 0.5,-0.1 1.3,0 2.4,0.6 3.3,1.8 0.1,0.1 0.1,0.2 0.2,0.3 v 0 m -39.9,6.7 c 0.2,-0.2 0.3,-0.3 0.6,-0.5 2.1,-1.9 5.4,-3.5 9.8,-4.8 6,-1.8 11.8,-2.8 17.3,-2.8 2.2,0 4.2,0.4 6,1.1 0.6,0.3 1.3,0.6 1.9,0.9 0.1,-0.9 0.3,-1.8 0.4,-2.7 m 1.1,4 c 0,0 0.1,0.1 0.1,0.1 -0.1,0 -0.1,-0.1 -0.1,-0.1 m 0.1,0.1 c 0.4,0.3 0.7,0.7 1.1,1.1 1.6,1.8 2.7,3.8 3.3,6.2 0,0 0,0.1 0,0.1 0.3,1.3 0.5,2.8 0.5,4.3 -0.2,-0.1 -0.4,-0.2 -0.7,-0.3 0.7,1 1.5,2 2.3,3.2 0.4,0.6 0.9,1.2 1.4,1.8 0,0 0.1,0.1 0.1,0.1 0.8,1.1 1.7,2.3 2.6,3.6 m -10.7,-20.2 c -0.5,-0.4 -1,-0.8 -1.6,-1.2 m -34.1,8.2 c 6.9,-3 12.6,-4.9 17.3,-5.9 4,-0.9 8.8,-1.3 14.4,-1.3 1.4,0 2.6,0.1 3.9,0.3 m 4.4,7.4 c -0.4,-0.1 -2,-0.2 -4.8,-0.2 -3.2,0 -5.9,0.2 -8.3,0.8 -3.4,0.7 -7.8,2.2 -13,4.5 m 16.6,1.2 c -2,0.9 -4.4,2.1 -7.1,3.4 -4.9,2.5 -8.9,4.2 -12,5.2 -1.9,0.6 -3.5,0.8 -4.8,0.8 -2.8,0 -5.1,-1.1 -7,-3.3 m 37.4,-8.4 c -0.3,0 -0.6,0.1 -0.9,0.3 -0.5,0.1 -1,0.3 -1.6,0.5 -0.5,0.1 -0.9,0.3 -1.4,0.6 -0.8,0.3 -1.7,0.7 -2.6,1.1 m -2.7,-10 c -5.2,0.3 -10.3,1.4 -15.3,3.3 -1.3,0.5 -2.5,0.9 -3.8,1.4 m -9.5,10.3 c -0.2,-0.1 -0.3,-0.2 -0.5,-0.3 m 1,1.3 c 0,0 -0.1,0 0,0 m 15.6,-4.7 c -3.1,1.5 -5.2,2.6 -6.4,3.2 -2.1,1 -3.9,1.5 -5.2,1.5 -1.6,0 -3.1,-0.3 -4.5,-1 m -2.9,-8 c 0,-1 0.1,-1.9 0.2,-2.6 m 43.5,3.1 c -0.5,-0.2 -1.2,-0.3 -1.9,-0.3 -0.3,0 -0.7,0.1 -1.1,0.2 m 3.2,-3.9 c -0.1,0 -0.1,-0.1 -0.2,-0.1"
   id="path136"
   style="stroke:#000000;stroke-opacity:1" />&#10;		</g>&#10;		<g
   id="g137"
   style="stroke:#000000;stroke-opacity:1">&#10;			<path
   class="st30"
   d="m 223.9,153.3 c -1,0.5 -1.8,0.9 -2.6,1.4 -0.6,0.7 -1.2,1.3 -1.8,2 -0.8,1 -1.5,2.1 -2,3.2 -0.7,1.5 -1.1,3.1 -1.3,4.7 M 151.4,78.8 v 0"
   id="path137"
   style="stroke:#000000;stroke-opacity:1" />&#10;		</g>&#10;		<g
   id="g139"
   style="stroke:#000000;stroke-opacity:1">&#10;			&#10;				<radialGradient
   id="SVGID_30_"
   cx="12"
   cy="147.24969"
   r="19.325001"
   gradientTransform="matrix(1,0,0,-0.5834,137,175.5115)"
   gradientUnits="userSpaceOnUse">&#10;				<stop
   offset="0"
   style="stop-color:#FFFFFF"
   id="stop137" />&#10;				<stop
   offset="0.8471"
   style="stop-color:#9BF0F3"
   id="stop138" />&#10;				<stop
   offset="1"
   style="stop-color:#9BF0F3"
   id="stop139" />&#10;			</radialGradient>&#10;			<path
   class="st31"
   d="m 136.1,97.7 c 0.3,-0.9 0.4,-1.5 0.4,-2 0,-0.4 -0.2,-1 -0.6,-1.9 -0.4,-0.7 -0.7,-1.3 -1.1,-1.8 m 4.1,-2.1 c 0.6,0.6 0.8,1.6 0.8,3.2 0,0.6 -0.1,1.4 -0.4,2.3 -0.3,1.2 -0.8,2.2 -1.4,3"
   id="path139"
   style="stroke:#000000;stroke-opacity:1" />&#10;		</g>&#10;		<g
   id="g141"
   style="stroke:#000000;stroke-opacity:1">&#10;			&#10;				<radialGradient
   id="SVGID_31_"
   cx="12"
   cy="333.89169"
   r="0.57499999"
   gradientTransform="matrix(1,0,0,-1.0435,130.9,432.6587)"
   gradientUnits="userSpaceOnUse">&#10;				<stop
   offset="0"
   style="stop-color:#FFFFFF"
   id="stop140" />&#10;				<stop
   offset="1"
   style="stop-color:#9BF0F3"
   id="stop141" />&#10;			</radialGradient>&#10;			<path
   class="st32"
   d="m 142.9,84.3 c 0,-0.1 0,-0.1 0,-0.2"
   id="path141"
   style="stroke:#000000;stroke-opacity:1" />&#10;		</g>&#10;		<g
   id="g143"
   style="stroke:#000000;stroke-opacity:1">&#10;			&#10;				<radialGradient
   id="SVGID_32_"
   cx="12"
   cy="361.17429"
   r="17.975"
   gradientTransform="matrix(1,0,0,-1.1794,137.4,547.4247)"
   gradientUnits="userSpaceOnUse">&#10;				<stop
   offset="0"
   style="stop-color:#FFFFFF"
   id="stop142" />&#10;				<stop
   offset="1"
   style="stop-color:#9BF0F3"
   id="stop143" />&#10;			</radialGradient>&#10;			<path
   class="st33"
   d="m 138,102.8 c -0.1,0.4 -0.2,0.8 -0.4,1.3 -0.5,1.3 -1.1,2 -1.8,2.1 h -0.1 c -0.7,0 -1.3,-0.3 -1.7,-0.9"
   id="path143"
   style="stroke:#000000;stroke-opacity:1" />&#10;		</g>&#10;		<g
   id="g145"
   style="stroke:#000000;stroke-opacity:1">&#10;			&#10;				<radialGradient
   id="SVGID_33_"
   cx="12"
   cy="348.04919"
   r="17.75"
   gradientTransform="matrix(1,0,0,-1.1099,108.75,487.1356)"
   gradientUnits="userSpaceOnUse">&#10;				<stop
   offset="0"
   style="stop-color:#FFFFFF"
   id="stop144" />&#10;				<stop
   offset="1"
   style="stop-color:#9BF0F3"
   id="stop145" />&#10;			</radialGradient>&#10;			<path
   class="st34"
   d="m 134.1,105.3 c -0.5,-0.7 -0.7,-1.8 -0.7,-3.3 0,-0.5 0.1,-0.9 0.2,-1.3"
   id="path145"
   style="stroke:#000000;stroke-opacity:1" />&#10;		</g>&#10;		<g
   id="g147"
   style="stroke:#000000;stroke-opacity:1">&#10;			&#10;				<radialGradient
   id="SVGID_34_"
   cx="12"
   cy="323.60001"
   r="4"
   gradientTransform="matrix(1,0,0,-1,121.95,432.25)"
   gradientUnits="userSpaceOnUse">&#10;				<stop
   offset="0"
   style="stop-color:#FFFFFF"
   id="stop146" />&#10;				<stop
   offset="1"
   style="stop-color:#9BF0F3"
   id="stop147" />&#10;			</radialGradient>&#10;			<path
   class="st35"
   d="m 134.1,105.3 c -0.3,1.5 -0.5,2.9 -0.5,4 0,1.1 0,1.8 0.1,2.1 0,0.2 0,0.5 0.1,0.8"
   id="path147"
   style="stroke:#000000;stroke-opacity:1" />&#10;		</g>&#10;		<g
   id="g149"
   style="stroke:#000000;stroke-opacity:1">&#10;			&#10;				<radialGradient
   id="SVGID_35_"
   cx="12"
   cy="350.26129"
   r="17.975"
   gradientTransform="matrix(1,0,0,-1.121,137.4,515.1434)"
   gradientUnits="userSpaceOnUse">&#10;				<stop
   offset="0"
   style="stop-color:#FFFFFF"
   id="stop148" />&#10;				<stop
   offset="1"
   style="stop-color:#9BF0F3"
   id="stop149" />&#10;			</radialGradient>&#10;			<path
   class="st36"
   d="m 135.9,106.2 c 0.1,0.8 0.2,1.8 0.3,3 0.3,2.9 0.6,4.7 0.8,5.5 m -3.2,-2.4 c 0.1,0.2 0.3,0.5 0.4,0.8"
   id="path149"
   style="stroke:#000000;stroke-opacity:1" />&#10;		</g>&#10;		<g
   id="g151"
   style="stroke:#000000;stroke-opacity:1">&#10;			&#10;				<radialGradient
   id="SVGID_36_"
   cx="12"
   cy="371.87161"
   r="15.85"
   gradientTransform="matrix(1,0,0,-1.2429,106.85,563.05)"
   gradientUnits="userSpaceOnUse">&#10;				<stop
   offset="0"
   style="stop-color:#FFFFFF"
   id="stop150" />&#10;				<stop
   offset="1"
   style="stop-color:#9BF0F3"
   id="stop151" />&#10;			</radialGradient>&#10;			<path
   class="st37"
   d="m 133.8,113.5 c 0,-0.4 -0.1,-0.8 -0.1,-1.2"
   id="path151"
   style="stroke:#000000;stroke-opacity:1" />&#10;		</g>&#10;		<g
   id="g153"
   style="stroke:#000000;stroke-opacity:1">&#10;			&#10;				<radialGradient
   id="SVGID_37_"
   cx="12"
   cy="393.8089"
   r="5.2249999"
   gradientTransform="matrix(1,0,0,-1.3971,121.45,669.3519)"
   gradientUnits="userSpaceOnUse">&#10;				<stop
   offset="0"
   style="stop-color:#FFFFFF"
   id="stop152" />&#10;				<stop
   offset="1"
   style="stop-color:#9BF0F3"
   id="stop153" />&#10;			</radialGradient>&#10;			<path
   class="st38"
   d="m 134.2,113.1 c -0.1,0.1 -0.3,0.3 -0.4,0.4"
   id="path153"
   style="stroke:#000000;stroke-opacity:1" />&#10;		</g>&#10;		<g
   id="g155"
   style="stroke:#000000;stroke-opacity:1">&#10;			&#10;				<radialGradient
   id="SVGID_38_"
   cx="12"
   cy="384.23541"
   r="5.2249999"
   gradientTransform="matrix(1,0,0,-1.3254,121.45,628.7498)"
   gradientUnits="userSpaceOnUse">&#10;				<stop
   offset="0"
   style="stop-color:#FFFFFF"
   id="stop154" />&#10;				<stop
   offset="1"
   style="stop-color:#9BF0F3"
   id="stop155" />&#10;			</radialGradient>&#10;			<path
   class="st39"
   d="m 133.8,113.5 c 0,0.6 0.1,1.1 0.1,1.7 0.2,1.3 0.3,2 0.3,2.2"
   id="path155"
   style="stroke:#000000;stroke-opacity:1" />&#10;		</g>&#10;		<g
   id="g157"
   style="stroke:#000000;stroke-opacity:1">&#10;			&#10;				<radialGradient
   id="SVGID_39_"
   cx="12"
   cy="330.64841"
   r="19.575001"
   gradientTransform="matrix(1,0,0,-1.0294,135.8,462.8609)"
   gradientUnits="userSpaceOnUse">&#10;				<stop
   offset="0"
   style="stop-color:#FFFFFF"
   id="stop156" />&#10;				<stop
   offset="1"
   style="stop-color:#9BF0F3"
   id="stop157" />&#10;			</radialGradient>&#10;			<path
   class="st40"
   d="m 134.2,113.1 c 0.9,1.5 1.8,3 2.8,4.6 0.8,1.5 1.2,3 1.2,4.6 0,1.4 -0.2,2.4 -0.7,3.1 -0.1,0.2 -0.3,0.4 -0.6,0.6"
   id="path157"
   style="stroke:#000000;stroke-opacity:1" />&#10;		</g>&#10;		<g
   id="g159"
   style="stroke:#000000;stroke-opacity:1">&#10;			&#10;				<radialGradient
   id="SVGID_40_"
   cx="12.025"
   cy="409.7569"
   r="15.7634"
   gradientTransform="matrix(1,0,0,-1.5357,117.25,781.9462)"
   gradientUnits="userSpaceOnUse">&#10;				<stop
   offset="0"
   style="stop-color:#FFFFFF"
   id="stop158" />&#10;				<stop
   offset="1"
   style="stop-color:#9BF0F3"
   id="stop159" />&#10;			</radialGradient>&#10;			<path
   class="st41"
   d="m 135,127.3 c -0.3,0.6 -0.6,1.3 -0.9,1.9 -0.6,1.3 -1,2.7 -1.4,3.9 -0.5,2 -0.8,3.9 -0.8,5.7 0,0.8 0,1.6 0,2.5 0,0.1 0.1,0.1 0.1,0.2 0,0.1 0.1,0.1 0.1,0.2 0.3,0.2 0.8,0.3 1.6,0.3 2.1,0 5.6,-1.8 10.8,-5.5 m -27.2,18 c 0.4,-0.5 0.8,-1 1.3,-1.4 0.7,-1.4 1.6,-2.7 2.6,-4 1.6,-1.9 2.6,-3.3 3,-4.3 0.8,-1.7 1,-3.6 0.7,-5.8 M 114,162.1 c 0.8,-3.3 1.9,-5.8 3.3,-7.6 M 132,141.6 c -1.2,1.2 -2,2.2 -2.5,2.9 -1,1.3 -1.6,2.1 -1.6,2.4 -0.1,0.3 0,0.7 0.1,1.1 0.1,0.4 0.7,0.6 1.6,0.6 0.9,0 1.6,-1.3 2.3,-3.9 0.2,-1.2 0.3,-2.2 0.4,-2.9 m -0.2,-0.2 v 0 m 4.7,7.8 c -8.4,0.1 -14,1 -16.8,2.8 -0.5,0.3 -0.9,0.6 -1.3,1"
   id="path159"
   style="stroke:#000000;stroke-opacity:1" />&#10;		</g>&#10;		<g
   id="g162"
   style="stroke:#000000;stroke-opacity:1">&#10;			&#10;				<radialGradient
   id="SVGID_41_"
   cx="12"
   cy="390.2562"
   r="92.125"
   gradientTransform="matrix(1,0,0,-1.3696,138.55,721.4974)"
   gradientUnits="userSpaceOnUse">&#10;				<stop
   offset="0"
   style="stop-color:#FFFFFF"
   id="stop160" />&#10;				<stop
   offset="0.7608"
   style="stop-color:#9BF0F3"
   id="stop161" />&#10;				<stop
   offset="1"
   style="stop-color:#4DD3F5"
   id="stop162" />&#10;			</radialGradient>&#10;			<path
   class="st42"
   d="m 159.8,281.2 c 0.5,1.5 1.1,2.9 1.9,4.4 1.2,2.2 3.5,5.4 6.9,9.5 3.3,4.1 5.6,7.3 6.9,9.6 0.9,1.6 1.6,3.3 2.1,5 m -43,-0.5 c -1.2,-3.4 -2.1,-6.1 -2.9,-8.3 -2.9,-9.1 -4.7,-20.3 -5.4,-33.5 m 3.1,1.6 c 0.8,3.7 1.5,8.8 2.1,15 1,6.1 2.9,10.6 5.8,13.4 2.3,2.3 5.2,5.6 8.8,10.1 0.6,0.8 2.46536,3.0708 3.06536,3.8708"
   id="path162"
   style="stroke:#000000;stroke-opacity:1"
   sodipodi:nodetypes="ccccccccccccc" />&#10;		</g>&#10;		<g
   transform="translate(-276.8,-38.45)"
   id="g167"
   style="stroke:#000000;stroke-opacity:1">&#10;			<g
   id="g166"
   style="stroke:#000000;stroke-opacity:1">&#10;				&#10;					<radialGradient
   id="SVGID_42_"
   cx="288.79999"
   cy="402.81589"
   r="94.349998"
   gradientTransform="matrix(1,0,0,-1.1977,170.2,594.6399)"
   gradientUnits="userSpaceOnUse">&#10;					<stop
   offset="0"
   style="stop-color:#FFFFFF"
   id="stop163" />&#10;					<stop
   offset="0.4275"
   style="stop-color:#9BF0F3"
   id="stop164" />&#10;					<stop
   offset="0.6902"
   style="stop-color:#398CCD"
   id="stop165" />&#10;					<stop
   offset="1"
   style="stop-color:#294360"
   id="stop166" />&#10;				</radialGradient>&#10;				<path
   class="st43"
   d="m 380.3,120.1 c -1.4,0.1 -2.1,0.5 -2.2,1.4"
   id="path166"
   style="stroke:#000000;stroke-opacity:1" />&#10;			</g>&#10;		</g>&#10;		<g
   transform="translate(-276.8,-38.45)"
   id="g171"
   style="stroke:#000000;stroke-opacity:1">&#10;			<g
   id="g170"
   style="stroke:#000000;stroke-opacity:1">&#10;				&#10;					<radialGradient
   id="SVGID_43_"
   cx="288.79999"
   cy="397.9704"
   r="83.737503"
   gradientTransform="matrix(1,0,0,-1.1702,183.2,610.4948)"
   gradientUnits="userSpaceOnUse">&#10;					<stop
   offset="0"
   style="stop-color:#FFFFFF"
   id="stop167" />&#10;					<stop
   offset="0.4275"
   style="stop-color:#9BF0F3"
   id="stop168" />&#10;					<stop
   offset="0.6902"
   style="stop-color:#398CCD"
   id="stop169" />&#10;					<stop
   offset="1"
   style="stop-color:#294360"
   id="stop170" />&#10;				</radialGradient>&#10;				<path
   class="st44"
   d="m 438,141.1 c 4.8,-0.5 10,-2.8 15.8,-6.7 0.2,-0.1 0.4,-0.3 0.6,-0.4 0.6,-0.4 1.2,-0.9 1.8,-1.3 0.3,-0.3 0.7,-0.5 1,-0.8 3.5,-2.7 6.1,-4.5 7.6,-5.4 2.8,-1.6 5.6,-2.4 8.3,-2.4 1.9,0 3.6,0.7 5,2 1.5,1.4 2.3,3.1 2.3,5.1 0,1.1 -0.3,2.4 -0.8,4 -0.1,0.3 -0.3,0.6 -0.5,1 0.1,-0.3 0.1,-0.6 0.1,-0.9 0,-0.7 -0.1,-1.3 -0.3,-1.9 -0.3,-1 -1,-1.9 -2,-2.5 -1.3,-0.8 -3.1,-1.3 -5.3,-1.3 -0.3,0 -0.7,0 -1,0 -1.5,0.2 -3,0.6 -4.4,1.2 -2,0.7 -4,1.6 -6,2.7 -0.2,0.1 -0.4,0.2 -0.6,0.3 0,0 -0.1,0 -0.1,0.1 -0.2,0.1 -0.4,0.2 -0.6,0.4 -0.5,0.3 -1,0.6 -1.5,0.9 -1.7,1 -3.4,2 -5,3.1 -0.6,0.4 -1.2,0.8 -1.8,1.1"
   id="path170"
   style="stroke:#000000;stroke-opacity:1" />&#10;			</g>&#10;		</g>&#10;		<g
   transform="translate(-12,-49.6)"
   id="g175"
   style="stroke:#000000;stroke-opacity:1">&#10;			<g
   id="g174"
   style="stroke:#000000;stroke-opacity:1">&#10;				&#10;					<radialGradient
   id="SVGID_44_"
   cx="24"
   cy="409.12039"
   r="83.737503"
   gradientTransform="matrix(1,0,0,-1.1702,183.2,634.6923)"
   gradientUnits="userSpaceOnUse">&#10;					<stop
   offset="0"
   style="stop-color:#FFFFFF"
   id="stop171" />&#10;					<stop
   offset="0.4275"
   style="stop-color:#9BF0F3"
   id="stop172" />&#10;					<stop
   offset="0.6902"
   style="stop-color:#398CCD"
   id="stop173" />&#10;					<stop
   offset="1"
   style="stop-color:#294360"
   id="stop174" />&#10;				</radialGradient>&#10;				<path
   class="st45"
   d="m 150.1,151.6 c 0.2,0 0.4,0.1 0.6,0.1 m -10.6,-8.8 c 0.5,3.5 2.4,5.9 5.6,7.4 1.1,0.5 2.3,0.9 3.6,1.2 m 5.4,3.9 c -2.1,-0.9 -3.7,-1.8 -4.7,-2.9"
   id="path174"
   style="stroke:#000000;stroke-opacity:1" />&#10;			</g>&#10;		</g>&#10;		<g
   transform="translate(-12,-49.6)"
   id="g183"
   style="stroke:#000000;stroke-opacity:1">&#10;			<g
   id="g178"
   style="stroke:#000000;stroke-opacity:1">&#10;				&#10;					<radialGradient
   id="SVGID_45_"
   cx="24"
   cy="413.96591"
   r="94.349998"
   gradientTransform="matrix(1,0,0,-1.1977,170.2,619.1439)"
   gradientUnits="userSpaceOnUse">&#10;					<stop
   offset="0"
   style="stop-color:#FFFFFF"
   id="stop175" />&#10;					<stop
   offset="0.4275"
   style="stop-color:#9BF0F3"
   id="stop176" />&#10;					<stop
   offset="0.6902"
   style="stop-color:#398CCD"
   id="stop177" />&#10;					<stop
   offset="1"
   style="stop-color:#294360"
   id="stop178" />&#10;				</radialGradient>&#10;				<path
   class="st46"
   d="m 115.3,136.1 c -0.5,0.2 -1,0.3 -1.6,0.3 -0.1,0 -0.3,0 -0.4,0 -1.6,-0.1 -2.7,-0.5 -3.4,-1.3 -0.9,-1 -1.3,-2.6 -1.3,-4.9 0,-1.9 0.7,-3.3 2.1,-4.3 1.2,-0.8 2.6,-1.3 4.2,-1.3 0.8,0 1.7,0.1 2.6,0.4 1.5,0.5 3.2,1.4 5,2.8 3.2,2.4 5.5,3.7 6.8,4.1 2.5,0.6 4.4,1.2 5.9,1.8 0.3,-0.2 0.7,-0.4 1.1,-0.6 1.5,-0.7 3,-0.9 4.5,-0.7 0.9,0.1 1.7,0.4 2.6,0.8 0.5,-0.4 1.1,-0.7 1.8,-1 1.4,-0.6 2.7,-0.9 3.9,-0.9 0.8,0 1.6,0.1 2.3,0.3 0.1,-1.1 0.9,-1.9 2.4,-2.5 0.6,-0.2 1.2,-0.4 1.9,-0.6 v 0 c 0,-0.1 -0.1,-0.1 -0.1,-0.2 -0.4,-1 -0.6,-2.2 -0.6,-3.6 0,-0.8 0.1,-1.5 0.3,-2.1 0.1,-0.4 0.3,-0.8 0.4,-1.1 0,-0.1 0.1,-0.1 0.2,-0.2 l -0.1,-0.3 c 0,-2 0.6,-3.1 1.7,-3.3 0.1,0 0.2,0 0.4,0 0.6,0 1.1,0.1 1.5,0.4 0.1,-0.2 0.3,-0.4 0.5,-0.6 1,-1.1 2.3,-1.7 3.8,-1.7 1.4,0 2.3,0.6 2.5,1.8 1.1,-0.2 2.3,0 3.5,0.6 0.7,0.3 1.3,0.8 1.9,1.6 0.3,0.4 0.4,0.8 0.5,1.3 0.1,0 0.1,0 0.2,0 1,0 1.9,-0.1 2.8,-0.3 0.3,-0.3 0.6,-0.5 0.9,-0.8 3.4,-3.1 6.9,-4.6 10.6,-4.6 2.2,0 4,0.7 5.3,2 1.2,1.3 1.8,3.1 1.8,5.3 0,2 -0.6,3.9 -1.8,5.8 -1.4,2.1 -3.2,3.1 -5.5,3.1 -0.8,0 -1.5,-0.3 -2,-0.8 -0.5,-0.5 -0.8,-1.1 -0.8,-1.9 0,-0.7 0.2,-1.3 0.7,-1.8 0,0.9 0.2,1.5 0.6,1.9 0.4,0.4 1.1,0.6 2,0.6 1.1,0 2.1,-0.3 3,-0.8 1,-0.7 1.5,-1.6 1.5,-2.7 0,-1.3 -0.4,-2.3 -1.1,-3 -0.8,-0.8 -1.9,-1.2 -3.4,-1.2 -1.9,0 -4.4,0.8 -7.7,2.4 -0.7,0.3 -1.3,0.6 -1.9,0.9 -1.8,3 -4.4,4.2 -7.8,3.5 -1.8,-0.4 -3.3,-1.1 -4.7,-2.3 -0.1,0.2 -0.1,0.3 -0.2,0.5 -0.3,0.6 -0.7,1.2 -1.3,1.7 l -0.1,0.1 c -0.6,0.6 -1.3,0.9 -2,1.1 0.1,0.2 0.1,0.4 0.1,0.6 0,1.2 -0.8,1.9 -2.5,2.3 -0.1,0.8 -0.5,1.6 -1.1,2.3 -0.8,0.9 -1.9,1.4 -3.2,1.5 -0.2,0.6 -0.6,1.2 -1.1,1.7 -0.7,0.8 -1.6,1.3 -2.7,1.5 -0.5,0.1 -1,0.2 -1.6,0.2 -1.3,0 -2.3,-0.1 -2.9,-0.2 0.2,-0.3 0.3,-0.7 0.4,-1.1 0.1,-0.4 0.1,-0.8 0.1,-1.2 0,-0.1 0,-0.1 0,-0.2 v 0 c 0,-0.4 -0.1,-0.8 -0.2,-1.1 0,0 0,-0.1 0,-0.1 -0.1,-0.2 -0.2,-0.3 -0.3,-0.4 -0.6,-0.3 -1.2,-0.4 -1.8,-0.4 -1,0 -1.9,0.1 -2.8,0.4 -0.2,0.1 -0.4,0.1 -0.6,0.2 -0.7,0.2 -1.4,0.5 -2,0.9 0,0 -0.1,0 -0.1,0.1 -0.2,0.1 -0.3,0.2 -0.5,0.3 -1.2,1.1 -2.7,1.6 -4.4,1.6 -2.2,0 -4.8,-0.7 -7.7,-2.1 -0.9,-0.4 -1.8,-0.9 -2.8,-1.5 -4.1,-2.4 -6.7,-3.5 -7.8,-3.5 -0.1,0 -0.2,0 -0.3,0 m 40.5,-10.4 c 0.5,-0.7 1.2,-1.1 2.1,-1.1 0.4,0 0.8,0.2 1.2,0.4 0.2,0.2 0.4,0.5 0.7,0.8 0.2,0.3 0.4,0.7 0.6,1.1 0,-0.2 0.1,-0.3 0.1,-0.5 0.1,-0.2 0.1,-0.6 0.1,-1.2 0,-0.3 0,-0.6 -0.1,-0.8 -0.1,-1 -0.5,-1.6 -1.1,-2 m 3.3,1.5 c 0.3,0 0.7,-0.1 1.1,-0.1 0.4,0 1,0.1 1.8,0.3 0.3,-0.5 0.5,-1 0.5,-1.5 0,-0.2 0,-0.5 0,-0.7 -1.4,0.2 -2.5,0.9 -3.4,2 -0.8,0.1 -1.5,0.3 -2.3,0.5 m -4.9,8.4 c 0.7,-0.1 1.4,-0.2 2.1,-0.2 0.2,0 0.4,0 0.6,0.1 0.1,-1.7 0.6,-3.1 1.4,-4.2 0.2,-0.3 0.5,-0.6 0.7,-0.8 0,-0.3 -0.1,-0.5 -0.1,-0.8 m 0.2,0.8 c 0.6,-0.6 1.3,-0.8 2.1,-0.8 1.6,0 2.4,0.9 2.4,2.7 v 0 c 2.2,1 4.4,1.5 6.6,1.5 1.5,0 3.5,-0.5 5.8,-1.6 m -11.8,-5.4 c 0.6,0.1 1.2,0.3 2,0.5 1.8,0.5 3.2,0.7 4.4,0.8 M 143.3,133 c 0.6,0.3 1.3,0.6 1.8,1 0.5,0.3 0.8,0.7 1.1,1.1 0,0 0.1,0.1 0.1,0.2 m 0.3,0.5 c 0.6,-0.1 1.1,-0.3 1.7,-0.5 0.5,-0.2 1,-0.4 1.4,-0.7 1.2,-0.6 2.3,-0.9 3.3,-1 0.1,0 0.2,0 0.3,0 0.4,0 0.9,0.1 1.5,0.3 v 0.1 h 0.1 c 0,-0.1 -0.1,-0.1 -0.1,-0.1 -0.3,-0.4 -0.6,-0.7 -0.9,-1 -0.3,-0.2 -0.5,-0.4 -0.8,-0.6 -0.6,-0.4 -1.3,-0.7 -2,-0.9 m -16,2.2 c 0.5,0.2 1,0.4 1.4,0.7 1,0.6 1.9,1.3 2.6,2 -0.1,0.1 -0.3,0.3 -0.4,0.4 m 8.1,0.3 c 0,-0.4 0,-0.7 -0.1,-0.8 0,-0.1 -0.1,-0.2 -0.1,-0.4 m 18.2,-9.6 c 0.1,-0.4 0.1,-0.8 0.1,-1.2 m -6.5,3.1 c 0.6,0 1.1,0.2 1.7,0.4 0.6,0.3 1,0.6 1.3,1 m -6.5,4.4 c 0.1,0.1 0.1,0.3 0.2,0.4 0,0.7 -0.1,1.4 -0.4,2.1 m 4.2,-3.9 c -0.8,0.2 -1.9,0.3 -3.1,0.3 -0.8,0 -1.4,0 -1.8,-0.1 m 17.1,-9.6 c 1.2,-0.6 2.5,-1.5 3.9,-2.6"
   id="path178"
   style="stroke:#000000;stroke-opacity:1" />&#10;			</g>&#10;			<g
   id="g182"
   style="stroke:#000000;stroke-opacity:1">&#10;				&#10;					<radialGradient
   id="SVGID_46_"
   cx="24"
   cy="409.12039"
   r="83.737503"
   gradientTransform="matrix(1,0,0,-1.1702,183.2,634.6923)"
   gradientUnits="userSpaceOnUse">&#10;					<stop
   offset="0"
   style="stop-color:#FFFFFF"
   id="stop179" />&#10;					<stop
   offset="0.4275"
   style="stop-color:#9BF0F3"
   id="stop180" />&#10;					<stop
   offset="0.6902"
   style="stop-color:#398CCD"
   id="stop181" />&#10;					<stop
   offset="1"
   style="stop-color:#294360"
   id="stop182" />&#10;				</radialGradient>&#10;				<path
   class="st47"
   d="m 142.2,142.4 c 1.2,1.9 3.1,3.5 5.9,4.8 0.2,0.1 0.3,0.2 0.5,0.3 0.4,0.2 0.8,0.4 1.3,0.5 1.5,0.5 3.2,1 5.2,1.5 2.7,0.3 5.9,0.5 9.8,0.5 5.1,0 10.1,-0.6 14.9,-1.7 3.1,-0.7 6.1,-1.7 9,-2.9"
   id="path182"
   style="stroke:#000000;stroke-opacity:1" />&#10;			</g>&#10;		</g>&#10;		<g
   transform="translate(-12,-49.6)"
   id="g187"
   style="stroke:#000000;stroke-opacity:1">&#10;			<g
   id="g186"
   style="stroke:#000000;stroke-opacity:1">&#10;				&#10;					<radialGradient
   id="SVGID_47_"
   cx="24"
   cy="413.96591"
   r="94.349998"
   gradientTransform="matrix(1,0,0,-1.1977,170.2,619.1439)"
   gradientUnits="userSpaceOnUse">&#10;					<stop
   offset="0"
   style="stop-color:#FFFFFF"
   id="stop183" />&#10;					<stop
   offset="0.4275"
   style="stop-color:#9BF0F3"
   id="stop184" />&#10;					<stop
   offset="0.6902"
   style="stop-color:#398CCD"
   id="stop185" />&#10;					<stop
   offset="1"
   style="stop-color:#294360"
   id="stop186" />&#10;				</radialGradient>&#10;				<path
   class="st48"
   d="m 146.3,139.5 c -0.5,0.9 -1.3,1.6 -2.4,2.2 -0.5,0.3 -1.1,0.5 -1.8,0.7 -0.7,0.2 -1.4,0.4 -2.1,0.4 -0.5,0 -1.1,0.1 -1.7,0.1 -2.7,0 -5.2,-0.6 -7.5,-1.9 -2.2,-1.2 -3.6,-2.8 -4.4,-4.7"
   id="path186"
   style="stroke:#000000;stroke-opacity:1" />&#10;			</g>&#10;		</g>&#10;		<g
   transform="translate(-276.8,-38.45)"
   id="g190"
   style="stroke:#000000;stroke-opacity:1">&#10;			<g
   id="g189"
   style="stroke:#000000;stroke-opacity:1">&#10;				&#10;					<radialGradient
   id="SVGID_48_"
   cx="288.79999"
   cy="375.50131"
   r="138.89999"
   gradientTransform="matrix(1,0,0,-1.0576,241.2,615.9285)"
   gradientUnits="userSpaceOnUse">&#10;					<stop
   offset="0"
   style="stop-color:#FFFFFF"
   id="stop187" />&#10;					<stop
   offset="0.8471"
   style="stop-color:#9BF0F3"
   id="stop188" />&#10;					<stop
   offset="1"
   style="stop-color:#9BF0F3"
   id="stop189" />&#10;				</radialGradient>&#10;				<path
   class="st49"
   d="m 393.9,152.5 c -0.9,0 -1.4,-0.3 -1.6,-0.9 -0.4,-1.5 -1.4,-2.1 -3,-1.8 -1.6,0.2 -2.2,-1 -1.8,-3.8 0.4,-2.8 0.5,-4.8 0.2,-6.1 -0.3,-1.3 -1.1,-2.2 -2.5,-2.9 -0.7,-0.4 -1.4,-1.1 -2,-2.3 -0.5,-1.1 -1,-2.4 -1.4,-4.2 -0.5,-2.1 -0.9,-4 -1.1,-5.8"
   id="path189"
   style="stroke:#000000;stroke-opacity:1" />&#10;			</g>&#10;		</g>&#10;		<g
   transform="translate(-12,-49.6)"
   id="g193"
   style="stroke:#000000;stroke-opacity:1">&#10;			<g
   id="g192"
   style="stroke:#000000;stroke-opacity:1">&#10;				&#10;					<radialGradient
   id="SVGID_49_"
   cx="24"
   cy="386.65131"
   r="138.89999"
   gradientTransform="matrix(1,0,0,-1.0576,241.2,638.8707)"
   gradientUnits="userSpaceOnUse">&#10;					<stop
   offset="0"
   style="stop-color:#FFFFFF"
   id="stop190" />&#10;					<stop
   offset="0.8471"
   style="stop-color:#9BF0F3"
   id="stop191" />&#10;					<stop
   offset="1"
   style="stop-color:#9BF0F3"
   id="stop192" />&#10;				</radialGradient>&#10;				<path
   class="st50"
   d="m 194.1,145.4 c 2.1,1.4 5.9,3.9 11.3,7.6 3.3,2.3 7.4,4.1 12.3,5.5 2.9,0 5.6,0.3 8.1,0.9 0.7,0.2 1.4,0.4 2,0.6 1.9,0.6 3.6,1.4 5.2,2.3 4.6,2.9 7,7.1 7.1,12.7"
   id="path192"
   style="stroke:#000000;stroke-opacity:1" />&#10;			</g>&#10;		</g>&#10;		<g
   transform="translate(-276.8,-38.45)"
   id="g197"
   style="stroke:#000000;stroke-opacity:1">&#10;			<g
   id="g196"
   style="stroke:#000000;stroke-opacity:1">&#10;				&#10;					<radialGradient
   id="SVGID_50_"
   cx="288.79999"
   cy="397.9704"
   r="83.737503"
   gradientTransform="matrix(1,0,0,-1.1702,183.2,610.4948)"
   gradientUnits="userSpaceOnUse">&#10;					<stop
   offset="0"
   style="stop-color:#FFFFFF"
   id="stop193" />&#10;					<stop
   offset="0.4275"
   style="stop-color:#9BF0F3"
   id="stop194" />&#10;					<stop
   offset="0.6902"
   style="stop-color:#398CCD"
   id="stop195" />&#10;					<stop
   offset="1"
   style="stop-color:#294360"
   id="stop196" />&#10;				</radialGradient>&#10;				<path
   class="st51"
   d="m 419.5,144.2 c 0.5,0.2 1,0.4 1.6,0.6 3.8,1.2 8,1.8 12.4,1.8 4.4,0 9,-1.3 13.6,-3.8 3.5,-1.9 7.4,-4.7 11.8,-8.5"
   id="path196"
   style="stroke:#000000;stroke-opacity:1" />&#10;			</g>&#10;		</g>&#10;		<g
   transform="translate(-276.8,-38.45)"
   id="g199"
   style="stroke:#000000;stroke-opacity:1">&#10;			<g
   id="g198"
   style="stroke:#000000;stroke-opacity:1">&#10;				&#10;					<radialGradient
   id="SVGID_51_"
   cx="288.79999"
   cy="369.76111"
   r="48.875"
   gradientTransform="matrix(1,0,0,-1.0322,173.05,605.9766)"
   gradientUnits="userSpaceOnUse">&#10;					<stop
   offset="0"
   style="stop-color:#FFFFFF"
   id="stop197" />&#10;					<stop
   offset="1"
   style="stop-color:#9BF0F3"
   id="stop198" />&#10;				</radialGradient>&#10;				<path
   class="st52"
   d="m 436.3,230.5 c 0.2,-1.3 1.2,-1.9 2.8,-1.9 1.5,0 3,0.5 4.6,1.4 1.9,1.1 3.8,2.8 5.8,5.1 0.9,1 1.7,2.1 2.4,3.1 2.1,3.1 3.1,6 3.1,8.8 0,1 -0.1,1.9 -0.3,2.9 0,0.2 -0.1,0.3 -0.1,0.5 -0.1,0.3 -0.2,0.7 -0.3,1 -0.5,1.5 -1.3,2.3 -2.5,2.5 -0.1,0 -0.3,0 -0.4,0 -1.3,0 -2.8,-1 -4.4,-3"
   id="path198"
   style="stroke:#000000;stroke-opacity:1" />&#10;			</g>&#10;		</g>&#10;		<g
   transform="translate(-276.8,-38.45)"
   id="g203"
   style="stroke:#000000;stroke-opacity:1">&#10;			<g
   id="g202"
   style="stroke:#000000;stroke-opacity:1">&#10;				&#10;					<radialGradient
   id="SVGID_52_"
   cx="288.79999"
   cy="403.56409"
   r="86.25"
   gradientTransform="matrix(1,0,0,-1.202,230.4,706.6957)"
   gradientUnits="userSpaceOnUse">&#10;					<stop
   offset="0"
   style="stop-color:#FFFFFF"
   id="stop199" />&#10;					<stop
   offset="0.4275"
   style="stop-color:#9BF0F3"
   id="stop200" />&#10;					<stop
   offset="0.6902"
   style="stop-color:#398CCD"
   id="stop201" />&#10;					<stop
   offset="1"
   style="stop-color:#294360"
   id="stop202" />&#10;				</radialGradient>&#10;				<path
   class="st53"
   d="m 455.5,228.1 c 2.4,-0.6 4.4,-1.8 6.1,-3.6 0.1,-0.1 0.2,-0.2 0.3,-0.3 0.4,-0.5 0.8,-1 1,-1.5 0.3,-0.6 0.5,-1.3 0.5,-2 0,-0.2 0,-0.5 0,-0.8 0,-0.5 -0.1,-1.1 -0.3,-1.6"
   id="path202"
   style="stroke:#000000;stroke-opacity:1" />&#10;			</g>&#10;		</g>&#10;	</g>&#10;	&#10;	&#10;</g>&#10;&#10;</svg>
